<?xml version="1.0" encoding="utf-8"?>
<svg xmlns="http://www.w3.org/2000/svg" xmlns:xlink="http://www.w3.org/1999/xlink" width="600" height="400" viewBox="0 0 2400 1600">
<defs>
  <clipPath id="clip850">
    <rect x="0" y="0" width="2400" height="1600"/>
  </clipPath>
</defs>
<path clip-path="url(#clip850)" d="M0 1600 L2400 1600 L2400 0 L0 0  Z" fill="#ffffff" fill-rule="evenodd" fill-opacity="1"/>
<defs>
  <clipPath id="clip851">
    <rect x="480" y="0" width="1681" height="1600"/>
  </clipPath>
</defs>
<path clip-path="url(#clip850)" d="M235.283 1423.18 L2352.76 1423.18 L2352.76 149.392 L235.283 149.392  Z" fill="#ffffff" fill-rule="evenodd" fill-opacity="1"/>
<defs>
  <clipPath id="clip852">
    <rect x="235" y="149" width="2118" height="1275"/>
  </clipPath>
</defs>
<polyline clip-path="url(#clip852)" style="stroke:#000000; stroke-linecap:round; stroke-linejoin:round; stroke-width:2; stroke-opacity:0.1; fill:none" points="428.386,1423.18 428.386,149.392 "/>
<polyline clip-path="url(#clip852)" style="stroke:#000000; stroke-linecap:round; stroke-linejoin:round; stroke-width:2; stroke-opacity:0.1; fill:none" points="827.909,1423.18 827.909,149.392 "/>
<polyline clip-path="url(#clip852)" style="stroke:#000000; stroke-linecap:round; stroke-linejoin:round; stroke-width:2; stroke-opacity:0.1; fill:none" points="1227.43,1423.18 1227.43,149.392 "/>
<polyline clip-path="url(#clip852)" style="stroke:#000000; stroke-linecap:round; stroke-linejoin:round; stroke-width:2; stroke-opacity:0.1; fill:none" points="1626.96,1423.18 1626.96,149.392 "/>
<polyline clip-path="url(#clip852)" style="stroke:#000000; stroke-linecap:round; stroke-linejoin:round; stroke-width:2; stroke-opacity:0.1; fill:none" points="2026.48,1423.18 2026.48,149.392 "/>
<polyline clip-path="url(#clip850)" style="stroke:#000000; stroke-linecap:round; stroke-linejoin:round; stroke-width:4; stroke-opacity:1; fill:none" points="235.283,1423.18 2352.76,1423.18 "/>
<polyline clip-path="url(#clip850)" style="stroke:#000000; stroke-linecap:round; stroke-linejoin:round; stroke-width:4; stroke-opacity:1; fill:none" points="428.386,1423.18 428.386,1404.28 "/>
<polyline clip-path="url(#clip850)" style="stroke:#000000; stroke-linecap:round; stroke-linejoin:round; stroke-width:4; stroke-opacity:1; fill:none" points="827.909,1423.18 827.909,1404.28 "/>
<polyline clip-path="url(#clip850)" style="stroke:#000000; stroke-linecap:round; stroke-linejoin:round; stroke-width:4; stroke-opacity:1; fill:none" points="1227.43,1423.18 1227.43,1404.28 "/>
<polyline clip-path="url(#clip850)" style="stroke:#000000; stroke-linecap:round; stroke-linejoin:round; stroke-width:4; stroke-opacity:1; fill:none" points="1626.96,1423.18 1626.96,1404.28 "/>
<polyline clip-path="url(#clip850)" style="stroke:#000000; stroke-linecap:round; stroke-linejoin:round; stroke-width:4; stroke-opacity:1; fill:none" points="2026.48,1423.18 2026.48,1404.28 "/>
<path clip-path="url(#clip850)" d="M428.791 1466.44 Q425.643 1466.44 423.791 1468.59 Q421.962 1470.74 421.962 1474.49 Q421.962 1478.22 423.791 1480.39 Q425.643 1482.55 428.791 1482.55 Q431.939 1482.55 433.768 1480.39 Q435.619 1478.22 435.619 1474.49 Q435.619 1470.74 433.768 1468.59 Q431.939 1466.44 428.791 1466.44 M438.073 1451.78 L438.073 1456.04 Q436.314 1455.21 434.508 1454.77 Q432.726 1454.33 430.967 1454.33 Q426.337 1454.33 423.883 1457.45 Q421.453 1460.58 421.106 1466.9 Q422.471 1464.89 424.532 1463.82 Q426.592 1462.73 429.069 1462.73 Q434.277 1462.73 437.286 1465.9 Q440.319 1469.05 440.319 1474.49 Q440.319 1479.82 437.17 1483.03 Q434.022 1486.25 428.791 1486.25 Q422.795 1486.25 419.624 1481.67 Q416.453 1477.06 416.453 1468.33 Q416.453 1460.14 420.342 1455.28 Q424.231 1450.39 430.782 1450.39 Q432.541 1450.39 434.323 1450.74 Q436.129 1451.09 438.073 1451.78 Z" fill="#000000" fill-rule="nonzero" fill-opacity="1" /><path clip-path="url(#clip850)" d="M818.21 1484.86 L818.21 1480.6 Q819.969 1481.44 821.775 1481.88 Q823.58 1482.32 825.316 1482.32 Q829.946 1482.32 832.377 1479.21 Q834.83 1476.09 835.177 1469.75 Q833.835 1471.74 831.775 1472.8 Q829.715 1473.87 827.215 1473.87 Q822.029 1473.87 818.997 1470.74 Q815.988 1467.59 815.988 1462.15 Q815.988 1456.83 819.136 1453.61 Q822.284 1450.39 827.515 1450.39 Q833.511 1450.39 836.659 1455 Q839.83 1459.58 839.83 1468.33 Q839.83 1476.51 835.941 1481.39 Q832.076 1486.25 825.525 1486.25 Q823.765 1486.25 821.96 1485.9 Q820.154 1485.56 818.21 1484.86 M827.515 1470.21 Q830.664 1470.21 832.492 1468.06 Q834.344 1465.9 834.344 1462.15 Q834.344 1458.43 832.492 1456.27 Q830.664 1454.1 827.515 1454.1 Q824.367 1454.1 822.515 1456.27 Q820.687 1458.43 820.687 1462.15 Q820.687 1465.9 822.515 1468.06 Q824.367 1470.21 827.515 1470.21 Z" fill="#000000" fill-rule="nonzero" fill-opacity="1" /><path clip-path="url(#clip850)" d="M1202.92 1481.64 L1210.56 1481.64 L1210.56 1455.28 L1202.25 1456.95 L1202.25 1452.69 L1210.51 1451.02 L1215.19 1451.02 L1215.19 1481.64 L1222.83 1481.64 L1222.83 1485.58 L1202.92 1485.58 L1202.92 1481.64 Z" fill="#000000" fill-rule="nonzero" fill-opacity="1" /><path clip-path="url(#clip850)" d="M1236.3 1481.64 L1252.62 1481.64 L1252.62 1485.58 L1230.67 1485.58 L1230.67 1481.64 Q1233.33 1478.89 1237.92 1474.26 Q1242.52 1469.61 1243.71 1468.27 Q1245.95 1465.74 1246.83 1464.01 Q1247.73 1462.25 1247.73 1460.56 Q1247.73 1457.8 1245.79 1456.07 Q1243.87 1454.33 1240.77 1454.33 Q1238.57 1454.33 1236.11 1455.09 Q1233.68 1455.86 1230.9 1457.41 L1230.9 1452.69 Q1233.73 1451.55 1236.18 1450.97 Q1238.64 1450.39 1240.67 1450.39 Q1246.04 1450.39 1249.24 1453.08 Q1252.43 1455.77 1252.43 1460.26 Q1252.43 1462.39 1251.62 1464.31 Q1250.83 1466.2 1248.73 1468.8 Q1248.15 1469.47 1245.05 1472.69 Q1241.95 1475.88 1236.3 1481.64 Z" fill="#000000" fill-rule="nonzero" fill-opacity="1" /><path clip-path="url(#clip850)" d="M1602.14 1481.64 L1609.78 1481.64 L1609.78 1455.28 L1601.47 1456.95 L1601.47 1452.69 L1609.73 1451.02 L1614.41 1451.02 L1614.41 1481.64 L1622.05 1481.64 L1622.05 1485.58 L1602.14 1485.58 L1602.14 1481.64 Z" fill="#000000" fill-rule="nonzero" fill-opacity="1" /><path clip-path="url(#clip850)" d="M1631.54 1451.02 L1649.9 1451.02 L1649.9 1454.96 L1635.82 1454.96 L1635.82 1463.43 Q1636.84 1463.08 1637.86 1462.92 Q1638.88 1462.73 1639.9 1462.73 Q1645.68 1462.73 1649.06 1465.9 Q1652.44 1469.08 1652.44 1474.49 Q1652.44 1480.07 1648.97 1483.17 Q1645.5 1486.25 1639.18 1486.25 Q1637 1486.25 1634.73 1485.88 Q1632.49 1485.51 1630.08 1484.77 L1630.08 1480.07 Q1632.16 1481.2 1634.39 1481.76 Q1636.61 1482.32 1639.08 1482.32 Q1643.09 1482.32 1645.43 1480.21 Q1647.77 1478.1 1647.77 1474.49 Q1647.77 1470.88 1645.43 1468.77 Q1643.09 1466.67 1639.08 1466.67 Q1637.21 1466.67 1635.33 1467.08 Q1633.48 1467.5 1631.54 1468.38 L1631.54 1451.02 Z" fill="#000000" fill-rule="nonzero" fill-opacity="1" /><path clip-path="url(#clip850)" d="M2001.21 1481.64 L2008.85 1481.64 L2008.85 1455.28 L2000.54 1456.95 L2000.54 1452.69 L2008.81 1451.02 L2013.48 1451.02 L2013.48 1481.64 L2021.12 1481.64 L2021.12 1485.58 L2001.21 1485.58 L2001.21 1481.64 Z" fill="#000000" fill-rule="nonzero" fill-opacity="1" /><path clip-path="url(#clip850)" d="M2040.56 1469.17 Q2037.23 1469.17 2035.31 1470.95 Q2033.41 1472.73 2033.41 1475.86 Q2033.41 1478.98 2035.31 1480.77 Q2037.23 1482.55 2040.56 1482.55 Q2043.9 1482.55 2045.82 1480.77 Q2047.74 1478.96 2047.74 1475.86 Q2047.74 1472.73 2045.82 1470.95 Q2043.92 1469.17 2040.56 1469.17 M2035.89 1467.18 Q2032.88 1466.44 2031.19 1464.38 Q2029.52 1462.32 2029.52 1459.35 Q2029.52 1455.21 2032.46 1452.8 Q2035.43 1450.39 2040.56 1450.39 Q2045.73 1450.39 2048.67 1452.8 Q2051.61 1455.21 2051.61 1459.35 Q2051.61 1462.32 2049.92 1464.38 Q2048.25 1466.44 2045.26 1467.18 Q2048.64 1467.96 2050.52 1470.26 Q2052.42 1472.55 2052.42 1475.86 Q2052.42 1480.88 2049.34 1483.57 Q2046.28 1486.25 2040.56 1486.25 Q2034.85 1486.25 2031.77 1483.57 Q2028.71 1480.88 2028.71 1475.86 Q2028.71 1472.55 2030.61 1470.26 Q2032.51 1467.96 2035.89 1467.18 M2034.18 1459.79 Q2034.18 1462.48 2035.84 1463.98 Q2037.53 1465.49 2040.56 1465.49 Q2043.57 1465.49 2045.26 1463.98 Q2046.98 1462.48 2046.98 1459.79 Q2046.98 1457.11 2045.26 1455.6 Q2043.57 1454.1 2040.56 1454.1 Q2037.53 1454.1 2035.84 1455.6 Q2034.18 1457.11 2034.18 1459.79 Z" fill="#000000" fill-rule="nonzero" fill-opacity="1" /><path clip-path="url(#clip850)" d="M1051.17 1533.76 L1051.17 1539.24 Q1048.69 1537.87 1046.17 1537.2 Q1043.69 1536.5 1041.14 1536.5 Q1035.44 1536.5 1032.29 1540.13 Q1029.14 1543.73 1029.14 1550.25 Q1029.14 1556.78 1032.29 1560.4 Q1035.44 1564 1041.14 1564 Q1043.69 1564 1046.17 1563.33 Q1048.69 1562.63 1051.17 1561.26 L1051.17 1566.68 Q1048.72 1567.82 1046.08 1568.39 Q1043.47 1568.97 1040.51 1568.97 Q1032.45 1568.97 1027.71 1563.91 Q1022.97 1558.85 1022.97 1550.25 Q1022.97 1541.53 1027.74 1536.53 Q1032.55 1531.54 1040.89 1531.54 Q1043.59 1531.54 1046.17 1532.11 Q1048.75 1532.65 1051.17 1533.76 Z" fill="#000000" fill-rule="nonzero" fill-opacity="1" /><path clip-path="url(#clip850)" d="M1090.99 1546.53 L1090.99 1568.04 L1085.13 1568.04 L1085.13 1546.72 Q1085.13 1541.66 1083.16 1539.14 Q1081.18 1536.63 1077.24 1536.63 Q1072.49 1536.63 1069.76 1539.65 Q1067.02 1542.68 1067.02 1547.9 L1067.02 1568.04 L1061.13 1568.04 L1061.13 1518.52 L1067.02 1518.52 L1067.02 1537.93 Q1069.12 1534.72 1071.95 1533.13 Q1074.82 1531.54 1078.54 1531.54 Q1084.68 1531.54 1087.83 1535.36 Q1090.99 1539.14 1090.99 1546.53 Z" fill="#000000" fill-rule="nonzero" fill-opacity="1" /><path clip-path="url(#clip850)" d="M1133.16 1548.76 L1133.16 1551.62 L1106.23 1551.62 Q1106.61 1557.67 1109.86 1560.85 Q1113.14 1564 1118.96 1564 Q1122.34 1564 1125.49 1563.17 Q1128.67 1562.35 1131.79 1560.69 L1131.79 1566.23 Q1128.64 1567.57 1125.33 1568.27 Q1122.02 1568.97 1118.61 1568.97 Q1110.08 1568.97 1105.09 1564 Q1100.12 1559.04 1100.12 1550.57 Q1100.12 1541.82 1104.83 1536.69 Q1109.57 1531.54 1117.59 1531.54 Q1124.79 1531.54 1128.96 1536.18 Q1133.16 1540.8 1133.16 1548.76 M1127.3 1547.04 Q1127.24 1542.23 1124.6 1539.37 Q1121.99 1536.5 1117.66 1536.5 Q1112.76 1536.5 1109.8 1539.27 Q1106.87 1542.04 1106.42 1547.07 L1127.3 1547.04 Z" fill="#000000" fill-rule="nonzero" fill-opacity="1" /><path clip-path="url(#clip850)" d="M1168.36 1550.25 Q1168.36 1543.79 1165.69 1540.13 Q1163.04 1536.44 1158.4 1536.44 Q1153.75 1536.44 1151.08 1540.13 Q1148.44 1543.79 1148.44 1550.25 Q1148.44 1556.71 1151.08 1560.4 Q1153.75 1564.07 1158.4 1564.07 Q1163.04 1564.07 1165.69 1560.4 Q1168.36 1556.71 1168.36 1550.25 M1148.44 1537.81 Q1150.28 1534.62 1153.08 1533.1 Q1155.92 1531.54 1159.83 1531.54 Q1166.32 1531.54 1170.37 1536.69 Q1174.44 1541.85 1174.44 1550.25 Q1174.44 1558.65 1170.37 1563.81 Q1166.32 1568.97 1159.83 1568.97 Q1155.92 1568.97 1153.08 1567.44 Q1150.28 1565.88 1148.44 1562.7 L1148.44 1568.04 L1142.55 1568.04 L1142.55 1518.52 L1148.44 1518.52 L1148.44 1537.81 Z" fill="#000000" fill-rule="nonzero" fill-opacity="1" /><path clip-path="url(#clip850)" d="M1198.98 1571.35 Q1196.5 1577.72 1194.14 1579.66 Q1191.79 1581.6 1187.84 1581.6 L1183.16 1581.6 L1183.16 1576.7 L1186.6 1576.7 Q1189.02 1576.7 1190.35 1575.56 Q1191.69 1574.41 1193.31 1570.14 L1194.36 1567.47 L1179.95 1532.4 L1186.15 1532.4 L1197.29 1560.28 L1208.43 1532.4 L1214.64 1532.4 L1198.98 1571.35 Z" fill="#000000" fill-rule="nonzero" fill-opacity="1" /><path clip-path="url(#clip850)" d="M1245.45 1533.45 L1245.45 1538.98 Q1242.97 1537.71 1240.29 1537.07 Q1237.62 1536.44 1234.75 1536.44 Q1230.39 1536.44 1228.2 1537.77 Q1226.03 1539.11 1226.03 1541.79 Q1226.03 1543.82 1227.59 1545 Q1229.15 1546.15 1233.86 1547.2 L1235.87 1547.64 Q1242.11 1548.98 1244.72 1551.43 Q1247.36 1553.85 1247.36 1558.21 Q1247.36 1563.17 1243.41 1566.07 Q1239.5 1568.97 1232.62 1568.97 Q1229.76 1568.97 1226.64 1568.39 Q1223.55 1567.85 1220.11 1566.74 L1220.11 1560.69 Q1223.36 1562.38 1226.51 1563.24 Q1229.66 1564.07 1232.75 1564.07 Q1236.89 1564.07 1239.12 1562.66 Q1241.34 1561.23 1241.34 1558.65 Q1241.34 1556.27 1239.72 1554.99 Q1238.13 1553.72 1232.69 1552.54 L1230.65 1552.07 Q1225.21 1550.92 1222.79 1548.56 Q1220.37 1546.18 1220.37 1542.04 Q1220.37 1537.01 1223.93 1534.27 Q1227.5 1531.54 1234.05 1531.54 Q1237.3 1531.54 1240.17 1532.01 Q1243.03 1532.49 1245.45 1533.45 Z" fill="#000000" fill-rule="nonzero" fill-opacity="1" /><path clip-path="url(#clip850)" d="M1286.32 1546.53 L1286.32 1568.04 L1280.46 1568.04 L1280.46 1546.72 Q1280.46 1541.66 1278.49 1539.14 Q1276.51 1536.63 1272.57 1536.63 Q1267.82 1536.63 1265.09 1539.65 Q1262.35 1542.68 1262.35 1547.9 L1262.35 1568.04 L1256.46 1568.04 L1256.46 1518.52 L1262.35 1518.52 L1262.35 1537.93 Q1264.45 1534.72 1267.28 1533.13 Q1270.15 1531.54 1273.87 1531.54 Q1280.01 1531.54 1283.17 1535.36 Q1286.32 1539.14 1286.32 1546.53 Z" fill="#000000" fill-rule="nonzero" fill-opacity="1" /><path clip-path="url(#clip850)" d="M1328.49 1548.76 L1328.49 1551.62 L1301.56 1551.62 Q1301.94 1557.67 1305.19 1560.85 Q1308.47 1564 1314.29 1564 Q1317.67 1564 1320.82 1563.17 Q1324 1562.35 1327.12 1560.69 L1327.12 1566.23 Q1323.97 1567.57 1320.66 1568.27 Q1317.35 1568.97 1313.94 1568.97 Q1305.41 1568.97 1300.42 1564 Q1295.45 1559.04 1295.45 1550.57 Q1295.45 1541.82 1300.16 1536.69 Q1304.9 1531.54 1312.93 1531.54 Q1320.12 1531.54 1324.29 1536.18 Q1328.49 1540.8 1328.49 1548.76 M1322.63 1547.04 Q1322.57 1542.23 1319.93 1539.37 Q1317.32 1536.5 1312.99 1536.5 Q1308.09 1536.5 1305.13 1539.27 Q1302.2 1542.04 1301.75 1547.07 L1322.63 1547.04 Z" fill="#000000" fill-rule="nonzero" fill-opacity="1" /><path clip-path="url(#clip850)" d="M1333.9 1532.4 L1340.11 1532.4 L1351.25 1562.31 L1362.39 1532.4 L1368.59 1532.4 L1355.23 1568.04 L1347.27 1568.04 L1333.9 1532.4 Z" fill="#000000" fill-rule="nonzero" fill-opacity="1" /><path clip-path="url(#clip850)" d="M1411.21 1536.5 Q1406.5 1536.5 1403.76 1540.19 Q1401.03 1543.85 1401.03 1550.25 Q1401.03 1556.65 1403.73 1560.34 Q1406.47 1564 1411.21 1564 Q1415.89 1564 1418.63 1560.31 Q1421.37 1556.62 1421.37 1550.25 Q1421.37 1543.92 1418.63 1540.23 Q1415.89 1536.5 1411.21 1536.5 M1411.21 1531.54 Q1418.85 1531.54 1423.21 1536.5 Q1427.57 1541.47 1427.57 1550.25 Q1427.57 1559 1423.21 1564 Q1418.85 1568.97 1411.21 1568.97 Q1403.54 1568.97 1399.18 1564 Q1394.85 1559 1394.85 1550.25 Q1394.85 1541.47 1399.18 1536.5 Q1403.54 1531.54 1411.21 1531.54 Z" fill="#000000" fill-rule="nonzero" fill-opacity="1" /><path clip-path="url(#clip850)" d="M1457.94 1537.87 Q1456.95 1537.3 1455.77 1537.04 Q1454.63 1536.76 1453.23 1536.76 Q1448.26 1536.76 1445.59 1540 Q1442.95 1543.22 1442.95 1549.27 L1442.95 1568.04 L1437.06 1568.04 L1437.06 1532.4 L1442.95 1532.4 L1442.95 1537.93 Q1444.79 1534.69 1447.75 1533.13 Q1450.71 1531.54 1454.94 1531.54 Q1455.55 1531.54 1456.28 1531.63 Q1457.01 1531.7 1457.9 1531.85 L1457.94 1537.87 Z" fill="#000000" fill-rule="nonzero" fill-opacity="1" /><path clip-path="url(#clip850)" d="M1486.39 1537.81 L1486.39 1518.52 L1492.25 1518.52 L1492.25 1568.04 L1486.39 1568.04 L1486.39 1562.7 Q1484.54 1565.88 1481.71 1567.44 Q1478.91 1568.97 1474.96 1568.97 Q1468.5 1568.97 1464.43 1563.81 Q1460.39 1558.65 1460.39 1550.25 Q1460.39 1541.85 1464.43 1536.69 Q1468.5 1531.54 1474.96 1531.54 Q1478.91 1531.54 1481.71 1533.1 Q1484.54 1534.62 1486.39 1537.81 M1466.43 1550.25 Q1466.43 1556.71 1469.08 1560.4 Q1471.75 1564.07 1476.4 1564.07 Q1481.04 1564.07 1483.72 1560.4 Q1486.39 1556.71 1486.39 1550.25 Q1486.39 1543.79 1483.72 1540.13 Q1481.04 1536.44 1476.4 1536.44 Q1471.75 1536.44 1469.08 1540.13 Q1466.43 1543.79 1466.43 1550.25 Z" fill="#000000" fill-rule="nonzero" fill-opacity="1" /><path clip-path="url(#clip850)" d="M1534.8 1548.76 L1534.8 1551.62 L1507.88 1551.62 Q1508.26 1557.67 1511.5 1560.85 Q1514.78 1564 1520.61 1564 Q1523.98 1564 1527.13 1563.17 Q1530.31 1562.35 1533.43 1560.69 L1533.43 1566.23 Q1530.28 1567.57 1526.97 1568.27 Q1523.66 1568.97 1520.26 1568.97 Q1511.73 1568.97 1506.73 1564 Q1501.76 1559.04 1501.76 1550.57 Q1501.76 1541.82 1506.47 1536.69 Q1511.22 1531.54 1519.24 1531.54 Q1526.43 1531.54 1530.6 1536.18 Q1534.8 1540.8 1534.8 1548.76 M1528.95 1547.04 Q1528.88 1542.23 1526.24 1539.37 Q1523.63 1536.5 1519.3 1536.5 Q1514.4 1536.5 1511.44 1539.27 Q1508.51 1542.04 1508.07 1547.07 L1528.95 1547.04 Z" fill="#000000" fill-rule="nonzero" fill-opacity="1" /><path clip-path="url(#clip850)" d="M1565.07 1537.87 Q1564.08 1537.3 1562.91 1537.04 Q1561.76 1536.76 1560.36 1536.76 Q1555.4 1536.76 1552.72 1540 Q1550.08 1543.22 1550.08 1549.27 L1550.08 1568.04 L1544.19 1568.04 L1544.19 1532.4 L1550.08 1532.4 L1550.08 1537.93 Q1551.93 1534.69 1554.89 1533.13 Q1557.85 1531.54 1562.08 1531.54 Q1562.68 1531.54 1563.42 1531.63 Q1564.15 1531.7 1565.04 1531.85 L1565.07 1537.87 Z" fill="#000000" fill-rule="nonzero" fill-opacity="1" /><polyline clip-path="url(#clip852)" style="stroke:#000000; stroke-linecap:round; stroke-linejoin:round; stroke-width:2; stroke-opacity:0.1; fill:none" points="235.283,1388.06 2352.76,1388.06 "/>
<polyline clip-path="url(#clip852)" style="stroke:#000000; stroke-linecap:round; stroke-linejoin:round; stroke-width:2; stroke-opacity:0.1; fill:none" points="235.283,1192.25 2352.76,1192.25 "/>
<polyline clip-path="url(#clip852)" style="stroke:#000000; stroke-linecap:round; stroke-linejoin:round; stroke-width:2; stroke-opacity:0.1; fill:none" points="235.283,996.44 2352.76,996.44 "/>
<polyline clip-path="url(#clip852)" style="stroke:#000000; stroke-linecap:round; stroke-linejoin:round; stroke-width:2; stroke-opacity:0.1; fill:none" points="235.283,800.632 2352.76,800.632 "/>
<polyline clip-path="url(#clip852)" style="stroke:#000000; stroke-linecap:round; stroke-linejoin:round; stroke-width:2; stroke-opacity:0.1; fill:none" points="235.283,604.825 2352.76,604.825 "/>
<polyline clip-path="url(#clip852)" style="stroke:#000000; stroke-linecap:round; stroke-linejoin:round; stroke-width:2; stroke-opacity:0.1; fill:none" points="235.283,409.017 2352.76,409.017 "/>
<polyline clip-path="url(#clip852)" style="stroke:#000000; stroke-linecap:round; stroke-linejoin:round; stroke-width:2; stroke-opacity:0.1; fill:none" points="235.283,213.209 2352.76,213.209 "/>
<polyline clip-path="url(#clip850)" style="stroke:#000000; stroke-linecap:round; stroke-linejoin:round; stroke-width:4; stroke-opacity:1; fill:none" points="235.283,1423.18 235.283,149.392 "/>
<polyline clip-path="url(#clip850)" style="stroke:#000000; stroke-linecap:round; stroke-linejoin:round; stroke-width:4; stroke-opacity:1; fill:none" points="235.283,1388.06 254.18,1388.06 "/>
<polyline clip-path="url(#clip850)" style="stroke:#000000; stroke-linecap:round; stroke-linejoin:round; stroke-width:4; stroke-opacity:1; fill:none" points="235.283,1192.25 254.18,1192.25 "/>
<polyline clip-path="url(#clip850)" style="stroke:#000000; stroke-linecap:round; stroke-linejoin:round; stroke-width:4; stroke-opacity:1; fill:none" points="235.283,996.44 254.18,996.44 "/>
<polyline clip-path="url(#clip850)" style="stroke:#000000; stroke-linecap:round; stroke-linejoin:round; stroke-width:4; stroke-opacity:1; fill:none" points="235.283,800.632 254.18,800.632 "/>
<polyline clip-path="url(#clip850)" style="stroke:#000000; stroke-linecap:round; stroke-linejoin:round; stroke-width:4; stroke-opacity:1; fill:none" points="235.283,604.825 254.18,604.825 "/>
<polyline clip-path="url(#clip850)" style="stroke:#000000; stroke-linecap:round; stroke-linejoin:round; stroke-width:4; stroke-opacity:1; fill:none" points="235.283,409.017 254.18,409.017 "/>
<polyline clip-path="url(#clip850)" style="stroke:#000000; stroke-linecap:round; stroke-linejoin:round; stroke-width:4; stroke-opacity:1; fill:none" points="235.283,213.209 254.18,213.209 "/>
<path clip-path="url(#clip850)" d="M187.338 1373.85 Q183.727 1373.85 181.899 1377.42 Q180.093 1380.96 180.093 1388.09 Q180.093 1395.2 181.899 1398.76 Q183.727 1402.3 187.338 1402.3 Q190.973 1402.3 192.778 1398.76 Q194.607 1395.2 194.607 1388.09 Q194.607 1380.96 192.778 1377.42 Q190.973 1373.85 187.338 1373.85 M187.338 1370.15 Q193.149 1370.15 196.204 1374.76 Q199.283 1379.34 199.283 1388.09 Q199.283 1396.82 196.204 1401.42 Q193.149 1406.01 187.338 1406.01 Q181.528 1406.01 178.45 1401.42 Q175.394 1396.82 175.394 1388.09 Q175.394 1379.34 178.45 1374.76 Q181.528 1370.15 187.338 1370.15 Z" fill="#000000" fill-rule="nonzero" fill-opacity="1" /><path clip-path="url(#clip850)" d="M117.825 1205.59 L125.464 1205.59 L125.464 1179.23 L117.154 1180.89 L117.154 1176.63 L125.418 1174.97 L130.093 1174.97 L130.093 1205.59 L137.732 1205.59 L137.732 1209.53 L117.825 1209.53 L117.825 1205.59 Z" fill="#000000" fill-rule="nonzero" fill-opacity="1" /><path clip-path="url(#clip850)" d="M157.177 1178.05 Q153.566 1178.05 151.737 1181.61 Q149.931 1185.15 149.931 1192.28 Q149.931 1199.39 151.737 1202.95 Q153.566 1206.5 157.177 1206.5 Q160.811 1206.5 162.616 1202.95 Q164.445 1199.39 164.445 1192.28 Q164.445 1185.15 162.616 1181.61 Q160.811 1178.05 157.177 1178.05 M157.177 1174.34 Q162.987 1174.34 166.042 1178.95 Q169.121 1183.53 169.121 1192.28 Q169.121 1201.01 166.042 1205.62 Q162.987 1210.2 157.177 1210.2 Q151.366 1210.2 148.288 1205.62 Q145.232 1201.01 145.232 1192.28 Q145.232 1183.53 148.288 1178.95 Q151.366 1174.34 157.177 1174.34 Z" fill="#000000" fill-rule="nonzero" fill-opacity="1" /><path clip-path="url(#clip850)" d="M187.338 1178.05 Q183.727 1178.05 181.899 1181.61 Q180.093 1185.15 180.093 1192.28 Q180.093 1199.39 181.899 1202.95 Q183.727 1206.5 187.338 1206.5 Q190.973 1206.5 192.778 1202.95 Q194.607 1199.39 194.607 1192.28 Q194.607 1185.15 192.778 1181.61 Q190.973 1178.05 187.338 1178.05 M187.338 1174.34 Q193.149 1174.34 196.204 1178.95 Q199.283 1183.53 199.283 1192.28 Q199.283 1201.01 196.204 1205.62 Q193.149 1210.2 187.338 1210.2 Q181.528 1210.2 178.45 1205.62 Q175.394 1201.01 175.394 1192.28 Q175.394 1183.53 178.45 1178.95 Q181.528 1174.34 187.338 1174.34 Z" fill="#000000" fill-rule="nonzero" fill-opacity="1" /><path clip-path="url(#clip850)" d="M121.043 1009.79 L137.362 1009.79 L137.362 1013.72 L115.418 1013.72 L115.418 1009.79 Q118.08 1007.03 122.663 1002.4 Q127.269 997.748 128.45 996.406 Q130.695 993.882 131.575 992.146 Q132.478 990.387 132.478 988.697 Q132.478 985.943 130.533 984.207 Q128.612 982.47 125.51 982.47 Q123.311 982.47 120.857 983.234 Q118.427 983.998 115.649 985.549 L115.649 980.827 Q118.473 979.693 120.927 979.114 Q123.38 978.535 125.418 978.535 Q130.788 978.535 133.982 981.22 Q137.177 983.906 137.177 988.396 Q137.177 990.526 136.367 992.447 Q135.579 994.345 133.473 996.938 Q132.894 997.609 129.792 1000.83 Q126.691 1004.02 121.043 1009.79 Z" fill="#000000" fill-rule="nonzero" fill-opacity="1" /><path clip-path="url(#clip850)" d="M157.177 982.239 Q153.566 982.239 151.737 985.804 Q149.931 989.345 149.931 996.475 Q149.931 1003.58 151.737 1007.15 Q153.566 1010.69 157.177 1010.69 Q160.811 1010.69 162.616 1007.15 Q164.445 1003.58 164.445 996.475 Q164.445 989.345 162.616 985.804 Q160.811 982.239 157.177 982.239 M157.177 978.535 Q162.987 978.535 166.042 983.142 Q169.121 987.725 169.121 996.475 Q169.121 1005.2 166.042 1009.81 Q162.987 1014.39 157.177 1014.39 Q151.366 1014.39 148.288 1009.81 Q145.232 1005.2 145.232 996.475 Q145.232 987.725 148.288 983.142 Q151.366 978.535 157.177 978.535 Z" fill="#000000" fill-rule="nonzero" fill-opacity="1" /><path clip-path="url(#clip850)" d="M187.338 982.239 Q183.727 982.239 181.899 985.804 Q180.093 989.345 180.093 996.475 Q180.093 1003.58 181.899 1007.15 Q183.727 1010.69 187.338 1010.69 Q190.973 1010.69 192.778 1007.15 Q194.607 1003.58 194.607 996.475 Q194.607 989.345 192.778 985.804 Q190.973 982.239 187.338 982.239 M187.338 978.535 Q193.149 978.535 196.204 983.142 Q199.283 987.725 199.283 996.475 Q199.283 1005.2 196.204 1009.81 Q193.149 1014.39 187.338 1014.39 Q181.528 1014.39 178.45 1009.81 Q175.394 1005.2 175.394 996.475 Q175.394 987.725 178.45 983.142 Q181.528 978.535 187.338 978.535 Z" fill="#000000" fill-rule="nonzero" fill-opacity="1" /><path clip-path="url(#clip850)" d="M131.181 799.278 Q134.538 799.996 136.413 802.264 Q138.311 804.533 138.311 807.866 Q138.311 812.982 134.792 815.783 Q131.274 818.584 124.793 818.584 Q122.617 818.584 120.302 818.144 Q118.01 817.727 115.556 816.871 L115.556 812.357 Q117.501 813.491 119.816 814.07 Q122.13 814.649 124.654 814.649 Q129.052 814.649 131.343 812.913 Q133.658 811.176 133.658 807.866 Q133.658 804.811 131.505 803.098 Q129.376 801.362 125.556 801.362 L121.529 801.362 L121.529 797.519 L125.742 797.519 Q129.191 797.519 131.019 796.153 Q132.848 794.764 132.848 792.172 Q132.848 789.51 130.95 788.098 Q129.075 786.663 125.556 786.663 Q123.635 786.663 121.436 787.079 Q119.237 787.496 116.598 788.376 L116.598 784.209 Q119.26 783.468 121.575 783.098 Q123.913 782.727 125.973 782.727 Q131.297 782.727 134.399 785.158 Q137.501 787.565 137.501 791.686 Q137.501 794.556 135.857 796.547 Q134.214 798.514 131.181 799.278 Z" fill="#000000" fill-rule="nonzero" fill-opacity="1" /><path clip-path="url(#clip850)" d="M157.177 786.431 Q153.566 786.431 151.737 789.996 Q149.931 793.538 149.931 800.667 Q149.931 807.774 151.737 811.338 Q153.566 814.88 157.177 814.88 Q160.811 814.88 162.616 811.338 Q164.445 807.774 164.445 800.667 Q164.445 793.538 162.616 789.996 Q160.811 786.431 157.177 786.431 M157.177 782.727 Q162.987 782.727 166.042 787.334 Q169.121 791.917 169.121 800.667 Q169.121 809.394 166.042 814 Q162.987 818.584 157.177 818.584 Q151.366 818.584 148.288 814 Q145.232 809.394 145.232 800.667 Q145.232 791.917 148.288 787.334 Q151.366 782.727 157.177 782.727 Z" fill="#000000" fill-rule="nonzero" fill-opacity="1" /><path clip-path="url(#clip850)" d="M187.338 786.431 Q183.727 786.431 181.899 789.996 Q180.093 793.538 180.093 800.667 Q180.093 807.774 181.899 811.338 Q183.727 814.88 187.338 814.88 Q190.973 814.88 192.778 811.338 Q194.607 807.774 194.607 800.667 Q194.607 793.538 192.778 789.996 Q190.973 786.431 187.338 786.431 M187.338 782.727 Q193.149 782.727 196.204 787.334 Q199.283 791.917 199.283 800.667 Q199.283 809.394 196.204 814 Q193.149 818.584 187.338 818.584 Q181.528 818.584 178.45 814 Q175.394 809.394 175.394 800.667 Q175.394 791.917 178.45 787.334 Q181.528 782.727 187.338 782.727 Z" fill="#000000" fill-rule="nonzero" fill-opacity="1" /><path clip-path="url(#clip850)" d="M129.862 591.619 L118.056 610.068 L129.862 610.068 L129.862 591.619 M128.635 587.545 L134.515 587.545 L134.515 610.068 L139.445 610.068 L139.445 613.957 L134.515 613.957 L134.515 622.105 L129.862 622.105 L129.862 613.957 L114.26 613.957 L114.26 609.443 L128.635 587.545 Z" fill="#000000" fill-rule="nonzero" fill-opacity="1" /><path clip-path="url(#clip850)" d="M157.177 590.623 Q153.566 590.623 151.737 594.188 Q149.931 597.73 149.931 604.859 Q149.931 611.966 151.737 615.531 Q153.566 619.072 157.177 619.072 Q160.811 619.072 162.616 615.531 Q164.445 611.966 164.445 604.859 Q164.445 597.73 162.616 594.188 Q160.811 590.623 157.177 590.623 M157.177 586.92 Q162.987 586.92 166.042 591.526 Q169.121 596.109 169.121 604.859 Q169.121 613.586 166.042 618.193 Q162.987 622.776 157.177 622.776 Q151.366 622.776 148.288 618.193 Q145.232 613.586 145.232 604.859 Q145.232 596.109 148.288 591.526 Q151.366 586.92 157.177 586.92 Z" fill="#000000" fill-rule="nonzero" fill-opacity="1" /><path clip-path="url(#clip850)" d="M187.338 590.623 Q183.727 590.623 181.899 594.188 Q180.093 597.73 180.093 604.859 Q180.093 611.966 181.899 615.531 Q183.727 619.072 187.338 619.072 Q190.973 619.072 192.778 615.531 Q194.607 611.966 194.607 604.859 Q194.607 597.73 192.778 594.188 Q190.973 590.623 187.338 590.623 M187.338 586.92 Q193.149 586.92 196.204 591.526 Q199.283 596.109 199.283 604.859 Q199.283 613.586 196.204 618.193 Q193.149 622.776 187.338 622.776 Q181.528 622.776 178.45 618.193 Q175.394 613.586 175.394 604.859 Q175.394 596.109 178.45 591.526 Q181.528 586.92 187.338 586.92 Z" fill="#000000" fill-rule="nonzero" fill-opacity="1" /><path clip-path="url(#clip850)" d="M117.061 391.737 L135.417 391.737 L135.417 395.672 L121.343 395.672 L121.343 404.144 Q122.362 403.797 123.38 403.635 Q124.399 403.45 125.418 403.45 Q131.205 403.45 134.584 406.621 Q137.964 409.792 137.964 415.209 Q137.964 420.788 134.492 423.89 Q131.019 426.968 124.7 426.968 Q122.524 426.968 120.255 426.598 Q118.01 426.227 115.603 425.487 L115.603 420.788 Q117.686 421.922 119.908 422.477 Q122.13 423.033 124.607 423.033 Q128.612 423.033 130.95 420.927 Q133.288 418.82 133.288 415.209 Q133.288 411.598 130.95 409.491 Q128.612 407.385 124.607 407.385 Q122.732 407.385 120.857 407.802 Q119.006 408.218 117.061 409.098 L117.061 391.737 Z" fill="#000000" fill-rule="nonzero" fill-opacity="1" /><path clip-path="url(#clip850)" d="M157.177 394.816 Q153.566 394.816 151.737 398.38 Q149.931 401.922 149.931 409.052 Q149.931 416.158 151.737 419.723 Q153.566 423.265 157.177 423.265 Q160.811 423.265 162.616 419.723 Q164.445 416.158 164.445 409.052 Q164.445 401.922 162.616 398.38 Q160.811 394.816 157.177 394.816 M157.177 391.112 Q162.987 391.112 166.042 395.718 Q169.121 400.302 169.121 409.052 Q169.121 417.778 166.042 422.385 Q162.987 426.968 157.177 426.968 Q151.366 426.968 148.288 422.385 Q145.232 417.778 145.232 409.052 Q145.232 400.302 148.288 395.718 Q151.366 391.112 157.177 391.112 Z" fill="#000000" fill-rule="nonzero" fill-opacity="1" /><path clip-path="url(#clip850)" d="M187.338 394.816 Q183.727 394.816 181.899 398.38 Q180.093 401.922 180.093 409.052 Q180.093 416.158 181.899 419.723 Q183.727 423.265 187.338 423.265 Q190.973 423.265 192.778 419.723 Q194.607 416.158 194.607 409.052 Q194.607 401.922 192.778 398.38 Q190.973 394.816 187.338 394.816 M187.338 391.112 Q193.149 391.112 196.204 395.718 Q199.283 400.302 199.283 409.052 Q199.283 417.778 196.204 422.385 Q193.149 426.968 187.338 426.968 Q181.528 426.968 178.45 422.385 Q175.394 417.778 175.394 409.052 Q175.394 400.302 178.45 395.718 Q181.528 391.112 187.338 391.112 Z" fill="#000000" fill-rule="nonzero" fill-opacity="1" /><path clip-path="url(#clip850)" d="M127.593 211.346 Q124.445 211.346 122.593 213.498 Q120.765 215.651 120.765 219.401 Q120.765 223.128 122.593 225.304 Q124.445 227.457 127.593 227.457 Q130.742 227.457 132.57 225.304 Q134.422 223.128 134.422 219.401 Q134.422 215.651 132.57 213.498 Q130.742 211.346 127.593 211.346 M136.876 196.693 L136.876 200.952 Q135.117 200.119 133.311 199.679 Q131.529 199.239 129.769 199.239 Q125.14 199.239 122.686 202.364 Q120.255 205.489 119.908 211.809 Q121.274 209.795 123.334 208.73 Q125.394 207.642 127.871 207.642 Q133.08 207.642 136.089 210.813 Q139.121 213.961 139.121 219.401 Q139.121 224.725 135.973 227.943 Q132.825 231.16 127.593 231.16 Q121.598 231.16 118.427 226.577 Q115.256 221.971 115.256 213.244 Q115.256 205.049 119.144 200.188 Q123.033 195.304 129.584 195.304 Q131.343 195.304 133.126 195.651 Q134.931 195.999 136.876 196.693 Z" fill="#000000" fill-rule="nonzero" fill-opacity="1" /><path clip-path="url(#clip850)" d="M157.177 199.008 Q153.566 199.008 151.737 202.573 Q149.931 206.114 149.931 213.244 Q149.931 220.35 151.737 223.915 Q153.566 227.457 157.177 227.457 Q160.811 227.457 162.616 223.915 Q164.445 220.35 164.445 213.244 Q164.445 206.114 162.616 202.573 Q160.811 199.008 157.177 199.008 M157.177 195.304 Q162.987 195.304 166.042 199.911 Q169.121 204.494 169.121 213.244 Q169.121 221.971 166.042 226.577 Q162.987 231.16 157.177 231.16 Q151.366 231.16 148.288 226.577 Q145.232 221.971 145.232 213.244 Q145.232 204.494 148.288 199.911 Q151.366 195.304 157.177 195.304 Z" fill="#000000" fill-rule="nonzero" fill-opacity="1" /><path clip-path="url(#clip850)" d="M187.338 199.008 Q183.727 199.008 181.899 202.573 Q180.093 206.114 180.093 213.244 Q180.093 220.35 181.899 223.915 Q183.727 227.457 187.338 227.457 Q190.973 227.457 192.778 223.915 Q194.607 220.35 194.607 213.244 Q194.607 206.114 192.778 202.573 Q190.973 199.008 187.338 199.008 M187.338 195.304 Q193.149 195.304 196.204 199.911 Q199.283 204.494 199.283 213.244 Q199.283 221.971 196.204 226.577 Q193.149 231.16 187.338 231.16 Q181.528 231.16 178.45 226.577 Q175.394 221.971 175.394 213.244 Q175.394 204.494 178.45 199.911 Q181.528 195.304 187.338 195.304 Z" fill="#000000" fill-rule="nonzero" fill-opacity="1" /><path clip-path="url(#clip850)" d="M41.7242 842.447 Q42.4244 840.379 44.7161 838.437 Q47.0077 836.464 51.0181 834.49 L64.0042 827.965 L64.0042 834.872 L51.8138 840.951 Q47.0395 843.307 45.48 845.535 Q43.9204 847.731 43.9204 851.55 L43.9204 858.553 L64.0042 858.553 L64.0042 864.982 L16.4842 864.982 L16.4842 850.468 Q16.4842 842.32 19.8898 838.31 Q23.2955 834.299 30.1704 834.299 Q34.6582 834.299 37.6183 836.4 Q40.5784 838.469 41.7242 842.447 M21.7677 858.553 L38.6368 858.553 L38.6368 850.468 Q38.6368 845.821 36.5043 843.466 Q34.34 841.079 30.1704 841.079 Q26.0009 841.079 23.9002 843.466 Q21.7677 845.821 21.7677 850.468 L21.7677 858.553 Z" fill="#000000" fill-rule="nonzero" fill-opacity="1" /><path clip-path="url(#clip850)" d="M46.0847 805.176 Q46.0847 812.274 47.7079 815.011 Q49.3312 817.748 53.2461 817.748 Q56.3653 817.748 58.2114 815.711 Q60.0256 813.643 60.0256 810.11 Q60.0256 805.24 56.5881 802.312 Q53.1188 799.352 47.3897 799.352 L46.0847 799.352 L46.0847 805.176 M43.6657 793.495 L64.0042 793.495 L64.0042 799.352 L58.5933 799.352 Q61.8398 801.357 63.3994 804.349 Q64.9272 807.341 64.9272 811.669 Q64.9272 817.144 61.8716 820.39 Q58.7843 823.605 53.6281 823.605 Q47.6125 823.605 44.5569 819.595 Q41.5014 815.552 41.5014 807.563 L41.5014 799.352 L40.9285 799.352 Q36.8862 799.352 34.6901 802.025 Q32.4621 804.667 32.4621 809.473 Q32.4621 812.529 33.1941 815.425 Q33.9262 818.321 35.3903 820.995 L29.9795 820.995 Q28.7381 817.78 28.1334 814.757 Q27.4968 811.733 27.4968 808.868 Q27.4968 801.134 31.5072 797.315 Q35.5176 793.495 43.6657 793.495 Z" fill="#000000" fill-rule="nonzero" fill-opacity="1" /><path clip-path="url(#clip850)" d="M18.2347 775.639 L28.3562 775.639 L28.3562 763.576 L32.9077 763.576 L32.9077 775.639 L52.2594 775.639 Q56.6199 775.639 57.8613 774.462 Q59.1026 773.252 59.1026 769.592 L59.1026 763.576 L64.0042 763.576 L64.0042 769.592 Q64.0042 776.371 61.4897 778.95 Q58.9434 781.528 52.2594 781.528 L32.9077 781.528 L32.9077 785.824 L28.3562 785.824 L28.3562 781.528 L18.2347 781.528 L18.2347 775.639 Z" fill="#000000" fill-rule="nonzero" fill-opacity="1" /><path clip-path="url(#clip850)" d="M28.3562 755.874 L28.3562 750.017 L64.0042 750.017 L64.0042 755.874 L28.3562 755.874 M14.479 755.874 L14.479 750.017 L21.895 750.017 L21.895 755.874 L14.479 755.874 Z" fill="#000000" fill-rule="nonzero" fill-opacity="1" /><path clip-path="url(#clip850)" d="M32.4621 723.95 Q32.4621 728.66 36.1542 731.398 Q39.8145 734.135 46.212 734.135 Q52.6095 734.135 56.3017 731.43 Q59.9619 728.692 59.9619 723.95 Q59.9619 719.271 56.2698 716.534 Q52.5777 713.796 46.212 713.796 Q39.8781 713.796 36.186 716.534 Q32.4621 719.271 32.4621 723.95 M27.4968 723.95 Q27.4968 716.311 32.4621 711.95 Q37.4273 707.59 46.212 707.59 Q54.9649 707.59 59.9619 711.95 Q64.9272 716.311 64.9272 723.95 Q64.9272 731.62 59.9619 735.981 Q54.9649 740.31 46.212 740.31 Q37.4273 740.31 32.4621 735.981 Q27.4968 731.62 27.4968 723.95 Z" fill="#000000" fill-rule="nonzero" fill-opacity="1" /><path clip-path="url(#clip850)" d="M685.429 23.76 L721.974 23.76 L721.974 28.679 L706.638 28.679 L706.638 66.96 L700.764 66.96 L700.764 28.679 L685.429 28.679 L685.429 23.76 Z" fill="#000000" fill-rule="nonzero" fill-opacity="1" /><path clip-path="url(#clip850)" d="M725.562 34.5528 L730.886 34.5528 L730.886 66.96 L725.562 66.96 L725.562 34.5528 M725.562 21.9371 L730.886 21.9371 L730.886 28.679 L725.562 28.679 L725.562 21.9371 Z" fill="#000000" fill-rule="nonzero" fill-opacity="1" /><path clip-path="url(#clip850)" d="M767.257 40.7738 Q769.254 37.1859 772.031 35.4787 Q774.809 33.7715 778.571 33.7715 Q783.634 33.7715 786.383 37.3305 Q789.132 40.8606 789.132 47.3999 L789.132 66.96 L783.779 66.96 L783.779 47.5735 Q783.779 42.915 782.13 40.6581 Q780.48 38.4011 777.095 38.4011 Q772.957 38.4011 770.556 41.15 Q768.154 43.8988 768.154 48.6441 L768.154 66.96 L762.801 66.96 L762.801 47.5735 Q762.801 42.8861 761.152 40.6581 Q759.503 38.4011 756.059 38.4011 Q751.979 38.4011 749.578 41.1789 Q747.176 43.9277 747.176 48.6441 L747.176 66.96 L741.823 66.96 L741.823 34.5528 L747.176 34.5528 L747.176 39.5875 Q748.999 36.6072 751.545 35.1893 Q754.092 33.7715 757.593 33.7715 Q761.123 33.7715 763.582 35.5655 Q766.071 37.3595 767.257 40.7738 Z" fill="#000000" fill-rule="nonzero" fill-opacity="1" /><path clip-path="url(#clip850)" d="M827.471 49.4254 L827.471 52.0295 L802.992 52.0295 Q803.339 57.5272 806.291 60.4207 Q809.271 63.2853 814.566 63.2853 Q817.633 63.2853 820.498 62.5329 Q823.391 61.7806 826.227 60.276 L826.227 65.3107 Q823.362 66.526 820.353 67.1625 Q817.344 67.7991 814.248 67.7991 Q806.493 67.7991 801.95 63.2853 Q797.436 58.7714 797.436 51.0747 Q797.436 43.1175 801.719 38.459 Q806.03 33.7715 813.322 33.7715 Q819.861 33.7715 823.652 37.996 Q827.471 42.1916 827.471 49.4254 M822.147 47.8629 Q822.089 43.4937 819.687 40.8895 Q817.315 38.2854 813.38 38.2854 Q808.924 38.2854 806.233 40.8027 Q803.571 43.3201 803.166 47.8918 L822.147 47.8629 Z" fill="#000000" fill-rule="nonzero" fill-opacity="1" /><path clip-path="url(#clip850)" d="M873.825 39.5296 Q872.928 39.0088 871.857 38.7773 Q870.816 38.5169 869.542 38.5169 Q865.029 38.5169 862.598 41.4682 Q860.196 44.3907 860.196 49.8883 L860.196 66.96 L854.843 66.96 L854.843 34.5528 L860.196 34.5528 L860.196 39.5875 Q861.875 36.6361 864.566 35.2183 Q867.257 33.7715 871.105 33.7715 Q871.655 33.7715 872.32 33.8583 Q872.986 33.9162 873.796 34.0609 L873.825 39.5296 Z" fill="#000000" fill-rule="nonzero" fill-opacity="1" /><path clip-path="url(#clip850)" d="M894.137 50.6696 Q887.685 50.6696 885.196 52.1453 Q882.708 53.621 882.708 57.18 Q882.708 60.0156 884.56 61.6938 Q886.441 63.3431 889.652 63.3431 Q894.079 63.3431 896.741 60.2181 Q899.432 57.0642 899.432 51.8559 L899.432 50.6696 L894.137 50.6696 M904.756 48.4705 L904.756 66.96 L899.432 66.96 L899.432 62.041 Q897.609 64.9924 894.89 66.4102 Q892.17 67.7991 888.235 67.7991 Q883.258 67.7991 880.306 65.0214 Q877.384 62.2147 877.384 57.5272 Q877.384 52.0585 881.03 49.2807 Q884.704 46.5029 891.967 46.5029 L899.432 46.5029 L899.432 45.9821 Q899.432 42.3074 897.002 40.3108 Q894.6 38.2854 890.231 38.2854 Q887.453 38.2854 884.82 38.9509 Q882.187 39.6164 879.757 40.9474 L879.757 36.0285 Q882.679 34.9 885.428 34.3502 Q888.177 33.7715 890.781 33.7715 Q897.812 33.7715 901.284 37.4173 Q904.756 41.0631 904.756 48.4705 Z" fill="#000000" fill-rule="nonzero" fill-opacity="1" /><path clip-path="url(#clip850)" d="M920.989 25.3514 L920.989 34.5528 L931.955 34.5528 L931.955 38.6905 L920.989 38.6905 L920.989 56.283 Q920.989 60.2471 922.06 61.3755 Q923.159 62.504 926.487 62.504 L931.955 62.504 L931.955 66.96 L926.487 66.96 Q920.323 66.96 917.98 64.6741 Q915.636 62.3593 915.636 56.283 L915.636 38.6905 L911.73 38.6905 L911.73 34.5528 L915.636 34.5528 L915.636 25.3514 L920.989 25.3514 Z" fill="#000000" fill-rule="nonzero" fill-opacity="1" /><path clip-path="url(#clip850)" d="M938.958 34.5528 L944.282 34.5528 L944.282 66.96 L938.958 66.96 L938.958 34.5528 M938.958 21.9371 L944.282 21.9371 L944.282 28.679 L938.958 28.679 L938.958 21.9371 Z" fill="#000000" fill-rule="nonzero" fill-opacity="1" /><path clip-path="url(#clip850)" d="M967.979 38.2854 Q963.697 38.2854 961.209 41.6418 Q958.72 44.9694 958.72 50.7853 Q958.72 56.6013 961.18 59.9577 Q963.668 63.2853 967.979 63.2853 Q972.233 63.2853 974.721 59.9288 Q977.21 56.5723 977.21 50.7853 Q977.21 45.0272 974.721 41.6708 Q972.233 38.2854 967.979 38.2854 M967.979 33.7715 Q974.924 33.7715 978.888 38.2854 Q982.852 42.7992 982.852 50.7853 Q982.852 58.7425 978.888 63.2853 Q974.924 67.7991 967.979 67.7991 Q961.006 67.7991 957.042 63.2853 Q953.107 58.7425 953.107 50.7853 Q953.107 42.7992 957.042 38.2854 Q961.006 33.7715 967.979 33.7715 Z" fill="#000000" fill-rule="nonzero" fill-opacity="1" /><path clip-path="url(#clip850)" d="M993.037 59.6105 L999.142 59.6105 L999.142 64.5873 L994.397 73.8465 L990.665 73.8465 L993.037 64.5873 L993.037 59.6105 Z" fill="#000000" fill-rule="nonzero" fill-opacity="1" /><path clip-path="url(#clip850)" d="M1055.48 25.1778 L1055.48 30.878 Q1052.15 29.2866 1049.2 28.5053 Q1046.25 27.7241 1043.5 27.7241 Q1038.73 27.7241 1036.12 29.5759 Q1033.55 31.4278 1033.55 34.8421 Q1033.55 37.7067 1035.25 39.1824 Q1036.99 40.6291 1041.79 41.5261 L1045.32 42.2495 Q1051.86 43.4937 1054.96 46.6476 Q1058.08 49.7726 1058.08 55.0388 Q1058.08 61.3177 1053.86 64.5584 Q1049.66 67.7991 1041.53 67.7991 Q1038.47 67.7991 1034.99 67.1047 Q1031.55 66.4102 1027.85 65.0503 L1027.85 59.0318 Q1031.41 61.0283 1034.82 62.041 Q1038.23 63.0538 1041.53 63.0538 Q1046.54 63.0538 1049.26 61.0862 Q1051.98 59.1186 1051.98 55.4728 Q1051.98 52.2899 1050.01 50.496 Q1048.07 48.702 1043.62 47.805 L1040.06 47.1106 Q1033.52 45.8085 1030.59 43.0307 Q1027.67 40.253 1027.67 35.3051 Q1027.67 29.5759 1031.69 26.2773 Q1035.75 22.9788 1042.83 22.9788 Q1045.87 22.9788 1049.03 23.5285 Q1052.18 24.0783 1055.48 25.1778 Z" fill="#000000" fill-rule="nonzero" fill-opacity="1" /><path clip-path="url(#clip850)" d="M1080.45 69.9692 Q1078.19 75.7562 1076.05 77.5213 Q1073.91 79.2863 1070.32 79.2863 L1066.07 79.2863 L1066.07 74.8303 L1069.19 74.8303 Q1071.39 74.8303 1072.61 73.7887 Q1073.82 72.747 1075.3 68.8697 L1076.25 66.4392 L1063.15 34.5528 L1068.79 34.5528 L1078.92 59.8999 L1089.04 34.5528 L1094.69 34.5528 L1080.45 69.9692 Z" fill="#000000" fill-rule="nonzero" fill-opacity="1" /><path clip-path="url(#clip850)" d="M1127.27 40.7738 Q1129.26 37.1859 1132.04 35.4787 Q1134.82 33.7715 1138.58 33.7715 Q1143.64 33.7715 1146.39 37.3305 Q1149.14 40.8606 1149.14 47.3999 L1149.14 66.96 L1143.79 66.96 L1143.79 47.5735 Q1143.79 42.915 1142.14 40.6581 Q1140.49 38.4011 1137.1 38.4011 Q1132.97 38.4011 1130.57 41.15 Q1128.16 43.8988 1128.16 48.6441 L1128.16 66.96 L1122.81 66.96 L1122.81 47.5735 Q1122.81 42.8861 1121.16 40.6581 Q1119.51 38.4011 1116.07 38.4011 Q1111.99 38.4011 1109.59 41.1789 Q1107.19 43.9277 1107.19 48.6441 L1107.19 66.96 L1101.83 66.96 L1101.83 34.5528 L1107.19 34.5528 L1107.19 39.5875 Q1109.01 36.6072 1111.56 35.1893 Q1114.1 33.7715 1117.6 33.7715 Q1121.13 33.7715 1123.59 35.5655 Q1126.08 37.3595 1127.27 40.7738 Z" fill="#000000" fill-rule="nonzero" fill-opacity="1" /><path clip-path="url(#clip850)" d="M1183.02 50.7853 Q1183.02 44.9115 1180.59 41.584 Q1178.19 38.2275 1173.97 38.2275 Q1169.74 38.2275 1167.31 41.584 Q1164.91 44.9115 1164.91 50.7853 Q1164.91 56.6591 1167.31 60.0156 Q1169.74 63.3431 1173.97 63.3431 Q1178.19 63.3431 1180.59 60.0156 Q1183.02 56.6591 1183.02 50.7853 M1164.91 39.4717 Q1166.59 36.5782 1169.14 35.1893 Q1171.71 33.7715 1175.27 33.7715 Q1181.17 33.7715 1184.85 38.459 Q1188.55 43.1465 1188.55 50.7853 Q1188.55 58.4242 1184.85 63.1116 Q1181.17 67.7991 1175.27 67.7991 Q1171.71 67.7991 1169.14 66.4102 Q1166.59 64.9924 1164.91 62.0989 L1164.91 66.96 L1159.56 66.96 L1159.56 21.9371 L1164.91 21.9371 L1164.91 39.4717 Z" fill="#000000" fill-rule="nonzero" fill-opacity="1" /><path clip-path="url(#clip850)" d="M1209.93 38.2854 Q1205.65 38.2854 1203.16 41.6418 Q1200.67 44.9694 1200.67 50.7853 Q1200.67 56.6013 1203.13 59.9577 Q1205.62 63.2853 1209.93 63.2853 Q1214.19 63.2853 1216.68 59.9288 Q1219.16 56.5723 1219.16 50.7853 Q1219.16 45.0272 1216.68 41.6708 Q1214.19 38.2854 1209.93 38.2854 M1209.93 33.7715 Q1216.88 33.7715 1220.84 38.2854 Q1224.81 42.7992 1224.81 50.7853 Q1224.81 58.7425 1220.84 63.2853 Q1216.88 67.7991 1209.93 67.7991 Q1202.96 67.7991 1199 63.2853 Q1195.06 58.7425 1195.06 50.7853 Q1195.06 42.7992 1199 38.2854 Q1202.96 33.7715 1209.93 33.7715 Z" fill="#000000" fill-rule="nonzero" fill-opacity="1" /><path clip-path="url(#clip850)" d="M1233.63 21.9371 L1238.96 21.9371 L1238.96 66.96 L1233.63 66.96 L1233.63 21.9371 Z" fill="#000000" fill-rule="nonzero" fill-opacity="1" /><path clip-path="url(#clip850)" d="M1250.1 34.5528 L1255.42 34.5528 L1255.42 66.96 L1250.1 66.96 L1250.1 34.5528 M1250.1 21.9371 L1255.42 21.9371 L1255.42 28.679 L1250.1 28.679 L1250.1 21.9371 Z" fill="#000000" fill-rule="nonzero" fill-opacity="1" /><path clip-path="url(#clip850)" d="M1289.88 35.797 L1289.88 40.7738 Q1287.62 39.5296 1285.34 38.922 Q1283.08 38.2854 1280.77 38.2854 Q1275.59 38.2854 1272.72 41.584 Q1269.86 44.8536 1269.86 50.7853 Q1269.86 56.717 1272.72 60.0156 Q1275.59 63.2853 1280.77 63.2853 Q1283.08 63.2853 1285.34 62.6776 Q1287.62 62.041 1289.88 60.7968 L1289.88 65.7158 Q1287.65 66.7575 1285.25 67.2783 Q1282.88 67.7991 1280.19 67.7991 Q1272.87 67.7991 1268.56 63.1984 Q1264.25 58.5978 1264.25 50.7853 Q1264.25 42.8571 1268.59 38.3143 Q1272.95 33.7715 1280.54 33.7715 Q1283 33.7715 1285.34 34.2924 Q1287.68 34.7842 1289.88 35.797 Z" fill="#000000" fill-rule="nonzero" fill-opacity="1" /><path clip-path="url(#clip850)" d="M1319.8 35.5076 L1319.8 40.5423 Q1317.54 39.3849 1315.11 38.8062 Q1312.68 38.2275 1310.08 38.2275 Q1306.11 38.2275 1304.12 39.4428 Q1302.15 40.6581 1302.15 43.0886 Q1302.15 44.9404 1303.57 46.011 Q1304.99 47.0527 1309.27 48.0076 L1311.09 48.4126 Q1316.76 49.6279 1319.13 51.8559 Q1321.54 54.055 1321.54 58.0191 Q1321.54 62.5329 1317.95 65.166 Q1314.39 67.7991 1308.14 67.7991 Q1305.54 67.7991 1302.7 67.2783 Q1299.89 66.7864 1296.77 65.7737 L1296.77 60.276 Q1299.72 61.8096 1302.58 62.5908 Q1305.45 63.3431 1308.26 63.3431 Q1312.02 63.3431 1314.04 62.07 Q1316.07 60.7679 1316.07 58.4242 Q1316.07 56.254 1314.59 55.0966 Q1313.15 53.9392 1308.2 52.8686 L1306.35 52.4346 Q1301.4 51.393 1299.2 49.2518 Q1297 47.0816 1297 43.3201 Q1297 38.7483 1300.24 36.2599 Q1303.48 33.7715 1309.44 33.7715 Q1312.39 33.7715 1315 34.2055 Q1317.6 34.6396 1319.8 35.5076 Z" fill="#000000" fill-rule="nonzero" fill-opacity="1" /><path clip-path="url(#clip850)" d="M1339.48 23.76 L1344.4 23.76 L1329.35 72.4577 L1324.43 72.4577 L1339.48 23.76 Z" fill="#000000" fill-rule="nonzero" fill-opacity="1" /><path clip-path="url(#clip850)" d="M1350.21 23.76 L1375.04 23.76 L1375.04 28.679 L1356.06 28.679 L1356.06 41.4104 L1373.19 41.4104 L1373.19 46.3293 L1356.06 46.3293 L1356.06 66.96 L1350.21 66.96 L1350.21 23.76 Z" fill="#000000" fill-rule="nonzero" fill-opacity="1" /><path clip-path="url(#clip850)" d="M1409.15 25.1778 L1409.15 30.878 Q1405.82 29.2866 1402.87 28.5053 Q1399.92 27.7241 1397.17 27.7241 Q1392.4 27.7241 1389.79 29.5759 Q1387.22 31.4278 1387.22 34.8421 Q1387.22 37.7067 1388.93 39.1824 Q1390.66 40.6291 1395.47 41.5261 L1399 42.2495 Q1405.53 43.4937 1408.63 46.6476 Q1411.76 49.7726 1411.76 55.0388 Q1411.76 61.3177 1407.53 64.5584 Q1403.34 67.7991 1395.21 67.7991 Q1392.14 67.7991 1388.67 67.1047 Q1385.22 66.4102 1381.52 65.0503 L1381.52 59.0318 Q1385.08 61.0283 1388.49 62.041 Q1391.91 63.0538 1395.21 63.0538 Q1400.21 63.0538 1402.93 61.0862 Q1405.65 59.1186 1405.65 55.4728 Q1405.65 52.2899 1403.68 50.496 Q1401.74 48.702 1397.29 47.805 L1393.73 47.1106 Q1387.19 45.8085 1384.27 43.0307 Q1381.35 40.253 1381.35 35.3051 Q1381.35 29.5759 1385.37 26.2773 Q1389.42 22.9788 1396.51 22.9788 Q1399.55 22.9788 1402.7 23.5285 Q1405.85 24.0783 1409.15 25.1778 Z" fill="#000000" fill-rule="nonzero" fill-opacity="1" /><path clip-path="url(#clip850)" d="M1426.72 28.5632 L1426.72 62.1568 L1433.78 62.1568 Q1442.72 62.1568 1446.85 58.1059 Q1451.02 54.055 1451.02 45.3166 Q1451.02 36.6361 1446.85 32.6141 Q1442.72 28.5632 1433.78 28.5632 L1426.72 28.5632 M1420.87 23.76 L1432.88 23.76 Q1445.44 23.76 1451.31 28.9972 Q1457.18 34.2055 1457.18 45.3166 Q1457.18 56.4855 1451.28 61.7228 Q1445.38 66.96 1432.88 66.96 L1420.87 66.96 L1420.87 23.76 Z" fill="#000000" fill-rule="nonzero" fill-opacity="1" /><path clip-path="url(#clip850)" d="M1467.63 59.6105 L1473.73 59.6105 L1473.73 66.96 L1467.63 66.96 L1467.63 59.6105 M1467.63 36.3178 L1473.73 36.3178 L1473.73 43.6673 L1467.63 43.6673 L1467.63 36.3178 Z" fill="#000000" fill-rule="nonzero" fill-opacity="1" /><path clip-path="url(#clip850)" d="M1505.3 23.76 L1514.01 23.76 L1525.04 53.158 L1536.12 23.76 L1544.83 23.76 L1544.83 66.96 L1539.13 66.96 L1539.13 29.0262 L1527.99 58.6556 L1522.11 58.6556 L1510.97 29.0262 L1510.97 66.96 L1505.3 66.96 L1505.3 23.76 Z" fill="#000000" fill-rule="nonzero" fill-opacity="1" /><path clip-path="url(#clip850)" d="M1570.93 50.6696 Q1564.48 50.6696 1561.99 52.1453 Q1559.5 53.621 1559.5 57.18 Q1559.5 60.0156 1561.35 61.6938 Q1563.23 63.3431 1566.44 63.3431 Q1570.87 63.3431 1573.53 60.2181 Q1576.22 57.0642 1576.22 51.8559 L1576.22 50.6696 L1570.93 50.6696 M1581.55 48.4705 L1581.55 66.96 L1576.22 66.96 L1576.22 62.041 Q1574.4 64.9924 1571.68 66.4102 Q1568.96 67.7991 1565.02 67.7991 Q1560.05 67.7991 1557.1 65.0214 Q1554.17 62.2147 1554.17 57.5272 Q1554.17 52.0585 1557.82 49.2807 Q1561.49 46.5029 1568.76 46.5029 L1576.22 46.5029 L1576.22 45.9821 Q1576.22 42.3074 1573.79 40.3108 Q1571.39 38.2854 1567.02 38.2854 Q1564.24 38.2854 1561.61 38.9509 Q1558.98 39.6164 1556.55 40.9474 L1556.55 36.0285 Q1559.47 34.9 1562.22 34.3502 Q1564.97 33.7715 1567.57 33.7715 Q1574.6 33.7715 1578.07 37.4173 Q1581.55 41.0631 1581.55 48.4705 Z" fill="#000000" fill-rule="nonzero" fill-opacity="1" /><path clip-path="url(#clip850)" d="M1592.31 21.9371 L1597.66 21.9371 L1597.66 48.5284 L1613.55 34.5528 L1620.35 34.5528 L1603.16 49.7147 L1621.07 66.96 L1614.13 66.96 L1597.66 51.1325 L1597.66 66.96 L1592.31 66.96 L1592.31 21.9371 Z" fill="#000000" fill-rule="nonzero" fill-opacity="1" /><path clip-path="url(#clip850)" d="M1652.44 49.4254 L1652.44 52.0295 L1627.96 52.0295 Q1628.31 57.5272 1631.26 60.4207 Q1634.24 63.2853 1639.53 63.2853 Q1642.6 63.2853 1645.46 62.5329 Q1648.36 61.7806 1651.19 60.276 L1651.19 65.3107 Q1648.33 66.526 1645.32 67.1625 Q1642.31 67.7991 1639.21 67.7991 Q1631.46 67.7991 1626.92 63.2853 Q1622.4 58.7714 1622.4 51.0747 Q1622.4 43.1175 1626.69 38.459 Q1631 33.7715 1638.29 33.7715 Q1644.83 33.7715 1648.62 37.996 Q1652.44 42.1916 1652.44 49.4254 M1647.11 47.8629 Q1647.06 43.4937 1644.65 40.8895 Q1642.28 38.2854 1638.35 38.2854 Q1633.89 38.2854 1631.2 40.8027 Q1628.54 43.3201 1628.13 47.8918 L1647.11 47.8629 Z" fill="#000000" fill-rule="nonzero" fill-opacity="1" /><path clip-path="url(#clip850)" d="M1661.41 23.76 L1686.23 23.76 L1686.23 28.679 L1667.25 28.679 L1667.25 41.4104 L1684.38 41.4104 L1684.38 46.3293 L1667.25 46.3293 L1667.25 66.96 L1661.41 66.96 L1661.41 23.76 Z" fill="#000000" fill-rule="nonzero" fill-opacity="1" /><path clip-path="url(#clip850)" d="M1691.47 54.1707 L1691.47 34.5528 L1696.79 34.5528 L1696.79 53.9682 Q1696.79 58.5688 1698.59 60.8836 Q1700.38 63.1695 1703.97 63.1695 Q1708.28 63.1695 1710.77 60.4207 Q1713.29 57.6719 1713.29 52.9265 L1713.29 34.5528 L1718.61 34.5528 L1718.61 66.96 L1713.29 66.96 L1713.29 61.9832 Q1711.35 64.9345 1708.77 66.3813 Q1706.23 67.7991 1702.84 67.7991 Q1697.26 67.7991 1694.36 64.3269 Q1691.47 60.8547 1691.47 54.1707 M1704.87 33.7715 L1704.87 33.7715 Z" fill="#000000" fill-rule="nonzero" fill-opacity="1" /><path clip-path="url(#clip850)" d="M1756.52 47.3999 L1756.52 66.96 L1751.19 66.96 L1751.19 47.5735 Q1751.19 42.9729 1749.4 40.687 Q1747.6 38.4011 1744.02 38.4011 Q1739.71 38.4011 1737.22 41.15 Q1734.73 43.8988 1734.73 48.6441 L1734.73 66.96 L1729.38 66.96 L1729.38 34.5528 L1734.73 34.5528 L1734.73 39.5875 Q1736.64 36.665 1739.21 35.2183 Q1741.82 33.7715 1745.2 33.7715 Q1750.79 33.7715 1753.65 37.2437 Q1756.52 40.687 1756.52 47.3999 Z" fill="#000000" fill-rule="nonzero" fill-opacity="1" /><path clip-path="url(#clip850)" d="M1790.46 35.797 L1790.46 40.7738 Q1788.2 39.5296 1785.91 38.922 Q1783.66 38.2854 1781.34 38.2854 Q1776.16 38.2854 1773.3 41.584 Q1770.43 44.8536 1770.43 50.7853 Q1770.43 56.717 1773.3 60.0156 Q1776.16 63.2853 1781.34 63.2853 Q1783.66 63.2853 1785.91 62.6776 Q1788.2 62.041 1790.46 60.7968 L1790.46 65.7158 Q1788.23 66.7575 1785.83 67.2783 Q1783.46 67.7991 1780.76 67.7991 Q1773.44 67.7991 1769.13 63.1984 Q1764.82 58.5978 1764.82 50.7853 Q1764.82 42.8571 1769.16 38.3143 Q1773.53 33.7715 1781.11 33.7715 Q1783.57 33.7715 1785.91 34.2924 Q1788.26 34.7842 1790.46 35.797 Z" fill="#000000" fill-rule="nonzero" fill-opacity="1" /><path clip-path="url(#clip850)" d="M1804.98 25.3514 L1804.98 34.5528 L1815.95 34.5528 L1815.95 38.6905 L1804.98 38.6905 L1804.98 56.283 Q1804.98 60.2471 1806.05 61.3755 Q1807.15 62.504 1810.48 62.504 L1815.95 62.504 L1815.95 66.96 L1810.48 66.96 Q1804.32 66.96 1801.97 64.6741 Q1799.63 62.3593 1799.63 56.283 L1799.63 38.6905 L1795.72 38.6905 L1795.72 34.5528 L1799.63 34.5528 L1799.63 25.3514 L1804.98 25.3514 Z" fill="#000000" fill-rule="nonzero" fill-opacity="1" /><path clip-path="url(#clip850)" d="M1822.95 34.5528 L1828.28 34.5528 L1828.28 66.96 L1822.95 66.96 L1822.95 34.5528 M1822.95 21.9371 L1828.28 21.9371 L1828.28 28.679 L1822.95 28.679 L1822.95 21.9371 Z" fill="#000000" fill-rule="nonzero" fill-opacity="1" /><path clip-path="url(#clip850)" d="M1851.97 38.2854 Q1847.69 38.2854 1845.2 41.6418 Q1842.71 44.9694 1842.71 50.7853 Q1842.71 56.6013 1845.17 59.9577 Q1847.66 63.2853 1851.97 63.2853 Q1856.23 63.2853 1858.72 59.9288 Q1861.2 56.5723 1861.2 50.7853 Q1861.2 45.0272 1858.72 41.6708 Q1856.23 38.2854 1851.97 38.2854 M1851.97 33.7715 Q1858.92 33.7715 1862.88 38.2854 Q1866.85 42.7992 1866.85 50.7853 Q1866.85 58.7425 1862.88 63.2853 Q1858.92 67.7991 1851.97 67.7991 Q1845 67.7991 1841.04 63.2853 Q1837.1 58.7425 1837.1 50.7853 Q1837.1 42.7992 1841.04 38.2854 Q1845 33.7715 1851.97 33.7715 Z" fill="#000000" fill-rule="nonzero" fill-opacity="1" /><path clip-path="url(#clip850)" d="M1902.61 47.3999 L1902.61 66.96 L1897.29 66.96 L1897.29 47.5735 Q1897.29 42.9729 1895.49 40.687 Q1893.7 38.4011 1890.11 38.4011 Q1885.8 38.4011 1883.31 41.15 Q1880.82 43.8988 1880.82 48.6441 L1880.82 66.96 L1875.47 66.96 L1875.47 34.5528 L1880.82 34.5528 L1880.82 39.5875 Q1882.73 36.665 1885.31 35.2183 Q1887.91 33.7715 1891.3 33.7715 Q1896.88 33.7715 1899.75 37.2437 Q1902.61 40.687 1902.61 47.3999 Z" fill="#000000" fill-rule="nonzero" fill-opacity="1" /><path clip-path="url(#clip850)" d="M1162.55 100.597 L1162.55 105.574 Q1160.3 104.33 1158.01 103.722 Q1155.75 103.085 1153.44 103.085 Q1148.26 103.085 1145.39 106.384 Q1142.53 109.654 1142.53 115.585 Q1142.53 121.517 1145.39 124.816 Q1148.26 128.085 1153.44 128.085 Q1155.75 128.085 1158.01 127.478 Q1160.3 126.841 1162.55 125.597 L1162.55 130.516 Q1160.33 131.557 1157.92 132.078 Q1155.55 132.599 1152.86 132.599 Q1145.54 132.599 1141.23 127.998 Q1136.92 123.398 1136.92 115.585 Q1136.92 107.657 1141.26 103.114 Q1145.63 98.5715 1153.21 98.5715 Q1155.67 98.5715 1158.01 99.0924 Q1160.35 99.5842 1162.55 100.597 Z" fill="#000000" fill-rule="nonzero" fill-opacity="1" /><path clip-path="url(#clip850)" d="M1198.75 112.2 L1198.75 131.76 L1193.43 131.76 L1193.43 112.374 Q1193.43 107.773 1191.63 105.487 Q1189.84 103.201 1186.25 103.201 Q1181.94 103.201 1179.45 105.95 Q1176.96 108.699 1176.96 113.444 L1176.96 131.76 L1171.61 131.76 L1171.61 86.7371 L1176.96 86.7371 L1176.96 104.387 Q1178.87 101.465 1181.45 100.018 Q1184.05 98.5715 1187.44 98.5715 Q1193.02 98.5715 1195.89 102.044 Q1198.75 105.487 1198.75 112.2 Z" fill="#000000" fill-rule="nonzero" fill-opacity="1" /><path clip-path="url(#clip850)" d="M1237.09 114.225 L1237.09 116.83 L1212.61 116.83 Q1212.96 122.327 1215.91 125.221 Q1218.89 128.085 1224.18 128.085 Q1227.25 128.085 1230.12 127.333 Q1233.01 126.581 1235.85 125.076 L1235.85 130.111 Q1232.98 131.326 1229.97 131.963 Q1226.96 132.599 1223.87 132.599 Q1216.11 132.599 1211.57 128.085 Q1207.06 123.571 1207.06 115.875 Q1207.06 107.918 1211.34 103.259 Q1215.65 98.5715 1222.94 98.5715 Q1229.48 98.5715 1233.27 102.796 Q1237.09 106.992 1237.09 114.225 M1231.77 112.663 Q1231.71 108.294 1229.31 105.69 Q1226.93 103.085 1223 103.085 Q1218.54 103.085 1215.85 105.603 Q1213.19 108.12 1212.78 112.692 L1231.77 112.663 Z" fill="#000000" fill-rule="nonzero" fill-opacity="1" /><path clip-path="url(#clip850)" d="M1269.09 115.585 Q1269.09 109.712 1266.66 106.384 Q1264.26 103.028 1260.04 103.028 Q1255.81 103.028 1253.38 106.384 Q1250.98 109.712 1250.98 115.585 Q1250.98 121.459 1253.38 124.816 Q1255.81 128.143 1260.04 128.143 Q1264.26 128.143 1266.66 124.816 Q1269.09 121.459 1269.09 115.585 M1250.98 104.272 Q1252.66 101.378 1255.2 99.9893 Q1257.78 98.5715 1261.34 98.5715 Q1267.24 98.5715 1270.91 103.259 Q1274.62 107.946 1274.62 115.585 Q1274.62 123.224 1270.91 127.912 Q1267.24 132.599 1261.34 132.599 Q1257.78 132.599 1255.2 131.21 Q1252.66 129.792 1250.98 126.899 L1250.98 131.76 L1245.63 131.76 L1245.63 86.7371 L1250.98 86.7371 L1250.98 104.272 Z" fill="#000000" fill-rule="nonzero" fill-opacity="1" /><path clip-path="url(#clip850)" d="M1296.93 134.769 Q1294.67 140.556 1292.53 142.321 Q1290.39 144.086 1286.8 144.086 L1282.55 144.086 L1282.55 139.63 L1285.67 139.63 Q1287.87 139.63 1289.09 138.589 Q1290.3 137.547 1291.78 133.67 L1292.73 131.239 L1279.62 99.3528 L1285.27 99.3528 L1295.39 124.7 L1305.52 99.3528 L1311.16 99.3528 L1296.93 134.769 Z" fill="#000000" fill-rule="nonzero" fill-opacity="1" /><path clip-path="url(#clip850)" d="M1339.17 100.308 L1339.17 105.342 Q1336.92 104.185 1334.49 103.606 Q1332.05 103.028 1329.45 103.028 Q1325.49 103.028 1323.49 104.243 Q1321.52 105.458 1321.52 107.889 Q1321.52 109.74 1322.94 110.811 Q1324.36 111.853 1328.64 112.808 L1330.46 113.213 Q1336.13 114.428 1338.51 116.656 Q1340.91 118.855 1340.91 122.819 Q1340.91 127.333 1337.32 129.966 Q1333.76 132.599 1327.51 132.599 Q1324.91 132.599 1322.07 132.078 Q1319.27 131.586 1316.14 130.574 L1316.14 125.076 Q1319.09 126.61 1321.96 127.391 Q1324.82 128.143 1327.63 128.143 Q1331.39 128.143 1333.41 126.87 Q1335.44 125.568 1335.44 123.224 Q1335.44 121.054 1333.96 119.897 Q1332.52 118.739 1327.57 117.669 L1325.72 117.235 Q1320.77 116.193 1318.57 114.052 Q1316.37 111.882 1316.37 108.12 Q1316.37 103.548 1319.61 101.06 Q1322.85 98.5715 1328.81 98.5715 Q1331.77 98.5715 1334.37 99.0055 Q1336.97 99.4396 1339.17 100.308 Z" fill="#000000" fill-rule="nonzero" fill-opacity="1" /><path clip-path="url(#clip850)" d="M1376.33 112.2 L1376.33 131.76 L1371 131.76 L1371 112.374 Q1371 107.773 1369.21 105.487 Q1367.41 103.201 1363.83 103.201 Q1359.51 103.201 1357.03 105.95 Q1354.54 108.699 1354.54 113.444 L1354.54 131.76 L1349.18 131.76 L1349.18 86.7371 L1354.54 86.7371 L1354.54 104.387 Q1356.45 101.465 1359.02 100.018 Q1361.63 98.5715 1365.01 98.5715 Q1370.6 98.5715 1373.46 102.044 Q1376.33 105.487 1376.33 112.2 Z" fill="#000000" fill-rule="nonzero" fill-opacity="1" /><path clip-path="url(#clip850)" d="M1414.66 114.225 L1414.66 116.83 L1390.18 116.83 Q1390.53 122.327 1393.48 125.221 Q1396.46 128.085 1401.76 128.085 Q1404.83 128.085 1407.69 127.333 Q1410.58 126.581 1413.42 125.076 L1413.42 130.111 Q1410.56 131.326 1407.55 131.963 Q1404.54 132.599 1401.44 132.599 Q1393.69 132.599 1389.14 128.085 Q1384.63 123.571 1384.63 115.875 Q1384.63 107.918 1388.91 103.259 Q1393.22 98.5715 1400.51 98.5715 Q1407.05 98.5715 1410.84 102.796 Q1414.66 106.992 1414.66 114.225 M1409.34 112.663 Q1409.28 108.294 1406.88 105.69 Q1404.51 103.085 1400.57 103.085 Q1396.12 103.085 1393.43 105.603 Q1390.76 108.12 1390.36 112.692 L1409.34 112.663 Z" fill="#000000" fill-rule="nonzero" fill-opacity="1" /><path clip-path="url(#clip850)" d="M1419.58 99.3528 L1425.23 99.3528 L1435.35 126.552 L1445.48 99.3528 L1451.12 99.3528 L1438.97 131.76 L1431.74 131.76 L1419.58 99.3528 Z" fill="#000000" fill-rule="nonzero" fill-opacity="1" /><polyline clip-path="url(#clip852)" style="stroke:#009af9; stroke-linecap:round; stroke-linejoin:round; stroke-width:4; stroke-opacity:1; fill:none" points="295.211,1387.13 428.386,1386.6 561.56,1385.65 694.735,1383.96 827.909,1381.28 961.083,1376.38 1094.26,1369.19 1227.43,1356.44 1360.61,1336.73 1493.78,1303.08 1626.96,1245.14 1760.13,1147.64 1893.3,975.065 2026.48,677.471 2159.65,185.443 "/>
<circle clip-path="url(#clip852)" cx="295.211" cy="1387.13" r="14.4" fill="#009af9" fill-rule="evenodd" fill-opacity="1" stroke="#000000" stroke-opacity="1" stroke-width="3.2"/>
<circle clip-path="url(#clip852)" cx="428.386" cy="1386.6" r="14.4" fill="#009af9" fill-rule="evenodd" fill-opacity="1" stroke="#000000" stroke-opacity="1" stroke-width="3.2"/>
<circle clip-path="url(#clip852)" cx="561.56" cy="1385.65" r="14.4" fill="#009af9" fill-rule="evenodd" fill-opacity="1" stroke="#000000" stroke-opacity="1" stroke-width="3.2"/>
<circle clip-path="url(#clip852)" cx="694.735" cy="1383.96" r="14.4" fill="#009af9" fill-rule="evenodd" fill-opacity="1" stroke="#000000" stroke-opacity="1" stroke-width="3.2"/>
<circle clip-path="url(#clip852)" cx="827.909" cy="1381.28" r="14.4" fill="#009af9" fill-rule="evenodd" fill-opacity="1" stroke="#000000" stroke-opacity="1" stroke-width="3.2"/>
<circle clip-path="url(#clip852)" cx="961.083" cy="1376.38" r="14.4" fill="#009af9" fill-rule="evenodd" fill-opacity="1" stroke="#000000" stroke-opacity="1" stroke-width="3.2"/>
<circle clip-path="url(#clip852)" cx="1094.26" cy="1369.19" r="14.4" fill="#009af9" fill-rule="evenodd" fill-opacity="1" stroke="#000000" stroke-opacity="1" stroke-width="3.2"/>
<circle clip-path="url(#clip852)" cx="1227.43" cy="1356.44" r="14.4" fill="#009af9" fill-rule="evenodd" fill-opacity="1" stroke="#000000" stroke-opacity="1" stroke-width="3.2"/>
<circle clip-path="url(#clip852)" cx="1360.61" cy="1336.73" r="14.4" fill="#009af9" fill-rule="evenodd" fill-opacity="1" stroke="#000000" stroke-opacity="1" stroke-width="3.2"/>
<circle clip-path="url(#clip852)" cx="1493.78" cy="1303.08" r="14.4" fill="#009af9" fill-rule="evenodd" fill-opacity="1" stroke="#000000" stroke-opacity="1" stroke-width="3.2"/>
<circle clip-path="url(#clip852)" cx="1626.96" cy="1245.14" r="14.4" fill="#009af9" fill-rule="evenodd" fill-opacity="1" stroke="#000000" stroke-opacity="1" stroke-width="3.2"/>
<circle clip-path="url(#clip852)" cx="1760.13" cy="1147.64" r="14.4" fill="#009af9" fill-rule="evenodd" fill-opacity="1" stroke="#000000" stroke-opacity="1" stroke-width="3.2"/>
<circle clip-path="url(#clip852)" cx="1893.3" cy="975.065" r="14.4" fill="#009af9" fill-rule="evenodd" fill-opacity="1" stroke="#000000" stroke-opacity="1" stroke-width="3.2"/>
<circle clip-path="url(#clip852)" cx="2026.48" cy="677.471" r="14.4" fill="#009af9" fill-rule="evenodd" fill-opacity="1" stroke="#000000" stroke-opacity="1" stroke-width="3.2"/>
<circle clip-path="url(#clip852)" cx="2159.65" cy="185.443" r="14.4" fill="#009af9" fill-rule="evenodd" fill-opacity="1" stroke="#000000" stroke-opacity="1" stroke-width="3.2"/>
</svg>
