<?xml version="1.0" encoding="utf-8"?>
<svg xmlns="http://www.w3.org/2000/svg" xmlns:xlink="http://www.w3.org/1999/xlink" width="600" height="400" viewBox="0 0 2400 1600">
<defs>
  <clipPath id="clip730">
    <rect x="0" y="0" width="2400" height="1600"/>
  </clipPath>
</defs>
<path clip-path="url(#clip730)" d="M0 1600 L2400 1600 L2400 0 L0 0  Z" fill="#ffffff" fill-rule="evenodd" fill-opacity="1"/>
<defs>
  <clipPath id="clip731">
    <rect x="480" y="0" width="1681" height="1600"/>
  </clipPath>
</defs>
<path clip-path="url(#clip730)" d="M234.125 1423.18 L2352.76 1423.18 L2352.76 149.392 L234.125 149.392  Z" fill="#ffffff" fill-rule="evenodd" fill-opacity="1"/>
<defs>
  <clipPath id="clip732">
    <rect x="234" y="149" width="2120" height="1275"/>
  </clipPath>
</defs>
<polyline clip-path="url(#clip732)" style="stroke:#000000; stroke-linecap:round; stroke-linejoin:round; stroke-width:2; stroke-opacity:0.1; fill:none" points="294.087,1423.18 294.087,149.392 "/>
<polyline clip-path="url(#clip732)" style="stroke:#000000; stroke-linecap:round; stroke-linejoin:round; stroke-width:2; stroke-opacity:0.1; fill:none" points="748.339,1423.18 748.339,149.392 "/>
<polyline clip-path="url(#clip732)" style="stroke:#000000; stroke-linecap:round; stroke-linejoin:round; stroke-width:2; stroke-opacity:0.1; fill:none" points="1202.59,1423.18 1202.59,149.392 "/>
<polyline clip-path="url(#clip732)" style="stroke:#000000; stroke-linecap:round; stroke-linejoin:round; stroke-width:2; stroke-opacity:0.1; fill:none" points="1656.84,1423.18 1656.84,149.392 "/>
<polyline clip-path="url(#clip732)" style="stroke:#000000; stroke-linecap:round; stroke-linejoin:round; stroke-width:2; stroke-opacity:0.1; fill:none" points="2111.09,1423.18 2111.09,149.392 "/>
<polyline clip-path="url(#clip730)" style="stroke:#000000; stroke-linecap:round; stroke-linejoin:round; stroke-width:4; stroke-opacity:1; fill:none" points="234.125,1423.18 2352.76,1423.18 "/>
<polyline clip-path="url(#clip730)" style="stroke:#000000; stroke-linecap:round; stroke-linejoin:round; stroke-width:4; stroke-opacity:1; fill:none" points="294.087,1423.18 294.087,1404.28 "/>
<polyline clip-path="url(#clip730)" style="stroke:#000000; stroke-linecap:round; stroke-linejoin:round; stroke-width:4; stroke-opacity:1; fill:none" points="748.339,1423.18 748.339,1404.28 "/>
<polyline clip-path="url(#clip730)" style="stroke:#000000; stroke-linecap:round; stroke-linejoin:round; stroke-width:4; stroke-opacity:1; fill:none" points="1202.59,1423.18 1202.59,1404.28 "/>
<polyline clip-path="url(#clip730)" style="stroke:#000000; stroke-linecap:round; stroke-linejoin:round; stroke-width:4; stroke-opacity:1; fill:none" points="1656.84,1423.18 1656.84,1404.28 "/>
<polyline clip-path="url(#clip730)" style="stroke:#000000; stroke-linecap:round; stroke-linejoin:round; stroke-width:4; stroke-opacity:1; fill:none" points="2111.09,1423.18 2111.09,1404.28 "/>
<path clip-path="url(#clip730)" d="M261.251 1451.02 L279.608 1451.02 L279.608 1454.96 L265.534 1454.96 L265.534 1463.43 Q266.552 1463.08 267.571 1462.92 Q268.589 1462.73 269.608 1462.73 Q275.395 1462.73 278.774 1465.9 Q282.154 1469.08 282.154 1474.49 Q282.154 1480.07 278.682 1483.17 Q275.209 1486.25 268.89 1486.25 Q266.714 1486.25 264.446 1485.88 Q262.2 1485.51 259.793 1484.77 L259.793 1480.07 Q261.876 1481.2 264.098 1481.76 Q266.321 1482.32 268.797 1482.32 Q272.802 1482.32 275.14 1480.21 Q277.478 1478.1 277.478 1474.49 Q277.478 1470.88 275.14 1468.77 Q272.802 1466.67 268.797 1466.67 Q266.922 1466.67 265.047 1467.08 Q263.196 1467.5 261.251 1468.38 L261.251 1451.02 Z" fill="#000000" fill-rule="nonzero" fill-opacity="1" /><path clip-path="url(#clip730)" d="M291.367 1479.7 L296.251 1479.7 L296.251 1485.58 L291.367 1485.58 L291.367 1479.7 Z" fill="#000000" fill-rule="nonzero" fill-opacity="1" /><path clip-path="url(#clip730)" d="M316.436 1454.1 Q312.825 1454.1 310.996 1457.66 Q309.191 1461.2 309.191 1468.33 Q309.191 1475.44 310.996 1479.01 Q312.825 1482.55 316.436 1482.55 Q320.07 1482.55 321.876 1479.01 Q323.705 1475.44 323.705 1468.33 Q323.705 1461.2 321.876 1457.66 Q320.07 1454.1 316.436 1454.1 M316.436 1450.39 Q322.246 1450.39 325.302 1455 Q328.38 1459.58 328.38 1468.33 Q328.38 1477.06 325.302 1481.67 Q322.246 1486.25 316.436 1486.25 Q310.626 1486.25 307.547 1481.67 Q304.492 1477.06 304.492 1468.33 Q304.492 1459.58 307.547 1455 Q310.626 1450.39 316.436 1450.39 Z" fill="#000000" fill-rule="nonzero" fill-opacity="1" /><path clip-path="url(#clip730)" d="M714.658 1451.02 L736.88 1451.02 L736.88 1453.01 L724.334 1485.58 L719.45 1485.58 L731.255 1454.96 L714.658 1454.96 L714.658 1451.02 Z" fill="#000000" fill-rule="nonzero" fill-opacity="1" /><path clip-path="url(#clip730)" d="M746.001 1479.7 L750.885 1479.7 L750.885 1485.58 L746.001 1485.58 L746.001 1479.7 Z" fill="#000000" fill-rule="nonzero" fill-opacity="1" /><path clip-path="url(#clip730)" d="M761.116 1451.02 L779.473 1451.02 L779.473 1454.96 L765.399 1454.96 L765.399 1463.43 Q766.417 1463.08 767.436 1462.92 Q768.454 1462.73 769.473 1462.73 Q775.26 1462.73 778.639 1465.9 Q782.019 1469.08 782.019 1474.49 Q782.019 1480.07 778.547 1483.17 Q775.074 1486.25 768.755 1486.25 Q766.579 1486.25 764.311 1485.88 Q762.065 1485.51 759.658 1484.77 L759.658 1480.07 Q761.741 1481.2 763.963 1481.76 Q766.186 1482.32 768.662 1482.32 Q772.667 1482.32 775.005 1480.21 Q777.343 1478.1 777.343 1474.49 Q777.343 1470.88 775.005 1468.77 Q772.667 1466.67 768.662 1466.67 Q766.787 1466.67 764.912 1467.08 Q763.061 1467.5 761.116 1468.38 L761.116 1451.02 Z" fill="#000000" fill-rule="nonzero" fill-opacity="1" /><path clip-path="url(#clip730)" d="M1154.66 1481.64 L1162.3 1481.64 L1162.3 1455.28 L1153.99 1456.95 L1153.99 1452.69 L1162.25 1451.02 L1166.93 1451.02 L1166.93 1481.64 L1174.57 1481.64 L1174.57 1485.58 L1154.66 1485.58 L1154.66 1481.64 Z" fill="#000000" fill-rule="nonzero" fill-opacity="1" /><path clip-path="url(#clip730)" d="M1194.01 1454.1 Q1190.4 1454.1 1188.57 1457.66 Q1186.77 1461.2 1186.77 1468.33 Q1186.77 1475.44 1188.57 1479.01 Q1190.4 1482.55 1194.01 1482.55 Q1197.65 1482.55 1199.45 1479.01 Q1201.28 1475.44 1201.28 1468.33 Q1201.28 1461.2 1199.45 1457.66 Q1197.65 1454.1 1194.01 1454.1 M1194.01 1450.39 Q1199.82 1450.39 1202.88 1455 Q1205.96 1459.58 1205.96 1468.33 Q1205.96 1477.06 1202.88 1481.67 Q1199.82 1486.25 1194.01 1486.25 Q1188.2 1486.25 1185.13 1481.67 Q1182.07 1477.06 1182.07 1468.33 Q1182.07 1459.58 1185.13 1455 Q1188.2 1450.39 1194.01 1450.39 Z" fill="#000000" fill-rule="nonzero" fill-opacity="1" /><path clip-path="url(#clip730)" d="M1214.18 1479.7 L1219.06 1479.7 L1219.06 1485.58 L1214.18 1485.58 L1214.18 1479.7 Z" fill="#000000" fill-rule="nonzero" fill-opacity="1" /><path clip-path="url(#clip730)" d="M1239.25 1454.1 Q1235.63 1454.1 1233.81 1457.66 Q1232 1461.2 1232 1468.33 Q1232 1475.44 1233.81 1479.01 Q1235.63 1482.55 1239.25 1482.55 Q1242.88 1482.55 1244.68 1479.01 Q1246.51 1475.44 1246.51 1468.33 Q1246.51 1461.2 1244.68 1457.66 Q1242.88 1454.1 1239.25 1454.1 M1239.25 1450.39 Q1245.06 1450.39 1248.11 1455 Q1251.19 1459.58 1251.19 1468.33 Q1251.19 1477.06 1248.11 1481.67 Q1245.06 1486.25 1239.25 1486.25 Q1233.44 1486.25 1230.36 1481.67 Q1227.3 1477.06 1227.3 1468.33 Q1227.3 1459.58 1230.36 1455 Q1233.44 1450.39 1239.25 1450.39 Z" fill="#000000" fill-rule="nonzero" fill-opacity="1" /><path clip-path="url(#clip730)" d="M1609.41 1481.64 L1617.05 1481.64 L1617.05 1455.28 L1608.74 1456.95 L1608.74 1452.69 L1617 1451.02 L1621.68 1451.02 L1621.68 1481.64 L1629.32 1481.64 L1629.32 1485.58 L1609.41 1485.58 L1609.41 1481.64 Z" fill="#000000" fill-rule="nonzero" fill-opacity="1" /><path clip-path="url(#clip730)" d="M1642.79 1481.64 L1659.11 1481.64 L1659.11 1485.58 L1637.17 1485.58 L1637.17 1481.64 Q1639.83 1478.89 1644.41 1474.26 Q1649.02 1469.61 1650.2 1468.27 Q1652.44 1465.74 1653.32 1464.01 Q1654.23 1462.25 1654.23 1460.56 Q1654.23 1457.8 1652.28 1456.07 Q1650.36 1454.33 1647.26 1454.33 Q1645.06 1454.33 1642.61 1455.09 Q1640.18 1455.86 1637.4 1457.41 L1637.4 1452.69 Q1640.22 1451.55 1642.68 1450.97 Q1645.13 1450.39 1647.17 1450.39 Q1652.54 1450.39 1655.73 1453.08 Q1658.93 1455.77 1658.93 1460.26 Q1658.93 1462.39 1658.12 1464.31 Q1657.33 1466.2 1655.22 1468.8 Q1654.64 1469.47 1651.54 1472.69 Q1648.44 1475.88 1642.79 1481.64 Z" fill="#000000" fill-rule="nonzero" fill-opacity="1" /><path clip-path="url(#clip730)" d="M1668.93 1479.7 L1673.81 1479.7 L1673.81 1485.58 L1668.93 1485.58 L1668.93 1479.7 Z" fill="#000000" fill-rule="nonzero" fill-opacity="1" /><path clip-path="url(#clip730)" d="M1684.04 1451.02 L1702.4 1451.02 L1702.4 1454.96 L1688.32 1454.96 L1688.32 1463.43 Q1689.34 1463.08 1690.36 1462.92 Q1691.38 1462.73 1692.4 1462.73 Q1698.18 1462.73 1701.56 1465.9 Q1704.94 1469.08 1704.94 1474.49 Q1704.94 1480.07 1701.47 1483.17 Q1698 1486.25 1691.68 1486.25 Q1689.5 1486.25 1687.24 1485.88 Q1684.99 1485.51 1682.58 1484.77 L1682.58 1480.07 Q1684.67 1481.2 1686.89 1481.76 Q1689.11 1482.32 1691.59 1482.32 Q1695.59 1482.32 1697.93 1480.21 Q1700.27 1478.1 1700.27 1474.49 Q1700.27 1470.88 1697.93 1468.77 Q1695.59 1466.67 1691.59 1466.67 Q1689.71 1466.67 1687.84 1467.08 Q1685.99 1467.5 1684.04 1468.38 L1684.04 1451.02 Z" fill="#000000" fill-rule="nonzero" fill-opacity="1" /><path clip-path="url(#clip730)" d="M2063.17 1481.64 L2070.8 1481.64 L2070.8 1455.28 L2062.49 1456.95 L2062.49 1452.69 L2070.76 1451.02 L2075.43 1451.02 L2075.43 1481.64 L2083.07 1481.64 L2083.07 1485.58 L2063.17 1485.58 L2063.17 1481.64 Z" fill="#000000" fill-rule="nonzero" fill-opacity="1" /><path clip-path="url(#clip730)" d="M2092.56 1451.02 L2110.92 1451.02 L2110.92 1454.96 L2096.85 1454.96 L2096.85 1463.43 Q2097.86 1463.08 2098.88 1462.92 Q2099.9 1462.73 2100.92 1462.73 Q2106.71 1462.73 2110.09 1465.9 Q2113.47 1469.08 2113.47 1474.49 Q2113.47 1480.07 2109.99 1483.17 Q2106.52 1486.25 2100.2 1486.25 Q2098.03 1486.25 2095.76 1485.88 Q2093.51 1485.51 2091.11 1484.77 L2091.11 1480.07 Q2093.19 1481.2 2095.41 1481.76 Q2097.63 1482.32 2100.11 1482.32 Q2104.11 1482.32 2106.45 1480.21 Q2108.79 1478.1 2108.79 1474.49 Q2108.79 1470.88 2106.45 1468.77 Q2104.11 1466.67 2100.11 1466.67 Q2098.24 1466.67 2096.36 1467.08 Q2094.51 1467.5 2092.56 1468.38 L2092.56 1451.02 Z" fill="#000000" fill-rule="nonzero" fill-opacity="1" /><path clip-path="url(#clip730)" d="M2122.68 1479.7 L2127.56 1479.7 L2127.56 1485.58 L2122.68 1485.58 L2122.68 1479.7 Z" fill="#000000" fill-rule="nonzero" fill-opacity="1" /><path clip-path="url(#clip730)" d="M2147.75 1454.1 Q2144.14 1454.1 2142.31 1457.66 Q2140.5 1461.2 2140.5 1468.33 Q2140.5 1475.44 2142.31 1479.01 Q2144.14 1482.55 2147.75 1482.55 Q2151.38 1482.55 2153.19 1479.01 Q2155.02 1475.44 2155.02 1468.33 Q2155.02 1461.2 2153.19 1457.66 Q2151.38 1454.1 2147.75 1454.1 M2147.75 1450.39 Q2153.56 1450.39 2156.61 1455 Q2159.69 1459.58 2159.69 1468.33 Q2159.69 1477.06 2156.61 1481.67 Q2153.56 1486.25 2147.75 1486.25 Q2141.94 1486.25 2138.86 1481.67 Q2135.8 1477.06 2135.8 1468.33 Q2135.8 1459.58 2138.86 1455 Q2141.94 1450.39 2147.75 1450.39 Z" fill="#000000" fill-rule="nonzero" fill-opacity="1" /><path clip-path="url(#clip730)" d="M889.441 1533.45 L889.441 1538.98 Q886.958 1537.71 884.285 1537.07 Q881.611 1536.44 878.747 1536.44 Q874.386 1536.44 872.19 1537.77 Q870.026 1539.11 870.026 1541.79 Q870.026 1543.82 871.585 1545 Q873.145 1546.15 877.856 1547.2 L879.861 1547.64 Q886.099 1548.98 888.709 1551.43 Q891.351 1553.85 891.351 1558.21 Q891.351 1563.17 887.404 1566.07 Q883.489 1568.97 876.614 1568.97 Q873.75 1568.97 870.63 1568.39 Q867.543 1567.85 864.106 1566.74 L864.106 1560.69 Q867.352 1562.38 870.503 1563.24 Q873.654 1564.07 876.742 1564.07 Q880.879 1564.07 883.107 1562.66 Q885.335 1561.23 885.335 1558.65 Q885.335 1556.27 883.712 1554.99 Q882.121 1553.72 876.678 1552.54 L874.641 1552.07 Q869.198 1550.92 866.779 1548.56 Q864.36 1546.18 864.36 1542.04 Q864.36 1537.01 867.925 1534.27 Q871.49 1531.54 878.046 1531.54 Q881.293 1531.54 884.158 1532.01 Q887.022 1532.49 889.441 1533.45 Z" fill="#000000" fill-rule="nonzero" fill-opacity="1" /><path clip-path="url(#clip730)" d="M906.342 1562.7 L906.342 1581.6 L900.454 1581.6 L900.454 1532.4 L906.342 1532.4 L906.342 1537.81 Q908.188 1534.62 910.989 1533.1 Q913.822 1531.54 917.737 1531.54 Q924.23 1531.54 928.272 1536.69 Q932.346 1541.85 932.346 1550.25 Q932.346 1558.65 928.272 1563.81 Q924.23 1568.97 917.737 1568.97 Q913.822 1568.97 910.989 1567.44 Q908.188 1565.88 906.342 1562.7 M926.267 1550.25 Q926.267 1543.79 923.593 1540.13 Q920.951 1536.44 916.304 1536.44 Q911.657 1536.44 908.984 1540.13 Q906.342 1543.79 906.342 1550.25 Q906.342 1556.71 908.984 1560.4 Q911.657 1564.07 916.304 1564.07 Q920.951 1564.07 923.593 1560.4 Q926.267 1556.71 926.267 1550.25 Z" fill="#000000" fill-rule="nonzero" fill-opacity="1" /><path clip-path="url(#clip730)" d="M971.686 1546.53 L971.686 1568.04 L965.83 1568.04 L965.83 1546.72 Q965.83 1541.66 963.856 1539.14 Q961.883 1536.63 957.936 1536.63 Q953.194 1536.63 950.456 1539.65 Q947.719 1542.68 947.719 1547.9 L947.719 1568.04 L941.831 1568.04 L941.831 1518.52 L947.719 1518.52 L947.719 1537.93 Q949.82 1534.72 952.653 1533.13 Q955.517 1531.54 959.241 1531.54 Q965.384 1531.54 968.535 1535.36 Q971.686 1539.14 971.686 1546.53 Z" fill="#000000" fill-rule="nonzero" fill-opacity="1" /><path clip-path="url(#clip730)" d="M1013.86 1548.76 L1013.86 1551.62 L986.932 1551.62 Q987.314 1557.67 990.56 1560.85 Q993.839 1564 999.663 1564 Q1003.04 1564 1006.19 1563.17 Q1009.37 1562.35 1012.49 1560.69 L1012.49 1566.23 Q1009.34 1567.57 1006.03 1568.27 Q1002.72 1568.97 999.313 1568.97 Q990.783 1568.97 985.786 1564 Q980.821 1559.04 980.821 1550.57 Q980.821 1541.82 985.531 1536.69 Q990.274 1531.54 998.295 1531.54 Q1005.49 1531.54 1009.66 1536.18 Q1013.86 1540.8 1013.86 1548.76 M1008 1547.04 Q1007.94 1542.23 1005.3 1539.37 Q1002.69 1536.5 998.358 1536.5 Q993.457 1536.5 990.497 1539.27 Q987.568 1542.04 987.123 1547.07 L1008 1547.04 Z" fill="#000000" fill-rule="nonzero" fill-opacity="1" /><path clip-path="url(#clip730)" d="M1044.13 1537.87 Q1043.14 1537.3 1041.96 1537.04 Q1040.82 1536.76 1039.42 1536.76 Q1034.45 1536.76 1031.78 1540 Q1029.14 1543.22 1029.14 1549.27 L1029.14 1568.04 L1023.25 1568.04 L1023.25 1532.4 L1029.14 1532.4 L1029.14 1537.93 Q1030.98 1534.69 1033.94 1533.13 Q1036.9 1531.54 1041.14 1531.54 Q1041.74 1531.54 1042.47 1531.63 Q1043.2 1531.7 1044.1 1531.85 L1044.13 1537.87 Z" fill="#000000" fill-rule="nonzero" fill-opacity="1" /><path clip-path="url(#clip730)" d="M1050.27 1532.4 L1056.13 1532.4 L1056.13 1568.04 L1050.27 1568.04 L1050.27 1532.4 M1050.27 1518.52 L1056.13 1518.52 L1056.13 1525.93 L1050.27 1525.93 L1050.27 1518.52 Z" fill="#000000" fill-rule="nonzero" fill-opacity="1" /><path clip-path="url(#clip730)" d="M1094.03 1533.76 L1094.03 1539.24 Q1091.55 1537.87 1089.04 1537.2 Q1086.56 1536.5 1084.01 1536.5 Q1078.31 1536.5 1075.16 1540.13 Q1072.01 1543.73 1072.01 1550.25 Q1072.01 1556.78 1075.16 1560.4 Q1078.31 1564 1084.01 1564 Q1086.56 1564 1089.04 1563.33 Q1091.55 1562.63 1094.03 1561.26 L1094.03 1566.68 Q1091.58 1567.82 1088.94 1568.39 Q1086.33 1568.97 1083.37 1568.97 Q1075.32 1568.97 1070.58 1563.91 Q1065.83 1558.85 1065.83 1550.25 Q1065.83 1541.53 1070.61 1536.53 Q1075.42 1531.54 1083.75 1531.54 Q1086.46 1531.54 1089.04 1532.11 Q1091.62 1532.65 1094.03 1533.76 Z" fill="#000000" fill-rule="nonzero" fill-opacity="1" /><path clip-path="url(#clip730)" d="M1120.42 1550.12 Q1113.32 1550.12 1110.59 1551.75 Q1107.85 1553.37 1107.85 1557.29 Q1107.85 1560.4 1109.89 1562.25 Q1111.95 1564.07 1115.49 1564.07 Q1120.36 1564.07 1123.29 1560.63 Q1126.25 1557.16 1126.25 1551.43 L1126.25 1550.12 L1120.42 1550.12 M1132.1 1547.71 L1132.1 1568.04 L1126.25 1568.04 L1126.25 1562.63 Q1124.24 1565.88 1121.25 1567.44 Q1118.26 1568.97 1113.93 1568.97 Q1108.45 1568.97 1105.21 1565.91 Q1101.99 1562.82 1101.99 1557.67 Q1101.99 1551.65 1106 1548.6 Q1110.04 1545.54 1118.03 1545.54 L1126.25 1545.54 L1126.25 1544.97 Q1126.25 1540.93 1123.57 1538.73 Q1120.93 1536.5 1116.12 1536.5 Q1113.07 1536.5 1110.17 1537.23 Q1107.28 1537.97 1104.6 1539.43 L1104.6 1534.02 Q1107.82 1532.78 1110.84 1532.17 Q1113.86 1531.54 1116.73 1531.54 Q1124.46 1531.54 1128.28 1535.55 Q1132.1 1539.56 1132.1 1547.71 Z" fill="#000000" fill-rule="nonzero" fill-opacity="1" /><path clip-path="url(#clip730)" d="M1144.16 1518.52 L1150.02 1518.52 L1150.02 1568.04 L1144.16 1568.04 L1144.16 1518.52 Z" fill="#000000" fill-rule="nonzero" fill-opacity="1" /><path clip-path="url(#clip730)" d="M1189.36 1578.87 L1189.36 1583.42 L1155.5 1583.42 L1155.5 1578.87 L1189.36 1578.87 Z" fill="#000000" fill-rule="nonzero" fill-opacity="1" /><path clip-path="url(#clip730)" d="M1224.5 1546.53 L1224.5 1568.04 L1218.64 1568.04 L1218.64 1546.72 Q1218.64 1541.66 1216.67 1539.14 Q1214.7 1536.63 1210.75 1536.63 Q1206.01 1536.63 1203.27 1539.65 Q1200.53 1542.68 1200.53 1547.9 L1200.53 1568.04 L1194.64 1568.04 L1194.64 1518.52 L1200.53 1518.52 L1200.53 1537.93 Q1202.63 1534.72 1205.47 1533.13 Q1208.33 1531.54 1212.06 1531.54 Q1218.2 1531.54 1221.35 1535.36 Q1224.5 1539.14 1224.5 1546.53 Z" fill="#000000" fill-rule="nonzero" fill-opacity="1" /><path clip-path="url(#clip730)" d="M1252.38 1550.12 Q1245.28 1550.12 1242.55 1551.75 Q1239.81 1553.37 1239.81 1557.29 Q1239.81 1560.4 1241.85 1562.25 Q1243.92 1564.07 1247.45 1564.07 Q1252.32 1564.07 1255.25 1560.63 Q1258.21 1557.16 1258.21 1551.43 L1258.21 1550.12 L1252.38 1550.12 M1264.06 1547.71 L1264.06 1568.04 L1258.21 1568.04 L1258.21 1562.63 Q1256.2 1565.88 1253.21 1567.44 Q1250.22 1568.97 1245.89 1568.97 Q1240.41 1568.97 1237.17 1565.91 Q1233.95 1562.82 1233.95 1557.67 Q1233.95 1551.65 1237.96 1548.6 Q1242.01 1545.54 1249.99 1545.54 L1258.21 1545.54 L1258.21 1544.97 Q1258.21 1540.93 1255.53 1538.73 Q1252.89 1536.5 1248.09 1536.5 Q1245.03 1536.5 1242.13 1537.23 Q1239.24 1537.97 1236.56 1539.43 L1236.56 1534.02 Q1239.78 1532.78 1242.8 1532.17 Q1245.83 1531.54 1248.69 1531.54 Q1256.42 1531.54 1260.24 1535.55 Q1264.06 1539.56 1264.06 1547.71 Z" fill="#000000" fill-rule="nonzero" fill-opacity="1" /><path clip-path="url(#clip730)" d="M1296.78 1537.87 Q1295.8 1537.3 1294.62 1537.04 Q1293.47 1536.76 1292.07 1536.76 Q1287.11 1536.76 1284.43 1540 Q1281.79 1543.22 1281.79 1549.27 L1281.79 1568.04 L1275.9 1568.04 L1275.9 1532.4 L1281.79 1532.4 L1281.79 1537.93 Q1283.64 1534.69 1286.6 1533.13 Q1289.56 1531.54 1293.79 1531.54 Q1294.4 1531.54 1295.13 1531.63 Q1295.86 1531.7 1296.75 1531.85 L1296.78 1537.87 Z" fill="#000000" fill-rule="nonzero" fill-opacity="1" /><path clip-path="url(#clip730)" d="M1329.53 1539.24 Q1331.73 1535.29 1334.79 1533.41 Q1337.84 1531.54 1341.98 1531.54 Q1347.55 1531.54 1350.57 1535.45 Q1353.6 1539.33 1353.6 1546.53 L1353.6 1568.04 L1347.71 1568.04 L1347.71 1546.72 Q1347.71 1541.59 1345.89 1539.11 Q1344.08 1536.63 1340.36 1536.63 Q1335.8 1536.63 1333.16 1539.65 Q1330.52 1542.68 1330.52 1547.9 L1330.52 1568.04 L1324.63 1568.04 L1324.63 1546.72 Q1324.63 1541.56 1322.82 1539.11 Q1321 1536.63 1317.22 1536.63 Q1312.73 1536.63 1310.09 1539.68 Q1307.45 1542.71 1307.45 1547.9 L1307.45 1568.04 L1301.56 1568.04 L1301.56 1532.4 L1307.45 1532.4 L1307.45 1537.93 Q1309.45 1534.66 1312.25 1533.1 Q1315.05 1531.54 1318.9 1531.54 Q1322.79 1531.54 1325.49 1533.51 Q1328.23 1535.48 1329.53 1539.24 Z" fill="#000000" fill-rule="nonzero" fill-opacity="1" /><path clip-path="url(#clip730)" d="M1379.09 1536.5 Q1374.38 1536.5 1371.64 1540.19 Q1368.91 1543.85 1368.91 1550.25 Q1368.91 1556.65 1371.61 1560.34 Q1374.35 1564 1379.09 1564 Q1383.77 1564 1386.51 1560.31 Q1389.24 1556.62 1389.24 1550.25 Q1389.24 1543.92 1386.51 1540.23 Q1383.77 1536.5 1379.09 1536.5 M1379.09 1531.54 Q1386.73 1531.54 1391.09 1536.5 Q1395.45 1541.47 1395.45 1550.25 Q1395.45 1559 1391.09 1564 Q1386.73 1568.97 1379.09 1568.97 Q1371.42 1568.97 1367.06 1564 Q1362.73 1559 1362.73 1550.25 Q1362.73 1541.47 1367.06 1536.5 Q1371.42 1531.54 1379.09 1531.54 Z" fill="#000000" fill-rule="nonzero" fill-opacity="1" /><path clip-path="url(#clip730)" d="M1434.79 1546.53 L1434.79 1568.04 L1428.93 1568.04 L1428.93 1546.72 Q1428.93 1541.66 1426.96 1539.14 Q1424.99 1536.63 1421.04 1536.63 Q1416.3 1536.63 1413.56 1539.65 Q1410.82 1542.68 1410.82 1547.9 L1410.82 1568.04 L1404.94 1568.04 L1404.94 1532.4 L1410.82 1532.4 L1410.82 1537.93 Q1412.92 1534.72 1415.76 1533.13 Q1418.62 1531.54 1422.35 1531.54 Q1428.49 1531.54 1431.64 1535.36 Q1434.79 1539.14 1434.79 1546.53 Z" fill="#000000" fill-rule="nonzero" fill-opacity="1" /><path clip-path="url(#clip730)" d="M1446.47 1532.4 L1452.33 1532.4 L1452.33 1568.04 L1446.47 1568.04 L1446.47 1532.4 M1446.47 1518.52 L1452.33 1518.52 L1452.33 1525.93 L1446.47 1525.93 L1446.47 1518.52 Z" fill="#000000" fill-rule="nonzero" fill-opacity="1" /><path clip-path="url(#clip730)" d="M1490.24 1533.76 L1490.24 1539.24 Q1487.75 1537.87 1485.24 1537.2 Q1482.76 1536.5 1480.21 1536.5 Q1474.51 1536.5 1471.36 1540.13 Q1468.21 1543.73 1468.21 1550.25 Q1468.21 1556.78 1471.36 1560.4 Q1474.51 1564 1480.21 1564 Q1482.76 1564 1485.24 1563.33 Q1487.75 1562.63 1490.24 1561.26 L1490.24 1566.68 Q1487.79 1567.82 1485.14 1568.39 Q1482.53 1568.97 1479.57 1568.97 Q1471.52 1568.97 1466.78 1563.91 Q1462.04 1558.85 1462.04 1550.25 Q1462.04 1541.53 1466.81 1536.53 Q1471.62 1531.54 1479.96 1531.54 Q1482.66 1531.54 1485.24 1532.11 Q1487.82 1532.65 1490.24 1533.76 Z" fill="#000000" fill-rule="nonzero" fill-opacity="1" /><path clip-path="url(#clip730)" d="M1523.15 1533.45 L1523.15 1538.98 Q1520.66 1537.71 1517.99 1537.07 Q1515.32 1536.44 1512.45 1536.44 Q1508.09 1536.44 1505.9 1537.77 Q1503.73 1539.11 1503.73 1541.79 Q1503.73 1543.82 1505.29 1545 Q1506.85 1546.15 1511.56 1547.2 L1513.57 1547.64 Q1519.81 1548.98 1522.42 1551.43 Q1525.06 1553.85 1525.06 1558.21 Q1525.06 1563.17 1521.11 1566.07 Q1517.2 1568.97 1510.32 1568.97 Q1507.46 1568.97 1504.34 1568.39 Q1501.25 1567.85 1497.81 1566.74 L1497.81 1560.69 Q1501.06 1562.38 1504.21 1563.24 Q1507.36 1564.07 1510.45 1564.07 Q1514.59 1564.07 1516.81 1562.66 Q1519.04 1561.23 1519.04 1558.65 Q1519.04 1556.27 1517.42 1554.99 Q1515.83 1553.72 1510.38 1552.54 L1508.35 1552.07 Q1502.9 1550.92 1500.49 1548.56 Q1498.07 1546.18 1498.07 1542.04 Q1498.07 1537.01 1501.63 1534.27 Q1505.2 1531.54 1511.75 1531.54 Q1515 1531.54 1517.86 1532.01 Q1520.73 1532.49 1523.15 1533.45 Z" fill="#000000" fill-rule="nonzero" fill-opacity="1" /><path clip-path="url(#clip730)" d="M1568.92 1536.5 Q1564.21 1536.5 1561.47 1540.19 Q1558.73 1543.85 1558.73 1550.25 Q1558.73 1556.65 1561.44 1560.34 Q1564.17 1564 1568.92 1564 Q1573.6 1564 1576.33 1560.31 Q1579.07 1556.62 1579.07 1550.25 Q1579.07 1543.92 1576.33 1540.23 Q1573.6 1536.5 1568.92 1536.5 M1568.92 1531.54 Q1576.56 1531.54 1580.92 1536.5 Q1585.28 1541.47 1585.28 1550.25 Q1585.28 1559 1580.92 1564 Q1576.56 1568.97 1568.92 1568.97 Q1561.25 1568.97 1556.89 1564 Q1552.56 1559 1552.56 1550.25 Q1552.56 1541.47 1556.89 1536.5 Q1561.25 1531.54 1568.92 1531.54 Z" fill="#000000" fill-rule="nonzero" fill-opacity="1" /><path clip-path="url(#clip730)" d="M1615.64 1537.87 Q1614.65 1537.3 1613.48 1537.04 Q1612.33 1536.76 1610.93 1536.76 Q1605.97 1536.76 1603.29 1540 Q1600.65 1543.22 1600.65 1549.27 L1600.65 1568.04 L1594.76 1568.04 L1594.76 1532.4 L1600.65 1532.4 L1600.65 1537.93 Q1602.5 1534.69 1605.46 1533.13 Q1608.42 1531.54 1612.65 1531.54 Q1613.25 1531.54 1613.99 1531.63 Q1614.72 1531.7 1615.61 1531.85 L1615.64 1537.87 Z" fill="#000000" fill-rule="nonzero" fill-opacity="1" /><path clip-path="url(#clip730)" d="M1644.1 1537.81 L1644.1 1518.52 L1649.95 1518.52 L1649.95 1568.04 L1644.1 1568.04 L1644.1 1562.7 Q1642.25 1565.88 1639.42 1567.44 Q1636.62 1568.97 1632.67 1568.97 Q1626.21 1568.97 1622.13 1563.81 Q1618.09 1558.65 1618.09 1550.25 Q1618.09 1541.85 1622.13 1536.69 Q1626.21 1531.54 1632.67 1531.54 Q1636.62 1531.54 1639.42 1533.1 Q1642.25 1534.62 1644.1 1537.81 M1624.14 1550.25 Q1624.14 1556.71 1626.78 1560.4 Q1629.45 1564.07 1634.1 1564.07 Q1638.75 1564.07 1641.42 1560.4 Q1644.1 1556.71 1644.1 1550.25 Q1644.1 1543.79 1641.42 1540.13 Q1638.75 1536.44 1634.1 1536.44 Q1629.45 1536.44 1626.78 1540.13 Q1624.14 1543.79 1624.14 1550.25 Z" fill="#000000" fill-rule="nonzero" fill-opacity="1" /><path clip-path="url(#clip730)" d="M1692.51 1548.76 L1692.51 1551.62 L1665.58 1551.62 Q1665.96 1557.67 1669.21 1560.85 Q1672.49 1564 1678.31 1564 Q1681.69 1564 1684.84 1563.17 Q1688.02 1562.35 1691.14 1560.69 L1691.14 1566.23 Q1687.99 1567.57 1684.68 1568.27 Q1681.37 1568.97 1677.96 1568.97 Q1669.43 1568.97 1664.43 1564 Q1659.47 1559.04 1659.47 1550.57 Q1659.47 1541.82 1664.18 1536.69 Q1668.92 1531.54 1676.94 1531.54 Q1684.14 1531.54 1688.31 1536.18 Q1692.51 1540.8 1692.51 1548.76 M1686.65 1547.04 Q1686.59 1542.23 1683.94 1539.37 Q1681.34 1536.5 1677.01 1536.5 Q1672.1 1536.5 1669.14 1539.27 Q1666.22 1542.04 1665.77 1547.07 L1686.65 1547.04 Z" fill="#000000" fill-rule="nonzero" fill-opacity="1" /><path clip-path="url(#clip730)" d="M1722.78 1537.87 Q1721.79 1537.3 1720.61 1537.04 Q1719.47 1536.76 1718.07 1536.76 Q1713.1 1536.76 1710.43 1540 Q1707.78 1543.22 1707.78 1549.27 L1707.78 1568.04 L1701.9 1568.04 L1701.9 1532.4 L1707.78 1532.4 L1707.78 1537.93 Q1709.63 1534.69 1712.59 1533.13 Q1715.55 1531.54 1719.78 1531.54 Q1720.39 1531.54 1721.12 1531.63 Q1721.85 1531.7 1722.74 1531.85 L1722.78 1537.87 Z" fill="#000000" fill-rule="nonzero" fill-opacity="1" /><polyline clip-path="url(#clip732)" style="stroke:#000000; stroke-linecap:round; stroke-linejoin:round; stroke-width:2; stroke-opacity:0.1; fill:none" points="234.125,1391.4 2352.76,1391.4 "/>
<polyline clip-path="url(#clip732)" style="stroke:#000000; stroke-linecap:round; stroke-linejoin:round; stroke-width:2; stroke-opacity:0.1; fill:none" points="234.125,1019.07 2352.76,1019.07 "/>
<polyline clip-path="url(#clip732)" style="stroke:#000000; stroke-linecap:round; stroke-linejoin:round; stroke-width:2; stroke-opacity:0.1; fill:none" points="234.125,646.747 2352.76,646.747 "/>
<polyline clip-path="url(#clip732)" style="stroke:#000000; stroke-linecap:round; stroke-linejoin:round; stroke-width:2; stroke-opacity:0.1; fill:none" points="234.125,274.419 2352.76,274.419 "/>
<polyline clip-path="url(#clip730)" style="stroke:#000000; stroke-linecap:round; stroke-linejoin:round; stroke-width:4; stroke-opacity:1; fill:none" points="234.125,1423.18 234.125,149.392 "/>
<polyline clip-path="url(#clip730)" style="stroke:#000000; stroke-linecap:round; stroke-linejoin:round; stroke-width:4; stroke-opacity:1; fill:none" points="234.125,1391.4 253.023,1391.4 "/>
<polyline clip-path="url(#clip730)" style="stroke:#000000; stroke-linecap:round; stroke-linejoin:round; stroke-width:4; stroke-opacity:1; fill:none" points="234.125,1019.07 253.023,1019.07 "/>
<polyline clip-path="url(#clip730)" style="stroke:#000000; stroke-linecap:round; stroke-linejoin:round; stroke-width:4; stroke-opacity:1; fill:none" points="234.125,646.747 253.023,646.747 "/>
<polyline clip-path="url(#clip730)" style="stroke:#000000; stroke-linecap:round; stroke-linejoin:round; stroke-width:4; stroke-opacity:1; fill:none" points="234.125,274.419 253.023,274.419 "/>
<path clip-path="url(#clip730)" d="M186.181 1377.2 Q182.57 1377.2 180.741 1380.77 Q178.936 1384.31 178.936 1391.44 Q178.936 1398.54 180.741 1402.11 Q182.57 1405.65 186.181 1405.65 Q189.815 1405.65 191.621 1402.11 Q193.45 1398.54 193.45 1391.44 Q193.45 1384.31 191.621 1380.77 Q189.815 1377.2 186.181 1377.2 M186.181 1373.5 Q191.991 1373.5 195.047 1378.1 Q198.125 1382.69 198.125 1391.44 Q198.125 1400.16 195.047 1404.77 Q191.991 1409.35 186.181 1409.35 Q180.371 1409.35 177.292 1404.77 Q174.237 1400.16 174.237 1391.44 Q174.237 1382.69 177.292 1378.1 Q180.371 1373.5 186.181 1373.5 Z" fill="#000000" fill-rule="nonzero" fill-opacity="1" /><path clip-path="url(#clip730)" d="M116.668 1032.42 L124.306 1032.42 L124.306 1006.05 L115.996 1007.72 L115.996 1003.46 L124.26 1001.79 L128.936 1001.79 L128.936 1032.42 L136.575 1032.42 L136.575 1036.35 L116.668 1036.35 L116.668 1032.42 Z" fill="#000000" fill-rule="nonzero" fill-opacity="1" /><path clip-path="url(#clip730)" d="M156.019 1004.87 Q152.408 1004.87 150.579 1008.44 Q148.774 1011.98 148.774 1019.11 Q148.774 1026.22 150.579 1029.78 Q152.408 1033.32 156.019 1033.32 Q159.653 1033.32 161.459 1029.78 Q163.288 1026.22 163.288 1019.11 Q163.288 1011.98 161.459 1008.44 Q159.653 1004.87 156.019 1004.87 M156.019 1001.17 Q161.829 1001.17 164.885 1005.78 Q167.964 1010.36 167.964 1019.11 Q167.964 1027.84 164.885 1032.44 Q161.829 1037.03 156.019 1037.03 Q150.209 1037.03 147.13 1032.44 Q144.075 1027.84 144.075 1019.11 Q144.075 1010.36 147.13 1005.78 Q150.209 1001.17 156.019 1001.17 Z" fill="#000000" fill-rule="nonzero" fill-opacity="1" /><path clip-path="url(#clip730)" d="M186.181 1004.87 Q182.57 1004.87 180.741 1008.44 Q178.936 1011.98 178.936 1019.11 Q178.936 1026.22 180.741 1029.78 Q182.57 1033.32 186.181 1033.32 Q189.815 1033.32 191.621 1029.78 Q193.45 1026.22 193.45 1019.11 Q193.45 1011.98 191.621 1008.44 Q189.815 1004.87 186.181 1004.87 M186.181 1001.17 Q191.991 1001.17 195.047 1005.78 Q198.125 1010.36 198.125 1019.11 Q198.125 1027.84 195.047 1032.44 Q191.991 1037.03 186.181 1037.03 Q180.371 1037.03 177.292 1032.44 Q174.237 1027.84 174.237 1019.11 Q174.237 1010.36 177.292 1005.78 Q180.371 1001.17 186.181 1001.17 Z" fill="#000000" fill-rule="nonzero" fill-opacity="1" /><path clip-path="url(#clip730)" d="M119.885 660.092 L136.204 660.092 L136.204 664.027 L114.26 664.027 L114.26 660.092 Q116.922 657.337 121.505 652.707 Q126.112 648.055 127.292 646.712 Q129.538 644.189 130.417 642.453 Q131.32 640.694 131.32 639.004 Q131.32 636.249 129.376 634.513 Q127.455 632.777 124.353 632.777 Q122.154 632.777 119.7 633.541 Q117.269 634.305 114.492 635.856 L114.492 631.134 Q117.316 629.999 119.769 629.421 Q122.223 628.842 124.26 628.842 Q129.63 628.842 132.825 631.527 Q136.019 634.212 136.019 638.703 Q136.019 640.833 135.209 642.754 Q134.422 644.652 132.316 647.245 Q131.737 647.916 128.635 651.133 Q125.533 654.328 119.885 660.092 Z" fill="#000000" fill-rule="nonzero" fill-opacity="1" /><path clip-path="url(#clip730)" d="M156.019 632.546 Q152.408 632.546 150.579 636.11 Q148.774 639.652 148.774 646.782 Q148.774 653.888 150.579 657.453 Q152.408 660.994 156.019 660.994 Q159.653 660.994 161.459 657.453 Q163.288 653.888 163.288 646.782 Q163.288 639.652 161.459 636.11 Q159.653 632.546 156.019 632.546 M156.019 628.842 Q161.829 628.842 164.885 633.448 Q167.964 638.032 167.964 646.782 Q167.964 655.508 164.885 660.115 Q161.829 664.698 156.019 664.698 Q150.209 664.698 147.13 660.115 Q144.075 655.508 144.075 646.782 Q144.075 638.032 147.13 633.448 Q150.209 628.842 156.019 628.842 Z" fill="#000000" fill-rule="nonzero" fill-opacity="1" /><path clip-path="url(#clip730)" d="M186.181 632.546 Q182.57 632.546 180.741 636.11 Q178.936 639.652 178.936 646.782 Q178.936 653.888 180.741 657.453 Q182.57 660.994 186.181 660.994 Q189.815 660.994 191.621 657.453 Q193.45 653.888 193.45 646.782 Q193.45 639.652 191.621 636.11 Q189.815 632.546 186.181 632.546 M186.181 628.842 Q191.991 628.842 195.047 633.448 Q198.125 638.032 198.125 646.782 Q198.125 655.508 195.047 660.115 Q191.991 664.698 186.181 664.698 Q180.371 664.698 177.292 660.115 Q174.237 655.508 174.237 646.782 Q174.237 638.032 177.292 633.448 Q180.371 628.842 186.181 628.842 Z" fill="#000000" fill-rule="nonzero" fill-opacity="1" /><path clip-path="url(#clip730)" d="M130.024 273.065 Q133.38 273.782 135.255 276.051 Q137.154 278.319 137.154 281.653 Q137.154 286.768 133.635 289.569 Q130.117 292.37 123.635 292.37 Q121.459 292.37 119.144 291.93 Q116.853 291.514 114.399 290.657 L114.399 286.143 Q116.343 287.278 118.658 287.856 Q120.973 288.435 123.496 288.435 Q127.894 288.435 130.186 286.699 Q132.501 284.963 132.501 281.653 Q132.501 278.597 130.348 276.884 Q128.218 275.148 124.399 275.148 L120.371 275.148 L120.371 271.305 L124.584 271.305 Q128.033 271.305 129.862 269.94 Q131.691 268.551 131.691 265.958 Q131.691 263.296 129.792 261.884 Q127.917 260.449 124.399 260.449 Q122.478 260.449 120.279 260.866 Q118.08 261.282 115.441 262.162 L115.441 257.995 Q118.103 257.255 120.418 256.884 Q122.755 256.514 124.816 256.514 Q130.14 256.514 133.242 258.944 Q136.343 261.352 136.343 265.472 Q136.343 268.343 134.7 270.333 Q133.056 272.301 130.024 273.065 Z" fill="#000000" fill-rule="nonzero" fill-opacity="1" /><path clip-path="url(#clip730)" d="M156.019 260.218 Q152.408 260.218 150.579 263.782 Q148.774 267.324 148.774 274.454 Q148.774 281.56 150.579 285.125 Q152.408 288.667 156.019 288.667 Q159.653 288.667 161.459 285.125 Q163.288 281.56 163.288 274.454 Q163.288 267.324 161.459 263.782 Q159.653 260.218 156.019 260.218 M156.019 256.514 Q161.829 256.514 164.885 261.12 Q167.964 265.704 167.964 274.454 Q167.964 283.18 164.885 287.787 Q161.829 292.37 156.019 292.37 Q150.209 292.37 147.13 287.787 Q144.075 283.18 144.075 274.454 Q144.075 265.704 147.13 261.12 Q150.209 256.514 156.019 256.514 Z" fill="#000000" fill-rule="nonzero" fill-opacity="1" /><path clip-path="url(#clip730)" d="M186.181 260.218 Q182.57 260.218 180.741 263.782 Q178.936 267.324 178.936 274.454 Q178.936 281.56 180.741 285.125 Q182.57 288.667 186.181 288.667 Q189.815 288.667 191.621 285.125 Q193.45 281.56 193.45 274.454 Q193.45 267.324 191.621 263.782 Q189.815 260.218 186.181 260.218 M186.181 256.514 Q191.991 256.514 195.047 261.12 Q198.125 265.704 198.125 274.454 Q198.125 283.18 195.047 287.787 Q191.991 292.37 186.181 292.37 Q180.371 292.37 177.292 287.787 Q174.237 283.18 174.237 274.454 Q174.237 265.704 177.292 261.12 Q180.371 256.514 186.181 256.514 Z" fill="#000000" fill-rule="nonzero" fill-opacity="1" /><path clip-path="url(#clip730)" d="M41.7242 842.447 Q42.4244 840.379 44.7161 838.437 Q47.0077 836.464 51.0181 834.49 L64.0042 827.965 L64.0042 834.872 L51.8138 840.951 Q47.0395 843.307 45.48 845.535 Q43.9204 847.731 43.9204 851.55 L43.9204 858.553 L64.0042 858.553 L64.0042 864.982 L16.4842 864.982 L16.4842 850.468 Q16.4842 842.32 19.8898 838.31 Q23.2955 834.299 30.1704 834.299 Q34.6582 834.299 37.6183 836.4 Q40.5784 838.469 41.7242 842.447 M21.7677 858.553 L38.6368 858.553 L38.6368 850.468 Q38.6368 845.821 36.5043 843.466 Q34.34 841.079 30.1704 841.079 Q26.0009 841.079 23.9002 843.466 Q21.7677 845.821 21.7677 850.468 L21.7677 858.553 Z" fill="#000000" fill-rule="nonzero" fill-opacity="1" /><path clip-path="url(#clip730)" d="M46.0847 805.176 Q46.0847 812.274 47.7079 815.011 Q49.3312 817.748 53.2461 817.748 Q56.3653 817.748 58.2114 815.711 Q60.0256 813.643 60.0256 810.11 Q60.0256 805.24 56.5881 802.312 Q53.1188 799.352 47.3897 799.352 L46.0847 799.352 L46.0847 805.176 M43.6657 793.495 L64.0042 793.495 L64.0042 799.352 L58.5933 799.352 Q61.8398 801.357 63.3994 804.349 Q64.9272 807.341 64.9272 811.669 Q64.9272 817.144 61.8716 820.39 Q58.7843 823.605 53.6281 823.605 Q47.6125 823.605 44.5569 819.595 Q41.5014 815.552 41.5014 807.563 L41.5014 799.352 L40.9285 799.352 Q36.8862 799.352 34.6901 802.025 Q32.4621 804.667 32.4621 809.473 Q32.4621 812.529 33.1941 815.425 Q33.9262 818.321 35.3903 820.995 L29.9795 820.995 Q28.7381 817.78 28.1334 814.757 Q27.4968 811.733 27.4968 808.868 Q27.4968 801.134 31.5072 797.315 Q35.5176 793.495 43.6657 793.495 Z" fill="#000000" fill-rule="nonzero" fill-opacity="1" /><path clip-path="url(#clip730)" d="M18.2347 775.639 L28.3562 775.639 L28.3562 763.576 L32.9077 763.576 L32.9077 775.639 L52.2594 775.639 Q56.6199 775.639 57.8613 774.462 Q59.1026 773.252 59.1026 769.592 L59.1026 763.576 L64.0042 763.576 L64.0042 769.592 Q64.0042 776.371 61.4897 778.95 Q58.9434 781.528 52.2594 781.528 L32.9077 781.528 L32.9077 785.824 L28.3562 785.824 L28.3562 781.528 L18.2347 781.528 L18.2347 775.639 Z" fill="#000000" fill-rule="nonzero" fill-opacity="1" /><path clip-path="url(#clip730)" d="M28.3562 755.874 L28.3562 750.017 L64.0042 750.017 L64.0042 755.874 L28.3562 755.874 M14.479 755.874 L14.479 750.017 L21.895 750.017 L21.895 755.874 L14.479 755.874 Z" fill="#000000" fill-rule="nonzero" fill-opacity="1" /><path clip-path="url(#clip730)" d="M32.4621 723.95 Q32.4621 728.66 36.1542 731.398 Q39.8145 734.135 46.212 734.135 Q52.6095 734.135 56.3017 731.43 Q59.9619 728.692 59.9619 723.95 Q59.9619 719.271 56.2698 716.534 Q52.5777 713.796 46.212 713.796 Q39.8781 713.796 36.186 716.534 Q32.4621 719.271 32.4621 723.95 M27.4968 723.95 Q27.4968 716.311 32.4621 711.95 Q37.4273 707.59 46.212 707.59 Q54.9649 707.59 59.9619 711.95 Q64.9272 716.311 64.9272 723.95 Q64.9272 731.62 59.9619 735.981 Q54.9649 740.31 46.212 740.31 Q37.4273 740.31 32.4621 735.981 Q27.4968 731.62 27.4968 723.95 Z" fill="#000000" fill-rule="nonzero" fill-opacity="1" /><path clip-path="url(#clip730)" d="M834.415 23.76 L870.96 23.76 L870.96 28.679 L855.625 28.679 L855.625 66.96 L849.751 66.96 L849.751 28.679 L834.415 28.679 L834.415 23.76 Z" fill="#000000" fill-rule="nonzero" fill-opacity="1" /><path clip-path="url(#clip730)" d="M874.548 34.5528 L879.872 34.5528 L879.872 66.96 L874.548 66.96 L874.548 34.5528 M874.548 21.9371 L879.872 21.9371 L879.872 28.679 L874.548 28.679 L874.548 21.9371 Z" fill="#000000" fill-rule="nonzero" fill-opacity="1" /><path clip-path="url(#clip730)" d="M916.244 40.7738 Q918.24 37.1859 921.018 35.4787 Q923.796 33.7715 927.557 33.7715 Q932.621 33.7715 935.37 37.3305 Q938.119 40.8606 938.119 47.3999 L938.119 66.96 L932.766 66.96 L932.766 47.5735 Q932.766 42.915 931.116 40.6581 Q929.467 38.4011 926.082 38.4011 Q921.944 38.4011 919.542 41.15 Q917.141 43.8988 917.141 48.6441 L917.141 66.96 L911.788 66.96 L911.788 47.5735 Q911.788 42.8861 910.138 40.6581 Q908.489 38.4011 905.046 38.4011 Q900.966 38.4011 898.564 41.1789 Q896.163 43.9277 896.163 48.6441 L896.163 66.96 L890.81 66.96 L890.81 34.5528 L896.163 34.5528 L896.163 39.5875 Q897.986 36.6072 900.532 35.1893 Q903.078 33.7715 906.579 33.7715 Q910.109 33.7715 912.569 35.5655 Q915.057 37.3595 916.244 40.7738 Z" fill="#000000" fill-rule="nonzero" fill-opacity="1" /><path clip-path="url(#clip730)" d="M976.457 49.4254 L976.457 52.0295 L951.978 52.0295 Q952.326 57.5272 955.277 60.4207 Q958.257 63.2853 963.552 63.2853 Q966.62 63.2853 969.484 62.5329 Q972.378 61.7806 975.213 60.276 L975.213 65.3107 Q972.349 66.526 969.339 67.1625 Q966.33 67.7991 963.234 67.7991 Q955.48 67.7991 950.937 63.2853 Q946.423 58.7714 946.423 51.0747 Q946.423 43.1175 950.705 38.459 Q955.017 33.7715 962.308 33.7715 Q968.848 33.7715 972.638 37.996 Q976.457 42.1916 976.457 49.4254 M971.133 47.8629 Q971.076 43.4937 968.674 40.8895 Q966.301 38.2854 962.366 38.2854 Q957.91 38.2854 955.219 40.8027 Q952.557 43.3201 952.152 47.8918 L971.133 47.8629 Z" fill="#000000" fill-rule="nonzero" fill-opacity="1" /><path clip-path="url(#clip730)" d="M1022.81 39.5296 Q1021.91 39.0088 1020.84 38.7773 Q1019.8 38.5169 1018.53 38.5169 Q1014.02 38.5169 1011.58 41.4682 Q1009.18 44.3907 1009.18 49.8883 L1009.18 66.96 L1003.83 66.96 L1003.83 34.5528 L1009.18 34.5528 L1009.18 39.5875 Q1010.86 36.6361 1013.55 35.2183 Q1016.24 33.7715 1020.09 33.7715 Q1020.64 33.7715 1021.31 33.8583 Q1021.97 33.9162 1022.78 34.0609 L1022.81 39.5296 Z" fill="#000000" fill-rule="nonzero" fill-opacity="1" /><path clip-path="url(#clip730)" d="M1043.12 50.6696 Q1036.67 50.6696 1034.18 52.1453 Q1031.69 53.621 1031.69 57.18 Q1031.69 60.0156 1033.55 61.6938 Q1035.43 63.3431 1038.64 63.3431 Q1043.07 63.3431 1045.73 60.2181 Q1048.42 57.0642 1048.42 51.8559 L1048.42 50.6696 L1043.12 50.6696 M1053.74 48.4705 L1053.74 66.96 L1048.42 66.96 L1048.42 62.041 Q1046.6 64.9924 1043.88 66.4102 Q1041.16 67.7991 1037.22 67.7991 Q1032.24 67.7991 1029.29 65.0214 Q1026.37 62.2147 1026.37 57.5272 Q1026.37 52.0585 1030.02 49.2807 Q1033.69 46.5029 1040.95 46.5029 L1048.42 46.5029 L1048.42 45.9821 Q1048.42 42.3074 1045.99 40.3108 Q1043.59 38.2854 1039.22 38.2854 Q1036.44 38.2854 1033.81 38.9509 Q1031.17 39.6164 1028.74 40.9474 L1028.74 36.0285 Q1031.67 34.9 1034.41 34.3502 Q1037.16 33.7715 1039.77 33.7715 Q1046.8 33.7715 1050.27 37.4173 Q1053.74 41.0631 1053.74 48.4705 Z" fill="#000000" fill-rule="nonzero" fill-opacity="1" /><path clip-path="url(#clip730)" d="M1069.98 25.3514 L1069.98 34.5528 L1080.94 34.5528 L1080.94 38.6905 L1069.98 38.6905 L1069.98 56.283 Q1069.98 60.2471 1071.05 61.3755 Q1072.15 62.504 1075.47 62.504 L1080.94 62.504 L1080.94 66.96 L1075.47 66.96 Q1069.31 66.96 1066.97 64.6741 Q1064.62 62.3593 1064.62 56.283 L1064.62 38.6905 L1060.72 38.6905 L1060.72 34.5528 L1064.62 34.5528 L1064.62 25.3514 L1069.98 25.3514 Z" fill="#000000" fill-rule="nonzero" fill-opacity="1" /><path clip-path="url(#clip730)" d="M1087.94 34.5528 L1093.27 34.5528 L1093.27 66.96 L1087.94 66.96 L1087.94 34.5528 M1087.94 21.9371 L1093.27 21.9371 L1093.27 28.679 L1087.94 28.679 L1087.94 21.9371 Z" fill="#000000" fill-rule="nonzero" fill-opacity="1" /><path clip-path="url(#clip730)" d="M1116.97 38.2854 Q1112.68 38.2854 1110.2 41.6418 Q1107.71 44.9694 1107.71 50.7853 Q1107.71 56.6013 1110.17 59.9577 Q1112.65 63.2853 1116.97 63.2853 Q1121.22 63.2853 1123.71 59.9288 Q1126.2 56.5723 1126.2 50.7853 Q1126.2 45.0272 1123.71 41.6708 Q1121.22 38.2854 1116.97 38.2854 M1116.97 33.7715 Q1123.91 33.7715 1127.87 38.2854 Q1131.84 42.7992 1131.84 50.7853 Q1131.84 58.7425 1127.87 63.2853 Q1123.91 67.7991 1116.97 67.7991 Q1109.99 67.7991 1106.03 63.2853 Q1102.09 58.7425 1102.09 50.7853 Q1102.09 42.7992 1106.03 38.2854 Q1109.99 33.7715 1116.97 33.7715 Z" fill="#000000" fill-rule="nonzero" fill-opacity="1" /><path clip-path="url(#clip730)" d="M1142.02 59.6105 L1148.13 59.6105 L1148.13 64.5873 L1143.38 73.8465 L1139.65 73.8465 L1142.02 64.5873 L1142.02 59.6105 Z" fill="#000000" fill-rule="nonzero" fill-opacity="1" /><path clip-path="url(#clip730)" d="M1204.47 25.1778 L1204.47 30.878 Q1201.14 29.2866 1198.19 28.5053 Q1195.24 27.7241 1192.49 27.7241 Q1187.71 27.7241 1185.11 29.5759 Q1182.53 31.4278 1182.53 34.8421 Q1182.53 37.7067 1184.24 39.1824 Q1185.98 40.6291 1190.78 41.5261 L1194.31 42.2495 Q1200.85 43.4937 1203.94 46.6476 Q1207.07 49.7726 1207.07 55.0388 Q1207.07 61.3177 1202.85 64.5584 Q1198.65 67.7991 1190.52 67.7991 Q1187.45 67.7991 1183.98 67.1047 Q1180.54 66.4102 1176.83 65.0503 L1176.83 59.0318 Q1180.39 61.0283 1183.81 62.041 Q1187.22 63.0538 1190.52 63.0538 Q1195.52 63.0538 1198.24 61.0862 Q1200.96 59.1186 1200.96 55.4728 Q1200.96 52.2899 1199 50.496 Q1197.06 48.702 1192.6 47.805 L1189.04 47.1106 Q1182.5 45.8085 1179.58 43.0307 Q1176.66 40.253 1176.66 35.3051 Q1176.66 29.5759 1180.68 26.2773 Q1184.73 22.9788 1191.82 22.9788 Q1194.86 22.9788 1198.01 23.5285 Q1201.17 24.0783 1204.47 25.1778 Z" fill="#000000" fill-rule="nonzero" fill-opacity="1" /><path clip-path="url(#clip730)" d="M1229.44 69.9692 Q1227.18 75.7562 1225.04 77.5213 Q1222.9 79.2863 1219.31 79.2863 L1215.06 79.2863 L1215.06 74.8303 L1218.18 74.8303 Q1220.38 74.8303 1221.59 73.7887 Q1222.81 72.747 1224.29 68.8697 L1225.24 66.4392 L1212.13 34.5528 L1217.78 34.5528 L1227.9 59.8999 L1238.03 34.5528 L1243.67 34.5528 L1229.44 69.9692 Z" fill="#000000" fill-rule="nonzero" fill-opacity="1" /><path clip-path="url(#clip730)" d="M1276.25 40.7738 Q1278.25 37.1859 1281.03 35.4787 Q1283.81 33.7715 1287.57 33.7715 Q1292.63 33.7715 1295.38 37.3305 Q1298.13 40.8606 1298.13 47.3999 L1298.13 66.96 L1292.78 66.96 L1292.78 47.5735 Q1292.78 42.915 1291.13 40.6581 Q1289.48 38.4011 1286.09 38.4011 Q1281.95 38.4011 1279.55 41.15 Q1277.15 43.8988 1277.15 48.6441 L1277.15 66.96 L1271.8 66.96 L1271.8 47.5735 Q1271.8 42.8861 1270.15 40.6581 Q1268.5 38.4011 1265.06 38.4011 Q1260.98 38.4011 1258.57 41.1789 Q1256.17 43.9277 1256.17 48.6441 L1256.17 66.96 L1250.82 66.96 L1250.82 34.5528 L1256.17 34.5528 L1256.17 39.5875 Q1258 36.6072 1260.54 35.1893 Q1263.09 33.7715 1266.59 33.7715 Q1270.12 33.7715 1272.58 35.5655 Q1275.07 37.3595 1276.25 40.7738 Z" fill="#000000" fill-rule="nonzero" fill-opacity="1" /><path clip-path="url(#clip730)" d="M1332.01 50.7853 Q1332.01 44.9115 1329.58 41.584 Q1327.18 38.2275 1322.95 38.2275 Q1318.73 38.2275 1316.3 41.584 Q1313.9 44.9115 1313.9 50.7853 Q1313.9 56.6591 1316.3 60.0156 Q1318.73 63.3431 1322.95 63.3431 Q1327.18 63.3431 1329.58 60.0156 Q1332.01 56.6591 1332.01 50.7853 M1313.9 39.4717 Q1315.58 36.5782 1318.12 35.1893 Q1320.7 33.7715 1324.26 33.7715 Q1330.16 33.7715 1333.83 38.459 Q1337.54 43.1465 1337.54 50.7853 Q1337.54 58.4242 1333.83 63.1116 Q1330.16 67.7991 1324.26 67.7991 Q1320.7 67.7991 1318.12 66.4102 Q1315.58 64.9924 1313.9 62.0989 L1313.9 66.96 L1308.54 66.96 L1308.54 21.9371 L1313.9 21.9371 L1313.9 39.4717 Z" fill="#000000" fill-rule="nonzero" fill-opacity="1" /><path clip-path="url(#clip730)" d="M1358.92 38.2854 Q1354.64 38.2854 1352.15 41.6418 Q1349.66 44.9694 1349.66 50.7853 Q1349.66 56.6013 1352.12 59.9577 Q1354.61 63.2853 1358.92 63.2853 Q1363.17 63.2853 1365.66 59.9288 Q1368.15 56.5723 1368.15 50.7853 Q1368.15 45.0272 1365.66 41.6708 Q1363.17 38.2854 1358.92 38.2854 M1358.92 33.7715 Q1365.87 33.7715 1369.83 38.2854 Q1373.79 42.7992 1373.79 50.7853 Q1373.79 58.7425 1369.83 63.2853 Q1365.87 67.7991 1358.92 67.7991 Q1351.95 67.7991 1347.98 63.2853 Q1344.05 58.7425 1344.05 50.7853 Q1344.05 42.7992 1347.98 38.2854 Q1351.95 33.7715 1358.92 33.7715 Z" fill="#000000" fill-rule="nonzero" fill-opacity="1" /><path clip-path="url(#clip730)" d="M1382.62 21.9371 L1387.94 21.9371 L1387.94 66.96 L1382.62 66.96 L1382.62 21.9371 Z" fill="#000000" fill-rule="nonzero" fill-opacity="1" /><path clip-path="url(#clip730)" d="M1399.08 34.5528 L1404.41 34.5528 L1404.41 66.96 L1399.08 66.96 L1399.08 34.5528 M1399.08 21.9371 L1404.41 21.9371 L1404.41 28.679 L1399.08 28.679 L1399.08 21.9371 Z" fill="#000000" fill-rule="nonzero" fill-opacity="1" /><path clip-path="url(#clip730)" d="M1438.87 35.797 L1438.87 40.7738 Q1436.61 39.5296 1434.33 38.922 Q1432.07 38.2854 1429.75 38.2854 Q1424.57 38.2854 1421.71 41.584 Q1418.85 44.8536 1418.85 50.7853 Q1418.85 56.717 1421.71 60.0156 Q1424.57 63.2853 1429.75 63.2853 Q1432.07 63.2853 1434.33 62.6776 Q1436.61 62.041 1438.87 60.7968 L1438.87 65.7158 Q1436.64 66.7575 1434.24 67.2783 Q1431.87 67.7991 1429.17 67.7991 Q1421.85 67.7991 1417.54 63.1984 Q1413.23 58.5978 1413.23 50.7853 Q1413.23 42.8571 1417.57 38.3143 Q1421.94 33.7715 1429.52 33.7715 Q1431.98 33.7715 1434.33 34.2924 Q1436.67 34.7842 1438.87 35.797 Z" fill="#000000" fill-rule="nonzero" fill-opacity="1" /><path clip-path="url(#clip730)" d="M1468.79 35.5076 L1468.79 40.5423 Q1466.53 39.3849 1464.1 38.8062 Q1461.67 38.2275 1459.06 38.2275 Q1455.1 38.2275 1453.1 39.4428 Q1451.14 40.6581 1451.14 43.0886 Q1451.14 44.9404 1452.55 46.011 Q1453.97 47.0527 1458.25 48.0076 L1460.08 48.4126 Q1465.75 49.6279 1468.12 51.8559 Q1470.52 54.055 1470.52 58.0191 Q1470.52 62.5329 1466.94 65.166 Q1463.38 67.7991 1457.13 67.7991 Q1454.52 67.7991 1451.69 67.2783 Q1448.88 66.7864 1445.75 65.7737 L1445.75 60.276 Q1448.71 61.8096 1451.57 62.5908 Q1454.44 63.3431 1457.24 63.3431 Q1461 63.3431 1463.03 62.07 Q1465.05 60.7679 1465.05 58.4242 Q1465.05 56.254 1463.58 55.0966 Q1462.13 53.9392 1457.18 52.8686 L1455.33 52.4346 Q1450.38 51.393 1448.19 49.2518 Q1445.99 47.0816 1445.99 43.3201 Q1445.99 38.7483 1449.23 36.2599 Q1452.47 33.7715 1458.43 33.7715 Q1461.38 33.7715 1463.98 34.2055 Q1466.59 34.6396 1468.79 35.5076 Z" fill="#000000" fill-rule="nonzero" fill-opacity="1" /><path clip-path="url(#clip730)" d="M1488.46 23.76 L1493.38 23.76 L1478.34 72.4577 L1473.42 72.4577 L1488.46 23.76 Z" fill="#000000" fill-rule="nonzero" fill-opacity="1" /><path clip-path="url(#clip730)" d="M1499.2 23.76 L1524.02 23.76 L1524.02 28.679 L1505.04 28.679 L1505.04 41.4104 L1522.17 41.4104 L1522.17 46.3293 L1505.04 46.3293 L1505.04 66.96 L1499.2 66.96 L1499.2 23.76 Z" fill="#000000" fill-rule="nonzero" fill-opacity="1" /><path clip-path="url(#clip730)" d="M1558.14 25.1778 L1558.14 30.878 Q1554.81 29.2866 1551.86 28.5053 Q1548.91 27.7241 1546.16 27.7241 Q1541.38 27.7241 1538.78 29.5759 Q1536.21 31.4278 1536.21 34.8421 Q1536.21 37.7067 1537.91 39.1824 Q1539.65 40.6291 1544.45 41.5261 L1547.98 42.2495 Q1554.52 43.4937 1557.62 46.6476 Q1560.74 49.7726 1560.74 55.0388 Q1560.74 61.3177 1556.52 64.5584 Q1552.32 67.7991 1544.19 67.7991 Q1541.12 67.7991 1537.65 67.1047 Q1534.21 66.4102 1530.51 65.0503 L1530.51 59.0318 Q1534.06 61.0283 1537.48 62.041 Q1540.89 63.0538 1544.19 63.0538 Q1549.2 63.0538 1551.92 61.0862 Q1554.64 59.1186 1554.64 55.4728 Q1554.64 52.2899 1552.67 50.496 Q1550.73 48.702 1546.27 47.805 L1542.72 47.1106 Q1536.18 45.8085 1533.25 43.0307 Q1530.33 40.253 1530.33 35.3051 Q1530.33 29.5759 1534.35 26.2773 Q1538.4 22.9788 1545.49 22.9788 Q1548.53 22.9788 1551.69 23.5285 Q1554.84 24.0783 1558.14 25.1778 Z" fill="#000000" fill-rule="nonzero" fill-opacity="1" /><path clip-path="url(#clip730)" d="M1575.7 28.5632 L1575.7 62.1568 L1582.76 62.1568 Q1591.7 62.1568 1595.84 58.1059 Q1600.01 54.055 1600.01 45.3166 Q1600.01 36.6361 1595.84 32.6141 Q1591.7 28.5632 1582.76 28.5632 L1575.7 28.5632 M1569.86 23.76 L1581.87 23.76 Q1594.42 23.76 1600.3 28.9972 Q1606.17 34.2055 1606.17 45.3166 Q1606.17 56.4855 1600.27 61.7228 Q1594.36 66.96 1581.87 66.96 L1569.86 66.96 L1569.86 23.76 Z" fill="#000000" fill-rule="nonzero" fill-opacity="1" /><path clip-path="url(#clip730)" d="M1616.62 59.6105 L1622.72 59.6105 L1622.72 66.96 L1616.62 66.96 L1616.62 59.6105 M1616.62 36.3178 L1622.72 36.3178 L1622.72 43.6673 L1616.62 43.6673 L1616.62 36.3178 Z" fill="#000000" fill-rule="nonzero" fill-opacity="1" /><path clip-path="url(#clip730)" d="M1654.29 23.76 L1681.6 23.76 L1681.6 28.679 L1660.13 28.679 L1660.13 41.4682 L1680.71 41.4682 L1680.71 46.3872 L1660.13 46.3872 L1660.13 62.041 L1682.12 62.041 L1682.12 66.96 L1654.29 66.96 L1654.29 23.76 Z" fill="#000000" fill-rule="nonzero" fill-opacity="1" /><path clip-path="url(#clip730)" d="M1718.44 34.5528 L1706.72 50.3224 L1719.05 66.96 L1712.77 66.96 L1703.33 54.2286 L1693.9 66.96 L1687.62 66.96 L1700.21 50.0041 L1688.69 34.5528 L1694.97 34.5528 L1703.57 46.0978 L1712.16 34.5528 L1718.44 34.5528 Z" fill="#000000" fill-rule="nonzero" fill-opacity="1" /><path clip-path="url(#clip730)" d="M1752.47 49.4254 L1752.47 52.0295 L1727.99 52.0295 Q1728.33 57.5272 1731.29 60.4207 Q1734.27 63.2853 1739.56 63.2853 Q1742.63 63.2853 1745.49 62.5329 Q1748.39 61.7806 1751.22 60.276 L1751.22 65.3107 Q1748.36 66.526 1745.35 67.1625 Q1742.34 67.7991 1739.24 67.7991 Q1731.49 67.7991 1726.95 63.2853 Q1722.43 58.7714 1722.43 51.0747 Q1722.43 43.1175 1726.71 38.459 Q1731.03 33.7715 1738.32 33.7715 Q1744.86 33.7715 1748.65 37.996 Q1752.47 42.1916 1752.47 49.4254 M1747.14 47.8629 Q1747.08 43.4937 1744.68 40.8895 Q1742.31 38.2854 1738.37 38.2854 Q1733.92 38.2854 1731.23 40.8027 Q1728.57 43.3201 1728.16 47.8918 L1747.14 47.8629 Z" fill="#000000" fill-rule="nonzero" fill-opacity="1" /><path clip-path="url(#clip730)" d="M1016.04 100.308 L1016.04 105.342 Q1013.78 104.185 1011.35 103.606 Q1008.92 103.028 1006.32 103.028 Q1002.35 103.028 1000.36 104.243 Q998.39 105.458 998.39 107.889 Q998.39 109.74 999.808 110.811 Q1001.23 111.853 1005.51 112.808 L1007.33 113.213 Q1013 114.428 1015.38 116.656 Q1017.78 118.855 1017.78 122.819 Q1017.78 127.333 1014.19 129.966 Q1010.63 132.599 1004.38 132.599 Q1001.78 132.599 998.94 132.078 Q996.133 131.586 993.008 130.574 L993.008 125.076 Q995.96 126.61 998.824 127.391 Q1001.69 128.143 1004.5 128.143 Q1008.26 128.143 1010.28 126.87 Q1012.31 125.568 1012.31 123.224 Q1012.31 121.054 1010.83 119.897 Q1009.39 118.739 1004.44 117.669 L1002.59 117.235 Q997.638 116.193 995.439 114.052 Q993.24 111.882 993.24 108.12 Q993.24 103.548 996.48 101.06 Q999.721 98.5715 1005.68 98.5715 Q1008.63 98.5715 1011.24 99.0055 Q1013.84 99.4396 1016.04 100.308 Z" fill="#000000" fill-rule="nonzero" fill-opacity="1" /><path clip-path="url(#clip730)" d="M1031.41 126.899 L1031.41 144.086 L1026.05 144.086 L1026.05 99.3528 L1031.41 99.3528 L1031.41 104.272 Q1033.08 101.378 1035.63 99.9893 Q1038.2 98.5715 1041.76 98.5715 Q1047.67 98.5715 1051.34 103.259 Q1055.04 107.946 1055.04 115.585 Q1055.04 123.224 1051.34 127.912 Q1047.67 132.599 1041.76 132.599 Q1038.2 132.599 1035.63 131.21 Q1033.08 129.792 1031.41 126.899 M1049.52 115.585 Q1049.52 109.712 1047.09 106.384 Q1044.69 103.028 1040.46 103.028 Q1036.24 103.028 1033.81 106.384 Q1031.41 109.712 1031.41 115.585 Q1031.41 121.459 1033.81 124.816 Q1036.24 128.143 1040.46 128.143 Q1044.69 128.143 1047.09 124.816 Q1049.52 121.459 1049.52 115.585 Z" fill="#000000" fill-rule="nonzero" fill-opacity="1" /><path clip-path="url(#clip730)" d="M1090.81 112.2 L1090.81 131.76 L1085.48 131.76 L1085.48 112.374 Q1085.48 107.773 1083.69 105.487 Q1081.9 103.201 1078.31 103.201 Q1074 103.201 1071.51 105.95 Q1069.02 108.699 1069.02 113.444 L1069.02 131.76 L1063.67 131.76 L1063.67 86.7371 L1069.02 86.7371 L1069.02 104.387 Q1070.93 101.465 1073.51 100.018 Q1076.11 98.5715 1079.5 98.5715 Q1085.08 98.5715 1087.94 102.044 Q1090.81 105.487 1090.81 112.2 Z" fill="#000000" fill-rule="nonzero" fill-opacity="1" /><path clip-path="url(#clip730)" d="M1129.15 114.225 L1129.15 116.83 L1104.67 116.83 Q1105.02 122.327 1107.97 125.221 Q1110.95 128.085 1116.24 128.085 Q1119.31 128.085 1122.17 127.333 Q1125.07 126.581 1127.9 125.076 L1127.9 130.111 Q1125.04 131.326 1122.03 131.963 Q1119.02 132.599 1115.92 132.599 Q1108.17 132.599 1103.63 128.085 Q1099.11 123.571 1099.11 115.875 Q1099.11 107.918 1103.4 103.259 Q1107.71 98.5715 1115 98.5715 Q1121.54 98.5715 1125.33 102.796 Q1129.15 106.992 1129.15 114.225 M1123.82 112.663 Q1123.77 108.294 1121.36 105.69 Q1118.99 103.085 1115.06 103.085 Q1110.6 103.085 1107.91 105.603 Q1105.25 108.12 1104.84 112.692 L1123.82 112.663 Z" fill="#000000" fill-rule="nonzero" fill-opacity="1" /><path clip-path="url(#clip730)" d="M1156.66 104.33 Q1155.77 103.809 1154.7 103.577 Q1153.66 103.317 1152.38 103.317 Q1147.87 103.317 1145.44 106.268 Q1143.04 109.191 1143.04 114.688 L1143.04 131.76 L1137.68 131.76 L1137.68 99.3528 L1143.04 99.3528 L1143.04 104.387 Q1144.71 101.436 1147.41 100.018 Q1150.1 98.5715 1153.94 98.5715 Q1154.49 98.5715 1155.16 98.6583 Q1155.83 98.7162 1156.64 98.8609 L1156.66 104.33 Z" fill="#000000" fill-rule="nonzero" fill-opacity="1" /><path clip-path="url(#clip730)" d="M1162.25 99.3528 L1167.57 99.3528 L1167.57 131.76 L1162.25 131.76 L1162.25 99.3528 M1162.25 86.7371 L1167.57 86.7371 L1167.57 93.479 L1162.25 93.479 L1162.25 86.7371 Z" fill="#000000" fill-rule="nonzero" fill-opacity="1" /><path clip-path="url(#clip730)" d="M1202.03 100.597 L1202.03 105.574 Q1199.78 104.33 1197.49 103.722 Q1195.24 103.085 1192.92 103.085 Q1187.74 103.085 1184.88 106.384 Q1182.01 109.654 1182.01 115.585 Q1182.01 121.517 1184.88 124.816 Q1187.74 128.085 1192.92 128.085 Q1195.24 128.085 1197.49 127.478 Q1199.78 126.841 1202.03 125.597 L1202.03 130.516 Q1199.81 131.557 1197.41 132.078 Q1195.03 132.599 1192.34 132.599 Q1185.02 132.599 1180.71 127.998 Q1176.4 123.398 1176.4 115.585 Q1176.4 107.657 1180.74 103.114 Q1185.11 98.5715 1192.69 98.5715 Q1195.15 98.5715 1197.49 99.0924 Q1199.84 99.5842 1202.03 100.597 Z" fill="#000000" fill-rule="nonzero" fill-opacity="1" /><path clip-path="url(#clip730)" d="M1226.02 115.47 Q1219.57 115.47 1217.08 116.945 Q1214.59 118.421 1214.59 121.98 Q1214.59 124.816 1216.44 126.494 Q1218.33 128.143 1221.54 128.143 Q1225.96 128.143 1228.63 125.018 Q1231.32 121.864 1231.32 116.656 L1231.32 115.47 L1226.02 115.47 M1236.64 113.271 L1236.64 131.76 L1231.32 131.76 L1231.32 126.841 Q1229.49 129.792 1226.77 131.21 Q1224.05 132.599 1220.12 132.599 Q1215.14 132.599 1212.19 129.821 Q1209.27 127.015 1209.27 122.327 Q1209.27 116.858 1212.91 114.081 Q1216.59 111.303 1223.85 111.303 L1231.32 111.303 L1231.32 110.782 Q1231.32 107.107 1228.89 105.111 Q1226.49 103.085 1222.12 103.085 Q1219.34 103.085 1216.7 103.751 Q1214.07 104.416 1211.64 105.747 L1211.64 100.828 Q1214.56 99.7 1217.31 99.1502 Q1220.06 98.5715 1222.67 98.5715 Q1229.7 98.5715 1233.17 102.217 Q1236.64 105.863 1236.64 113.271 Z" fill="#000000" fill-rule="nonzero" fill-opacity="1" /><path clip-path="url(#clip730)" d="M1247.61 86.7371 L1252.93 86.7371 L1252.93 131.76 L1247.61 131.76 L1247.61 86.7371 Z" fill="#000000" fill-rule="nonzero" fill-opacity="1" /><path clip-path="url(#clip730)" d="M1288.7 141.598 L1288.7 145.736 L1257.91 145.736 L1257.91 141.598 L1288.7 141.598 Z" fill="#000000" fill-rule="nonzero" fill-opacity="1" /><path clip-path="url(#clip730)" d="M1320.64 112.2 L1320.64 131.76 L1315.32 131.76 L1315.32 112.374 Q1315.32 107.773 1313.52 105.487 Q1311.73 103.201 1308.14 103.201 Q1303.83 103.201 1301.34 105.95 Q1298.85 108.699 1298.85 113.444 L1298.85 131.76 L1293.5 131.76 L1293.5 86.7371 L1298.85 86.7371 L1298.85 104.387 Q1300.76 101.465 1303.34 100.018 Q1305.94 98.5715 1309.33 98.5715 Q1314.91 98.5715 1317.78 102.044 Q1320.64 105.487 1320.64 112.2 Z" fill="#000000" fill-rule="nonzero" fill-opacity="1" /><path clip-path="url(#clip730)" d="M1345.99 115.47 Q1339.53 115.47 1337.05 116.945 Q1334.56 118.421 1334.56 121.98 Q1334.56 124.816 1336.41 126.494 Q1338.29 128.143 1341.5 128.143 Q1345.93 128.143 1348.59 125.018 Q1351.28 121.864 1351.28 116.656 L1351.28 115.47 L1345.99 115.47 M1356.61 113.271 L1356.61 131.76 L1351.28 131.76 L1351.28 126.841 Q1349.46 129.792 1346.74 131.21 Q1344.02 132.599 1340.08 132.599 Q1335.11 132.599 1332.16 129.821 Q1329.23 127.015 1329.23 122.327 Q1329.23 116.858 1332.88 114.081 Q1336.55 111.303 1343.82 111.303 L1351.28 111.303 L1351.28 110.782 Q1351.28 107.107 1348.85 105.111 Q1346.45 103.085 1342.08 103.085 Q1339.3 103.085 1336.67 103.751 Q1334.04 104.416 1331.61 105.747 L1331.61 100.828 Q1334.53 99.7 1337.28 99.1502 Q1340.03 98.5715 1342.63 98.5715 Q1349.66 98.5715 1353.13 102.217 Q1356.61 105.863 1356.61 113.271 Z" fill="#000000" fill-rule="nonzero" fill-opacity="1" /><path clip-path="url(#clip730)" d="M1386.35 104.33 Q1385.45 103.809 1384.38 103.577 Q1383.34 103.317 1382.07 103.317 Q1377.55 103.317 1375.12 106.268 Q1372.72 109.191 1372.72 114.688 L1372.72 131.76 L1367.37 131.76 L1367.37 99.3528 L1372.72 99.3528 L1372.72 104.387 Q1374.4 101.436 1377.09 100.018 Q1379.78 98.5715 1383.63 98.5715 Q1384.18 98.5715 1384.85 98.6583 Q1385.51 98.7162 1386.32 98.8609 L1386.35 104.33 Z" fill="#000000" fill-rule="nonzero" fill-opacity="1" /><path clip-path="url(#clip730)" d="M1416.13 105.574 Q1418.12 101.986 1420.9 100.279 Q1423.68 98.5715 1427.44 98.5715 Q1432.5 98.5715 1435.25 102.131 Q1438 105.661 1438 112.2 L1438 131.76 L1432.65 131.76 L1432.65 112.374 Q1432.65 107.715 1431 105.458 Q1429.35 103.201 1425.96 103.201 Q1421.83 103.201 1419.42 105.95 Q1417.02 108.699 1417.02 113.444 L1417.02 131.76 L1411.67 131.76 L1411.67 112.374 Q1411.67 107.686 1410.02 105.458 Q1408.37 103.201 1404.93 103.201 Q1400.85 103.201 1398.45 105.979 Q1396.04 108.728 1396.04 113.444 L1396.04 131.76 L1390.69 131.76 L1390.69 99.3528 L1396.04 99.3528 L1396.04 104.387 Q1397.87 101.407 1400.41 99.9893 Q1402.96 98.5715 1406.46 98.5715 Q1409.99 98.5715 1412.45 100.365 Q1414.94 102.159 1416.13 105.574 Z" fill="#000000" fill-rule="nonzero" fill-opacity="1" /><path clip-path="url(#clip730)" d="M1461.18 103.085 Q1456.89 103.085 1454.41 106.442 Q1451.92 109.769 1451.92 115.585 Q1451.92 121.401 1454.38 124.758 Q1456.87 128.085 1461.18 128.085 Q1465.43 128.085 1467.92 124.729 Q1470.41 121.372 1470.41 115.585 Q1470.41 109.827 1467.92 106.471 Q1465.43 103.085 1461.18 103.085 M1461.18 98.5715 Q1468.12 98.5715 1472.09 103.085 Q1476.05 107.599 1476.05 115.585 Q1476.05 123.542 1472.09 128.085 Q1468.12 132.599 1461.18 132.599 Q1454.2 132.599 1450.24 128.085 Q1446.3 123.542 1446.3 115.585 Q1446.3 107.599 1450.24 103.085 Q1454.2 98.5715 1461.18 98.5715 Z" fill="#000000" fill-rule="nonzero" fill-opacity="1" /><path clip-path="url(#clip730)" d="M1511.81 112.2 L1511.81 131.76 L1506.49 131.76 L1506.49 112.374 Q1506.49 107.773 1504.7 105.487 Q1502.9 103.201 1499.31 103.201 Q1495 103.201 1492.51 105.95 Q1490.03 108.699 1490.03 113.444 L1490.03 131.76 L1484.67 131.76 L1484.67 99.3528 L1490.03 99.3528 L1490.03 104.387 Q1491.93 101.465 1494.51 100.018 Q1497.11 98.5715 1500.5 98.5715 Q1506.08 98.5715 1508.95 102.044 Q1511.81 105.487 1511.81 112.2 Z" fill="#000000" fill-rule="nonzero" fill-opacity="1" /><path clip-path="url(#clip730)" d="M1522.43 99.3528 L1527.76 99.3528 L1527.76 131.76 L1522.43 131.76 L1522.43 99.3528 M1522.43 86.7371 L1527.76 86.7371 L1527.76 93.479 L1522.43 93.479 L1522.43 86.7371 Z" fill="#000000" fill-rule="nonzero" fill-opacity="1" /><path clip-path="url(#clip730)" d="M1562.22 100.597 L1562.22 105.574 Q1559.96 104.33 1557.68 103.722 Q1555.42 103.085 1553.1 103.085 Q1547.92 103.085 1545.06 106.384 Q1542.2 109.654 1542.2 115.585 Q1542.2 121.517 1545.06 124.816 Q1547.92 128.085 1553.1 128.085 Q1555.42 128.085 1557.68 127.478 Q1559.96 126.841 1562.22 125.597 L1562.22 130.516 Q1559.99 131.557 1557.59 132.078 Q1555.22 132.599 1552.52 132.599 Q1545.2 132.599 1540.89 127.998 Q1536.58 123.398 1536.58 115.585 Q1536.58 107.657 1540.92 103.114 Q1545.29 98.5715 1552.87 98.5715 Q1555.33 98.5715 1557.68 99.0924 Q1560.02 99.5842 1562.22 100.597 Z" fill="#000000" fill-rule="nonzero" fill-opacity="1" /><path clip-path="url(#clip730)" d="M1592.14 100.308 L1592.14 105.342 Q1589.88 104.185 1587.45 103.606 Q1585.02 103.028 1582.41 103.028 Q1578.45 103.028 1576.45 104.243 Q1574.49 105.458 1574.49 107.889 Q1574.49 109.74 1575.9 110.811 Q1577.32 111.853 1581.6 112.808 L1583.43 113.213 Q1589.1 114.428 1591.47 116.656 Q1593.87 118.855 1593.87 122.819 Q1593.87 127.333 1590.29 129.966 Q1586.73 132.599 1580.48 132.599 Q1577.87 132.599 1575.04 132.078 Q1572.23 131.586 1569.1 130.574 L1569.1 125.076 Q1572.06 126.61 1574.92 127.391 Q1577.79 128.143 1580.59 128.143 Q1584.35 128.143 1586.38 126.87 Q1588.4 125.568 1588.4 123.224 Q1588.4 121.054 1586.93 119.897 Q1585.48 118.739 1580.53 117.669 L1578.68 117.235 Q1573.73 116.193 1571.54 114.052 Q1569.34 111.882 1569.34 108.12 Q1569.34 103.548 1572.58 101.06 Q1575.82 98.5715 1581.78 98.5715 Q1584.73 98.5715 1587.33 99.0055 Q1589.94 99.4396 1592.14 100.308 Z" fill="#000000" fill-rule="nonzero" fill-opacity="1" /><polyline clip-path="url(#clip732)" style="stroke:#009af9; stroke-linecap:round; stroke-linejoin:round; stroke-width:4; stroke-opacity:1; fill:none" points="294.087,1387.13 475.787,1381.94 657.488,1372.28 839.189,1356.88 1020.89,1320.44 1202.59,1299.94 1384.29,1268.29 1565.99,1126.96 1747.69,803.914 1929.39,594.747 2111.09,185.443 "/>
<circle clip-path="url(#clip732)" cx="294.087" cy="1387.13" r="14.4" fill="#009af9" fill-rule="evenodd" fill-opacity="1" stroke="#000000" stroke-opacity="1" stroke-width="3.2"/>
<circle clip-path="url(#clip732)" cx="475.787" cy="1381.94" r="14.4" fill="#009af9" fill-rule="evenodd" fill-opacity="1" stroke="#000000" stroke-opacity="1" stroke-width="3.2"/>
<circle clip-path="url(#clip732)" cx="657.488" cy="1372.28" r="14.4" fill="#009af9" fill-rule="evenodd" fill-opacity="1" stroke="#000000" stroke-opacity="1" stroke-width="3.2"/>
<circle clip-path="url(#clip732)" cx="839.189" cy="1356.88" r="14.4" fill="#009af9" fill-rule="evenodd" fill-opacity="1" stroke="#000000" stroke-opacity="1" stroke-width="3.2"/>
<circle clip-path="url(#clip732)" cx="1020.89" cy="1320.44" r="14.4" fill="#009af9" fill-rule="evenodd" fill-opacity="1" stroke="#000000" stroke-opacity="1" stroke-width="3.2"/>
<circle clip-path="url(#clip732)" cx="1202.59" cy="1299.94" r="14.4" fill="#009af9" fill-rule="evenodd" fill-opacity="1" stroke="#000000" stroke-opacity="1" stroke-width="3.2"/>
<circle clip-path="url(#clip732)" cx="1384.29" cy="1268.29" r="14.4" fill="#009af9" fill-rule="evenodd" fill-opacity="1" stroke="#000000" stroke-opacity="1" stroke-width="3.2"/>
<circle clip-path="url(#clip732)" cx="1565.99" cy="1126.96" r="14.4" fill="#009af9" fill-rule="evenodd" fill-opacity="1" stroke="#000000" stroke-opacity="1" stroke-width="3.2"/>
<circle clip-path="url(#clip732)" cx="1747.69" cy="803.914" r="14.4" fill="#009af9" fill-rule="evenodd" fill-opacity="1" stroke="#000000" stroke-opacity="1" stroke-width="3.2"/>
<circle clip-path="url(#clip732)" cx="1929.39" cy="594.747" r="14.4" fill="#009af9" fill-rule="evenodd" fill-opacity="1" stroke="#000000" stroke-opacity="1" stroke-width="3.2"/>
<circle clip-path="url(#clip732)" cx="2111.09" cy="185.443" r="14.4" fill="#009af9" fill-rule="evenodd" fill-opacity="1" stroke="#000000" stroke-opacity="1" stroke-width="3.2"/>
</svg>
