<?xml version="1.0" encoding="utf-8"?>
<svg xmlns="http://www.w3.org/2000/svg" xmlns:xlink="http://www.w3.org/1999/xlink" width="600" height="400" viewBox="0 0 2400 1600">
<defs>
  <clipPath id="clip030">
    <rect x="0" y="0" width="2400" height="1600"/>
  </clipPath>
</defs>
<path clip-path="url(#clip030)" d="M0 1600 L2400 1600 L2400 0 L0 0  Z" fill="#ffffff" fill-rule="evenodd" fill-opacity="1"/>
<defs>
  <clipPath id="clip031">
    <rect x="480" y="0" width="1681" height="1600"/>
  </clipPath>
</defs>
<path clip-path="url(#clip030)" d="M221.637 1423.18 L2352.76 1423.18 L2352.76 192.592 L221.637 192.592  Z" fill="#ffffff" fill-rule="evenodd" fill-opacity="1"/>
<defs>
  <clipPath id="clip032">
    <rect x="221" y="192" width="2132" height="1232"/>
  </clipPath>
</defs>
<polyline clip-path="url(#clip032)" style="stroke:#000000; stroke-linecap:round; stroke-linejoin:round; stroke-width:2; stroke-opacity:0.1; fill:none" points="415.984,1423.18 415.984,192.592 "/>
<polyline clip-path="url(#clip032)" style="stroke:#000000; stroke-linecap:round; stroke-linejoin:round; stroke-width:2; stroke-opacity:0.1; fill:none" points="818.082,1423.18 818.082,192.592 "/>
<polyline clip-path="url(#clip032)" style="stroke:#000000; stroke-linecap:round; stroke-linejoin:round; stroke-width:2; stroke-opacity:0.1; fill:none" points="1220.18,1423.18 1220.18,192.592 "/>
<polyline clip-path="url(#clip032)" style="stroke:#000000; stroke-linecap:round; stroke-linejoin:round; stroke-width:2; stroke-opacity:0.1; fill:none" points="1622.28,1423.18 1622.28,192.592 "/>
<polyline clip-path="url(#clip032)" style="stroke:#000000; stroke-linecap:round; stroke-linejoin:round; stroke-width:2; stroke-opacity:0.1; fill:none" points="2024.38,1423.18 2024.38,192.592 "/>
<polyline clip-path="url(#clip030)" style="stroke:#000000; stroke-linecap:round; stroke-linejoin:round; stroke-width:4; stroke-opacity:1; fill:none" points="221.637,1423.18 2352.76,1423.18 "/>
<polyline clip-path="url(#clip030)" style="stroke:#000000; stroke-linecap:round; stroke-linejoin:round; stroke-width:4; stroke-opacity:1; fill:none" points="415.984,1423.18 415.984,1404.28 "/>
<polyline clip-path="url(#clip030)" style="stroke:#000000; stroke-linecap:round; stroke-linejoin:round; stroke-width:4; stroke-opacity:1; fill:none" points="818.082,1423.18 818.082,1404.28 "/>
<polyline clip-path="url(#clip030)" style="stroke:#000000; stroke-linecap:round; stroke-linejoin:round; stroke-width:4; stroke-opacity:1; fill:none" points="1220.18,1423.18 1220.18,1404.28 "/>
<polyline clip-path="url(#clip030)" style="stroke:#000000; stroke-linecap:round; stroke-linejoin:round; stroke-width:4; stroke-opacity:1; fill:none" points="1622.28,1423.18 1622.28,1404.28 "/>
<polyline clip-path="url(#clip030)" style="stroke:#000000; stroke-linecap:round; stroke-linejoin:round; stroke-width:4; stroke-opacity:1; fill:none" points="2024.38,1423.18 2024.38,1404.28 "/>
<polyline clip-path="url(#clip030)" style="stroke:#000000; stroke-linecap:round; stroke-linejoin:round; stroke-width:4; stroke-opacity:1; fill:none" points="255.145,1423.18 255.145,1413.73 "/>
<polyline clip-path="url(#clip030)" style="stroke:#000000; stroke-linecap:round; stroke-linejoin:round; stroke-width:4; stroke-opacity:1; fill:none" points="335.565,1423.18 335.565,1413.73 "/>
<polyline clip-path="url(#clip030)" style="stroke:#000000; stroke-linecap:round; stroke-linejoin:round; stroke-width:4; stroke-opacity:1; fill:none" points="496.404,1423.18 496.404,1413.73 "/>
<polyline clip-path="url(#clip030)" style="stroke:#000000; stroke-linecap:round; stroke-linejoin:round; stroke-width:4; stroke-opacity:1; fill:none" points="576.824,1423.18 576.824,1413.73 "/>
<polyline clip-path="url(#clip030)" style="stroke:#000000; stroke-linecap:round; stroke-linejoin:round; stroke-width:4; stroke-opacity:1; fill:none" points="657.243,1423.18 657.243,1413.73 "/>
<polyline clip-path="url(#clip030)" style="stroke:#000000; stroke-linecap:round; stroke-linejoin:round; stroke-width:4; stroke-opacity:1; fill:none" points="737.663,1423.18 737.663,1413.73 "/>
<polyline clip-path="url(#clip030)" style="stroke:#000000; stroke-linecap:round; stroke-linejoin:round; stroke-width:4; stroke-opacity:1; fill:none" points="898.502,1423.18 898.502,1413.73 "/>
<polyline clip-path="url(#clip030)" style="stroke:#000000; stroke-linecap:round; stroke-linejoin:round; stroke-width:4; stroke-opacity:1; fill:none" points="978.921,1423.18 978.921,1413.73 "/>
<polyline clip-path="url(#clip030)" style="stroke:#000000; stroke-linecap:round; stroke-linejoin:round; stroke-width:4; stroke-opacity:1; fill:none" points="1059.34,1423.18 1059.34,1413.73 "/>
<polyline clip-path="url(#clip030)" style="stroke:#000000; stroke-linecap:round; stroke-linejoin:round; stroke-width:4; stroke-opacity:1; fill:none" points="1139.76,1423.18 1139.76,1413.73 "/>
<polyline clip-path="url(#clip030)" style="stroke:#000000; stroke-linecap:round; stroke-linejoin:round; stroke-width:4; stroke-opacity:1; fill:none" points="1300.6,1423.18 1300.6,1413.73 "/>
<polyline clip-path="url(#clip030)" style="stroke:#000000; stroke-linecap:round; stroke-linejoin:round; stroke-width:4; stroke-opacity:1; fill:none" points="1381.02,1423.18 1381.02,1413.73 "/>
<polyline clip-path="url(#clip030)" style="stroke:#000000; stroke-linecap:round; stroke-linejoin:round; stroke-width:4; stroke-opacity:1; fill:none" points="1461.44,1423.18 1461.44,1413.73 "/>
<polyline clip-path="url(#clip030)" style="stroke:#000000; stroke-linecap:round; stroke-linejoin:round; stroke-width:4; stroke-opacity:1; fill:none" points="1541.86,1423.18 1541.86,1413.73 "/>
<polyline clip-path="url(#clip030)" style="stroke:#000000; stroke-linecap:round; stroke-linejoin:round; stroke-width:4; stroke-opacity:1; fill:none" points="1702.7,1423.18 1702.7,1413.73 "/>
<polyline clip-path="url(#clip030)" style="stroke:#000000; stroke-linecap:round; stroke-linejoin:round; stroke-width:4; stroke-opacity:1; fill:none" points="1783.12,1423.18 1783.12,1413.73 "/>
<polyline clip-path="url(#clip030)" style="stroke:#000000; stroke-linecap:round; stroke-linejoin:round; stroke-width:4; stroke-opacity:1; fill:none" points="1863.54,1423.18 1863.54,1413.73 "/>
<polyline clip-path="url(#clip030)" style="stroke:#000000; stroke-linecap:round; stroke-linejoin:round; stroke-width:4; stroke-opacity:1; fill:none" points="1943.96,1423.18 1943.96,1413.73 "/>
<polyline clip-path="url(#clip030)" style="stroke:#000000; stroke-linecap:round; stroke-linejoin:round; stroke-width:4; stroke-opacity:1; fill:none" points="2104.8,1423.18 2104.8,1413.73 "/>
<polyline clip-path="url(#clip030)" style="stroke:#000000; stroke-linecap:round; stroke-linejoin:round; stroke-width:4; stroke-opacity:1; fill:none" points="2185.22,1423.18 2185.22,1413.73 "/>
<polyline clip-path="url(#clip030)" style="stroke:#000000; stroke-linecap:round; stroke-linejoin:round; stroke-width:4; stroke-opacity:1; fill:none" points="2265.63,1423.18 2265.63,1413.73 "/>
<polyline clip-path="url(#clip030)" style="stroke:#000000; stroke-linecap:round; stroke-linejoin:round; stroke-width:4; stroke-opacity:1; fill:none" points="2346.05,1423.18 2346.05,1413.73 "/>
<path clip-path="url(#clip030)" d="M416.389 1466.44 Q413.241 1466.44 411.39 1468.59 Q409.561 1470.74 409.561 1474.49 Q409.561 1478.22 411.39 1480.39 Q413.241 1482.55 416.389 1482.55 Q419.538 1482.55 421.366 1480.39 Q423.218 1478.22 423.218 1474.49 Q423.218 1470.74 421.366 1468.59 Q419.538 1466.44 416.389 1466.44 M425.672 1451.78 L425.672 1456.04 Q423.913 1455.21 422.107 1454.77 Q420.325 1454.33 418.565 1454.33 Q413.936 1454.33 411.482 1457.45 Q409.052 1460.58 408.704 1466.9 Q410.07 1464.89 412.13 1463.82 Q414.19 1462.73 416.667 1462.73 Q421.876 1462.73 424.885 1465.9 Q427.917 1469.05 427.917 1474.49 Q427.917 1479.82 424.769 1483.03 Q421.621 1486.25 416.389 1486.25 Q410.394 1486.25 407.223 1481.67 Q404.052 1477.06 404.052 1468.33 Q404.052 1460.14 407.94 1455.28 Q411.829 1450.39 418.38 1450.39 Q420.139 1450.39 421.922 1450.74 Q423.727 1451.09 425.672 1451.78 Z" fill="#000000" fill-rule="nonzero" fill-opacity="1" /><path clip-path="url(#clip030)" d="M808.383 1484.86 L808.383 1480.6 Q810.143 1481.44 811.948 1481.88 Q813.754 1482.32 815.49 1482.32 Q820.119 1482.32 822.55 1479.21 Q825.004 1476.09 825.351 1469.75 Q824.008 1471.74 821.948 1472.8 Q819.888 1473.87 817.388 1473.87 Q812.203 1473.87 809.17 1470.74 Q806.161 1467.59 806.161 1462.15 Q806.161 1456.83 809.309 1453.61 Q812.457 1450.39 817.689 1450.39 Q823.684 1450.39 826.832 1455 Q830.004 1459.58 830.004 1468.33 Q830.004 1476.51 826.115 1481.39 Q822.249 1486.25 815.698 1486.25 Q813.939 1486.25 812.133 1485.9 Q810.328 1485.56 808.383 1484.86 M817.689 1470.21 Q820.837 1470.21 822.666 1468.06 Q824.517 1465.9 824.517 1462.15 Q824.517 1458.43 822.666 1456.27 Q820.837 1454.1 817.689 1454.1 Q814.541 1454.1 812.689 1456.27 Q810.86 1458.43 810.86 1462.15 Q810.86 1465.9 812.689 1468.06 Q814.541 1470.21 817.689 1470.21 Z" fill="#000000" fill-rule="nonzero" fill-opacity="1" /><path clip-path="url(#clip030)" d="M1195.67 1481.64 L1203.31 1481.64 L1203.31 1455.28 L1195 1456.95 L1195 1452.69 L1203.26 1451.02 L1207.93 1451.02 L1207.93 1481.64 L1215.57 1481.64 L1215.57 1485.58 L1195.67 1485.58 L1195.67 1481.64 Z" fill="#000000" fill-rule="nonzero" fill-opacity="1" /><path clip-path="url(#clip030)" d="M1229.05 1481.64 L1245.37 1481.64 L1245.37 1485.58 L1223.42 1485.58 L1223.42 1481.64 Q1226.08 1478.89 1230.67 1474.26 Q1235.27 1469.61 1236.45 1468.27 Q1238.7 1465.74 1239.58 1464.01 Q1240.48 1462.25 1240.48 1460.56 Q1240.48 1457.8 1238.54 1456.07 Q1236.62 1454.33 1233.51 1454.33 Q1231.31 1454.33 1228.86 1455.09 Q1226.43 1455.86 1223.65 1457.41 L1223.65 1452.69 Q1226.48 1451.55 1228.93 1450.97 Q1231.38 1450.39 1233.42 1450.39 Q1238.79 1450.39 1241.99 1453.08 Q1245.18 1455.77 1245.18 1460.26 Q1245.18 1462.39 1244.37 1464.31 Q1243.58 1466.2 1241.48 1468.8 Q1240.9 1469.47 1237.8 1472.69 Q1234.69 1475.88 1229.05 1481.64 Z" fill="#000000" fill-rule="nonzero" fill-opacity="1" /><path clip-path="url(#clip030)" d="M1597.46 1481.64 L1605.1 1481.64 L1605.1 1455.28 L1596.79 1456.95 L1596.79 1452.69 L1605.06 1451.02 L1609.73 1451.02 L1609.73 1481.64 L1617.37 1481.64 L1617.37 1485.58 L1597.46 1485.58 L1597.46 1481.64 Z" fill="#000000" fill-rule="nonzero" fill-opacity="1" /><path clip-path="url(#clip030)" d="M1626.86 1451.02 L1645.22 1451.02 L1645.22 1454.96 L1631.14 1454.96 L1631.14 1463.43 Q1632.16 1463.08 1633.18 1462.92 Q1634.2 1462.73 1635.22 1462.73 Q1641 1462.73 1644.38 1465.9 Q1647.76 1469.08 1647.76 1474.49 Q1647.76 1480.07 1644.29 1483.17 Q1640.82 1486.25 1634.5 1486.25 Q1632.32 1486.25 1630.06 1485.88 Q1627.81 1485.51 1625.4 1484.77 L1625.4 1480.07 Q1627.49 1481.2 1629.71 1481.76 Q1631.93 1482.32 1634.41 1482.32 Q1638.41 1482.32 1640.75 1480.21 Q1643.09 1478.1 1643.09 1474.49 Q1643.09 1470.88 1640.75 1468.77 Q1638.41 1466.67 1634.41 1466.67 Q1632.53 1466.67 1630.66 1467.08 Q1628.81 1467.5 1626.86 1468.38 L1626.86 1451.02 Z" fill="#000000" fill-rule="nonzero" fill-opacity="1" /><path clip-path="url(#clip030)" d="M1999.11 1481.64 L2006.75 1481.64 L2006.75 1455.28 L1998.44 1456.95 L1998.44 1452.69 L2006.7 1451.02 L2011.38 1451.02 L2011.38 1481.64 L2019.02 1481.64 L2019.02 1485.58 L1999.11 1485.58 L1999.11 1481.64 Z" fill="#000000" fill-rule="nonzero" fill-opacity="1" /><path clip-path="url(#clip030)" d="M2038.46 1469.17 Q2035.13 1469.17 2033.21 1470.95 Q2031.31 1472.73 2031.31 1475.86 Q2031.31 1478.98 2033.21 1480.77 Q2035.13 1482.55 2038.46 1482.55 Q2041.79 1482.55 2043.72 1480.77 Q2045.64 1478.96 2045.64 1475.86 Q2045.64 1472.73 2043.72 1470.95 Q2041.82 1469.17 2038.46 1469.17 M2033.79 1467.18 Q2030.78 1466.44 2029.09 1464.38 Q2027.42 1462.32 2027.42 1459.35 Q2027.42 1455.21 2030.36 1452.8 Q2033.32 1450.39 2038.46 1450.39 Q2043.62 1450.39 2046.56 1452.8 Q2049.5 1455.21 2049.5 1459.35 Q2049.5 1462.32 2047.81 1464.38 Q2046.15 1466.44 2043.16 1467.18 Q2046.54 1467.96 2048.42 1470.26 Q2050.31 1472.55 2050.31 1475.86 Q2050.31 1480.88 2047.23 1483.57 Q2044.18 1486.25 2038.46 1486.25 Q2032.74 1486.25 2029.67 1483.57 Q2026.61 1480.88 2026.61 1475.86 Q2026.61 1472.55 2028.51 1470.26 Q2030.41 1467.96 2033.79 1467.18 M2032.07 1459.79 Q2032.07 1462.48 2033.74 1463.98 Q2035.43 1465.49 2038.46 1465.49 Q2041.47 1465.49 2043.16 1463.98 Q2044.87 1462.48 2044.87 1459.79 Q2044.87 1457.11 2043.16 1455.6 Q2041.47 1454.1 2038.46 1454.1 Q2035.43 1454.1 2033.74 1455.6 Q2032.07 1457.11 2032.07 1459.79 Z" fill="#000000" fill-rule="nonzero" fill-opacity="1" /><path clip-path="url(#clip030)" d="M957.946 1533.76 L957.946 1539.24 Q955.464 1537.87 952.949 1537.2 Q950.467 1536.5 947.92 1536.5 Q942.223 1536.5 939.072 1540.13 Q935.921 1543.73 935.921 1550.25 Q935.921 1556.78 939.072 1560.4 Q942.223 1564 947.92 1564 Q950.467 1564 952.949 1563.33 Q955.464 1562.63 957.946 1561.26 L957.946 1566.68 Q955.495 1567.82 952.854 1568.39 Q950.244 1568.97 947.284 1568.97 Q939.231 1568.97 934.489 1563.91 Q929.746 1558.85 929.746 1550.25 Q929.746 1541.53 934.52 1536.53 Q939.327 1531.54 947.666 1531.54 Q950.371 1531.54 952.949 1532.11 Q955.527 1532.65 957.946 1533.76 Z" fill="#000000" fill-rule="nonzero" fill-opacity="1" /><path clip-path="url(#clip030)" d="M997.764 1546.53 L997.764 1568.04 L991.907 1568.04 L991.907 1546.72 Q991.907 1541.66 989.934 1539.14 Q987.961 1536.63 984.014 1536.63 Q979.271 1536.63 976.534 1539.65 Q973.797 1542.68 973.797 1547.9 L973.797 1568.04 L967.909 1568.04 L967.909 1518.52 L973.797 1518.52 L973.797 1537.93 Q975.898 1534.72 978.73 1533.13 Q981.595 1531.54 985.319 1531.54 Q991.462 1531.54 994.613 1535.36 Q997.764 1539.14 997.764 1546.53 Z" fill="#000000" fill-rule="nonzero" fill-opacity="1" /><path clip-path="url(#clip030)" d="M1039.94 1548.76 L1039.94 1551.62 L1013.01 1551.62 Q1013.39 1557.67 1016.64 1560.85 Q1019.92 1564 1025.74 1564 Q1029.11 1564 1032.27 1563.17 Q1035.45 1562.35 1038.57 1560.69 L1038.57 1566.23 Q1035.42 1567.57 1032.11 1568.27 Q1028.8 1568.97 1025.39 1568.97 Q1016.86 1568.97 1011.86 1564 Q1006.9 1559.04 1006.9 1550.57 Q1006.9 1541.82 1011.61 1536.69 Q1016.35 1531.54 1024.37 1531.54 Q1031.57 1531.54 1035.74 1536.18 Q1039.94 1540.8 1039.94 1548.76 M1034.08 1547.04 Q1034.02 1542.23 1031.37 1539.37 Q1028.76 1536.5 1024.44 1536.5 Q1019.53 1536.5 1016.57 1539.27 Q1013.65 1542.04 1013.2 1547.07 L1034.08 1547.04 Z" fill="#000000" fill-rule="nonzero" fill-opacity="1" /><path clip-path="url(#clip030)" d="M1075.14 1550.25 Q1075.14 1543.79 1072.47 1540.13 Q1069.82 1536.44 1065.18 1536.44 Q1060.53 1536.44 1057.86 1540.13 Q1055.21 1543.79 1055.21 1550.25 Q1055.21 1556.71 1057.86 1560.4 Q1060.53 1564.07 1065.18 1564.07 Q1069.82 1564.07 1072.47 1560.4 Q1075.14 1556.71 1075.14 1550.25 M1055.21 1537.81 Q1057.06 1534.62 1059.86 1533.1 Q1062.69 1531.54 1066.61 1531.54 Q1073.1 1531.54 1077.14 1536.69 Q1081.22 1541.85 1081.22 1550.25 Q1081.22 1558.65 1077.14 1563.81 Q1073.1 1568.97 1066.61 1568.97 Q1062.69 1568.97 1059.86 1567.44 Q1057.06 1565.88 1055.21 1562.7 L1055.21 1568.04 L1049.33 1568.04 L1049.33 1518.52 L1055.21 1518.52 L1055.21 1537.81 Z" fill="#000000" fill-rule="nonzero" fill-opacity="1" /><path clip-path="url(#clip030)" d="M1105.76 1571.35 Q1103.28 1577.72 1100.92 1579.66 Q1098.56 1581.6 1094.62 1581.6 L1089.94 1581.6 L1089.94 1576.7 L1093.38 1576.7 Q1095.8 1576.7 1097.13 1575.56 Q1098.47 1574.41 1100.09 1570.14 L1101.14 1567.47 L1086.72 1532.4 L1092.93 1532.4 L1104.07 1560.28 L1115.21 1532.4 L1121.42 1532.4 L1105.76 1571.35 Z" fill="#000000" fill-rule="nonzero" fill-opacity="1" /><path clip-path="url(#clip030)" d="M1152.23 1533.45 L1152.23 1538.98 Q1149.74 1537.71 1147.07 1537.07 Q1144.4 1536.44 1141.53 1536.44 Q1137.17 1536.44 1134.98 1537.77 Q1132.81 1539.11 1132.81 1541.79 Q1132.81 1543.82 1134.37 1545 Q1135.93 1546.15 1140.64 1547.2 L1142.65 1547.64 Q1148.89 1548.98 1151.5 1551.43 Q1154.14 1553.85 1154.14 1558.21 Q1154.14 1563.17 1150.19 1566.07 Q1146.28 1568.97 1139.4 1568.97 Q1136.54 1568.97 1133.42 1568.39 Q1130.33 1567.85 1126.89 1566.74 L1126.89 1560.69 Q1130.14 1562.38 1133.29 1563.24 Q1136.44 1564.07 1139.53 1564.07 Q1143.67 1564.07 1145.89 1562.66 Q1148.12 1561.23 1148.12 1558.65 Q1148.12 1556.27 1146.5 1554.99 Q1144.91 1553.72 1139.46 1552.54 L1137.43 1552.07 Q1131.98 1550.92 1129.57 1548.56 Q1127.15 1546.18 1127.15 1542.04 Q1127.15 1537.01 1130.71 1534.27 Q1134.28 1531.54 1140.83 1531.54 Q1144.08 1531.54 1146.94 1532.01 Q1149.81 1532.49 1152.23 1533.45 Z" fill="#000000" fill-rule="nonzero" fill-opacity="1" /><path clip-path="url(#clip030)" d="M1193.1 1546.53 L1193.1 1568.04 L1187.24 1568.04 L1187.24 1546.72 Q1187.24 1541.66 1185.27 1539.14 Q1183.29 1536.63 1179.35 1536.63 Q1174.6 1536.63 1171.87 1539.65 Q1169.13 1542.68 1169.13 1547.9 L1169.13 1568.04 L1163.24 1568.04 L1163.24 1518.52 L1169.13 1518.52 L1169.13 1537.93 Q1171.23 1534.72 1174.06 1533.13 Q1176.93 1531.54 1180.65 1531.54 Q1186.79 1531.54 1189.94 1535.36 Q1193.1 1539.14 1193.1 1546.53 Z" fill="#000000" fill-rule="nonzero" fill-opacity="1" /><path clip-path="url(#clip030)" d="M1235.27 1548.76 L1235.27 1551.62 L1208.34 1551.62 Q1208.72 1557.67 1211.97 1560.85 Q1215.25 1564 1221.07 1564 Q1224.45 1564 1227.6 1563.17 Q1230.78 1562.35 1233.9 1560.69 L1233.9 1566.23 Q1230.75 1567.57 1227.44 1568.27 Q1224.13 1568.97 1220.72 1568.97 Q1212.19 1568.97 1207.2 1564 Q1202.23 1559.04 1202.23 1550.57 Q1202.23 1541.82 1206.94 1536.69 Q1211.68 1531.54 1219.7 1531.54 Q1226.9 1531.54 1231.07 1536.18 Q1235.27 1540.8 1235.27 1548.76 M1229.41 1547.04 Q1229.35 1542.23 1226.71 1539.37 Q1224.1 1536.5 1219.77 1536.5 Q1214.87 1536.5 1211.91 1539.27 Q1208.98 1542.04 1208.53 1547.07 L1229.41 1547.04 Z" fill="#000000" fill-rule="nonzero" fill-opacity="1" /><path clip-path="url(#clip030)" d="M1240.68 1532.4 L1246.89 1532.4 L1258.03 1562.31 L1269.17 1532.4 L1275.37 1532.4 L1262 1568.04 L1254.05 1568.04 L1240.68 1532.4 Z" fill="#000000" fill-rule="nonzero" fill-opacity="1" /><path clip-path="url(#clip030)" d="M1331.93 1539.24 Q1334.13 1535.29 1337.18 1533.41 Q1340.24 1531.54 1344.38 1531.54 Q1349.95 1531.54 1352.97 1535.45 Q1355.99 1539.33 1355.99 1546.53 L1355.99 1568.04 L1350.11 1568.04 L1350.11 1546.72 Q1350.11 1541.59 1348.29 1539.11 Q1346.48 1536.63 1342.75 1536.63 Q1338.2 1536.63 1335.56 1539.65 Q1332.92 1542.68 1332.92 1547.9 L1332.92 1568.04 L1327.03 1568.04 L1327.03 1546.72 Q1327.03 1541.56 1325.22 1539.11 Q1323.4 1536.63 1319.61 1536.63 Q1315.13 1536.63 1312.48 1539.68 Q1309.84 1542.71 1309.84 1547.9 L1309.84 1568.04 L1303.95 1568.04 L1303.95 1532.4 L1309.84 1532.4 L1309.84 1537.93 Q1311.85 1534.66 1314.65 1533.1 Q1317.45 1531.54 1321.3 1531.54 Q1325.18 1531.54 1327.89 1533.51 Q1330.63 1535.48 1331.93 1539.24 Z" fill="#000000" fill-rule="nonzero" fill-opacity="1" /><path clip-path="url(#clip030)" d="M1381.49 1536.5 Q1376.78 1536.5 1374.04 1540.19 Q1371.3 1543.85 1371.3 1550.25 Q1371.3 1556.65 1374.01 1560.34 Q1376.75 1564 1381.49 1564 Q1386.17 1564 1388.9 1560.31 Q1391.64 1556.62 1391.64 1550.25 Q1391.64 1543.92 1388.9 1540.23 Q1386.17 1536.5 1381.49 1536.5 M1381.49 1531.54 Q1389.13 1531.54 1393.49 1536.5 Q1397.85 1541.47 1397.85 1550.25 Q1397.85 1559 1393.49 1564 Q1389.13 1568.97 1381.49 1568.97 Q1373.82 1568.97 1369.46 1564 Q1365.13 1559 1365.13 1550.25 Q1365.13 1541.47 1369.46 1536.5 Q1373.82 1531.54 1381.49 1531.54 Z" fill="#000000" fill-rule="nonzero" fill-opacity="1" /><path clip-path="url(#clip030)" d="M1431.01 1537.81 L1431.01 1518.52 L1436.87 1518.52 L1436.87 1568.04 L1431.01 1568.04 L1431.01 1562.7 Q1429.17 1565.88 1426.33 1567.44 Q1423.53 1568.97 1419.59 1568.97 Q1413.13 1568.97 1409.05 1563.81 Q1405.01 1558.65 1405.01 1550.25 Q1405.01 1541.85 1409.05 1536.69 Q1413.13 1531.54 1419.59 1531.54 Q1423.53 1531.54 1426.33 1533.1 Q1429.17 1534.62 1431.01 1537.81 M1411.06 1550.25 Q1411.06 1556.71 1413.7 1560.4 Q1416.37 1564.07 1421.02 1564.07 Q1425.67 1564.07 1428.34 1560.4 Q1431.01 1556.71 1431.01 1550.25 Q1431.01 1543.79 1428.34 1540.13 Q1425.67 1536.44 1421.02 1536.44 Q1416.37 1536.44 1413.7 1540.13 Q1411.06 1543.79 1411.06 1550.25 Z" fill="#000000" fill-rule="nonzero" fill-opacity="1" /><path clip-path="url(#clip030)" d="M1479.42 1548.76 L1479.42 1551.62 L1452.5 1551.62 Q1452.88 1557.67 1456.13 1560.85 Q1459.4 1564 1465.23 1564 Q1468.6 1564 1471.75 1563.17 Q1474.94 1562.35 1478.06 1560.69 L1478.06 1566.23 Q1474.91 1567.57 1471.6 1568.27 Q1468.28 1568.97 1464.88 1568.97 Q1456.35 1568.97 1451.35 1564 Q1446.39 1559.04 1446.39 1550.57 Q1446.39 1541.82 1451.1 1536.69 Q1455.84 1531.54 1463.86 1531.54 Q1471.05 1531.54 1475.22 1536.18 Q1479.42 1540.8 1479.42 1548.76 M1473.57 1547.04 Q1473.5 1542.23 1470.86 1539.37 Q1468.25 1536.5 1463.92 1536.5 Q1459.02 1536.5 1456.06 1539.27 Q1453.13 1542.04 1452.69 1547.07 L1473.57 1547.04 Z" fill="#000000" fill-rule="nonzero" fill-opacity="1" /><path clip-path="url(#clip030)" d="M1489.04 1518.52 L1494.89 1518.52 L1494.89 1568.04 L1489.04 1568.04 L1489.04 1518.52 Z" fill="#000000" fill-rule="nonzero" fill-opacity="1" /><path clip-path="url(#clip030)" d="M1550.59 1533.45 L1550.59 1538.98 Q1548.11 1537.71 1545.44 1537.07 Q1542.76 1536.44 1539.9 1536.44 Q1535.54 1536.44 1533.34 1537.77 Q1531.18 1539.11 1531.18 1541.79 Q1531.18 1543.82 1532.74 1545 Q1534.3 1546.15 1539.01 1547.2 L1541.01 1547.64 Q1547.25 1548.98 1549.86 1551.43 Q1552.5 1553.85 1552.5 1558.21 Q1552.5 1563.17 1548.56 1566.07 Q1544.64 1568.97 1537.77 1568.97 Q1534.9 1568.97 1531.78 1568.39 Q1528.7 1567.85 1525.26 1566.74 L1525.26 1560.69 Q1528.5 1562.38 1531.66 1563.24 Q1534.81 1564.07 1537.89 1564.07 Q1542.03 1564.07 1544.26 1562.66 Q1546.49 1561.23 1546.49 1558.65 Q1546.49 1556.27 1544.86 1554.99 Q1543.27 1553.72 1537.83 1552.54 L1535.79 1552.07 Q1530.35 1550.92 1527.93 1548.56 Q1525.51 1546.18 1525.51 1542.04 Q1525.51 1537.01 1529.08 1534.27 Q1532.64 1531.54 1539.2 1531.54 Q1542.45 1531.54 1545.31 1532.01 Q1548.17 1532.49 1550.59 1533.45 Z" fill="#000000" fill-rule="nonzero" fill-opacity="1" /><path clip-path="url(#clip030)" d="M1561.83 1532.4 L1567.69 1532.4 L1567.69 1568.04 L1561.83 1568.04 L1561.83 1532.4 M1561.83 1518.52 L1567.69 1518.52 L1567.69 1525.93 L1561.83 1525.93 L1561.83 1518.52 Z" fill="#000000" fill-rule="nonzero" fill-opacity="1" /><path clip-path="url(#clip030)" d="M1577.39 1532.4 L1605.21 1532.4 L1605.21 1537.74 L1583.19 1563.37 L1605.21 1563.37 L1605.21 1568.04 L1576.6 1568.04 L1576.6 1562.7 L1598.62 1537.07 L1577.39 1537.07 L1577.39 1532.4 Z" fill="#000000" fill-rule="nonzero" fill-opacity="1" /><path clip-path="url(#clip030)" d="M1644.65 1548.76 L1644.65 1551.62 L1617.72 1551.62 Q1618.1 1557.67 1621.35 1560.85 Q1624.63 1564 1630.45 1564 Q1633.83 1564 1636.98 1563.17 Q1640.16 1562.35 1643.28 1560.69 L1643.28 1566.23 Q1640.13 1567.57 1636.82 1568.27 Q1633.51 1568.97 1630.1 1568.97 Q1621.57 1568.97 1616.57 1564 Q1611.61 1559.04 1611.61 1550.57 Q1611.61 1541.82 1616.32 1536.69 Q1621.06 1531.54 1629.08 1531.54 Q1636.28 1531.54 1640.45 1536.18 Q1644.65 1540.8 1644.65 1548.76 M1638.79 1547.04 Q1638.73 1542.23 1636.08 1539.37 Q1633.48 1536.5 1629.15 1536.5 Q1624.24 1536.5 1621.28 1539.27 Q1618.36 1542.04 1617.91 1547.07 L1638.79 1547.04 Z" fill="#000000" fill-rule="nonzero" fill-opacity="1" /><polyline clip-path="url(#clip032)" style="stroke:#000000; stroke-linecap:round; stroke-linejoin:round; stroke-width:2; stroke-opacity:0.1; fill:none" points="221.637,1267.18 2352.76,1267.18 "/>
<polyline clip-path="url(#clip032)" style="stroke:#000000; stroke-linecap:round; stroke-linejoin:round; stroke-width:2; stroke-opacity:0.1; fill:none" points="221.637,894.279 2352.76,894.279 "/>
<polyline clip-path="url(#clip032)" style="stroke:#000000; stroke-linecap:round; stroke-linejoin:round; stroke-width:2; stroke-opacity:0.1; fill:none" points="221.637,521.377 2352.76,521.377 "/>
<polyline clip-path="url(#clip030)" style="stroke:#000000; stroke-linecap:round; stroke-linejoin:round; stroke-width:4; stroke-opacity:1; fill:none" points="221.637,1423.18 221.637,192.592 "/>
<polyline clip-path="url(#clip030)" style="stroke:#000000; stroke-linecap:round; stroke-linejoin:round; stroke-width:4; stroke-opacity:1; fill:none" points="221.637,1267.18 240.535,1267.18 "/>
<polyline clip-path="url(#clip030)" style="stroke:#000000; stroke-linecap:round; stroke-linejoin:round; stroke-width:4; stroke-opacity:1; fill:none" points="221.637,894.279 240.535,894.279 "/>
<polyline clip-path="url(#clip030)" style="stroke:#000000; stroke-linecap:round; stroke-linejoin:round; stroke-width:4; stroke-opacity:1; fill:none" points="221.637,521.377 240.535,521.377 "/>
<polyline clip-path="url(#clip030)" style="stroke:#000000; stroke-linecap:round; stroke-linejoin:round; stroke-width:4; stroke-opacity:1; fill:none" points="221.637,1392.94 231.086,1392.94 "/>
<polyline clip-path="url(#clip030)" style="stroke:#000000; stroke-linecap:round; stroke-linejoin:round; stroke-width:4; stroke-opacity:1; fill:none" points="221.637,1339.46 231.086,1339.46 "/>
<polyline clip-path="url(#clip030)" style="stroke:#000000; stroke-linecap:round; stroke-linejoin:round; stroke-width:4; stroke-opacity:1; fill:none" points="221.637,1299.32 231.086,1299.32 "/>
<polyline clip-path="url(#clip030)" style="stroke:#000000; stroke-linecap:round; stroke-linejoin:round; stroke-width:4; stroke-opacity:1; fill:none" points="221.637,1100.44 231.086,1100.44 "/>
<polyline clip-path="url(#clip030)" style="stroke:#000000; stroke-linecap:round; stroke-linejoin:round; stroke-width:4; stroke-opacity:1; fill:none" points="221.637,1020.04 231.086,1020.04 "/>
<polyline clip-path="url(#clip030)" style="stroke:#000000; stroke-linecap:round; stroke-linejoin:round; stroke-width:4; stroke-opacity:1; fill:none" points="221.637,966.555 231.086,966.555 "/>
<polyline clip-path="url(#clip030)" style="stroke:#000000; stroke-linecap:round; stroke-linejoin:round; stroke-width:4; stroke-opacity:1; fill:none" points="221.637,926.418 231.086,926.418 "/>
<polyline clip-path="url(#clip030)" style="stroke:#000000; stroke-linecap:round; stroke-linejoin:round; stroke-width:4; stroke-opacity:1; fill:none" points="221.637,727.533 231.086,727.533 "/>
<polyline clip-path="url(#clip030)" style="stroke:#000000; stroke-linecap:round; stroke-linejoin:round; stroke-width:4; stroke-opacity:1; fill:none" points="221.637,647.136 231.086,647.136 "/>
<polyline clip-path="url(#clip030)" style="stroke:#000000; stroke-linecap:round; stroke-linejoin:round; stroke-width:4; stroke-opacity:1; fill:none" points="221.637,593.653 231.086,593.653 "/>
<polyline clip-path="url(#clip030)" style="stroke:#000000; stroke-linecap:round; stroke-linejoin:round; stroke-width:4; stroke-opacity:1; fill:none" points="221.637,553.516 231.086,553.516 "/>
<polyline clip-path="url(#clip030)" style="stroke:#000000; stroke-linecap:round; stroke-linejoin:round; stroke-width:4; stroke-opacity:1; fill:none" points="221.637,354.631 231.086,354.631 "/>
<polyline clip-path="url(#clip030)" style="stroke:#000000; stroke-linecap:round; stroke-linejoin:round; stroke-width:4; stroke-opacity:1; fill:none" points="221.637,274.234 231.086,274.234 "/>
<polyline clip-path="url(#clip030)" style="stroke:#000000; stroke-linecap:round; stroke-linejoin:round; stroke-width:4; stroke-opacity:1; fill:none" points="221.637,220.751 231.086,220.751 "/>
<path clip-path="url(#clip030)" d="M114.931 1286.97 L122.57 1286.97 L122.57 1260.61 L114.26 1262.28 L114.26 1258.02 L122.524 1256.35 L127.2 1256.35 L127.2 1286.97 L134.839 1286.97 L134.839 1290.91 L114.931 1290.91 L114.931 1286.97 Z" fill="#000000" fill-rule="nonzero" fill-opacity="1" /><path clip-path="url(#clip030)" d="M154.283 1259.43 Q150.672 1259.43 148.843 1262.99 Q147.038 1266.53 147.038 1273.66 Q147.038 1280.77 148.843 1284.34 Q150.672 1287.88 154.283 1287.88 Q157.917 1287.88 159.723 1284.34 Q161.552 1280.77 161.552 1273.66 Q161.552 1266.53 159.723 1262.99 Q157.917 1259.43 154.283 1259.43 M154.283 1255.72 Q160.093 1255.72 163.149 1260.33 Q166.227 1264.91 166.227 1273.66 Q166.227 1282.39 163.149 1287 Q160.093 1291.58 154.283 1291.58 Q148.473 1291.58 145.394 1287 Q142.339 1282.39 142.339 1273.66 Q142.339 1264.91 145.394 1260.33 Q148.473 1255.72 154.283 1255.72 Z" fill="#000000" fill-rule="nonzero" fill-opacity="1" /><path clip-path="url(#clip030)" d="M175.932 1237.92 Q172.998 1237.92 171.512 1240.82 Q170.045 1243.69 170.045 1249.49 Q170.045 1255.26 171.512 1258.16 Q172.998 1261.03 175.932 1261.03 Q178.885 1261.03 180.352 1258.16 Q181.838 1255.26 181.838 1249.49 Q181.838 1243.69 180.352 1240.82 Q178.885 1237.92 175.932 1237.92 M175.932 1234.91 Q180.653 1234.91 183.136 1238.65 Q185.637 1242.38 185.637 1249.49 Q185.637 1256.58 183.136 1260.32 Q180.653 1264.04 175.932 1264.04 Q171.212 1264.04 168.71 1260.32 Q166.227 1256.58 166.227 1249.49 Q166.227 1242.38 168.71 1238.65 Q171.212 1234.91 175.932 1234.91 Z" fill="#000000" fill-rule="nonzero" fill-opacity="1" /><path clip-path="url(#clip030)" d="M117.621 914.072 L125.26 914.072 L125.26 887.706 L116.95 889.373 L116.95 885.114 L125.214 883.447 L129.889 883.447 L129.889 914.072 L137.528 914.072 L137.528 918.007 L117.621 918.007 L117.621 914.072 Z" fill="#000000" fill-rule="nonzero" fill-opacity="1" /><path clip-path="url(#clip030)" d="M156.973 886.526 Q153.362 886.526 151.533 890.091 Q149.727 893.632 149.727 900.762 Q149.727 907.868 151.533 911.433 Q153.362 914.975 156.973 914.975 Q160.607 914.975 162.412 911.433 Q164.241 907.868 164.241 900.762 Q164.241 893.632 162.412 890.091 Q160.607 886.526 156.973 886.526 M156.973 882.822 Q162.783 882.822 165.838 887.429 Q168.917 892.012 168.917 900.762 Q168.917 909.489 165.838 914.095 Q162.783 918.678 156.973 918.678 Q151.162 918.678 148.084 914.095 Q145.028 909.489 145.028 900.762 Q145.028 892.012 148.084 887.429 Q151.162 882.822 156.973 882.822 Z" fill="#000000" fill-rule="nonzero" fill-opacity="1" /><path clip-path="url(#clip030)" d="M169.462 887.399 L175.669 887.399 L175.669 865.977 L168.917 867.331 L168.917 863.871 L175.631 862.517 L179.431 862.517 L179.431 887.399 L185.637 887.399 L185.637 890.597 L169.462 890.597 L169.462 887.399 Z" fill="#000000" fill-rule="nonzero" fill-opacity="1" /><path clip-path="url(#clip030)" d="M116.511 541.17 L124.15 541.17 L124.15 514.804 L115.84 516.471 L115.84 512.212 L124.104 510.545 L128.78 510.545 L128.78 541.17 L136.419 541.17 L136.419 545.105 L116.511 545.105 L116.511 541.17 Z" fill="#000000" fill-rule="nonzero" fill-opacity="1" /><path clip-path="url(#clip030)" d="M155.863 513.624 Q152.252 513.624 150.423 517.188 Q148.618 520.73 148.618 527.86 Q148.618 534.966 150.423 538.531 Q152.252 542.073 155.863 542.073 Q159.497 542.073 161.303 538.531 Q163.131 534.966 163.131 527.86 Q163.131 520.73 161.303 517.188 Q159.497 513.624 155.863 513.624 M155.863 509.92 Q161.673 509.92 164.729 514.526 Q167.807 519.11 167.807 527.86 Q167.807 536.586 164.729 541.193 Q161.673 545.776 155.863 545.776 Q150.053 545.776 146.974 541.193 Q143.919 536.586 143.919 527.86 Q143.919 519.11 146.974 514.526 Q150.053 509.92 155.863 509.92 Z" fill="#000000" fill-rule="nonzero" fill-opacity="1" /><path clip-path="url(#clip030)" d="M172.378 514.497 L185.637 514.497 L185.637 517.695 L167.807 517.695 L167.807 514.497 Q169.97 512.259 173.694 508.498 Q177.437 504.717 178.396 503.626 Q180.22 501.576 180.935 500.166 Q181.669 498.736 181.669 497.363 Q181.669 495.125 180.089 493.715 Q178.528 492.304 176.008 492.304 Q174.221 492.304 172.227 492.925 Q170.252 493.545 167.995 494.805 L167.995 490.969 Q170.29 490.047 172.284 489.577 Q174.277 489.107 175.932 489.107 Q180.296 489.107 182.891 491.288 Q185.487 493.47 185.487 497.119 Q185.487 498.849 184.828 500.41 Q184.189 501.952 182.477 504.059 Q182.007 504.604 179.487 507.219 Q176.967 509.814 172.378 514.497 Z" fill="#000000" fill-rule="nonzero" fill-opacity="1" /><path clip-path="url(#clip030)" d="M41.7242 864.047 Q42.4244 861.979 44.7161 860.037 Q47.0077 858.064 51.0181 856.09 L64.0042 849.565 L64.0042 856.472 L51.8138 862.551 Q47.0395 864.907 45.48 867.135 Q43.9204 869.331 43.9204 873.15 L43.9204 880.153 L64.0042 880.153 L64.0042 886.582 L16.4842 886.582 L16.4842 872.068 Q16.4842 863.92 19.8898 859.91 Q23.2955 855.899 30.1704 855.899 Q34.6582 855.899 37.6183 858 Q40.5784 860.069 41.7242 864.047 M21.7677 880.153 L38.6368 880.153 L38.6368 872.068 Q38.6368 867.421 36.5043 865.066 Q34.34 862.679 30.1704 862.679 Q26.0009 862.679 23.9002 865.066 Q21.7677 867.421 21.7677 872.068 L21.7677 880.153 Z" fill="#000000" fill-rule="nonzero" fill-opacity="1" /><path clip-path="url(#clip030)" d="M46.0847 826.776 Q46.0847 833.874 47.7079 836.611 Q49.3312 839.348 53.2461 839.348 Q56.3653 839.348 58.2114 837.311 Q60.0256 835.243 60.0256 831.71 Q60.0256 826.84 56.5881 823.912 Q53.1188 820.952 47.3897 820.952 L46.0847 820.952 L46.0847 826.776 M43.6657 815.095 L64.0042 815.095 L64.0042 820.952 L58.5933 820.952 Q61.8398 822.957 63.3994 825.949 Q64.9272 828.941 64.9272 833.269 Q64.9272 838.744 61.8716 841.99 Q58.7843 845.205 53.6281 845.205 Q47.6125 845.205 44.5569 841.195 Q41.5014 837.152 41.5014 829.163 L41.5014 820.952 L40.9285 820.952 Q36.8862 820.952 34.6901 823.625 Q32.4621 826.267 32.4621 831.073 Q32.4621 834.129 33.1941 837.025 Q33.9262 839.921 35.3903 842.595 L29.9795 842.595 Q28.7381 839.38 28.1334 836.357 Q27.4968 833.333 27.4968 830.468 Q27.4968 822.734 31.5072 818.915 Q35.5176 815.095 43.6657 815.095 Z" fill="#000000" fill-rule="nonzero" fill-opacity="1" /><path clip-path="url(#clip030)" d="M18.2347 797.239 L28.3562 797.239 L28.3562 785.176 L32.9077 785.176 L32.9077 797.239 L52.2594 797.239 Q56.6199 797.239 57.8613 796.062 Q59.1026 794.852 59.1026 791.192 L59.1026 785.176 L64.0042 785.176 L64.0042 791.192 Q64.0042 797.971 61.4897 800.55 Q58.9434 803.128 52.2594 803.128 L32.9077 803.128 L32.9077 807.424 L28.3562 807.424 L28.3562 803.128 L18.2347 803.128 L18.2347 797.239 Z" fill="#000000" fill-rule="nonzero" fill-opacity="1" /><path clip-path="url(#clip030)" d="M28.3562 777.474 L28.3562 771.617 L64.0042 771.617 L64.0042 777.474 L28.3562 777.474 M14.479 777.474 L14.479 771.617 L21.895 771.617 L21.895 777.474 L14.479 777.474 Z" fill="#000000" fill-rule="nonzero" fill-opacity="1" /><path clip-path="url(#clip030)" d="M32.4621 745.55 Q32.4621 750.26 36.1542 752.998 Q39.8145 755.735 46.212 755.735 Q52.6095 755.735 56.3017 753.03 Q59.9619 750.292 59.9619 745.55 Q59.9619 740.871 56.2698 738.134 Q52.5777 735.396 46.212 735.396 Q39.8781 735.396 36.186 738.134 Q32.4621 740.871 32.4621 745.55 M27.4968 745.55 Q27.4968 737.911 32.4621 733.55 Q37.4273 729.19 46.212 729.19 Q54.9649 729.19 59.9619 733.55 Q64.9272 737.911 64.9272 745.55 Q64.9272 753.22 59.9619 757.581 Q54.9649 761.91 46.212 761.91 Q37.4273 761.91 32.4621 757.581 Q27.4968 753.22 27.4968 745.55 Z" fill="#000000" fill-rule="nonzero" fill-opacity="1" /><path clip-path="url(#clip030)" d="M890.15 30.24 L926.695 30.24 L926.695 35.159 L911.359 35.159 L911.359 73.44 L905.486 73.44 L905.486 35.159 L890.15 35.159 L890.15 30.24 Z" fill="#000000" fill-rule="nonzero" fill-opacity="1" /><path clip-path="url(#clip030)" d="M930.283 41.0328 L935.607 41.0328 L935.607 73.44 L930.283 73.44 L930.283 41.0328 M930.283 28.4171 L935.607 28.4171 L935.607 35.159 L930.283 35.159 L930.283 28.4171 Z" fill="#000000" fill-rule="nonzero" fill-opacity="1" /><path clip-path="url(#clip030)" d="M971.978 47.2538 Q973.975 43.6659 976.753 41.9587 Q979.53 40.2515 983.292 40.2515 Q988.356 40.2515 991.104 43.8105 Q993.853 47.3406 993.853 53.8799 L993.853 73.44 L988.5 73.44 L988.5 54.0535 Q988.5 49.395 986.851 47.1381 Q985.202 44.8811 981.816 44.8811 Q977.678 44.8811 975.277 47.63 Q972.875 50.3788 972.875 55.1241 L972.875 73.44 L967.522 73.44 L967.522 54.0535 Q967.522 49.3661 965.873 47.1381 Q964.224 44.8811 960.78 44.8811 Q956.701 44.8811 954.299 47.6589 Q951.897 50.4077 951.897 55.1241 L951.897 73.44 L946.544 73.44 L946.544 41.0328 L951.897 41.0328 L951.897 46.0675 Q953.72 43.0872 956.267 41.6693 Q958.813 40.2515 962.314 40.2515 Q965.844 40.2515 968.304 42.0455 Q970.792 43.8395 971.978 47.2538 Z" fill="#000000" fill-rule="nonzero" fill-opacity="1" /><path clip-path="url(#clip030)" d="M1032.19 55.9054 L1032.19 58.5095 L1007.71 58.5095 Q1008.06 64.0072 1011.01 66.9007 Q1013.99 69.7653 1019.29 69.7653 Q1022.35 69.7653 1025.22 69.0129 Q1028.11 68.2606 1030.95 66.756 L1030.95 71.7907 Q1028.08 73.006 1025.07 73.6425 Q1022.06 74.2791 1018.97 74.2791 Q1011.21 74.2791 1006.67 69.7653 Q1002.16 65.2514 1002.16 57.5547 Q1002.16 49.5975 1006.44 44.939 Q1010.75 40.2515 1018.04 40.2515 Q1024.58 40.2515 1028.37 44.476 Q1032.19 48.6716 1032.19 55.9054 M1026.87 54.3429 Q1026.81 49.9737 1024.41 47.3695 Q1022.04 44.7654 1018.1 44.7654 Q1013.64 44.7654 1010.95 47.2827 Q1008.29 49.8001 1007.89 54.3718 L1026.87 54.3429 Z" fill="#000000" fill-rule="nonzero" fill-opacity="1" /><path clip-path="url(#clip030)" d="M1078.55 46.0096 Q1077.65 45.4888 1076.58 45.2573 Q1075.54 44.9969 1074.26 44.9969 Q1069.75 44.9969 1067.32 47.9482 Q1064.92 50.8707 1064.92 56.3683 L1064.92 73.44 L1059.56 73.44 L1059.56 41.0328 L1064.92 41.0328 L1064.92 46.0675 Q1066.6 43.1161 1069.29 41.6983 Q1071.98 40.2515 1075.83 40.2515 Q1076.38 40.2515 1077.04 40.3383 Q1077.71 40.3962 1078.52 40.5409 L1078.55 46.0096 Z" fill="#000000" fill-rule="nonzero" fill-opacity="1" /><path clip-path="url(#clip030)" d="M1098.86 57.1496 Q1092.41 57.1496 1089.92 58.6253 Q1087.43 60.101 1087.43 63.66 Q1087.43 66.4956 1089.28 68.1738 Q1091.16 69.8231 1094.37 69.8231 Q1098.8 69.8231 1101.46 66.6981 Q1104.15 63.5442 1104.15 58.3359 L1104.15 57.1496 L1098.86 57.1496 M1109.48 54.9505 L1109.48 73.44 L1104.15 73.44 L1104.15 68.521 Q1102.33 71.4724 1099.61 72.8902 Q1096.89 74.2791 1092.96 74.2791 Q1087.98 74.2791 1085.03 71.5014 Q1082.11 68.6947 1082.11 64.0072 Q1082.11 58.5385 1085.75 55.7607 Q1089.43 52.9829 1096.69 52.9829 L1104.15 52.9829 L1104.15 52.4621 Q1104.15 48.7874 1101.72 46.7908 Q1099.32 44.7654 1094.95 44.7654 Q1092.17 44.7654 1089.54 45.4309 Q1086.91 46.0964 1084.48 47.4274 L1084.48 42.5085 Q1087.4 41.38 1090.15 40.8302 Q1092.9 40.2515 1095.5 40.2515 Q1102.53 40.2515 1106.01 43.8973 Q1109.48 47.5431 1109.48 54.9505 Z" fill="#000000" fill-rule="nonzero" fill-opacity="1" /><path clip-path="url(#clip030)" d="M1125.71 31.8314 L1125.71 41.0328 L1136.68 41.0328 L1136.68 45.1705 L1125.71 45.1705 L1125.71 62.763 Q1125.71 66.7271 1126.78 67.8555 Q1127.88 68.984 1131.21 68.984 L1136.68 68.984 L1136.68 73.44 L1131.21 73.44 Q1125.04 73.44 1122.7 71.1541 Q1120.36 68.8393 1120.36 62.763 L1120.36 45.1705 L1116.45 45.1705 L1116.45 41.0328 L1120.36 41.0328 L1120.36 31.8314 L1125.71 31.8314 Z" fill="#000000" fill-rule="nonzero" fill-opacity="1" /><path clip-path="url(#clip030)" d="M1143.68 41.0328 L1149 41.0328 L1149 73.44 L1143.68 73.44 L1143.68 41.0328 M1143.68 28.4171 L1149 28.4171 L1149 35.159 L1143.68 35.159 L1143.68 28.4171 Z" fill="#000000" fill-rule="nonzero" fill-opacity="1" /><path clip-path="url(#clip030)" d="M1172.7 44.7654 Q1168.42 44.7654 1165.93 48.1218 Q1163.44 51.4494 1163.44 57.2653 Q1163.44 63.0813 1165.9 66.4377 Q1168.39 69.7653 1172.7 69.7653 Q1176.95 69.7653 1179.44 66.4088 Q1181.93 63.0523 1181.93 57.2653 Q1181.93 51.5072 1179.44 48.1508 Q1176.95 44.7654 1172.7 44.7654 M1172.7 40.2515 Q1179.64 40.2515 1183.61 44.7654 Q1187.57 49.2792 1187.57 57.2653 Q1187.57 65.2225 1183.61 69.7653 Q1179.64 74.2791 1172.7 74.2791 Q1165.73 74.2791 1161.76 69.7653 Q1157.83 65.2225 1157.83 57.2653 Q1157.83 49.2792 1161.76 44.7654 Q1165.73 40.2515 1172.7 40.2515 Z" fill="#000000" fill-rule="nonzero" fill-opacity="1" /><path clip-path="url(#clip030)" d="M1197.76 66.0905 L1203.86 66.0905 L1203.86 71.0673 L1199.12 80.3265 L1195.39 80.3265 L1197.76 71.0673 L1197.76 66.0905 Z" fill="#000000" fill-rule="nonzero" fill-opacity="1" /><path clip-path="url(#clip030)" d="M1260.2 31.6578 L1260.2 37.358 Q1256.87 35.7666 1253.92 34.9853 Q1250.97 34.2041 1248.22 34.2041 Q1243.45 34.2041 1240.84 36.0559 Q1238.27 37.9078 1238.27 41.3221 Q1238.27 44.1867 1239.97 45.6624 Q1241.71 47.1091 1246.51 48.0061 L1250.04 48.7295 Q1256.58 49.9737 1259.68 53.1276 Q1262.8 56.2526 1262.8 61.5188 Q1262.8 67.7977 1258.58 71.0384 Q1254.38 74.2791 1246.25 74.2791 Q1243.19 74.2791 1239.71 73.5847 Q1236.27 72.8902 1232.57 71.5303 L1232.57 65.5118 Q1236.13 67.5083 1239.54 68.521 Q1242.95 69.5338 1246.25 69.5338 Q1251.26 69.5338 1253.98 67.5662 Q1256.7 65.5986 1256.7 61.9528 Q1256.7 58.7699 1254.73 56.976 Q1252.79 55.182 1248.34 54.285 L1244.78 53.5906 Q1238.24 52.2885 1235.32 49.5107 Q1232.39 46.733 1232.39 41.7851 Q1232.39 36.0559 1236.42 32.7573 Q1240.47 29.4588 1247.56 29.4588 Q1250.59 29.4588 1253.75 30.0085 Q1256.9 30.5583 1260.2 31.6578 Z" fill="#000000" fill-rule="nonzero" fill-opacity="1" /><path clip-path="url(#clip030)" d="M1285.17 76.4492 Q1282.91 82.2362 1280.77 84.0013 Q1278.63 85.7663 1275.04 85.7663 L1270.79 85.7663 L1270.79 81.3103 L1273.92 81.3103 Q1276.11 81.3103 1277.33 80.2687 Q1278.54 79.227 1280.02 75.3497 L1280.98 72.9192 L1267.87 41.0328 L1273.51 41.0328 L1283.64 66.3799 L1293.76 41.0328 L1299.41 41.0328 L1285.17 76.4492 Z" fill="#000000" fill-rule="nonzero" fill-opacity="1" /><path clip-path="url(#clip030)" d="M1331.99 47.2538 Q1333.98 43.6659 1336.76 41.9587 Q1339.54 40.2515 1343.3 40.2515 Q1348.37 40.2515 1351.11 43.8105 Q1353.86 47.3406 1353.86 53.8799 L1353.86 73.44 L1348.51 73.44 L1348.51 54.0535 Q1348.51 49.395 1346.86 47.1381 Q1345.21 44.8811 1341.83 44.8811 Q1337.69 44.8811 1335.29 47.63 Q1332.88 50.3788 1332.88 55.1241 L1332.88 73.44 L1327.53 73.44 L1327.53 54.0535 Q1327.53 49.3661 1325.88 47.1381 Q1324.23 44.8811 1320.79 44.8811 Q1316.71 44.8811 1314.31 47.6589 Q1311.91 50.4077 1311.91 55.1241 L1311.91 73.44 L1306.55 73.44 L1306.55 41.0328 L1311.91 41.0328 L1311.91 46.0675 Q1313.73 43.0872 1316.28 41.6693 Q1318.82 40.2515 1322.32 40.2515 Q1325.85 40.2515 1328.31 42.0455 Q1330.8 43.8395 1331.99 47.2538 Z" fill="#000000" fill-rule="nonzero" fill-opacity="1" /><path clip-path="url(#clip030)" d="M1387.75 57.2653 Q1387.75 51.3915 1385.32 48.064 Q1382.91 44.7075 1378.69 44.7075 Q1374.46 44.7075 1372.03 48.064 Q1369.63 51.3915 1369.63 57.2653 Q1369.63 63.1391 1372.03 66.4956 Q1374.46 69.8231 1378.69 69.8231 Q1382.91 69.8231 1385.32 66.4956 Q1387.75 63.1391 1387.75 57.2653 M1369.63 45.9517 Q1371.31 43.0582 1373.86 41.6693 Q1376.43 40.2515 1379.99 40.2515 Q1385.89 40.2515 1389.57 44.939 Q1393.27 49.6265 1393.27 57.2653 Q1393.27 64.9042 1389.57 69.5916 Q1385.89 74.2791 1379.99 74.2791 Q1376.43 74.2791 1373.86 72.8902 Q1371.31 71.4724 1369.63 68.5789 L1369.63 73.44 L1364.28 73.44 L1364.28 28.4171 L1369.63 28.4171 L1369.63 45.9517 Z" fill="#000000" fill-rule="nonzero" fill-opacity="1" /><path clip-path="url(#clip030)" d="M1414.66 44.7654 Q1410.37 44.7654 1407.88 48.1218 Q1405.4 51.4494 1405.4 57.2653 Q1405.4 63.0813 1407.86 66.4377 Q1410.34 69.7653 1414.66 69.7653 Q1418.91 69.7653 1421.4 66.4088 Q1423.89 63.0523 1423.89 57.2653 Q1423.89 51.5072 1421.4 48.1508 Q1418.91 44.7654 1414.66 44.7654 M1414.66 40.2515 Q1421.6 40.2515 1425.56 44.7654 Q1429.53 49.2792 1429.53 57.2653 Q1429.53 65.2225 1425.56 69.7653 Q1421.6 74.2791 1414.66 74.2791 Q1407.68 74.2791 1403.72 69.7653 Q1399.78 65.2225 1399.78 57.2653 Q1399.78 49.2792 1403.72 44.7654 Q1407.68 40.2515 1414.66 40.2515 Z" fill="#000000" fill-rule="nonzero" fill-opacity="1" /><path clip-path="url(#clip030)" d="M1438.35 28.4171 L1443.68 28.4171 L1443.68 73.44 L1438.35 73.44 L1438.35 28.4171 Z" fill="#000000" fill-rule="nonzero" fill-opacity="1" /><path clip-path="url(#clip030)" d="M1454.82 41.0328 L1460.14 41.0328 L1460.14 73.44 L1454.82 73.44 L1454.82 41.0328 M1454.82 28.4171 L1460.14 28.4171 L1460.14 35.159 L1454.82 35.159 L1454.82 28.4171 Z" fill="#000000" fill-rule="nonzero" fill-opacity="1" /><path clip-path="url(#clip030)" d="M1494.6 42.277 L1494.6 47.2538 Q1492.35 46.0096 1490.06 45.402 Q1487.8 44.7654 1485.49 44.7654 Q1480.31 44.7654 1477.44 48.064 Q1474.58 51.3336 1474.58 57.2653 Q1474.58 63.197 1477.44 66.4956 Q1480.31 69.7653 1485.49 69.7653 Q1487.8 69.7653 1490.06 69.1576 Q1492.35 68.521 1494.6 67.2768 L1494.6 72.1958 Q1492.37 73.2375 1489.97 73.7583 Q1487.6 74.2791 1484.91 74.2791 Q1477.59 74.2791 1473.28 69.6784 Q1468.97 65.0778 1468.97 57.2653 Q1468.97 49.3371 1473.31 44.7943 Q1477.68 40.2515 1485.26 40.2515 Q1487.72 40.2515 1490.06 40.7724 Q1492.4 41.2642 1494.6 42.277 Z" fill="#000000" fill-rule="nonzero" fill-opacity="1" /><path clip-path="url(#clip030)" d="M1524.52 41.9876 L1524.52 47.0223 Q1522.26 45.8649 1519.83 45.2862 Q1517.4 44.7075 1514.8 44.7075 Q1510.84 44.7075 1508.84 45.9228 Q1506.87 47.1381 1506.87 49.5686 Q1506.87 51.4204 1508.29 52.491 Q1509.71 53.5327 1513.99 54.4876 L1515.81 54.8926 Q1521.48 56.1079 1523.86 58.3359 Q1526.26 60.535 1526.26 64.4991 Q1526.26 69.0129 1522.67 71.646 Q1519.11 74.2791 1512.86 74.2791 Q1510.26 74.2791 1507.42 73.7583 Q1504.61 73.2664 1501.49 72.2537 L1501.49 66.756 Q1504.44 68.2896 1507.31 69.0708 Q1510.17 69.8231 1512.98 69.8231 Q1516.74 69.8231 1518.76 68.55 Q1520.79 67.2479 1520.79 64.9042 Q1520.79 62.734 1519.31 61.5766 Q1517.87 60.4192 1512.92 59.3486 L1511.07 58.9146 Q1506.12 57.873 1503.92 55.7318 Q1501.72 53.5616 1501.72 49.8001 Q1501.72 45.2283 1504.96 42.7399 Q1508.2 40.2515 1514.16 40.2515 Q1517.11 40.2515 1519.72 40.6855 Q1522.32 41.1196 1524.52 41.9876 Z" fill="#000000" fill-rule="nonzero" fill-opacity="1" /><path clip-path="url(#clip030)" d="M1544.2 30.24 L1549.12 30.24 L1534.07 78.9377 L1529.15 78.9377 L1544.2 30.24 Z" fill="#000000" fill-rule="nonzero" fill-opacity="1" /><path clip-path="url(#clip030)" d="M1554.93 30.24 L1579.76 30.24 L1579.76 35.159 L1560.78 35.159 L1560.78 47.8904 L1577.91 47.8904 L1577.91 52.8093 L1560.78 52.8093 L1560.78 73.44 L1554.93 73.44 L1554.93 30.24 Z" fill="#000000" fill-rule="nonzero" fill-opacity="1" /><path clip-path="url(#clip030)" d="M1613.87 31.6578 L1613.87 37.358 Q1610.55 35.7666 1607.59 34.9853 Q1604.64 34.2041 1601.89 34.2041 Q1597.12 34.2041 1594.52 36.0559 Q1591.94 37.9078 1591.94 41.3221 Q1591.94 44.1867 1593.65 45.6624 Q1595.38 47.1091 1600.19 48.0061 L1603.72 48.7295 Q1610.26 49.9737 1613.35 53.1276 Q1616.48 56.2526 1616.48 61.5188 Q1616.48 67.7977 1612.25 71.0384 Q1608.06 74.2791 1599.93 74.2791 Q1596.86 74.2791 1593.39 73.5847 Q1589.94 72.8902 1586.24 71.5303 L1586.24 65.5118 Q1589.8 67.5083 1593.21 68.521 Q1596.63 69.5338 1599.93 69.5338 Q1604.93 69.5338 1607.65 67.5662 Q1610.37 65.5986 1610.37 61.9528 Q1610.37 58.7699 1608.4 56.976 Q1606.47 55.182 1602.01 54.285 L1598.45 53.5906 Q1591.91 52.2885 1588.99 49.5107 Q1586.07 46.733 1586.07 41.7851 Q1586.07 36.0559 1590.09 32.7573 Q1594.14 29.4588 1601.23 29.4588 Q1604.27 29.4588 1607.42 30.0085 Q1610.57 30.5583 1613.87 31.6578 Z" fill="#000000" fill-rule="nonzero" fill-opacity="1" /><path clip-path="url(#clip030)" d="M1631.44 35.0432 L1631.44 68.6368 L1638.5 68.6368 Q1647.44 68.6368 1651.58 64.5859 Q1655.74 60.535 1655.74 51.7966 Q1655.74 43.1161 1651.58 39.0941 Q1647.44 35.0432 1638.5 35.0432 L1631.44 35.0432 M1625.59 30.24 L1637.6 30.24 Q1650.16 30.24 1656.03 35.4772 Q1661.91 40.6855 1661.91 51.7966 Q1661.91 62.9655 1656 68.2028 Q1650.1 73.44 1637.6 73.44 L1625.59 73.44 L1625.59 30.24 Z" fill="#000000" fill-rule="nonzero" fill-opacity="1" /><path clip-path="url(#clip030)" d="M1145.43 107.077 L1145.43 112.054 Q1143.17 110.81 1140.89 110.202 Q1138.63 109.565 1136.31 109.565 Q1131.14 109.565 1128.27 112.864 Q1125.41 116.134 1125.41 122.065 Q1125.41 127.997 1128.27 131.296 Q1131.14 134.565 1136.31 134.565 Q1138.63 134.565 1140.89 133.958 Q1143.17 133.321 1145.43 132.077 L1145.43 136.996 Q1143.2 138.037 1140.8 138.558 Q1138.43 139.079 1135.74 139.079 Q1128.42 139.079 1124.1 134.478 Q1119.79 129.878 1119.79 122.065 Q1119.79 114.137 1124.13 109.594 Q1128.5 105.052 1136.08 105.052 Q1138.54 105.052 1140.89 105.572 Q1143.23 106.064 1145.43 107.077 Z" fill="#000000" fill-rule="nonzero" fill-opacity="1" /><path clip-path="url(#clip030)" d="M1181.63 118.68 L1181.63 138.24 L1176.3 138.24 L1176.3 118.854 Q1176.3 114.253 1174.51 111.967 Q1172.72 109.681 1169.13 109.681 Q1164.82 109.681 1162.33 112.43 Q1159.84 115.179 1159.84 119.924 L1159.84 138.24 L1154.49 138.24 L1154.49 93.2171 L1159.84 93.2171 L1159.84 110.867 Q1161.75 107.945 1164.32 106.498 Q1166.93 105.052 1170.31 105.052 Q1175.9 105.052 1178.76 108.524 Q1181.63 111.967 1181.63 118.68 Z" fill="#000000" fill-rule="nonzero" fill-opacity="1" /><path clip-path="url(#clip030)" d="M1219.97 120.705 L1219.97 123.31 L1195.49 123.31 Q1195.83 128.807 1198.79 131.701 Q1201.77 134.565 1207.06 134.565 Q1210.13 134.565 1212.99 133.813 Q1215.89 133.061 1218.72 131.556 L1218.72 136.591 Q1215.86 137.806 1212.85 138.443 Q1209.84 139.079 1206.74 139.079 Q1198.99 139.079 1194.45 134.565 Q1189.93 130.051 1189.93 122.355 Q1189.93 114.398 1194.21 109.739 Q1198.53 105.052 1205.82 105.052 Q1212.36 105.052 1216.15 109.276 Q1219.97 113.472 1219.97 120.705 M1214.64 119.143 Q1214.58 114.774 1212.18 112.17 Q1209.81 109.565 1205.87 109.565 Q1201.42 109.565 1198.73 112.083 Q1196.07 114.6 1195.66 119.172 L1214.64 119.143 Z" fill="#000000" fill-rule="nonzero" fill-opacity="1" /><path clip-path="url(#clip030)" d="M1251.97 122.065 Q1251.97 116.192 1249.54 112.864 Q1247.14 109.508 1242.91 109.508 Q1238.69 109.508 1236.26 112.864 Q1233.85 116.192 1233.85 122.065 Q1233.85 127.939 1236.26 131.296 Q1238.69 134.623 1242.91 134.623 Q1247.14 134.623 1249.54 131.296 Q1251.97 127.939 1251.97 122.065 M1233.85 110.752 Q1235.53 107.858 1238.08 106.469 Q1240.65 105.052 1244.21 105.052 Q1250.12 105.052 1253.79 109.739 Q1257.49 114.426 1257.49 122.065 Q1257.49 129.704 1253.79 134.392 Q1250.12 139.079 1244.21 139.079 Q1240.65 139.079 1238.08 137.69 Q1235.53 136.272 1233.85 133.379 L1233.85 138.24 L1228.5 138.24 L1228.5 93.2171 L1233.85 93.2171 L1233.85 110.752 Z" fill="#000000" fill-rule="nonzero" fill-opacity="1" /><path clip-path="url(#clip030)" d="M1279.8 141.249 Q1277.55 147.036 1275.41 148.801 Q1273.26 150.566 1269.68 150.566 L1265.42 150.566 L1265.42 146.11 L1268.55 146.11 Q1270.75 146.11 1271.96 145.069 Q1273.18 144.027 1274.65 140.15 L1275.61 137.719 L1262.5 105.833 L1268.14 105.833 L1278.27 131.18 L1288.4 105.833 L1294.04 105.833 L1279.8 141.249 Z" fill="#000000" fill-rule="nonzero" fill-opacity="1" /><path clip-path="url(#clip030)" d="M1322.05 106.788 L1322.05 111.822 Q1319.79 110.665 1317.36 110.086 Q1314.93 109.508 1312.33 109.508 Q1308.36 109.508 1306.37 110.723 Q1304.4 111.938 1304.4 114.369 Q1304.4 116.22 1305.82 117.291 Q1307.23 118.333 1311.52 119.288 L1313.34 119.693 Q1319.01 120.908 1321.38 123.136 Q1323.78 125.335 1323.78 129.299 Q1323.78 133.813 1320.2 136.446 Q1316.64 139.079 1310.39 139.079 Q1307.78 139.079 1304.95 138.558 Q1302.14 138.066 1299.02 137.054 L1299.02 131.556 Q1301.97 133.09 1304.83 133.871 Q1307.7 134.623 1310.5 134.623 Q1314.27 134.623 1316.29 133.35 Q1318.32 132.048 1318.32 129.704 Q1318.32 127.534 1316.84 126.377 Q1315.39 125.219 1310.45 124.149 L1308.59 123.715 Q1303.65 122.673 1301.45 120.532 Q1299.25 118.362 1299.25 114.6 Q1299.25 110.028 1302.49 107.54 Q1305.73 105.052 1311.69 105.052 Q1314.64 105.052 1317.25 105.486 Q1319.85 105.92 1322.05 106.788 Z" fill="#000000" fill-rule="nonzero" fill-opacity="1" /><path clip-path="url(#clip030)" d="M1359.2 118.68 L1359.2 138.24 L1353.88 138.24 L1353.88 118.854 Q1353.88 114.253 1352.08 111.967 Q1350.29 109.681 1346.7 109.681 Q1342.39 109.681 1339.9 112.43 Q1337.41 115.179 1337.41 119.924 L1337.41 138.24 L1332.06 138.24 L1332.06 93.2171 L1337.41 93.2171 L1337.41 110.867 Q1339.32 107.945 1341.9 106.498 Q1344.5 105.052 1347.89 105.052 Q1353.47 105.052 1356.34 108.524 Q1359.2 111.967 1359.2 118.68 Z" fill="#000000" fill-rule="nonzero" fill-opacity="1" /><path clip-path="url(#clip030)" d="M1397.54 120.705 L1397.54 123.31 L1373.06 123.31 Q1373.41 128.807 1376.36 131.701 Q1379.34 134.565 1384.64 134.565 Q1387.7 134.565 1390.57 133.813 Q1393.46 133.061 1396.3 131.556 L1396.3 136.591 Q1393.43 137.806 1390.42 138.443 Q1387.41 139.079 1384.32 139.079 Q1376.56 139.079 1372.02 134.565 Q1367.51 130.051 1367.51 122.355 Q1367.51 114.398 1371.79 109.739 Q1376.1 105.052 1383.39 105.052 Q1389.93 105.052 1393.72 109.276 Q1397.54 113.472 1397.54 120.705 M1392.22 119.143 Q1392.16 114.774 1389.76 112.17 Q1387.38 109.565 1383.45 109.565 Q1378.99 109.565 1376.3 112.083 Q1373.64 114.6 1373.23 119.172 L1392.22 119.143 Z" fill="#000000" fill-rule="nonzero" fill-opacity="1" /><path clip-path="url(#clip030)" d="M1402.46 105.833 L1408.1 105.833 L1418.23 133.032 L1428.36 105.833 L1434 105.833 L1421.85 138.24 L1414.61 138.24 L1402.46 105.833 Z" fill="#000000" fill-rule="nonzero" fill-opacity="1" /><path clip-path="url(#clip030)" d="M662.706 159.84 L671.416 159.84 L682.44 189.238 L693.522 159.84 L702.231 159.84 L702.231 203.04 L696.531 203.04 L696.531 165.106 L685.391 194.736 L679.517 194.736 L668.377 165.106 L668.377 203.04 L662.706 203.04 L662.706 159.84 Z" fill="#000000" fill-rule="nonzero" fill-opacity="1" /><path clip-path="url(#clip030)" d="M728.331 186.75 Q721.878 186.75 719.39 188.225 Q716.902 189.701 716.902 193.26 Q716.902 196.096 718.753 197.774 Q720.634 199.423 723.846 199.423 Q728.273 199.423 730.935 196.298 Q733.626 193.144 733.626 187.936 L733.626 186.75 L728.331 186.75 M738.95 184.551 L738.95 203.04 L733.626 203.04 L733.626 198.121 Q731.803 201.072 729.083 202.49 Q726.363 203.879 722.428 203.879 Q717.451 203.879 714.5 201.101 Q711.577 198.295 711.577 193.607 Q711.577 188.138 715.223 185.361 Q718.898 182.583 726.161 182.583 L733.626 182.583 L733.626 182.062 Q733.626 178.387 731.195 176.391 Q728.794 174.365 724.425 174.365 Q721.647 174.365 719.014 175.031 Q716.381 175.696 713.95 177.027 L713.95 172.108 Q716.873 170.98 719.621 170.43 Q722.37 169.852 724.974 169.852 Q732.006 169.852 735.478 173.497 Q738.95 177.143 738.95 184.551 Z" fill="#000000" fill-rule="nonzero" fill-opacity="1" /><path clip-path="url(#clip030)" d="M749.714 158.017 L755.067 158.017 L755.067 184.608 L770.952 170.633 L777.752 170.633 L760.564 185.795 L778.475 203.04 L771.531 203.04 L755.067 187.213 L755.067 203.04 L749.714 203.04 L749.714 158.017 Z" fill="#000000" fill-rule="nonzero" fill-opacity="1" /><path clip-path="url(#clip030)" d="M809.841 185.505 L809.841 188.11 L785.362 188.11 Q785.709 193.607 788.66 196.501 Q791.641 199.365 796.936 199.365 Q800.003 199.365 802.867 198.613 Q805.761 197.861 808.597 196.356 L808.597 201.391 Q805.732 202.606 802.723 203.243 Q799.714 203.879 796.618 203.879 Q788.863 203.879 784.32 199.365 Q779.806 194.851 779.806 187.155 Q779.806 179.198 784.089 174.539 Q788.4 169.852 795.692 169.852 Q802.231 169.852 806.021 174.076 Q809.841 178.272 809.841 185.505 M804.517 183.943 Q804.459 179.574 802.057 176.97 Q799.685 174.365 795.749 174.365 Q791.293 174.365 788.603 176.883 Q785.941 179.4 785.535 183.972 L804.517 183.943 Z" fill="#000000" fill-rule="nonzero" fill-opacity="1" /><path clip-path="url(#clip030)" d="M818.811 159.84 L843.637 159.84 L843.637 164.759 L824.656 164.759 L824.656 177.49 L841.785 177.49 L841.785 182.409 L824.656 182.409 L824.656 203.04 L818.811 203.04 L818.811 159.84 Z" fill="#000000" fill-rule="nonzero" fill-opacity="1" /><path clip-path="url(#clip030)" d="M848.874 190.251 L848.874 170.633 L854.198 170.633 L854.198 190.048 Q854.198 194.649 855.992 196.964 Q857.786 199.25 861.374 199.25 Q865.685 199.25 868.174 196.501 Q870.691 193.752 870.691 189.007 L870.691 170.633 L876.015 170.633 L876.015 203.04 L870.691 203.04 L870.691 198.063 Q868.753 201.015 866.177 202.461 Q863.631 203.879 860.246 203.879 Q854.661 203.879 851.768 200.407 Q848.874 196.935 848.874 190.251 M862.271 169.852 L862.271 169.852 Z" fill="#000000" fill-rule="nonzero" fill-opacity="1" /><path clip-path="url(#clip030)" d="M913.92 183.48 L913.92 203.04 L908.596 203.04 L908.596 183.654 Q908.596 179.053 906.802 176.767 Q905.008 174.481 901.42 174.481 Q897.109 174.481 894.62 177.23 Q892.132 179.979 892.132 184.724 L892.132 203.04 L886.779 203.04 L886.779 170.633 L892.132 170.633 L892.132 175.667 Q894.042 172.745 896.617 171.298 Q899.221 169.852 902.607 169.852 Q908.191 169.852 911.056 173.324 Q913.92 176.767 913.92 183.48 Z" fill="#000000" fill-rule="nonzero" fill-opacity="1" /><path clip-path="url(#clip030)" d="M947.861 171.877 L947.861 176.854 Q945.604 175.61 943.318 175.002 Q941.061 174.365 938.746 174.365 Q933.567 174.365 930.702 177.664 Q927.838 180.934 927.838 186.865 Q927.838 192.797 930.702 196.096 Q933.567 199.365 938.746 199.365 Q941.061 199.365 943.318 198.758 Q945.604 198.121 947.861 196.877 L947.861 201.796 Q945.633 202.837 943.231 203.358 Q940.859 203.879 938.168 203.879 Q930.847 203.879 926.536 199.278 Q922.224 194.678 922.224 186.865 Q922.224 178.937 926.565 174.394 Q930.934 169.852 938.515 169.852 Q940.974 169.852 943.318 170.372 Q945.662 170.864 947.861 171.877 Z" fill="#000000" fill-rule="nonzero" fill-opacity="1" /><path clip-path="url(#clip030)" d="M962.386 161.431 L962.386 170.633 L973.353 170.633 L973.353 174.77 L962.386 174.77 L962.386 192.363 Q962.386 196.327 963.457 197.456 Q964.556 198.584 967.884 198.584 L973.353 198.584 L973.353 203.04 L967.884 203.04 Q961.721 203.04 959.377 200.754 Q957.033 198.439 957.033 192.363 L957.033 174.77 L953.127 174.77 L953.127 170.633 L957.033 170.633 L957.033 161.431 L962.386 161.431 Z" fill="#000000" fill-rule="nonzero" fill-opacity="1" /><path clip-path="url(#clip030)" d="M980.355 170.633 L985.679 170.633 L985.679 203.04 L980.355 203.04 L980.355 170.633 M980.355 158.017 L985.679 158.017 L985.679 164.759 L980.355 164.759 L980.355 158.017 Z" fill="#000000" fill-rule="nonzero" fill-opacity="1" /><path clip-path="url(#clip030)" d="M1009.38 174.365 Q1005.09 174.365 1002.61 177.722 Q1000.12 181.049 1000.12 186.865 Q1000.12 192.681 1002.58 196.038 Q1005.07 199.365 1009.38 199.365 Q1013.63 199.365 1016.12 196.009 Q1018.61 192.652 1018.61 186.865 Q1018.61 181.107 1016.12 177.751 Q1013.63 174.365 1009.38 174.365 M1009.38 169.852 Q1016.32 169.852 1020.29 174.365 Q1024.25 178.879 1024.25 186.865 Q1024.25 194.822 1020.29 199.365 Q1016.32 203.879 1009.38 203.879 Q1002.4 203.879 998.439 199.365 Q994.504 194.822 994.504 186.865 Q994.504 178.879 998.439 174.365 Q1002.4 169.852 1009.38 169.852 Z" fill="#000000" fill-rule="nonzero" fill-opacity="1" /><path clip-path="url(#clip030)" d="M1060.01 183.48 L1060.01 203.04 L1054.69 203.04 L1054.69 183.654 Q1054.69 179.053 1052.9 176.767 Q1051.1 174.481 1047.51 174.481 Q1043.2 174.481 1040.71 177.23 Q1038.23 179.979 1038.23 184.724 L1038.23 203.04 L1032.87 203.04 L1032.87 170.633 L1038.23 170.633 L1038.23 175.667 Q1040.13 172.745 1042.71 171.298 Q1045.31 169.852 1048.7 169.852 Q1054.28 169.852 1057.15 173.324 Q1060.01 176.767 1060.01 183.48 Z" fill="#000000" fill-rule="nonzero" fill-opacity="1" /><path clip-path="url(#clip030)" d="M1112.73 186.865 Q1112.73 180.992 1110.3 177.664 Q1107.9 174.308 1103.68 174.308 Q1099.45 174.308 1097.02 177.664 Q1094.62 180.992 1094.62 186.865 Q1094.62 192.739 1097.02 196.096 Q1099.45 199.423 1103.68 199.423 Q1107.9 199.423 1110.3 196.096 Q1112.73 192.739 1112.73 186.865 M1094.62 175.552 Q1096.3 172.658 1098.84 171.269 Q1101.42 169.852 1104.98 169.852 Q1110.88 169.852 1114.56 174.539 Q1118.26 179.226 1118.26 186.865 Q1118.26 194.504 1114.56 199.192 Q1110.88 203.879 1104.98 203.879 Q1101.42 203.879 1098.84 202.49 Q1096.3 201.072 1094.62 198.179 L1094.62 203.04 L1089.27 203.04 L1089.27 158.017 L1094.62 158.017 L1094.62 175.552 Z" fill="#000000" fill-rule="nonzero" fill-opacity="1" /><path clip-path="url(#clip030)" d="M1154.8 185.505 L1154.8 188.11 L1130.33 188.11 Q1130.67 193.607 1133.62 196.501 Q1136.6 199.365 1141.9 199.365 Q1144.97 199.365 1147.83 198.613 Q1150.72 197.861 1153.56 196.356 L1153.56 201.391 Q1150.7 202.606 1147.69 203.243 Q1144.68 203.879 1141.58 203.879 Q1133.83 203.879 1129.28 199.365 Q1124.77 194.851 1124.77 187.155 Q1124.77 179.198 1129.05 174.539 Q1133.36 169.852 1140.66 169.852 Q1147.19 169.852 1150.98 174.076 Q1154.8 178.272 1154.8 185.505 M1149.48 183.943 Q1149.42 179.574 1147.02 176.97 Q1144.65 174.365 1140.71 174.365 Q1136.26 174.365 1133.57 176.883 Q1130.9 179.4 1130.5 183.972 L1149.48 183.943 Z" fill="#000000" fill-rule="nonzero" fill-opacity="1" /><path clip-path="url(#clip030)" d="M1190.48 183.48 L1190.48 203.04 L1185.16 203.04 L1185.16 183.654 Q1185.16 179.053 1183.36 176.767 Q1181.57 174.481 1177.98 174.481 Q1173.67 174.481 1171.18 177.23 Q1168.69 179.979 1168.69 184.724 L1168.69 203.04 L1163.34 203.04 L1163.34 170.633 L1168.69 170.633 L1168.69 175.667 Q1170.6 172.745 1173.18 171.298 Q1175.78 169.852 1179.17 169.852 Q1184.75 169.852 1187.62 173.324 Q1190.48 176.767 1190.48 183.48 Z" fill="#000000" fill-rule="nonzero" fill-opacity="1" /><path clip-path="url(#clip030)" d="M1224.42 171.877 L1224.42 176.854 Q1222.17 175.61 1219.88 175.002 Q1217.62 174.365 1215.31 174.365 Q1210.13 174.365 1207.26 177.664 Q1204.4 180.934 1204.4 186.865 Q1204.4 192.797 1207.26 196.096 Q1210.13 199.365 1215.31 199.365 Q1217.62 199.365 1219.88 198.758 Q1222.17 198.121 1224.42 196.877 L1224.42 201.796 Q1222.19 202.837 1219.79 203.358 Q1217.42 203.879 1214.73 203.879 Q1207.41 203.879 1203.1 199.278 Q1198.79 194.678 1198.79 186.865 Q1198.79 178.937 1203.13 174.394 Q1207.49 169.852 1215.08 169.852 Q1217.54 169.852 1219.88 170.372 Q1222.22 170.864 1224.42 171.877 Z" fill="#000000" fill-rule="nonzero" fill-opacity="1" /><path clip-path="url(#clip030)" d="M1260.62 183.48 L1260.62 203.04 L1255.3 203.04 L1255.3 183.654 Q1255.3 179.053 1253.5 176.767 Q1251.71 174.481 1248.12 174.481 Q1243.81 174.481 1241.32 177.23 Q1238.83 179.979 1238.83 184.724 L1238.83 203.04 L1233.48 203.04 L1233.48 158.017 L1238.83 158.017 L1238.83 175.667 Q1240.74 172.745 1243.32 171.298 Q1245.92 169.852 1249.31 169.852 Q1254.89 169.852 1257.76 173.324 Q1260.62 176.767 1260.62 183.48 Z" fill="#000000" fill-rule="nonzero" fill-opacity="1" /><path clip-path="url(#clip030)" d="M1296.47 176.854 Q1298.47 173.266 1301.24 171.559 Q1304.02 169.852 1307.78 169.852 Q1312.85 169.852 1315.6 173.411 Q1318.35 176.941 1318.35 183.48 L1318.35 203.04 L1312.99 203.04 L1312.99 183.654 Q1312.99 178.995 1311.34 176.738 Q1309.69 174.481 1306.31 174.481 Q1302.17 174.481 1299.77 177.23 Q1297.37 179.979 1297.37 184.724 L1297.37 203.04 L1292.01 203.04 L1292.01 183.654 Q1292.01 178.966 1290.36 176.738 Q1288.72 174.481 1285.27 174.481 Q1281.19 174.481 1278.79 177.259 Q1276.39 180.008 1276.39 184.724 L1276.39 203.04 L1271.04 203.04 L1271.04 170.633 L1276.39 170.633 L1276.39 175.667 Q1278.21 172.687 1280.76 171.269 Q1283.3 169.852 1286.81 169.852 Q1290.34 169.852 1292.8 171.645 Q1295.28 173.439 1296.47 176.854 Z" fill="#000000" fill-rule="nonzero" fill-opacity="1" /><path clip-path="url(#clip030)" d="M1343.69 186.75 Q1337.24 186.75 1334.75 188.225 Q1332.26 189.701 1332.26 193.26 Q1332.26 196.096 1334.11 197.774 Q1336 199.423 1339.21 199.423 Q1343.63 199.423 1346.3 196.298 Q1348.99 193.144 1348.99 187.936 L1348.99 186.75 L1343.69 186.75 M1354.31 184.551 L1354.31 203.04 L1348.99 203.04 L1348.99 198.121 Q1347.16 201.072 1344.44 202.49 Q1341.72 203.879 1337.79 203.879 Q1332.81 203.879 1329.86 201.101 Q1326.94 198.295 1326.94 193.607 Q1326.94 188.138 1330.58 185.361 Q1334.26 182.583 1341.52 182.583 L1348.99 182.583 L1348.99 182.062 Q1348.99 178.387 1346.56 176.391 Q1344.16 174.365 1339.79 174.365 Q1337.01 174.365 1334.38 175.031 Q1331.74 175.696 1329.31 177.027 L1329.31 172.108 Q1332.23 170.98 1334.98 170.43 Q1337.73 169.852 1340.34 169.852 Q1347.37 169.852 1350.84 173.497 Q1354.31 177.143 1354.31 184.551 Z" fill="#000000" fill-rule="nonzero" fill-opacity="1" /><path clip-path="url(#clip030)" d="M1384.06 175.61 Q1383.16 175.089 1382.09 174.857 Q1381.05 174.597 1379.77 174.597 Q1375.26 174.597 1372.83 177.548 Q1370.43 180.471 1370.43 185.968 L1370.43 203.04 L1365.08 203.04 L1365.08 170.633 L1370.43 170.633 L1370.43 175.667 Q1372.11 172.716 1374.8 171.298 Q1377.49 169.852 1381.34 169.852 Q1381.89 169.852 1382.55 169.938 Q1383.22 169.996 1384.03 170.141 L1384.06 175.61 Z" fill="#000000" fill-rule="nonzero" fill-opacity="1" /><path clip-path="url(#clip030)" d="M1389.44 158.017 L1394.79 158.017 L1394.79 184.608 L1410.68 170.633 L1417.48 170.633 L1400.29 185.795 L1418.2 203.04 L1411.26 203.04 L1394.79 187.213 L1394.79 203.04 L1389.44 203.04 L1389.44 158.017 Z" fill="#000000" fill-rule="nonzero" fill-opacity="1" /><path clip-path="url(#clip030)" d="M1425.32 195.691 L1431.42 195.691 L1431.42 200.667 L1426.68 209.927 L1422.95 209.927 L1425.32 200.667 L1425.32 195.691 Z" fill="#000000" fill-rule="nonzero" fill-opacity="1" /><path clip-path="url(#clip030)" d="M1482.29 171.588 L1482.29 176.622 Q1480.03 175.465 1477.6 174.886 Q1475.17 174.308 1472.57 174.308 Q1468.6 174.308 1466.61 175.523 Q1464.64 176.738 1464.64 179.169 Q1464.64 181.02 1466.06 182.091 Q1467.48 183.133 1471.76 184.088 L1473.58 184.493 Q1479.25 185.708 1481.63 187.936 Q1484.03 190.135 1484.03 194.099 Q1484.03 198.613 1480.44 201.246 Q1476.88 203.879 1470.63 203.879 Q1468.03 203.879 1465.19 203.358 Q1462.38 202.866 1459.26 201.854 L1459.26 196.356 Q1462.21 197.89 1465.07 198.671 Q1467.94 199.423 1470.75 199.423 Q1474.51 199.423 1476.53 198.15 Q1478.56 196.848 1478.56 194.504 Q1478.56 192.334 1477.08 191.177 Q1475.64 190.019 1470.69 188.949 L1468.84 188.515 Q1463.89 187.473 1461.69 185.332 Q1459.49 183.162 1459.49 179.4 Q1459.49 174.828 1462.73 172.34 Q1465.97 169.852 1471.93 169.852 Q1474.88 169.852 1477.49 170.286 Q1480.09 170.72 1482.29 171.588 Z" fill="#000000" fill-rule="nonzero" fill-opacity="1" /><path clip-path="url(#clip030)" d="M1492.51 170.633 L1497.83 170.633 L1497.83 203.04 L1492.51 203.04 L1492.51 170.633 M1492.51 158.017 L1497.83 158.017 L1497.83 164.759 L1492.51 164.759 L1492.51 158.017 Z" fill="#000000" fill-rule="nonzero" fill-opacity="1" /><path clip-path="url(#clip030)" d="M1534.2 176.854 Q1536.2 173.266 1538.97 171.559 Q1541.75 169.852 1545.51 169.852 Q1550.58 169.852 1553.33 173.411 Q1556.08 176.941 1556.08 183.48 L1556.08 203.04 L1550.72 203.04 L1550.72 183.654 Q1550.72 178.995 1549.07 176.738 Q1547.42 174.481 1544.04 174.481 Q1539.9 174.481 1537.5 177.23 Q1535.1 179.979 1535.1 184.724 L1535.1 203.04 L1529.74 203.04 L1529.74 183.654 Q1529.74 178.966 1528.1 176.738 Q1526.45 174.481 1523 174.481 Q1518.92 174.481 1516.52 177.259 Q1514.12 180.008 1514.12 184.724 L1514.12 203.04 L1508.77 203.04 L1508.77 170.633 L1514.12 170.633 L1514.12 175.667 Q1515.94 172.687 1518.49 171.269 Q1521.03 169.852 1524.54 169.852 Q1528.07 169.852 1530.53 171.645 Q1533.01 173.439 1534.2 176.854 Z" fill="#000000" fill-rule="nonzero" fill-opacity="1" /><path clip-path="url(#clip030)" d="M1571.84 198.179 L1571.84 215.366 L1566.49 215.366 L1566.49 170.633 L1571.84 170.633 L1571.84 175.552 Q1573.52 172.658 1576.07 171.269 Q1578.64 169.852 1582.2 169.852 Q1588.11 169.852 1591.78 174.539 Q1595.48 179.226 1595.48 186.865 Q1595.48 194.504 1591.78 199.192 Q1588.11 203.879 1582.2 203.879 Q1578.64 203.879 1576.07 202.49 Q1573.52 201.072 1571.84 198.179 M1589.96 186.865 Q1589.96 180.992 1587.53 177.664 Q1585.13 174.308 1580.9 174.308 Q1576.68 174.308 1574.25 177.664 Q1571.84 180.992 1571.84 186.865 Q1571.84 192.739 1574.25 196.096 Q1576.68 199.423 1580.9 199.423 Q1585.13 199.423 1587.53 196.096 Q1589.96 192.739 1589.96 186.865 Z" fill="#000000" fill-rule="nonzero" fill-opacity="1" /><path clip-path="url(#clip030)" d="M1604.31 158.017 L1609.63 158.017 L1609.63 203.04 L1604.31 203.04 L1604.31 158.017 Z" fill="#000000" fill-rule="nonzero" fill-opacity="1" /><path clip-path="url(#clip030)" d="M1620.77 170.633 L1626.1 170.633 L1626.1 203.04 L1620.77 203.04 L1620.77 170.633 M1620.77 158.017 L1626.1 158.017 L1626.1 164.759 L1620.77 164.759 L1620.77 158.017 Z" fill="#000000" fill-rule="nonzero" fill-opacity="1" /><path clip-path="url(#clip030)" d="M1653.64 158.017 L1653.64 162.444 L1648.55 162.444 Q1645.69 162.444 1644.56 163.602 Q1643.46 164.759 1643.46 167.768 L1643.46 170.633 L1652.23 170.633 L1652.23 174.77 L1643.46 174.77 L1643.46 203.04 L1638.11 203.04 L1638.11 174.77 L1633.01 174.77 L1633.01 170.633 L1638.11 170.633 L1638.11 168.376 Q1638.11 162.965 1640.62 160.506 Q1643.14 158.017 1648.61 158.017 L1653.64 158.017 Z" fill="#000000" fill-rule="nonzero" fill-opacity="1" /><path clip-path="url(#clip030)" d="M1670.54 206.049 Q1668.29 211.836 1666.14 213.601 Q1664 215.366 1660.41 215.366 L1656.16 215.366 L1656.16 210.91 L1659.29 210.91 Q1661.49 210.91 1662.7 209.869 Q1663.92 208.827 1665.39 204.95 L1666.35 202.519 L1653.24 170.633 L1658.88 170.633 L1669.01 195.98 L1679.14 170.633 L1684.78 170.633 L1670.54 206.049 Z" fill="#000000" fill-rule="nonzero" fill-opacity="1" /><path clip-path="url(#clip030)" d="M1711.66 176.13 L1748.75 176.13 L1748.75 180.992 L1711.66 180.992 L1711.66 176.13 M1711.66 187.936 L1748.75 187.936 L1748.75 192.855 L1711.66 192.855 L1711.66 187.936 Z" fill="#000000" fill-rule="nonzero" fill-opacity="1" /><path clip-path="url(#clip030)" d="M1795.86 158.017 L1795.86 162.444 L1790.77 162.444 Q1787.9 162.444 1786.77 163.602 Q1785.67 164.759 1785.67 167.768 L1785.67 170.633 L1794.44 170.633 L1794.44 174.77 L1785.67 174.77 L1785.67 203.04 L1780.32 203.04 L1780.32 174.77 L1775.23 174.77 L1775.23 170.633 L1780.32 170.633 L1780.32 168.376 Q1780.32 162.965 1782.84 160.506 Q1785.36 158.017 1790.83 158.017 L1795.86 158.017 Z" fill="#000000" fill-rule="nonzero" fill-opacity="1" /><path clip-path="url(#clip030)" d="M1815.04 186.75 Q1808.59 186.75 1806.1 188.225 Q1803.61 189.701 1803.61 193.26 Q1803.61 196.096 1805.47 197.774 Q1807.35 199.423 1810.56 199.423 Q1814.99 199.423 1817.65 196.298 Q1820.34 193.144 1820.34 187.936 L1820.34 186.75 L1815.04 186.75 M1825.66 184.551 L1825.66 203.04 L1820.34 203.04 L1820.34 198.121 Q1818.52 201.072 1815.8 202.49 Q1813.08 203.879 1809.14 203.879 Q1804.16 203.879 1801.21 201.101 Q1798.29 198.295 1798.29 193.607 Q1798.29 188.138 1801.94 185.361 Q1805.61 182.583 1812.87 182.583 L1820.34 182.583 L1820.34 182.062 Q1820.34 178.387 1817.91 176.391 Q1815.51 174.365 1811.14 174.365 Q1808.36 174.365 1805.73 175.031 Q1803.09 175.696 1800.66 177.027 L1800.66 172.108 Q1803.59 170.98 1806.33 170.43 Q1809.08 169.852 1811.69 169.852 Q1818.72 169.852 1822.19 173.497 Q1825.66 177.143 1825.66 184.551 Z" fill="#000000" fill-rule="nonzero" fill-opacity="1" /><path clip-path="url(#clip030)" d="M1836.63 158.017 L1841.95 158.017 L1841.95 203.04 L1836.63 203.04 L1836.63 158.017 Z" fill="#000000" fill-rule="nonzero" fill-opacity="1" /><path clip-path="url(#clip030)" d="M1873.75 171.588 L1873.75 176.622 Q1871.5 175.465 1869.07 174.886 Q1866.63 174.308 1864.03 174.308 Q1860.07 174.308 1858.07 175.523 Q1856.1 176.738 1856.1 179.169 Q1856.1 181.02 1857.52 182.091 Q1858.94 183.133 1863.22 184.088 L1865.04 184.493 Q1870.71 185.708 1873.09 187.936 Q1875.49 190.135 1875.49 194.099 Q1875.49 198.613 1871.9 201.246 Q1868.34 203.879 1862.09 203.879 Q1859.49 203.879 1856.65 203.358 Q1853.85 202.866 1850.72 201.854 L1850.72 196.356 Q1853.67 197.89 1856.54 198.671 Q1859.4 199.423 1862.21 199.423 Q1865.97 199.423 1867.99 198.15 Q1870.02 196.848 1870.02 194.504 Q1870.02 192.334 1868.54 191.177 Q1867.1 190.019 1862.15 188.949 L1860.3 188.515 Q1855.35 187.473 1853.15 185.332 Q1850.95 183.162 1850.95 179.4 Q1850.95 174.828 1854.19 172.34 Q1857.43 169.852 1863.39 169.852 Q1866.35 169.852 1868.95 170.286 Q1871.55 170.72 1873.75 171.588 Z" fill="#000000" fill-rule="nonzero" fill-opacity="1" /><path clip-path="url(#clip030)" d="M1911.69 185.505 L1911.69 188.11 L1887.21 188.11 Q1887.55 193.607 1890.51 196.501 Q1893.49 199.365 1898.78 199.365 Q1901.85 199.365 1904.71 198.613 Q1907.61 197.861 1910.44 196.356 L1910.44 201.391 Q1907.58 202.606 1904.57 203.243 Q1901.56 203.879 1898.46 203.879 Q1890.71 203.879 1886.17 199.365 Q1881.65 194.851 1881.65 187.155 Q1881.65 179.198 1885.93 174.539 Q1890.25 169.852 1897.54 169.852 Q1904.08 169.852 1907.87 174.076 Q1911.69 178.272 1911.69 185.505 M1906.36 183.943 Q1906.3 179.574 1903.9 176.97 Q1901.53 174.365 1897.6 174.365 Q1893.14 174.365 1890.45 176.883 Q1887.79 179.4 1887.38 183.972 L1906.36 183.943 Z" fill="#000000" fill-rule="nonzero" fill-opacity="1" /><polyline clip-path="url(#clip032)" style="stroke:#009af9; stroke-linecap:round; stroke-linejoin:round; stroke-width:4; stroke-opacity:1; fill:none" points="281.952,1388.35 415.984,1315.1 550.017,1234.07 684.05,1147.47 818.082,1066.24 952.115,978.037 1086.15,900.307 1220.18,816.713 1354.21,738.212 1488.25,656.558 1622.28,572.374 1756.31,488.139 1890.34,400.516 2024.38,312.632 2158.41,227.42 "/>
<circle clip-path="url(#clip032)" cx="281.952" cy="1388.35" r="14.4" fill="#009af9" fill-rule="evenodd" fill-opacity="1" stroke="#000000" stroke-opacity="1" stroke-width="3.2"/>
<circle clip-path="url(#clip032)" cx="415.984" cy="1315.1" r="14.4" fill="#009af9" fill-rule="evenodd" fill-opacity="1" stroke="#000000" stroke-opacity="1" stroke-width="3.2"/>
<circle clip-path="url(#clip032)" cx="550.017" cy="1234.07" r="14.4" fill="#009af9" fill-rule="evenodd" fill-opacity="1" stroke="#000000" stroke-opacity="1" stroke-width="3.2"/>
<circle clip-path="url(#clip032)" cx="684.05" cy="1147.47" r="14.4" fill="#009af9" fill-rule="evenodd" fill-opacity="1" stroke="#000000" stroke-opacity="1" stroke-width="3.2"/>
<circle clip-path="url(#clip032)" cx="818.082" cy="1066.24" r="14.4" fill="#009af9" fill-rule="evenodd" fill-opacity="1" stroke="#000000" stroke-opacity="1" stroke-width="3.2"/>
<circle clip-path="url(#clip032)" cx="952.115" cy="978.037" r="14.4" fill="#009af9" fill-rule="evenodd" fill-opacity="1" stroke="#000000" stroke-opacity="1" stroke-width="3.2"/>
<circle clip-path="url(#clip032)" cx="1086.15" cy="900.307" r="14.4" fill="#009af9" fill-rule="evenodd" fill-opacity="1" stroke="#000000" stroke-opacity="1" stroke-width="3.2"/>
<circle clip-path="url(#clip032)" cx="1220.18" cy="816.713" r="14.4" fill="#009af9" fill-rule="evenodd" fill-opacity="1" stroke="#000000" stroke-opacity="1" stroke-width="3.2"/>
<circle clip-path="url(#clip032)" cx="1354.21" cy="738.212" r="14.4" fill="#009af9" fill-rule="evenodd" fill-opacity="1" stroke="#000000" stroke-opacity="1" stroke-width="3.2"/>
<circle clip-path="url(#clip032)" cx="1488.25" cy="656.558" r="14.4" fill="#009af9" fill-rule="evenodd" fill-opacity="1" stroke="#000000" stroke-opacity="1" stroke-width="3.2"/>
<circle clip-path="url(#clip032)" cx="1622.28" cy="572.374" r="14.4" fill="#009af9" fill-rule="evenodd" fill-opacity="1" stroke="#000000" stroke-opacity="1" stroke-width="3.2"/>
<circle clip-path="url(#clip032)" cx="1756.31" cy="488.139" r="14.4" fill="#009af9" fill-rule="evenodd" fill-opacity="1" stroke="#000000" stroke-opacity="1" stroke-width="3.2"/>
<circle clip-path="url(#clip032)" cx="1890.34" cy="400.516" r="14.4" fill="#009af9" fill-rule="evenodd" fill-opacity="1" stroke="#000000" stroke-opacity="1" stroke-width="3.2"/>
<circle clip-path="url(#clip032)" cx="2024.38" cy="312.632" r="14.4" fill="#009af9" fill-rule="evenodd" fill-opacity="1" stroke="#000000" stroke-opacity="1" stroke-width="3.2"/>
<circle clip-path="url(#clip032)" cx="2158.41" cy="227.42" r="14.4" fill="#009af9" fill-rule="evenodd" fill-opacity="1" stroke="#000000" stroke-opacity="1" stroke-width="3.2"/>
</svg>
