<?xml version="1.0" encoding="utf-8"?>
<svg xmlns="http://www.w3.org/2000/svg" xmlns:xlink="http://www.w3.org/1999/xlink" width="600" height="400" viewBox="0 0 2400 1600">
<defs>
  <clipPath id="clip650">
    <rect x="0" y="0" width="2400" height="1600"/>
  </clipPath>
</defs>
<path clip-path="url(#clip650)" d="M0 1600 L2400 1600 L2400 0 L0 0  Z" fill="#ffffff" fill-rule="evenodd" fill-opacity="1"/>
<defs>
  <clipPath id="clip651">
    <rect x="480" y="0" width="1681" height="1600"/>
  </clipPath>
</defs>
<path clip-path="url(#clip650)" d="M235.283 1423.18 L2352.76 1423.18 L2352.76 149.392 L235.283 149.392  Z" fill="#ffffff" fill-rule="evenodd" fill-opacity="1"/>
<defs>
  <clipPath id="clip652">
    <rect x="235" y="149" width="2118" height="1275"/>
  </clipPath>
</defs>
<polyline clip-path="url(#clip652)" style="stroke:#000000; stroke-linecap:round; stroke-linejoin:round; stroke-width:2; stroke-opacity:0.1; fill:none" points="295.211,1423.18 295.211,149.392 "/>
<polyline clip-path="url(#clip652)" style="stroke:#000000; stroke-linecap:round; stroke-linejoin:round; stroke-width:2; stroke-opacity:0.1; fill:none" points="794.615,1423.18 794.615,149.392 "/>
<polyline clip-path="url(#clip652)" style="stroke:#000000; stroke-linecap:round; stroke-linejoin:round; stroke-width:2; stroke-opacity:0.1; fill:none" points="1294.02,1423.18 1294.02,149.392 "/>
<polyline clip-path="url(#clip652)" style="stroke:#000000; stroke-linecap:round; stroke-linejoin:round; stroke-width:2; stroke-opacity:0.1; fill:none" points="1793.42,1423.18 1793.42,149.392 "/>
<polyline clip-path="url(#clip652)" style="stroke:#000000; stroke-linecap:round; stroke-linejoin:round; stroke-width:2; stroke-opacity:0.1; fill:none" points="2292.83,1423.18 2292.83,149.392 "/>
<polyline clip-path="url(#clip650)" style="stroke:#000000; stroke-linecap:round; stroke-linejoin:round; stroke-width:4; stroke-opacity:1; fill:none" points="235.283,1423.18 2352.76,1423.18 "/>
<polyline clip-path="url(#clip650)" style="stroke:#000000; stroke-linecap:round; stroke-linejoin:round; stroke-width:4; stroke-opacity:1; fill:none" points="295.211,1423.18 295.211,1404.28 "/>
<polyline clip-path="url(#clip650)" style="stroke:#000000; stroke-linecap:round; stroke-linejoin:round; stroke-width:4; stroke-opacity:1; fill:none" points="794.615,1423.18 794.615,1404.28 "/>
<polyline clip-path="url(#clip650)" style="stroke:#000000; stroke-linecap:round; stroke-linejoin:round; stroke-width:4; stroke-opacity:1; fill:none" points="1294.02,1423.18 1294.02,1404.28 "/>
<polyline clip-path="url(#clip650)" style="stroke:#000000; stroke-linecap:round; stroke-linejoin:round; stroke-width:4; stroke-opacity:1; fill:none" points="1793.42,1423.18 1793.42,1404.28 "/>
<polyline clip-path="url(#clip650)" style="stroke:#000000; stroke-linecap:round; stroke-linejoin:round; stroke-width:4; stroke-opacity:1; fill:none" points="2292.83,1423.18 2292.83,1404.28 "/>
<path clip-path="url(#clip650)" d="M285.489 1451.02 L303.846 1451.02 L303.846 1454.96 L289.772 1454.96 L289.772 1463.43 Q290.79 1463.08 291.809 1462.92 Q292.827 1462.73 293.846 1462.73 Q299.633 1462.73 303.012 1465.9 Q306.392 1469.08 306.392 1474.49 Q306.392 1480.07 302.92 1483.17 Q299.447 1486.25 293.128 1486.25 Q290.952 1486.25 288.684 1485.88 Q286.438 1485.51 284.031 1484.77 L284.031 1480.07 Q286.114 1481.2 288.336 1481.76 Q290.559 1482.32 293.035 1482.32 Q297.04 1482.32 299.378 1480.21 Q301.716 1478.1 301.716 1474.49 Q301.716 1470.88 299.378 1468.77 Q297.04 1466.67 293.035 1466.67 Q291.16 1466.67 289.285 1467.08 Q287.434 1467.5 285.489 1468.38 L285.489 1451.02 Z" fill="#000000" fill-rule="nonzero" fill-opacity="1" /><path clip-path="url(#clip650)" d="M769.303 1481.64 L776.942 1481.64 L776.942 1455.28 L768.632 1456.95 L768.632 1452.69 L776.896 1451.02 L781.571 1451.02 L781.571 1481.64 L789.21 1481.64 L789.21 1485.58 L769.303 1485.58 L769.303 1481.64 Z" fill="#000000" fill-rule="nonzero" fill-opacity="1" /><path clip-path="url(#clip650)" d="M808.655 1454.1 Q805.044 1454.1 803.215 1457.66 Q801.409 1461.2 801.409 1468.33 Q801.409 1475.44 803.215 1479.01 Q805.044 1482.55 808.655 1482.55 Q812.289 1482.55 814.094 1479.01 Q815.923 1475.44 815.923 1468.33 Q815.923 1461.2 814.094 1457.66 Q812.289 1454.1 808.655 1454.1 M808.655 1450.39 Q814.465 1450.39 817.52 1455 Q820.599 1459.58 820.599 1468.33 Q820.599 1477.06 817.52 1481.67 Q814.465 1486.25 808.655 1486.25 Q802.844 1486.25 799.766 1481.67 Q796.71 1477.06 796.71 1468.33 Q796.71 1459.58 799.766 1455 Q802.844 1450.39 808.655 1450.39 Z" fill="#000000" fill-rule="nonzero" fill-opacity="1" /><path clip-path="url(#clip650)" d="M1269.2 1481.64 L1276.84 1481.64 L1276.84 1455.28 L1268.53 1456.95 L1268.53 1452.69 L1276.8 1451.02 L1281.47 1451.02 L1281.47 1481.64 L1289.11 1481.64 L1289.11 1485.58 L1269.2 1485.58 L1269.2 1481.64 Z" fill="#000000" fill-rule="nonzero" fill-opacity="1" /><path clip-path="url(#clip650)" d="M1298.6 1451.02 L1316.96 1451.02 L1316.96 1454.96 L1302.89 1454.96 L1302.89 1463.43 Q1303.9 1463.08 1304.92 1462.92 Q1305.94 1462.73 1306.96 1462.73 Q1312.75 1462.73 1316.13 1465.9 Q1319.51 1469.08 1319.51 1474.49 Q1319.51 1480.07 1316.03 1483.17 Q1312.56 1486.25 1306.24 1486.25 Q1304.07 1486.25 1301.8 1485.88 Q1299.55 1485.51 1297.14 1484.77 L1297.14 1480.07 Q1299.23 1481.2 1301.45 1481.76 Q1303.67 1482.32 1306.15 1482.32 Q1310.15 1482.32 1312.49 1480.21 Q1314.83 1478.1 1314.83 1474.49 Q1314.83 1470.88 1312.49 1468.77 Q1310.15 1466.67 1306.15 1466.67 Q1304.27 1466.67 1302.4 1467.08 Q1300.55 1467.5 1298.6 1468.38 L1298.6 1451.02 Z" fill="#000000" fill-rule="nonzero" fill-opacity="1" /><path clip-path="url(#clip650)" d="M1772.2 1481.64 L1788.52 1481.64 L1788.52 1485.58 L1766.57 1485.58 L1766.57 1481.64 Q1769.23 1478.89 1773.82 1474.26 Q1778.42 1469.61 1779.6 1468.27 Q1781.85 1465.74 1782.73 1464.01 Q1783.63 1462.25 1783.63 1460.56 Q1783.63 1457.8 1781.69 1456.07 Q1779.77 1454.33 1776.66 1454.33 Q1774.47 1454.33 1772.01 1455.09 Q1769.58 1455.86 1766.8 1457.41 L1766.8 1452.69 Q1769.63 1451.55 1772.08 1450.97 Q1774.53 1450.39 1776.57 1450.39 Q1781.94 1450.39 1785.14 1453.08 Q1788.33 1455.77 1788.33 1460.26 Q1788.33 1462.39 1787.52 1464.31 Q1786.73 1466.2 1784.63 1468.8 Q1784.05 1469.47 1780.95 1472.69 Q1777.84 1475.88 1772.2 1481.64 Z" fill="#000000" fill-rule="nonzero" fill-opacity="1" /><path clip-path="url(#clip650)" d="M1808.33 1454.1 Q1804.72 1454.1 1802.89 1457.66 Q1801.09 1461.2 1801.09 1468.33 Q1801.09 1475.44 1802.89 1479.01 Q1804.72 1482.55 1808.33 1482.55 Q1811.96 1482.55 1813.77 1479.01 Q1815.6 1475.44 1815.6 1468.33 Q1815.6 1461.2 1813.77 1457.66 Q1811.96 1454.1 1808.33 1454.1 M1808.33 1450.39 Q1814.14 1450.39 1817.2 1455 Q1820.28 1459.58 1820.28 1468.33 Q1820.28 1477.06 1817.2 1481.67 Q1814.14 1486.25 1808.33 1486.25 Q1802.52 1486.25 1799.44 1481.67 Q1796.39 1477.06 1796.39 1468.33 Q1796.39 1459.58 1799.44 1455 Q1802.52 1450.39 1808.33 1450.39 Z" fill="#000000" fill-rule="nonzero" fill-opacity="1" /><path clip-path="url(#clip650)" d="M2272.1 1481.64 L2288.42 1481.64 L2288.42 1485.58 L2266.47 1485.58 L2266.47 1481.64 Q2269.14 1478.89 2273.72 1474.26 Q2278.33 1469.61 2279.51 1468.27 Q2281.75 1465.74 2282.63 1464.01 Q2283.53 1462.25 2283.53 1460.56 Q2283.53 1457.8 2281.59 1456.07 Q2279.67 1454.33 2276.57 1454.33 Q2274.37 1454.33 2271.91 1455.09 Q2269.48 1455.86 2266.7 1457.41 L2266.7 1452.69 Q2269.53 1451.55 2271.98 1450.97 Q2274.44 1450.39 2276.47 1450.39 Q2281.84 1450.39 2285.04 1453.08 Q2288.23 1455.77 2288.23 1460.26 Q2288.23 1462.39 2287.42 1464.31 Q2286.64 1466.2 2284.53 1468.8 Q2283.95 1469.47 2280.85 1472.69 Q2277.75 1475.88 2272.1 1481.64 Z" fill="#000000" fill-rule="nonzero" fill-opacity="1" /><path clip-path="url(#clip650)" d="M2298.28 1451.02 L2316.64 1451.02 L2316.64 1454.96 L2302.56 1454.96 L2302.56 1463.43 Q2303.58 1463.08 2304.6 1462.92 Q2305.62 1462.73 2306.64 1462.73 Q2312.42 1462.73 2315.8 1465.9 Q2319.18 1469.08 2319.18 1474.49 Q2319.18 1480.07 2315.71 1483.17 Q2312.24 1486.25 2305.92 1486.25 Q2303.74 1486.25 2301.47 1485.88 Q2299.23 1485.51 2296.82 1484.77 L2296.82 1480.07 Q2298.9 1481.2 2301.13 1481.76 Q2303.35 1482.32 2305.83 1482.32 Q2309.83 1482.32 2312.17 1480.21 Q2314.51 1478.1 2314.51 1474.49 Q2314.51 1470.88 2312.17 1468.77 Q2309.83 1466.67 2305.83 1466.67 Q2303.95 1466.67 2302.08 1467.08 Q2300.22 1467.5 2298.28 1468.38 L2298.28 1451.02 Z" fill="#000000" fill-rule="nonzero" fill-opacity="1" /><path clip-path="url(#clip650)" d="M890.02 1533.45 L890.02 1538.98 Q887.537 1537.71 884.864 1537.07 Q882.19 1536.44 879.325 1536.44 Q874.965 1536.44 872.769 1537.77 Q870.604 1539.11 870.604 1541.79 Q870.604 1543.82 872.164 1545 Q873.724 1546.15 878.434 1547.2 L880.439 1547.64 Q886.678 1548.98 889.288 1551.43 Q891.93 1553.85 891.93 1558.21 Q891.93 1563.17 887.983 1566.07 Q884.068 1568.97 877.193 1568.97 Q874.328 1568.97 871.209 1568.39 Q868.122 1567.85 864.684 1566.74 L864.684 1560.69 Q867.931 1562.38 871.082 1563.24 Q874.233 1564.07 877.32 1564.07 Q881.458 1564.07 883.686 1562.66 Q885.914 1561.23 885.914 1558.65 Q885.914 1556.27 884.291 1554.99 Q882.699 1553.72 877.257 1552.54 L875.22 1552.07 Q869.777 1550.92 867.358 1548.56 Q864.939 1546.18 864.939 1542.04 Q864.939 1537.01 868.504 1534.27 Q872.069 1531.54 878.625 1531.54 Q881.872 1531.54 884.736 1532.01 Q887.601 1532.49 890.02 1533.45 Z" fill="#000000" fill-rule="nonzero" fill-opacity="1" /><path clip-path="url(#clip650)" d="M906.921 1562.7 L906.921 1581.6 L901.032 1581.6 L901.032 1532.4 L906.921 1532.4 L906.921 1537.81 Q908.767 1534.62 911.568 1533.1 Q914.4 1531.54 918.315 1531.54 Q924.808 1531.54 928.851 1536.69 Q932.925 1541.85 932.925 1550.25 Q932.925 1558.65 928.851 1563.81 Q924.808 1568.97 918.315 1568.97 Q914.4 1568.97 911.568 1567.44 Q908.767 1565.88 906.921 1562.7 M926.845 1550.25 Q926.845 1543.79 924.172 1540.13 Q921.53 1536.44 916.883 1536.44 Q912.236 1536.44 909.563 1540.13 Q906.921 1543.79 906.921 1550.25 Q906.921 1556.71 909.563 1560.4 Q912.236 1564.07 916.883 1564.07 Q921.53 1564.07 924.172 1560.4 Q926.845 1556.71 926.845 1550.25 Z" fill="#000000" fill-rule="nonzero" fill-opacity="1" /><path clip-path="url(#clip650)" d="M972.265 1546.53 L972.265 1568.04 L966.408 1568.04 L966.408 1546.72 Q966.408 1541.66 964.435 1539.14 Q962.462 1536.63 958.515 1536.63 Q953.772 1536.63 951.035 1539.65 Q948.298 1542.68 948.298 1547.9 L948.298 1568.04 L942.41 1568.04 L942.41 1518.52 L948.298 1518.52 L948.298 1537.93 Q950.399 1534.72 953.231 1533.13 Q956.096 1531.54 959.82 1531.54 Q965.963 1531.54 969.114 1535.36 Q972.265 1539.14 972.265 1546.53 Z" fill="#000000" fill-rule="nonzero" fill-opacity="1" /><path clip-path="url(#clip650)" d="M1014.44 1548.76 L1014.44 1551.62 L987.511 1551.62 Q987.893 1557.67 991.139 1560.85 Q994.417 1564 1000.24 1564 Q1003.62 1564 1006.77 1563.17 Q1009.95 1562.35 1013.07 1560.69 L1013.07 1566.23 Q1009.92 1567.57 1006.61 1568.27 Q1003.3 1568.97 999.892 1568.97 Q991.362 1568.97 986.365 1564 Q981.4 1559.04 981.4 1550.57 Q981.4 1541.82 986.11 1536.69 Q990.853 1531.54 998.873 1531.54 Q1006.07 1531.54 1010.24 1536.18 Q1014.44 1540.8 1014.44 1548.76 M1008.58 1547.04 Q1008.52 1542.23 1005.88 1539.37 Q1003.27 1536.5 998.937 1536.5 Q994.035 1536.5 991.075 1539.27 Q988.147 1542.04 987.702 1547.07 L1008.58 1547.04 Z" fill="#000000" fill-rule="nonzero" fill-opacity="1" /><path clip-path="url(#clip650)" d="M1044.71 1537.87 Q1043.72 1537.3 1042.54 1537.04 Q1041.4 1536.76 1040 1536.76 Q1035.03 1536.76 1032.36 1540 Q1029.72 1543.22 1029.72 1549.27 L1029.72 1568.04 L1023.83 1568.04 L1023.83 1532.4 L1029.72 1532.4 L1029.72 1537.93 Q1031.56 1534.69 1034.52 1533.13 Q1037.48 1531.54 1041.71 1531.54 Q1042.32 1531.54 1043.05 1531.63 Q1043.78 1531.7 1044.67 1531.85 L1044.71 1537.87 Z" fill="#000000" fill-rule="nonzero" fill-opacity="1" /><path clip-path="url(#clip650)" d="M1050.85 1532.4 L1056.71 1532.4 L1056.71 1568.04 L1050.85 1568.04 L1050.85 1532.4 M1050.85 1518.52 L1056.71 1518.52 L1056.71 1525.93 L1050.85 1525.93 L1050.85 1518.52 Z" fill="#000000" fill-rule="nonzero" fill-opacity="1" /><path clip-path="url(#clip650)" d="M1094.61 1533.76 L1094.61 1539.24 Q1092.13 1537.87 1089.62 1537.2 Q1087.13 1536.5 1084.59 1536.5 Q1078.89 1536.5 1075.74 1540.13 Q1072.59 1543.73 1072.59 1550.25 Q1072.59 1556.78 1075.74 1560.4 Q1078.89 1564 1084.59 1564 Q1087.13 1564 1089.62 1563.33 Q1092.13 1562.63 1094.61 1561.26 L1094.61 1566.68 Q1092.16 1567.82 1089.52 1568.39 Q1086.91 1568.97 1083.95 1568.97 Q1075.9 1568.97 1071.16 1563.91 Q1066.41 1558.85 1066.41 1550.25 Q1066.41 1541.53 1071.19 1536.53 Q1075.99 1531.54 1084.33 1531.54 Q1087.04 1531.54 1089.62 1532.11 Q1092.19 1532.65 1094.61 1533.76 Z" fill="#000000" fill-rule="nonzero" fill-opacity="1" /><path clip-path="url(#clip650)" d="M1121 1550.12 Q1113.9 1550.12 1111.16 1551.75 Q1108.43 1553.37 1108.43 1557.29 Q1108.43 1560.4 1110.46 1562.25 Q1112.53 1564.07 1116.07 1564.07 Q1120.94 1564.07 1123.86 1560.63 Q1126.82 1557.16 1126.82 1551.43 L1126.82 1550.12 L1121 1550.12 M1132.68 1547.71 L1132.68 1568.04 L1126.82 1568.04 L1126.82 1562.63 Q1124.82 1565.88 1121.83 1567.44 Q1118.84 1568.97 1114.51 1568.97 Q1109.03 1568.97 1105.79 1565.91 Q1102.57 1562.82 1102.57 1557.67 Q1102.57 1551.65 1106.58 1548.6 Q1110.62 1545.54 1118.61 1545.54 L1126.82 1545.54 L1126.82 1544.97 Q1126.82 1540.93 1124.15 1538.73 Q1121.51 1536.5 1116.7 1536.5 Q1113.65 1536.5 1110.75 1537.23 Q1107.85 1537.97 1105.18 1539.43 L1105.18 1534.02 Q1108.4 1532.78 1111.42 1532.17 Q1114.44 1531.54 1117.31 1531.54 Q1125.04 1531.54 1128.86 1535.55 Q1132.68 1539.56 1132.68 1547.71 Z" fill="#000000" fill-rule="nonzero" fill-opacity="1" /><path clip-path="url(#clip650)" d="M1144.74 1518.52 L1150.6 1518.52 L1150.6 1568.04 L1144.74 1568.04 L1144.74 1518.52 Z" fill="#000000" fill-rule="nonzero" fill-opacity="1" /><path clip-path="url(#clip650)" d="M1189.94 1578.87 L1189.94 1583.42 L1156.07 1583.42 L1156.07 1578.87 L1189.94 1578.87 Z" fill="#000000" fill-rule="nonzero" fill-opacity="1" /><path clip-path="url(#clip650)" d="M1225.08 1546.53 L1225.08 1568.04 L1219.22 1568.04 L1219.22 1546.72 Q1219.22 1541.66 1217.25 1539.14 Q1215.28 1536.63 1211.33 1536.63 Q1206.59 1536.63 1203.85 1539.65 Q1201.11 1542.68 1201.11 1547.9 L1201.11 1568.04 L1195.22 1568.04 L1195.22 1518.52 L1201.11 1518.52 L1201.11 1537.93 Q1203.21 1534.72 1206.05 1533.13 Q1208.91 1531.54 1212.63 1531.54 Q1218.78 1531.54 1221.93 1535.36 Q1225.08 1539.14 1225.08 1546.53 Z" fill="#000000" fill-rule="nonzero" fill-opacity="1" /><path clip-path="url(#clip650)" d="M1252.96 1550.12 Q1245.86 1550.12 1243.13 1551.75 Q1240.39 1553.37 1240.39 1557.29 Q1240.39 1560.4 1242.43 1562.25 Q1244.49 1564.07 1248.03 1564.07 Q1252.9 1564.07 1255.83 1560.63 Q1258.79 1557.16 1258.79 1551.43 L1258.79 1550.12 L1252.96 1550.12 M1264.64 1547.71 L1264.64 1568.04 L1258.79 1568.04 L1258.79 1562.63 Q1256.78 1565.88 1253.79 1567.44 Q1250.8 1568.97 1246.47 1568.97 Q1240.99 1568.97 1237.75 1565.91 Q1234.53 1562.82 1234.53 1557.67 Q1234.53 1551.65 1238.54 1548.6 Q1242.58 1545.54 1250.57 1545.54 L1258.79 1545.54 L1258.79 1544.97 Q1258.79 1540.93 1256.11 1538.73 Q1253.47 1536.5 1248.66 1536.5 Q1245.61 1536.5 1242.71 1537.23 Q1239.82 1537.97 1237.14 1539.43 L1237.14 1534.02 Q1240.36 1532.78 1243.38 1532.17 Q1246.4 1531.54 1249.27 1531.54 Q1257 1531.54 1260.82 1535.55 Q1264.64 1539.56 1264.64 1547.71 Z" fill="#000000" fill-rule="nonzero" fill-opacity="1" /><path clip-path="url(#clip650)" d="M1297.36 1537.87 Q1296.37 1537.3 1295.2 1537.04 Q1294.05 1536.76 1292.65 1536.76 Q1287.69 1536.76 1285.01 1540 Q1282.37 1543.22 1282.37 1549.27 L1282.37 1568.04 L1276.48 1568.04 L1276.48 1532.4 L1282.37 1532.4 L1282.37 1537.93 Q1284.22 1534.69 1287.18 1533.13 Q1290.14 1531.54 1294.37 1531.54 Q1294.97 1531.54 1295.71 1531.63 Q1296.44 1531.7 1297.33 1531.85 L1297.36 1537.87 Z" fill="#000000" fill-rule="nonzero" fill-opacity="1" /><path clip-path="url(#clip650)" d="M1330.11 1539.24 Q1332.31 1535.29 1335.36 1533.41 Q1338.42 1531.54 1342.56 1531.54 Q1348.13 1531.54 1351.15 1535.45 Q1354.18 1539.33 1354.18 1546.53 L1354.18 1568.04 L1348.29 1568.04 L1348.29 1546.72 Q1348.29 1541.59 1346.47 1539.11 Q1344.66 1536.63 1340.93 1536.63 Q1336.38 1536.63 1333.74 1539.65 Q1331.1 1542.68 1331.1 1547.9 L1331.1 1568.04 L1325.21 1568.04 L1325.21 1546.72 Q1325.21 1541.56 1323.4 1539.11 Q1321.58 1536.63 1317.8 1536.63 Q1313.31 1536.63 1310.67 1539.68 Q1308.02 1542.71 1308.02 1547.9 L1308.02 1568.04 L1302.14 1568.04 L1302.14 1532.4 L1308.02 1532.4 L1308.02 1537.93 Q1310.03 1534.66 1312.83 1533.1 Q1315.63 1531.54 1319.48 1531.54 Q1323.37 1531.54 1326.07 1533.51 Q1328.81 1535.48 1330.11 1539.24 Z" fill="#000000" fill-rule="nonzero" fill-opacity="1" /><path clip-path="url(#clip650)" d="M1379.67 1536.5 Q1374.96 1536.5 1372.22 1540.19 Q1369.48 1543.85 1369.48 1550.25 Q1369.48 1556.65 1372.19 1560.34 Q1374.93 1564 1379.67 1564 Q1384.35 1564 1387.09 1560.31 Q1389.82 1556.62 1389.82 1550.25 Q1389.82 1543.92 1387.09 1540.23 Q1384.35 1536.5 1379.67 1536.5 M1379.67 1531.54 Q1387.31 1531.54 1391.67 1536.5 Q1396.03 1541.47 1396.03 1550.25 Q1396.03 1559 1391.67 1564 Q1387.31 1568.97 1379.67 1568.97 Q1372 1568.97 1367.64 1564 Q1363.31 1559 1363.31 1550.25 Q1363.31 1541.47 1367.64 1536.5 Q1372 1531.54 1379.67 1531.54 Z" fill="#000000" fill-rule="nonzero" fill-opacity="1" /><path clip-path="url(#clip650)" d="M1435.37 1546.53 L1435.37 1568.04 L1429.51 1568.04 L1429.51 1546.72 Q1429.51 1541.66 1427.54 1539.14 Q1425.57 1536.63 1421.62 1536.63 Q1416.88 1536.63 1414.14 1539.65 Q1411.4 1542.68 1411.4 1547.9 L1411.4 1568.04 L1405.51 1568.04 L1405.51 1532.4 L1411.4 1532.4 L1411.4 1537.93 Q1413.5 1534.72 1416.34 1533.13 Q1419.2 1531.54 1422.92 1531.54 Q1429.07 1531.54 1432.22 1535.36 Q1435.37 1539.14 1435.37 1546.53 Z" fill="#000000" fill-rule="nonzero" fill-opacity="1" /><path clip-path="url(#clip650)" d="M1447.05 1532.4 L1452.91 1532.4 L1452.91 1568.04 L1447.05 1568.04 L1447.05 1532.4 M1447.05 1518.52 L1452.91 1518.52 L1452.91 1525.93 L1447.05 1525.93 L1447.05 1518.52 Z" fill="#000000" fill-rule="nonzero" fill-opacity="1" /><path clip-path="url(#clip650)" d="M1490.82 1533.76 L1490.82 1539.24 Q1488.33 1537.87 1485.82 1537.2 Q1483.34 1536.5 1480.79 1536.5 Q1475.09 1536.5 1471.94 1540.13 Q1468.79 1543.73 1468.79 1550.25 Q1468.79 1556.78 1471.94 1560.4 Q1475.09 1564 1480.79 1564 Q1483.34 1564 1485.82 1563.33 Q1488.33 1562.63 1490.82 1561.26 L1490.82 1566.68 Q1488.36 1567.82 1485.72 1568.39 Q1483.11 1568.97 1480.15 1568.97 Q1472.1 1568.97 1467.36 1563.91 Q1462.62 1558.85 1462.62 1550.25 Q1462.62 1541.53 1467.39 1536.53 Q1472.2 1531.54 1480.53 1531.54 Q1483.24 1531.54 1485.82 1532.11 Q1488.4 1532.65 1490.82 1533.76 Z" fill="#000000" fill-rule="nonzero" fill-opacity="1" /><path clip-path="url(#clip650)" d="M1523.73 1533.45 L1523.73 1538.98 Q1521.24 1537.71 1518.57 1537.07 Q1515.9 1536.44 1513.03 1536.44 Q1508.67 1536.44 1506.47 1537.77 Q1504.31 1539.11 1504.31 1541.79 Q1504.31 1543.82 1505.87 1545 Q1507.43 1546.15 1512.14 1547.2 L1514.15 1547.64 Q1520.38 1548.98 1522.99 1551.43 Q1525.64 1553.85 1525.64 1558.21 Q1525.64 1563.17 1521.69 1566.07 Q1517.77 1568.97 1510.9 1568.97 Q1508.03 1568.97 1504.92 1568.39 Q1501.83 1567.85 1498.39 1566.74 L1498.39 1560.69 Q1501.64 1562.38 1504.79 1563.24 Q1507.94 1564.07 1511.03 1564.07 Q1515.16 1564.07 1517.39 1562.66 Q1519.62 1561.23 1519.62 1558.65 Q1519.62 1556.27 1518 1554.99 Q1516.41 1553.72 1510.96 1552.54 L1508.93 1552.07 Q1503.48 1550.92 1501.06 1548.56 Q1498.65 1546.18 1498.65 1542.04 Q1498.65 1537.01 1502.21 1534.27 Q1505.77 1531.54 1512.33 1531.54 Q1515.58 1531.54 1518.44 1532.01 Q1521.31 1532.49 1523.73 1533.45 Z" fill="#000000" fill-rule="nonzero" fill-opacity="1" /><path clip-path="url(#clip650)" d="M1569.5 1536.5 Q1564.78 1536.5 1562.05 1540.19 Q1559.31 1543.85 1559.31 1550.25 Q1559.31 1556.65 1562.02 1560.34 Q1564.75 1564 1569.5 1564 Q1574.17 1564 1576.91 1560.31 Q1579.65 1556.62 1579.65 1550.25 Q1579.65 1543.92 1576.91 1540.23 Q1574.17 1536.5 1569.5 1536.5 M1569.5 1531.54 Q1577.13 1531.54 1581.49 1536.5 Q1585.86 1541.47 1585.86 1550.25 Q1585.86 1559 1581.49 1564 Q1577.13 1568.97 1569.5 1568.97 Q1561.82 1568.97 1557.46 1564 Q1553.14 1559 1553.14 1550.25 Q1553.14 1541.47 1557.46 1536.5 Q1561.82 1531.54 1569.5 1531.54 Z" fill="#000000" fill-rule="nonzero" fill-opacity="1" /><path clip-path="url(#clip650)" d="M1616.22 1537.87 Q1615.23 1537.3 1614.06 1537.04 Q1612.91 1536.76 1611.51 1536.76 Q1606.54 1536.76 1603.87 1540 Q1601.23 1543.22 1601.23 1549.27 L1601.23 1568.04 L1595.34 1568.04 L1595.34 1532.4 L1601.23 1532.4 L1601.23 1537.93 Q1603.07 1534.69 1606.03 1533.13 Q1608.99 1531.54 1613.23 1531.54 Q1613.83 1531.54 1614.56 1531.63 Q1615.3 1531.7 1616.19 1531.85 L1616.22 1537.87 Z" fill="#000000" fill-rule="nonzero" fill-opacity="1" /><path clip-path="url(#clip650)" d="M1644.67 1537.81 L1644.67 1518.52 L1650.53 1518.52 L1650.53 1568.04 L1644.67 1568.04 L1644.67 1562.7 Q1642.83 1565.88 1640 1567.44 Q1637.19 1568.97 1633.25 1568.97 Q1626.79 1568.97 1622.71 1563.81 Q1618.67 1558.65 1618.67 1550.25 Q1618.67 1541.85 1622.71 1536.69 Q1626.79 1531.54 1633.25 1531.54 Q1637.19 1531.54 1640 1533.1 Q1642.83 1534.62 1644.67 1537.81 M1624.72 1550.25 Q1624.72 1556.71 1627.36 1560.4 Q1630.03 1564.07 1634.68 1564.07 Q1639.33 1564.07 1642 1560.4 Q1644.67 1556.71 1644.67 1550.25 Q1644.67 1543.79 1642 1540.13 Q1639.33 1536.44 1634.68 1536.44 Q1630.03 1536.44 1627.36 1540.13 Q1624.72 1543.79 1624.72 1550.25 Z" fill="#000000" fill-rule="nonzero" fill-opacity="1" /><path clip-path="url(#clip650)" d="M1693.09 1548.76 L1693.09 1551.62 L1666.16 1551.62 Q1666.54 1557.67 1669.79 1560.85 Q1673.07 1564 1678.89 1564 Q1682.26 1564 1685.41 1563.17 Q1688.6 1562.35 1691.72 1560.69 L1691.72 1566.23 Q1688.57 1567.57 1685.26 1568.27 Q1681.95 1568.97 1678.54 1568.97 Q1670.01 1568.97 1665.01 1564 Q1660.05 1559.04 1660.05 1550.57 Q1660.05 1541.82 1664.76 1536.69 Q1669.5 1531.54 1677.52 1531.54 Q1684.71 1531.54 1688.88 1536.18 Q1693.09 1540.8 1693.09 1548.76 M1687.23 1547.04 Q1687.17 1542.23 1684.52 1539.37 Q1681.91 1536.5 1677.59 1536.5 Q1672.68 1536.5 1669.72 1539.27 Q1666.8 1542.04 1666.35 1547.07 L1687.23 1547.04 Z" fill="#000000" fill-rule="nonzero" fill-opacity="1" /><path clip-path="url(#clip650)" d="M1723.35 1537.87 Q1722.37 1537.3 1721.19 1537.04 Q1720.04 1536.76 1718.64 1536.76 Q1713.68 1536.76 1711 1540 Q1708.36 1543.22 1708.36 1549.27 L1708.36 1568.04 L1702.47 1568.04 L1702.47 1532.4 L1708.36 1532.4 L1708.36 1537.93 Q1710.21 1534.69 1713.17 1533.13 Q1716.13 1531.54 1720.36 1531.54 Q1720.97 1531.54 1721.7 1531.63 Q1722.43 1531.7 1723.32 1531.85 L1723.35 1537.87 Z" fill="#000000" fill-rule="nonzero" fill-opacity="1" /><polyline clip-path="url(#clip652)" style="stroke:#000000; stroke-linecap:round; stroke-linejoin:round; stroke-width:2; stroke-opacity:0.1; fill:none" points="235.283,1393.1 2352.76,1393.1 "/>
<polyline clip-path="url(#clip652)" style="stroke:#000000; stroke-linecap:round; stroke-linejoin:round; stroke-width:2; stroke-opacity:0.1; fill:none" points="235.283,1142.2 2352.76,1142.2 "/>
<polyline clip-path="url(#clip652)" style="stroke:#000000; stroke-linecap:round; stroke-linejoin:round; stroke-width:2; stroke-opacity:0.1; fill:none" points="235.283,891.303 2352.76,891.303 "/>
<polyline clip-path="url(#clip652)" style="stroke:#000000; stroke-linecap:round; stroke-linejoin:round; stroke-width:2; stroke-opacity:0.1; fill:none" points="235.283,640.403 2352.76,640.403 "/>
<polyline clip-path="url(#clip652)" style="stroke:#000000; stroke-linecap:round; stroke-linejoin:round; stroke-width:2; stroke-opacity:0.1; fill:none" points="235.283,389.502 2352.76,389.502 "/>
<polyline clip-path="url(#clip650)" style="stroke:#000000; stroke-linecap:round; stroke-linejoin:round; stroke-width:4; stroke-opacity:1; fill:none" points="235.283,1423.18 235.283,149.392 "/>
<polyline clip-path="url(#clip650)" style="stroke:#000000; stroke-linecap:round; stroke-linejoin:round; stroke-width:4; stroke-opacity:1; fill:none" points="235.283,1393.1 254.18,1393.1 "/>
<polyline clip-path="url(#clip650)" style="stroke:#000000; stroke-linecap:round; stroke-linejoin:round; stroke-width:4; stroke-opacity:1; fill:none" points="235.283,1142.2 254.18,1142.2 "/>
<polyline clip-path="url(#clip650)" style="stroke:#000000; stroke-linecap:round; stroke-linejoin:round; stroke-width:4; stroke-opacity:1; fill:none" points="235.283,891.303 254.18,891.303 "/>
<polyline clip-path="url(#clip650)" style="stroke:#000000; stroke-linecap:round; stroke-linejoin:round; stroke-width:4; stroke-opacity:1; fill:none" points="235.283,640.403 254.18,640.403 "/>
<polyline clip-path="url(#clip650)" style="stroke:#000000; stroke-linecap:round; stroke-linejoin:round; stroke-width:4; stroke-opacity:1; fill:none" points="235.283,389.502 254.18,389.502 "/>
<path clip-path="url(#clip650)" d="M187.338 1378.9 Q183.727 1378.9 181.899 1382.47 Q180.093 1386.01 180.093 1393.14 Q180.093 1400.25 181.899 1403.81 Q183.727 1407.35 187.338 1407.35 Q190.973 1407.35 192.778 1403.81 Q194.607 1400.25 194.607 1393.14 Q194.607 1386.01 192.778 1382.47 Q190.973 1378.9 187.338 1378.9 M187.338 1375.2 Q193.149 1375.2 196.204 1379.81 Q199.283 1384.39 199.283 1393.14 Q199.283 1401.87 196.204 1406.47 Q193.149 1411.06 187.338 1411.06 Q181.528 1411.06 178.45 1406.47 Q175.394 1401.87 175.394 1393.14 Q175.394 1384.39 178.45 1379.81 Q181.528 1375.2 187.338 1375.2 Z" fill="#000000" fill-rule="nonzero" fill-opacity="1" /><path clip-path="url(#clip650)" d="M121.043 1155.55 L137.362 1155.55 L137.362 1159.48 L115.418 1159.48 L115.418 1155.55 Q118.08 1152.79 122.663 1148.16 Q127.269 1143.51 128.45 1142.17 Q130.695 1139.65 131.575 1137.91 Q132.478 1136.15 132.478 1134.46 Q132.478 1131.71 130.533 1129.97 Q128.612 1128.23 125.51 1128.23 Q123.311 1128.23 120.857 1129 Q118.427 1129.76 115.649 1131.31 L115.649 1126.59 Q118.473 1125.46 120.927 1124.88 Q123.38 1124.3 125.418 1124.3 Q130.788 1124.3 133.982 1126.98 Q137.177 1129.67 137.177 1134.16 Q137.177 1136.29 136.367 1138.21 Q135.579 1140.11 133.473 1142.7 Q132.894 1143.37 129.792 1146.59 Q126.691 1149.78 121.043 1155.55 Z" fill="#000000" fill-rule="nonzero" fill-opacity="1" /><path clip-path="url(#clip650)" d="M157.177 1128 Q153.566 1128 151.737 1131.57 Q149.931 1135.11 149.931 1142.24 Q149.931 1149.34 151.737 1152.91 Q153.566 1156.45 157.177 1156.45 Q160.811 1156.45 162.616 1152.91 Q164.445 1149.34 164.445 1142.24 Q164.445 1135.11 162.616 1131.57 Q160.811 1128 157.177 1128 M157.177 1124.3 Q162.987 1124.3 166.042 1128.91 Q169.121 1133.49 169.121 1142.24 Q169.121 1150.97 166.042 1155.57 Q162.987 1160.15 157.177 1160.15 Q151.366 1160.15 148.288 1155.57 Q145.232 1150.97 145.232 1142.24 Q145.232 1133.49 148.288 1128.91 Q151.366 1124.3 157.177 1124.3 Z" fill="#000000" fill-rule="nonzero" fill-opacity="1" /><path clip-path="url(#clip650)" d="M187.338 1128 Q183.727 1128 181.899 1131.57 Q180.093 1135.11 180.093 1142.24 Q180.093 1149.34 181.899 1152.91 Q183.727 1156.45 187.338 1156.45 Q190.973 1156.45 192.778 1152.91 Q194.607 1149.34 194.607 1142.24 Q194.607 1135.11 192.778 1131.57 Q190.973 1128 187.338 1128 M187.338 1124.3 Q193.149 1124.3 196.204 1128.91 Q199.283 1133.49 199.283 1142.24 Q199.283 1150.97 196.204 1155.57 Q193.149 1160.15 187.338 1160.15 Q181.528 1160.15 178.45 1155.57 Q175.394 1150.97 175.394 1142.24 Q175.394 1133.49 178.45 1128.91 Q181.528 1124.3 187.338 1124.3 Z" fill="#000000" fill-rule="nonzero" fill-opacity="1" /><path clip-path="url(#clip650)" d="M129.862 878.097 L118.056 896.546 L129.862 896.546 L129.862 878.097 M128.635 874.023 L134.515 874.023 L134.515 896.546 L139.445 896.546 L139.445 900.435 L134.515 900.435 L134.515 908.583 L129.862 908.583 L129.862 900.435 L114.26 900.435 L114.26 895.921 L128.635 874.023 Z" fill="#000000" fill-rule="nonzero" fill-opacity="1" /><path clip-path="url(#clip650)" d="M157.177 877.102 Q153.566 877.102 151.737 880.667 Q149.931 884.208 149.931 891.338 Q149.931 898.444 151.737 902.009 Q153.566 905.551 157.177 905.551 Q160.811 905.551 162.616 902.009 Q164.445 898.444 164.445 891.338 Q164.445 884.208 162.616 880.667 Q160.811 877.102 157.177 877.102 M157.177 873.398 Q162.987 873.398 166.042 878.005 Q169.121 882.588 169.121 891.338 Q169.121 900.065 166.042 904.671 Q162.987 909.254 157.177 909.254 Q151.366 909.254 148.288 904.671 Q145.232 900.065 145.232 891.338 Q145.232 882.588 148.288 878.005 Q151.366 873.398 157.177 873.398 Z" fill="#000000" fill-rule="nonzero" fill-opacity="1" /><path clip-path="url(#clip650)" d="M187.338 877.102 Q183.727 877.102 181.899 880.667 Q180.093 884.208 180.093 891.338 Q180.093 898.444 181.899 902.009 Q183.727 905.551 187.338 905.551 Q190.973 905.551 192.778 902.009 Q194.607 898.444 194.607 891.338 Q194.607 884.208 192.778 880.667 Q190.973 877.102 187.338 877.102 M187.338 873.398 Q193.149 873.398 196.204 878.005 Q199.283 882.588 199.283 891.338 Q199.283 900.065 196.204 904.671 Q193.149 909.254 187.338 909.254 Q181.528 909.254 178.45 904.671 Q175.394 900.065 175.394 891.338 Q175.394 882.588 178.45 878.005 Q181.528 873.398 187.338 873.398 Z" fill="#000000" fill-rule="nonzero" fill-opacity="1" /><path clip-path="url(#clip650)" d="M127.593 638.539 Q124.445 638.539 122.593 640.692 Q120.765 642.845 120.765 646.595 Q120.765 650.322 122.593 652.497 Q124.445 654.65 127.593 654.65 Q130.742 654.65 132.57 652.497 Q134.422 650.322 134.422 646.595 Q134.422 642.845 132.57 640.692 Q130.742 638.539 127.593 638.539 M136.876 623.887 L136.876 628.146 Q135.117 627.312 133.311 626.873 Q131.529 626.433 129.769 626.433 Q125.14 626.433 122.686 629.558 Q120.255 632.683 119.908 639.002 Q121.274 636.988 123.334 635.924 Q125.394 634.836 127.871 634.836 Q133.08 634.836 136.089 638.007 Q139.121 641.155 139.121 646.595 Q139.121 651.919 135.973 655.136 Q132.825 658.354 127.593 658.354 Q121.598 658.354 118.427 653.771 Q115.256 649.164 115.256 640.437 Q115.256 632.243 119.144 627.382 Q123.033 622.498 129.584 622.498 Q131.343 622.498 133.126 622.845 Q134.931 623.192 136.876 623.887 Z" fill="#000000" fill-rule="nonzero" fill-opacity="1" /><path clip-path="url(#clip650)" d="M157.177 626.201 Q153.566 626.201 151.737 629.766 Q149.931 633.308 149.931 640.437 Q149.931 647.544 151.737 651.109 Q153.566 654.65 157.177 654.65 Q160.811 654.65 162.616 651.109 Q164.445 647.544 164.445 640.437 Q164.445 633.308 162.616 629.766 Q160.811 626.201 157.177 626.201 M157.177 622.498 Q162.987 622.498 166.042 627.104 Q169.121 631.687 169.121 640.437 Q169.121 649.164 166.042 653.771 Q162.987 658.354 157.177 658.354 Q151.366 658.354 148.288 653.771 Q145.232 649.164 145.232 640.437 Q145.232 631.687 148.288 627.104 Q151.366 622.498 157.177 622.498 Z" fill="#000000" fill-rule="nonzero" fill-opacity="1" /><path clip-path="url(#clip650)" d="M187.338 626.201 Q183.727 626.201 181.899 629.766 Q180.093 633.308 180.093 640.437 Q180.093 647.544 181.899 651.109 Q183.727 654.65 187.338 654.65 Q190.973 654.65 192.778 651.109 Q194.607 647.544 194.607 640.437 Q194.607 633.308 192.778 629.766 Q190.973 626.201 187.338 626.201 M187.338 622.498 Q193.149 622.498 196.204 627.104 Q199.283 631.687 199.283 640.437 Q199.283 649.164 196.204 653.771 Q193.149 658.354 187.338 658.354 Q181.528 658.354 178.45 653.771 Q175.394 649.164 175.394 640.437 Q175.394 631.687 178.45 627.104 Q181.528 622.498 187.338 622.498 Z" fill="#000000" fill-rule="nonzero" fill-opacity="1" /><path clip-path="url(#clip650)" d="M127.015 390.37 Q123.681 390.37 121.76 392.153 Q119.862 393.935 119.862 397.06 Q119.862 400.185 121.76 401.967 Q123.681 403.75 127.015 403.75 Q130.348 403.75 132.269 401.967 Q134.191 400.162 134.191 397.06 Q134.191 393.935 132.269 392.153 Q130.371 390.37 127.015 390.37 M122.339 388.379 Q119.33 387.639 117.64 385.579 Q115.973 383.518 115.973 380.555 Q115.973 376.412 118.913 374.005 Q121.876 371.597 127.015 371.597 Q132.177 371.597 135.117 374.005 Q138.056 376.412 138.056 380.555 Q138.056 383.518 136.367 385.579 Q134.7 387.639 131.714 388.379 Q135.093 389.167 136.968 391.458 Q138.867 393.75 138.867 397.06 Q138.867 402.083 135.788 404.768 Q132.732 407.453 127.015 407.453 Q121.297 407.453 118.218 404.768 Q115.163 402.083 115.163 397.06 Q115.163 393.75 117.061 391.458 Q118.959 389.167 122.339 388.379 M120.626 380.995 Q120.626 383.68 122.293 385.185 Q123.982 386.69 127.015 386.69 Q130.024 386.69 131.714 385.185 Q133.427 383.68 133.427 380.995 Q133.427 378.31 131.714 376.805 Q130.024 375.301 127.015 375.301 Q123.982 375.301 122.293 376.805 Q120.626 378.31 120.626 380.995 Z" fill="#000000" fill-rule="nonzero" fill-opacity="1" /><path clip-path="url(#clip650)" d="M157.177 375.301 Q153.566 375.301 151.737 378.866 Q149.931 382.407 149.931 389.537 Q149.931 396.643 151.737 400.208 Q153.566 403.75 157.177 403.75 Q160.811 403.75 162.616 400.208 Q164.445 396.643 164.445 389.537 Q164.445 382.407 162.616 378.866 Q160.811 375.301 157.177 375.301 M157.177 371.597 Q162.987 371.597 166.042 376.204 Q169.121 380.787 169.121 389.537 Q169.121 398.264 166.042 402.87 Q162.987 407.453 157.177 407.453 Q151.366 407.453 148.288 402.87 Q145.232 398.264 145.232 389.537 Q145.232 380.787 148.288 376.204 Q151.366 371.597 157.177 371.597 Z" fill="#000000" fill-rule="nonzero" fill-opacity="1" /><path clip-path="url(#clip650)" d="M187.338 375.301 Q183.727 375.301 181.899 378.866 Q180.093 382.407 180.093 389.537 Q180.093 396.643 181.899 400.208 Q183.727 403.75 187.338 403.75 Q190.973 403.75 192.778 400.208 Q194.607 396.643 194.607 389.537 Q194.607 382.407 192.778 378.866 Q190.973 375.301 187.338 375.301 M187.338 371.597 Q193.149 371.597 196.204 376.204 Q199.283 380.787 199.283 389.537 Q199.283 398.264 196.204 402.87 Q193.149 407.453 187.338 407.453 Q181.528 407.453 178.45 402.87 Q175.394 398.264 175.394 389.537 Q175.394 380.787 178.45 376.204 Q181.528 371.597 187.338 371.597 Z" fill="#000000" fill-rule="nonzero" fill-opacity="1" /><path clip-path="url(#clip650)" d="M41.7242 842.447 Q42.4244 840.379 44.7161 838.437 Q47.0077 836.464 51.0181 834.49 L64.0042 827.965 L64.0042 834.872 L51.8138 840.951 Q47.0395 843.307 45.48 845.535 Q43.9204 847.731 43.9204 851.55 L43.9204 858.553 L64.0042 858.553 L64.0042 864.982 L16.4842 864.982 L16.4842 850.468 Q16.4842 842.32 19.8898 838.31 Q23.2955 834.299 30.1704 834.299 Q34.6582 834.299 37.6183 836.4 Q40.5784 838.469 41.7242 842.447 M21.7677 858.553 L38.6368 858.553 L38.6368 850.468 Q38.6368 845.821 36.5043 843.466 Q34.34 841.079 30.1704 841.079 Q26.0009 841.079 23.9002 843.466 Q21.7677 845.821 21.7677 850.468 L21.7677 858.553 Z" fill="#000000" fill-rule="nonzero" fill-opacity="1" /><path clip-path="url(#clip650)" d="M46.0847 805.176 Q46.0847 812.274 47.7079 815.011 Q49.3312 817.748 53.2461 817.748 Q56.3653 817.748 58.2114 815.711 Q60.0256 813.643 60.0256 810.11 Q60.0256 805.24 56.5881 802.312 Q53.1188 799.352 47.3897 799.352 L46.0847 799.352 L46.0847 805.176 M43.6657 793.495 L64.0042 793.495 L64.0042 799.352 L58.5933 799.352 Q61.8398 801.357 63.3994 804.349 Q64.9272 807.341 64.9272 811.669 Q64.9272 817.144 61.8716 820.39 Q58.7843 823.605 53.6281 823.605 Q47.6125 823.605 44.5569 819.595 Q41.5014 815.552 41.5014 807.563 L41.5014 799.352 L40.9285 799.352 Q36.8862 799.352 34.6901 802.025 Q32.4621 804.667 32.4621 809.473 Q32.4621 812.529 33.1941 815.425 Q33.9262 818.321 35.3903 820.995 L29.9795 820.995 Q28.7381 817.78 28.1334 814.757 Q27.4968 811.733 27.4968 808.868 Q27.4968 801.134 31.5072 797.315 Q35.5176 793.495 43.6657 793.495 Z" fill="#000000" fill-rule="nonzero" fill-opacity="1" /><path clip-path="url(#clip650)" d="M18.2347 775.639 L28.3562 775.639 L28.3562 763.576 L32.9077 763.576 L32.9077 775.639 L52.2594 775.639 Q56.6199 775.639 57.8613 774.462 Q59.1026 773.252 59.1026 769.592 L59.1026 763.576 L64.0042 763.576 L64.0042 769.592 Q64.0042 776.371 61.4897 778.95 Q58.9434 781.528 52.2594 781.528 L32.9077 781.528 L32.9077 785.824 L28.3562 785.824 L28.3562 781.528 L18.2347 781.528 L18.2347 775.639 Z" fill="#000000" fill-rule="nonzero" fill-opacity="1" /><path clip-path="url(#clip650)" d="M28.3562 755.874 L28.3562 750.017 L64.0042 750.017 L64.0042 755.874 L28.3562 755.874 M14.479 755.874 L14.479 750.017 L21.895 750.017 L21.895 755.874 L14.479 755.874 Z" fill="#000000" fill-rule="nonzero" fill-opacity="1" /><path clip-path="url(#clip650)" d="M32.4621 723.95 Q32.4621 728.66 36.1542 731.398 Q39.8145 734.135 46.212 734.135 Q52.6095 734.135 56.3017 731.43 Q59.9619 728.692 59.9619 723.95 Q59.9619 719.271 56.2698 716.534 Q52.5777 713.796 46.212 713.796 Q39.8781 713.796 36.186 716.534 Q32.4621 719.271 32.4621 723.95 M27.4968 723.95 Q27.4968 716.311 32.4621 711.95 Q37.4273 707.59 46.212 707.59 Q54.9649 707.59 59.9619 711.95 Q64.9272 716.311 64.9272 723.95 Q64.9272 731.62 59.9619 735.981 Q54.9649 740.31 46.212 740.31 Q37.4273 740.31 32.4621 735.981 Q27.4968 731.62 27.4968 723.95 Z" fill="#000000" fill-rule="nonzero" fill-opacity="1" /><path clip-path="url(#clip650)" d="M753.933 23.76 L790.478 23.76 L790.478 28.679 L775.142 28.679 L775.142 66.96 L769.268 66.96 L769.268 28.679 L753.933 28.679 L753.933 23.76 Z" fill="#000000" fill-rule="nonzero" fill-opacity="1" /><path clip-path="url(#clip650)" d="M794.065 34.5528 L799.39 34.5528 L799.39 66.96 L794.065 66.96 L794.065 34.5528 M794.065 21.9371 L799.39 21.9371 L799.39 28.679 L794.065 28.679 L794.065 21.9371 Z" fill="#000000" fill-rule="nonzero" fill-opacity="1" /><path clip-path="url(#clip650)" d="M835.761 40.7738 Q837.757 37.1859 840.535 35.4787 Q843.313 33.7715 847.074 33.7715 Q852.138 33.7715 854.887 37.3305 Q857.636 40.8606 857.636 47.3999 L857.636 66.96 L852.283 66.96 L852.283 47.5735 Q852.283 42.915 850.633 40.6581 Q848.984 38.4011 845.599 38.4011 Q841.461 38.4011 839.059 41.15 Q836.658 43.8988 836.658 48.6441 L836.658 66.96 L831.305 66.96 L831.305 47.5735 Q831.305 42.8861 829.656 40.6581 Q828.006 38.4011 824.563 38.4011 Q820.483 38.4011 818.082 41.1789 Q815.68 43.9277 815.68 48.6441 L815.68 66.96 L810.327 66.96 L810.327 34.5528 L815.68 34.5528 L815.68 39.5875 Q817.503 36.6072 820.049 35.1893 Q822.595 33.7715 826.097 33.7715 Q829.627 33.7715 832.086 35.5655 Q834.575 37.3595 835.761 40.7738 Z" fill="#000000" fill-rule="nonzero" fill-opacity="1" /><path clip-path="url(#clip650)" d="M895.975 49.4254 L895.975 52.0295 L871.496 52.0295 Q871.843 57.5272 874.794 60.4207 Q877.775 63.2853 883.07 63.2853 Q886.137 63.2853 889.001 62.5329 Q891.895 61.7806 894.73 60.276 L894.73 65.3107 Q891.866 66.526 888.857 67.1625 Q885.847 67.7991 882.751 67.7991 Q874.997 67.7991 870.454 63.2853 Q865.94 58.7714 865.94 51.0747 Q865.94 43.1175 870.222 38.459 Q874.534 33.7715 881.825 33.7715 Q888.365 33.7715 892.155 37.996 Q895.975 42.1916 895.975 49.4254 M890.651 47.8629 Q890.593 43.4937 888.191 40.8895 Q885.818 38.2854 881.883 38.2854 Q877.427 38.2854 874.736 40.8027 Q872.074 43.3201 871.669 47.8918 L890.651 47.8629 Z" fill="#000000" fill-rule="nonzero" fill-opacity="1" /><path clip-path="url(#clip650)" d="M942.329 39.5296 Q941.432 39.0088 940.361 38.7773 Q939.319 38.5169 938.046 38.5169 Q933.532 38.5169 931.102 41.4682 Q928.7 44.3907 928.7 49.8883 L928.7 66.96 L923.347 66.96 L923.347 34.5528 L928.7 34.5528 L928.7 39.5875 Q930.378 36.6361 933.069 35.2183 Q935.76 33.7715 939.609 33.7715 Q940.158 33.7715 940.824 33.8583 Q941.489 33.9162 942.3 34.0609 L942.329 39.5296 Z" fill="#000000" fill-rule="nonzero" fill-opacity="1" /><path clip-path="url(#clip650)" d="M962.641 50.6696 Q956.188 50.6696 953.7 52.1453 Q951.212 53.621 951.212 57.18 Q951.212 60.0156 953.063 61.6938 Q954.944 63.3431 958.156 63.3431 Q962.583 63.3431 965.245 60.2181 Q967.936 57.0642 967.936 51.8559 L967.936 50.6696 L962.641 50.6696 M973.26 48.4705 L973.26 66.96 L967.936 66.96 L967.936 62.041 Q966.113 64.9924 963.393 66.4102 Q960.673 67.7991 956.738 67.7991 Q951.761 67.7991 948.81 65.0214 Q945.888 62.2147 945.888 57.5272 Q945.888 52.0585 949.533 49.2807 Q953.208 46.5029 960.471 46.5029 L967.936 46.5029 L967.936 45.9821 Q967.936 42.3074 965.506 40.3108 Q963.104 38.2854 958.735 38.2854 Q955.957 38.2854 953.324 38.9509 Q950.691 39.6164 948.26 40.9474 L948.26 36.0285 Q951.183 34.9 953.932 34.3502 Q956.68 33.7715 959.284 33.7715 Q966.316 33.7715 969.788 37.4173 Q973.26 41.0631 973.26 48.4705 Z" fill="#000000" fill-rule="nonzero" fill-opacity="1" /><path clip-path="url(#clip650)" d="M989.493 25.3514 L989.493 34.5528 L1000.46 34.5528 L1000.46 38.6905 L989.493 38.6905 L989.493 56.283 Q989.493 60.2471 990.563 61.3755 Q991.663 62.504 994.99 62.504 L1000.46 62.504 L1000.46 66.96 L994.99 66.96 Q988.827 66.96 986.483 64.6741 Q984.14 62.3593 984.14 56.283 L984.14 38.6905 L980.233 38.6905 L980.233 34.5528 L984.14 34.5528 L984.14 25.3514 L989.493 25.3514 Z" fill="#000000" fill-rule="nonzero" fill-opacity="1" /><path clip-path="url(#clip650)" d="M1007.46 34.5528 L1012.79 34.5528 L1012.79 66.96 L1007.46 66.96 L1007.46 34.5528 M1007.46 21.9371 L1012.79 21.9371 L1012.79 28.679 L1007.46 28.679 L1007.46 21.9371 Z" fill="#000000" fill-rule="nonzero" fill-opacity="1" /><path clip-path="url(#clip650)" d="M1036.48 38.2854 Q1032.2 38.2854 1029.71 41.6418 Q1027.22 44.9694 1027.22 50.7853 Q1027.22 56.6013 1029.68 59.9577 Q1032.17 63.2853 1036.48 63.2853 Q1040.74 63.2853 1043.23 59.9288 Q1045.71 56.5723 1045.71 50.7853 Q1045.71 45.0272 1043.23 41.6708 Q1040.74 38.2854 1036.48 38.2854 M1036.48 33.7715 Q1043.43 33.7715 1047.39 38.2854 Q1051.36 42.7992 1051.36 50.7853 Q1051.36 58.7425 1047.39 63.2853 Q1043.43 67.7991 1036.48 67.7991 Q1029.51 67.7991 1025.55 63.2853 Q1021.61 58.7425 1021.61 50.7853 Q1021.61 42.7992 1025.55 38.2854 Q1029.51 33.7715 1036.48 33.7715 Z" fill="#000000" fill-rule="nonzero" fill-opacity="1" /><path clip-path="url(#clip650)" d="M1061.54 59.6105 L1067.65 59.6105 L1067.65 64.5873 L1062.9 73.8465 L1059.17 73.8465 L1061.54 64.5873 L1061.54 59.6105 Z" fill="#000000" fill-rule="nonzero" fill-opacity="1" /><path clip-path="url(#clip650)" d="M1123.98 25.1778 L1123.98 30.878 Q1120.66 29.2866 1117.7 28.5053 Q1114.75 27.7241 1112 27.7241 Q1107.23 27.7241 1104.63 29.5759 Q1102.05 31.4278 1102.05 34.8421 Q1102.05 37.7067 1103.76 39.1824 Q1105.49 40.6291 1110.3 41.5261 L1113.83 42.2495 Q1120.37 43.4937 1123.46 46.6476 Q1126.59 49.7726 1126.59 55.0388 Q1126.59 61.3177 1122.36 64.5584 Q1118.17 67.7991 1110.04 67.7991 Q1106.97 67.7991 1103.5 67.1047 Q1100.05 66.4102 1096.35 65.0503 L1096.35 59.0318 Q1099.91 61.0283 1103.32 62.041 Q1106.74 63.0538 1110.04 63.0538 Q1115.04 63.0538 1117.76 61.0862 Q1120.48 59.1186 1120.48 55.4728 Q1120.48 52.2899 1118.51 50.496 Q1116.58 48.702 1112.12 47.805 L1108.56 47.1106 Q1102.02 45.8085 1099.1 43.0307 Q1096.18 40.253 1096.18 35.3051 Q1096.18 29.5759 1100.2 26.2773 Q1104.25 22.9788 1111.34 22.9788 Q1114.38 22.9788 1117.53 23.5285 Q1120.68 24.0783 1123.98 25.1778 Z" fill="#000000" fill-rule="nonzero" fill-opacity="1" /><path clip-path="url(#clip650)" d="M1148.95 69.9692 Q1146.7 75.7562 1144.56 77.5213 Q1142.41 79.2863 1138.83 79.2863 L1134.57 79.2863 L1134.57 74.8303 L1137.7 74.8303 Q1139.9 74.8303 1141.11 73.7887 Q1142.33 72.747 1143.8 68.8697 L1144.76 66.4392 L1131.65 34.5528 L1137.29 34.5528 L1147.42 59.8999 L1157.55 34.5528 L1163.19 34.5528 L1148.95 69.9692 Z" fill="#000000" fill-rule="nonzero" fill-opacity="1" /><path clip-path="url(#clip650)" d="M1195.77 40.7738 Q1197.77 37.1859 1200.54 35.4787 Q1203.32 33.7715 1207.08 33.7715 Q1212.15 33.7715 1214.9 37.3305 Q1217.65 40.8606 1217.65 47.3999 L1217.65 66.96 L1212.29 66.96 L1212.29 47.5735 Q1212.29 42.915 1210.64 40.6581 Q1208.99 38.4011 1205.61 38.4011 Q1201.47 38.4011 1199.07 41.15 Q1196.67 43.8988 1196.67 48.6441 L1196.67 66.96 L1191.31 66.96 L1191.31 47.5735 Q1191.31 42.8861 1189.67 40.6581 Q1188.02 38.4011 1184.57 38.4011 Q1180.49 38.4011 1178.09 41.1789 Q1175.69 43.9277 1175.69 48.6441 L1175.69 66.96 L1170.34 66.96 L1170.34 34.5528 L1175.69 34.5528 L1175.69 39.5875 Q1177.51 36.6072 1180.06 35.1893 Q1182.61 33.7715 1186.11 33.7715 Q1189.64 33.7715 1192.1 35.5655 Q1194.58 37.3595 1195.77 40.7738 Z" fill="#000000" fill-rule="nonzero" fill-opacity="1" /><path clip-path="url(#clip650)" d="M1251.53 50.7853 Q1251.53 44.9115 1249.1 41.584 Q1246.7 38.2275 1242.47 38.2275 Q1238.25 38.2275 1235.82 41.584 Q1233.41 44.9115 1233.41 50.7853 Q1233.41 56.6591 1235.82 60.0156 Q1238.25 63.3431 1242.47 63.3431 Q1246.7 63.3431 1249.1 60.0156 Q1251.53 56.6591 1251.53 50.7853 M1233.41 39.4717 Q1235.09 36.5782 1237.64 35.1893 Q1240.21 33.7715 1243.77 33.7715 Q1249.68 33.7715 1253.35 38.459 Q1257.05 43.1465 1257.05 50.7853 Q1257.05 58.4242 1253.35 63.1116 Q1249.68 67.7991 1243.77 67.7991 Q1240.21 67.7991 1237.64 66.4102 Q1235.09 64.9924 1233.41 62.0989 L1233.41 66.96 L1228.06 66.96 L1228.06 21.9371 L1233.41 21.9371 L1233.41 39.4717 Z" fill="#000000" fill-rule="nonzero" fill-opacity="1" /><path clip-path="url(#clip650)" d="M1278.44 38.2854 Q1274.16 38.2854 1271.67 41.6418 Q1269.18 44.9694 1269.18 50.7853 Q1269.18 56.6013 1271.64 59.9577 Q1274.13 63.2853 1278.44 63.2853 Q1282.69 63.2853 1285.18 59.9288 Q1287.67 56.5723 1287.67 50.7853 Q1287.67 45.0272 1285.18 41.6708 Q1282.69 38.2854 1278.44 38.2854 M1278.44 33.7715 Q1285.38 33.7715 1289.35 38.2854 Q1293.31 42.7992 1293.31 50.7853 Q1293.31 58.7425 1289.35 63.2853 Q1285.38 67.7991 1278.44 67.7991 Q1271.46 67.7991 1267.5 63.2853 Q1263.57 58.7425 1263.57 50.7853 Q1263.57 42.7992 1267.5 38.2854 Q1271.46 33.7715 1278.44 33.7715 Z" fill="#000000" fill-rule="nonzero" fill-opacity="1" /><path clip-path="url(#clip650)" d="M1302.14 21.9371 L1307.46 21.9371 L1307.46 66.96 L1302.14 66.96 L1302.14 21.9371 Z" fill="#000000" fill-rule="nonzero" fill-opacity="1" /><path clip-path="url(#clip650)" d="M1318.6 34.5528 L1323.92 34.5528 L1323.92 66.96 L1318.6 66.96 L1318.6 34.5528 M1318.6 21.9371 L1323.92 21.9371 L1323.92 28.679 L1318.6 28.679 L1318.6 21.9371 Z" fill="#000000" fill-rule="nonzero" fill-opacity="1" /><path clip-path="url(#clip650)" d="M1358.39 35.797 L1358.39 40.7738 Q1356.13 39.5296 1353.84 38.922 Q1351.59 38.2854 1349.27 38.2854 Q1344.09 38.2854 1341.23 41.584 Q1338.36 44.8536 1338.36 50.7853 Q1338.36 56.717 1341.23 60.0156 Q1344.09 63.2853 1349.27 63.2853 Q1351.59 63.2853 1353.84 62.6776 Q1356.13 62.041 1358.39 60.7968 L1358.39 65.7158 Q1356.16 66.7575 1353.76 67.2783 Q1351.38 67.7991 1348.69 67.7991 Q1341.37 67.7991 1337.06 63.1984 Q1332.75 58.5978 1332.75 50.7853 Q1332.75 42.8571 1337.09 38.3143 Q1341.46 33.7715 1349.04 33.7715 Q1351.5 33.7715 1353.84 34.2924 Q1356.19 34.7842 1358.39 35.797 Z" fill="#000000" fill-rule="nonzero" fill-opacity="1" /><path clip-path="url(#clip650)" d="M1388.3 35.5076 L1388.3 40.5423 Q1386.05 39.3849 1383.62 38.8062 Q1381.19 38.2275 1378.58 38.2275 Q1374.62 38.2275 1372.62 39.4428 Q1370.65 40.6581 1370.65 43.0886 Q1370.65 44.9404 1372.07 46.011 Q1373.49 47.0527 1377.77 48.0076 L1379.59 48.4126 Q1385.27 49.6279 1387.64 51.8559 Q1390.04 54.055 1390.04 58.0191 Q1390.04 62.5329 1386.45 65.166 Q1382.89 67.7991 1376.64 67.7991 Q1374.04 67.7991 1371.2 67.2783 Q1368.4 66.7864 1365.27 65.7737 L1365.27 60.276 Q1368.22 61.8096 1371.09 62.5908 Q1373.95 63.3431 1376.76 63.3431 Q1380.52 63.3431 1382.55 62.07 Q1384.57 60.7679 1384.57 58.4242 Q1384.57 56.254 1383.1 55.0966 Q1381.65 53.9392 1376.7 52.8686 L1374.85 52.4346 Q1369.9 51.393 1367.7 49.2518 Q1365.5 47.0816 1365.5 43.3201 Q1365.5 38.7483 1368.74 36.2599 Q1371.98 33.7715 1377.95 33.7715 Q1380.9 33.7715 1383.5 34.2055 Q1386.11 34.6396 1388.3 35.5076 Z" fill="#000000" fill-rule="nonzero" fill-opacity="1" /><path clip-path="url(#clip650)" d="M1407.98 23.76 L1412.9 23.76 L1397.85 72.4577 L1392.93 72.4577 L1407.98 23.76 Z" fill="#000000" fill-rule="nonzero" fill-opacity="1" /><path clip-path="url(#clip650)" d="M1418.71 23.76 L1443.54 23.76 L1443.54 28.679 L1424.56 28.679 L1424.56 41.4104 L1441.69 41.4104 L1441.69 46.3293 L1424.56 46.3293 L1424.56 66.96 L1418.71 66.96 L1418.71 23.76 Z" fill="#000000" fill-rule="nonzero" fill-opacity="1" /><path clip-path="url(#clip650)" d="M1477.66 25.1778 L1477.66 30.878 Q1474.33 29.2866 1471.38 28.5053 Q1468.43 27.7241 1465.68 27.7241 Q1460.9 27.7241 1458.3 29.5759 Q1455.72 31.4278 1455.72 34.8421 Q1455.72 37.7067 1457.43 39.1824 Q1459.17 40.6291 1463.97 41.5261 L1467.5 42.2495 Q1474.04 43.4937 1477.13 46.6476 Q1480.26 49.7726 1480.26 55.0388 Q1480.26 61.3177 1476.04 64.5584 Q1471.84 67.7991 1463.71 67.7991 Q1460.64 67.7991 1457.17 67.1047 Q1453.73 66.4102 1450.02 65.0503 L1450.02 59.0318 Q1453.58 61.0283 1457 62.041 Q1460.41 63.0538 1463.71 63.0538 Q1468.71 63.0538 1471.43 61.0862 Q1474.15 59.1186 1474.15 55.4728 Q1474.15 52.2899 1472.19 50.496 Q1470.25 48.702 1465.79 47.805 L1462.23 47.1106 Q1455.69 45.8085 1452.77 43.0307 Q1449.85 40.253 1449.85 35.3051 Q1449.85 29.5759 1453.87 26.2773 Q1457.92 22.9788 1465.01 22.9788 Q1468.05 22.9788 1471.2 23.5285 Q1474.36 24.0783 1477.66 25.1778 Z" fill="#000000" fill-rule="nonzero" fill-opacity="1" /><path clip-path="url(#clip650)" d="M1495.22 28.5632 L1495.22 62.1568 L1502.28 62.1568 Q1511.22 62.1568 1515.36 58.1059 Q1519.52 54.055 1519.52 45.3166 Q1519.52 36.6361 1515.36 32.6141 Q1511.22 28.5632 1502.28 28.5632 L1495.22 28.5632 M1489.37 23.76 L1501.38 23.76 Q1513.94 23.76 1519.81 28.9972 Q1525.69 34.2055 1525.69 45.3166 Q1525.69 56.4855 1519.78 61.7228 Q1513.88 66.96 1501.38 66.96 L1489.37 66.96 L1489.37 23.76 Z" fill="#000000" fill-rule="nonzero" fill-opacity="1" /><path clip-path="url(#clip650)" d="M1536.13 59.6105 L1542.24 59.6105 L1542.24 66.96 L1536.13 66.96 L1536.13 59.6105 M1536.13 36.3178 L1542.24 36.3178 L1542.24 43.6673 L1536.13 43.6673 L1536.13 36.3178 Z" fill="#000000" fill-rule="nonzero" fill-opacity="1" /><path clip-path="url(#clip650)" d="M1599.7 25.1778 L1599.7 30.878 Q1596.38 29.2866 1593.42 28.5053 Q1590.47 27.7241 1587.72 27.7241 Q1582.95 27.7241 1580.35 29.5759 Q1577.77 31.4278 1577.77 34.8421 Q1577.77 37.7067 1579.48 39.1824 Q1581.21 40.6291 1586.02 41.5261 L1589.55 42.2495 Q1596.09 43.4937 1599.18 46.6476 Q1602.31 49.7726 1602.31 55.0388 Q1602.31 61.3177 1598.08 64.5584 Q1593.89 67.7991 1585.76 67.7991 Q1582.69 67.7991 1579.22 67.1047 Q1575.77 66.4102 1572.07 65.0503 L1572.07 59.0318 Q1575.63 61.0283 1579.04 62.041 Q1582.46 63.0538 1585.76 63.0538 Q1590.76 63.0538 1593.48 61.0862 Q1596.2 59.1186 1596.2 55.4728 Q1596.2 52.2899 1594.23 50.496 Q1592.3 48.702 1587.84 47.805 L1584.28 47.1106 Q1577.74 45.8085 1574.82 43.0307 Q1571.9 40.253 1571.9 35.3051 Q1571.9 29.5759 1575.92 26.2773 Q1579.97 22.9788 1587.06 22.9788 Q1590.1 22.9788 1593.25 23.5285 Q1596.4 24.0783 1599.7 25.1778 Z" fill="#000000" fill-rule="nonzero" fill-opacity="1" /><path clip-path="url(#clip650)" d="M1624.67 69.9692 Q1622.42 75.7562 1620.28 77.5213 Q1618.14 79.2863 1614.55 79.2863 L1610.29 79.2863 L1610.29 74.8303 L1613.42 74.8303 Q1615.62 74.8303 1616.83 73.7887 Q1618.05 72.747 1619.52 68.8697 L1620.48 66.4392 L1607.37 34.5528 L1613.01 34.5528 L1623.14 59.8999 L1633.27 34.5528 L1638.91 34.5528 L1624.67 69.9692 Z" fill="#000000" fill-rule="nonzero" fill-opacity="1" /><path clip-path="url(#clip650)" d="M1671.49 40.7738 Q1673.49 37.1859 1676.27 35.4787 Q1679.04 33.7715 1682.8 33.7715 Q1687.87 33.7715 1690.62 37.3305 Q1693.37 40.8606 1693.37 47.3999 L1693.37 66.96 L1688.01 66.96 L1688.01 47.5735 Q1688.01 42.915 1686.36 40.6581 Q1684.71 38.4011 1681.33 38.4011 Q1677.19 38.4011 1674.79 41.15 Q1672.39 43.8988 1672.39 48.6441 L1672.39 66.96 L1667.04 66.96 L1667.04 47.5735 Q1667.04 42.8861 1665.39 40.6581 Q1663.74 38.4011 1660.29 38.4011 Q1656.21 38.4011 1653.81 41.1789 Q1651.41 43.9277 1651.41 48.6441 L1651.41 66.96 L1646.06 66.96 L1646.06 34.5528 L1651.41 34.5528 L1651.41 39.5875 Q1653.23 36.6072 1655.78 35.1893 Q1658.33 33.7715 1661.83 33.7715 Q1665.36 33.7715 1667.82 35.5655 Q1670.3 37.3595 1671.49 40.7738 Z" fill="#000000" fill-rule="nonzero" fill-opacity="1" /><path clip-path="url(#clip650)" d="M1727.25 50.7853 Q1727.25 44.9115 1724.82 41.584 Q1722.42 38.2275 1718.19 38.2275 Q1713.97 38.2275 1711.54 41.584 Q1709.14 44.9115 1709.14 50.7853 Q1709.14 56.6591 1711.54 60.0156 Q1713.97 63.3431 1718.19 63.3431 Q1722.42 63.3431 1724.82 60.0156 Q1727.25 56.6591 1727.25 50.7853 M1709.14 39.4717 Q1710.81 36.5782 1713.36 35.1893 Q1715.94 33.7715 1719.49 33.7715 Q1725.4 33.7715 1729.07 38.459 Q1732.78 43.1465 1732.78 50.7853 Q1732.78 58.4242 1729.07 63.1116 Q1725.4 67.7991 1719.49 67.7991 Q1715.94 67.7991 1713.36 66.4102 Q1710.81 64.9924 1709.14 62.0989 L1709.14 66.96 L1703.78 66.96 L1703.78 21.9371 L1709.14 21.9371 L1709.14 39.4717 Z" fill="#000000" fill-rule="nonzero" fill-opacity="1" /><path clip-path="url(#clip650)" d="M1754.16 38.2854 Q1749.88 38.2854 1747.39 41.6418 Q1744.9 44.9694 1744.9 50.7853 Q1744.9 56.6013 1747.36 59.9577 Q1749.85 63.2853 1754.16 63.2853 Q1758.41 63.2853 1760.9 59.9288 Q1763.39 56.5723 1763.39 50.7853 Q1763.39 45.0272 1760.9 41.6708 Q1758.41 38.2854 1754.16 38.2854 M1754.16 33.7715 Q1761.1 33.7715 1765.07 38.2854 Q1769.03 42.7992 1769.03 50.7853 Q1769.03 58.7425 1765.07 63.2853 Q1761.1 67.7991 1754.16 67.7991 Q1747.19 67.7991 1743.22 63.2853 Q1739.29 58.7425 1739.29 50.7853 Q1739.29 42.7992 1743.22 38.2854 Q1747.19 33.7715 1754.16 33.7715 Z" fill="#000000" fill-rule="nonzero" fill-opacity="1" /><path clip-path="url(#clip650)" d="M1777.86 21.9371 L1783.18 21.9371 L1783.18 66.96 L1777.86 66.96 L1777.86 21.9371 Z" fill="#000000" fill-rule="nonzero" fill-opacity="1" /><path clip-path="url(#clip650)" d="M1794.32 34.5528 L1799.64 34.5528 L1799.64 66.96 L1794.32 66.96 L1794.32 34.5528 M1794.32 21.9371 L1799.64 21.9371 L1799.64 28.679 L1794.32 28.679 L1794.32 21.9371 Z" fill="#000000" fill-rule="nonzero" fill-opacity="1" /><path clip-path="url(#clip650)" d="M1834.11 35.797 L1834.11 40.7738 Q1831.85 39.5296 1829.56 38.922 Q1827.31 38.2854 1824.99 38.2854 Q1819.81 38.2854 1816.95 41.584 Q1814.08 44.8536 1814.08 50.7853 Q1814.08 56.717 1816.95 60.0156 Q1819.81 63.2853 1824.99 63.2853 Q1827.31 63.2853 1829.56 62.6776 Q1831.85 62.041 1834.11 60.7968 L1834.11 65.7158 Q1831.88 66.7575 1829.48 67.2783 Q1827.1 67.7991 1824.41 67.7991 Q1817.09 67.7991 1812.78 63.1984 Q1808.47 58.5978 1808.47 50.7853 Q1808.47 42.8571 1812.81 38.3143 Q1817.18 33.7715 1824.76 33.7715 Q1827.22 33.7715 1829.56 34.2924 Q1831.91 34.7842 1834.11 35.797 Z" fill="#000000" fill-rule="nonzero" fill-opacity="1" /><path clip-path="url(#clip650)" d="M1016.62 100.308 L1016.62 105.342 Q1014.36 104.185 1011.93 103.606 Q1009.5 103.028 1006.9 103.028 Q1002.93 103.028 1000.94 104.243 Q998.969 105.458 998.969 107.889 Q998.969 109.74 1000.39 110.811 Q1001.8 111.853 1006.09 112.808 L1007.91 113.213 Q1013.58 114.428 1015.95 116.656 Q1018.36 118.855 1018.36 122.819 Q1018.36 127.333 1014.77 129.966 Q1011.21 132.599 1004.96 132.599 Q1002.35 132.599 999.519 132.078 Q996.712 131.586 993.587 130.574 L993.587 125.076 Q996.538 126.61 999.403 127.391 Q1002.27 128.143 1005.07 128.143 Q1008.84 128.143 1010.86 126.87 Q1012.89 125.568 1012.89 123.224 Q1012.89 121.054 1011.41 119.897 Q1009.96 118.739 1005.02 117.669 L1003.16 117.235 Q998.217 116.193 996.018 114.052 Q993.818 111.882 993.818 108.12 Q993.818 103.548 997.059 101.06 Q1000.3 98.5715 1006.26 98.5715 Q1009.21 98.5715 1011.82 99.0055 Q1014.42 99.4396 1016.62 100.308 Z" fill="#000000" fill-rule="nonzero" fill-opacity="1" /><path clip-path="url(#clip650)" d="M1031.98 126.899 L1031.98 144.086 L1026.63 144.086 L1026.63 99.3528 L1031.98 99.3528 L1031.98 104.272 Q1033.66 101.378 1036.21 99.9893 Q1038.78 98.5715 1042.34 98.5715 Q1048.25 98.5715 1051.92 103.259 Q1055.62 107.946 1055.62 115.585 Q1055.62 123.224 1051.92 127.912 Q1048.25 132.599 1042.34 132.599 Q1038.78 132.599 1036.21 131.21 Q1033.66 129.792 1031.98 126.899 M1050.1 115.585 Q1050.1 109.712 1047.67 106.384 Q1045.26 103.028 1041.04 103.028 Q1036.82 103.028 1034.39 106.384 Q1031.98 109.712 1031.98 115.585 Q1031.98 121.459 1034.39 124.816 Q1036.82 128.143 1041.04 128.143 Q1045.26 128.143 1047.67 124.816 Q1050.1 121.459 1050.1 115.585 Z" fill="#000000" fill-rule="nonzero" fill-opacity="1" /><path clip-path="url(#clip650)" d="M1091.39 112.2 L1091.39 131.76 L1086.06 131.76 L1086.06 112.374 Q1086.06 107.773 1084.27 105.487 Q1082.48 103.201 1078.89 103.201 Q1074.58 103.201 1072.09 105.95 Q1069.6 108.699 1069.6 113.444 L1069.6 131.76 L1064.25 131.76 L1064.25 86.7371 L1069.6 86.7371 L1069.6 104.387 Q1071.51 101.465 1074.08 100.018 Q1076.69 98.5715 1080.07 98.5715 Q1085.66 98.5715 1088.52 102.044 Q1091.39 105.487 1091.39 112.2 Z" fill="#000000" fill-rule="nonzero" fill-opacity="1" /><path clip-path="url(#clip650)" d="M1129.73 114.225 L1129.73 116.83 L1105.25 116.83 Q1105.59 122.327 1108.55 125.221 Q1111.53 128.085 1116.82 128.085 Q1119.89 128.085 1122.75 127.333 Q1125.65 126.581 1128.48 125.076 L1128.48 130.111 Q1125.62 131.326 1122.61 131.963 Q1119.6 132.599 1116.5 132.599 Q1108.75 132.599 1104.21 128.085 Q1099.69 123.571 1099.69 115.875 Q1099.69 107.918 1103.97 103.259 Q1108.29 98.5715 1115.58 98.5715 Q1122.12 98.5715 1125.91 102.796 Q1129.73 106.992 1129.73 114.225 M1124.4 112.663 Q1124.34 108.294 1121.94 105.69 Q1119.57 103.085 1115.63 103.085 Q1111.18 103.085 1108.49 105.603 Q1105.83 108.12 1105.42 112.692 L1124.4 112.663 Z" fill="#000000" fill-rule="nonzero" fill-opacity="1" /><path clip-path="url(#clip650)" d="M1157.24 104.33 Q1156.35 103.809 1155.28 103.577 Q1154.23 103.317 1152.96 103.317 Q1148.45 103.317 1146.02 106.268 Q1143.62 109.191 1143.62 114.688 L1143.62 131.76 L1138.26 131.76 L1138.26 99.3528 L1143.62 99.3528 L1143.62 104.387 Q1145.29 101.436 1147.98 100.018 Q1150.68 98.5715 1154.52 98.5715 Q1155.07 98.5715 1155.74 98.6583 Q1156.4 98.7162 1157.21 98.8609 L1157.24 104.33 Z" fill="#000000" fill-rule="nonzero" fill-opacity="1" /><path clip-path="url(#clip650)" d="M1162.83 99.3528 L1168.15 99.3528 L1168.15 131.76 L1162.83 131.76 L1162.83 99.3528 M1162.83 86.7371 L1168.15 86.7371 L1168.15 93.479 L1162.83 93.479 L1162.83 86.7371 Z" fill="#000000" fill-rule="nonzero" fill-opacity="1" /><path clip-path="url(#clip650)" d="M1202.61 100.597 L1202.61 105.574 Q1200.36 104.33 1198.07 103.722 Q1195.81 103.085 1193.5 103.085 Q1188.32 103.085 1185.46 106.384 Q1182.59 109.654 1182.59 115.585 Q1182.59 121.517 1185.46 124.816 Q1188.32 128.085 1193.5 128.085 Q1195.81 128.085 1198.07 127.478 Q1200.36 126.841 1202.61 125.597 L1202.61 130.516 Q1200.39 131.557 1197.98 132.078 Q1195.61 132.599 1192.92 132.599 Q1185.6 132.599 1181.29 127.998 Q1176.98 123.398 1176.98 115.585 Q1176.98 107.657 1181.32 103.114 Q1185.69 98.5715 1193.27 98.5715 Q1195.73 98.5715 1198.07 99.0924 Q1200.41 99.5842 1202.61 100.597 Z" fill="#000000" fill-rule="nonzero" fill-opacity="1" /><path clip-path="url(#clip650)" d="M1226.6 115.47 Q1220.15 115.47 1217.66 116.945 Q1215.17 118.421 1215.17 121.98 Q1215.17 124.816 1217.02 126.494 Q1218.9 128.143 1222.12 128.143 Q1226.54 128.143 1229.2 125.018 Q1231.9 121.864 1231.9 116.656 L1231.9 115.47 L1226.6 115.47 M1237.22 113.271 L1237.22 131.76 L1231.9 131.76 L1231.9 126.841 Q1230.07 129.792 1227.35 131.21 Q1224.63 132.599 1220.7 132.599 Q1215.72 132.599 1212.77 129.821 Q1209.85 127.015 1209.85 122.327 Q1209.85 116.858 1213.49 114.081 Q1217.17 111.303 1224.43 111.303 L1231.9 111.303 L1231.9 110.782 Q1231.9 107.107 1229.47 105.111 Q1227.06 103.085 1222.69 103.085 Q1219.92 103.085 1217.28 103.751 Q1214.65 104.416 1212.22 105.747 L1212.22 100.828 Q1215.14 99.7 1217.89 99.1502 Q1220.64 98.5715 1223.24 98.5715 Q1230.28 98.5715 1233.75 102.217 Q1237.22 105.863 1237.22 113.271 Z" fill="#000000" fill-rule="nonzero" fill-opacity="1" /><path clip-path="url(#clip650)" d="M1248.19 86.7371 L1253.51 86.7371 L1253.51 131.76 L1248.19 131.76 L1248.19 86.7371 Z" fill="#000000" fill-rule="nonzero" fill-opacity="1" /><path clip-path="url(#clip650)" d="M1289.27 141.598 L1289.27 145.736 L1258.49 145.736 L1258.49 141.598 L1289.27 141.598 Z" fill="#000000" fill-rule="nonzero" fill-opacity="1" /><path clip-path="url(#clip650)" d="M1321.22 112.2 L1321.22 131.76 L1315.89 131.76 L1315.89 112.374 Q1315.89 107.773 1314.1 105.487 Q1312.31 103.201 1308.72 103.201 Q1304.41 103.201 1301.92 105.95 Q1299.43 108.699 1299.43 113.444 L1299.43 131.76 L1294.08 131.76 L1294.08 86.7371 L1299.43 86.7371 L1299.43 104.387 Q1301.34 101.465 1303.92 100.018 Q1306.52 98.5715 1309.9 98.5715 Q1315.49 98.5715 1318.35 102.044 Q1321.22 105.487 1321.22 112.2 Z" fill="#000000" fill-rule="nonzero" fill-opacity="1" /><path clip-path="url(#clip650)" d="M1346.57 115.47 Q1340.11 115.47 1337.62 116.945 Q1335.14 118.421 1335.14 121.98 Q1335.14 124.816 1336.99 126.494 Q1338.87 128.143 1342.08 128.143 Q1346.51 128.143 1349.17 125.018 Q1351.86 121.864 1351.86 116.656 L1351.86 115.47 L1346.57 115.47 M1357.18 113.271 L1357.18 131.76 L1351.86 131.76 L1351.86 126.841 Q1350.04 129.792 1347.32 131.21 Q1344.6 132.599 1340.66 132.599 Q1335.69 132.599 1332.73 129.821 Q1329.81 127.015 1329.81 122.327 Q1329.81 116.858 1333.46 114.081 Q1337.13 111.303 1344.4 111.303 L1351.86 111.303 L1351.86 110.782 Q1351.86 107.107 1349.43 105.111 Q1347.03 103.085 1342.66 103.085 Q1339.88 103.085 1337.25 103.751 Q1334.62 104.416 1332.18 105.747 L1332.18 100.828 Q1335.11 99.7 1337.86 99.1502 Q1340.6 98.5715 1343.21 98.5715 Q1350.24 98.5715 1353.71 102.217 Q1357.18 105.863 1357.18 113.271 Z" fill="#000000" fill-rule="nonzero" fill-opacity="1" /><path clip-path="url(#clip650)" d="M1386.93 104.33 Q1386.03 103.809 1384.96 103.577 Q1383.92 103.317 1382.65 103.317 Q1378.13 103.317 1375.7 106.268 Q1373.3 109.191 1373.3 114.688 L1373.3 131.76 L1367.95 131.76 L1367.95 99.3528 L1373.3 99.3528 L1373.3 104.387 Q1374.98 101.436 1377.67 100.018 Q1380.36 98.5715 1384.21 98.5715 Q1384.76 98.5715 1385.43 98.6583 Q1386.09 98.7162 1386.9 98.8609 L1386.93 104.33 Z" fill="#000000" fill-rule="nonzero" fill-opacity="1" /><path clip-path="url(#clip650)" d="M1416.7 105.574 Q1418.7 101.986 1421.48 100.279 Q1424.26 98.5715 1428.02 98.5715 Q1433.08 98.5715 1435.83 102.131 Q1438.58 105.661 1438.58 112.2 L1438.58 131.76 L1433.23 131.76 L1433.23 112.374 Q1433.23 107.715 1431.58 105.458 Q1429.93 103.201 1426.54 103.201 Q1422.4 103.201 1420 105.95 Q1417.6 108.699 1417.6 113.444 L1417.6 131.76 L1412.25 131.76 L1412.25 112.374 Q1412.25 107.686 1410.6 105.458 Q1408.95 103.201 1405.51 103.201 Q1401.43 103.201 1399.02 105.979 Q1396.62 108.728 1396.62 113.444 L1396.62 131.76 L1391.27 131.76 L1391.27 99.3528 L1396.62 99.3528 L1396.62 104.387 Q1398.45 101.407 1400.99 99.9893 Q1403.54 98.5715 1407.04 98.5715 Q1410.57 98.5715 1413.03 100.365 Q1415.52 102.159 1416.7 105.574 Z" fill="#000000" fill-rule="nonzero" fill-opacity="1" /><path clip-path="url(#clip650)" d="M1461.76 103.085 Q1457.47 103.085 1454.98 106.442 Q1452.5 109.769 1452.5 115.585 Q1452.5 121.401 1454.96 124.758 Q1457.44 128.085 1461.76 128.085 Q1466.01 128.085 1468.5 124.729 Q1470.99 121.372 1470.99 115.585 Q1470.99 109.827 1468.5 106.471 Q1466.01 103.085 1461.76 103.085 M1461.76 98.5715 Q1468.7 98.5715 1472.66 103.085 Q1476.63 107.599 1476.63 115.585 Q1476.63 123.542 1472.66 128.085 Q1468.7 132.599 1461.76 132.599 Q1454.78 132.599 1450.82 128.085 Q1446.88 123.542 1446.88 115.585 Q1446.88 107.599 1450.82 103.085 Q1454.78 98.5715 1461.76 98.5715 Z" fill="#000000" fill-rule="nonzero" fill-opacity="1" /><path clip-path="url(#clip650)" d="M1512.39 112.2 L1512.39 131.76 L1507.07 131.76 L1507.07 112.374 Q1507.07 107.773 1505.27 105.487 Q1503.48 103.201 1499.89 103.201 Q1495.58 103.201 1493.09 105.95 Q1490.6 108.699 1490.6 113.444 L1490.6 131.76 L1485.25 131.76 L1485.25 99.3528 L1490.6 99.3528 L1490.6 104.387 Q1492.51 101.465 1495.09 100.018 Q1497.69 98.5715 1501.08 98.5715 Q1506.66 98.5715 1509.53 102.044 Q1512.39 105.487 1512.39 112.2 Z" fill="#000000" fill-rule="nonzero" fill-opacity="1" /><path clip-path="url(#clip650)" d="M1523.01 99.3528 L1528.34 99.3528 L1528.34 131.76 L1523.01 131.76 L1523.01 99.3528 M1523.01 86.7371 L1528.34 86.7371 L1528.34 93.479 L1523.01 93.479 L1523.01 86.7371 Z" fill="#000000" fill-rule="nonzero" fill-opacity="1" /><path clip-path="url(#clip650)" d="M1562.8 100.597 L1562.8 105.574 Q1560.54 104.33 1558.25 103.722 Q1556 103.085 1553.68 103.085 Q1548.5 103.085 1545.64 106.384 Q1542.77 109.654 1542.77 115.585 Q1542.77 121.517 1545.64 124.816 Q1548.5 128.085 1553.68 128.085 Q1556 128.085 1558.25 127.478 Q1560.54 126.841 1562.8 125.597 L1562.8 130.516 Q1560.57 131.557 1558.17 132.078 Q1555.79 132.599 1553.1 132.599 Q1545.78 132.599 1541.47 127.998 Q1537.16 123.398 1537.16 115.585 Q1537.16 107.657 1541.5 103.114 Q1545.87 98.5715 1553.45 98.5715 Q1555.91 98.5715 1558.25 99.0924 Q1560.6 99.5842 1562.8 100.597 Z" fill="#000000" fill-rule="nonzero" fill-opacity="1" /><path clip-path="url(#clip650)" d="M1592.72 100.308 L1592.72 105.342 Q1590.46 104.185 1588.03 103.606 Q1585.6 103.028 1582.99 103.028 Q1579.03 103.028 1577.03 104.243 Q1575.07 105.458 1575.07 107.889 Q1575.07 109.74 1576.48 110.811 Q1577.9 111.853 1582.18 112.808 L1584.01 113.213 Q1589.68 114.428 1592.05 116.656 Q1594.45 118.855 1594.45 122.819 Q1594.45 127.333 1590.86 129.966 Q1587.3 132.599 1581.05 132.599 Q1578.45 132.599 1575.62 132.078 Q1572.81 131.586 1569.68 130.574 L1569.68 125.076 Q1572.63 126.61 1575.5 127.391 Q1578.36 128.143 1581.17 128.143 Q1584.93 128.143 1586.96 126.87 Q1588.98 125.568 1588.98 123.224 Q1588.98 121.054 1587.51 119.897 Q1586.06 118.739 1581.11 117.669 L1579.26 117.235 Q1574.31 116.193 1572.11 114.052 Q1569.91 111.882 1569.91 108.12 Q1569.91 103.548 1573.16 101.06 Q1576.4 98.5715 1582.36 98.5715 Q1585.31 98.5715 1587.91 99.0055 Q1590.52 99.4396 1592.72 100.308 Z" fill="#000000" fill-rule="nonzero" fill-opacity="1" /><polyline clip-path="url(#clip652)" style="stroke:#009af9; stroke-linecap:round; stroke-linejoin:round; stroke-width:4; stroke-opacity:1; fill:none" points="295.211,1387.13 395.092,1385.83 494.973,1383.87 594.854,1380.82 694.735,1377.4 794.615,1373.18 894.496,1366.16 994.377,1358.17 1094.26,1346.46 1194.14,1335.05 1294.02,1313.48 1393.9,1288.14 1493.78,1255.9 1593.66,1209.34 1693.54,1145.94 1793.42,1049.87 1893.3,950.343 1993.19,788.267 2093.07,558.16 2192.95,185.443 2292.83,258.285 "/>
<circle clip-path="url(#clip652)" cx="295.211" cy="1387.13" r="14.4" fill="#009af9" fill-rule="evenodd" fill-opacity="1" stroke="#000000" stroke-opacity="1" stroke-width="3.2"/>
<circle clip-path="url(#clip652)" cx="395.092" cy="1385.83" r="14.4" fill="#009af9" fill-rule="evenodd" fill-opacity="1" stroke="#000000" stroke-opacity="1" stroke-width="3.2"/>
<circle clip-path="url(#clip652)" cx="494.973" cy="1383.87" r="14.4" fill="#009af9" fill-rule="evenodd" fill-opacity="1" stroke="#000000" stroke-opacity="1" stroke-width="3.2"/>
<circle clip-path="url(#clip652)" cx="594.854" cy="1380.82" r="14.4" fill="#009af9" fill-rule="evenodd" fill-opacity="1" stroke="#000000" stroke-opacity="1" stroke-width="3.2"/>
<circle clip-path="url(#clip652)" cx="694.735" cy="1377.4" r="14.4" fill="#009af9" fill-rule="evenodd" fill-opacity="1" stroke="#000000" stroke-opacity="1" stroke-width="3.2"/>
<circle clip-path="url(#clip652)" cx="794.615" cy="1373.18" r="14.4" fill="#009af9" fill-rule="evenodd" fill-opacity="1" stroke="#000000" stroke-opacity="1" stroke-width="3.2"/>
<circle clip-path="url(#clip652)" cx="894.496" cy="1366.16" r="14.4" fill="#009af9" fill-rule="evenodd" fill-opacity="1" stroke="#000000" stroke-opacity="1" stroke-width="3.2"/>
<circle clip-path="url(#clip652)" cx="994.377" cy="1358.17" r="14.4" fill="#009af9" fill-rule="evenodd" fill-opacity="1" stroke="#000000" stroke-opacity="1" stroke-width="3.2"/>
<circle clip-path="url(#clip652)" cx="1094.26" cy="1346.46" r="14.4" fill="#009af9" fill-rule="evenodd" fill-opacity="1" stroke="#000000" stroke-opacity="1" stroke-width="3.2"/>
<circle clip-path="url(#clip652)" cx="1194.14" cy="1335.05" r="14.4" fill="#009af9" fill-rule="evenodd" fill-opacity="1" stroke="#000000" stroke-opacity="1" stroke-width="3.2"/>
<circle clip-path="url(#clip652)" cx="1294.02" cy="1313.48" r="14.4" fill="#009af9" fill-rule="evenodd" fill-opacity="1" stroke="#000000" stroke-opacity="1" stroke-width="3.2"/>
<circle clip-path="url(#clip652)" cx="1393.9" cy="1288.14" r="14.4" fill="#009af9" fill-rule="evenodd" fill-opacity="1" stroke="#000000" stroke-opacity="1" stroke-width="3.2"/>
<circle clip-path="url(#clip652)" cx="1493.78" cy="1255.9" r="14.4" fill="#009af9" fill-rule="evenodd" fill-opacity="1" stroke="#000000" stroke-opacity="1" stroke-width="3.2"/>
<circle clip-path="url(#clip652)" cx="1593.66" cy="1209.34" r="14.4" fill="#009af9" fill-rule="evenodd" fill-opacity="1" stroke="#000000" stroke-opacity="1" stroke-width="3.2"/>
<circle clip-path="url(#clip652)" cx="1693.54" cy="1145.94" r="14.4" fill="#009af9" fill-rule="evenodd" fill-opacity="1" stroke="#000000" stroke-opacity="1" stroke-width="3.2"/>
<circle clip-path="url(#clip652)" cx="1793.42" cy="1049.87" r="14.4" fill="#009af9" fill-rule="evenodd" fill-opacity="1" stroke="#000000" stroke-opacity="1" stroke-width="3.2"/>
<circle clip-path="url(#clip652)" cx="1893.3" cy="950.343" r="14.4" fill="#009af9" fill-rule="evenodd" fill-opacity="1" stroke="#000000" stroke-opacity="1" stroke-width="3.2"/>
<circle clip-path="url(#clip652)" cx="1993.19" cy="788.267" r="14.4" fill="#009af9" fill-rule="evenodd" fill-opacity="1" stroke="#000000" stroke-opacity="1" stroke-width="3.2"/>
<circle clip-path="url(#clip652)" cx="2093.07" cy="558.16" r="14.4" fill="#009af9" fill-rule="evenodd" fill-opacity="1" stroke="#000000" stroke-opacity="1" stroke-width="3.2"/>
<circle clip-path="url(#clip652)" cx="2192.95" cy="185.443" r="14.4" fill="#009af9" fill-rule="evenodd" fill-opacity="1" stroke="#000000" stroke-opacity="1" stroke-width="3.2"/>
<circle clip-path="url(#clip652)" cx="2292.83" cy="258.285" r="14.4" fill="#009af9" fill-rule="evenodd" fill-opacity="1" stroke="#000000" stroke-opacity="1" stroke-width="3.2"/>
</svg>
