<?xml version="1.0" encoding="utf-8"?>
<svg xmlns="http://www.w3.org/2000/svg" xmlns:xlink="http://www.w3.org/1999/xlink" width="600" height="400" viewBox="0 0 2400 1600">
<defs>
  <clipPath id="clip810">
    <rect x="0" y="0" width="2400" height="1600"/>
  </clipPath>
</defs>
<path clip-path="url(#clip810)" d="M0 1600 L2400 1600 L2400 0 L0 0  Z" fill="#ffffff" fill-rule="evenodd" fill-opacity="1"/>
<defs>
  <clipPath id="clip811">
    <rect x="480" y="0" width="1681" height="1600"/>
  </clipPath>
</defs>
<path clip-path="url(#clip810)" d="M264.287 1423.18 L2352.76 1423.18 L2352.76 149.392 L264.287 149.392  Z" fill="#ffffff" fill-rule="evenodd" fill-opacity="1"/>
<defs>
  <clipPath id="clip812">
    <rect x="264" y="149" width="2089" height="1275"/>
  </clipPath>
</defs>
<polyline clip-path="url(#clip812)" style="stroke:#000000; stroke-linecap:round; stroke-linejoin:round; stroke-width:2; stroke-opacity:0.1; fill:none" points="323.395,1423.18 323.395,149.392 "/>
<polyline clip-path="url(#clip812)" style="stroke:#000000; stroke-linecap:round; stroke-linejoin:round; stroke-width:2; stroke-opacity:0.1; fill:none" points="815.958,1423.18 815.958,149.392 "/>
<polyline clip-path="url(#clip812)" style="stroke:#000000; stroke-linecap:round; stroke-linejoin:round; stroke-width:2; stroke-opacity:0.1; fill:none" points="1308.52,1423.18 1308.52,149.392 "/>
<polyline clip-path="url(#clip812)" style="stroke:#000000; stroke-linecap:round; stroke-linejoin:round; stroke-width:2; stroke-opacity:0.1; fill:none" points="1801.08,1423.18 1801.08,149.392 "/>
<polyline clip-path="url(#clip812)" style="stroke:#000000; stroke-linecap:round; stroke-linejoin:round; stroke-width:2; stroke-opacity:0.1; fill:none" points="2293.65,1423.18 2293.65,149.392 "/>
<polyline clip-path="url(#clip810)" style="stroke:#000000; stroke-linecap:round; stroke-linejoin:round; stroke-width:4; stroke-opacity:1; fill:none" points="264.287,1423.18 2352.76,1423.18 "/>
<polyline clip-path="url(#clip810)" style="stroke:#000000; stroke-linecap:round; stroke-linejoin:round; stroke-width:4; stroke-opacity:1; fill:none" points="323.395,1423.18 323.395,1404.28 "/>
<polyline clip-path="url(#clip810)" style="stroke:#000000; stroke-linecap:round; stroke-linejoin:round; stroke-width:4; stroke-opacity:1; fill:none" points="815.958,1423.18 815.958,1404.28 "/>
<polyline clip-path="url(#clip810)" style="stroke:#000000; stroke-linecap:round; stroke-linejoin:round; stroke-width:4; stroke-opacity:1; fill:none" points="1308.52,1423.18 1308.52,1404.28 "/>
<polyline clip-path="url(#clip810)" style="stroke:#000000; stroke-linecap:round; stroke-linejoin:round; stroke-width:4; stroke-opacity:1; fill:none" points="1801.08,1423.18 1801.08,1404.28 "/>
<polyline clip-path="url(#clip810)" style="stroke:#000000; stroke-linecap:round; stroke-linejoin:round; stroke-width:4; stroke-opacity:1; fill:none" points="2293.65,1423.18 2293.65,1404.28 "/>
<path clip-path="url(#clip810)" d="M313.673 1451.02 L332.029 1451.02 L332.029 1454.96 L317.955 1454.96 L317.955 1463.43 Q318.974 1463.08 319.992 1462.92 Q321.011 1462.73 322.029 1462.73 Q327.816 1462.73 331.196 1465.9 Q334.575 1469.08 334.575 1474.49 Q334.575 1480.07 331.103 1483.17 Q327.631 1486.25 321.312 1486.25 Q319.136 1486.25 316.867 1485.88 Q314.622 1485.51 312.214 1484.77 L312.214 1480.07 Q314.298 1481.2 316.52 1481.76 Q318.742 1482.32 321.219 1482.32 Q325.224 1482.32 327.562 1480.21 Q329.9 1478.1 329.9 1474.49 Q329.9 1470.88 327.562 1468.77 Q325.224 1466.67 321.219 1466.67 Q319.344 1466.67 317.469 1467.08 Q315.617 1467.5 313.673 1468.38 L313.673 1451.02 Z" fill="#000000" fill-rule="nonzero" fill-opacity="1" /><path clip-path="url(#clip810)" d="M790.646 1481.64 L798.285 1481.64 L798.285 1455.28 L789.975 1456.95 L789.975 1452.69 L798.238 1451.02 L802.914 1451.02 L802.914 1481.64 L810.553 1481.64 L810.553 1485.58 L790.646 1485.58 L790.646 1481.64 Z" fill="#000000" fill-rule="nonzero" fill-opacity="1" /><path clip-path="url(#clip810)" d="M829.998 1454.1 Q826.386 1454.1 824.558 1457.66 Q822.752 1461.2 822.752 1468.33 Q822.752 1475.44 824.558 1479.01 Q826.386 1482.55 829.998 1482.55 Q833.632 1482.55 835.437 1479.01 Q837.266 1475.44 837.266 1468.33 Q837.266 1461.2 835.437 1457.66 Q833.632 1454.1 829.998 1454.1 M829.998 1450.39 Q835.808 1450.39 838.863 1455 Q841.942 1459.58 841.942 1468.33 Q841.942 1477.06 838.863 1481.67 Q835.808 1486.25 829.998 1486.25 Q824.187 1486.25 821.109 1481.67 Q818.053 1477.06 818.053 1468.33 Q818.053 1459.58 821.109 1455 Q824.187 1450.39 829.998 1450.39 Z" fill="#000000" fill-rule="nonzero" fill-opacity="1" /><path clip-path="url(#clip810)" d="M1283.71 1481.64 L1291.35 1481.64 L1291.35 1455.28 L1283.04 1456.95 L1283.04 1452.69 L1291.3 1451.02 L1295.98 1451.02 L1295.98 1481.64 L1303.61 1481.64 L1303.61 1485.58 L1283.71 1485.58 L1283.71 1481.64 Z" fill="#000000" fill-rule="nonzero" fill-opacity="1" /><path clip-path="url(#clip810)" d="M1313.1 1451.02 L1331.46 1451.02 L1331.46 1454.96 L1317.39 1454.96 L1317.39 1463.43 Q1318.41 1463.08 1319.42 1462.92 Q1320.44 1462.73 1321.46 1462.73 Q1327.25 1462.73 1330.63 1465.9 Q1334.01 1469.08 1334.01 1474.49 Q1334.01 1480.07 1330.54 1483.17 Q1327.06 1486.25 1320.74 1486.25 Q1318.57 1486.25 1316.3 1485.88 Q1314.05 1485.51 1311.65 1484.77 L1311.65 1480.07 Q1313.73 1481.2 1315.95 1481.76 Q1318.17 1482.32 1320.65 1482.32 Q1324.66 1482.32 1326.99 1480.21 Q1329.33 1478.1 1329.33 1474.49 Q1329.33 1470.88 1326.99 1468.77 Q1324.66 1466.67 1320.65 1466.67 Q1318.78 1466.67 1316.9 1467.08 Q1315.05 1467.5 1313.1 1468.38 L1313.1 1451.02 Z" fill="#000000" fill-rule="nonzero" fill-opacity="1" /><path clip-path="url(#clip810)" d="M1779.86 1481.64 L1796.18 1481.64 L1796.18 1485.58 L1774.23 1485.58 L1774.23 1481.64 Q1776.9 1478.89 1781.48 1474.26 Q1786.09 1469.61 1787.27 1468.27 Q1789.51 1465.74 1790.39 1464.01 Q1791.29 1462.25 1791.29 1460.56 Q1791.29 1457.8 1789.35 1456.07 Q1787.43 1454.33 1784.33 1454.33 Q1782.13 1454.33 1779.67 1455.09 Q1777.24 1455.86 1774.46 1457.41 L1774.46 1452.69 Q1777.29 1451.55 1779.74 1450.97 Q1782.2 1450.39 1784.23 1450.39 Q1789.6 1450.39 1792.8 1453.08 Q1795.99 1455.77 1795.99 1460.26 Q1795.99 1462.39 1795.18 1464.31 Q1794.4 1466.2 1792.29 1468.8 Q1791.71 1469.47 1788.61 1472.69 Q1785.51 1475.88 1779.86 1481.64 Z" fill="#000000" fill-rule="nonzero" fill-opacity="1" /><path clip-path="url(#clip810)" d="M1815.99 1454.1 Q1812.38 1454.1 1810.55 1457.66 Q1808.75 1461.2 1808.75 1468.33 Q1808.75 1475.44 1810.55 1479.01 Q1812.38 1482.55 1815.99 1482.55 Q1819.63 1482.55 1821.43 1479.01 Q1823.26 1475.44 1823.26 1468.33 Q1823.26 1461.2 1821.43 1457.66 Q1819.63 1454.1 1815.99 1454.1 M1815.99 1450.39 Q1821.8 1450.39 1824.86 1455 Q1827.94 1459.58 1827.94 1468.33 Q1827.94 1477.06 1824.86 1481.67 Q1821.8 1486.25 1815.99 1486.25 Q1810.18 1486.25 1807.1 1481.67 Q1804.05 1477.06 1804.05 1468.33 Q1804.05 1459.58 1807.1 1455 Q1810.18 1450.39 1815.99 1450.39 Z" fill="#000000" fill-rule="nonzero" fill-opacity="1" /><path clip-path="url(#clip810)" d="M2272.92 1481.64 L2289.24 1481.64 L2289.24 1485.58 L2267.29 1485.58 L2267.29 1481.64 Q2269.96 1478.89 2274.54 1474.26 Q2279.15 1469.61 2280.33 1468.27 Q2282.57 1465.74 2283.45 1464.01 Q2284.35 1462.25 2284.35 1460.56 Q2284.35 1457.8 2282.41 1456.07 Q2280.49 1454.33 2277.39 1454.33 Q2275.19 1454.33 2272.73 1455.09 Q2270.3 1455.86 2267.53 1457.41 L2267.53 1452.69 Q2270.35 1451.55 2272.8 1450.97 Q2275.26 1450.39 2277.29 1450.39 Q2282.66 1450.39 2285.86 1453.08 Q2289.05 1455.77 2289.05 1460.26 Q2289.05 1462.39 2288.24 1464.31 Q2287.46 1466.2 2285.35 1468.8 Q2284.77 1469.47 2281.67 1472.69 Q2278.57 1475.88 2272.92 1481.64 Z" fill="#000000" fill-rule="nonzero" fill-opacity="1" /><path clip-path="url(#clip810)" d="M2299.1 1451.02 L2317.46 1451.02 L2317.46 1454.96 L2303.38 1454.96 L2303.38 1463.43 Q2304.4 1463.08 2305.42 1462.92 Q2306.44 1462.73 2307.46 1462.73 Q2313.24 1462.73 2316.62 1465.9 Q2320 1469.08 2320 1474.49 Q2320 1480.07 2316.53 1483.17 Q2313.06 1486.25 2306.74 1486.25 Q2304.56 1486.25 2302.29 1485.88 Q2300.05 1485.51 2297.64 1484.77 L2297.64 1480.07 Q2299.72 1481.2 2301.95 1481.76 Q2304.17 1482.32 2306.65 1482.32 Q2310.65 1482.32 2312.99 1480.21 Q2315.33 1478.1 2315.33 1474.49 Q2315.33 1470.88 2312.99 1468.77 Q2310.65 1466.67 2306.65 1466.67 Q2304.77 1466.67 2302.9 1467.08 Q2301.04 1467.5 2299.1 1468.38 L2299.1 1451.02 Z" fill="#000000" fill-rule="nonzero" fill-opacity="1" /><path clip-path="url(#clip810)" d="M904.522 1533.45 L904.522 1538.98 Q902.039 1537.71 899.366 1537.07 Q896.692 1536.44 893.828 1536.44 Q889.467 1536.44 887.271 1537.77 Q885.107 1539.11 885.107 1541.79 Q885.107 1543.82 886.666 1545 Q888.226 1546.15 892.936 1547.2 L894.942 1547.64 Q901.18 1548.98 903.79 1551.43 Q906.432 1553.85 906.432 1558.21 Q906.432 1563.17 902.485 1566.07 Q898.57 1568.97 891.695 1568.97 Q888.831 1568.97 885.711 1568.39 Q882.624 1567.85 879.187 1566.74 L879.187 1560.69 Q882.433 1562.38 885.584 1563.24 Q888.735 1564.07 891.822 1564.07 Q895.96 1564.07 898.188 1562.66 Q900.416 1561.23 900.416 1558.65 Q900.416 1556.27 898.793 1554.99 Q897.201 1553.72 891.759 1552.54 L889.722 1552.07 Q884.279 1550.92 881.86 1548.56 Q879.441 1546.18 879.441 1542.04 Q879.441 1537.01 883.006 1534.27 Q886.571 1531.54 893.127 1531.54 Q896.374 1531.54 899.239 1532.01 Q902.103 1532.49 904.522 1533.45 Z" fill="#000000" fill-rule="nonzero" fill-opacity="1" /><path clip-path="url(#clip810)" d="M921.423 1562.7 L921.423 1581.6 L915.535 1581.6 L915.535 1532.4 L921.423 1532.4 L921.423 1537.81 Q923.269 1534.62 926.07 1533.1 Q928.903 1531.54 932.818 1531.54 Q939.311 1531.54 943.353 1536.69 Q947.427 1541.85 947.427 1550.25 Q947.427 1558.65 943.353 1563.81 Q939.311 1568.97 932.818 1568.97 Q928.903 1568.97 926.07 1567.44 Q923.269 1565.88 921.423 1562.7 M941.348 1550.25 Q941.348 1543.79 938.674 1540.13 Q936.032 1536.44 931.385 1536.44 Q926.738 1536.44 924.065 1540.13 Q921.423 1543.79 921.423 1550.25 Q921.423 1556.71 924.065 1560.4 Q926.738 1564.07 931.385 1564.07 Q936.032 1564.07 938.674 1560.4 Q941.348 1556.71 941.348 1550.25 Z" fill="#000000" fill-rule="nonzero" fill-opacity="1" /><path clip-path="url(#clip810)" d="M986.767 1546.53 L986.767 1568.04 L980.911 1568.04 L980.911 1546.72 Q980.911 1541.66 978.937 1539.14 Q976.964 1536.63 973.017 1536.63 Q968.275 1536.63 965.537 1539.65 Q962.8 1542.68 962.8 1547.9 L962.8 1568.04 L956.912 1568.04 L956.912 1518.52 L962.8 1518.52 L962.8 1537.93 Q964.901 1534.72 967.734 1533.13 Q970.598 1531.54 974.322 1531.54 Q980.465 1531.54 983.616 1535.36 Q986.767 1539.14 986.767 1546.53 Z" fill="#000000" fill-rule="nonzero" fill-opacity="1" /><path clip-path="url(#clip810)" d="M1028.94 1548.76 L1028.94 1551.62 L1002.01 1551.62 Q1002.39 1557.67 1005.64 1560.85 Q1008.92 1564 1014.74 1564 Q1018.12 1564 1021.27 1563.17 Q1024.45 1562.35 1027.57 1560.69 L1027.57 1566.23 Q1024.42 1567.57 1021.11 1568.27 Q1017.8 1568.97 1014.39 1568.97 Q1005.86 1568.97 1000.87 1564 Q995.902 1559.04 995.902 1550.57 Q995.902 1541.82 1000.61 1536.69 Q1005.35 1531.54 1013.38 1531.54 Q1020.57 1531.54 1024.74 1536.18 Q1028.94 1540.8 1028.94 1548.76 M1023.08 1547.04 Q1023.02 1542.23 1020.38 1539.37 Q1017.77 1536.5 1013.44 1536.5 Q1008.54 1536.5 1005.58 1539.27 Q1002.65 1542.04 1002.2 1547.07 L1023.08 1547.04 Z" fill="#000000" fill-rule="nonzero" fill-opacity="1" /><path clip-path="url(#clip810)" d="M1059.21 1537.87 Q1058.22 1537.3 1057.04 1537.04 Q1055.9 1536.76 1054.5 1536.76 Q1049.53 1536.76 1046.86 1540 Q1044.22 1543.22 1044.22 1549.27 L1044.22 1568.04 L1038.33 1568.04 L1038.33 1532.4 L1044.22 1532.4 L1044.22 1537.93 Q1046.06 1534.69 1049.02 1533.13 Q1051.98 1531.54 1056.22 1531.54 Q1056.82 1531.54 1057.55 1531.63 Q1058.29 1531.7 1059.18 1531.85 L1059.21 1537.87 Z" fill="#000000" fill-rule="nonzero" fill-opacity="1" /><path clip-path="url(#clip810)" d="M1065.35 1532.4 L1071.21 1532.4 L1071.21 1568.04 L1065.35 1568.04 L1065.35 1532.4 M1065.35 1518.52 L1071.21 1518.52 L1071.21 1525.93 L1065.35 1525.93 L1065.35 1518.52 Z" fill="#000000" fill-rule="nonzero" fill-opacity="1" /><path clip-path="url(#clip810)" d="M1109.12 1533.76 L1109.12 1539.24 Q1106.63 1537.87 1104.12 1537.2 Q1101.64 1536.5 1099.09 1536.5 Q1093.39 1536.5 1090.24 1540.13 Q1087.09 1543.73 1087.09 1550.25 Q1087.09 1556.78 1090.24 1560.4 Q1093.39 1564 1099.09 1564 Q1101.64 1564 1104.12 1563.33 Q1106.63 1562.63 1109.12 1561.26 L1109.12 1566.68 Q1106.67 1567.82 1104.02 1568.39 Q1101.41 1568.97 1098.45 1568.97 Q1090.4 1568.97 1085.66 1563.91 Q1080.92 1558.85 1080.92 1550.25 Q1080.92 1541.53 1085.69 1536.53 Q1090.5 1531.54 1098.84 1531.54 Q1101.54 1531.54 1104.12 1532.11 Q1106.7 1532.65 1109.12 1533.76 Z" fill="#000000" fill-rule="nonzero" fill-opacity="1" /><path clip-path="url(#clip810)" d="M1135.5 1550.12 Q1128.4 1550.12 1125.67 1551.75 Q1122.93 1553.37 1122.93 1557.29 Q1122.93 1560.4 1124.97 1562.25 Q1127.04 1564.07 1130.57 1564.07 Q1135.44 1564.07 1138.37 1560.63 Q1141.33 1557.16 1141.33 1551.43 L1141.33 1550.12 L1135.5 1550.12 M1147.18 1547.71 L1147.18 1568.04 L1141.33 1568.04 L1141.33 1562.63 Q1139.32 1565.88 1136.33 1567.44 Q1133.34 1568.97 1129.01 1568.97 Q1123.53 1568.97 1120.29 1565.91 Q1117.07 1562.82 1117.07 1557.67 Q1117.07 1551.65 1121.08 1548.6 Q1125.13 1545.54 1133.11 1545.54 L1141.33 1545.54 L1141.33 1544.97 Q1141.33 1540.93 1138.65 1538.73 Q1136.01 1536.5 1131.2 1536.5 Q1128.15 1536.5 1125.25 1537.23 Q1122.36 1537.97 1119.68 1539.43 L1119.68 1534.02 Q1122.9 1532.78 1125.92 1532.17 Q1128.95 1531.54 1131.81 1531.54 Q1139.54 1531.54 1143.36 1535.55 Q1147.18 1539.56 1147.18 1547.71 Z" fill="#000000" fill-rule="nonzero" fill-opacity="1" /><path clip-path="url(#clip810)" d="M1159.25 1518.52 L1165.1 1518.52 L1165.1 1568.04 L1159.25 1568.04 L1159.25 1518.52 Z" fill="#000000" fill-rule="nonzero" fill-opacity="1" /><path clip-path="url(#clip810)" d="M1204.44 1578.87 L1204.44 1583.42 L1170.58 1583.42 L1170.58 1578.87 L1204.44 1578.87 Z" fill="#000000" fill-rule="nonzero" fill-opacity="1" /><path clip-path="url(#clip810)" d="M1239.58 1546.53 L1239.58 1568.04 L1233.72 1568.04 L1233.72 1546.72 Q1233.72 1541.66 1231.75 1539.14 Q1229.78 1536.63 1225.83 1536.63 Q1221.09 1536.63 1218.35 1539.65 Q1215.61 1542.68 1215.61 1547.9 L1215.61 1568.04 L1209.73 1568.04 L1209.73 1518.52 L1215.61 1518.52 L1215.61 1537.93 Q1217.71 1534.72 1220.55 1533.13 Q1223.41 1531.54 1227.14 1531.54 Q1233.28 1531.54 1236.43 1535.36 Q1239.58 1539.14 1239.58 1546.53 Z" fill="#000000" fill-rule="nonzero" fill-opacity="1" /><path clip-path="url(#clip810)" d="M1267.46 1550.12 Q1260.37 1550.12 1257.63 1551.75 Q1254.89 1553.37 1254.89 1557.29 Q1254.89 1560.4 1256.93 1562.25 Q1259 1564.07 1262.53 1564.07 Q1267.4 1564.07 1270.33 1560.63 Q1273.29 1557.16 1273.29 1551.43 L1273.29 1550.12 L1267.46 1550.12 M1279.14 1547.71 L1279.14 1568.04 L1273.29 1568.04 L1273.29 1562.63 Q1271.28 1565.88 1268.29 1567.44 Q1265.3 1568.97 1260.97 1568.97 Q1255.5 1568.97 1252.25 1565.91 Q1249.03 1562.82 1249.03 1557.67 Q1249.03 1551.65 1253.04 1548.6 Q1257.09 1545.54 1265.08 1545.54 L1273.29 1545.54 L1273.29 1544.97 Q1273.29 1540.93 1270.61 1538.73 Q1267.97 1536.5 1263.17 1536.5 Q1260.11 1536.5 1257.21 1537.23 Q1254.32 1537.97 1251.64 1539.43 L1251.64 1534.02 Q1254.86 1532.78 1257.88 1532.17 Q1260.91 1531.54 1263.77 1531.54 Q1271.51 1531.54 1275.32 1535.55 Q1279.14 1539.56 1279.14 1547.71 Z" fill="#000000" fill-rule="nonzero" fill-opacity="1" /><path clip-path="url(#clip810)" d="M1311.86 1537.87 Q1310.88 1537.3 1309.7 1537.04 Q1308.55 1536.76 1307.15 1536.76 Q1302.19 1536.76 1299.51 1540 Q1296.87 1543.22 1296.87 1549.27 L1296.87 1568.04 L1290.98 1568.04 L1290.98 1532.4 L1296.87 1532.4 L1296.87 1537.93 Q1298.72 1534.69 1301.68 1533.13 Q1304.64 1531.54 1308.87 1531.54 Q1309.48 1531.54 1310.21 1531.63 Q1310.94 1531.7 1311.83 1531.85 L1311.86 1537.87 Z" fill="#000000" fill-rule="nonzero" fill-opacity="1" /><path clip-path="url(#clip810)" d="M1344.62 1539.24 Q1346.81 1535.29 1349.87 1533.41 Q1352.92 1531.54 1357.06 1531.54 Q1362.63 1531.54 1365.65 1535.45 Q1368.68 1539.33 1368.68 1546.53 L1368.68 1568.04 L1362.79 1568.04 L1362.79 1546.72 Q1362.79 1541.59 1360.98 1539.11 Q1359.16 1536.63 1355.44 1536.63 Q1350.89 1536.63 1348.24 1539.65 Q1345.6 1542.68 1345.6 1547.9 L1345.6 1568.04 L1339.71 1568.04 L1339.71 1546.72 Q1339.71 1541.56 1337.9 1539.11 Q1336.09 1536.63 1332.3 1536.63 Q1327.81 1536.63 1325.17 1539.68 Q1322.53 1542.71 1322.53 1547.9 L1322.53 1568.04 L1316.64 1568.04 L1316.64 1532.4 L1322.53 1532.4 L1322.53 1537.93 Q1324.53 1534.66 1327.33 1533.1 Q1330.13 1531.54 1333.98 1531.54 Q1337.87 1531.54 1340.57 1533.51 Q1343.31 1535.48 1344.62 1539.24 Z" fill="#000000" fill-rule="nonzero" fill-opacity="1" /><path clip-path="url(#clip810)" d="M1394.17 1536.5 Q1389.46 1536.5 1386.72 1540.19 Q1383.99 1543.85 1383.99 1550.25 Q1383.99 1556.65 1386.69 1560.34 Q1389.43 1564 1394.17 1564 Q1398.85 1564 1401.59 1560.31 Q1404.33 1556.62 1404.33 1550.25 Q1404.33 1543.92 1401.59 1540.23 Q1398.85 1536.5 1394.17 1536.5 M1394.17 1531.54 Q1401.81 1531.54 1406.17 1536.5 Q1410.53 1541.47 1410.53 1550.25 Q1410.53 1559 1406.17 1564 Q1401.81 1568.97 1394.17 1568.97 Q1386.5 1568.97 1382.14 1564 Q1377.81 1559 1377.81 1550.25 Q1377.81 1541.47 1382.14 1536.5 Q1386.5 1531.54 1394.17 1531.54 Z" fill="#000000" fill-rule="nonzero" fill-opacity="1" /><path clip-path="url(#clip810)" d="M1449.87 1546.53 L1449.87 1568.04 L1444.02 1568.04 L1444.02 1546.72 Q1444.02 1541.66 1442.04 1539.14 Q1440.07 1536.63 1436.12 1536.63 Q1431.38 1536.63 1428.64 1539.65 Q1425.91 1542.68 1425.91 1547.9 L1425.91 1568.04 L1420.02 1568.04 L1420.02 1532.4 L1425.91 1532.4 L1425.91 1537.93 Q1428.01 1534.72 1430.84 1533.13 Q1433.7 1531.54 1437.43 1531.54 Q1443.57 1531.54 1446.72 1535.36 Q1449.87 1539.14 1449.87 1546.53 Z" fill="#000000" fill-rule="nonzero" fill-opacity="1" /><path clip-path="url(#clip810)" d="M1461.55 1532.4 L1467.41 1532.4 L1467.41 1568.04 L1461.55 1568.04 L1461.55 1532.4 M1461.55 1518.52 L1467.41 1518.52 L1467.41 1525.93 L1461.55 1525.93 L1461.55 1518.52 Z" fill="#000000" fill-rule="nonzero" fill-opacity="1" /><path clip-path="url(#clip810)" d="M1505.32 1533.76 L1505.32 1539.24 Q1502.83 1537.87 1500.32 1537.2 Q1497.84 1536.5 1495.29 1536.5 Q1489.59 1536.5 1486.44 1540.13 Q1483.29 1543.73 1483.29 1550.25 Q1483.29 1556.78 1486.44 1560.4 Q1489.59 1564 1495.29 1564 Q1497.84 1564 1500.32 1563.33 Q1502.83 1562.63 1505.32 1561.26 L1505.32 1566.68 Q1502.87 1567.82 1500.22 1568.39 Q1497.61 1568.97 1494.65 1568.97 Q1486.6 1568.97 1481.86 1563.91 Q1477.12 1558.85 1477.12 1550.25 Q1477.12 1541.53 1481.89 1536.53 Q1486.7 1531.54 1495.04 1531.54 Q1497.74 1531.54 1500.32 1532.11 Q1502.9 1532.65 1505.32 1533.76 Z" fill="#000000" fill-rule="nonzero" fill-opacity="1" /><path clip-path="url(#clip810)" d="M1538.23 1533.45 L1538.23 1538.98 Q1535.75 1537.71 1533.07 1537.07 Q1530.4 1536.44 1527.53 1536.44 Q1523.17 1536.44 1520.98 1537.77 Q1518.81 1539.11 1518.81 1541.79 Q1518.81 1543.82 1520.37 1545 Q1521.93 1546.15 1526.64 1547.2 L1528.65 1547.64 Q1534.89 1548.98 1537.5 1551.43 Q1540.14 1553.85 1540.14 1558.21 Q1540.14 1563.17 1536.19 1566.07 Q1532.28 1568.97 1525.4 1568.97 Q1522.54 1568.97 1519.42 1568.39 Q1516.33 1567.85 1512.89 1566.74 L1512.89 1560.69 Q1516.14 1562.38 1519.29 1563.24 Q1522.44 1564.07 1525.53 1564.07 Q1529.67 1564.07 1531.89 1562.66 Q1534.12 1561.23 1534.12 1558.65 Q1534.12 1556.27 1532.5 1554.99 Q1530.91 1553.72 1525.46 1552.54 L1523.43 1552.07 Q1517.99 1550.92 1515.57 1548.56 Q1513.15 1546.18 1513.15 1542.04 Q1513.15 1537.01 1516.71 1534.27 Q1520.28 1531.54 1526.83 1531.54 Q1530.08 1531.54 1532.94 1532.01 Q1535.81 1532.49 1538.23 1533.45 Z" fill="#000000" fill-rule="nonzero" fill-opacity="1" /><path clip-path="url(#clip810)" d="M1584 1536.5 Q1579.29 1536.5 1576.55 1540.19 Q1573.81 1543.85 1573.81 1550.25 Q1573.81 1556.65 1576.52 1560.34 Q1579.26 1564 1584 1564 Q1588.68 1564 1591.41 1560.31 Q1594.15 1556.62 1594.15 1550.25 Q1594.15 1543.92 1591.41 1540.23 Q1588.68 1536.5 1584 1536.5 M1584 1531.54 Q1591.64 1531.54 1596 1536.5 Q1600.36 1541.47 1600.36 1550.25 Q1600.36 1559 1596 1564 Q1591.64 1568.97 1584 1568.97 Q1576.33 1568.97 1571.97 1564 Q1567.64 1559 1567.64 1550.25 Q1567.64 1541.47 1571.97 1536.5 Q1576.33 1531.54 1584 1531.54 Z" fill="#000000" fill-rule="nonzero" fill-opacity="1" /><path clip-path="url(#clip810)" d="M1630.72 1537.87 Q1629.74 1537.3 1628.56 1537.04 Q1627.41 1536.76 1626.01 1536.76 Q1621.05 1536.76 1618.37 1540 Q1615.73 1543.22 1615.73 1549.27 L1615.73 1568.04 L1609.84 1568.04 L1609.84 1532.4 L1615.73 1532.4 L1615.73 1537.93 Q1617.58 1534.69 1620.54 1533.13 Q1623.5 1531.54 1627.73 1531.54 Q1628.33 1531.54 1629.07 1531.63 Q1629.8 1531.7 1630.69 1531.85 L1630.72 1537.87 Z" fill="#000000" fill-rule="nonzero" fill-opacity="1" /><path clip-path="url(#clip810)" d="M1659.18 1537.81 L1659.18 1518.52 L1665.03 1518.52 L1665.03 1568.04 L1659.18 1568.04 L1659.18 1562.7 Q1657.33 1565.88 1654.5 1567.44 Q1651.7 1568.97 1647.75 1568.97 Q1641.29 1568.97 1637.21 1563.81 Q1633.17 1558.65 1633.17 1550.25 Q1633.17 1541.85 1637.21 1536.69 Q1641.29 1531.54 1647.75 1531.54 Q1651.7 1531.54 1654.5 1533.1 Q1657.33 1534.62 1659.18 1537.81 M1639.22 1550.25 Q1639.22 1556.71 1641.86 1560.4 Q1644.54 1564.07 1649.18 1564.07 Q1653.83 1564.07 1656.5 1560.4 Q1659.18 1556.71 1659.18 1550.25 Q1659.18 1543.79 1656.5 1540.13 Q1653.83 1536.44 1649.18 1536.44 Q1644.54 1536.44 1641.86 1540.13 Q1639.22 1543.79 1639.22 1550.25 Z" fill="#000000" fill-rule="nonzero" fill-opacity="1" /><path clip-path="url(#clip810)" d="M1707.59 1548.76 L1707.59 1551.62 L1680.66 1551.62 Q1681.04 1557.67 1684.29 1560.85 Q1687.57 1564 1693.39 1564 Q1696.77 1564 1699.92 1563.17 Q1703.1 1562.35 1706.22 1560.69 L1706.22 1566.23 Q1703.07 1567.57 1699.76 1568.27 Q1696.45 1568.97 1693.04 1568.97 Q1684.51 1568.97 1679.51 1564 Q1674.55 1559.04 1674.55 1550.57 Q1674.55 1541.82 1679.26 1536.69 Q1684 1531.54 1692.02 1531.54 Q1699.22 1531.54 1703.39 1536.18 Q1707.59 1540.8 1707.59 1548.76 M1701.73 1547.04 Q1701.67 1542.23 1699.03 1539.37 Q1696.42 1536.5 1692.09 1536.5 Q1687.19 1536.5 1684.23 1539.27 Q1681.3 1542.04 1680.85 1547.07 L1701.73 1547.04 Z" fill="#000000" fill-rule="nonzero" fill-opacity="1" /><path clip-path="url(#clip810)" d="M1737.86 1537.87 Q1736.87 1537.3 1735.69 1537.04 Q1734.55 1536.76 1733.15 1536.76 Q1728.18 1536.76 1725.51 1540 Q1722.87 1543.22 1722.87 1549.27 L1722.87 1568.04 L1716.98 1568.04 L1716.98 1532.4 L1722.87 1532.4 L1722.87 1537.93 Q1724.71 1534.69 1727.67 1533.13 Q1730.63 1531.54 1734.86 1531.54 Q1735.47 1531.54 1736.2 1531.63 Q1736.93 1531.7 1737.82 1531.85 L1737.86 1537.87 Z" fill="#000000" fill-rule="nonzero" fill-opacity="1" /><polyline clip-path="url(#clip812)" style="stroke:#000000; stroke-linecap:round; stroke-linejoin:round; stroke-width:2; stroke-opacity:0.1; fill:none" points="264.287,1387.31 2352.76,1387.31 "/>
<polyline clip-path="url(#clip812)" style="stroke:#000000; stroke-linecap:round; stroke-linejoin:round; stroke-width:2; stroke-opacity:0.1; fill:none" points="264.287,1023.63 2352.76,1023.63 "/>
<polyline clip-path="url(#clip812)" style="stroke:#000000; stroke-linecap:round; stroke-linejoin:round; stroke-width:2; stroke-opacity:0.1; fill:none" points="264.287,659.957 2352.76,659.957 "/>
<polyline clip-path="url(#clip812)" style="stroke:#000000; stroke-linecap:round; stroke-linejoin:round; stroke-width:2; stroke-opacity:0.1; fill:none" points="264.287,296.282 2352.76,296.282 "/>
<polyline clip-path="url(#clip810)" style="stroke:#000000; stroke-linecap:round; stroke-linejoin:round; stroke-width:4; stroke-opacity:1; fill:none" points="264.287,1423.18 264.287,149.392 "/>
<polyline clip-path="url(#clip810)" style="stroke:#000000; stroke-linecap:round; stroke-linejoin:round; stroke-width:4; stroke-opacity:1; fill:none" points="264.287,1387.31 283.185,1387.31 "/>
<polyline clip-path="url(#clip810)" style="stroke:#000000; stroke-linecap:round; stroke-linejoin:round; stroke-width:4; stroke-opacity:1; fill:none" points="264.287,1023.63 283.185,1023.63 "/>
<polyline clip-path="url(#clip810)" style="stroke:#000000; stroke-linecap:round; stroke-linejoin:round; stroke-width:4; stroke-opacity:1; fill:none" points="264.287,659.957 283.185,659.957 "/>
<polyline clip-path="url(#clip810)" style="stroke:#000000; stroke-linecap:round; stroke-linejoin:round; stroke-width:4; stroke-opacity:1; fill:none" points="264.287,296.282 283.185,296.282 "/>
<path clip-path="url(#clip810)" d="M216.343 1373.1 Q212.732 1373.1 210.903 1376.67 Q209.098 1380.21 209.098 1387.34 Q209.098 1394.45 210.903 1398.01 Q212.732 1401.55 216.343 1401.55 Q219.977 1401.55 221.783 1398.01 Q223.611 1394.45 223.611 1387.34 Q223.611 1380.21 221.783 1376.67 Q219.977 1373.1 216.343 1373.1 M216.343 1369.4 Q222.153 1369.4 225.209 1374.01 Q228.287 1378.59 228.287 1387.34 Q228.287 1396.07 225.209 1400.67 Q222.153 1405.26 216.343 1405.26 Q210.533 1405.26 207.454 1400.67 Q204.399 1396.07 204.399 1387.34 Q204.399 1378.59 207.454 1374.01 Q210.533 1369.4 216.343 1369.4 Z" fill="#000000" fill-rule="nonzero" fill-opacity="1" /><path clip-path="url(#clip810)" d="M116.668 1036.98 L124.306 1036.98 L124.306 1010.61 L115.996 1012.28 L115.996 1008.02 L124.26 1006.35 L128.936 1006.35 L128.936 1036.98 L136.575 1036.98 L136.575 1040.91 L116.668 1040.91 L116.668 1036.98 Z" fill="#000000" fill-rule="nonzero" fill-opacity="1" /><path clip-path="url(#clip810)" d="M156.019 1009.43 Q152.408 1009.43 150.579 1012.99 Q148.774 1016.54 148.774 1023.67 Q148.774 1030.77 150.579 1034.34 Q152.408 1037.88 156.019 1037.88 Q159.653 1037.88 161.459 1034.34 Q163.288 1030.77 163.288 1023.67 Q163.288 1016.54 161.459 1012.99 Q159.653 1009.43 156.019 1009.43 M156.019 1005.73 Q161.829 1005.73 164.885 1010.33 Q167.964 1014.92 167.964 1023.67 Q167.964 1032.39 164.885 1037 Q161.829 1041.58 156.019 1041.58 Q150.209 1041.58 147.13 1037 Q144.075 1032.39 144.075 1023.67 Q144.075 1014.92 147.13 1010.33 Q150.209 1005.73 156.019 1005.73 Z" fill="#000000" fill-rule="nonzero" fill-opacity="1" /><path clip-path="url(#clip810)" d="M186.181 1009.43 Q182.57 1009.43 180.741 1012.99 Q178.936 1016.54 178.936 1023.67 Q178.936 1030.77 180.741 1034.34 Q182.57 1037.88 186.181 1037.88 Q189.815 1037.88 191.621 1034.34 Q193.45 1030.77 193.45 1023.67 Q193.45 1016.54 191.621 1012.99 Q189.815 1009.43 186.181 1009.43 M186.181 1005.73 Q191.991 1005.73 195.047 1010.33 Q198.125 1014.92 198.125 1023.67 Q198.125 1032.39 195.047 1037 Q191.991 1041.58 186.181 1041.58 Q180.371 1041.58 177.292 1037 Q174.237 1032.39 174.237 1023.67 Q174.237 1014.92 177.292 1010.33 Q180.371 1005.73 186.181 1005.73 Z" fill="#000000" fill-rule="nonzero" fill-opacity="1" /><path clip-path="url(#clip810)" d="M216.343 1009.43 Q212.732 1009.43 210.903 1012.99 Q209.098 1016.54 209.098 1023.67 Q209.098 1030.77 210.903 1034.34 Q212.732 1037.88 216.343 1037.88 Q219.977 1037.88 221.783 1034.34 Q223.611 1030.77 223.611 1023.67 Q223.611 1016.54 221.783 1012.99 Q219.977 1009.43 216.343 1009.43 M216.343 1005.73 Q222.153 1005.73 225.209 1010.33 Q228.287 1014.92 228.287 1023.67 Q228.287 1032.39 225.209 1037 Q222.153 1041.58 216.343 1041.58 Q210.533 1041.58 207.454 1037 Q204.399 1032.39 204.399 1023.67 Q204.399 1014.92 207.454 1010.33 Q210.533 1005.73 216.343 1005.73 Z" fill="#000000" fill-rule="nonzero" fill-opacity="1" /><path clip-path="url(#clip810)" d="M119.885 673.301 L136.204 673.301 L136.204 677.237 L114.26 677.237 L114.26 673.301 Q116.922 670.547 121.505 665.917 Q126.112 661.264 127.292 659.922 Q129.538 657.399 130.417 655.663 Q131.32 653.903 131.32 652.214 Q131.32 649.459 129.376 647.723 Q127.455 645.987 124.353 645.987 Q122.154 645.987 119.7 646.751 Q117.269 647.514 114.492 649.065 L114.492 644.343 Q117.316 643.209 119.769 642.63 Q122.223 642.052 124.26 642.052 Q129.63 642.052 132.825 644.737 Q136.019 647.422 136.019 651.913 Q136.019 654.042 135.209 655.964 Q134.422 657.862 132.316 660.454 Q131.737 661.126 128.635 664.343 Q125.533 667.538 119.885 673.301 Z" fill="#000000" fill-rule="nonzero" fill-opacity="1" /><path clip-path="url(#clip810)" d="M156.019 645.755 Q152.408 645.755 150.579 649.32 Q148.774 652.862 148.774 659.991 Q148.774 667.098 150.579 670.663 Q152.408 674.204 156.019 674.204 Q159.653 674.204 161.459 670.663 Q163.288 667.098 163.288 659.991 Q163.288 652.862 161.459 649.32 Q159.653 645.755 156.019 645.755 M156.019 642.052 Q161.829 642.052 164.885 646.658 Q167.964 651.241 167.964 659.991 Q167.964 668.718 164.885 673.325 Q161.829 677.908 156.019 677.908 Q150.209 677.908 147.13 673.325 Q144.075 668.718 144.075 659.991 Q144.075 651.241 147.13 646.658 Q150.209 642.052 156.019 642.052 Z" fill="#000000" fill-rule="nonzero" fill-opacity="1" /><path clip-path="url(#clip810)" d="M186.181 645.755 Q182.57 645.755 180.741 649.32 Q178.936 652.862 178.936 659.991 Q178.936 667.098 180.741 670.663 Q182.57 674.204 186.181 674.204 Q189.815 674.204 191.621 670.663 Q193.45 667.098 193.45 659.991 Q193.45 652.862 191.621 649.32 Q189.815 645.755 186.181 645.755 M186.181 642.052 Q191.991 642.052 195.047 646.658 Q198.125 651.241 198.125 659.991 Q198.125 668.718 195.047 673.325 Q191.991 677.908 186.181 677.908 Q180.371 677.908 177.292 673.325 Q174.237 668.718 174.237 659.991 Q174.237 651.241 177.292 646.658 Q180.371 642.052 186.181 642.052 Z" fill="#000000" fill-rule="nonzero" fill-opacity="1" /><path clip-path="url(#clip810)" d="M216.343 645.755 Q212.732 645.755 210.903 649.32 Q209.098 652.862 209.098 659.991 Q209.098 667.098 210.903 670.663 Q212.732 674.204 216.343 674.204 Q219.977 674.204 221.783 670.663 Q223.611 667.098 223.611 659.991 Q223.611 652.862 221.783 649.32 Q219.977 645.755 216.343 645.755 M216.343 642.052 Q222.153 642.052 225.209 646.658 Q228.287 651.241 228.287 659.991 Q228.287 668.718 225.209 673.325 Q222.153 677.908 216.343 677.908 Q210.533 677.908 207.454 673.325 Q204.399 668.718 204.399 659.991 Q204.399 651.241 207.454 646.658 Q210.533 642.052 216.343 642.052 Z" fill="#000000" fill-rule="nonzero" fill-opacity="1" /><path clip-path="url(#clip810)" d="M130.024 294.928 Q133.38 295.646 135.255 297.914 Q137.154 300.183 137.154 303.516 Q137.154 308.632 133.635 311.433 Q130.117 314.234 123.635 314.234 Q121.459 314.234 119.144 313.794 Q116.853 313.377 114.399 312.521 L114.399 308.007 Q116.343 309.141 118.658 309.72 Q120.973 310.298 123.496 310.298 Q127.894 310.298 130.186 308.562 Q132.501 306.826 132.501 303.516 Q132.501 300.461 130.348 298.748 Q128.218 297.011 124.399 297.011 L120.371 297.011 L120.371 293.169 L124.584 293.169 Q128.033 293.169 129.862 291.803 Q131.691 290.414 131.691 287.822 Q131.691 285.16 129.792 283.748 Q127.917 282.312 124.399 282.312 Q122.478 282.312 120.279 282.729 Q118.08 283.146 115.441 284.025 L115.441 279.859 Q118.103 279.118 120.418 278.748 Q122.755 278.377 124.816 278.377 Q130.14 278.377 133.242 280.808 Q136.343 283.215 136.343 287.336 Q136.343 290.206 134.7 292.197 Q133.056 294.164 130.024 294.928 Z" fill="#000000" fill-rule="nonzero" fill-opacity="1" /><path clip-path="url(#clip810)" d="M156.019 282.081 Q152.408 282.081 150.579 285.646 Q148.774 289.187 148.774 296.317 Q148.774 303.423 150.579 306.988 Q152.408 310.53 156.019 310.53 Q159.653 310.53 161.459 306.988 Q163.288 303.423 163.288 296.317 Q163.288 289.187 161.459 285.646 Q159.653 282.081 156.019 282.081 M156.019 278.377 Q161.829 278.377 164.885 282.984 Q167.964 287.567 167.964 296.317 Q167.964 305.044 164.885 309.65 Q161.829 314.234 156.019 314.234 Q150.209 314.234 147.13 309.65 Q144.075 305.044 144.075 296.317 Q144.075 287.567 147.13 282.984 Q150.209 278.377 156.019 278.377 Z" fill="#000000" fill-rule="nonzero" fill-opacity="1" /><path clip-path="url(#clip810)" d="M186.181 282.081 Q182.57 282.081 180.741 285.646 Q178.936 289.187 178.936 296.317 Q178.936 303.423 180.741 306.988 Q182.57 310.53 186.181 310.53 Q189.815 310.53 191.621 306.988 Q193.45 303.423 193.45 296.317 Q193.45 289.187 191.621 285.646 Q189.815 282.081 186.181 282.081 M186.181 278.377 Q191.991 278.377 195.047 282.984 Q198.125 287.567 198.125 296.317 Q198.125 305.044 195.047 309.65 Q191.991 314.234 186.181 314.234 Q180.371 314.234 177.292 309.65 Q174.237 305.044 174.237 296.317 Q174.237 287.567 177.292 282.984 Q180.371 278.377 186.181 278.377 Z" fill="#000000" fill-rule="nonzero" fill-opacity="1" /><path clip-path="url(#clip810)" d="M216.343 282.081 Q212.732 282.081 210.903 285.646 Q209.098 289.187 209.098 296.317 Q209.098 303.423 210.903 306.988 Q212.732 310.53 216.343 310.53 Q219.977 310.53 221.783 306.988 Q223.611 303.423 223.611 296.317 Q223.611 289.187 221.783 285.646 Q219.977 282.081 216.343 282.081 M216.343 278.377 Q222.153 278.377 225.209 282.984 Q228.287 287.567 228.287 296.317 Q228.287 305.044 225.209 309.65 Q222.153 314.234 216.343 314.234 Q210.533 314.234 207.454 309.65 Q204.399 305.044 204.399 296.317 Q204.399 287.567 207.454 282.984 Q210.533 278.377 216.343 278.377 Z" fill="#000000" fill-rule="nonzero" fill-opacity="1" /><path clip-path="url(#clip810)" d="M41.7242 842.447 Q42.4244 840.379 44.7161 838.437 Q47.0077 836.464 51.0181 834.49 L64.0042 827.965 L64.0042 834.872 L51.8138 840.951 Q47.0395 843.307 45.48 845.535 Q43.9204 847.731 43.9204 851.55 L43.9204 858.553 L64.0042 858.553 L64.0042 864.982 L16.4842 864.982 L16.4842 850.468 Q16.4842 842.32 19.8898 838.31 Q23.2955 834.299 30.1704 834.299 Q34.6582 834.299 37.6183 836.4 Q40.5784 838.469 41.7242 842.447 M21.7677 858.553 L38.6368 858.553 L38.6368 850.468 Q38.6368 845.821 36.5043 843.466 Q34.34 841.079 30.1704 841.079 Q26.0009 841.079 23.9002 843.466 Q21.7677 845.821 21.7677 850.468 L21.7677 858.553 Z" fill="#000000" fill-rule="nonzero" fill-opacity="1" /><path clip-path="url(#clip810)" d="M46.0847 805.176 Q46.0847 812.274 47.7079 815.011 Q49.3312 817.748 53.2461 817.748 Q56.3653 817.748 58.2114 815.711 Q60.0256 813.643 60.0256 810.11 Q60.0256 805.24 56.5881 802.312 Q53.1188 799.352 47.3897 799.352 L46.0847 799.352 L46.0847 805.176 M43.6657 793.495 L64.0042 793.495 L64.0042 799.352 L58.5933 799.352 Q61.8398 801.357 63.3994 804.349 Q64.9272 807.341 64.9272 811.669 Q64.9272 817.144 61.8716 820.39 Q58.7843 823.605 53.6281 823.605 Q47.6125 823.605 44.5569 819.595 Q41.5014 815.552 41.5014 807.563 L41.5014 799.352 L40.9285 799.352 Q36.8862 799.352 34.6901 802.025 Q32.4621 804.667 32.4621 809.473 Q32.4621 812.529 33.1941 815.425 Q33.9262 818.321 35.3903 820.995 L29.9795 820.995 Q28.7381 817.78 28.1334 814.757 Q27.4968 811.733 27.4968 808.868 Q27.4968 801.134 31.5072 797.315 Q35.5176 793.495 43.6657 793.495 Z" fill="#000000" fill-rule="nonzero" fill-opacity="1" /><path clip-path="url(#clip810)" d="M18.2347 775.639 L28.3562 775.639 L28.3562 763.576 L32.9077 763.576 L32.9077 775.639 L52.2594 775.639 Q56.6199 775.639 57.8613 774.462 Q59.1026 773.252 59.1026 769.592 L59.1026 763.576 L64.0042 763.576 L64.0042 769.592 Q64.0042 776.371 61.4897 778.95 Q58.9434 781.528 52.2594 781.528 L32.9077 781.528 L32.9077 785.824 L28.3562 785.824 L28.3562 781.528 L18.2347 781.528 L18.2347 775.639 Z" fill="#000000" fill-rule="nonzero" fill-opacity="1" /><path clip-path="url(#clip810)" d="M28.3562 755.874 L28.3562 750.017 L64.0042 750.017 L64.0042 755.874 L28.3562 755.874 M14.479 755.874 L14.479 750.017 L21.895 750.017 L21.895 755.874 L14.479 755.874 Z" fill="#000000" fill-rule="nonzero" fill-opacity="1" /><path clip-path="url(#clip810)" d="M32.4621 723.95 Q32.4621 728.66 36.1542 731.398 Q39.8145 734.135 46.212 734.135 Q52.6095 734.135 56.3017 731.43 Q59.9619 728.692 59.9619 723.95 Q59.9619 719.271 56.2698 716.534 Q52.5777 713.796 46.212 713.796 Q39.8781 713.796 36.186 716.534 Q32.4621 719.271 32.4621 723.95 M27.4968 723.95 Q27.4968 716.311 32.4621 711.95 Q37.4273 707.59 46.212 707.59 Q54.9649 707.59 59.9619 711.95 Q64.9272 716.311 64.9272 723.95 Q64.9272 731.62 59.9619 735.981 Q54.9649 740.31 46.212 740.31 Q37.4273 740.31 32.4621 735.981 Q27.4968 731.62 27.4968 723.95 Z" fill="#000000" fill-rule="nonzero" fill-opacity="1" /><path clip-path="url(#clip810)" d="M699.931 23.76 L736.476 23.76 L736.476 28.679 L721.141 28.679 L721.141 66.96 L715.267 66.96 L715.267 28.679 L699.931 28.679 L699.931 23.76 Z" fill="#000000" fill-rule="nonzero" fill-opacity="1" /><path clip-path="url(#clip810)" d="M740.064 34.5528 L745.388 34.5528 L745.388 66.96 L740.064 66.96 L740.064 34.5528 M740.064 21.9371 L745.388 21.9371 L745.388 28.679 L740.064 28.679 L740.064 21.9371 Z" fill="#000000" fill-rule="nonzero" fill-opacity="1" /><path clip-path="url(#clip810)" d="M781.759 40.7738 Q783.756 37.1859 786.534 35.4787 Q789.311 33.7715 793.073 33.7715 Q798.137 33.7715 800.885 37.3305 Q803.634 40.8606 803.634 47.3999 L803.634 66.96 L798.281 66.96 L798.281 47.5735 Q798.281 42.915 796.632 40.6581 Q794.983 38.4011 791.597 38.4011 Q787.46 38.4011 785.058 41.15 Q782.656 43.8988 782.656 48.6441 L782.656 66.96 L777.303 66.96 L777.303 47.5735 Q777.303 42.8861 775.654 40.6581 Q774.005 38.4011 770.562 38.4011 Q766.482 38.4011 764.08 41.1789 Q761.678 43.9277 761.678 48.6441 L761.678 66.96 L756.325 66.96 L756.325 34.5528 L761.678 34.5528 L761.678 39.5875 Q763.501 36.6072 766.048 35.1893 Q768.594 33.7715 772.095 33.7715 Q775.625 33.7715 778.085 35.5655 Q780.573 37.3595 781.759 40.7738 Z" fill="#000000" fill-rule="nonzero" fill-opacity="1" /><path clip-path="url(#clip810)" d="M841.973 49.4254 L841.973 52.0295 L817.494 52.0295 Q817.841 57.5272 820.793 60.4207 Q823.773 63.2853 829.068 63.2853 Q832.135 63.2853 835 62.5329 Q837.893 61.7806 840.729 60.276 L840.729 65.3107 Q837.864 66.526 834.855 67.1625 Q831.846 67.7991 828.75 67.7991 Q820.995 67.7991 816.452 63.2853 Q811.939 58.7714 811.939 51.0747 Q811.939 43.1175 816.221 38.459 Q820.532 33.7715 827.824 33.7715 Q834.363 33.7715 838.154 37.996 Q841.973 42.1916 841.973 49.4254 M836.649 47.8629 Q836.591 43.4937 834.19 40.8895 Q831.817 38.2854 827.882 38.2854 Q823.426 38.2854 820.735 40.8027 Q818.073 43.3201 817.668 47.8918 L836.649 47.8629 Z" fill="#000000" fill-rule="nonzero" fill-opacity="1" /><path clip-path="url(#clip810)" d="M888.327 39.5296 Q887.43 39.0088 886.36 38.7773 Q885.318 38.5169 884.045 38.5169 Q879.531 38.5169 877.1 41.4682 Q874.699 44.3907 874.699 49.8883 L874.699 66.96 L869.346 66.96 L869.346 34.5528 L874.699 34.5528 L874.699 39.5875 Q876.377 36.6361 879.068 35.2183 Q881.759 33.7715 885.607 33.7715 Q886.157 33.7715 886.822 33.8583 Q887.488 33.9162 888.298 34.0609 L888.327 39.5296 Z" fill="#000000" fill-rule="nonzero" fill-opacity="1" /><path clip-path="url(#clip810)" d="M908.639 50.6696 Q902.187 50.6696 899.699 52.1453 Q897.21 53.621 897.21 57.18 Q897.21 60.0156 899.062 61.6938 Q900.943 63.3431 904.155 63.3431 Q908.582 63.3431 911.244 60.2181 Q913.935 57.0642 913.935 51.8559 L913.935 50.6696 L908.639 50.6696 M919.259 48.4705 L919.259 66.96 L913.935 66.96 L913.935 62.041 Q912.112 64.9924 909.392 66.4102 Q906.672 67.7991 902.737 67.7991 Q897.76 67.7991 894.809 65.0214 Q891.886 62.2147 891.886 57.5272 Q891.886 52.0585 895.532 49.2807 Q899.207 46.5029 906.469 46.5029 L913.935 46.5029 L913.935 45.9821 Q913.935 42.3074 911.504 40.3108 Q909.102 38.2854 904.733 38.2854 Q901.956 38.2854 899.322 38.9509 Q896.689 39.6164 894.259 40.9474 L894.259 36.0285 Q897.181 34.9 899.93 34.3502 Q902.679 33.7715 905.283 33.7715 Q912.314 33.7715 915.786 37.4173 Q919.259 41.0631 919.259 48.4705 Z" fill="#000000" fill-rule="nonzero" fill-opacity="1" /><path clip-path="url(#clip810)" d="M935.491 25.3514 L935.491 34.5528 L946.458 34.5528 L946.458 38.6905 L935.491 38.6905 L935.491 56.283 Q935.491 60.2471 936.562 61.3755 Q937.661 62.504 940.989 62.504 L946.458 62.504 L946.458 66.96 L940.989 66.96 Q934.826 66.96 932.482 64.6741 Q930.138 62.3593 930.138 56.283 L930.138 38.6905 L926.232 38.6905 L926.232 34.5528 L930.138 34.5528 L930.138 25.3514 L935.491 25.3514 Z" fill="#000000" fill-rule="nonzero" fill-opacity="1" /><path clip-path="url(#clip810)" d="M953.46 34.5528 L958.784 34.5528 L958.784 66.96 L953.46 66.96 L953.46 34.5528 M953.46 21.9371 L958.784 21.9371 L958.784 28.679 L953.46 28.679 L953.46 21.9371 Z" fill="#000000" fill-rule="nonzero" fill-opacity="1" /><path clip-path="url(#clip810)" d="M982.482 38.2854 Q978.199 38.2854 975.711 41.6418 Q973.222 44.9694 973.222 50.7853 Q973.222 56.6013 975.682 59.9577 Q978.17 63.2853 982.482 63.2853 Q986.735 63.2853 989.224 59.9288 Q991.712 56.5723 991.712 50.7853 Q991.712 45.0272 989.224 41.6708 Q986.735 38.2854 982.482 38.2854 M982.482 33.7715 Q989.426 33.7715 993.39 38.2854 Q997.354 42.7992 997.354 50.7853 Q997.354 58.7425 993.39 63.2853 Q989.426 67.7991 982.482 67.7991 Q975.508 67.7991 971.544 63.2853 Q967.609 58.7425 967.609 50.7853 Q967.609 42.7992 971.544 38.2854 Q975.508 33.7715 982.482 33.7715 Z" fill="#000000" fill-rule="nonzero" fill-opacity="1" /><path clip-path="url(#clip810)" d="M1007.54 59.6105 L1013.64 59.6105 L1013.64 64.5873 L1008.9 73.8465 L1005.17 73.8465 L1007.54 64.5873 L1007.54 59.6105 Z" fill="#000000" fill-rule="nonzero" fill-opacity="1" /><path clip-path="url(#clip810)" d="M1069.98 25.1778 L1069.98 30.878 Q1066.65 29.2866 1063.7 28.5053 Q1060.75 27.7241 1058 27.7241 Q1053.23 27.7241 1050.62 29.5759 Q1048.05 31.4278 1048.05 34.8421 Q1048.05 37.7067 1049.76 39.1824 Q1051.49 40.6291 1056.29 41.5261 L1059.83 42.2495 Q1066.36 43.4937 1069.46 46.6476 Q1072.59 49.7726 1072.59 55.0388 Q1072.59 61.3177 1068.36 64.5584 Q1064.17 67.7991 1056.03 67.7991 Q1052.97 67.7991 1049.5 67.1047 Q1046.05 66.4102 1042.35 65.0503 L1042.35 59.0318 Q1045.91 61.0283 1049.32 62.041 Q1052.74 63.0538 1056.03 63.0538 Q1061.04 63.0538 1063.76 61.0862 Q1066.48 59.1186 1066.48 55.4728 Q1066.48 52.2899 1064.51 50.496 Q1062.57 48.702 1058.12 47.805 L1054.56 47.1106 Q1048.02 45.8085 1045.1 43.0307 Q1042.17 40.253 1042.17 35.3051 Q1042.17 29.5759 1046.2 26.2773 Q1050.25 22.9788 1057.34 22.9788 Q1060.37 22.9788 1063.53 23.5285 Q1066.68 24.0783 1069.98 25.1778 Z" fill="#000000" fill-rule="nonzero" fill-opacity="1" /><path clip-path="url(#clip810)" d="M1094.95 69.9692 Q1092.7 75.7562 1090.55 77.5213 Q1088.41 79.2863 1084.82 79.2863 L1080.57 79.2863 L1080.57 74.8303 L1083.7 74.8303 Q1085.9 74.8303 1087.11 73.7887 Q1088.33 72.747 1089.8 68.8697 L1090.76 66.4392 L1077.65 34.5528 L1083.29 34.5528 L1093.42 59.8999 L1103.55 34.5528 L1109.19 34.5528 L1094.95 69.9692 Z" fill="#000000" fill-rule="nonzero" fill-opacity="1" /><path clip-path="url(#clip810)" d="M1141.77 40.7738 Q1143.77 37.1859 1146.54 35.4787 Q1149.32 33.7715 1153.08 33.7715 Q1158.15 33.7715 1160.9 37.3305 Q1163.64 40.8606 1163.64 47.3999 L1163.64 66.96 L1158.29 66.96 L1158.29 47.5735 Q1158.29 42.915 1156.64 40.6581 Q1154.99 38.4011 1151.61 38.4011 Q1147.47 38.4011 1145.07 41.15 Q1142.67 43.8988 1142.67 48.6441 L1142.67 66.96 L1137.31 66.96 L1137.31 47.5735 Q1137.31 42.8861 1135.66 40.6581 Q1134.01 38.4011 1130.57 38.4011 Q1126.49 38.4011 1124.09 41.1789 Q1121.69 43.9277 1121.69 48.6441 L1121.69 66.96 L1116.34 66.96 L1116.34 34.5528 L1121.69 34.5528 L1121.69 39.5875 Q1123.51 36.6072 1126.06 35.1893 Q1128.6 33.7715 1132.1 33.7715 Q1135.63 33.7715 1138.09 35.5655 Q1140.58 37.3595 1141.77 40.7738 Z" fill="#000000" fill-rule="nonzero" fill-opacity="1" /><path clip-path="url(#clip810)" d="M1197.53 50.7853 Q1197.53 44.9115 1195.1 41.584 Q1192.69 38.2275 1188.47 38.2275 Q1184.25 38.2275 1181.82 41.584 Q1179.41 44.9115 1179.41 50.7853 Q1179.41 56.6591 1181.82 60.0156 Q1184.25 63.3431 1188.47 63.3431 Q1192.69 63.3431 1195.1 60.0156 Q1197.53 56.6591 1197.53 50.7853 M1179.41 39.4717 Q1181.09 36.5782 1183.64 35.1893 Q1186.21 33.7715 1189.77 33.7715 Q1195.67 33.7715 1199.35 38.459 Q1203.05 43.1465 1203.05 50.7853 Q1203.05 58.4242 1199.35 63.1116 Q1195.67 67.7991 1189.77 67.7991 Q1186.21 67.7991 1183.64 66.4102 Q1181.09 64.9924 1179.41 62.0989 L1179.41 66.96 L1174.06 66.96 L1174.06 21.9371 L1179.41 21.9371 L1179.41 39.4717 Z" fill="#000000" fill-rule="nonzero" fill-opacity="1" /><path clip-path="url(#clip810)" d="M1224.44 38.2854 Q1220.15 38.2854 1217.67 41.6418 Q1215.18 44.9694 1215.18 50.7853 Q1215.18 56.6013 1217.64 59.9577 Q1220.13 63.2853 1224.44 63.2853 Q1228.69 63.2853 1231.18 59.9288 Q1233.67 56.5723 1233.67 50.7853 Q1233.67 45.0272 1231.18 41.6708 Q1228.69 38.2854 1224.44 38.2854 M1224.44 33.7715 Q1231.38 33.7715 1235.34 38.2854 Q1239.31 42.7992 1239.31 50.7853 Q1239.31 58.7425 1235.34 63.2853 Q1231.38 67.7991 1224.44 67.7991 Q1217.46 67.7991 1213.5 63.2853 Q1209.56 58.7425 1209.56 50.7853 Q1209.56 42.7992 1213.5 38.2854 Q1217.46 33.7715 1224.44 33.7715 Z" fill="#000000" fill-rule="nonzero" fill-opacity="1" /><path clip-path="url(#clip810)" d="M1248.13 21.9371 L1253.46 21.9371 L1253.46 66.96 L1248.13 66.96 L1248.13 21.9371 Z" fill="#000000" fill-rule="nonzero" fill-opacity="1" /><path clip-path="url(#clip810)" d="M1264.6 34.5528 L1269.92 34.5528 L1269.92 66.96 L1264.6 66.96 L1264.6 34.5528 M1264.6 21.9371 L1269.92 21.9371 L1269.92 28.679 L1264.6 28.679 L1264.6 21.9371 Z" fill="#000000" fill-rule="nonzero" fill-opacity="1" /><path clip-path="url(#clip810)" d="M1304.38 35.797 L1304.38 40.7738 Q1302.13 39.5296 1299.84 38.922 Q1297.58 38.2854 1295.27 38.2854 Q1290.09 38.2854 1287.23 41.584 Q1284.36 44.8536 1284.36 50.7853 Q1284.36 56.717 1287.23 60.0156 Q1290.09 63.2853 1295.27 63.2853 Q1297.58 63.2853 1299.84 62.6776 Q1302.13 62.041 1304.38 60.7968 L1304.38 65.7158 Q1302.16 66.7575 1299.75 67.2783 Q1297.38 67.7991 1294.69 67.7991 Q1287.37 67.7991 1283.06 63.1984 Q1278.75 58.5978 1278.75 50.7853 Q1278.75 42.8571 1283.09 38.3143 Q1287.46 33.7715 1295.04 33.7715 Q1297.5 33.7715 1299.84 34.2924 Q1302.18 34.7842 1304.38 35.797 Z" fill="#000000" fill-rule="nonzero" fill-opacity="1" /><path clip-path="url(#clip810)" d="M1334.3 35.5076 L1334.3 40.5423 Q1332.05 39.3849 1329.62 38.8062 Q1327.18 38.2275 1324.58 38.2275 Q1320.62 38.2275 1318.62 39.4428 Q1316.65 40.6581 1316.65 43.0886 Q1316.65 44.9404 1318.07 46.011 Q1319.49 47.0527 1323.77 48.0076 L1325.59 48.4126 Q1331.26 49.6279 1333.64 51.8559 Q1336.04 54.055 1336.04 58.0191 Q1336.04 62.5329 1332.45 65.166 Q1328.89 67.7991 1322.64 67.7991 Q1320.04 67.7991 1317.2 67.2783 Q1314.4 66.7864 1311.27 65.7737 L1311.27 60.276 Q1314.22 61.8096 1317.09 62.5908 Q1319.95 63.3431 1322.76 63.3431 Q1326.52 63.3431 1328.54 62.07 Q1330.57 60.7679 1330.57 58.4242 Q1330.57 56.254 1329.09 55.0966 Q1327.65 53.9392 1322.7 52.8686 L1320.85 52.4346 Q1315.9 51.393 1313.7 49.2518 Q1311.5 47.0816 1311.5 43.3201 Q1311.5 38.7483 1314.74 36.2599 Q1317.98 33.7715 1323.94 33.7715 Q1326.9 33.7715 1329.5 34.2055 Q1332.1 34.6396 1334.3 35.5076 Z" fill="#000000" fill-rule="nonzero" fill-opacity="1" /><path clip-path="url(#clip810)" d="M1353.98 23.76 L1358.9 23.76 L1343.85 72.4577 L1338.93 72.4577 L1353.98 23.76 Z" fill="#000000" fill-rule="nonzero" fill-opacity="1" /><path clip-path="url(#clip810)" d="M1364.71 23.76 L1389.54 23.76 L1389.54 28.679 L1370.56 28.679 L1370.56 41.4104 L1387.69 41.4104 L1387.69 46.3293 L1370.56 46.3293 L1370.56 66.96 L1364.71 66.96 L1364.71 23.76 Z" fill="#000000" fill-rule="nonzero" fill-opacity="1" /><path clip-path="url(#clip810)" d="M1423.65 25.1778 L1423.65 30.878 Q1420.33 29.2866 1417.38 28.5053 Q1414.42 27.7241 1411.67 27.7241 Q1406.9 27.7241 1404.3 29.5759 Q1401.72 31.4278 1401.72 34.8421 Q1401.72 37.7067 1403.43 39.1824 Q1405.16 40.6291 1409.97 41.5261 L1413.5 42.2495 Q1420.04 43.4937 1423.13 46.6476 Q1426.26 49.7726 1426.26 55.0388 Q1426.26 61.3177 1422.03 64.5584 Q1417.84 67.7991 1409.71 67.7991 Q1406.64 67.7991 1403.17 67.1047 Q1399.72 66.4102 1396.02 65.0503 L1396.02 59.0318 Q1399.58 61.0283 1402.99 62.041 Q1406.41 63.0538 1409.71 63.0538 Q1414.71 63.0538 1417.43 61.0862 Q1420.15 59.1186 1420.15 55.4728 Q1420.15 52.2899 1418.19 50.496 Q1416.25 48.702 1411.79 47.805 L1408.23 47.1106 Q1401.69 45.8085 1398.77 43.0307 Q1395.85 40.253 1395.85 35.3051 Q1395.85 29.5759 1399.87 26.2773 Q1403.92 22.9788 1411.01 22.9788 Q1414.05 22.9788 1417.2 23.5285 Q1420.36 24.0783 1423.65 25.1778 Z" fill="#000000" fill-rule="nonzero" fill-opacity="1" /><path clip-path="url(#clip810)" d="M1441.22 28.5632 L1441.22 62.1568 L1448.28 62.1568 Q1457.22 62.1568 1461.36 58.1059 Q1465.52 54.055 1465.52 45.3166 Q1465.52 36.6361 1461.36 32.6141 Q1457.22 28.5632 1448.28 28.5632 L1441.22 28.5632 M1435.37 23.76 L1447.38 23.76 Q1459.94 23.76 1465.81 28.9972 Q1471.69 34.2055 1471.69 45.3166 Q1471.69 56.4855 1465.78 61.7228 Q1459.88 66.96 1447.38 66.96 L1435.37 66.96 L1435.37 23.76 Z" fill="#000000" fill-rule="nonzero" fill-opacity="1" /><path clip-path="url(#clip810)" d="M1482.13 59.6105 L1488.24 59.6105 L1488.24 66.96 L1482.13 66.96 L1482.13 59.6105 M1482.13 36.3178 L1488.24 36.3178 L1488.24 43.6673 L1482.13 43.6673 L1482.13 36.3178 Z" fill="#000000" fill-rule="nonzero" fill-opacity="1" /><path clip-path="url(#clip810)" d="M1519.81 23.76 L1528.51 23.76 L1539.54 53.158 L1550.62 23.76 L1559.33 23.76 L1559.33 66.96 L1553.63 66.96 L1553.63 29.0262 L1542.49 58.6556 L1536.62 58.6556 L1525.48 29.0262 L1525.48 66.96 L1519.81 66.96 L1519.81 23.76 Z" fill="#000000" fill-rule="nonzero" fill-opacity="1" /><path clip-path="url(#clip810)" d="M1585.43 50.6696 Q1578.98 50.6696 1576.49 52.1453 Q1574 53.621 1574 57.18 Q1574 60.0156 1575.85 61.6938 Q1577.73 63.3431 1580.94 63.3431 Q1585.37 63.3431 1588.03 60.2181 Q1590.72 57.0642 1590.72 51.8559 L1590.72 50.6696 L1585.43 50.6696 M1596.05 48.4705 L1596.05 66.96 L1590.72 66.96 L1590.72 62.041 Q1588.9 64.9924 1586.18 66.4102 Q1583.46 67.7991 1579.53 67.7991 Q1574.55 67.7991 1571.6 65.0214 Q1568.68 62.2147 1568.68 57.5272 Q1568.68 52.0585 1572.32 49.2807 Q1576 46.5029 1583.26 46.5029 L1590.72 46.5029 L1590.72 45.9821 Q1590.72 42.3074 1588.29 40.3108 Q1585.89 38.2854 1581.52 38.2854 Q1578.75 38.2854 1576.11 38.9509 Q1573.48 39.6164 1571.05 40.9474 L1571.05 36.0285 Q1573.97 34.9 1576.72 34.3502 Q1579.47 33.7715 1582.07 33.7715 Q1589.1 33.7715 1592.58 37.4173 Q1596.05 41.0631 1596.05 48.4705 Z" fill="#000000" fill-rule="nonzero" fill-opacity="1" /><path clip-path="url(#clip810)" d="M1606.81 21.9371 L1612.17 21.9371 L1612.17 48.5284 L1628.05 34.5528 L1634.85 34.5528 L1617.66 49.7147 L1635.57 66.96 L1628.63 66.96 L1612.17 51.1325 L1612.17 66.96 L1606.81 66.96 L1606.81 21.9371 Z" fill="#000000" fill-rule="nonzero" fill-opacity="1" /><path clip-path="url(#clip810)" d="M1666.94 49.4254 L1666.94 52.0295 L1642.46 52.0295 Q1642.81 57.5272 1645.76 60.4207 Q1648.74 63.2853 1654.03 63.2853 Q1657.1 63.2853 1659.97 62.5329 Q1662.86 61.7806 1665.7 60.276 L1665.7 65.3107 Q1662.83 66.526 1659.82 67.1625 Q1656.81 67.7991 1653.72 67.7991 Q1645.96 67.7991 1641.42 63.2853 Q1636.91 58.7714 1636.91 51.0747 Q1636.91 43.1175 1641.19 38.459 Q1645.5 33.7715 1652.79 33.7715 Q1659.33 33.7715 1663.12 37.996 Q1666.94 42.1916 1666.94 49.4254 M1661.62 47.8629 Q1661.56 43.4937 1659.16 40.8895 Q1656.78 38.2854 1652.85 38.2854 Q1648.39 38.2854 1645.7 40.8027 Q1643.04 43.3201 1642.63 47.8918 L1661.62 47.8629 Z" fill="#000000" fill-rule="nonzero" fill-opacity="1" /><path clip-path="url(#clip810)" d="M1675.91 23.76 L1700.74 23.76 L1700.74 28.679 L1681.75 28.679 L1681.75 41.4104 L1698.88 41.4104 L1698.88 46.3293 L1681.75 46.3293 L1681.75 66.96 L1675.91 66.96 L1675.91 23.76 Z" fill="#000000" fill-rule="nonzero" fill-opacity="1" /><path clip-path="url(#clip810)" d="M1705.97 54.1707 L1705.97 34.5528 L1711.3 34.5528 L1711.3 53.9682 Q1711.3 58.5688 1713.09 60.8836 Q1714.89 63.1695 1718.47 63.1695 Q1722.78 63.1695 1725.27 60.4207 Q1727.79 57.6719 1727.79 52.9265 L1727.79 34.5528 L1733.11 34.5528 L1733.11 66.96 L1727.79 66.96 L1727.79 61.9832 Q1725.85 64.9345 1723.28 66.3813 Q1720.73 67.7991 1717.34 67.7991 Q1711.76 67.7991 1708.87 64.3269 Q1705.97 60.8547 1705.97 54.1707 M1719.37 33.7715 L1719.37 33.7715 Z" fill="#000000" fill-rule="nonzero" fill-opacity="1" /><path clip-path="url(#clip810)" d="M1771.02 47.3999 L1771.02 66.96 L1765.7 66.96 L1765.7 47.5735 Q1765.7 42.9729 1763.9 40.687 Q1762.11 38.4011 1758.52 38.4011 Q1754.21 38.4011 1751.72 41.15 Q1749.23 43.8988 1749.23 48.6441 L1749.23 66.96 L1743.88 66.96 L1743.88 34.5528 L1749.23 34.5528 L1749.23 39.5875 Q1751.14 36.665 1753.72 35.2183 Q1756.32 33.7715 1759.71 33.7715 Q1765.29 33.7715 1768.15 37.2437 Q1771.02 40.687 1771.02 47.3999 Z" fill="#000000" fill-rule="nonzero" fill-opacity="1" /><path clip-path="url(#clip810)" d="M1804.96 35.797 L1804.96 40.7738 Q1802.7 39.5296 1800.42 38.922 Q1798.16 38.2854 1795.85 38.2854 Q1790.67 38.2854 1787.8 41.584 Q1784.94 44.8536 1784.94 50.7853 Q1784.94 56.717 1787.8 60.0156 Q1790.67 63.2853 1795.85 63.2853 Q1798.16 63.2853 1800.42 62.6776 Q1802.7 62.041 1804.96 60.7968 L1804.96 65.7158 Q1802.73 66.7575 1800.33 67.2783 Q1797.96 67.7991 1795.27 67.7991 Q1787.95 67.7991 1783.63 63.1984 Q1779.32 58.5978 1779.32 50.7853 Q1779.32 42.8571 1783.66 38.3143 Q1788.03 33.7715 1795.61 33.7715 Q1798.07 33.7715 1800.42 34.2924 Q1802.76 34.7842 1804.96 35.797 Z" fill="#000000" fill-rule="nonzero" fill-opacity="1" /><path clip-path="url(#clip810)" d="M1819.49 25.3514 L1819.49 34.5528 L1830.45 34.5528 L1830.45 38.6905 L1819.49 38.6905 L1819.49 56.283 Q1819.49 60.2471 1820.56 61.3755 Q1821.66 62.504 1824.98 62.504 L1830.45 62.504 L1830.45 66.96 L1824.98 66.96 Q1818.82 66.96 1816.48 64.6741 Q1814.13 62.3593 1814.13 56.283 L1814.13 38.6905 L1810.23 38.6905 L1810.23 34.5528 L1814.13 34.5528 L1814.13 25.3514 L1819.49 25.3514 Z" fill="#000000" fill-rule="nonzero" fill-opacity="1" /><path clip-path="url(#clip810)" d="M1837.45 34.5528 L1842.78 34.5528 L1842.78 66.96 L1837.45 66.96 L1837.45 34.5528 M1837.45 21.9371 L1842.78 21.9371 L1842.78 28.679 L1837.45 28.679 L1837.45 21.9371 Z" fill="#000000" fill-rule="nonzero" fill-opacity="1" /><path clip-path="url(#clip810)" d="M1866.48 38.2854 Q1862.19 38.2854 1859.71 41.6418 Q1857.22 44.9694 1857.22 50.7853 Q1857.22 56.6013 1859.68 59.9577 Q1862.16 63.2853 1866.48 63.2853 Q1870.73 63.2853 1873.22 59.9288 Q1875.71 56.5723 1875.71 50.7853 Q1875.71 45.0272 1873.22 41.6708 Q1870.73 38.2854 1866.48 38.2854 M1866.48 33.7715 Q1873.42 33.7715 1877.38 38.2854 Q1881.35 42.7992 1881.35 50.7853 Q1881.35 58.7425 1877.38 63.2853 Q1873.42 67.7991 1866.48 67.7991 Q1859.5 67.7991 1855.54 63.2853 Q1851.6 58.7425 1851.6 50.7853 Q1851.6 42.7992 1855.54 38.2854 Q1859.5 33.7715 1866.48 33.7715 Z" fill="#000000" fill-rule="nonzero" fill-opacity="1" /><path clip-path="url(#clip810)" d="M1917.11 47.3999 L1917.11 66.96 L1911.79 66.96 L1911.79 47.5735 Q1911.79 42.9729 1909.99 40.687 Q1908.2 38.4011 1904.61 38.4011 Q1900.3 38.4011 1897.81 41.15 Q1895.32 43.8988 1895.32 48.6441 L1895.32 66.96 L1889.97 66.96 L1889.97 34.5528 L1895.32 34.5528 L1895.32 39.5875 Q1897.23 36.665 1899.81 35.2183 Q1902.41 33.7715 1905.8 33.7715 Q1911.38 33.7715 1914.25 37.2437 Q1917.11 40.687 1917.11 47.3999 Z" fill="#000000" fill-rule="nonzero" fill-opacity="1" /><path clip-path="url(#clip810)" d="M1031.12 100.308 L1031.12 105.342 Q1028.86 104.185 1026.43 103.606 Q1024 103.028 1021.4 103.028 Q1017.44 103.028 1015.44 104.243 Q1013.47 105.458 1013.47 107.889 Q1013.47 109.74 1014.89 110.811 Q1016.31 111.853 1020.59 112.808 L1022.41 113.213 Q1028.08 114.428 1030.46 116.656 Q1032.86 118.855 1032.86 122.819 Q1032.86 127.333 1029.27 129.966 Q1025.71 132.599 1019.46 132.599 Q1016.86 132.599 1014.02 132.078 Q1011.21 131.586 1008.09 130.574 L1008.09 125.076 Q1011.04 126.61 1013.91 127.391 Q1016.77 128.143 1019.58 128.143 Q1023.34 128.143 1025.36 126.87 Q1027.39 125.568 1027.39 123.224 Q1027.39 121.054 1025.91 119.897 Q1024.47 118.739 1019.52 117.669 L1017.67 117.235 Q1012.72 116.193 1010.52 114.052 Q1008.32 111.882 1008.32 108.12 Q1008.32 103.548 1011.56 101.06 Q1014.8 98.5715 1020.76 98.5715 Q1023.71 98.5715 1026.32 99.0055 Q1028.92 99.4396 1031.12 100.308 Z" fill="#000000" fill-rule="nonzero" fill-opacity="1" /><path clip-path="url(#clip810)" d="M1046.49 126.899 L1046.49 144.086 L1041.13 144.086 L1041.13 99.3528 L1046.49 99.3528 L1046.49 104.272 Q1048.16 101.378 1050.71 99.9893 Q1053.29 98.5715 1056.84 98.5715 Q1062.75 98.5715 1066.42 103.259 Q1070.13 107.946 1070.13 115.585 Q1070.13 123.224 1066.42 127.912 Q1062.75 132.599 1056.84 132.599 Q1053.29 132.599 1050.71 131.21 Q1048.16 129.792 1046.49 126.899 M1064.6 115.585 Q1064.6 109.712 1062.17 106.384 Q1059.77 103.028 1055.54 103.028 Q1051.32 103.028 1048.89 106.384 Q1046.49 109.712 1046.49 115.585 Q1046.49 121.459 1048.89 124.816 Q1051.32 128.143 1055.54 128.143 Q1059.77 128.143 1062.17 124.816 Q1064.6 121.459 1064.6 115.585 Z" fill="#000000" fill-rule="nonzero" fill-opacity="1" /><path clip-path="url(#clip810)" d="M1105.89 112.2 L1105.89 131.76 L1100.57 131.76 L1100.57 112.374 Q1100.57 107.773 1098.77 105.487 Q1096.98 103.201 1093.39 103.201 Q1089.08 103.201 1086.59 105.95 Q1084.1 108.699 1084.1 113.444 L1084.1 131.76 L1078.75 131.76 L1078.75 86.7371 L1084.1 86.7371 L1084.1 104.387 Q1086.01 101.465 1088.59 100.018 Q1091.19 98.5715 1094.58 98.5715 Q1100.16 98.5715 1103.03 102.044 Q1105.89 105.487 1105.89 112.2 Z" fill="#000000" fill-rule="nonzero" fill-opacity="1" /><path clip-path="url(#clip810)" d="M1144.23 114.225 L1144.23 116.83 L1119.75 116.83 Q1120.1 122.327 1123.05 125.221 Q1126.03 128.085 1131.32 128.085 Q1134.39 128.085 1137.26 127.333 Q1140.15 126.581 1142.98 125.076 L1142.98 130.111 Q1140.12 131.326 1137.11 131.963 Q1134.1 132.599 1131.01 132.599 Q1123.25 132.599 1118.71 128.085 Q1114.19 123.571 1114.19 115.875 Q1114.19 107.918 1118.48 103.259 Q1122.79 98.5715 1130.08 98.5715 Q1136.62 98.5715 1140.41 102.796 Q1144.23 106.992 1144.23 114.225 M1138.9 112.663 Q1138.85 108.294 1136.44 105.69 Q1134.07 103.085 1130.14 103.085 Q1125.68 103.085 1122.99 105.603 Q1120.33 108.12 1119.92 112.692 L1138.9 112.663 Z" fill="#000000" fill-rule="nonzero" fill-opacity="1" /><path clip-path="url(#clip810)" d="M1171.75 104.33 Q1170.85 103.809 1169.78 103.577 Q1168.74 103.317 1167.46 103.317 Q1162.95 103.317 1160.52 106.268 Q1158.12 109.191 1158.12 114.688 L1158.12 131.76 L1152.76 131.76 L1152.76 99.3528 L1158.12 99.3528 L1158.12 104.387 Q1159.8 101.436 1162.49 100.018 Q1165.18 98.5715 1169.03 98.5715 Q1169.58 98.5715 1170.24 98.6583 Q1170.91 98.7162 1171.72 98.8609 L1171.75 104.33 Z" fill="#000000" fill-rule="nonzero" fill-opacity="1" /><path clip-path="url(#clip810)" d="M1177.33 99.3528 L1182.65 99.3528 L1182.65 131.76 L1177.33 131.76 L1177.33 99.3528 M1177.33 86.7371 L1182.65 86.7371 L1182.65 93.479 L1177.33 93.479 L1177.33 86.7371 Z" fill="#000000" fill-rule="nonzero" fill-opacity="1" /><path clip-path="url(#clip810)" d="M1217.12 100.597 L1217.12 105.574 Q1214.86 104.33 1212.57 103.722 Q1210.32 103.085 1208 103.085 Q1202.82 103.085 1199.96 106.384 Q1197.09 109.654 1197.09 115.585 Q1197.09 121.517 1199.96 124.816 Q1202.82 128.085 1208 128.085 Q1210.32 128.085 1212.57 127.478 Q1214.86 126.841 1217.12 125.597 L1217.12 130.516 Q1214.89 131.557 1212.49 132.078 Q1210.11 132.599 1207.42 132.599 Q1200.1 132.599 1195.79 127.998 Q1191.48 123.398 1191.48 115.585 Q1191.48 107.657 1195.82 103.114 Q1200.19 98.5715 1207.77 98.5715 Q1210.23 98.5715 1212.57 99.0924 Q1214.92 99.5842 1217.12 100.597 Z" fill="#000000" fill-rule="nonzero" fill-opacity="1" /><path clip-path="url(#clip810)" d="M1241.1 115.47 Q1234.65 115.47 1232.16 116.945 Q1229.67 118.421 1229.67 121.98 Q1229.67 124.816 1231.53 126.494 Q1233.41 128.143 1236.62 128.143 Q1241.05 128.143 1243.71 125.018 Q1246.4 121.864 1246.4 116.656 L1246.4 115.47 L1241.1 115.47 M1251.72 113.271 L1251.72 131.76 L1246.4 131.76 L1246.4 126.841 Q1244.58 129.792 1241.86 131.21 Q1239.14 132.599 1235.2 132.599 Q1230.22 132.599 1227.27 129.821 Q1224.35 127.015 1224.35 122.327 Q1224.35 116.858 1228 114.081 Q1231.67 111.303 1238.93 111.303 L1246.4 111.303 L1246.4 110.782 Q1246.4 107.107 1243.97 105.111 Q1241.57 103.085 1237.2 103.085 Q1234.42 103.085 1231.79 103.751 Q1229.15 104.416 1226.72 105.747 L1226.72 100.828 Q1229.64 99.7 1232.39 99.1502 Q1235.14 98.5715 1237.75 98.5715 Q1244.78 98.5715 1248.25 102.217 Q1251.72 105.863 1251.72 113.271 Z" fill="#000000" fill-rule="nonzero" fill-opacity="1" /><path clip-path="url(#clip810)" d="M1262.69 86.7371 L1268.01 86.7371 L1268.01 131.76 L1262.69 131.76 L1262.69 86.7371 Z" fill="#000000" fill-rule="nonzero" fill-opacity="1" /><path clip-path="url(#clip810)" d="M1303.78 141.598 L1303.78 145.736 L1272.99 145.736 L1272.99 141.598 L1303.78 141.598 Z" fill="#000000" fill-rule="nonzero" fill-opacity="1" /><path clip-path="url(#clip810)" d="M1335.72 112.2 L1335.72 131.76 L1330.4 131.76 L1330.4 112.374 Q1330.4 107.773 1328.6 105.487 Q1326.81 103.201 1323.22 103.201 Q1318.91 103.201 1316.42 105.95 Q1313.93 108.699 1313.93 113.444 L1313.93 131.76 L1308.58 131.76 L1308.58 86.7371 L1313.93 86.7371 L1313.93 104.387 Q1315.84 101.465 1318.42 100.018 Q1321.02 98.5715 1324.41 98.5715 Q1329.99 98.5715 1332.86 102.044 Q1335.72 105.487 1335.72 112.2 Z" fill="#000000" fill-rule="nonzero" fill-opacity="1" /><path clip-path="url(#clip810)" d="M1361.07 115.47 Q1354.62 115.47 1352.13 116.945 Q1349.64 118.421 1349.64 121.98 Q1349.64 124.816 1351.49 126.494 Q1353.37 128.143 1356.58 128.143 Q1361.01 128.143 1363.67 125.018 Q1366.36 121.864 1366.36 116.656 L1366.36 115.47 L1361.07 115.47 M1371.69 113.271 L1371.69 131.76 L1366.36 131.76 L1366.36 126.841 Q1364.54 129.792 1361.82 131.21 Q1359.1 132.599 1355.16 132.599 Q1350.19 132.599 1347.24 129.821 Q1344.31 127.015 1344.31 122.327 Q1344.31 116.858 1347.96 114.081 Q1351.63 111.303 1358.9 111.303 L1366.36 111.303 L1366.36 110.782 Q1366.36 107.107 1363.93 105.111 Q1361.53 103.085 1357.16 103.085 Q1354.38 103.085 1351.75 103.751 Q1349.12 104.416 1346.69 105.747 L1346.69 100.828 Q1349.61 99.7 1352.36 99.1502 Q1355.11 98.5715 1357.71 98.5715 Q1364.74 98.5715 1368.21 102.217 Q1371.69 105.863 1371.69 113.271 Z" fill="#000000" fill-rule="nonzero" fill-opacity="1" /><path clip-path="url(#clip810)" d="M1401.43 104.33 Q1400.54 103.809 1399.46 103.577 Q1398.42 103.317 1397.15 103.317 Q1392.64 103.317 1390.21 106.268 Q1387.8 109.191 1387.8 114.688 L1387.8 131.76 L1382.45 131.76 L1382.45 99.3528 L1387.8 99.3528 L1387.8 104.387 Q1389.48 101.436 1392.17 100.018 Q1394.86 98.5715 1398.71 98.5715 Q1399.26 98.5715 1399.93 98.6583 Q1400.59 98.7162 1401.4 98.8609 L1401.43 104.33 Z" fill="#000000" fill-rule="nonzero" fill-opacity="1" /><path clip-path="url(#clip810)" d="M1431.21 105.574 Q1433.2 101.986 1435.98 100.279 Q1438.76 98.5715 1442.52 98.5715 Q1447.58 98.5715 1450.33 102.131 Q1453.08 105.661 1453.08 112.2 L1453.08 131.76 L1447.73 131.76 L1447.73 112.374 Q1447.73 107.715 1446.08 105.458 Q1444.43 103.201 1441.04 103.201 Q1436.91 103.201 1434.5 105.95 Q1432.1 108.699 1432.1 113.444 L1432.1 131.76 L1426.75 131.76 L1426.75 112.374 Q1426.75 107.686 1425.1 105.458 Q1423.45 103.201 1420.01 103.201 Q1415.93 103.201 1413.53 105.979 Q1411.13 108.728 1411.13 113.444 L1411.13 131.76 L1405.77 131.76 L1405.77 99.3528 L1411.13 99.3528 L1411.13 104.387 Q1412.95 101.407 1415.49 99.9893 Q1418.04 98.5715 1421.54 98.5715 Q1425.07 98.5715 1427.53 100.365 Q1430.02 102.159 1431.21 105.574 Z" fill="#000000" fill-rule="nonzero" fill-opacity="1" /><path clip-path="url(#clip810)" d="M1476.26 103.085 Q1471.98 103.085 1469.49 106.442 Q1467 109.769 1467 115.585 Q1467 121.401 1469.46 124.758 Q1471.95 128.085 1476.26 128.085 Q1480.51 128.085 1483 124.729 Q1485.49 121.372 1485.49 115.585 Q1485.49 109.827 1483 106.471 Q1480.51 103.085 1476.26 103.085 M1476.26 98.5715 Q1483.2 98.5715 1487.17 103.085 Q1491.13 107.599 1491.13 115.585 Q1491.13 123.542 1487.17 128.085 Q1483.2 132.599 1476.26 132.599 Q1469.28 132.599 1465.32 128.085 Q1461.39 123.542 1461.39 115.585 Q1461.39 107.599 1465.32 103.085 Q1469.28 98.5715 1476.26 98.5715 Z" fill="#000000" fill-rule="nonzero" fill-opacity="1" /><path clip-path="url(#clip810)" d="M1526.89 112.2 L1526.89 131.76 L1521.57 131.76 L1521.57 112.374 Q1521.57 107.773 1519.78 105.487 Q1517.98 103.201 1514.39 103.201 Q1510.08 103.201 1507.59 105.95 Q1505.11 108.699 1505.11 113.444 L1505.11 131.76 L1499.75 131.76 L1499.75 99.3528 L1505.11 99.3528 L1505.11 104.387 Q1507.02 101.465 1509.59 100.018 Q1512.2 98.5715 1515.58 98.5715 Q1521.17 98.5715 1524.03 102.044 Q1526.89 105.487 1526.89 112.2 Z" fill="#000000" fill-rule="nonzero" fill-opacity="1" /><path clip-path="url(#clip810)" d="M1537.51 99.3528 L1542.84 99.3528 L1542.84 131.76 L1537.51 131.76 L1537.51 99.3528 M1537.51 86.7371 L1542.84 86.7371 L1542.84 93.479 L1537.51 93.479 L1537.51 86.7371 Z" fill="#000000" fill-rule="nonzero" fill-opacity="1" /><path clip-path="url(#clip810)" d="M1577.3 100.597 L1577.3 105.574 Q1575.04 104.33 1572.76 103.722 Q1570.5 103.085 1568.18 103.085 Q1563.01 103.085 1560.14 106.384 Q1557.28 109.654 1557.28 115.585 Q1557.28 121.517 1560.14 124.816 Q1563.01 128.085 1568.18 128.085 Q1570.5 128.085 1572.76 127.478 Q1575.04 126.841 1577.3 125.597 L1577.3 130.516 Q1575.07 131.557 1572.67 132.078 Q1570.3 132.599 1567.61 132.599 Q1560.29 132.599 1555.97 127.998 Q1551.66 123.398 1551.66 115.585 Q1551.66 107.657 1556 103.114 Q1560.37 98.5715 1567.95 98.5715 Q1570.41 98.5715 1572.76 99.0924 Q1575.1 99.5842 1577.3 100.597 Z" fill="#000000" fill-rule="nonzero" fill-opacity="1" /><path clip-path="url(#clip810)" d="M1607.22 100.308 L1607.22 105.342 Q1604.96 104.185 1602.53 103.606 Q1600.1 103.028 1597.5 103.028 Q1593.53 103.028 1591.54 104.243 Q1589.57 105.458 1589.57 107.889 Q1589.57 109.74 1590.99 110.811 Q1592.4 111.853 1596.69 112.808 L1598.51 113.213 Q1604.18 114.428 1606.55 116.656 Q1608.95 118.855 1608.95 122.819 Q1608.95 127.333 1605.37 129.966 Q1601.81 132.599 1595.56 132.599 Q1592.95 132.599 1590.12 132.078 Q1587.31 131.586 1584.19 130.574 L1584.19 125.076 Q1587.14 126.61 1590 127.391 Q1592.87 128.143 1595.67 128.143 Q1599.43 128.143 1601.46 126.87 Q1603.49 125.568 1603.49 123.224 Q1603.49 121.054 1602.01 119.897 Q1600.56 118.739 1595.61 117.669 L1593.76 117.235 Q1588.82 116.193 1586.62 114.052 Q1584.42 111.882 1584.42 108.12 Q1584.42 103.548 1587.66 101.06 Q1590.9 98.5715 1596.86 98.5715 Q1599.81 98.5715 1602.41 99.0055 Q1605.02 99.4396 1607.22 100.308 Z" fill="#000000" fill-rule="nonzero" fill-opacity="1" /><polyline clip-path="url(#clip812)" style="stroke:#009af9; stroke-linecap:round; stroke-linejoin:round; stroke-width:4; stroke-opacity:1; fill:none" points="323.395,1387.13 421.908,1387.02 520.42,1386.85 618.933,1386.61 717.446,1386.27 815.958,1385.81 914.471,1385.01 1012.98,1383.8 1111.5,1381.93 1210.01,1378.85 1308.52,1374.83 1407.03,1367.65 1505.55,1357.31 1604.06,1341.02 1702.57,1293.32 1801.08,1243.9 1899.6,1148.34 1998.11,974.209 2096.62,968.027 2195.14,717.883 2293.65,185.443 "/>
<circle clip-path="url(#clip812)" cx="323.395" cy="1387.13" r="14.4" fill="#009af9" fill-rule="evenodd" fill-opacity="1" stroke="#000000" stroke-opacity="1" stroke-width="3.2"/>
<circle clip-path="url(#clip812)" cx="421.908" cy="1387.02" r="14.4" fill="#009af9" fill-rule="evenodd" fill-opacity="1" stroke="#000000" stroke-opacity="1" stroke-width="3.2"/>
<circle clip-path="url(#clip812)" cx="520.42" cy="1386.85" r="14.4" fill="#009af9" fill-rule="evenodd" fill-opacity="1" stroke="#000000" stroke-opacity="1" stroke-width="3.2"/>
<circle clip-path="url(#clip812)" cx="618.933" cy="1386.61" r="14.4" fill="#009af9" fill-rule="evenodd" fill-opacity="1" stroke="#000000" stroke-opacity="1" stroke-width="3.2"/>
<circle clip-path="url(#clip812)" cx="717.446" cy="1386.27" r="14.4" fill="#009af9" fill-rule="evenodd" fill-opacity="1" stroke="#000000" stroke-opacity="1" stroke-width="3.2"/>
<circle clip-path="url(#clip812)" cx="815.958" cy="1385.81" r="14.4" fill="#009af9" fill-rule="evenodd" fill-opacity="1" stroke="#000000" stroke-opacity="1" stroke-width="3.2"/>
<circle clip-path="url(#clip812)" cx="914.471" cy="1385.01" r="14.4" fill="#009af9" fill-rule="evenodd" fill-opacity="1" stroke="#000000" stroke-opacity="1" stroke-width="3.2"/>
<circle clip-path="url(#clip812)" cx="1012.98" cy="1383.8" r="14.4" fill="#009af9" fill-rule="evenodd" fill-opacity="1" stroke="#000000" stroke-opacity="1" stroke-width="3.2"/>
<circle clip-path="url(#clip812)" cx="1111.5" cy="1381.93" r="14.4" fill="#009af9" fill-rule="evenodd" fill-opacity="1" stroke="#000000" stroke-opacity="1" stroke-width="3.2"/>
<circle clip-path="url(#clip812)" cx="1210.01" cy="1378.85" r="14.4" fill="#009af9" fill-rule="evenodd" fill-opacity="1" stroke="#000000" stroke-opacity="1" stroke-width="3.2"/>
<circle clip-path="url(#clip812)" cx="1308.52" cy="1374.83" r="14.4" fill="#009af9" fill-rule="evenodd" fill-opacity="1" stroke="#000000" stroke-opacity="1" stroke-width="3.2"/>
<circle clip-path="url(#clip812)" cx="1407.03" cy="1367.65" r="14.4" fill="#009af9" fill-rule="evenodd" fill-opacity="1" stroke="#000000" stroke-opacity="1" stroke-width="3.2"/>
<circle clip-path="url(#clip812)" cx="1505.55" cy="1357.31" r="14.4" fill="#009af9" fill-rule="evenodd" fill-opacity="1" stroke="#000000" stroke-opacity="1" stroke-width="3.2"/>
<circle clip-path="url(#clip812)" cx="1604.06" cy="1341.02" r="14.4" fill="#009af9" fill-rule="evenodd" fill-opacity="1" stroke="#000000" stroke-opacity="1" stroke-width="3.2"/>
<circle clip-path="url(#clip812)" cx="1702.57" cy="1293.32" r="14.4" fill="#009af9" fill-rule="evenodd" fill-opacity="1" stroke="#000000" stroke-opacity="1" stroke-width="3.2"/>
<circle clip-path="url(#clip812)" cx="1801.08" cy="1243.9" r="14.4" fill="#009af9" fill-rule="evenodd" fill-opacity="1" stroke="#000000" stroke-opacity="1" stroke-width="3.2"/>
<circle clip-path="url(#clip812)" cx="1899.6" cy="1148.34" r="14.4" fill="#009af9" fill-rule="evenodd" fill-opacity="1" stroke="#000000" stroke-opacity="1" stroke-width="3.2"/>
<circle clip-path="url(#clip812)" cx="1998.11" cy="974.209" r="14.4" fill="#009af9" fill-rule="evenodd" fill-opacity="1" stroke="#000000" stroke-opacity="1" stroke-width="3.2"/>
<circle clip-path="url(#clip812)" cx="2096.62" cy="968.027" r="14.4" fill="#009af9" fill-rule="evenodd" fill-opacity="1" stroke="#000000" stroke-opacity="1" stroke-width="3.2"/>
<circle clip-path="url(#clip812)" cx="2195.14" cy="717.883" r="14.4" fill="#009af9" fill-rule="evenodd" fill-opacity="1" stroke="#000000" stroke-opacity="1" stroke-width="3.2"/>
<circle clip-path="url(#clip812)" cx="2293.65" cy="185.443" r="14.4" fill="#009af9" fill-rule="evenodd" fill-opacity="1" stroke="#000000" stroke-opacity="1" stroke-width="3.2"/>
</svg>
