<?xml version="1.0" encoding="utf-8"?>
<svg xmlns="http://www.w3.org/2000/svg" xmlns:xlink="http://www.w3.org/1999/xlink" width="600" height="400" viewBox="0 0 2400 1600">
<defs>
  <clipPath id="clip770">
    <rect x="0" y="0" width="2400" height="1600"/>
  </clipPath>
</defs>
<path clip-path="url(#clip770)" d="M0 1600 L2400 1600 L2400 0 L0 0  Z" fill="#ffffff" fill-rule="evenodd" fill-opacity="1"/>
<defs>
  <clipPath id="clip771">
    <rect x="480" y="0" width="1681" height="1600"/>
  </clipPath>
</defs>
<path clip-path="url(#clip770)" d="M264.287 1423.18 L2352.76 1423.18 L2352.76 149.392 L264.287 149.392  Z" fill="#ffffff" fill-rule="evenodd" fill-opacity="1"/>
<defs>
  <clipPath id="clip772">
    <rect x="264" y="149" width="2089" height="1275"/>
  </clipPath>
</defs>
<polyline clip-path="url(#clip772)" style="stroke:#000000; stroke-linecap:round; stroke-linejoin:round; stroke-width:2; stroke-opacity:0.1; fill:none" points="454.745,1423.18 454.745,149.392 "/>
<polyline clip-path="url(#clip772)" style="stroke:#000000; stroke-linecap:round; stroke-linejoin:round; stroke-width:2; stroke-opacity:0.1; fill:none" points="848.796,1423.18 848.796,149.392 "/>
<polyline clip-path="url(#clip772)" style="stroke:#000000; stroke-linecap:round; stroke-linejoin:round; stroke-width:2; stroke-opacity:0.1; fill:none" points="1242.85,1423.18 1242.85,149.392 "/>
<polyline clip-path="url(#clip772)" style="stroke:#000000; stroke-linecap:round; stroke-linejoin:round; stroke-width:2; stroke-opacity:0.1; fill:none" points="1636.9,1423.18 1636.9,149.392 "/>
<polyline clip-path="url(#clip772)" style="stroke:#000000; stroke-linecap:round; stroke-linejoin:round; stroke-width:2; stroke-opacity:0.1; fill:none" points="2030.95,1423.18 2030.95,149.392 "/>
<polyline clip-path="url(#clip770)" style="stroke:#000000; stroke-linecap:round; stroke-linejoin:round; stroke-width:4; stroke-opacity:1; fill:none" points="264.287,1423.18 2352.76,1423.18 "/>
<polyline clip-path="url(#clip770)" style="stroke:#000000; stroke-linecap:round; stroke-linejoin:round; stroke-width:4; stroke-opacity:1; fill:none" points="454.745,1423.18 454.745,1404.28 "/>
<polyline clip-path="url(#clip770)" style="stroke:#000000; stroke-linecap:round; stroke-linejoin:round; stroke-width:4; stroke-opacity:1; fill:none" points="848.796,1423.18 848.796,1404.28 "/>
<polyline clip-path="url(#clip770)" style="stroke:#000000; stroke-linecap:round; stroke-linejoin:round; stroke-width:4; stroke-opacity:1; fill:none" points="1242.85,1423.18 1242.85,1404.28 "/>
<polyline clip-path="url(#clip770)" style="stroke:#000000; stroke-linecap:round; stroke-linejoin:round; stroke-width:4; stroke-opacity:1; fill:none" points="1636.9,1423.18 1636.9,1404.28 "/>
<polyline clip-path="url(#clip770)" style="stroke:#000000; stroke-linecap:round; stroke-linejoin:round; stroke-width:4; stroke-opacity:1; fill:none" points="2030.95,1423.18 2030.95,1404.28 "/>
<path clip-path="url(#clip770)" d="M455.15 1466.44 Q452.002 1466.44 450.15 1468.59 Q448.322 1470.74 448.322 1474.49 Q448.322 1478.22 450.15 1480.39 Q452.002 1482.55 455.15 1482.55 Q458.298 1482.55 460.127 1480.39 Q461.979 1478.22 461.979 1474.49 Q461.979 1470.74 460.127 1468.59 Q458.298 1466.44 455.15 1466.44 M464.433 1451.78 L464.433 1456.04 Q462.673 1455.21 460.868 1454.77 Q459.085 1454.33 457.326 1454.33 Q452.697 1454.33 450.243 1457.45 Q447.812 1460.58 447.465 1466.9 Q448.831 1464.89 450.891 1463.82 Q452.951 1462.73 455.428 1462.73 Q460.636 1462.73 463.646 1465.9 Q466.678 1469.05 466.678 1474.49 Q466.678 1479.82 463.53 1483.03 Q460.382 1486.25 455.15 1486.25 Q449.155 1486.25 445.984 1481.67 Q442.812 1477.06 442.812 1468.33 Q442.812 1460.14 446.701 1455.28 Q450.59 1450.39 457.141 1450.39 Q458.9 1450.39 460.683 1450.74 Q462.488 1451.09 464.433 1451.78 Z" fill="#000000" fill-rule="nonzero" fill-opacity="1" /><path clip-path="url(#clip770)" d="M839.097 1484.86 L839.097 1480.6 Q840.856 1481.44 842.662 1481.88 Q844.467 1482.32 846.203 1482.32 Q850.833 1482.32 853.263 1479.21 Q855.717 1476.09 856.064 1469.75 Q854.722 1471.74 852.662 1472.8 Q850.601 1473.87 848.101 1473.87 Q842.916 1473.87 839.884 1470.74 Q836.875 1467.59 836.875 1462.15 Q836.875 1456.83 840.023 1453.61 Q843.171 1450.39 848.402 1450.39 Q854.398 1450.39 857.546 1455 Q860.717 1459.58 860.717 1468.33 Q860.717 1476.51 856.828 1481.39 Q852.962 1486.25 846.412 1486.25 Q844.652 1486.25 842.847 1485.9 Q841.041 1485.56 839.097 1484.86 M848.402 1470.21 Q851.55 1470.21 853.379 1468.06 Q855.231 1465.9 855.231 1462.15 Q855.231 1458.43 853.379 1456.27 Q851.55 1454.1 848.402 1454.1 Q845.254 1454.1 843.402 1456.27 Q841.574 1458.43 841.574 1462.15 Q841.574 1465.9 843.402 1468.06 Q845.254 1470.21 848.402 1470.21 Z" fill="#000000" fill-rule="nonzero" fill-opacity="1" /><path clip-path="url(#clip770)" d="M1218.33 1481.64 L1225.97 1481.64 L1225.97 1455.28 L1217.66 1456.95 L1217.66 1452.69 L1225.93 1451.02 L1230.6 1451.02 L1230.6 1481.64 L1238.24 1481.64 L1238.24 1485.58 L1218.33 1485.58 L1218.33 1481.64 Z" fill="#000000" fill-rule="nonzero" fill-opacity="1" /><path clip-path="url(#clip770)" d="M1251.71 1481.64 L1268.03 1481.64 L1268.03 1485.58 L1246.09 1485.58 L1246.09 1481.64 Q1248.75 1478.89 1253.33 1474.26 Q1257.94 1469.61 1259.12 1468.27 Q1261.36 1465.74 1262.24 1464.01 Q1263.15 1462.25 1263.15 1460.56 Q1263.15 1457.8 1261.2 1456.07 Q1259.28 1454.33 1256.18 1454.33 Q1253.98 1454.33 1251.53 1455.09 Q1249.1 1455.86 1246.32 1457.41 L1246.32 1452.69 Q1249.14 1451.55 1251.6 1450.97 Q1254.05 1450.39 1256.09 1450.39 Q1261.46 1450.39 1264.65 1453.08 Q1267.85 1455.77 1267.85 1460.26 Q1267.85 1462.39 1267.04 1464.31 Q1266.25 1466.2 1264.14 1468.8 Q1263.56 1469.47 1260.46 1472.69 Q1257.36 1475.88 1251.71 1481.64 Z" fill="#000000" fill-rule="nonzero" fill-opacity="1" /><path clip-path="url(#clip770)" d="M1612.08 1481.64 L1619.72 1481.64 L1619.72 1455.28 L1611.41 1456.95 L1611.41 1452.69 L1619.68 1451.02 L1624.35 1451.02 L1624.35 1481.64 L1631.99 1481.64 L1631.99 1485.58 L1612.08 1485.58 L1612.08 1481.64 Z" fill="#000000" fill-rule="nonzero" fill-opacity="1" /><path clip-path="url(#clip770)" d="M1641.48 1451.02 L1659.84 1451.02 L1659.84 1454.96 L1645.76 1454.96 L1645.76 1463.43 Q1646.78 1463.08 1647.8 1462.92 Q1648.82 1462.73 1649.84 1462.73 Q1655.62 1462.73 1659 1465.9 Q1662.38 1469.08 1662.38 1474.49 Q1662.38 1480.07 1658.91 1483.17 Q1655.44 1486.25 1649.12 1486.25 Q1646.94 1486.25 1644.67 1485.88 Q1642.43 1485.51 1640.02 1484.77 L1640.02 1480.07 Q1642.11 1481.2 1644.33 1481.76 Q1646.55 1482.32 1649.03 1482.32 Q1653.03 1482.32 1655.37 1480.21 Q1657.71 1478.1 1657.71 1474.49 Q1657.71 1470.88 1655.37 1468.77 Q1653.03 1466.67 1649.03 1466.67 Q1647.15 1466.67 1645.28 1467.08 Q1643.42 1467.5 1641.48 1468.38 L1641.48 1451.02 Z" fill="#000000" fill-rule="nonzero" fill-opacity="1" /><path clip-path="url(#clip770)" d="M2005.68 1481.64 L2013.32 1481.64 L2013.32 1455.28 L2005.01 1456.95 L2005.01 1452.69 L2013.27 1451.02 L2017.95 1451.02 L2017.95 1481.64 L2025.59 1481.64 L2025.59 1485.58 L2005.68 1485.58 L2005.68 1481.64 Z" fill="#000000" fill-rule="nonzero" fill-opacity="1" /><path clip-path="url(#clip770)" d="M2045.03 1469.17 Q2041.7 1469.17 2039.78 1470.95 Q2037.88 1472.73 2037.88 1475.86 Q2037.88 1478.98 2039.78 1480.77 Q2041.7 1482.55 2045.03 1482.55 Q2048.37 1482.55 2050.29 1480.77 Q2052.21 1478.96 2052.21 1475.86 Q2052.21 1472.73 2050.29 1470.95 Q2048.39 1469.17 2045.03 1469.17 M2040.36 1467.18 Q2037.35 1466.44 2035.66 1464.38 Q2033.99 1462.32 2033.99 1459.35 Q2033.99 1455.21 2036.93 1452.8 Q2039.89 1450.39 2045.03 1450.39 Q2050.2 1450.39 2053.14 1452.8 Q2056.08 1455.21 2056.08 1459.35 Q2056.08 1462.32 2054.39 1464.38 Q2052.72 1466.44 2049.73 1467.18 Q2053.11 1467.96 2054.99 1470.26 Q2056.89 1472.55 2056.89 1475.86 Q2056.89 1480.88 2053.81 1483.57 Q2050.75 1486.25 2045.03 1486.25 Q2039.32 1486.25 2036.24 1483.57 Q2033.18 1480.88 2033.18 1475.86 Q2033.18 1472.55 2035.08 1470.26 Q2036.98 1467.96 2040.36 1467.18 M2038.64 1459.79 Q2038.64 1462.48 2040.31 1463.98 Q2042 1465.49 2045.03 1465.49 Q2048.04 1465.49 2049.73 1463.98 Q2051.45 1462.48 2051.45 1459.79 Q2051.45 1457.11 2049.73 1455.6 Q2048.04 1454.1 2045.03 1454.1 Q2042 1454.1 2040.31 1455.6 Q2038.64 1457.11 2038.64 1459.79 Z" fill="#000000" fill-rule="nonzero" fill-opacity="1" /><path clip-path="url(#clip770)" d="M1065.67 1533.76 L1065.67 1539.24 Q1063.19 1537.87 1060.67 1537.2 Q1058.19 1536.5 1055.64 1536.5 Q1049.95 1536.5 1046.8 1540.13 Q1043.64 1543.73 1043.64 1550.25 Q1043.64 1556.78 1046.8 1560.4 Q1049.95 1564 1055.64 1564 Q1058.19 1564 1060.67 1563.33 Q1063.19 1562.63 1065.67 1561.26 L1065.67 1566.68 Q1063.22 1567.82 1060.58 1568.39 Q1057.97 1568.97 1055.01 1568.97 Q1046.95 1568.97 1042.21 1563.91 Q1037.47 1558.85 1037.47 1550.25 Q1037.47 1541.53 1042.24 1536.53 Q1047.05 1531.54 1055.39 1531.54 Q1058.09 1531.54 1060.67 1532.11 Q1063.25 1532.65 1065.67 1533.76 Z" fill="#000000" fill-rule="nonzero" fill-opacity="1" /><path clip-path="url(#clip770)" d="M1105.49 1546.53 L1105.49 1568.04 L1099.63 1568.04 L1099.63 1546.72 Q1099.63 1541.66 1097.66 1539.14 Q1095.68 1536.63 1091.74 1536.63 Q1087 1536.63 1084.26 1539.65 Q1081.52 1542.68 1081.52 1547.9 L1081.52 1568.04 L1075.63 1568.04 L1075.63 1518.52 L1081.52 1518.52 L1081.52 1537.93 Q1083.62 1534.72 1086.45 1533.13 Q1089.32 1531.54 1093.04 1531.54 Q1099.19 1531.54 1102.34 1535.36 Q1105.49 1539.14 1105.49 1546.53 Z" fill="#000000" fill-rule="nonzero" fill-opacity="1" /><path clip-path="url(#clip770)" d="M1147.66 1548.76 L1147.66 1551.62 L1120.73 1551.62 Q1121.12 1557.67 1124.36 1560.85 Q1127.64 1564 1133.46 1564 Q1136.84 1564 1139.99 1563.17 Q1143.17 1562.35 1146.29 1560.69 L1146.29 1566.23 Q1143.14 1567.57 1139.83 1568.27 Q1136.52 1568.97 1133.11 1568.97 Q1124.58 1568.97 1119.59 1564 Q1114.62 1559.04 1114.62 1550.57 Q1114.62 1541.82 1119.33 1536.69 Q1124.08 1531.54 1132.1 1531.54 Q1139.29 1531.54 1143.46 1536.18 Q1147.66 1540.8 1147.66 1548.76 M1141.8 1547.04 Q1141.74 1542.23 1139.1 1539.37 Q1136.49 1536.5 1132.16 1536.5 Q1127.26 1536.5 1124.3 1539.27 Q1121.37 1542.04 1120.92 1547.07 L1141.8 1547.04 Z" fill="#000000" fill-rule="nonzero" fill-opacity="1" /><path clip-path="url(#clip770)" d="M1182.86 1550.25 Q1182.86 1543.79 1180.19 1540.13 Q1177.55 1536.44 1172.9 1536.44 Q1168.25 1536.44 1165.58 1540.13 Q1162.94 1543.79 1162.94 1550.25 Q1162.94 1556.71 1165.58 1560.4 Q1168.25 1564.07 1172.9 1564.07 Q1177.55 1564.07 1180.19 1560.4 Q1182.86 1556.71 1182.86 1550.25 M1162.94 1537.81 Q1164.78 1534.62 1167.58 1533.1 Q1170.42 1531.54 1174.33 1531.54 Q1180.83 1531.54 1184.87 1536.69 Q1188.94 1541.85 1188.94 1550.25 Q1188.94 1558.65 1184.87 1563.81 Q1180.83 1568.97 1174.33 1568.97 Q1170.42 1568.97 1167.58 1567.44 Q1164.78 1565.88 1162.94 1562.7 L1162.94 1568.04 L1157.05 1568.04 L1157.05 1518.52 L1162.94 1518.52 L1162.94 1537.81 Z" fill="#000000" fill-rule="nonzero" fill-opacity="1" /><path clip-path="url(#clip770)" d="M1213.48 1571.35 Q1211 1577.72 1208.64 1579.66 Q1206.29 1581.6 1202.34 1581.6 L1197.66 1581.6 L1197.66 1576.7 L1201.1 1576.7 Q1203.52 1576.7 1204.86 1575.56 Q1206.19 1574.41 1207.82 1570.14 L1208.87 1567.47 L1194.45 1532.4 L1200.65 1532.4 L1211.79 1560.28 L1222.93 1532.4 L1229.14 1532.4 L1213.48 1571.35 Z" fill="#000000" fill-rule="nonzero" fill-opacity="1" /><path clip-path="url(#clip770)" d="M1259.95 1533.45 L1259.95 1538.98 Q1257.47 1537.71 1254.8 1537.07 Q1252.12 1536.44 1249.26 1536.44 Q1244.9 1536.44 1242.7 1537.77 Q1240.54 1539.11 1240.54 1541.79 Q1240.54 1543.82 1242.1 1545 Q1243.66 1546.15 1248.37 1547.2 L1250.37 1547.64 Q1256.61 1548.98 1259.22 1551.43 Q1261.86 1553.85 1261.86 1558.21 Q1261.86 1563.17 1257.91 1566.07 Q1254 1568.97 1247.12 1568.97 Q1244.26 1568.97 1241.14 1568.39 Q1238.05 1567.85 1234.62 1566.74 L1234.62 1560.69 Q1237.86 1562.38 1241.01 1563.24 Q1244.16 1564.07 1247.25 1564.07 Q1251.39 1564.07 1253.62 1562.66 Q1255.85 1561.23 1255.85 1558.65 Q1255.85 1556.27 1254.22 1554.99 Q1252.63 1553.72 1247.19 1552.54 L1245.15 1552.07 Q1239.71 1550.92 1237.29 1548.56 Q1234.87 1546.18 1234.87 1542.04 Q1234.87 1537.01 1238.44 1534.27 Q1242 1531.54 1248.56 1531.54 Q1251.8 1531.54 1254.67 1532.01 Q1257.53 1532.49 1259.95 1533.45 Z" fill="#000000" fill-rule="nonzero" fill-opacity="1" /><path clip-path="url(#clip770)" d="M1300.82 1546.53 L1300.82 1568.04 L1294.96 1568.04 L1294.96 1546.72 Q1294.96 1541.66 1292.99 1539.14 Q1291.02 1536.63 1287.07 1536.63 Q1282.33 1536.63 1279.59 1539.65 Q1276.85 1542.68 1276.85 1547.9 L1276.85 1568.04 L1270.96 1568.04 L1270.96 1518.52 L1276.85 1518.52 L1276.85 1537.93 Q1278.95 1534.72 1281.79 1533.13 Q1284.65 1531.54 1288.37 1531.54 Q1294.52 1531.54 1297.67 1535.36 Q1300.82 1539.14 1300.82 1546.53 Z" fill="#000000" fill-rule="nonzero" fill-opacity="1" /><path clip-path="url(#clip770)" d="M1342.99 1548.76 L1342.99 1551.62 L1316.06 1551.62 Q1316.45 1557.67 1319.69 1560.85 Q1322.97 1564 1328.8 1564 Q1332.17 1564 1335.32 1563.17 Q1338.5 1562.35 1341.62 1560.69 L1341.62 1566.23 Q1338.47 1567.57 1335.16 1568.27 Q1331.85 1568.97 1328.45 1568.97 Q1319.92 1568.97 1314.92 1564 Q1309.95 1559.04 1309.95 1550.57 Q1309.95 1541.82 1314.66 1536.69 Q1319.41 1531.54 1327.43 1531.54 Q1334.62 1531.54 1338.79 1536.18 Q1342.99 1540.8 1342.99 1548.76 M1337.14 1547.04 Q1337.07 1542.23 1334.43 1539.37 Q1331.82 1536.5 1327.49 1536.5 Q1322.59 1536.5 1319.63 1539.27 Q1316.7 1542.04 1316.26 1547.07 L1337.14 1547.04 Z" fill="#000000" fill-rule="nonzero" fill-opacity="1" /><path clip-path="url(#clip770)" d="M1348.4 1532.4 L1354.61 1532.4 L1365.75 1562.31 L1376.89 1532.4 L1383.1 1532.4 L1369.73 1568.04 L1361.77 1568.04 L1348.4 1532.4 Z" fill="#000000" fill-rule="nonzero" fill-opacity="1" /><path clip-path="url(#clip770)" d="M1425.71 1536.5 Q1421 1536.5 1418.27 1540.19 Q1415.53 1543.85 1415.53 1550.25 Q1415.53 1556.65 1418.23 1560.34 Q1420.97 1564 1425.71 1564 Q1430.39 1564 1433.13 1560.31 Q1435.87 1556.62 1435.87 1550.25 Q1435.87 1543.92 1433.13 1540.23 Q1430.39 1536.5 1425.71 1536.5 M1425.71 1531.54 Q1433.35 1531.54 1437.71 1536.5 Q1442.07 1541.47 1442.07 1550.25 Q1442.07 1559 1437.71 1564 Q1433.35 1568.97 1425.71 1568.97 Q1418.04 1568.97 1413.68 1564 Q1409.35 1559 1409.35 1550.25 Q1409.35 1541.47 1413.68 1536.5 Q1418.04 1531.54 1425.71 1531.54 Z" fill="#000000" fill-rule="nonzero" fill-opacity="1" /><path clip-path="url(#clip770)" d="M1472.44 1537.87 Q1471.45 1537.3 1470.27 1537.04 Q1469.13 1536.76 1467.73 1536.76 Q1462.76 1536.76 1460.09 1540 Q1457.45 1543.22 1457.45 1549.27 L1457.45 1568.04 L1451.56 1568.04 L1451.56 1532.4 L1457.45 1532.4 L1457.45 1537.93 Q1459.29 1534.69 1462.25 1533.13 Q1465.21 1531.54 1469.45 1531.54 Q1470.05 1531.54 1470.78 1531.63 Q1471.52 1531.7 1472.41 1531.85 L1472.44 1537.87 Z" fill="#000000" fill-rule="nonzero" fill-opacity="1" /><path clip-path="url(#clip770)" d="M1500.89 1537.81 L1500.89 1518.52 L1506.75 1518.52 L1506.75 1568.04 L1500.89 1568.04 L1500.89 1562.7 Q1499.05 1565.88 1496.21 1567.44 Q1493.41 1568.97 1489.47 1568.97 Q1483.01 1568.97 1478.93 1563.81 Q1474.89 1558.65 1474.89 1550.25 Q1474.89 1541.85 1478.93 1536.69 Q1483.01 1531.54 1489.47 1531.54 Q1493.41 1531.54 1496.21 1533.1 Q1499.05 1534.62 1500.89 1537.81 M1480.94 1550.25 Q1480.94 1556.71 1483.58 1560.4 Q1486.25 1564.07 1490.9 1564.07 Q1495.55 1564.07 1498.22 1560.4 Q1500.89 1556.71 1500.89 1550.25 Q1500.89 1543.79 1498.22 1540.13 Q1495.55 1536.44 1490.9 1536.44 Q1486.25 1536.44 1483.58 1540.13 Q1480.94 1543.79 1480.94 1550.25 Z" fill="#000000" fill-rule="nonzero" fill-opacity="1" /><path clip-path="url(#clip770)" d="M1549.3 1548.76 L1549.3 1551.62 L1522.38 1551.62 Q1522.76 1557.67 1526.01 1560.85 Q1529.28 1564 1535.11 1564 Q1538.48 1564 1541.63 1563.17 Q1544.82 1562.35 1547.94 1560.69 L1547.94 1566.23 Q1544.78 1567.57 1541.47 1568.27 Q1538.16 1568.97 1534.76 1568.97 Q1526.23 1568.97 1521.23 1564 Q1516.27 1559.04 1516.27 1550.57 Q1516.27 1541.82 1520.98 1536.69 Q1525.72 1531.54 1533.74 1531.54 Q1540.93 1531.54 1545.1 1536.18 Q1549.3 1540.8 1549.3 1548.76 M1543.45 1547.04 Q1543.38 1542.23 1540.74 1539.37 Q1538.13 1536.5 1533.8 1536.5 Q1528.9 1536.5 1525.94 1539.27 Q1523.01 1542.04 1522.57 1547.07 L1543.45 1547.04 Z" fill="#000000" fill-rule="nonzero" fill-opacity="1" /><path clip-path="url(#clip770)" d="M1579.57 1537.87 Q1578.59 1537.3 1577.41 1537.04 Q1576.26 1536.76 1574.86 1536.76 Q1569.9 1536.76 1567.22 1540 Q1564.58 1543.22 1564.58 1549.27 L1564.58 1568.04 L1558.69 1568.04 L1558.69 1532.4 L1564.58 1532.4 L1564.58 1537.93 Q1566.43 1534.69 1569.39 1533.13 Q1572.35 1531.54 1576.58 1531.54 Q1577.19 1531.54 1577.92 1531.63 Q1578.65 1531.7 1579.54 1531.85 L1579.57 1537.87 Z" fill="#000000" fill-rule="nonzero" fill-opacity="1" /><polyline clip-path="url(#clip772)" style="stroke:#000000; stroke-linecap:round; stroke-linejoin:round; stroke-width:2; stroke-opacity:0.1; fill:none" points="264.287,1387.59 2352.76,1387.59 "/>
<polyline clip-path="url(#clip772)" style="stroke:#000000; stroke-linecap:round; stroke-linejoin:round; stroke-width:2; stroke-opacity:0.1; fill:none" points="264.287,1109.76 2352.76,1109.76 "/>
<polyline clip-path="url(#clip772)" style="stroke:#000000; stroke-linecap:round; stroke-linejoin:round; stroke-width:2; stroke-opacity:0.1; fill:none" points="264.287,831.935 2352.76,831.935 "/>
<polyline clip-path="url(#clip772)" style="stroke:#000000; stroke-linecap:round; stroke-linejoin:round; stroke-width:2; stroke-opacity:0.1; fill:none" points="264.287,554.107 2352.76,554.107 "/>
<polyline clip-path="url(#clip772)" style="stroke:#000000; stroke-linecap:round; stroke-linejoin:round; stroke-width:2; stroke-opacity:0.1; fill:none" points="264.287,276.279 2352.76,276.279 "/>
<polyline clip-path="url(#clip770)" style="stroke:#000000; stroke-linecap:round; stroke-linejoin:round; stroke-width:4; stroke-opacity:1; fill:none" points="264.287,1423.18 264.287,149.392 "/>
<polyline clip-path="url(#clip770)" style="stroke:#000000; stroke-linecap:round; stroke-linejoin:round; stroke-width:4; stroke-opacity:1; fill:none" points="264.287,1387.59 283.185,1387.59 "/>
<polyline clip-path="url(#clip770)" style="stroke:#000000; stroke-linecap:round; stroke-linejoin:round; stroke-width:4; stroke-opacity:1; fill:none" points="264.287,1109.76 283.185,1109.76 "/>
<polyline clip-path="url(#clip770)" style="stroke:#000000; stroke-linecap:round; stroke-linejoin:round; stroke-width:4; stroke-opacity:1; fill:none" points="264.287,831.935 283.185,831.935 "/>
<polyline clip-path="url(#clip770)" style="stroke:#000000; stroke-linecap:round; stroke-linejoin:round; stroke-width:4; stroke-opacity:1; fill:none" points="264.287,554.107 283.185,554.107 "/>
<polyline clip-path="url(#clip770)" style="stroke:#000000; stroke-linecap:round; stroke-linejoin:round; stroke-width:4; stroke-opacity:1; fill:none" points="264.287,276.279 283.185,276.279 "/>
<path clip-path="url(#clip770)" d="M216.343 1373.39 Q212.732 1373.39 210.903 1376.95 Q209.098 1380.49 209.098 1387.62 Q209.098 1394.73 210.903 1398.3 Q212.732 1401.84 216.343 1401.84 Q219.977 1401.84 221.783 1398.3 Q223.611 1394.73 223.611 1387.62 Q223.611 1380.49 221.783 1376.95 Q219.977 1373.39 216.343 1373.39 M216.343 1369.68 Q222.153 1369.68 225.209 1374.29 Q228.287 1378.87 228.287 1387.62 Q228.287 1396.35 225.209 1400.96 Q222.153 1405.54 216.343 1405.54 Q210.533 1405.54 207.454 1400.96 Q204.399 1396.35 204.399 1387.62 Q204.399 1378.87 207.454 1374.29 Q210.533 1369.68 216.343 1369.68 Z" fill="#000000" fill-rule="nonzero" fill-opacity="1" /><path clip-path="url(#clip770)" d="M146.066 1092.48 L164.422 1092.48 L164.422 1096.42 L150.348 1096.42 L150.348 1104.89 Q151.366 1104.54 152.385 1104.38 Q153.403 1104.2 154.422 1104.2 Q160.209 1104.2 163.589 1107.37 Q166.968 1110.54 166.968 1115.95 Q166.968 1121.53 163.496 1124.63 Q160.024 1127.71 153.704 1127.71 Q151.528 1127.71 149.26 1127.34 Q147.015 1126.97 144.607 1126.23 L144.607 1121.53 Q146.691 1122.67 148.913 1123.22 Q151.135 1123.78 153.612 1123.78 Q157.616 1123.78 159.954 1121.67 Q162.292 1119.57 162.292 1115.95 Q162.292 1112.34 159.954 1110.24 Q157.616 1108.13 153.612 1108.13 Q151.737 1108.13 149.862 1108.55 Q148.01 1108.96 146.066 1109.84 L146.066 1092.48 Z" fill="#000000" fill-rule="nonzero" fill-opacity="1" /><path clip-path="url(#clip770)" d="M186.181 1095.56 Q182.57 1095.56 180.741 1099.13 Q178.936 1102.67 178.936 1109.8 Q178.936 1116.9 180.741 1120.47 Q182.57 1124.01 186.181 1124.01 Q189.815 1124.01 191.621 1120.47 Q193.45 1116.9 193.45 1109.8 Q193.45 1102.67 191.621 1099.13 Q189.815 1095.56 186.181 1095.56 M186.181 1091.86 Q191.991 1091.86 195.047 1096.46 Q198.125 1101.05 198.125 1109.8 Q198.125 1118.52 195.047 1123.13 Q191.991 1127.71 186.181 1127.71 Q180.371 1127.71 177.292 1123.13 Q174.237 1118.52 174.237 1109.8 Q174.237 1101.05 177.292 1096.46 Q180.371 1091.86 186.181 1091.86 Z" fill="#000000" fill-rule="nonzero" fill-opacity="1" /><path clip-path="url(#clip770)" d="M216.343 1095.56 Q212.732 1095.56 210.903 1099.13 Q209.098 1102.67 209.098 1109.8 Q209.098 1116.9 210.903 1120.47 Q212.732 1124.01 216.343 1124.01 Q219.977 1124.01 221.783 1120.47 Q223.611 1116.9 223.611 1109.8 Q223.611 1102.67 221.783 1099.13 Q219.977 1095.56 216.343 1095.56 M216.343 1091.86 Q222.153 1091.86 225.209 1096.46 Q228.287 1101.05 228.287 1109.8 Q228.287 1118.52 225.209 1123.13 Q222.153 1127.71 216.343 1127.71 Q210.533 1127.71 207.454 1123.13 Q204.399 1118.52 204.399 1109.8 Q204.399 1101.05 207.454 1096.46 Q210.533 1091.86 216.343 1091.86 Z" fill="#000000" fill-rule="nonzero" fill-opacity="1" /><path clip-path="url(#clip770)" d="M116.668 845.279 L124.306 845.279 L124.306 818.914 L115.996 820.58 L115.996 816.321 L124.26 814.655 L128.936 814.655 L128.936 845.279 L136.575 845.279 L136.575 849.215 L116.668 849.215 L116.668 845.279 Z" fill="#000000" fill-rule="nonzero" fill-opacity="1" /><path clip-path="url(#clip770)" d="M156.019 817.733 Q152.408 817.733 150.579 821.298 Q148.774 824.84 148.774 831.969 Q148.774 839.076 150.579 842.64 Q152.408 846.182 156.019 846.182 Q159.653 846.182 161.459 842.64 Q163.288 839.076 163.288 831.969 Q163.288 824.84 161.459 821.298 Q159.653 817.733 156.019 817.733 M156.019 814.03 Q161.829 814.03 164.885 818.636 Q167.964 823.219 167.964 831.969 Q167.964 840.696 164.885 845.302 Q161.829 849.886 156.019 849.886 Q150.209 849.886 147.13 845.302 Q144.075 840.696 144.075 831.969 Q144.075 823.219 147.13 818.636 Q150.209 814.03 156.019 814.03 Z" fill="#000000" fill-rule="nonzero" fill-opacity="1" /><path clip-path="url(#clip770)" d="M186.181 817.733 Q182.57 817.733 180.741 821.298 Q178.936 824.84 178.936 831.969 Q178.936 839.076 180.741 842.64 Q182.57 846.182 186.181 846.182 Q189.815 846.182 191.621 842.64 Q193.45 839.076 193.45 831.969 Q193.45 824.84 191.621 821.298 Q189.815 817.733 186.181 817.733 M186.181 814.03 Q191.991 814.03 195.047 818.636 Q198.125 823.219 198.125 831.969 Q198.125 840.696 195.047 845.302 Q191.991 849.886 186.181 849.886 Q180.371 849.886 177.292 845.302 Q174.237 840.696 174.237 831.969 Q174.237 823.219 177.292 818.636 Q180.371 814.03 186.181 814.03 Z" fill="#000000" fill-rule="nonzero" fill-opacity="1" /><path clip-path="url(#clip770)" d="M216.343 817.733 Q212.732 817.733 210.903 821.298 Q209.098 824.84 209.098 831.969 Q209.098 839.076 210.903 842.64 Q212.732 846.182 216.343 846.182 Q219.977 846.182 221.783 842.64 Q223.611 839.076 223.611 831.969 Q223.611 824.84 221.783 821.298 Q219.977 817.733 216.343 817.733 M216.343 814.03 Q222.153 814.03 225.209 818.636 Q228.287 823.219 228.287 831.969 Q228.287 840.696 225.209 845.302 Q222.153 849.886 216.343 849.886 Q210.533 849.886 207.454 845.302 Q204.399 840.696 204.399 831.969 Q204.399 823.219 207.454 818.636 Q210.533 814.03 216.343 814.03 Z" fill="#000000" fill-rule="nonzero" fill-opacity="1" /><path clip-path="url(#clip770)" d="M116.668 567.452 L124.306 567.452 L124.306 541.086 L115.996 542.753 L115.996 538.494 L124.26 536.827 L128.936 536.827 L128.936 567.452 L136.575 567.452 L136.575 571.387 L116.668 571.387 L116.668 567.452 Z" fill="#000000" fill-rule="nonzero" fill-opacity="1" /><path clip-path="url(#clip770)" d="M146.066 536.827 L164.422 536.827 L164.422 540.762 L150.348 540.762 L150.348 549.234 Q151.366 548.887 152.385 548.725 Q153.403 548.54 154.422 548.54 Q160.209 548.54 163.589 551.711 Q166.968 554.882 166.968 560.299 Q166.968 565.878 163.496 568.979 Q160.024 572.058 153.704 572.058 Q151.528 572.058 149.26 571.688 Q147.015 571.317 144.607 570.577 L144.607 565.878 Q146.691 567.012 148.913 567.567 Q151.135 568.123 153.612 568.123 Q157.616 568.123 159.954 566.017 Q162.292 563.91 162.292 560.299 Q162.292 556.688 159.954 554.581 Q157.616 552.475 153.612 552.475 Q151.737 552.475 149.862 552.892 Q148.01 553.308 146.066 554.188 L146.066 536.827 Z" fill="#000000" fill-rule="nonzero" fill-opacity="1" /><path clip-path="url(#clip770)" d="M186.181 539.906 Q182.57 539.906 180.741 543.47 Q178.936 547.012 178.936 554.142 Q178.936 561.248 180.741 564.813 Q182.57 568.354 186.181 568.354 Q189.815 568.354 191.621 564.813 Q193.45 561.248 193.45 554.142 Q193.45 547.012 191.621 543.47 Q189.815 539.906 186.181 539.906 M186.181 536.202 Q191.991 536.202 195.047 540.808 Q198.125 545.392 198.125 554.142 Q198.125 562.868 195.047 567.475 Q191.991 572.058 186.181 572.058 Q180.371 572.058 177.292 567.475 Q174.237 562.868 174.237 554.142 Q174.237 545.392 177.292 540.808 Q180.371 536.202 186.181 536.202 Z" fill="#000000" fill-rule="nonzero" fill-opacity="1" /><path clip-path="url(#clip770)" d="M216.343 539.906 Q212.732 539.906 210.903 543.47 Q209.098 547.012 209.098 554.142 Q209.098 561.248 210.903 564.813 Q212.732 568.354 216.343 568.354 Q219.977 568.354 221.783 564.813 Q223.611 561.248 223.611 554.142 Q223.611 547.012 221.783 543.47 Q219.977 539.906 216.343 539.906 M216.343 536.202 Q222.153 536.202 225.209 540.808 Q228.287 545.392 228.287 554.142 Q228.287 562.868 225.209 567.475 Q222.153 572.058 216.343 572.058 Q210.533 572.058 207.454 567.475 Q204.399 562.868 204.399 554.142 Q204.399 545.392 207.454 540.808 Q210.533 536.202 216.343 536.202 Z" fill="#000000" fill-rule="nonzero" fill-opacity="1" /><path clip-path="url(#clip770)" d="M119.885 289.624 L136.204 289.624 L136.204 293.559 L114.26 293.559 L114.26 289.624 Q116.922 286.869 121.505 282.24 Q126.112 277.587 127.292 276.245 Q129.538 273.721 130.417 271.985 Q131.32 270.226 131.32 268.536 Q131.32 265.782 129.376 264.046 Q127.455 262.309 124.353 262.309 Q122.154 262.309 119.7 263.073 Q117.269 263.837 114.492 265.388 L114.492 260.666 Q117.316 259.532 119.769 258.953 Q122.223 258.374 124.26 258.374 Q129.63 258.374 132.825 261.059 Q136.019 263.745 136.019 268.235 Q136.019 270.365 135.209 272.286 Q134.422 274.184 132.316 276.777 Q131.737 277.448 128.635 280.666 Q125.533 283.86 119.885 289.624 Z" fill="#000000" fill-rule="nonzero" fill-opacity="1" /><path clip-path="url(#clip770)" d="M156.019 262.078 Q152.408 262.078 150.579 265.643 Q148.774 269.184 148.774 276.314 Q148.774 283.42 150.579 286.985 Q152.408 290.527 156.019 290.527 Q159.653 290.527 161.459 286.985 Q163.288 283.42 163.288 276.314 Q163.288 269.184 161.459 265.643 Q159.653 262.078 156.019 262.078 M156.019 258.374 Q161.829 258.374 164.885 262.981 Q167.964 267.564 167.964 276.314 Q167.964 285.041 164.885 289.647 Q161.829 294.231 156.019 294.231 Q150.209 294.231 147.13 289.647 Q144.075 285.041 144.075 276.314 Q144.075 267.564 147.13 262.981 Q150.209 258.374 156.019 258.374 Z" fill="#000000" fill-rule="nonzero" fill-opacity="1" /><path clip-path="url(#clip770)" d="M186.181 262.078 Q182.57 262.078 180.741 265.643 Q178.936 269.184 178.936 276.314 Q178.936 283.42 180.741 286.985 Q182.57 290.527 186.181 290.527 Q189.815 290.527 191.621 286.985 Q193.45 283.42 193.45 276.314 Q193.45 269.184 191.621 265.643 Q189.815 262.078 186.181 262.078 M186.181 258.374 Q191.991 258.374 195.047 262.981 Q198.125 267.564 198.125 276.314 Q198.125 285.041 195.047 289.647 Q191.991 294.231 186.181 294.231 Q180.371 294.231 177.292 289.647 Q174.237 285.041 174.237 276.314 Q174.237 267.564 177.292 262.981 Q180.371 258.374 186.181 258.374 Z" fill="#000000" fill-rule="nonzero" fill-opacity="1" /><path clip-path="url(#clip770)" d="M216.343 262.078 Q212.732 262.078 210.903 265.643 Q209.098 269.184 209.098 276.314 Q209.098 283.42 210.903 286.985 Q212.732 290.527 216.343 290.527 Q219.977 290.527 221.783 286.985 Q223.611 283.42 223.611 276.314 Q223.611 269.184 221.783 265.643 Q219.977 262.078 216.343 262.078 M216.343 258.374 Q222.153 258.374 225.209 262.981 Q228.287 267.564 228.287 276.314 Q228.287 285.041 225.209 289.647 Q222.153 294.231 216.343 294.231 Q210.533 294.231 207.454 289.647 Q204.399 285.041 204.399 276.314 Q204.399 267.564 207.454 262.981 Q210.533 258.374 216.343 258.374 Z" fill="#000000" fill-rule="nonzero" fill-opacity="1" /><path clip-path="url(#clip770)" d="M41.7242 842.447 Q42.4244 840.379 44.7161 838.437 Q47.0077 836.464 51.0181 834.49 L64.0042 827.965 L64.0042 834.872 L51.8138 840.951 Q47.0395 843.307 45.48 845.535 Q43.9204 847.731 43.9204 851.55 L43.9204 858.553 L64.0042 858.553 L64.0042 864.982 L16.4842 864.982 L16.4842 850.468 Q16.4842 842.32 19.8898 838.31 Q23.2955 834.299 30.1704 834.299 Q34.6582 834.299 37.6183 836.4 Q40.5784 838.469 41.7242 842.447 M21.7677 858.553 L38.6368 858.553 L38.6368 850.468 Q38.6368 845.821 36.5043 843.466 Q34.34 841.079 30.1704 841.079 Q26.0009 841.079 23.9002 843.466 Q21.7677 845.821 21.7677 850.468 L21.7677 858.553 Z" fill="#000000" fill-rule="nonzero" fill-opacity="1" /><path clip-path="url(#clip770)" d="M46.0847 805.176 Q46.0847 812.274 47.7079 815.011 Q49.3312 817.748 53.2461 817.748 Q56.3653 817.748 58.2114 815.711 Q60.0256 813.643 60.0256 810.11 Q60.0256 805.24 56.5881 802.312 Q53.1188 799.352 47.3897 799.352 L46.0847 799.352 L46.0847 805.176 M43.6657 793.495 L64.0042 793.495 L64.0042 799.352 L58.5933 799.352 Q61.8398 801.357 63.3994 804.349 Q64.9272 807.341 64.9272 811.669 Q64.9272 817.144 61.8716 820.39 Q58.7843 823.605 53.6281 823.605 Q47.6125 823.605 44.5569 819.595 Q41.5014 815.552 41.5014 807.563 L41.5014 799.352 L40.9285 799.352 Q36.8862 799.352 34.6901 802.025 Q32.4621 804.667 32.4621 809.473 Q32.4621 812.529 33.1941 815.425 Q33.9262 818.321 35.3903 820.995 L29.9795 820.995 Q28.7381 817.78 28.1334 814.757 Q27.4968 811.733 27.4968 808.868 Q27.4968 801.134 31.5072 797.315 Q35.5176 793.495 43.6657 793.495 Z" fill="#000000" fill-rule="nonzero" fill-opacity="1" /><path clip-path="url(#clip770)" d="M18.2347 775.639 L28.3562 775.639 L28.3562 763.576 L32.9077 763.576 L32.9077 775.639 L52.2594 775.639 Q56.6199 775.639 57.8613 774.462 Q59.1026 773.252 59.1026 769.592 L59.1026 763.576 L64.0042 763.576 L64.0042 769.592 Q64.0042 776.371 61.4897 778.95 Q58.9434 781.528 52.2594 781.528 L32.9077 781.528 L32.9077 785.824 L28.3562 785.824 L28.3562 781.528 L18.2347 781.528 L18.2347 775.639 Z" fill="#000000" fill-rule="nonzero" fill-opacity="1" /><path clip-path="url(#clip770)" d="M28.3562 755.874 L28.3562 750.017 L64.0042 750.017 L64.0042 755.874 L28.3562 755.874 M14.479 755.874 L14.479 750.017 L21.895 750.017 L21.895 755.874 L14.479 755.874 Z" fill="#000000" fill-rule="nonzero" fill-opacity="1" /><path clip-path="url(#clip770)" d="M32.4621 723.95 Q32.4621 728.66 36.1542 731.398 Q39.8145 734.135 46.212 734.135 Q52.6095 734.135 56.3017 731.43 Q59.9619 728.692 59.9619 723.95 Q59.9619 719.271 56.2698 716.534 Q52.5777 713.796 46.212 713.796 Q39.8781 713.796 36.186 716.534 Q32.4621 719.271 32.4621 723.95 M27.4968 723.95 Q27.4968 716.311 32.4621 711.95 Q37.4273 707.59 46.212 707.59 Q54.9649 707.59 59.9619 711.95 Q64.9272 716.311 64.9272 723.95 Q64.9272 731.62 59.9619 735.981 Q54.9649 740.31 46.212 740.31 Q37.4273 740.31 32.4621 735.981 Q27.4968 731.62 27.4968 723.95 Z" fill="#000000" fill-rule="nonzero" fill-opacity="1" /><path clip-path="url(#clip770)" d="M849.496 23.76 L886.041 23.76 L886.041 28.679 L870.706 28.679 L870.706 66.96 L864.832 66.96 L864.832 28.679 L849.496 28.679 L849.496 23.76 Z" fill="#000000" fill-rule="nonzero" fill-opacity="1" /><path clip-path="url(#clip770)" d="M889.629 34.5528 L894.953 34.5528 L894.953 66.96 L889.629 66.96 L889.629 34.5528 M889.629 21.9371 L894.953 21.9371 L894.953 28.679 L889.629 28.679 L889.629 21.9371 Z" fill="#000000" fill-rule="nonzero" fill-opacity="1" /><path clip-path="url(#clip770)" d="M931.325 40.7738 Q933.321 37.1859 936.099 35.4787 Q938.877 33.7715 942.638 33.7715 Q947.702 33.7715 950.451 37.3305 Q953.199 40.8606 953.199 47.3999 L953.199 66.96 L947.846 66.96 L947.846 47.5735 Q947.846 42.915 946.197 40.6581 Q944.548 38.4011 941.162 38.4011 Q937.025 38.4011 934.623 41.15 Q932.222 43.8988 932.222 48.6441 L932.222 66.96 L926.869 66.96 L926.869 47.5735 Q926.869 42.8861 925.219 40.6581 Q923.57 38.4011 920.127 38.4011 Q916.047 38.4011 913.645 41.1789 Q911.244 43.9277 911.244 48.6441 L911.244 66.96 L905.891 66.96 L905.891 34.5528 L911.244 34.5528 L911.244 39.5875 Q913.067 36.6072 915.613 35.1893 Q918.159 33.7715 921.66 33.7715 Q925.19 33.7715 927.65 35.5655 Q930.138 37.3595 931.325 40.7738 Z" fill="#000000" fill-rule="nonzero" fill-opacity="1" /><path clip-path="url(#clip770)" d="M991.538 49.4254 L991.538 52.0295 L967.059 52.0295 Q967.407 57.5272 970.358 60.4207 Q973.338 63.2853 978.633 63.2853 Q981.7 63.2853 984.565 62.5329 Q987.459 61.7806 990.294 60.276 L990.294 65.3107 Q987.43 66.526 984.42 67.1625 Q981.411 67.7991 978.315 67.7991 Q970.56 67.7991 966.018 63.2853 Q961.504 58.7714 961.504 51.0747 Q961.504 43.1175 965.786 38.459 Q970.098 33.7715 977.389 33.7715 Q983.928 33.7715 987.719 37.996 Q991.538 42.1916 991.538 49.4254 M986.214 47.8629 Q986.156 43.4937 983.755 40.8895 Q981.382 38.2854 977.447 38.2854 Q972.991 38.2854 970.3 40.8027 Q967.638 43.3201 967.233 47.8918 L986.214 47.8629 Z" fill="#000000" fill-rule="nonzero" fill-opacity="1" /><path clip-path="url(#clip770)" d="M1037.89 39.5296 Q1037 39.0088 1035.92 38.7773 Q1034.88 38.5169 1033.61 38.5169 Q1029.1 38.5169 1026.67 41.4682 Q1024.26 44.3907 1024.26 49.8883 L1024.26 66.96 L1018.91 66.96 L1018.91 34.5528 L1024.26 34.5528 L1024.26 39.5875 Q1025.94 36.6361 1028.63 35.2183 Q1031.32 33.7715 1035.17 33.7715 Q1035.72 33.7715 1036.39 33.8583 Q1037.05 33.9162 1037.86 34.0609 L1037.89 39.5296 Z" fill="#000000" fill-rule="nonzero" fill-opacity="1" /><path clip-path="url(#clip770)" d="M1058.2 50.6696 Q1051.75 50.6696 1049.26 52.1453 Q1046.78 53.621 1046.78 57.18 Q1046.78 60.0156 1048.63 61.6938 Q1050.51 63.3431 1053.72 63.3431 Q1058.15 63.3431 1060.81 60.2181 Q1063.5 57.0642 1063.5 51.8559 L1063.5 50.6696 L1058.2 50.6696 M1068.82 48.4705 L1068.82 66.96 L1063.5 66.96 L1063.5 62.041 Q1061.68 64.9924 1058.96 66.4102 Q1056.24 67.7991 1052.3 67.7991 Q1047.33 67.7991 1044.37 65.0214 Q1041.45 62.2147 1041.45 57.5272 Q1041.45 52.0585 1045.1 49.2807 Q1048.77 46.5029 1056.03 46.5029 L1063.5 46.5029 L1063.5 45.9821 Q1063.5 42.3074 1061.07 40.3108 Q1058.67 38.2854 1054.3 38.2854 Q1051.52 38.2854 1048.89 38.9509 Q1046.25 39.6164 1043.82 40.9474 L1043.82 36.0285 Q1046.75 34.9 1049.5 34.3502 Q1052.24 33.7715 1054.85 33.7715 Q1061.88 33.7715 1065.35 37.4173 Q1068.82 41.0631 1068.82 48.4705 Z" fill="#000000" fill-rule="nonzero" fill-opacity="1" /><path clip-path="url(#clip770)" d="M1085.06 25.3514 L1085.06 34.5528 L1096.02 34.5528 L1096.02 38.6905 L1085.06 38.6905 L1085.06 56.283 Q1085.06 60.2471 1086.13 61.3755 Q1087.23 62.504 1090.55 62.504 L1096.02 62.504 L1096.02 66.96 L1090.55 66.96 Q1084.39 66.96 1082.05 64.6741 Q1079.7 62.3593 1079.7 56.283 L1079.7 38.6905 L1075.8 38.6905 L1075.8 34.5528 L1079.7 34.5528 L1079.7 25.3514 L1085.06 25.3514 Z" fill="#000000" fill-rule="nonzero" fill-opacity="1" /><path clip-path="url(#clip770)" d="M1103.03 34.5528 L1108.35 34.5528 L1108.35 66.96 L1103.03 66.96 L1103.03 34.5528 M1103.03 21.9371 L1108.35 21.9371 L1108.35 28.679 L1103.03 28.679 L1103.03 21.9371 Z" fill="#000000" fill-rule="nonzero" fill-opacity="1" /><path clip-path="url(#clip770)" d="M1132.05 38.2854 Q1127.76 38.2854 1125.28 41.6418 Q1122.79 44.9694 1122.79 50.7853 Q1122.79 56.6013 1125.25 59.9577 Q1127.74 63.2853 1132.05 63.2853 Q1136.3 63.2853 1138.79 59.9288 Q1141.28 56.5723 1141.28 50.7853 Q1141.28 45.0272 1138.79 41.6708 Q1136.3 38.2854 1132.05 38.2854 M1132.05 33.7715 Q1138.99 33.7715 1142.96 38.2854 Q1146.92 42.7992 1146.92 50.7853 Q1146.92 58.7425 1142.96 63.2853 Q1138.99 67.7991 1132.05 67.7991 Q1125.07 67.7991 1121.11 63.2853 Q1117.17 58.7425 1117.17 50.7853 Q1117.17 42.7992 1121.11 38.2854 Q1125.07 33.7715 1132.05 33.7715 Z" fill="#000000" fill-rule="nonzero" fill-opacity="1" /><path clip-path="url(#clip770)" d="M1157.1 59.6105 L1163.21 59.6105 L1163.21 64.5873 L1158.46 73.8465 L1154.73 73.8465 L1157.1 64.5873 L1157.1 59.6105 Z" fill="#000000" fill-rule="nonzero" fill-opacity="1" /><path clip-path="url(#clip770)" d="M1219.55 25.1778 L1219.55 30.878 Q1216.22 29.2866 1213.27 28.5053 Q1210.32 27.7241 1207.57 27.7241 Q1202.79 27.7241 1200.19 29.5759 Q1197.61 31.4278 1197.61 34.8421 Q1197.61 37.7067 1199.32 39.1824 Q1201.06 40.6291 1205.86 41.5261 L1209.39 42.2495 Q1215.93 43.4937 1219.03 46.6476 Q1222.15 49.7726 1222.15 55.0388 Q1222.15 61.3177 1217.93 64.5584 Q1213.73 67.7991 1205.6 67.7991 Q1202.53 67.7991 1199.06 67.1047 Q1195.62 66.4102 1191.91 65.0503 L1191.91 59.0318 Q1195.47 61.0283 1198.89 62.041 Q1202.3 63.0538 1205.6 63.0538 Q1210.61 63.0538 1213.33 61.0862 Q1216.05 59.1186 1216.05 55.4728 Q1216.05 52.2899 1214.08 50.496 Q1212.14 48.702 1207.68 47.805 L1204.12 47.1106 Q1197.58 45.8085 1194.66 43.0307 Q1191.74 40.253 1191.74 35.3051 Q1191.74 29.5759 1195.76 26.2773 Q1199.81 22.9788 1206.9 22.9788 Q1209.94 22.9788 1213.09 23.5285 Q1216.25 24.0783 1219.55 25.1778 Z" fill="#000000" fill-rule="nonzero" fill-opacity="1" /><path clip-path="url(#clip770)" d="M1244.52 69.9692 Q1242.26 75.7562 1240.12 77.5213 Q1237.98 79.2863 1234.39 79.2863 L1230.14 79.2863 L1230.14 74.8303 L1233.26 74.8303 Q1235.46 74.8303 1236.68 73.7887 Q1237.89 72.747 1239.37 68.8697 L1240.32 66.4392 L1227.21 34.5528 L1232.86 34.5528 L1242.98 59.8999 L1253.11 34.5528 L1258.75 34.5528 L1244.52 69.9692 Z" fill="#000000" fill-rule="nonzero" fill-opacity="1" /><path clip-path="url(#clip770)" d="M1291.33 40.7738 Q1293.33 37.1859 1296.11 35.4787 Q1298.89 33.7715 1302.65 33.7715 Q1307.71 33.7715 1310.46 37.3305 Q1313.21 40.8606 1313.21 47.3999 L1313.21 66.96 L1307.86 66.96 L1307.86 47.5735 Q1307.86 42.915 1306.21 40.6581 Q1304.56 38.4011 1301.17 38.4011 Q1297.03 38.4011 1294.63 41.15 Q1292.23 43.8988 1292.23 48.6441 L1292.23 66.96 L1286.88 66.96 L1286.88 47.5735 Q1286.88 42.8861 1285.23 40.6581 Q1283.58 38.4011 1280.14 38.4011 Q1276.06 38.4011 1273.65 41.1789 Q1271.25 43.9277 1271.25 48.6441 L1271.25 66.96 L1265.9 66.96 L1265.9 34.5528 L1271.25 34.5528 L1271.25 39.5875 Q1273.08 36.6072 1275.62 35.1893 Q1278.17 33.7715 1281.67 33.7715 Q1285.2 33.7715 1287.66 35.5655 Q1290.15 37.3595 1291.33 40.7738 Z" fill="#000000" fill-rule="nonzero" fill-opacity="1" /><path clip-path="url(#clip770)" d="M1347.09 50.7853 Q1347.09 44.9115 1344.66 41.584 Q1342.26 38.2275 1338.04 38.2275 Q1333.81 38.2275 1331.38 41.584 Q1328.98 44.9115 1328.98 50.7853 Q1328.98 56.6591 1331.38 60.0156 Q1333.81 63.3431 1338.04 63.3431 Q1342.26 63.3431 1344.66 60.0156 Q1347.09 56.6591 1347.09 50.7853 M1328.98 39.4717 Q1330.66 36.5782 1333.2 35.1893 Q1335.78 33.7715 1339.34 33.7715 Q1345.24 33.7715 1348.91 38.459 Q1352.62 43.1465 1352.62 50.7853 Q1352.62 58.4242 1348.91 63.1116 Q1345.24 67.7991 1339.34 67.7991 Q1335.78 67.7991 1333.2 66.4102 Q1330.66 64.9924 1328.98 62.0989 L1328.98 66.96 L1323.63 66.96 L1323.63 21.9371 L1328.98 21.9371 L1328.98 39.4717 Z" fill="#000000" fill-rule="nonzero" fill-opacity="1" /><path clip-path="url(#clip770)" d="M1374 38.2854 Q1369.72 38.2854 1367.23 41.6418 Q1364.74 44.9694 1364.74 50.7853 Q1364.74 56.6013 1367.2 59.9577 Q1369.69 63.2853 1374 63.2853 Q1378.26 63.2853 1380.74 59.9288 Q1383.23 56.5723 1383.23 50.7853 Q1383.23 45.0272 1380.74 41.6708 Q1378.26 38.2854 1374 38.2854 M1374 33.7715 Q1380.95 33.7715 1384.91 38.2854 Q1388.87 42.7992 1388.87 50.7853 Q1388.87 58.7425 1384.91 63.2853 Q1380.95 67.7991 1374 67.7991 Q1367.03 67.7991 1363.06 63.2853 Q1359.13 58.7425 1359.13 50.7853 Q1359.13 42.7992 1363.06 38.2854 Q1367.03 33.7715 1374 33.7715 Z" fill="#000000" fill-rule="nonzero" fill-opacity="1" /><path clip-path="url(#clip770)" d="M1397.7 21.9371 L1403.02 21.9371 L1403.02 66.96 L1397.7 66.96 L1397.7 21.9371 Z" fill="#000000" fill-rule="nonzero" fill-opacity="1" /><path clip-path="url(#clip770)" d="M1414.16 34.5528 L1419.49 34.5528 L1419.49 66.96 L1414.16 66.96 L1414.16 34.5528 M1414.16 21.9371 L1419.49 21.9371 L1419.49 28.679 L1414.16 28.679 L1414.16 21.9371 Z" fill="#000000" fill-rule="nonzero" fill-opacity="1" /><path clip-path="url(#clip770)" d="M1453.95 35.797 L1453.95 40.7738 Q1451.69 39.5296 1449.41 38.922 Q1447.15 38.2854 1444.83 38.2854 Q1439.66 38.2854 1436.79 41.584 Q1433.93 44.8536 1433.93 50.7853 Q1433.93 56.717 1436.79 60.0156 Q1439.66 63.2853 1444.83 63.2853 Q1447.15 63.2853 1449.41 62.6776 Q1451.69 62.041 1453.95 60.7968 L1453.95 65.7158 Q1451.72 66.7575 1449.32 67.2783 Q1446.95 67.7991 1444.26 67.7991 Q1436.94 67.7991 1432.62 63.1984 Q1428.31 58.5978 1428.31 50.7853 Q1428.31 42.8571 1432.65 38.3143 Q1437.02 33.7715 1444.6 33.7715 Q1447.06 33.7715 1449.41 34.2924 Q1451.75 34.7842 1453.95 35.797 Z" fill="#000000" fill-rule="nonzero" fill-opacity="1" /><path clip-path="url(#clip770)" d="M1483.87 35.5076 L1483.87 40.5423 Q1481.61 39.3849 1479.18 38.8062 Q1476.75 38.2275 1474.15 38.2275 Q1470.18 38.2275 1468.19 39.4428 Q1466.22 40.6581 1466.22 43.0886 Q1466.22 44.9404 1467.64 46.011 Q1469.05 47.0527 1473.34 48.0076 L1475.16 48.4126 Q1480.83 49.6279 1483.2 51.8559 Q1485.6 54.055 1485.6 58.0191 Q1485.6 62.5329 1482.02 65.166 Q1478.46 67.7991 1472.21 67.7991 Q1469.6 67.7991 1466.77 67.2783 Q1463.96 66.7864 1460.84 65.7737 L1460.84 60.276 Q1463.79 61.8096 1466.65 62.5908 Q1469.52 63.3431 1472.32 63.3431 Q1476.08 63.3431 1478.11 62.07 Q1480.14 60.7679 1480.14 58.4242 Q1480.14 56.254 1478.66 55.0966 Q1477.21 53.9392 1472.26 52.8686 L1470.41 52.4346 Q1465.47 51.393 1463.27 49.2518 Q1461.07 47.0816 1461.07 43.3201 Q1461.07 38.7483 1464.31 36.2599 Q1467.55 33.7715 1473.51 33.7715 Q1476.46 33.7715 1479.06 34.2055 Q1481.67 34.6396 1483.87 35.5076 Z" fill="#000000" fill-rule="nonzero" fill-opacity="1" /><path clip-path="url(#clip770)" d="M1503.54 23.76 L1508.46 23.76 L1493.42 72.4577 L1488.5 72.4577 L1503.54 23.76 Z" fill="#000000" fill-rule="nonzero" fill-opacity="1" /><path clip-path="url(#clip770)" d="M1514.28 23.76 L1539.1 23.76 L1539.1 28.679 L1520.12 28.679 L1520.12 41.4104 L1537.25 41.4104 L1537.25 46.3293 L1520.12 46.3293 L1520.12 66.96 L1514.28 66.96 L1514.28 23.76 Z" fill="#000000" fill-rule="nonzero" fill-opacity="1" /><path clip-path="url(#clip770)" d="M1573.22 25.1778 L1573.22 30.878 Q1569.89 29.2866 1566.94 28.5053 Q1563.99 27.7241 1561.24 27.7241 Q1556.47 27.7241 1553.86 29.5759 Q1551.29 31.4278 1551.29 34.8421 Q1551.29 37.7067 1552.99 39.1824 Q1554.73 40.6291 1559.53 41.5261 L1563.06 42.2495 Q1569.6 43.4937 1572.7 46.6476 Q1575.82 49.7726 1575.82 55.0388 Q1575.82 61.3177 1571.6 64.5584 Q1567.4 67.7991 1559.27 67.7991 Q1556.21 67.7991 1552.73 67.1047 Q1549.29 66.4102 1545.59 65.0503 L1545.59 59.0318 Q1549.15 61.0283 1552.56 62.041 Q1555.97 63.0538 1559.27 63.0538 Q1564.28 63.0538 1567 61.0862 Q1569.72 59.1186 1569.72 55.4728 Q1569.72 52.2899 1567.75 50.496 Q1565.81 48.702 1561.36 47.805 L1557.8 47.1106 Q1551.26 45.8085 1548.34 43.0307 Q1545.41 40.253 1545.41 35.3051 Q1545.41 29.5759 1549.43 26.2773 Q1553.49 22.9788 1560.57 22.9788 Q1563.61 22.9788 1566.77 23.5285 Q1569.92 24.0783 1573.22 25.1778 Z" fill="#000000" fill-rule="nonzero" fill-opacity="1" /><path clip-path="url(#clip770)" d="M1590.78 28.5632 L1590.78 62.1568 L1597.84 62.1568 Q1606.78 62.1568 1610.92 58.1059 Q1615.09 54.055 1615.09 45.3166 Q1615.09 36.6361 1610.92 32.6141 Q1606.78 28.5632 1597.84 28.5632 L1590.78 28.5632 M1584.94 23.76 L1596.95 23.76 Q1609.5 23.76 1615.38 28.9972 Q1621.25 34.2055 1621.25 45.3166 Q1621.25 56.4855 1615.35 61.7228 Q1609.45 66.96 1596.95 66.96 L1584.94 66.96 L1584.94 23.76 Z" fill="#000000" fill-rule="nonzero" fill-opacity="1" /><path clip-path="url(#clip770)" d="M1631.7 59.6105 L1637.8 59.6105 L1637.8 66.96 L1631.7 66.96 L1631.7 59.6105 M1631.7 36.3178 L1637.8 36.3178 L1637.8 43.6673 L1631.7 43.6673 L1631.7 36.3178 Z" fill="#000000" fill-rule="nonzero" fill-opacity="1" /><path clip-path="url(#clip770)" d="M1669.37 23.76 L1696.69 23.76 L1696.69 28.679 L1675.22 28.679 L1675.22 41.4682 L1695.79 41.4682 L1695.79 46.3872 L1675.22 46.3872 L1675.22 62.041 L1697.21 62.041 L1697.21 66.96 L1669.37 66.96 L1669.37 23.76 Z" fill="#000000" fill-rule="nonzero" fill-opacity="1" /><path clip-path="url(#clip770)" d="M1733.52 34.5528 L1721.8 50.3224 L1734.13 66.96 L1727.85 66.96 L1718.42 54.2286 L1708.98 66.96 L1702.7 66.96 L1715.29 50.0041 L1703.77 34.5528 L1710.05 34.5528 L1718.65 46.0978 L1727.24 34.5528 L1733.52 34.5528 Z" fill="#000000" fill-rule="nonzero" fill-opacity="1" /><path clip-path="url(#clip770)" d="M1767.55 49.4254 L1767.55 52.0295 L1743.07 52.0295 Q1743.42 57.5272 1746.37 60.4207 Q1749.35 63.2853 1754.64 63.2853 Q1757.71 63.2853 1760.57 62.5329 Q1763.47 61.7806 1766.3 60.276 L1766.3 65.3107 Q1763.44 66.526 1760.43 67.1625 Q1757.42 67.7991 1754.32 67.7991 Q1746.57 67.7991 1742.03 63.2853 Q1737.51 58.7714 1737.51 51.0747 Q1737.51 43.1175 1741.79 38.459 Q1746.11 33.7715 1753.4 33.7715 Q1759.94 33.7715 1763.73 37.996 Q1767.55 42.1916 1767.55 49.4254 M1762.22 47.8629 Q1762.17 43.4937 1759.76 40.8895 Q1757.39 38.2854 1753.46 38.2854 Q1749 38.2854 1746.31 40.8027 Q1743.65 43.3201 1743.24 47.8918 L1762.22 47.8629 Z" fill="#000000" fill-rule="nonzero" fill-opacity="1" /><path clip-path="url(#clip770)" d="M1177.06 100.597 L1177.06 105.574 Q1174.8 104.33 1172.51 103.722 Q1170.26 103.085 1167.94 103.085 Q1162.76 103.085 1159.9 106.384 Q1157.03 109.654 1157.03 115.585 Q1157.03 121.517 1159.9 124.816 Q1162.76 128.085 1167.94 128.085 Q1170.26 128.085 1172.51 127.478 Q1174.8 126.841 1177.06 125.597 L1177.06 130.516 Q1174.83 131.557 1172.43 132.078 Q1170.05 132.599 1167.36 132.599 Q1160.04 132.599 1155.73 127.998 Q1151.42 123.398 1151.42 115.585 Q1151.42 107.657 1155.76 103.114 Q1160.13 98.5715 1167.71 98.5715 Q1170.17 98.5715 1172.51 99.0924 Q1174.86 99.5842 1177.06 100.597 Z" fill="#000000" fill-rule="nonzero" fill-opacity="1" /><path clip-path="url(#clip770)" d="M1213.25 112.2 L1213.25 131.76 L1207.93 131.76 L1207.93 112.374 Q1207.93 107.773 1206.14 105.487 Q1204.34 103.201 1200.75 103.201 Q1196.44 103.201 1193.95 105.95 Q1191.46 108.699 1191.46 113.444 L1191.46 131.76 L1186.11 131.76 L1186.11 86.7371 L1191.46 86.7371 L1191.46 104.387 Q1193.37 101.465 1195.95 100.018 Q1198.55 98.5715 1201.94 98.5715 Q1207.52 98.5715 1210.39 102.044 Q1213.25 105.487 1213.25 112.2 Z" fill="#000000" fill-rule="nonzero" fill-opacity="1" /><path clip-path="url(#clip770)" d="M1251.59 114.225 L1251.59 116.83 L1227.11 116.83 Q1227.46 122.327 1230.41 125.221 Q1233.39 128.085 1238.69 128.085 Q1241.75 128.085 1244.62 127.333 Q1247.51 126.581 1250.35 125.076 L1250.35 130.111 Q1247.48 131.326 1244.47 131.963 Q1241.46 132.599 1238.37 132.599 Q1230.61 132.599 1226.07 128.085 Q1221.56 123.571 1221.56 115.875 Q1221.56 107.918 1225.84 103.259 Q1230.15 98.5715 1237.44 98.5715 Q1243.98 98.5715 1247.77 102.796 Q1251.59 106.992 1251.59 114.225 M1246.27 112.663 Q1246.21 108.294 1243.81 105.69 Q1241.44 103.085 1237.5 103.085 Q1233.04 103.085 1230.35 105.603 Q1227.69 108.12 1227.29 112.692 L1246.27 112.663 Z" fill="#000000" fill-rule="nonzero" fill-opacity="1" /><path clip-path="url(#clip770)" d="M1283.59 115.585 Q1283.59 109.712 1281.16 106.384 Q1278.76 103.028 1274.54 103.028 Q1270.31 103.028 1267.88 106.384 Q1265.48 109.712 1265.48 115.585 Q1265.48 121.459 1267.88 124.816 Q1270.31 128.143 1274.54 128.143 Q1278.76 128.143 1281.16 124.816 Q1283.59 121.459 1283.59 115.585 M1265.48 104.272 Q1267.16 101.378 1269.71 99.9893 Q1272.28 98.5715 1275.84 98.5715 Q1281.74 98.5715 1285.42 103.259 Q1289.12 107.946 1289.12 115.585 Q1289.12 123.224 1285.42 127.912 Q1281.74 132.599 1275.84 132.599 Q1272.28 132.599 1269.71 131.21 Q1267.16 129.792 1265.48 126.899 L1265.48 131.76 L1260.13 131.76 L1260.13 86.7371 L1265.48 86.7371 L1265.48 104.272 Z" fill="#000000" fill-rule="nonzero" fill-opacity="1" /><path clip-path="url(#clip770)" d="M1311.43 134.769 Q1309.17 140.556 1307.03 142.321 Q1304.89 144.086 1301.3 144.086 L1297.05 144.086 L1297.05 139.63 L1300.17 139.63 Q1302.37 139.63 1303.59 138.589 Q1304.8 137.547 1306.28 133.67 L1307.23 131.239 L1294.13 99.3528 L1299.77 99.3528 L1309.9 124.7 L1320.02 99.3528 L1325.67 99.3528 L1311.43 134.769 Z" fill="#000000" fill-rule="nonzero" fill-opacity="1" /><path clip-path="url(#clip770)" d="M1353.67 100.308 L1353.67 105.342 Q1351.42 104.185 1348.99 103.606 Q1346.56 103.028 1343.95 103.028 Q1339.99 103.028 1337.99 104.243 Q1336.02 105.458 1336.02 107.889 Q1336.02 109.74 1337.44 110.811 Q1338.86 111.853 1343.14 112.808 L1344.97 113.213 Q1350.64 114.428 1353.01 116.656 Q1355.41 118.855 1355.41 122.819 Q1355.41 127.333 1351.82 129.966 Q1348.26 132.599 1342.01 132.599 Q1339.41 132.599 1336.57 132.078 Q1333.77 131.586 1330.64 130.574 L1330.64 125.076 Q1333.59 126.61 1336.46 127.391 Q1339.32 128.143 1342.13 128.143 Q1345.89 128.143 1347.92 126.87 Q1349.94 125.568 1349.94 123.224 Q1349.94 121.054 1348.47 119.897 Q1347.02 118.739 1342.07 117.669 L1340.22 117.235 Q1335.27 116.193 1333.07 114.052 Q1330.87 111.882 1330.87 108.12 Q1330.87 103.548 1334.11 101.06 Q1337.36 98.5715 1343.32 98.5715 Q1346.27 98.5715 1348.87 99.0055 Q1351.48 99.4396 1353.67 100.308 Z" fill="#000000" fill-rule="nonzero" fill-opacity="1" /><path clip-path="url(#clip770)" d="M1390.83 112.2 L1390.83 131.76 L1385.5 131.76 L1385.5 112.374 Q1385.5 107.773 1383.71 105.487 Q1381.92 103.201 1378.33 103.201 Q1374.02 103.201 1371.53 105.95 Q1369.04 108.699 1369.04 113.444 L1369.04 131.76 L1363.69 131.76 L1363.69 86.7371 L1369.04 86.7371 L1369.04 104.387 Q1370.95 101.465 1373.52 100.018 Q1376.13 98.5715 1379.51 98.5715 Q1385.1 98.5715 1387.96 102.044 Q1390.83 105.487 1390.83 112.2 Z" fill="#000000" fill-rule="nonzero" fill-opacity="1" /><path clip-path="url(#clip770)" d="M1429.17 114.225 L1429.17 116.83 L1404.69 116.83 Q1405.03 122.327 1407.99 125.221 Q1410.97 128.085 1416.26 128.085 Q1419.33 128.085 1422.19 127.333 Q1425.09 126.581 1427.92 125.076 L1427.92 130.111 Q1425.06 131.326 1422.05 131.963 Q1419.04 132.599 1415.94 132.599 Q1408.19 132.599 1403.65 128.085 Q1399.13 123.571 1399.13 115.875 Q1399.13 107.918 1403.41 103.259 Q1407.73 98.5715 1415.02 98.5715 Q1421.56 98.5715 1425.35 102.796 Q1429.17 106.992 1429.17 114.225 M1423.84 112.663 Q1423.78 108.294 1421.38 105.69 Q1419.01 103.085 1415.07 103.085 Q1410.62 103.085 1407.93 105.603 Q1405.27 108.12 1404.86 112.692 L1423.84 112.663 Z" fill="#000000" fill-rule="nonzero" fill-opacity="1" /><path clip-path="url(#clip770)" d="M1434.09 99.3528 L1439.73 99.3528 L1449.85 126.552 L1459.98 99.3528 L1465.62 99.3528 L1453.47 131.76 L1446.24 131.76 L1434.09 99.3528 Z" fill="#000000" fill-rule="nonzero" fill-opacity="1" /><polyline clip-path="url(#clip772)" style="stroke:#009af9; stroke-linecap:round; stroke-linejoin:round; stroke-width:4; stroke-opacity:1; fill:none" points="323.395,1387.13 454.745,1386.99 586.095,1386.72 717.446,1386.17 848.796,1385.3 980.146,1383.81 1111.5,1380.81 1242.85,1374.91 1374.2,1361.59 1505.55,1342.95 1636.9,1314.33 1768.25,1244.75 1899.6,973.745 2030.95,657.346 2162.3,185.443 "/>
<circle clip-path="url(#clip772)" cx="323.395" cy="1387.13" r="14.4" fill="#009af9" fill-rule="evenodd" fill-opacity="1" stroke="#000000" stroke-opacity="1" stroke-width="3.2"/>
<circle clip-path="url(#clip772)" cx="454.745" cy="1386.99" r="14.4" fill="#009af9" fill-rule="evenodd" fill-opacity="1" stroke="#000000" stroke-opacity="1" stroke-width="3.2"/>
<circle clip-path="url(#clip772)" cx="586.095" cy="1386.72" r="14.4" fill="#009af9" fill-rule="evenodd" fill-opacity="1" stroke="#000000" stroke-opacity="1" stroke-width="3.2"/>
<circle clip-path="url(#clip772)" cx="717.446" cy="1386.17" r="14.4" fill="#009af9" fill-rule="evenodd" fill-opacity="1" stroke="#000000" stroke-opacity="1" stroke-width="3.2"/>
<circle clip-path="url(#clip772)" cx="848.796" cy="1385.3" r="14.4" fill="#009af9" fill-rule="evenodd" fill-opacity="1" stroke="#000000" stroke-opacity="1" stroke-width="3.2"/>
<circle clip-path="url(#clip772)" cx="980.146" cy="1383.81" r="14.4" fill="#009af9" fill-rule="evenodd" fill-opacity="1" stroke="#000000" stroke-opacity="1" stroke-width="3.2"/>
<circle clip-path="url(#clip772)" cx="1111.5" cy="1380.81" r="14.4" fill="#009af9" fill-rule="evenodd" fill-opacity="1" stroke="#000000" stroke-opacity="1" stroke-width="3.2"/>
<circle clip-path="url(#clip772)" cx="1242.85" cy="1374.91" r="14.4" fill="#009af9" fill-rule="evenodd" fill-opacity="1" stroke="#000000" stroke-opacity="1" stroke-width="3.2"/>
<circle clip-path="url(#clip772)" cx="1374.2" cy="1361.59" r="14.4" fill="#009af9" fill-rule="evenodd" fill-opacity="1" stroke="#000000" stroke-opacity="1" stroke-width="3.2"/>
<circle clip-path="url(#clip772)" cx="1505.55" cy="1342.95" r="14.4" fill="#009af9" fill-rule="evenodd" fill-opacity="1" stroke="#000000" stroke-opacity="1" stroke-width="3.2"/>
<circle clip-path="url(#clip772)" cx="1636.9" cy="1314.33" r="14.4" fill="#009af9" fill-rule="evenodd" fill-opacity="1" stroke="#000000" stroke-opacity="1" stroke-width="3.2"/>
<circle clip-path="url(#clip772)" cx="1768.25" cy="1244.75" r="14.4" fill="#009af9" fill-rule="evenodd" fill-opacity="1" stroke="#000000" stroke-opacity="1" stroke-width="3.2"/>
<circle clip-path="url(#clip772)" cx="1899.6" cy="973.745" r="14.4" fill="#009af9" fill-rule="evenodd" fill-opacity="1" stroke="#000000" stroke-opacity="1" stroke-width="3.2"/>
<circle clip-path="url(#clip772)" cx="2030.95" cy="657.346" r="14.4" fill="#009af9" fill-rule="evenodd" fill-opacity="1" stroke="#000000" stroke-opacity="1" stroke-width="3.2"/>
<circle clip-path="url(#clip772)" cx="2162.3" cy="185.443" r="14.4" fill="#009af9" fill-rule="evenodd" fill-opacity="1" stroke="#000000" stroke-opacity="1" stroke-width="3.2"/>
</svg>
