<?xml version="1.0" encoding="utf-8"?>
<svg xmlns="http://www.w3.org/2000/svg" xmlns:xlink="http://www.w3.org/1999/xlink" width="600" height="400" viewBox="0 0 2400 1600">
<defs>
  <clipPath id="clip690">
    <rect x="0" y="0" width="2400" height="1600"/>
  </clipPath>
</defs>
<path clip-path="url(#clip690)" d="M0 1600 L2400 1600 L2400 0 L0 0  Z" fill="#ffffff" fill-rule="evenodd" fill-opacity="1"/>
<defs>
  <clipPath id="clip691">
    <rect x="480" y="0" width="1681" height="1600"/>
  </clipPath>
</defs>
<path clip-path="url(#clip690)" d="M369.518 1423.18 L2352.76 1423.18 L2352.76 149.392 L369.518 149.392  Z" fill="#ffffff" fill-rule="evenodd" fill-opacity="1"/>
<defs>
  <clipPath id="clip692">
    <rect x="369" y="149" width="1984" height="1275"/>
  </clipPath>
</defs>
<polyline clip-path="url(#clip692)" style="stroke:#000000; stroke-linecap:round; stroke-linejoin:round; stroke-width:2; stroke-opacity:0.1; fill:none" points="425.648,1423.18 425.648,149.392 "/>
<polyline clip-path="url(#clip692)" style="stroke:#000000; stroke-linecap:round; stroke-linejoin:round; stroke-width:2; stroke-opacity:0.1; fill:none" points="799.843,1423.18 799.843,149.392 "/>
<polyline clip-path="url(#clip692)" style="stroke:#000000; stroke-linecap:round; stroke-linejoin:round; stroke-width:2; stroke-opacity:0.1; fill:none" points="1174.04,1423.18 1174.04,149.392 "/>
<polyline clip-path="url(#clip692)" style="stroke:#000000; stroke-linecap:round; stroke-linejoin:round; stroke-width:2; stroke-opacity:0.1; fill:none" points="1548.23,1423.18 1548.23,149.392 "/>
<polyline clip-path="url(#clip692)" style="stroke:#000000; stroke-linecap:round; stroke-linejoin:round; stroke-width:2; stroke-opacity:0.1; fill:none" points="1922.43,1423.18 1922.43,149.392 "/>
<polyline clip-path="url(#clip692)" style="stroke:#000000; stroke-linecap:round; stroke-linejoin:round; stroke-width:2; stroke-opacity:0.1; fill:none" points="2296.63,1423.18 2296.63,149.392 "/>
<polyline clip-path="url(#clip690)" style="stroke:#000000; stroke-linecap:round; stroke-linejoin:round; stroke-width:4; stroke-opacity:1; fill:none" points="369.518,1423.18 2352.76,1423.18 "/>
<polyline clip-path="url(#clip690)" style="stroke:#000000; stroke-linecap:round; stroke-linejoin:round; stroke-width:4; stroke-opacity:1; fill:none" points="425.648,1423.18 425.648,1404.28 "/>
<polyline clip-path="url(#clip690)" style="stroke:#000000; stroke-linecap:round; stroke-linejoin:round; stroke-width:4; stroke-opacity:1; fill:none" points="799.843,1423.18 799.843,1404.28 "/>
<polyline clip-path="url(#clip690)" style="stroke:#000000; stroke-linecap:round; stroke-linejoin:round; stroke-width:4; stroke-opacity:1; fill:none" points="1174.04,1423.18 1174.04,1404.28 "/>
<polyline clip-path="url(#clip690)" style="stroke:#000000; stroke-linecap:round; stroke-linejoin:round; stroke-width:4; stroke-opacity:1; fill:none" points="1548.23,1423.18 1548.23,1404.28 "/>
<polyline clip-path="url(#clip690)" style="stroke:#000000; stroke-linecap:round; stroke-linejoin:round; stroke-width:4; stroke-opacity:1; fill:none" points="1922.43,1423.18 1922.43,1404.28 "/>
<polyline clip-path="url(#clip690)" style="stroke:#000000; stroke-linecap:round; stroke-linejoin:round; stroke-width:4; stroke-opacity:1; fill:none" points="2296.63,1423.18 2296.63,1404.28 "/>
<path clip-path="url(#clip690)" d="M415.925 1451.02 L434.282 1451.02 L434.282 1454.96 L420.208 1454.96 L420.208 1463.43 Q421.226 1463.08 422.245 1462.92 Q423.263 1462.73 424.282 1462.73 Q430.069 1462.73 433.448 1465.9 Q436.828 1469.08 436.828 1474.49 Q436.828 1480.07 433.356 1483.17 Q429.884 1486.25 423.564 1486.25 Q421.388 1486.25 419.12 1485.88 Q416.875 1485.51 414.467 1484.77 L414.467 1480.07 Q416.55 1481.2 418.773 1481.76 Q420.995 1482.32 423.472 1482.32 Q427.476 1482.32 429.814 1480.21 Q432.152 1478.1 432.152 1474.49 Q432.152 1470.88 429.814 1468.77 Q427.476 1466.67 423.472 1466.67 Q421.597 1466.67 419.722 1467.08 Q417.87 1467.5 415.925 1468.38 L415.925 1451.02 Z" fill="#000000" fill-rule="nonzero" fill-opacity="1" /><path clip-path="url(#clip690)" d="M774.531 1481.64 L782.17 1481.64 L782.17 1455.28 L773.86 1456.95 L773.86 1452.69 L782.124 1451.02 L786.799 1451.02 L786.799 1481.64 L794.438 1481.64 L794.438 1485.58 L774.531 1485.58 L774.531 1481.64 Z" fill="#000000" fill-rule="nonzero" fill-opacity="1" /><path clip-path="url(#clip690)" d="M813.883 1454.1 Q810.272 1454.1 808.443 1457.66 Q806.637 1461.2 806.637 1468.33 Q806.637 1475.44 808.443 1479.01 Q810.272 1482.55 813.883 1482.55 Q817.517 1482.55 819.322 1479.01 Q821.151 1475.44 821.151 1468.33 Q821.151 1461.2 819.322 1457.66 Q817.517 1454.1 813.883 1454.1 M813.883 1450.39 Q819.693 1450.39 822.748 1455 Q825.827 1459.58 825.827 1468.33 Q825.827 1477.06 822.748 1481.67 Q819.693 1486.25 813.883 1486.25 Q808.073 1486.25 804.994 1481.67 Q801.938 1477.06 801.938 1468.33 Q801.938 1459.58 804.994 1455 Q808.073 1450.39 813.883 1450.39 Z" fill="#000000" fill-rule="nonzero" fill-opacity="1" /><path clip-path="url(#clip690)" d="M1149.22 1481.64 L1156.86 1481.64 L1156.86 1455.28 L1148.55 1456.95 L1148.55 1452.69 L1156.82 1451.02 L1161.49 1451.02 L1161.49 1481.64 L1169.13 1481.64 L1169.13 1485.58 L1149.22 1485.58 L1149.22 1481.64 Z" fill="#000000" fill-rule="nonzero" fill-opacity="1" /><path clip-path="url(#clip690)" d="M1178.62 1451.02 L1196.98 1451.02 L1196.98 1454.96 L1182.9 1454.96 L1182.9 1463.43 Q1183.92 1463.08 1184.94 1462.92 Q1185.96 1462.73 1186.98 1462.73 Q1192.77 1462.73 1196.15 1465.9 Q1199.53 1469.08 1199.53 1474.49 Q1199.53 1480.07 1196.05 1483.17 Q1192.58 1486.25 1186.26 1486.25 Q1184.09 1486.25 1181.82 1485.88 Q1179.57 1485.51 1177.16 1484.77 L1177.16 1480.07 Q1179.25 1481.2 1181.47 1481.76 Q1183.69 1482.32 1186.17 1482.32 Q1190.17 1482.32 1192.51 1480.21 Q1194.85 1478.1 1194.85 1474.49 Q1194.85 1470.88 1192.51 1468.77 Q1190.17 1466.67 1186.17 1466.67 Q1184.29 1466.67 1182.42 1467.08 Q1180.57 1467.5 1178.62 1468.38 L1178.62 1451.02 Z" fill="#000000" fill-rule="nonzero" fill-opacity="1" /><path clip-path="url(#clip690)" d="M1527.01 1481.64 L1543.33 1481.64 L1543.33 1485.58 L1521.38 1485.58 L1521.38 1481.64 Q1524.05 1478.89 1528.63 1474.26 Q1533.24 1469.61 1534.42 1468.27 Q1536.66 1465.74 1537.54 1464.01 Q1538.44 1462.25 1538.44 1460.56 Q1538.44 1457.8 1536.5 1456.07 Q1534.58 1454.33 1531.48 1454.33 Q1529.28 1454.33 1526.82 1455.09 Q1524.39 1455.86 1521.61 1457.41 L1521.61 1452.69 Q1524.44 1451.55 1526.89 1450.97 Q1529.35 1450.39 1531.38 1450.39 Q1536.75 1450.39 1539.95 1453.08 Q1543.14 1455.77 1543.14 1460.26 Q1543.14 1462.39 1542.33 1464.31 Q1541.55 1466.2 1539.44 1468.8 Q1538.86 1469.47 1535.76 1472.69 Q1532.66 1475.88 1527.01 1481.64 Z" fill="#000000" fill-rule="nonzero" fill-opacity="1" /><path clip-path="url(#clip690)" d="M1563.14 1454.1 Q1559.53 1454.1 1557.7 1457.66 Q1555.9 1461.2 1555.9 1468.33 Q1555.9 1475.44 1557.7 1479.01 Q1559.53 1482.55 1563.14 1482.55 Q1566.78 1482.55 1568.58 1479.01 Q1570.41 1475.44 1570.41 1468.33 Q1570.41 1461.2 1568.58 1457.66 Q1566.78 1454.1 1563.14 1454.1 M1563.14 1450.39 Q1568.95 1450.39 1572.01 1455 Q1575.09 1459.58 1575.09 1468.33 Q1575.09 1477.06 1572.01 1481.67 Q1568.95 1486.25 1563.14 1486.25 Q1557.33 1486.25 1554.25 1481.67 Q1551.2 1477.06 1551.2 1468.33 Q1551.2 1459.58 1554.25 1455 Q1557.33 1450.39 1563.14 1450.39 Z" fill="#000000" fill-rule="nonzero" fill-opacity="1" /><path clip-path="url(#clip690)" d="M1901.7 1481.64 L1918.02 1481.64 L1918.02 1485.58 L1896.08 1485.58 L1896.08 1481.64 Q1898.74 1478.89 1903.32 1474.26 Q1907.93 1469.61 1909.11 1468.27 Q1911.35 1465.74 1912.23 1464.01 Q1913.14 1462.25 1913.14 1460.56 Q1913.14 1457.8 1911.19 1456.07 Q1909.27 1454.33 1906.17 1454.33 Q1903.97 1454.33 1901.52 1455.09 Q1899.09 1455.86 1896.31 1457.41 L1896.31 1452.69 Q1899.13 1451.55 1901.59 1450.97 Q1904.04 1450.39 1906.08 1450.39 Q1911.45 1450.39 1914.64 1453.08 Q1917.84 1455.77 1917.84 1460.26 Q1917.84 1462.39 1917.03 1464.31 Q1916.24 1466.2 1914.13 1468.8 Q1913.55 1469.47 1910.45 1472.69 Q1907.35 1475.88 1901.7 1481.64 Z" fill="#000000" fill-rule="nonzero" fill-opacity="1" /><path clip-path="url(#clip690)" d="M1927.88 1451.02 L1946.24 1451.02 L1946.24 1454.96 L1932.16 1454.96 L1932.16 1463.43 Q1933.18 1463.08 1934.2 1462.92 Q1935.22 1462.73 1936.24 1462.73 Q1942.03 1462.73 1945.41 1465.9 Q1948.78 1469.08 1948.78 1474.49 Q1948.78 1480.07 1945.31 1483.17 Q1941.84 1486.25 1935.52 1486.25 Q1933.35 1486.25 1931.08 1485.88 Q1928.83 1485.51 1926.42 1484.77 L1926.42 1480.07 Q1928.51 1481.2 1930.73 1481.76 Q1932.95 1482.32 1935.43 1482.32 Q1939.43 1482.32 1941.77 1480.21 Q1944.11 1478.1 1944.11 1474.49 Q1944.11 1470.88 1941.77 1468.77 Q1939.43 1466.67 1935.43 1466.67 Q1933.55 1466.67 1931.68 1467.08 Q1929.83 1467.5 1927.88 1468.38 L1927.88 1451.02 Z" fill="#000000" fill-rule="nonzero" fill-opacity="1" /><path clip-path="url(#clip690)" d="M2285.47 1466.95 Q2288.83 1467.66 2290.7 1469.93 Q2292.6 1472.2 2292.6 1475.53 Q2292.6 1480.65 2289.08 1483.45 Q2285.56 1486.25 2279.08 1486.25 Q2276.9 1486.25 2274.59 1485.81 Q2272.3 1485.39 2269.84 1484.54 L2269.84 1480.02 Q2271.79 1481.16 2274.1 1481.74 Q2276.42 1482.32 2278.94 1482.32 Q2283.34 1482.32 2285.63 1480.58 Q2287.95 1478.84 2287.95 1475.53 Q2287.95 1472.48 2285.79 1470.77 Q2283.66 1469.03 2279.84 1469.03 L2275.82 1469.03 L2275.82 1465.19 L2280.03 1465.19 Q2283.48 1465.19 2285.31 1463.82 Q2287.14 1462.43 2287.14 1459.84 Q2287.14 1457.18 2285.24 1455.77 Q2283.36 1454.33 2279.84 1454.33 Q2277.92 1454.33 2275.72 1454.75 Q2273.52 1455.16 2270.89 1456.04 L2270.89 1451.88 Q2273.55 1451.14 2275.86 1450.77 Q2278.2 1450.39 2280.26 1450.39 Q2285.58 1450.39 2288.69 1452.83 Q2291.79 1455.23 2291.79 1459.35 Q2291.79 1462.22 2290.15 1464.21 Q2288.5 1466.18 2285.47 1466.95 Z" fill="#000000" fill-rule="nonzero" fill-opacity="1" /><path clip-path="url(#clip690)" d="M2311.46 1454.1 Q2307.85 1454.1 2306.02 1457.66 Q2304.22 1461.2 2304.22 1468.33 Q2304.22 1475.44 2306.02 1479.01 Q2307.85 1482.55 2311.46 1482.55 Q2315.1 1482.55 2316.9 1479.01 Q2318.73 1475.44 2318.73 1468.33 Q2318.73 1461.2 2316.9 1457.66 Q2315.1 1454.1 2311.46 1454.1 M2311.46 1450.39 Q2317.27 1450.39 2320.33 1455 Q2323.41 1459.58 2323.41 1468.33 Q2323.41 1477.06 2320.33 1481.67 Q2317.27 1486.25 2311.46 1486.25 Q2305.65 1486.25 2302.58 1481.67 Q2299.52 1477.06 2299.52 1468.33 Q2299.52 1459.58 2302.58 1455 Q2305.65 1450.39 2311.46 1450.39 Z" fill="#000000" fill-rule="nonzero" fill-opacity="1" /><path clip-path="url(#clip690)" d="M1118.29 1533.76 L1118.29 1539.24 Q1115.8 1537.87 1113.29 1537.2 Q1110.81 1536.5 1108.26 1536.5 Q1102.56 1536.5 1099.41 1540.13 Q1096.26 1543.73 1096.26 1550.25 Q1096.26 1556.78 1099.41 1560.4 Q1102.56 1564 1108.26 1564 Q1110.81 1564 1113.29 1563.33 Q1115.8 1562.63 1118.29 1561.26 L1118.29 1566.68 Q1115.83 1567.82 1113.19 1568.39 Q1110.58 1568.97 1107.62 1568.97 Q1099.57 1568.97 1094.83 1563.91 Q1090.09 1558.85 1090.09 1550.25 Q1090.09 1541.53 1094.86 1536.53 Q1099.67 1531.54 1108 1531.54 Q1110.71 1531.54 1113.29 1532.11 Q1115.87 1532.65 1118.29 1533.76 Z" fill="#000000" fill-rule="nonzero" fill-opacity="1" /><path clip-path="url(#clip690)" d="M1158.1 1546.53 L1158.1 1568.04 L1152.25 1568.04 L1152.25 1546.72 Q1152.25 1541.66 1150.27 1539.14 Q1148.3 1536.63 1144.35 1536.63 Q1139.61 1536.63 1136.87 1539.65 Q1134.14 1542.68 1134.14 1547.9 L1134.14 1568.04 L1128.25 1568.04 L1128.25 1518.52 L1134.14 1518.52 L1134.14 1537.93 Q1136.24 1534.72 1139.07 1533.13 Q1141.93 1531.54 1145.66 1531.54 Q1151.8 1531.54 1154.95 1535.36 Q1158.1 1539.14 1158.1 1546.53 Z" fill="#000000" fill-rule="nonzero" fill-opacity="1" /><path clip-path="url(#clip690)" d="M1200.28 1548.76 L1200.28 1551.62 L1173.35 1551.62 Q1173.73 1557.67 1176.98 1560.85 Q1180.26 1564 1186.08 1564 Q1189.45 1564 1192.6 1563.17 Q1195.79 1562.35 1198.91 1560.69 L1198.91 1566.23 Q1195.76 1567.57 1192.45 1568.27 Q1189.14 1568.97 1185.73 1568.97 Q1177.2 1568.97 1172.2 1564 Q1167.24 1559.04 1167.24 1550.57 Q1167.24 1541.82 1171.95 1536.69 Q1176.69 1531.54 1184.71 1531.54 Q1191.9 1531.54 1196.07 1536.18 Q1200.28 1540.8 1200.28 1548.76 M1194.42 1547.04 Q1194.36 1542.23 1191.71 1539.37 Q1189.1 1536.5 1184.78 1536.5 Q1179.87 1536.5 1176.91 1539.27 Q1173.99 1542.04 1173.54 1547.07 L1194.42 1547.04 Z" fill="#000000" fill-rule="nonzero" fill-opacity="1" /><path clip-path="url(#clip690)" d="M1235.48 1550.25 Q1235.48 1543.79 1232.8 1540.13 Q1230.16 1536.44 1225.52 1536.44 Q1220.87 1536.44 1218.2 1540.13 Q1215.55 1543.79 1215.55 1550.25 Q1215.55 1556.71 1218.2 1560.4 Q1220.87 1564.07 1225.52 1564.07 Q1230.16 1564.07 1232.8 1560.4 Q1235.48 1556.71 1235.48 1550.25 M1215.55 1537.81 Q1217.4 1534.62 1220.2 1533.1 Q1223.03 1531.54 1226.95 1531.54 Q1233.44 1531.54 1237.48 1536.69 Q1241.56 1541.85 1241.56 1550.25 Q1241.56 1558.65 1237.48 1563.81 Q1233.44 1568.97 1226.95 1568.97 Q1223.03 1568.97 1220.2 1567.44 Q1217.4 1565.88 1215.55 1562.7 L1215.55 1568.04 L1209.67 1568.04 L1209.67 1518.52 L1215.55 1518.52 L1215.55 1537.81 Z" fill="#000000" fill-rule="nonzero" fill-opacity="1" /><path clip-path="url(#clip690)" d="M1266.1 1571.35 Q1263.61 1577.72 1261.26 1579.66 Q1258.9 1581.6 1254.96 1581.6 L1250.28 1581.6 L1250.28 1576.7 L1253.72 1576.7 Q1256.13 1576.7 1257.47 1575.56 Q1258.81 1574.41 1260.43 1570.14 L1261.48 1567.47 L1247.06 1532.4 L1253.27 1532.4 L1264.41 1560.28 L1275.55 1532.4 L1281.76 1532.4 L1266.1 1571.35 Z" fill="#000000" fill-rule="nonzero" fill-opacity="1" /><path clip-path="url(#clip690)" d="M1312.57 1533.45 L1312.57 1538.98 Q1310.08 1537.71 1307.41 1537.07 Q1304.74 1536.44 1301.87 1536.44 Q1297.51 1536.44 1295.32 1537.77 Q1293.15 1539.11 1293.15 1541.79 Q1293.15 1543.82 1294.71 1545 Q1296.27 1546.15 1300.98 1547.2 L1302.99 1547.64 Q1309.22 1548.98 1311.83 1551.43 Q1314.48 1553.85 1314.48 1558.21 Q1314.48 1563.17 1310.53 1566.07 Q1306.61 1568.97 1299.74 1568.97 Q1296.88 1568.97 1293.76 1568.39 Q1290.67 1567.85 1287.23 1566.74 L1287.23 1560.69 Q1290.48 1562.38 1293.63 1563.24 Q1296.78 1564.07 1299.87 1564.07 Q1304 1564.07 1306.23 1562.66 Q1308.46 1561.23 1308.46 1558.65 Q1308.46 1556.27 1306.84 1554.99 Q1305.25 1553.72 1299.8 1552.54 L1297.77 1552.07 Q1292.32 1550.92 1289.9 1548.56 Q1287.49 1546.18 1287.49 1542.04 Q1287.49 1537.01 1291.05 1534.27 Q1294.62 1531.54 1301.17 1531.54 Q1304.42 1531.54 1307.28 1532.01 Q1310.15 1532.49 1312.57 1533.45 Z" fill="#000000" fill-rule="nonzero" fill-opacity="1" /><path clip-path="url(#clip690)" d="M1353.43 1546.53 L1353.43 1568.04 L1347.58 1568.04 L1347.58 1546.72 Q1347.58 1541.66 1345.6 1539.14 Q1343.63 1536.63 1339.68 1536.63 Q1334.94 1536.63 1332.2 1539.65 Q1329.47 1542.68 1329.47 1547.9 L1329.47 1568.04 L1323.58 1568.04 L1323.58 1518.52 L1329.47 1518.52 L1329.47 1537.93 Q1331.57 1534.72 1334.4 1533.13 Q1337.27 1531.54 1340.99 1531.54 Q1347.13 1531.54 1350.28 1535.36 Q1353.43 1539.14 1353.43 1546.53 Z" fill="#000000" fill-rule="nonzero" fill-opacity="1" /><path clip-path="url(#clip690)" d="M1395.61 1548.76 L1395.61 1551.62 L1368.68 1551.62 Q1369.06 1557.67 1372.31 1560.85 Q1375.59 1564 1381.41 1564 Q1384.79 1564 1387.94 1563.17 Q1391.12 1562.35 1394.24 1560.69 L1394.24 1566.23 Q1391.09 1567.57 1387.78 1568.27 Q1384.47 1568.97 1381.06 1568.97 Q1372.53 1568.97 1367.53 1564 Q1362.57 1559.04 1362.57 1550.57 Q1362.57 1541.82 1367.28 1536.69 Q1372.02 1531.54 1380.04 1531.54 Q1387.24 1531.54 1391.41 1536.18 Q1395.61 1540.8 1395.61 1548.76 M1389.75 1547.04 Q1389.69 1542.23 1387.05 1539.37 Q1384.44 1536.5 1380.11 1536.5 Q1375.21 1536.5 1372.25 1539.27 Q1369.32 1542.04 1368.87 1547.07 L1389.75 1547.04 Z" fill="#000000" fill-rule="nonzero" fill-opacity="1" /><path clip-path="url(#clip690)" d="M1401.02 1532.4 L1407.22 1532.4 L1418.36 1562.31 L1429.5 1532.4 L1435.71 1532.4 L1422.34 1568.04 L1414.39 1568.04 L1401.02 1532.4 Z" fill="#000000" fill-rule="nonzero" fill-opacity="1" /><path clip-path="url(#clip690)" d="M1478.33 1536.5 Q1473.62 1536.5 1470.88 1540.19 Q1468.14 1543.85 1468.14 1550.25 Q1468.14 1556.65 1470.85 1560.34 Q1473.59 1564 1478.33 1564 Q1483.01 1564 1485.75 1560.31 Q1488.48 1556.62 1488.48 1550.25 Q1488.48 1543.92 1485.75 1540.23 Q1483.01 1536.5 1478.33 1536.5 M1478.33 1531.54 Q1485.97 1531.54 1490.33 1536.5 Q1494.69 1541.47 1494.69 1550.25 Q1494.69 1559 1490.33 1564 Q1485.97 1568.97 1478.33 1568.97 Q1470.66 1568.97 1466.3 1564 Q1461.97 1559 1461.97 1550.25 Q1461.97 1541.47 1466.3 1536.5 Q1470.66 1531.54 1478.33 1531.54 Z" fill="#000000" fill-rule="nonzero" fill-opacity="1" /><path clip-path="url(#clip690)" d="M1525.05 1537.87 Q1524.07 1537.3 1522.89 1537.04 Q1521.74 1536.76 1520.34 1536.76 Q1515.38 1536.76 1512.7 1540 Q1510.06 1543.22 1510.06 1549.27 L1510.06 1568.04 L1504.17 1568.04 L1504.17 1532.4 L1510.06 1532.4 L1510.06 1537.93 Q1511.91 1534.69 1514.87 1533.13 Q1517.83 1531.54 1522.06 1531.54 Q1522.67 1531.54 1523.4 1531.63 Q1524.13 1531.7 1525.02 1531.85 L1525.05 1537.87 Z" fill="#000000" fill-rule="nonzero" fill-opacity="1" /><path clip-path="url(#clip690)" d="M1553.51 1537.81 L1553.51 1518.52 L1559.37 1518.52 L1559.37 1568.04 L1553.51 1568.04 L1553.51 1562.7 Q1551.66 1565.88 1548.83 1567.44 Q1546.03 1568.97 1542.08 1568.97 Q1535.62 1568.97 1531.55 1563.81 Q1527.5 1558.65 1527.5 1550.25 Q1527.5 1541.85 1531.55 1536.69 Q1535.62 1531.54 1542.08 1531.54 Q1546.03 1531.54 1548.83 1533.1 Q1551.66 1534.62 1553.51 1537.81 M1533.55 1550.25 Q1533.55 1556.71 1536.19 1560.4 Q1538.87 1564.07 1543.51 1564.07 Q1548.16 1564.07 1550.84 1560.4 Q1553.51 1556.71 1553.51 1550.25 Q1553.51 1543.79 1550.84 1540.13 Q1548.16 1536.44 1543.51 1536.44 Q1538.87 1536.44 1536.19 1540.13 Q1533.55 1543.79 1533.55 1550.25 Z" fill="#000000" fill-rule="nonzero" fill-opacity="1" /><path clip-path="url(#clip690)" d="M1601.92 1548.76 L1601.92 1551.62 L1574.99 1551.62 Q1575.37 1557.67 1578.62 1560.85 Q1581.9 1564 1587.72 1564 Q1591.1 1564 1594.25 1563.17 Q1597.43 1562.35 1600.55 1560.69 L1600.55 1566.23 Q1597.4 1567.57 1594.09 1568.27 Q1590.78 1568.97 1587.37 1568.97 Q1578.84 1568.97 1573.85 1564 Q1568.88 1559.04 1568.88 1550.57 Q1568.88 1541.82 1573.59 1536.69 Q1578.33 1531.54 1586.36 1531.54 Q1593.55 1531.54 1597.72 1536.18 Q1601.92 1540.8 1601.92 1548.76 M1596.06 1547.04 Q1596 1542.23 1593.36 1539.37 Q1590.75 1536.5 1586.42 1536.5 Q1581.52 1536.5 1578.56 1539.27 Q1575.63 1542.04 1575.18 1547.07 L1596.06 1547.04 Z" fill="#000000" fill-rule="nonzero" fill-opacity="1" /><path clip-path="url(#clip690)" d="M1632.19 1537.87 Q1631.2 1537.3 1630.02 1537.04 Q1628.88 1536.76 1627.48 1536.76 Q1622.51 1536.76 1619.84 1540 Q1617.2 1543.22 1617.2 1549.27 L1617.2 1568.04 L1611.31 1568.04 L1611.31 1532.4 L1617.2 1532.4 L1617.2 1537.93 Q1619.04 1534.69 1622 1533.13 Q1624.96 1531.54 1629.2 1531.54 Q1629.8 1531.54 1630.53 1531.63 Q1631.27 1531.7 1632.16 1531.85 L1632.19 1537.87 Z" fill="#000000" fill-rule="nonzero" fill-opacity="1" /><polyline clip-path="url(#clip692)" style="stroke:#000000; stroke-linecap:round; stroke-linejoin:round; stroke-width:2; stroke-opacity:0.1; fill:none" points="369.518,1387.15 2352.76,1387.15 "/>
<polyline clip-path="url(#clip692)" style="stroke:#000000; stroke-linecap:round; stroke-linejoin:round; stroke-width:2; stroke-opacity:0.1; fill:none" points="369.518,1041.75 2352.76,1041.75 "/>
<polyline clip-path="url(#clip692)" style="stroke:#000000; stroke-linecap:round; stroke-linejoin:round; stroke-width:2; stroke-opacity:0.1; fill:none" points="369.518,696.344 2352.76,696.344 "/>
<polyline clip-path="url(#clip692)" style="stroke:#000000; stroke-linecap:round; stroke-linejoin:round; stroke-width:2; stroke-opacity:0.1; fill:none" points="369.518,350.94 2352.76,350.94 "/>
<polyline clip-path="url(#clip690)" style="stroke:#000000; stroke-linecap:round; stroke-linejoin:round; stroke-width:4; stroke-opacity:1; fill:none" points="369.518,1423.18 369.518,149.392 "/>
<polyline clip-path="url(#clip690)" style="stroke:#000000; stroke-linecap:round; stroke-linejoin:round; stroke-width:4; stroke-opacity:1; fill:none" points="369.518,1387.15 388.416,1387.15 "/>
<polyline clip-path="url(#clip690)" style="stroke:#000000; stroke-linecap:round; stroke-linejoin:round; stroke-width:4; stroke-opacity:1; fill:none" points="369.518,1041.75 388.416,1041.75 "/>
<polyline clip-path="url(#clip690)" style="stroke:#000000; stroke-linecap:round; stroke-linejoin:round; stroke-width:4; stroke-opacity:1; fill:none" points="369.518,696.344 388.416,696.344 "/>
<polyline clip-path="url(#clip690)" style="stroke:#000000; stroke-linecap:round; stroke-linejoin:round; stroke-width:4; stroke-opacity:1; fill:none" points="369.518,350.94 388.416,350.94 "/>
<path clip-path="url(#clip690)" d="M321.574 1372.95 Q317.963 1372.95 316.134 1376.52 Q314.329 1380.06 314.329 1387.19 Q314.329 1394.29 316.134 1397.86 Q317.963 1401.4 321.574 1401.4 Q325.208 1401.4 327.014 1397.86 Q328.842 1394.29 328.842 1387.19 Q328.842 1380.06 327.014 1376.52 Q325.208 1372.95 321.574 1372.95 M321.574 1369.25 Q327.384 1369.25 330.44 1373.85 Q333.518 1378.44 333.518 1387.19 Q333.518 1395.91 330.44 1400.52 Q327.384 1405.1 321.574 1405.1 Q315.764 1405.1 312.685 1400.52 Q309.629 1395.91 309.629 1387.19 Q309.629 1378.44 312.685 1373.85 Q315.764 1369.25 321.574 1369.25 Z" fill="#000000" fill-rule="nonzero" fill-opacity="1" /><path clip-path="url(#clip690)" d="M115.718 1030.92 L134.075 1030.92 L134.075 1034.85 L120.001 1034.85 L120.001 1043.32 Q121.019 1042.98 122.038 1042.81 Q123.056 1042.63 124.075 1042.63 Q129.862 1042.63 133.242 1045.8 Q136.621 1048.97 136.621 1054.39 Q136.621 1059.97 133.149 1063.07 Q129.677 1066.15 123.357 1066.15 Q121.181 1066.15 118.913 1065.78 Q116.668 1065.41 114.26 1064.67 L114.26 1059.97 Q116.343 1061.1 118.566 1061.66 Q120.788 1062.21 123.265 1062.21 Q127.269 1062.21 129.607 1060.11 Q131.945 1058 131.945 1054.39 Q131.945 1050.78 129.607 1048.67 Q127.269 1046.56 123.265 1046.56 Q121.39 1046.56 119.515 1046.98 Q117.663 1047.4 115.718 1048.28 L115.718 1030.92 Z" fill="#000000" fill-rule="nonzero" fill-opacity="1" /><path clip-path="url(#clip690)" d="M145.834 1059.6 L150.718 1059.6 L150.718 1065.48 L145.834 1065.48 L145.834 1059.6 Z" fill="#000000" fill-rule="nonzero" fill-opacity="1" /><path clip-path="url(#clip690)" d="M170.903 1033.99 Q167.292 1033.99 165.464 1037.56 Q163.658 1041.1 163.658 1048.23 Q163.658 1055.34 165.464 1058.9 Q167.292 1062.44 170.903 1062.44 Q174.538 1062.44 176.343 1058.9 Q178.172 1055.34 178.172 1048.23 Q178.172 1041.1 176.343 1037.56 Q174.538 1033.99 170.903 1033.99 M170.903 1030.29 Q176.714 1030.29 179.769 1034.9 Q182.848 1039.48 182.848 1048.23 Q182.848 1056.96 179.769 1061.56 Q176.714 1066.15 170.903 1066.15 Q165.093 1066.15 162.015 1061.56 Q158.959 1056.96 158.959 1048.23 Q158.959 1039.48 162.015 1034.9 Q165.093 1030.29 170.903 1030.29 Z" fill="#000000" fill-rule="nonzero" fill-opacity="1" /><path clip-path="url(#clip690)" d="M201.065 1033.99 Q197.454 1033.99 195.625 1037.56 Q193.82 1041.1 193.82 1048.23 Q193.82 1055.34 195.625 1058.9 Q197.454 1062.44 201.065 1062.44 Q204.699 1062.44 206.505 1058.9 Q208.334 1055.34 208.334 1048.23 Q208.334 1041.1 206.505 1037.56 Q204.699 1033.99 201.065 1033.99 M201.065 1030.29 Q206.875 1030.29 209.931 1034.9 Q213.01 1039.48 213.01 1048.23 Q213.01 1056.96 209.931 1061.56 Q206.875 1066.15 201.065 1066.15 Q195.255 1066.15 192.176 1061.56 Q189.121 1056.96 189.121 1048.23 Q189.121 1039.48 192.176 1034.9 Q195.255 1030.29 201.065 1030.29 Z" fill="#000000" fill-rule="nonzero" fill-opacity="1" /><path clip-path="url(#clip690)" d="M249.398 1040.01 L238.82 1050.64 L249.398 1061.22 L246.644 1064.02 L236.019 1053.39 L225.394 1064.02 L222.662 1061.22 L233.218 1050.64 L222.662 1040.01 L225.394 1037.21 L236.019 1047.84 L246.644 1037.21 L249.398 1040.01 Z" fill="#000000" fill-rule="nonzero" fill-opacity="1" /><path clip-path="url(#clip690)" d="M261.759 1061.54 L269.398 1061.54 L269.398 1035.17 L261.088 1036.84 L261.088 1032.58 L269.352 1030.92 L274.028 1030.92 L274.028 1061.54 L281.667 1061.54 L281.667 1065.48 L261.759 1065.48 L261.759 1061.54 Z" fill="#000000" fill-rule="nonzero" fill-opacity="1" /><path clip-path="url(#clip690)" d="M301.111 1033.99 Q297.5 1033.99 295.671 1037.56 Q293.866 1041.1 293.866 1048.23 Q293.866 1055.34 295.671 1058.9 Q297.5 1062.44 301.111 1062.44 Q304.745 1062.44 306.551 1058.9 Q308.379 1055.34 308.379 1048.23 Q308.379 1041.1 306.551 1037.56 Q304.745 1033.99 301.111 1033.99 M301.111 1030.29 Q306.921 1030.29 309.977 1034.9 Q313.055 1039.48 313.055 1048.23 Q313.055 1056.96 309.977 1061.56 Q306.921 1066.15 301.111 1066.15 Q295.301 1066.15 292.222 1061.56 Q289.167 1056.96 289.167 1048.23 Q289.167 1039.48 292.222 1034.9 Q295.301 1030.29 301.111 1030.29 Z" fill="#000000" fill-rule="nonzero" fill-opacity="1" /><path clip-path="url(#clip690)" d="M325.732 1013.3 L316.14 1028.29 L325.732 1028.29 L325.732 1013.3 M324.735 1009.99 L329.512 1009.99 L329.512 1028.29 L333.518 1028.29 L333.518 1031.44 L329.512 1031.44 L329.512 1038.07 L325.732 1038.07 L325.732 1031.44 L313.055 1031.44 L313.055 1027.78 L324.735 1009.99 Z" fill="#000000" fill-rule="nonzero" fill-opacity="1" /><path clip-path="url(#clip690)" d="M118.777 716.136 L126.416 716.136 L126.416 689.771 L118.106 691.437 L118.106 687.178 L126.369 685.511 L131.045 685.511 L131.045 716.136 L138.684 716.136 L138.684 720.071 L118.777 720.071 L118.777 716.136 Z" fill="#000000" fill-rule="nonzero" fill-opacity="1" /><path clip-path="url(#clip690)" d="M148.129 714.192 L153.013 714.192 L153.013 720.071 L148.129 720.071 L148.129 714.192 Z" fill="#000000" fill-rule="nonzero" fill-opacity="1" /><path clip-path="url(#clip690)" d="M173.198 688.59 Q169.587 688.59 167.758 692.155 Q165.953 695.696 165.953 702.826 Q165.953 709.933 167.758 713.497 Q169.587 717.039 173.198 717.039 Q176.832 717.039 178.638 713.497 Q180.466 709.933 180.466 702.826 Q180.466 695.696 178.638 692.155 Q176.832 688.59 173.198 688.59 M173.198 684.886 Q179.008 684.886 182.064 689.493 Q185.142 694.076 185.142 702.826 Q185.142 711.553 182.064 716.159 Q179.008 720.743 173.198 720.743 Q167.388 720.743 164.309 716.159 Q161.254 711.553 161.254 702.826 Q161.254 694.076 164.309 689.493 Q167.388 684.886 173.198 684.886 Z" fill="#000000" fill-rule="nonzero" fill-opacity="1" /><path clip-path="url(#clip690)" d="M203.36 688.59 Q199.749 688.59 197.92 692.155 Q196.114 695.696 196.114 702.826 Q196.114 709.933 197.92 713.497 Q199.749 717.039 203.36 717.039 Q206.994 717.039 208.8 713.497 Q210.628 709.933 210.628 702.826 Q210.628 695.696 208.8 692.155 Q206.994 688.59 203.36 688.59 M203.36 684.886 Q209.17 684.886 212.225 689.493 Q215.304 694.076 215.304 702.826 Q215.304 711.553 212.225 716.159 Q209.17 720.743 203.36 720.743 Q197.55 720.743 194.471 716.159 Q191.415 711.553 191.415 702.826 Q191.415 694.076 194.471 689.493 Q197.55 684.886 203.36 684.886 Z" fill="#000000" fill-rule="nonzero" fill-opacity="1" /><path clip-path="url(#clip690)" d="M251.693 694.609 L241.114 705.233 L251.693 715.812 L248.938 718.613 L238.313 707.988 L227.688 718.613 L224.957 715.812 L235.512 705.233 L224.957 694.609 L227.688 691.808 L238.313 702.433 L248.938 691.808 L251.693 694.609 Z" fill="#000000" fill-rule="nonzero" fill-opacity="1" /><path clip-path="url(#clip690)" d="M264.054 716.136 L271.693 716.136 L271.693 689.771 L263.383 691.437 L263.383 687.178 L271.646 685.511 L276.322 685.511 L276.322 716.136 L283.961 716.136 L283.961 720.071 L264.054 720.071 L264.054 716.136 Z" fill="#000000" fill-rule="nonzero" fill-opacity="1" /><path clip-path="url(#clip690)" d="M303.406 688.59 Q299.794 688.59 297.966 692.155 Q296.16 695.696 296.16 702.826 Q296.16 709.933 297.966 713.497 Q299.794 717.039 303.406 717.039 Q307.04 717.039 308.845 713.497 Q310.674 709.933 310.674 702.826 Q310.674 695.696 308.845 692.155 Q307.04 688.59 303.406 688.59 M303.406 684.886 Q309.216 684.886 312.271 689.493 Q315.35 694.076 315.35 702.826 Q315.35 711.553 312.271 716.159 Q309.216 720.743 303.406 720.743 Q297.595 720.743 294.517 716.159 Q291.461 711.553 291.461 702.826 Q291.461 694.076 294.517 689.493 Q297.595 684.886 303.406 684.886 Z" fill="#000000" fill-rule="nonzero" fill-opacity="1" /><path clip-path="url(#clip690)" d="M316.535 664.581 L331.449 664.581 L331.449 667.778 L320.014 667.778 L320.014 674.662 Q320.842 674.38 321.669 674.248 Q322.497 674.098 323.324 674.098 Q328.026 674.098 330.772 676.674 Q333.518 679.251 333.518 683.652 Q333.518 688.185 330.697 690.705 Q327.876 693.206 322.741 693.206 Q320.973 693.206 319.13 692.905 Q317.306 692.605 315.35 692.003 L315.35 688.185 Q317.043 689.106 318.848 689.558 Q320.654 690.009 322.666 690.009 Q325.92 690.009 327.819 688.298 Q329.719 686.586 329.719 683.652 Q329.719 680.718 327.819 679.007 Q325.92 677.295 322.666 677.295 Q321.143 677.295 319.619 677.634 Q318.115 677.972 316.535 678.687 L316.535 664.581 Z" fill="#000000" fill-rule="nonzero" fill-opacity="1" /><path clip-path="url(#clip690)" d="M118.777 370.732 L126.416 370.732 L126.416 344.366 L118.106 346.033 L118.106 341.774 L126.369 340.107 L131.045 340.107 L131.045 370.732 L138.684 370.732 L138.684 374.667 L118.777 374.667 L118.777 370.732 Z" fill="#000000" fill-rule="nonzero" fill-opacity="1" /><path clip-path="url(#clip690)" d="M148.129 368.788 L153.013 368.788 L153.013 374.667 L148.129 374.667 L148.129 368.788 Z" fill="#000000" fill-rule="nonzero" fill-opacity="1" /><path clip-path="url(#clip690)" d="M163.244 340.107 L181.601 340.107 L181.601 344.042 L167.527 344.042 L167.527 352.515 Q168.545 352.167 169.564 352.005 Q170.582 351.82 171.601 351.82 Q177.388 351.82 180.767 354.991 Q184.147 358.163 184.147 363.579 Q184.147 369.158 180.675 372.26 Q177.203 375.339 170.883 375.339 Q168.707 375.339 166.439 374.968 Q164.193 374.598 161.786 373.857 L161.786 369.158 Q163.869 370.292 166.091 370.848 Q168.314 371.403 170.791 371.403 Q174.795 371.403 177.133 369.297 Q179.471 367.19 179.471 363.579 Q179.471 359.968 177.133 357.862 Q174.795 355.755 170.791 355.755 Q168.916 355.755 167.041 356.172 Q165.189 356.589 163.244 357.468 L163.244 340.107 Z" fill="#000000" fill-rule="nonzero" fill-opacity="1" /><path clip-path="url(#clip690)" d="M203.36 343.186 Q199.749 343.186 197.92 346.751 Q196.114 350.292 196.114 357.422 Q196.114 364.528 197.92 368.093 Q199.749 371.635 203.36 371.635 Q206.994 371.635 208.8 368.093 Q210.628 364.528 210.628 357.422 Q210.628 350.292 208.8 346.751 Q206.994 343.186 203.36 343.186 M203.36 339.482 Q209.17 339.482 212.225 344.089 Q215.304 348.672 215.304 357.422 Q215.304 366.149 212.225 370.755 Q209.17 375.339 203.36 375.339 Q197.55 375.339 194.471 370.755 Q191.415 366.149 191.415 357.422 Q191.415 348.672 194.471 344.089 Q197.55 339.482 203.36 339.482 Z" fill="#000000" fill-rule="nonzero" fill-opacity="1" /><path clip-path="url(#clip690)" d="M251.693 349.204 L241.114 359.829 L251.693 370.408 L248.938 373.209 L238.313 362.584 L227.688 373.209 L224.957 370.408 L235.512 359.829 L224.957 349.204 L227.688 346.404 L238.313 357.028 L248.938 346.404 L251.693 349.204 Z" fill="#000000" fill-rule="nonzero" fill-opacity="1" /><path clip-path="url(#clip690)" d="M264.054 370.732 L271.693 370.732 L271.693 344.366 L263.383 346.033 L263.383 341.774 L271.646 340.107 L276.322 340.107 L276.322 370.732 L283.961 370.732 L283.961 374.667 L264.054 374.667 L264.054 370.732 Z" fill="#000000" fill-rule="nonzero" fill-opacity="1" /><path clip-path="url(#clip690)" d="M303.406 343.186 Q299.794 343.186 297.966 346.751 Q296.16 350.292 296.16 357.422 Q296.16 364.528 297.966 368.093 Q299.794 371.635 303.406 371.635 Q307.04 371.635 308.845 368.093 Q310.674 364.528 310.674 357.422 Q310.674 350.292 308.845 346.751 Q307.04 343.186 303.406 343.186 M303.406 339.482 Q309.216 339.482 312.271 344.089 Q315.35 348.672 315.35 357.422 Q315.35 366.149 312.271 370.755 Q309.216 375.339 303.406 375.339 Q297.595 375.339 294.517 370.755 Q291.461 366.149 291.461 357.422 Q291.461 348.672 294.517 344.089 Q297.595 339.482 303.406 339.482 Z" fill="#000000" fill-rule="nonzero" fill-opacity="1" /><path clip-path="url(#clip690)" d="M316.535 319.177 L331.449 319.177 L331.449 322.374 L320.014 322.374 L320.014 329.258 Q320.842 328.976 321.669 328.844 Q322.497 328.694 323.324 328.694 Q328.026 328.694 330.772 331.27 Q333.518 333.847 333.518 338.248 Q333.518 342.781 330.697 345.301 Q327.876 347.802 322.741 347.802 Q320.973 347.802 319.13 347.501 Q317.306 347.2 315.35 346.599 L315.35 342.781 Q317.043 343.702 318.848 344.154 Q320.654 344.605 322.666 344.605 Q325.92 344.605 327.819 342.893 Q329.719 341.182 329.719 338.248 Q329.719 335.314 327.819 333.602 Q325.92 331.891 322.666 331.891 Q321.143 331.891 319.619 332.229 Q318.115 332.568 316.535 333.283 L316.535 319.177 Z" fill="#000000" fill-rule="nonzero" fill-opacity="1" /><path clip-path="url(#clip690)" d="M41.7242 842.447 Q42.4244 840.379 44.7161 838.437 Q47.0077 836.464 51.0181 834.49 L64.0042 827.965 L64.0042 834.872 L51.8138 840.951 Q47.0395 843.307 45.48 845.535 Q43.9204 847.731 43.9204 851.55 L43.9204 858.553 L64.0042 858.553 L64.0042 864.982 L16.4842 864.982 L16.4842 850.468 Q16.4842 842.32 19.8898 838.31 Q23.2955 834.299 30.1704 834.299 Q34.6582 834.299 37.6183 836.4 Q40.5784 838.469 41.7242 842.447 M21.7677 858.553 L38.6368 858.553 L38.6368 850.468 Q38.6368 845.821 36.5043 843.466 Q34.34 841.079 30.1704 841.079 Q26.0009 841.079 23.9002 843.466 Q21.7677 845.821 21.7677 850.468 L21.7677 858.553 Z" fill="#000000" fill-rule="nonzero" fill-opacity="1" /><path clip-path="url(#clip690)" d="M46.0847 805.176 Q46.0847 812.274 47.7079 815.011 Q49.3312 817.748 53.2461 817.748 Q56.3653 817.748 58.2114 815.711 Q60.0256 813.643 60.0256 810.11 Q60.0256 805.24 56.5881 802.312 Q53.1188 799.352 47.3897 799.352 L46.0847 799.352 L46.0847 805.176 M43.6657 793.495 L64.0042 793.495 L64.0042 799.352 L58.5933 799.352 Q61.8398 801.357 63.3994 804.349 Q64.9272 807.341 64.9272 811.669 Q64.9272 817.144 61.8716 820.39 Q58.7843 823.605 53.6281 823.605 Q47.6125 823.605 44.5569 819.595 Q41.5014 815.552 41.5014 807.563 L41.5014 799.352 L40.9285 799.352 Q36.8862 799.352 34.6901 802.025 Q32.4621 804.667 32.4621 809.473 Q32.4621 812.529 33.1941 815.425 Q33.9262 818.321 35.3903 820.995 L29.9795 820.995 Q28.7381 817.78 28.1334 814.757 Q27.4968 811.733 27.4968 808.868 Q27.4968 801.134 31.5072 797.315 Q35.5176 793.495 43.6657 793.495 Z" fill="#000000" fill-rule="nonzero" fill-opacity="1" /><path clip-path="url(#clip690)" d="M18.2347 775.639 L28.3562 775.639 L28.3562 763.576 L32.9077 763.576 L32.9077 775.639 L52.2594 775.639 Q56.6199 775.639 57.8613 774.462 Q59.1026 773.252 59.1026 769.592 L59.1026 763.576 L64.0042 763.576 L64.0042 769.592 Q64.0042 776.371 61.4897 778.95 Q58.9434 781.528 52.2594 781.528 L32.9077 781.528 L32.9077 785.824 L28.3562 785.824 L28.3562 781.528 L18.2347 781.528 L18.2347 775.639 Z" fill="#000000" fill-rule="nonzero" fill-opacity="1" /><path clip-path="url(#clip690)" d="M28.3562 755.874 L28.3562 750.017 L64.0042 750.017 L64.0042 755.874 L28.3562 755.874 M14.479 755.874 L14.479 750.017 L21.895 750.017 L21.895 755.874 L14.479 755.874 Z" fill="#000000" fill-rule="nonzero" fill-opacity="1" /><path clip-path="url(#clip690)" d="M32.4621 723.95 Q32.4621 728.66 36.1542 731.398 Q39.8145 734.135 46.212 734.135 Q52.6095 734.135 56.3017 731.43 Q59.9619 728.692 59.9619 723.95 Q59.9619 719.271 56.2698 716.534 Q52.5777 713.796 46.212 713.796 Q39.8781 713.796 36.186 716.534 Q32.4621 719.271 32.4621 723.95 M27.4968 723.95 Q27.4968 716.311 32.4621 711.95 Q37.4273 707.59 46.212 707.59 Q54.9649 707.59 59.9619 711.95 Q64.9272 716.311 64.9272 723.95 Q64.9272 731.62 59.9619 735.981 Q54.9649 740.31 46.212 740.31 Q37.4273 740.31 32.4621 735.981 Q27.4968 731.62 27.4968 723.95 Z" fill="#000000" fill-rule="nonzero" fill-opacity="1" /><path clip-path="url(#clip690)" d="M821.05 23.76 L857.595 23.76 L857.595 28.679 L842.26 28.679 L842.26 66.96 L836.386 66.96 L836.386 28.679 L821.05 28.679 L821.05 23.76 Z" fill="#000000" fill-rule="nonzero" fill-opacity="1" /><path clip-path="url(#clip690)" d="M861.183 34.5528 L866.507 34.5528 L866.507 66.96 L861.183 66.96 L861.183 34.5528 M861.183 21.9371 L866.507 21.9371 L866.507 28.679 L861.183 28.679 L861.183 21.9371 Z" fill="#000000" fill-rule="nonzero" fill-opacity="1" /><path clip-path="url(#clip690)" d="M902.879 40.7738 Q904.875 37.1859 907.653 35.4787 Q910.431 33.7715 914.192 33.7715 Q919.256 33.7715 922.005 37.3305 Q924.753 40.8606 924.753 47.3999 L924.753 66.96 L919.4 66.96 L919.4 47.5735 Q919.4 42.915 917.751 40.6581 Q916.102 38.4011 912.716 38.4011 Q908.579 38.4011 906.177 41.15 Q903.776 43.8988 903.776 48.6441 L903.776 66.96 L898.423 66.96 L898.423 47.5735 Q898.423 42.8861 896.773 40.6581 Q895.124 38.4011 891.681 38.4011 Q887.601 38.4011 885.199 41.1789 Q882.798 43.9277 882.798 48.6441 L882.798 66.96 L877.445 66.96 L877.445 34.5528 L882.798 34.5528 L882.798 39.5875 Q884.621 36.6072 887.167 35.1893 Q889.713 33.7715 893.214 33.7715 Q896.744 33.7715 899.204 35.5655 Q901.692 37.3595 902.879 40.7738 Z" fill="#000000" fill-rule="nonzero" fill-opacity="1" /><path clip-path="url(#clip690)" d="M963.092 49.4254 L963.092 52.0295 L938.613 52.0295 Q938.961 57.5272 941.912 60.4207 Q944.892 63.2853 950.187 63.2853 Q953.254 63.2853 956.119 62.5329 Q959.012 61.7806 961.848 60.276 L961.848 65.3107 Q958.984 66.526 955.974 67.1625 Q952.965 67.7991 949.869 67.7991 Q942.114 67.7991 937.572 63.2853 Q933.058 58.7714 933.058 51.0747 Q933.058 43.1175 937.34 38.459 Q941.651 33.7715 948.943 33.7715 Q955.482 33.7715 959.273 37.996 Q963.092 42.1916 963.092 49.4254 M957.768 47.8629 Q957.71 43.4937 955.309 40.8895 Q952.936 38.2854 949.001 38.2854 Q944.545 38.2854 941.854 40.8027 Q939.192 43.3201 938.787 47.8918 L957.768 47.8629 Z" fill="#000000" fill-rule="nonzero" fill-opacity="1" /><path clip-path="url(#clip690)" d="M1009.45 39.5296 Q1008.55 39.0088 1007.48 38.7773 Q1006.44 38.5169 1005.16 38.5169 Q1000.65 38.5169 998.219 41.4682 Q995.818 44.3907 995.818 49.8883 L995.818 66.96 L990.465 66.96 L990.465 34.5528 L995.818 34.5528 L995.818 39.5875 Q997.496 36.6361 1000.19 35.2183 Q1002.88 33.7715 1006.73 33.7715 Q1007.28 33.7715 1007.94 33.8583 Q1008.61 33.9162 1009.42 34.0609 L1009.45 39.5296 Z" fill="#000000" fill-rule="nonzero" fill-opacity="1" /><path clip-path="url(#clip690)" d="M1029.76 50.6696 Q1023.31 50.6696 1020.82 52.1453 Q1018.33 53.621 1018.33 57.18 Q1018.33 60.0156 1020.18 61.6938 Q1022.06 63.3431 1025.27 63.3431 Q1029.7 63.3431 1032.36 60.2181 Q1035.05 57.0642 1035.05 51.8559 L1035.05 50.6696 L1029.76 50.6696 M1040.38 48.4705 L1040.38 66.96 L1035.05 66.96 L1035.05 62.041 Q1033.23 64.9924 1030.51 66.4102 Q1027.79 67.7991 1023.86 67.7991 Q1018.88 67.7991 1015.93 65.0214 Q1013.01 62.2147 1013.01 57.5272 Q1013.01 52.0585 1016.65 49.2807 Q1020.33 46.5029 1027.59 46.5029 L1035.05 46.5029 L1035.05 45.9821 Q1035.05 42.3074 1032.62 40.3108 Q1030.22 38.2854 1025.85 38.2854 Q1023.07 38.2854 1020.44 38.9509 Q1017.81 39.6164 1015.38 40.9474 L1015.38 36.0285 Q1018.3 34.9 1021.05 34.3502 Q1023.8 33.7715 1026.4 33.7715 Q1033.43 33.7715 1036.91 37.4173 Q1040.38 41.0631 1040.38 48.4705 Z" fill="#000000" fill-rule="nonzero" fill-opacity="1" /><path clip-path="url(#clip690)" d="M1056.61 25.3514 L1056.61 34.5528 L1067.58 34.5528 L1067.58 38.6905 L1056.61 38.6905 L1056.61 56.283 Q1056.61 60.2471 1057.68 61.3755 Q1058.78 62.504 1062.11 62.504 L1067.58 62.504 L1067.58 66.96 L1062.11 66.96 Q1055.94 66.96 1053.6 64.6741 Q1051.26 62.3593 1051.26 56.283 L1051.26 38.6905 L1047.35 38.6905 L1047.35 34.5528 L1051.26 34.5528 L1051.26 25.3514 L1056.61 25.3514 Z" fill="#000000" fill-rule="nonzero" fill-opacity="1" /><path clip-path="url(#clip690)" d="M1074.58 34.5528 L1079.9 34.5528 L1079.9 66.96 L1074.58 66.96 L1074.58 34.5528 M1074.58 21.9371 L1079.9 21.9371 L1079.9 28.679 L1074.58 28.679 L1074.58 21.9371 Z" fill="#000000" fill-rule="nonzero" fill-opacity="1" /><path clip-path="url(#clip690)" d="M1103.6 38.2854 Q1099.32 38.2854 1096.83 41.6418 Q1094.34 44.9694 1094.34 50.7853 Q1094.34 56.6013 1096.8 59.9577 Q1099.29 63.2853 1103.6 63.2853 Q1107.85 63.2853 1110.34 59.9288 Q1112.83 56.5723 1112.83 50.7853 Q1112.83 45.0272 1110.34 41.6708 Q1107.85 38.2854 1103.6 38.2854 M1103.6 33.7715 Q1110.55 33.7715 1114.51 38.2854 Q1118.47 42.7992 1118.47 50.7853 Q1118.47 58.7425 1114.51 63.2853 Q1110.55 67.7991 1103.6 67.7991 Q1096.63 67.7991 1092.66 63.2853 Q1088.73 58.7425 1088.73 50.7853 Q1088.73 42.7992 1092.66 38.2854 Q1096.63 33.7715 1103.6 33.7715 Z" fill="#000000" fill-rule="nonzero" fill-opacity="1" /><path clip-path="url(#clip690)" d="M1128.66 59.6105 L1134.76 59.6105 L1134.76 64.5873 L1130.02 73.8465 L1126.29 73.8465 L1128.66 64.5873 L1128.66 59.6105 Z" fill="#000000" fill-rule="nonzero" fill-opacity="1" /><path clip-path="url(#clip690)" d="M1191.1 25.1778 L1191.1 30.878 Q1187.77 29.2866 1184.82 28.5053 Q1181.87 27.7241 1179.12 27.7241 Q1174.35 27.7241 1171.74 29.5759 Q1169.17 31.4278 1169.17 34.8421 Q1169.17 37.7067 1170.87 39.1824 Q1172.61 40.6291 1177.41 41.5261 L1180.94 42.2495 Q1187.48 43.4937 1190.58 46.6476 Q1193.7 49.7726 1193.7 55.0388 Q1193.7 61.3177 1189.48 64.5584 Q1185.28 67.7991 1177.15 67.7991 Q1174.09 67.7991 1170.61 67.1047 Q1167.17 66.4102 1163.47 65.0503 L1163.47 59.0318 Q1167.03 61.0283 1170.44 62.041 Q1173.86 63.0538 1177.15 63.0538 Q1182.16 63.0538 1184.88 61.0862 Q1187.6 59.1186 1187.6 55.4728 Q1187.6 52.2899 1185.63 50.496 Q1183.69 48.702 1179.24 47.805 L1175.68 47.1106 Q1169.14 45.8085 1166.22 43.0307 Q1163.29 40.253 1163.29 35.3051 Q1163.29 29.5759 1167.32 26.2773 Q1171.37 22.9788 1178.46 22.9788 Q1181.49 22.9788 1184.65 23.5285 Q1187.8 24.0783 1191.1 25.1778 Z" fill="#000000" fill-rule="nonzero" fill-opacity="1" /><path clip-path="url(#clip690)" d="M1216.07 69.9692 Q1213.81 75.7562 1211.67 77.5213 Q1209.53 79.2863 1205.94 79.2863 L1201.69 79.2863 L1201.69 74.8303 L1204.82 74.8303 Q1207.01 74.8303 1208.23 73.7887 Q1209.45 72.747 1210.92 68.8697 L1211.88 66.4392 L1198.77 34.5528 L1204.41 34.5528 L1214.54 59.8999 L1224.67 34.5528 L1230.31 34.5528 L1216.07 69.9692 Z" fill="#000000" fill-rule="nonzero" fill-opacity="1" /><path clip-path="url(#clip690)" d="M1262.89 40.7738 Q1264.88 37.1859 1267.66 35.4787 Q1270.44 33.7715 1274.2 33.7715 Q1279.27 33.7715 1282.01 37.3305 Q1284.76 40.8606 1284.76 47.3999 L1284.76 66.96 L1279.41 66.96 L1279.41 47.5735 Q1279.41 42.915 1277.76 40.6581 Q1276.11 38.4011 1272.73 38.4011 Q1268.59 38.4011 1266.19 41.15 Q1263.79 43.8988 1263.79 48.6441 L1263.79 66.96 L1258.43 66.96 L1258.43 47.5735 Q1258.43 42.8861 1256.78 40.6581 Q1255.13 38.4011 1251.69 38.4011 Q1247.61 38.4011 1245.21 41.1789 Q1242.81 43.9277 1242.81 48.6441 L1242.81 66.96 L1237.45 66.96 L1237.45 34.5528 L1242.81 34.5528 L1242.81 39.5875 Q1244.63 36.6072 1247.18 35.1893 Q1249.72 33.7715 1253.22 33.7715 Q1256.75 33.7715 1259.21 35.5655 Q1261.7 37.3595 1262.89 40.7738 Z" fill="#000000" fill-rule="nonzero" fill-opacity="1" /><path clip-path="url(#clip690)" d="M1318.65 50.7853 Q1318.65 44.9115 1316.22 41.584 Q1313.81 38.2275 1309.59 38.2275 Q1305.36 38.2275 1302.93 41.584 Q1300.53 44.9115 1300.53 50.7853 Q1300.53 56.6591 1302.93 60.0156 Q1305.36 63.3431 1309.59 63.3431 Q1313.81 63.3431 1316.22 60.0156 Q1318.65 56.6591 1318.65 50.7853 M1300.53 39.4717 Q1302.21 36.5782 1304.76 35.1893 Q1307.33 33.7715 1310.89 33.7715 Q1316.79 33.7715 1320.47 38.459 Q1324.17 43.1465 1324.17 50.7853 Q1324.17 58.4242 1320.47 63.1116 Q1316.79 67.7991 1310.89 67.7991 Q1307.33 67.7991 1304.76 66.4102 Q1302.21 64.9924 1300.53 62.0989 L1300.53 66.96 L1295.18 66.96 L1295.18 21.9371 L1300.53 21.9371 L1300.53 39.4717 Z" fill="#000000" fill-rule="nonzero" fill-opacity="1" /><path clip-path="url(#clip690)" d="M1345.56 38.2854 Q1341.27 38.2854 1338.78 41.6418 Q1336.3 44.9694 1336.3 50.7853 Q1336.3 56.6013 1338.76 59.9577 Q1341.24 63.2853 1345.56 63.2853 Q1349.81 63.2853 1352.3 59.9288 Q1354.79 56.5723 1354.79 50.7853 Q1354.79 45.0272 1352.3 41.6708 Q1349.81 38.2854 1345.56 38.2854 M1345.56 33.7715 Q1352.5 33.7715 1356.46 38.2854 Q1360.43 42.7992 1360.43 50.7853 Q1360.43 58.7425 1356.46 63.2853 Q1352.5 67.7991 1345.56 67.7991 Q1338.58 67.7991 1334.62 63.2853 Q1330.68 58.7425 1330.68 50.7853 Q1330.68 42.7992 1334.62 38.2854 Q1338.58 33.7715 1345.56 33.7715 Z" fill="#000000" fill-rule="nonzero" fill-opacity="1" /><path clip-path="url(#clip690)" d="M1369.25 21.9371 L1374.58 21.9371 L1374.58 66.96 L1369.25 66.96 L1369.25 21.9371 Z" fill="#000000" fill-rule="nonzero" fill-opacity="1" /><path clip-path="url(#clip690)" d="M1385.72 34.5528 L1391.04 34.5528 L1391.04 66.96 L1385.72 66.96 L1385.72 34.5528 M1385.72 21.9371 L1391.04 21.9371 L1391.04 28.679 L1385.72 28.679 L1385.72 21.9371 Z" fill="#000000" fill-rule="nonzero" fill-opacity="1" /><path clip-path="url(#clip690)" d="M1425.5 35.797 L1425.5 40.7738 Q1423.25 39.5296 1420.96 38.922 Q1418.7 38.2854 1416.39 38.2854 Q1411.21 38.2854 1408.34 41.584 Q1405.48 44.8536 1405.48 50.7853 Q1405.48 56.717 1408.34 60.0156 Q1411.21 63.2853 1416.39 63.2853 Q1418.7 63.2853 1420.96 62.6776 Q1423.25 62.041 1425.5 60.7968 L1425.5 65.7158 Q1423.28 66.7575 1420.87 67.2783 Q1418.5 67.7991 1415.81 67.7991 Q1408.49 67.7991 1404.18 63.1984 Q1399.87 58.5978 1399.87 50.7853 Q1399.87 42.8571 1404.21 38.3143 Q1408.58 33.7715 1416.16 33.7715 Q1418.62 33.7715 1420.96 34.2924 Q1423.3 34.7842 1425.5 35.797 Z" fill="#000000" fill-rule="nonzero" fill-opacity="1" /><path clip-path="url(#clip690)" d="M1455.42 35.5076 L1455.42 40.5423 Q1453.16 39.3849 1450.73 38.8062 Q1448.3 38.2275 1445.7 38.2275 Q1441.74 38.2275 1439.74 39.4428 Q1437.77 40.6581 1437.77 43.0886 Q1437.77 44.9404 1439.19 46.011 Q1440.61 47.0527 1444.89 48.0076 L1446.71 48.4126 Q1452.38 49.6279 1454.76 51.8559 Q1457.16 54.055 1457.16 58.0191 Q1457.16 62.5329 1453.57 65.166 Q1450.01 67.7991 1443.76 67.7991 Q1441.16 67.7991 1438.32 67.2783 Q1435.51 66.7864 1432.39 65.7737 L1432.39 60.276 Q1435.34 61.8096 1438.21 62.5908 Q1441.07 63.3431 1443.88 63.3431 Q1447.64 63.3431 1449.66 62.07 Q1451.69 60.7679 1451.69 58.4242 Q1451.69 56.254 1450.21 55.0966 Q1448.77 53.9392 1443.82 52.8686 L1441.97 52.4346 Q1437.02 51.393 1434.82 49.2518 Q1432.62 47.0816 1432.62 43.3201 Q1432.62 38.7483 1435.86 36.2599 Q1439.1 33.7715 1445.06 33.7715 Q1448.01 33.7715 1450.62 34.2055 Q1453.22 34.6396 1455.42 35.5076 Z" fill="#000000" fill-rule="nonzero" fill-opacity="1" /><path clip-path="url(#clip690)" d="M1475.1 23.76 L1480.02 23.76 L1464.97 72.4577 L1460.05 72.4577 L1475.1 23.76 Z" fill="#000000" fill-rule="nonzero" fill-opacity="1" /><path clip-path="url(#clip690)" d="M1485.83 23.76 L1510.66 23.76 L1510.66 28.679 L1491.68 28.679 L1491.68 41.4104 L1508.81 41.4104 L1508.81 46.3293 L1491.68 46.3293 L1491.68 66.96 L1485.83 66.96 L1485.83 23.76 Z" fill="#000000" fill-rule="nonzero" fill-opacity="1" /><path clip-path="url(#clip690)" d="M1544.77 25.1778 L1544.77 30.878 Q1541.45 29.2866 1538.49 28.5053 Q1535.54 27.7241 1532.79 27.7241 Q1528.02 27.7241 1525.42 29.5759 Q1522.84 31.4278 1522.84 34.8421 Q1522.84 37.7067 1524.55 39.1824 Q1526.28 40.6291 1531.09 41.5261 L1534.62 42.2495 Q1541.16 43.4937 1544.25 46.6476 Q1547.38 49.7726 1547.38 55.0388 Q1547.38 61.3177 1543.15 64.5584 Q1538.96 67.7991 1530.83 67.7991 Q1527.76 67.7991 1524.29 67.1047 Q1520.84 66.4102 1517.14 65.0503 L1517.14 59.0318 Q1520.7 61.0283 1524.11 62.041 Q1527.53 63.0538 1530.83 63.0538 Q1535.83 63.0538 1538.55 61.0862 Q1541.27 59.1186 1541.27 55.4728 Q1541.27 52.2899 1539.3 50.496 Q1537.37 48.702 1532.91 47.805 L1529.35 47.1106 Q1522.81 45.8085 1519.89 43.0307 Q1516.97 40.253 1516.97 35.3051 Q1516.97 29.5759 1520.99 26.2773 Q1525.04 22.9788 1532.13 22.9788 Q1535.17 22.9788 1538.32 23.5285 Q1541.47 24.0783 1544.77 25.1778 Z" fill="#000000" fill-rule="nonzero" fill-opacity="1" /><path clip-path="url(#clip690)" d="M1562.34 28.5632 L1562.34 62.1568 L1569.4 62.1568 Q1578.34 62.1568 1582.48 58.1059 Q1586.64 54.055 1586.64 45.3166 Q1586.64 36.6361 1582.48 32.6141 Q1578.34 28.5632 1569.4 28.5632 L1562.34 28.5632 M1556.49 23.76 L1568.5 23.76 Q1581.06 23.76 1586.93 28.9972 Q1592.81 34.2055 1592.81 45.3166 Q1592.81 56.4855 1586.9 61.7228 Q1581 66.96 1568.5 66.96 L1556.49 66.96 L1556.49 23.76 Z" fill="#000000" fill-rule="nonzero" fill-opacity="1" /><path clip-path="url(#clip690)" d="M1603.25 59.6105 L1609.36 59.6105 L1609.36 66.96 L1603.25 66.96 L1603.25 59.6105 M1603.25 36.3178 L1609.36 36.3178 L1609.36 43.6673 L1603.25 43.6673 L1603.25 36.3178 Z" fill="#000000" fill-rule="nonzero" fill-opacity="1" /><path clip-path="url(#clip690)" d="M1666.82 25.1778 L1666.82 30.878 Q1663.49 29.2866 1660.54 28.5053 Q1657.59 27.7241 1654.84 27.7241 Q1650.07 27.7241 1647.46 29.5759 Q1644.89 31.4278 1644.89 34.8421 Q1644.89 37.7067 1646.6 39.1824 Q1648.33 40.6291 1653.13 41.5261 L1656.67 42.2495 Q1663.2 43.4937 1666.3 46.6476 Q1669.43 49.7726 1669.43 55.0388 Q1669.43 61.3177 1665.2 64.5584 Q1661.01 67.7991 1652.87 67.7991 Q1649.81 67.7991 1646.34 67.1047 Q1642.89 66.4102 1639.19 65.0503 L1639.19 59.0318 Q1642.75 61.0283 1646.16 62.041 Q1649.58 63.0538 1652.87 63.0538 Q1657.88 63.0538 1660.6 61.0862 Q1663.32 59.1186 1663.32 55.4728 Q1663.32 52.2899 1661.35 50.496 Q1659.41 48.702 1654.96 47.805 L1651.4 47.1106 Q1644.86 45.8085 1641.94 43.0307 Q1639.01 40.253 1639.01 35.3051 Q1639.01 29.5759 1643.04 26.2773 Q1647.09 22.9788 1654.18 22.9788 Q1657.21 22.9788 1660.37 23.5285 Q1663.52 24.0783 1666.82 25.1778 Z" fill="#000000" fill-rule="nonzero" fill-opacity="1" /><path clip-path="url(#clip690)" d="M1691.79 69.9692 Q1689.54 75.7562 1687.39 77.5213 Q1685.25 79.2863 1681.66 79.2863 L1677.41 79.2863 L1677.41 74.8303 L1680.54 74.8303 Q1682.74 74.8303 1683.95 73.7887 Q1685.17 72.747 1686.64 68.8697 L1687.6 66.4392 L1674.49 34.5528 L1680.13 34.5528 L1690.26 59.8999 L1700.39 34.5528 L1706.03 34.5528 L1691.79 69.9692 Z" fill="#000000" fill-rule="nonzero" fill-opacity="1" /><path clip-path="url(#clip690)" d="M1738.61 40.7738 Q1740.61 37.1859 1743.38 35.4787 Q1746.16 33.7715 1749.92 33.7715 Q1754.99 33.7715 1757.74 37.3305 Q1760.48 40.8606 1760.48 47.3999 L1760.48 66.96 L1755.13 66.96 L1755.13 47.5735 Q1755.13 42.915 1753.48 40.6581 Q1751.83 38.4011 1748.45 38.4011 Q1744.31 38.4011 1741.91 41.15 Q1739.51 43.8988 1739.51 48.6441 L1739.51 66.96 L1734.15 66.96 L1734.15 47.5735 Q1734.15 42.8861 1732.5 40.6581 Q1730.85 38.4011 1727.41 38.4011 Q1723.33 38.4011 1720.93 41.1789 Q1718.53 43.9277 1718.53 48.6441 L1718.53 66.96 L1713.18 66.96 L1713.18 34.5528 L1718.53 34.5528 L1718.53 39.5875 Q1720.35 36.6072 1722.9 35.1893 Q1725.44 33.7715 1728.94 33.7715 Q1732.47 33.7715 1734.93 35.5655 Q1737.42 37.3595 1738.61 40.7738 Z" fill="#000000" fill-rule="nonzero" fill-opacity="1" /><path clip-path="url(#clip690)" d="M1794.37 50.7853 Q1794.37 44.9115 1791.94 41.584 Q1789.53 38.2275 1785.31 38.2275 Q1781.09 38.2275 1778.66 41.584 Q1776.25 44.9115 1776.25 50.7853 Q1776.25 56.6591 1778.66 60.0156 Q1781.09 63.3431 1785.31 63.3431 Q1789.53 63.3431 1791.94 60.0156 Q1794.37 56.6591 1794.37 50.7853 M1776.25 39.4717 Q1777.93 36.5782 1780.48 35.1893 Q1783.05 33.7715 1786.61 33.7715 Q1792.51 33.7715 1796.19 38.459 Q1799.89 43.1465 1799.89 50.7853 Q1799.89 58.4242 1796.19 63.1116 Q1792.51 67.7991 1786.61 67.7991 Q1783.05 67.7991 1780.48 66.4102 Q1777.93 64.9924 1776.25 62.0989 L1776.25 66.96 L1770.9 66.96 L1770.9 21.9371 L1776.25 21.9371 L1776.25 39.4717 Z" fill="#000000" fill-rule="nonzero" fill-opacity="1" /><path clip-path="url(#clip690)" d="M1821.28 38.2854 Q1816.99 38.2854 1814.51 41.6418 Q1812.02 44.9694 1812.02 50.7853 Q1812.02 56.6013 1814.48 59.9577 Q1816.97 63.2853 1821.28 63.2853 Q1825.53 63.2853 1828.02 59.9288 Q1830.51 56.5723 1830.51 50.7853 Q1830.51 45.0272 1828.02 41.6708 Q1825.53 38.2854 1821.28 38.2854 M1821.28 33.7715 Q1828.22 33.7715 1832.18 38.2854 Q1836.15 42.7992 1836.15 50.7853 Q1836.15 58.7425 1832.18 63.2853 Q1828.22 67.7991 1821.28 67.7991 Q1814.3 67.7991 1810.34 63.2853 Q1806.4 58.7425 1806.4 50.7853 Q1806.4 42.7992 1810.34 38.2854 Q1814.3 33.7715 1821.28 33.7715 Z" fill="#000000" fill-rule="nonzero" fill-opacity="1" /><path clip-path="url(#clip690)" d="M1844.97 21.9371 L1850.3 21.9371 L1850.3 66.96 L1844.97 66.96 L1844.97 21.9371 Z" fill="#000000" fill-rule="nonzero" fill-opacity="1" /><path clip-path="url(#clip690)" d="M1861.44 34.5528 L1866.76 34.5528 L1866.76 66.96 L1861.44 66.96 L1861.44 34.5528 M1861.44 21.9371 L1866.76 21.9371 L1866.76 28.679 L1861.44 28.679 L1861.44 21.9371 Z" fill="#000000" fill-rule="nonzero" fill-opacity="1" /><path clip-path="url(#clip690)" d="M1901.22 35.797 L1901.22 40.7738 Q1898.97 39.5296 1896.68 38.922 Q1894.42 38.2854 1892.11 38.2854 Q1886.93 38.2854 1884.07 41.584 Q1881.2 44.8536 1881.2 50.7853 Q1881.2 56.717 1884.07 60.0156 Q1886.93 63.2853 1892.11 63.2853 Q1894.42 63.2853 1896.68 62.6776 Q1898.97 62.041 1901.22 60.7968 L1901.22 65.7158 Q1899 66.7575 1896.59 67.2783 Q1894.22 67.7991 1891.53 67.7991 Q1884.21 67.7991 1879.9 63.1984 Q1875.59 58.5978 1875.59 50.7853 Q1875.59 42.8571 1879.93 38.3143 Q1884.3 33.7715 1891.88 33.7715 Q1894.34 33.7715 1896.68 34.2924 Q1899.02 34.7842 1901.22 35.797 Z" fill="#000000" fill-rule="nonzero" fill-opacity="1" /><path clip-path="url(#clip690)" d="M1229.67 100.597 L1229.67 105.574 Q1227.41 104.33 1225.13 103.722 Q1222.87 103.085 1220.56 103.085 Q1215.38 103.085 1212.51 106.384 Q1209.65 109.654 1209.65 115.585 Q1209.65 121.517 1212.51 124.816 Q1215.38 128.085 1220.56 128.085 Q1222.87 128.085 1225.13 127.478 Q1227.41 126.841 1229.67 125.597 L1229.67 130.516 Q1227.44 131.557 1225.04 132.078 Q1222.67 132.599 1219.98 132.599 Q1212.66 132.599 1208.35 127.998 Q1204.03 123.398 1204.03 115.585 Q1204.03 107.657 1208.37 103.114 Q1212.74 98.5715 1220.32 98.5715 Q1222.78 98.5715 1225.13 99.0924 Q1227.47 99.5842 1229.67 100.597 Z" fill="#000000" fill-rule="nonzero" fill-opacity="1" /><path clip-path="url(#clip690)" d="M1265.87 112.2 L1265.87 131.76 L1260.54 131.76 L1260.54 112.374 Q1260.54 107.773 1258.75 105.487 Q1256.96 103.201 1253.37 103.201 Q1249.06 103.201 1246.57 105.95 Q1244.08 108.699 1244.08 113.444 L1244.08 131.76 L1238.73 131.76 L1238.73 86.7371 L1244.08 86.7371 L1244.08 104.387 Q1245.99 101.465 1248.57 100.018 Q1251.17 98.5715 1254.55 98.5715 Q1260.14 98.5715 1263 102.044 Q1265.87 105.487 1265.87 112.2 Z" fill="#000000" fill-rule="nonzero" fill-opacity="1" /><path clip-path="url(#clip690)" d="M1304.21 114.225 L1304.21 116.83 L1279.73 116.83 Q1280.08 122.327 1283.03 125.221 Q1286.01 128.085 1291.3 128.085 Q1294.37 128.085 1297.23 127.333 Q1300.13 126.581 1302.96 125.076 L1302.96 130.111 Q1300.1 131.326 1297.09 131.963 Q1294.08 132.599 1290.98 132.599 Q1283.23 132.599 1278.69 128.085 Q1274.17 123.571 1274.17 115.875 Q1274.17 107.918 1278.46 103.259 Q1282.77 98.5715 1290.06 98.5715 Q1296.6 98.5715 1300.39 102.796 Q1304.21 106.992 1304.21 114.225 M1298.88 112.663 Q1298.83 108.294 1296.42 105.69 Q1294.05 103.085 1290.12 103.085 Q1285.66 103.085 1282.97 105.603 Q1280.31 108.12 1279.9 112.692 L1298.88 112.663 Z" fill="#000000" fill-rule="nonzero" fill-opacity="1" /><path clip-path="url(#clip690)" d="M1336.21 115.585 Q1336.21 109.712 1333.78 106.384 Q1331.38 103.028 1327.15 103.028 Q1322.93 103.028 1320.5 106.384 Q1318.1 109.712 1318.1 115.585 Q1318.1 121.459 1320.5 124.816 Q1322.93 128.143 1327.15 128.143 Q1331.38 128.143 1333.78 124.816 Q1336.21 121.459 1336.21 115.585 M1318.1 104.272 Q1319.77 101.378 1322.32 99.9893 Q1324.9 98.5715 1328.45 98.5715 Q1334.36 98.5715 1338.03 103.259 Q1341.74 107.946 1341.74 115.585 Q1341.74 123.224 1338.03 127.912 Q1334.36 132.599 1328.45 132.599 Q1324.9 132.599 1322.32 131.21 Q1319.77 129.792 1318.1 126.899 L1318.1 131.76 L1312.74 131.76 L1312.74 86.7371 L1318.1 86.7371 L1318.1 104.272 Z" fill="#000000" fill-rule="nonzero" fill-opacity="1" /><path clip-path="url(#clip690)" d="M1364.05 134.769 Q1361.79 140.556 1359.65 142.321 Q1357.51 144.086 1353.92 144.086 L1349.66 144.086 L1349.66 139.63 L1352.79 139.63 Q1354.99 139.63 1356.2 138.589 Q1357.42 137.547 1358.89 133.67 L1359.85 131.239 L1346.74 99.3528 L1352.38 99.3528 L1362.51 124.7 L1372.64 99.3528 L1378.28 99.3528 L1364.05 134.769 Z" fill="#000000" fill-rule="nonzero" fill-opacity="1" /><path clip-path="url(#clip690)" d="M1406.29 100.308 L1406.29 105.342 Q1404.03 104.185 1401.6 103.606 Q1399.17 103.028 1396.57 103.028 Q1392.6 103.028 1390.61 104.243 Q1388.64 105.458 1388.64 107.889 Q1388.64 109.74 1390.06 110.811 Q1391.48 111.853 1395.76 112.808 L1397.58 113.213 Q1403.25 114.428 1405.62 116.656 Q1408.03 118.855 1408.03 122.819 Q1408.03 127.333 1404.44 129.966 Q1400.88 132.599 1394.63 132.599 Q1392.03 132.599 1389.19 132.078 Q1386.38 131.586 1383.26 130.574 L1383.26 125.076 Q1386.21 126.61 1389.07 127.391 Q1391.94 128.143 1394.75 128.143 Q1398.51 128.143 1400.53 126.87 Q1402.56 125.568 1402.56 123.224 Q1402.56 121.054 1401.08 119.897 Q1399.64 118.739 1394.69 117.669 L1392.84 117.235 Q1387.89 116.193 1385.69 114.052 Q1383.49 111.882 1383.49 108.12 Q1383.49 103.548 1386.73 101.06 Q1389.97 98.5715 1395.93 98.5715 Q1398.88 98.5715 1401.49 99.0055 Q1404.09 99.4396 1406.29 100.308 Z" fill="#000000" fill-rule="nonzero" fill-opacity="1" /><path clip-path="url(#clip690)" d="M1443.44 112.2 L1443.44 131.76 L1438.12 131.76 L1438.12 112.374 Q1438.12 107.773 1436.32 105.487 Q1434.53 103.201 1430.94 103.201 Q1426.63 103.201 1424.14 105.95 Q1421.65 108.699 1421.65 113.444 L1421.65 131.76 L1416.3 131.76 L1416.3 86.7371 L1421.65 86.7371 L1421.65 104.387 Q1423.56 101.465 1426.14 100.018 Q1428.74 98.5715 1432.13 98.5715 Q1437.71 98.5715 1440.58 102.044 Q1443.44 105.487 1443.44 112.2 Z" fill="#000000" fill-rule="nonzero" fill-opacity="1" /><path clip-path="url(#clip690)" d="M1481.78 114.225 L1481.78 116.83 L1457.3 116.83 Q1457.65 122.327 1460.6 125.221 Q1463.58 128.085 1468.88 128.085 Q1471.94 128.085 1474.81 127.333 Q1477.7 126.581 1480.54 125.076 L1480.54 130.111 Q1477.67 131.326 1474.66 131.963 Q1471.65 132.599 1468.56 132.599 Q1460.8 132.599 1456.26 128.085 Q1451.75 123.571 1451.75 115.875 Q1451.75 107.918 1456.03 103.259 Q1460.34 98.5715 1467.63 98.5715 Q1474.17 98.5715 1477.96 102.796 Q1481.78 106.992 1481.78 114.225 M1476.46 112.663 Q1476.4 108.294 1474 105.69 Q1471.63 103.085 1467.69 103.085 Q1463.23 103.085 1460.54 105.603 Q1457.88 108.12 1457.48 112.692 L1476.46 112.663 Z" fill="#000000" fill-rule="nonzero" fill-opacity="1" /><path clip-path="url(#clip690)" d="M1486.7 99.3528 L1492.34 99.3528 L1502.47 126.552 L1512.6 99.3528 L1518.24 99.3528 L1506.09 131.76 L1498.85 131.76 L1486.7 99.3528 Z" fill="#000000" fill-rule="nonzero" fill-opacity="1" /><polyline clip-path="url(#clip692)" style="stroke:#009af9; stroke-linecap:round; stroke-linejoin:round; stroke-width:4; stroke-opacity:1; fill:none" points="425.648,1387.13 500.487,1387.12 575.326,1387.11 650.165,1387.09 725.004,1387.07 799.843,1387.02 874.683,1386.97 949.522,1386.87 1024.36,1386.73 1099.2,1386.51 1174.04,1386.18 1248.88,1385.8 1323.72,1385.07 1398.56,1383.84 1473.4,1381.89 1548.23,1378.66 1623.07,1373.3 1697.91,1365.08 1772.75,1349.79 1847.59,1327.91 1922.43,1292.83 1997.27,1236.15 2072.11,1089.03 2146.95,910.137 2221.79,636.837 2296.63,185.443 "/>
<circle clip-path="url(#clip692)" cx="425.648" cy="1387.13" r="14.4" fill="#009af9" fill-rule="evenodd" fill-opacity="1" stroke="#000000" stroke-opacity="1" stroke-width="3.2"/>
<circle clip-path="url(#clip692)" cx="500.487" cy="1387.12" r="14.4" fill="#009af9" fill-rule="evenodd" fill-opacity="1" stroke="#000000" stroke-opacity="1" stroke-width="3.2"/>
<circle clip-path="url(#clip692)" cx="575.326" cy="1387.11" r="14.4" fill="#009af9" fill-rule="evenodd" fill-opacity="1" stroke="#000000" stroke-opacity="1" stroke-width="3.2"/>
<circle clip-path="url(#clip692)" cx="650.165" cy="1387.09" r="14.4" fill="#009af9" fill-rule="evenodd" fill-opacity="1" stroke="#000000" stroke-opacity="1" stroke-width="3.2"/>
<circle clip-path="url(#clip692)" cx="725.004" cy="1387.07" r="14.4" fill="#009af9" fill-rule="evenodd" fill-opacity="1" stroke="#000000" stroke-opacity="1" stroke-width="3.2"/>
<circle clip-path="url(#clip692)" cx="799.843" cy="1387.02" r="14.4" fill="#009af9" fill-rule="evenodd" fill-opacity="1" stroke="#000000" stroke-opacity="1" stroke-width="3.2"/>
<circle clip-path="url(#clip692)" cx="874.683" cy="1386.97" r="14.4" fill="#009af9" fill-rule="evenodd" fill-opacity="1" stroke="#000000" stroke-opacity="1" stroke-width="3.2"/>
<circle clip-path="url(#clip692)" cx="949.522" cy="1386.87" r="14.4" fill="#009af9" fill-rule="evenodd" fill-opacity="1" stroke="#000000" stroke-opacity="1" stroke-width="3.2"/>
<circle clip-path="url(#clip692)" cx="1024.36" cy="1386.73" r="14.4" fill="#009af9" fill-rule="evenodd" fill-opacity="1" stroke="#000000" stroke-opacity="1" stroke-width="3.2"/>
<circle clip-path="url(#clip692)" cx="1099.2" cy="1386.51" r="14.4" fill="#009af9" fill-rule="evenodd" fill-opacity="1" stroke="#000000" stroke-opacity="1" stroke-width="3.2"/>
<circle clip-path="url(#clip692)" cx="1174.04" cy="1386.18" r="14.4" fill="#009af9" fill-rule="evenodd" fill-opacity="1" stroke="#000000" stroke-opacity="1" stroke-width="3.2"/>
<circle clip-path="url(#clip692)" cx="1248.88" cy="1385.8" r="14.4" fill="#009af9" fill-rule="evenodd" fill-opacity="1" stroke="#000000" stroke-opacity="1" stroke-width="3.2"/>
<circle clip-path="url(#clip692)" cx="1323.72" cy="1385.07" r="14.4" fill="#009af9" fill-rule="evenodd" fill-opacity="1" stroke="#000000" stroke-opacity="1" stroke-width="3.2"/>
<circle clip-path="url(#clip692)" cx="1398.56" cy="1383.84" r="14.4" fill="#009af9" fill-rule="evenodd" fill-opacity="1" stroke="#000000" stroke-opacity="1" stroke-width="3.2"/>
<circle clip-path="url(#clip692)" cx="1473.4" cy="1381.89" r="14.4" fill="#009af9" fill-rule="evenodd" fill-opacity="1" stroke="#000000" stroke-opacity="1" stroke-width="3.2"/>
<circle clip-path="url(#clip692)" cx="1548.23" cy="1378.66" r="14.4" fill="#009af9" fill-rule="evenodd" fill-opacity="1" stroke="#000000" stroke-opacity="1" stroke-width="3.2"/>
<circle clip-path="url(#clip692)" cx="1623.07" cy="1373.3" r="14.4" fill="#009af9" fill-rule="evenodd" fill-opacity="1" stroke="#000000" stroke-opacity="1" stroke-width="3.2"/>
<circle clip-path="url(#clip692)" cx="1697.91" cy="1365.08" r="14.4" fill="#009af9" fill-rule="evenodd" fill-opacity="1" stroke="#000000" stroke-opacity="1" stroke-width="3.2"/>
<circle clip-path="url(#clip692)" cx="1772.75" cy="1349.79" r="14.4" fill="#009af9" fill-rule="evenodd" fill-opacity="1" stroke="#000000" stroke-opacity="1" stroke-width="3.2"/>
<circle clip-path="url(#clip692)" cx="1847.59" cy="1327.91" r="14.4" fill="#009af9" fill-rule="evenodd" fill-opacity="1" stroke="#000000" stroke-opacity="1" stroke-width="3.2"/>
<circle clip-path="url(#clip692)" cx="1922.43" cy="1292.83" r="14.4" fill="#009af9" fill-rule="evenodd" fill-opacity="1" stroke="#000000" stroke-opacity="1" stroke-width="3.2"/>
<circle clip-path="url(#clip692)" cx="1997.27" cy="1236.15" r="14.4" fill="#009af9" fill-rule="evenodd" fill-opacity="1" stroke="#000000" stroke-opacity="1" stroke-width="3.2"/>
<circle clip-path="url(#clip692)" cx="2072.11" cy="1089.03" r="14.4" fill="#009af9" fill-rule="evenodd" fill-opacity="1" stroke="#000000" stroke-opacity="1" stroke-width="3.2"/>
<circle clip-path="url(#clip692)" cx="2146.95" cy="910.137" r="14.4" fill="#009af9" fill-rule="evenodd" fill-opacity="1" stroke="#000000" stroke-opacity="1" stroke-width="3.2"/>
<circle clip-path="url(#clip692)" cx="2221.79" cy="636.837" r="14.4" fill="#009af9" fill-rule="evenodd" fill-opacity="1" stroke="#000000" stroke-opacity="1" stroke-width="3.2"/>
<circle clip-path="url(#clip692)" cx="2296.63" cy="185.443" r="14.4" fill="#009af9" fill-rule="evenodd" fill-opacity="1" stroke="#000000" stroke-opacity="1" stroke-width="3.2"/>
</svg>
