<?xml version="1.0" encoding="utf-8"?>
<svg xmlns="http://www.w3.org/2000/svg" xmlns:xlink="http://www.w3.org/1999/xlink" width="600" height="400" viewBox="0 0 2400 1600">
<defs>
  <clipPath id="clip180">
    <rect x="0" y="0" width="2400" height="1600"/>
  </clipPath>
</defs>
<path clip-path="url(#clip180)" d="M0 1600 L2400 1600 L2400 0 L0 0  Z" fill="#ffffff" fill-rule="evenodd" fill-opacity="1"/>
<defs>
  <clipPath id="clip181">
    <rect x="480" y="0" width="1681" height="1600"/>
  </clipPath>
</defs>
<path clip-path="url(#clip180)" d="M221.637 1423.18 L2352.76 1423.18 L2352.76 192.592 L221.637 192.592  Z" fill="#ffffff" fill-rule="evenodd" fill-opacity="1"/>
<defs>
  <clipPath id="clip182">
    <rect x="221" y="192" width="2132" height="1232"/>
  </clipPath>
</defs>
<polyline clip-path="url(#clip182)" style="stroke:#000000; stroke-linecap:round; stroke-linejoin:round; stroke-width:2; stroke-opacity:0.1; fill:none" points="281.952,1423.18 281.952,192.592 "/>
<polyline clip-path="url(#clip182)" style="stroke:#000000; stroke-linecap:round; stroke-linejoin:round; stroke-width:2; stroke-opacity:0.1; fill:none" points="784.574,1423.18 784.574,192.592 "/>
<polyline clip-path="url(#clip182)" style="stroke:#000000; stroke-linecap:round; stroke-linejoin:round; stroke-width:2; stroke-opacity:0.1; fill:none" points="1287.2,1423.18 1287.2,192.592 "/>
<polyline clip-path="url(#clip182)" style="stroke:#000000; stroke-linecap:round; stroke-linejoin:round; stroke-width:2; stroke-opacity:0.1; fill:none" points="1789.82,1423.18 1789.82,192.592 "/>
<polyline clip-path="url(#clip182)" style="stroke:#000000; stroke-linecap:round; stroke-linejoin:round; stroke-width:2; stroke-opacity:0.1; fill:none" points="2292.44,1423.18 2292.44,192.592 "/>
<polyline clip-path="url(#clip180)" style="stroke:#000000; stroke-linecap:round; stroke-linejoin:round; stroke-width:4; stroke-opacity:1; fill:none" points="221.637,1423.18 2352.76,1423.18 "/>
<polyline clip-path="url(#clip180)" style="stroke:#000000; stroke-linecap:round; stroke-linejoin:round; stroke-width:4; stroke-opacity:1; fill:none" points="281.952,1423.18 281.952,1404.28 "/>
<polyline clip-path="url(#clip180)" style="stroke:#000000; stroke-linecap:round; stroke-linejoin:round; stroke-width:4; stroke-opacity:1; fill:none" points="784.574,1423.18 784.574,1404.28 "/>
<polyline clip-path="url(#clip180)" style="stroke:#000000; stroke-linecap:round; stroke-linejoin:round; stroke-width:4; stroke-opacity:1; fill:none" points="1287.2,1423.18 1287.2,1404.28 "/>
<polyline clip-path="url(#clip180)" style="stroke:#000000; stroke-linecap:round; stroke-linejoin:round; stroke-width:4; stroke-opacity:1; fill:none" points="1789.82,1423.18 1789.82,1404.28 "/>
<polyline clip-path="url(#clip180)" style="stroke:#000000; stroke-linecap:round; stroke-linejoin:round; stroke-width:4; stroke-opacity:1; fill:none" points="2292.44,1423.18 2292.44,1404.28 "/>
<polyline clip-path="url(#clip180)" style="stroke:#000000; stroke-linecap:round; stroke-linejoin:round; stroke-width:4; stroke-opacity:1; fill:none" points="382.476,1423.18 382.476,1413.73 "/>
<polyline clip-path="url(#clip180)" style="stroke:#000000; stroke-linecap:round; stroke-linejoin:round; stroke-width:4; stroke-opacity:1; fill:none" points="483.001,1423.18 483.001,1413.73 "/>
<polyline clip-path="url(#clip180)" style="stroke:#000000; stroke-linecap:round; stroke-linejoin:round; stroke-width:4; stroke-opacity:1; fill:none" points="583.525,1423.18 583.525,1413.73 "/>
<polyline clip-path="url(#clip180)" style="stroke:#000000; stroke-linecap:round; stroke-linejoin:round; stroke-width:4; stroke-opacity:1; fill:none" points="684.05,1423.18 684.05,1413.73 "/>
<polyline clip-path="url(#clip180)" style="stroke:#000000; stroke-linecap:round; stroke-linejoin:round; stroke-width:4; stroke-opacity:1; fill:none" points="885.099,1423.18 885.099,1413.73 "/>
<polyline clip-path="url(#clip180)" style="stroke:#000000; stroke-linecap:round; stroke-linejoin:round; stroke-width:4; stroke-opacity:1; fill:none" points="985.623,1423.18 985.623,1413.73 "/>
<polyline clip-path="url(#clip180)" style="stroke:#000000; stroke-linecap:round; stroke-linejoin:round; stroke-width:4; stroke-opacity:1; fill:none" points="1086.15,1423.18 1086.15,1413.73 "/>
<polyline clip-path="url(#clip180)" style="stroke:#000000; stroke-linecap:round; stroke-linejoin:round; stroke-width:4; stroke-opacity:1; fill:none" points="1186.67,1423.18 1186.67,1413.73 "/>
<polyline clip-path="url(#clip180)" style="stroke:#000000; stroke-linecap:round; stroke-linejoin:round; stroke-width:4; stroke-opacity:1; fill:none" points="1387.72,1423.18 1387.72,1413.73 "/>
<polyline clip-path="url(#clip180)" style="stroke:#000000; stroke-linecap:round; stroke-linejoin:round; stroke-width:4; stroke-opacity:1; fill:none" points="1488.25,1423.18 1488.25,1413.73 "/>
<polyline clip-path="url(#clip180)" style="stroke:#000000; stroke-linecap:round; stroke-linejoin:round; stroke-width:4; stroke-opacity:1; fill:none" points="1588.77,1423.18 1588.77,1413.73 "/>
<polyline clip-path="url(#clip180)" style="stroke:#000000; stroke-linecap:round; stroke-linejoin:round; stroke-width:4; stroke-opacity:1; fill:none" points="1689.29,1423.18 1689.29,1413.73 "/>
<polyline clip-path="url(#clip180)" style="stroke:#000000; stroke-linecap:round; stroke-linejoin:round; stroke-width:4; stroke-opacity:1; fill:none" points="1890.34,1423.18 1890.34,1413.73 "/>
<polyline clip-path="url(#clip180)" style="stroke:#000000; stroke-linecap:round; stroke-linejoin:round; stroke-width:4; stroke-opacity:1; fill:none" points="1990.87,1423.18 1990.87,1413.73 "/>
<polyline clip-path="url(#clip180)" style="stroke:#000000; stroke-linecap:round; stroke-linejoin:round; stroke-width:4; stroke-opacity:1; fill:none" points="2091.39,1423.18 2091.39,1413.73 "/>
<polyline clip-path="url(#clip180)" style="stroke:#000000; stroke-linecap:round; stroke-linejoin:round; stroke-width:4; stroke-opacity:1; fill:none" points="2191.92,1423.18 2191.92,1413.73 "/>
<path clip-path="url(#clip180)" d="M272.23 1451.02 L290.586 1451.02 L290.586 1454.96 L276.512 1454.96 L276.512 1463.43 Q277.531 1463.08 278.549 1462.92 Q279.568 1462.73 280.586 1462.73 Q286.373 1462.73 289.753 1465.9 Q293.132 1469.08 293.132 1474.49 Q293.132 1480.07 289.66 1483.17 Q286.188 1486.25 279.868 1486.25 Q277.693 1486.25 275.424 1485.88 Q273.179 1485.51 270.771 1484.77 L270.771 1480.07 Q272.855 1481.2 275.077 1481.76 Q277.299 1482.32 279.776 1482.32 Q283.78 1482.32 286.118 1480.21 Q288.456 1478.1 288.456 1474.49 Q288.456 1470.88 286.118 1468.77 Q283.78 1466.67 279.776 1466.67 Q277.901 1466.67 276.026 1467.08 Q274.174 1467.5 272.23 1468.38 L272.23 1451.02 Z" fill="#000000" fill-rule="nonzero" fill-opacity="1" /><path clip-path="url(#clip180)" d="M759.262 1481.64 L766.901 1481.64 L766.901 1455.28 L758.59 1456.95 L758.59 1452.69 L766.854 1451.02 L771.53 1451.02 L771.53 1481.64 L779.169 1481.64 L779.169 1485.58 L759.262 1485.58 L759.262 1481.64 Z" fill="#000000" fill-rule="nonzero" fill-opacity="1" /><path clip-path="url(#clip180)" d="M798.613 1454.1 Q795.002 1454.1 793.174 1457.66 Q791.368 1461.2 791.368 1468.33 Q791.368 1475.44 793.174 1479.01 Q795.002 1482.55 798.613 1482.55 Q802.248 1482.55 804.053 1479.01 Q805.882 1475.44 805.882 1468.33 Q805.882 1461.2 804.053 1457.66 Q802.248 1454.1 798.613 1454.1 M798.613 1450.39 Q804.424 1450.39 807.479 1455 Q810.558 1459.58 810.558 1468.33 Q810.558 1477.06 807.479 1481.67 Q804.424 1486.25 798.613 1486.25 Q792.803 1486.25 789.725 1481.67 Q786.669 1477.06 786.669 1468.33 Q786.669 1459.58 789.725 1455 Q792.803 1450.39 798.613 1450.39 Z" fill="#000000" fill-rule="nonzero" fill-opacity="1" /><path clip-path="url(#clip180)" d="M1262.38 1481.64 L1270.02 1481.64 L1270.02 1455.28 L1261.71 1456.95 L1261.71 1452.69 L1269.97 1451.02 L1274.65 1451.02 L1274.65 1481.64 L1282.29 1481.64 L1282.29 1485.58 L1262.38 1485.58 L1262.38 1481.64 Z" fill="#000000" fill-rule="nonzero" fill-opacity="1" /><path clip-path="url(#clip180)" d="M1291.78 1451.02 L1310.14 1451.02 L1310.14 1454.96 L1296.06 1454.96 L1296.06 1463.43 Q1297.08 1463.08 1298.1 1462.92 Q1299.12 1462.73 1300.14 1462.73 Q1305.92 1462.73 1309.3 1465.9 Q1312.68 1469.08 1312.68 1474.49 Q1312.68 1480.07 1309.21 1483.17 Q1305.74 1486.25 1299.42 1486.25 Q1297.24 1486.25 1294.97 1485.88 Q1292.73 1485.51 1290.32 1484.77 L1290.32 1480.07 Q1292.4 1481.2 1294.63 1481.76 Q1296.85 1482.32 1299.33 1482.32 Q1303.33 1482.32 1305.67 1480.21 Q1308.01 1478.1 1308.01 1474.49 Q1308.01 1470.88 1305.67 1468.77 Q1303.33 1466.67 1299.33 1466.67 Q1297.45 1466.67 1295.58 1467.08 Q1293.72 1467.5 1291.78 1468.38 L1291.78 1451.02 Z" fill="#000000" fill-rule="nonzero" fill-opacity="1" /><path clip-path="url(#clip180)" d="M1768.59 1481.64 L1784.91 1481.64 L1784.91 1485.58 L1762.97 1485.58 L1762.97 1481.64 Q1765.63 1478.89 1770.21 1474.26 Q1774.82 1469.61 1776 1468.27 Q1778.24 1465.74 1779.12 1464.01 Q1780.03 1462.25 1780.03 1460.56 Q1780.03 1457.8 1778.08 1456.07 Q1776.16 1454.33 1773.06 1454.33 Q1770.86 1454.33 1768.41 1455.09 Q1765.98 1455.86 1763.2 1457.41 L1763.2 1452.69 Q1766.02 1451.55 1768.48 1450.97 Q1770.93 1450.39 1772.97 1450.39 Q1778.34 1450.39 1781.53 1453.08 Q1784.73 1455.77 1784.73 1460.26 Q1784.73 1462.39 1783.92 1464.31 Q1783.13 1466.2 1781.02 1468.8 Q1780.44 1469.47 1777.34 1472.69 Q1774.24 1475.88 1768.59 1481.64 Z" fill="#000000" fill-rule="nonzero" fill-opacity="1" /><path clip-path="url(#clip180)" d="M1804.73 1454.1 Q1801.12 1454.1 1799.29 1457.66 Q1797.48 1461.2 1797.48 1468.33 Q1797.48 1475.44 1799.29 1479.01 Q1801.12 1482.55 1804.73 1482.55 Q1808.36 1482.55 1810.17 1479.01 Q1811.99 1475.44 1811.99 1468.33 Q1811.99 1461.2 1810.17 1457.66 Q1808.36 1454.1 1804.73 1454.1 M1804.73 1450.39 Q1810.54 1450.39 1813.59 1455 Q1816.67 1459.58 1816.67 1468.33 Q1816.67 1477.06 1813.59 1481.67 Q1810.54 1486.25 1804.73 1486.25 Q1798.92 1486.25 1795.84 1481.67 Q1792.78 1477.06 1792.78 1468.33 Q1792.78 1459.58 1795.84 1455 Q1798.92 1450.39 1804.73 1450.39 Z" fill="#000000" fill-rule="nonzero" fill-opacity="1" /><path clip-path="url(#clip180)" d="M2271.71 1481.64 L2288.03 1481.64 L2288.03 1485.58 L2266.09 1485.58 L2266.09 1481.64 Q2268.75 1478.89 2273.33 1474.26 Q2277.94 1469.61 2279.12 1468.27 Q2281.36 1465.74 2282.24 1464.01 Q2283.15 1462.25 2283.15 1460.56 Q2283.15 1457.8 2281.2 1456.07 Q2279.28 1454.33 2276.18 1454.33 Q2273.98 1454.33 2271.53 1455.09 Q2269.1 1455.86 2266.32 1457.41 L2266.32 1452.69 Q2269.14 1451.55 2271.6 1450.97 Q2274.05 1450.39 2276.09 1450.39 Q2281.46 1450.39 2284.65 1453.08 Q2287.85 1455.77 2287.85 1460.26 Q2287.85 1462.39 2287.04 1464.31 Q2286.25 1466.2 2284.14 1468.8 Q2283.56 1469.47 2280.46 1472.69 Q2277.36 1475.88 2271.71 1481.64 Z" fill="#000000" fill-rule="nonzero" fill-opacity="1" /><path clip-path="url(#clip180)" d="M2297.89 1451.02 L2316.25 1451.02 L2316.25 1454.96 L2302.17 1454.96 L2302.17 1463.43 Q2303.19 1463.08 2304.21 1462.92 Q2305.23 1462.73 2306.25 1462.73 Q2312.04 1462.73 2315.42 1465.9 Q2318.8 1469.08 2318.8 1474.49 Q2318.8 1480.07 2315.32 1483.17 Q2311.85 1486.25 2305.53 1486.25 Q2303.36 1486.25 2301.09 1485.88 Q2298.84 1485.51 2296.43 1484.77 L2296.43 1480.07 Q2298.52 1481.2 2300.74 1481.76 Q2302.96 1482.32 2305.44 1482.32 Q2309.44 1482.32 2311.78 1480.21 Q2314.12 1478.1 2314.12 1474.49 Q2314.12 1470.88 2311.78 1468.77 Q2309.44 1466.67 2305.44 1466.67 Q2303.56 1466.67 2301.69 1467.08 Q2299.84 1467.5 2297.89 1468.38 L2297.89 1451.02 Z" fill="#000000" fill-rule="nonzero" fill-opacity="1" /><path clip-path="url(#clip180)" d="M796.798 1533.45 L796.798 1538.98 Q794.316 1537.71 791.642 1537.07 Q788.969 1536.44 786.104 1536.44 Q781.743 1536.44 779.547 1537.77 Q777.383 1539.11 777.383 1541.79 Q777.383 1543.82 778.943 1545 Q780.502 1546.15 785.213 1547.2 L787.218 1547.64 Q793.456 1548.98 796.066 1551.43 Q798.708 1553.85 798.708 1558.21 Q798.708 1563.17 794.761 1566.07 Q790.846 1568.97 783.971 1568.97 Q781.107 1568.97 777.988 1568.39 Q774.9 1567.85 771.463 1566.74 L771.463 1560.69 Q774.709 1562.38 777.86 1563.24 Q781.011 1564.07 784.099 1564.07 Q788.236 1564.07 790.464 1562.66 Q792.692 1561.23 792.692 1558.65 Q792.692 1556.27 791.069 1554.99 Q789.478 1553.72 784.035 1552.54 L781.998 1552.07 Q776.555 1550.92 774.136 1548.56 Q771.717 1546.18 771.717 1542.04 Q771.717 1537.01 775.282 1534.27 Q778.847 1531.54 785.404 1531.54 Q788.65 1531.54 791.515 1532.01 Q794.379 1532.49 796.798 1533.45 Z" fill="#000000" fill-rule="nonzero" fill-opacity="1" /><path clip-path="url(#clip180)" d="M813.699 1562.7 L813.699 1581.6 L807.811 1581.6 L807.811 1532.4 L813.699 1532.4 L813.699 1537.81 Q815.545 1534.62 818.346 1533.1 Q821.179 1531.54 825.094 1531.54 Q831.587 1531.54 835.629 1536.69 Q839.703 1541.85 839.703 1550.25 Q839.703 1558.65 835.629 1563.81 Q831.587 1568.97 825.094 1568.97 Q821.179 1568.97 818.346 1567.44 Q815.545 1565.88 813.699 1562.7 M833.624 1550.25 Q833.624 1543.79 830.95 1540.13 Q828.309 1536.44 823.662 1536.44 Q819.015 1536.44 816.341 1540.13 Q813.699 1543.79 813.699 1550.25 Q813.699 1556.71 816.341 1560.4 Q819.015 1564.07 823.662 1564.07 Q828.309 1564.07 830.95 1560.4 Q833.624 1556.71 833.624 1550.25 Z" fill="#000000" fill-rule="nonzero" fill-opacity="1" /><path clip-path="url(#clip180)" d="M879.043 1546.53 L879.043 1568.04 L873.187 1568.04 L873.187 1546.72 Q873.187 1541.66 871.213 1539.14 Q869.24 1536.63 865.293 1536.63 Q860.551 1536.63 857.814 1539.65 Q855.076 1542.68 855.076 1547.9 L855.076 1568.04 L849.188 1568.04 L849.188 1518.52 L855.076 1518.52 L855.076 1537.93 Q857.177 1534.72 860.01 1533.13 Q862.874 1531.54 866.598 1531.54 Q872.741 1531.54 875.892 1535.36 Q879.043 1539.14 879.043 1546.53 Z" fill="#000000" fill-rule="nonzero" fill-opacity="1" /><path clip-path="url(#clip180)" d="M921.216 1548.76 L921.216 1551.62 L894.289 1551.62 Q894.671 1557.67 897.918 1560.85 Q901.196 1564 907.021 1564 Q910.394 1564 913.545 1563.17 Q916.728 1562.35 919.847 1560.69 L919.847 1566.23 Q916.696 1567.57 913.386 1568.27 Q910.076 1568.97 906.67 1568.97 Q898.14 1568.97 893.143 1564 Q888.178 1559.04 888.178 1550.57 Q888.178 1541.82 892.889 1536.69 Q897.631 1531.54 905.652 1531.54 Q912.845 1531.54 917.015 1536.18 Q921.216 1540.8 921.216 1548.76 M915.36 1547.04 Q915.296 1542.23 912.654 1539.37 Q910.044 1536.5 905.716 1536.5 Q900.814 1536.5 897.854 1539.27 Q894.926 1542.04 894.48 1547.07 L915.36 1547.04 Z" fill="#000000" fill-rule="nonzero" fill-opacity="1" /><path clip-path="url(#clip180)" d="M951.485 1537.87 Q950.498 1537.3 949.321 1537.04 Q948.175 1536.76 946.774 1536.76 Q941.809 1536.76 939.136 1540 Q936.494 1543.22 936.494 1549.27 L936.494 1568.04 L930.606 1568.04 L930.606 1532.4 L936.494 1532.4 L936.494 1537.93 Q938.34 1534.69 941.3 1533.13 Q944.26 1531.54 948.493 1531.54 Q949.098 1531.54 949.83 1531.63 Q950.562 1531.7 951.453 1531.85 L951.485 1537.87 Z" fill="#000000" fill-rule="nonzero" fill-opacity="1" /><path clip-path="url(#clip180)" d="M957.628 1532.4 L963.484 1532.4 L963.484 1568.04 L957.628 1568.04 L957.628 1532.4 M957.628 1518.52 L963.484 1518.52 L963.484 1525.93 L957.628 1525.93 L957.628 1518.52 Z" fill="#000000" fill-rule="nonzero" fill-opacity="1" /><path clip-path="url(#clip180)" d="M1001.39 1533.76 L1001.39 1539.24 Q998.91 1537.87 996.395 1537.2 Q993.912 1536.5 991.366 1536.5 Q985.669 1536.5 982.518 1540.13 Q979.367 1543.73 979.367 1550.25 Q979.367 1556.78 982.518 1560.4 Q985.669 1564 991.366 1564 Q993.912 1564 996.395 1563.33 Q998.91 1562.63 1001.39 1561.26 L1001.39 1566.68 Q998.941 1567.82 996.3 1568.39 Q993.69 1568.97 990.73 1568.97 Q982.677 1568.97 977.935 1563.91 Q973.192 1558.85 973.192 1550.25 Q973.192 1541.53 977.966 1536.53 Q982.772 1531.54 991.112 1531.54 Q993.817 1531.54 996.395 1532.11 Q998.973 1532.65 1001.39 1533.76 Z" fill="#000000" fill-rule="nonzero" fill-opacity="1" /><path clip-path="url(#clip180)" d="M1027.78 1550.12 Q1020.68 1550.12 1017.94 1551.75 Q1015.21 1553.37 1015.21 1557.29 Q1015.21 1560.4 1017.24 1562.25 Q1019.31 1564.07 1022.84 1564.07 Q1027.71 1564.07 1030.64 1560.63 Q1033.6 1557.16 1033.6 1551.43 L1033.6 1550.12 L1027.78 1550.12 M1039.46 1547.71 L1039.46 1568.04 L1033.6 1568.04 L1033.6 1562.63 Q1031.6 1565.88 1028.61 1567.44 Q1025.61 1568.97 1021.29 1568.97 Q1015.81 1568.97 1012.56 1565.91 Q1009.35 1562.82 1009.35 1557.67 Q1009.35 1551.65 1013.36 1548.6 Q1017.4 1545.54 1025.39 1545.54 L1033.6 1545.54 L1033.6 1544.97 Q1033.6 1540.93 1030.93 1538.73 Q1028.29 1536.5 1023.48 1536.5 Q1020.43 1536.5 1017.53 1537.23 Q1014.63 1537.97 1011.96 1539.43 L1011.96 1534.02 Q1015.17 1532.78 1018.2 1532.17 Q1021.22 1531.54 1024.09 1531.54 Q1031.82 1531.54 1035.64 1535.55 Q1039.46 1539.56 1039.46 1547.71 Z" fill="#000000" fill-rule="nonzero" fill-opacity="1" /><path clip-path="url(#clip180)" d="M1051.52 1518.52 L1057.38 1518.52 L1057.38 1568.04 L1051.52 1568.04 L1051.52 1518.52 Z" fill="#000000" fill-rule="nonzero" fill-opacity="1" /><path clip-path="url(#clip180)" d="M1096.72 1578.87 L1096.72 1583.42 L1062.85 1583.42 L1062.85 1578.87 L1096.72 1578.87 Z" fill="#000000" fill-rule="nonzero" fill-opacity="1" /><path clip-path="url(#clip180)" d="M1131.86 1546.53 L1131.86 1568.04 L1126 1568.04 L1126 1546.72 Q1126 1541.66 1124.03 1539.14 Q1122.05 1536.63 1118.11 1536.63 Q1113.36 1536.63 1110.63 1539.65 Q1107.89 1542.68 1107.89 1547.9 L1107.89 1568.04 L1102 1568.04 L1102 1518.52 L1107.89 1518.52 L1107.89 1537.93 Q1109.99 1534.72 1112.82 1533.13 Q1115.69 1531.54 1119.41 1531.54 Q1125.56 1531.54 1128.71 1535.36 Q1131.86 1539.14 1131.86 1546.53 Z" fill="#000000" fill-rule="nonzero" fill-opacity="1" /><path clip-path="url(#clip180)" d="M1159.74 1550.12 Q1152.64 1550.12 1149.9 1551.75 Q1147.17 1553.37 1147.17 1557.29 Q1147.17 1560.4 1149.2 1562.25 Q1151.27 1564.07 1154.81 1564.07 Q1159.68 1564.07 1162.6 1560.63 Q1165.56 1557.16 1165.56 1551.43 L1165.56 1550.12 L1159.74 1550.12 M1171.42 1547.71 L1171.42 1568.04 L1165.56 1568.04 L1165.56 1562.63 Q1163.56 1565.88 1160.57 1567.44 Q1157.57 1568.97 1153.25 1568.97 Q1147.77 1568.97 1144.53 1565.91 Q1141.31 1562.82 1141.31 1557.67 Q1141.31 1551.65 1145.32 1548.6 Q1149.36 1545.54 1157.35 1545.54 L1165.56 1545.54 L1165.56 1544.97 Q1165.56 1540.93 1162.89 1538.73 Q1160.25 1536.5 1155.44 1536.5 Q1152.39 1536.5 1149.49 1537.23 Q1146.59 1537.97 1143.92 1539.43 L1143.92 1534.02 Q1147.14 1532.78 1150.16 1532.17 Q1153.18 1531.54 1156.05 1531.54 Q1163.78 1531.54 1167.6 1535.55 Q1171.42 1539.56 1171.42 1547.71 Z" fill="#000000" fill-rule="nonzero" fill-opacity="1" /><path clip-path="url(#clip180)" d="M1204.14 1537.87 Q1203.15 1537.3 1201.98 1537.04 Q1200.83 1536.76 1199.43 1536.76 Q1194.46 1536.76 1191.79 1540 Q1189.15 1543.22 1189.15 1549.27 L1189.15 1568.04 L1183.26 1568.04 L1183.26 1532.4 L1189.15 1532.4 L1189.15 1537.93 Q1190.99 1534.69 1193.95 1533.13 Q1196.91 1531.54 1201.15 1531.54 Q1201.75 1531.54 1202.48 1531.63 Q1203.22 1531.7 1204.11 1531.85 L1204.14 1537.87 Z" fill="#000000" fill-rule="nonzero" fill-opacity="1" /><path clip-path="url(#clip180)" d="M1236.89 1539.24 Q1239.09 1535.29 1242.14 1533.41 Q1245.2 1531.54 1249.34 1531.54 Q1254.91 1531.54 1257.93 1535.45 Q1260.95 1539.33 1260.95 1546.53 L1260.95 1568.04 L1255.07 1568.04 L1255.07 1546.72 Q1255.07 1541.59 1253.25 1539.11 Q1251.44 1536.63 1247.71 1536.63 Q1243.16 1536.63 1240.52 1539.65 Q1237.88 1542.68 1237.88 1547.9 L1237.88 1568.04 L1231.99 1568.04 L1231.99 1546.72 Q1231.99 1541.56 1230.18 1539.11 Q1228.36 1536.63 1224.57 1536.63 Q1220.09 1536.63 1217.44 1539.68 Q1214.8 1542.71 1214.8 1547.9 L1214.8 1568.04 L1208.91 1568.04 L1208.91 1532.4 L1214.8 1532.4 L1214.8 1537.93 Q1216.81 1534.66 1219.61 1533.1 Q1222.41 1531.54 1226.26 1531.54 Q1230.14 1531.54 1232.85 1533.51 Q1235.59 1535.48 1236.89 1539.24 Z" fill="#000000" fill-rule="nonzero" fill-opacity="1" /><path clip-path="url(#clip180)" d="M1286.45 1536.5 Q1281.74 1536.5 1279 1540.19 Q1276.26 1543.85 1276.26 1550.25 Q1276.26 1556.65 1278.97 1560.34 Q1281.71 1564 1286.45 1564 Q1291.13 1564 1293.86 1560.31 Q1296.6 1556.62 1296.6 1550.25 Q1296.6 1543.92 1293.86 1540.23 Q1291.13 1536.5 1286.45 1536.5 M1286.45 1531.54 Q1294.09 1531.54 1298.45 1536.5 Q1302.81 1541.47 1302.81 1550.25 Q1302.81 1559 1298.45 1564 Q1294.09 1568.97 1286.45 1568.97 Q1278.78 1568.97 1274.42 1564 Q1270.09 1559 1270.09 1550.25 Q1270.09 1541.47 1274.42 1536.5 Q1278.78 1531.54 1286.45 1531.54 Z" fill="#000000" fill-rule="nonzero" fill-opacity="1" /><path clip-path="url(#clip180)" d="M1342.15 1546.53 L1342.15 1568.04 L1336.29 1568.04 L1336.29 1546.72 Q1336.29 1541.66 1334.32 1539.14 Q1332.35 1536.63 1328.4 1536.63 Q1323.66 1536.63 1320.92 1539.65 Q1318.18 1542.68 1318.18 1547.9 L1318.18 1568.04 L1312.29 1568.04 L1312.29 1532.4 L1318.18 1532.4 L1318.18 1537.93 Q1320.28 1534.72 1323.11 1533.13 Q1325.98 1531.54 1329.7 1531.54 Q1335.85 1531.54 1339 1535.36 Q1342.15 1539.14 1342.15 1546.53 Z" fill="#000000" fill-rule="nonzero" fill-opacity="1" /><path clip-path="url(#clip180)" d="M1353.83 1532.4 L1359.69 1532.4 L1359.69 1568.04 L1353.83 1568.04 L1353.83 1532.4 M1353.83 1518.52 L1359.69 1518.52 L1359.69 1525.93 L1353.83 1525.93 L1353.83 1518.52 Z" fill="#000000" fill-rule="nonzero" fill-opacity="1" /><path clip-path="url(#clip180)" d="M1397.59 1533.76 L1397.59 1539.24 Q1395.11 1537.87 1392.6 1537.2 Q1390.11 1536.5 1387.57 1536.5 Q1381.87 1536.5 1378.72 1540.13 Q1375.57 1543.73 1375.57 1550.25 Q1375.57 1556.78 1378.72 1560.4 Q1381.87 1564 1387.57 1564 Q1390.11 1564 1392.6 1563.33 Q1395.11 1562.63 1397.59 1561.26 L1397.59 1566.68 Q1395.14 1567.82 1392.5 1568.39 Q1389.89 1568.97 1386.93 1568.97 Q1378.88 1568.97 1374.14 1563.91 Q1369.39 1558.85 1369.39 1550.25 Q1369.39 1541.53 1374.17 1536.53 Q1378.97 1531.54 1387.31 1531.54 Q1390.02 1531.54 1392.6 1532.11 Q1395.17 1532.65 1397.59 1533.76 Z" fill="#000000" fill-rule="nonzero" fill-opacity="1" /><path clip-path="url(#clip180)" d="M1430.5 1533.45 L1430.5 1538.98 Q1428.02 1537.71 1425.35 1537.07 Q1422.67 1536.44 1419.81 1536.44 Q1415.45 1536.44 1413.25 1537.77 Q1411.09 1539.11 1411.09 1541.79 Q1411.09 1543.82 1412.65 1545 Q1414.21 1546.15 1418.92 1547.2 L1420.92 1547.64 Q1427.16 1548.98 1429.77 1551.43 Q1432.41 1553.85 1432.41 1558.21 Q1432.41 1563.17 1428.47 1566.07 Q1424.55 1568.97 1417.68 1568.97 Q1414.81 1568.97 1411.69 1568.39 Q1408.61 1567.85 1405.17 1566.74 L1405.17 1560.69 Q1408.42 1562.38 1411.57 1563.24 Q1414.72 1564.07 1417.8 1564.07 Q1421.94 1564.07 1424.17 1562.66 Q1426.4 1561.23 1426.4 1558.65 Q1426.4 1556.27 1424.78 1554.99 Q1423.18 1553.72 1417.74 1552.54 L1415.7 1552.07 Q1410.26 1550.92 1407.84 1548.56 Q1405.42 1546.18 1405.42 1542.04 Q1405.42 1537.01 1408.99 1534.27 Q1412.55 1531.54 1419.11 1531.54 Q1422.36 1531.54 1425.22 1532.01 Q1428.09 1532.49 1430.5 1533.45 Z" fill="#000000" fill-rule="nonzero" fill-opacity="1" /><path clip-path="url(#clip180)" d="M1490.21 1539.24 Q1492.41 1535.29 1495.47 1533.41 Q1498.52 1531.54 1502.66 1531.54 Q1508.23 1531.54 1511.25 1535.45 Q1514.28 1539.33 1514.28 1546.53 L1514.28 1568.04 L1508.39 1568.04 L1508.39 1546.72 Q1508.39 1541.59 1506.57 1539.11 Q1504.76 1536.63 1501.04 1536.63 Q1496.49 1536.63 1493.84 1539.65 Q1491.2 1542.68 1491.2 1547.9 L1491.2 1568.04 L1485.31 1568.04 L1485.31 1546.72 Q1485.31 1541.56 1483.5 1539.11 Q1481.68 1536.63 1477.9 1536.63 Q1473.41 1536.63 1470.77 1539.68 Q1468.13 1542.71 1468.13 1547.9 L1468.13 1568.04 L1462.24 1568.04 L1462.24 1532.4 L1468.13 1532.4 L1468.13 1537.93 Q1470.13 1534.66 1472.93 1533.1 Q1475.73 1531.54 1479.58 1531.54 Q1483.47 1531.54 1486.17 1533.51 Q1488.91 1535.48 1490.21 1539.24 Z" fill="#000000" fill-rule="nonzero" fill-opacity="1" /><path clip-path="url(#clip180)" d="M1539.77 1536.5 Q1535.06 1536.5 1532.32 1540.19 Q1529.59 1543.85 1529.59 1550.25 Q1529.59 1556.65 1532.29 1560.34 Q1535.03 1564 1539.77 1564 Q1544.45 1564 1547.19 1560.31 Q1549.93 1556.62 1549.93 1550.25 Q1549.93 1543.92 1547.19 1540.23 Q1544.45 1536.5 1539.77 1536.5 M1539.77 1531.54 Q1547.41 1531.54 1551.77 1536.5 Q1556.13 1541.47 1556.13 1550.25 Q1556.13 1559 1551.77 1564 Q1547.41 1568.97 1539.77 1568.97 Q1532.1 1568.97 1527.74 1564 Q1523.41 1559 1523.41 1550.25 Q1523.41 1541.47 1527.74 1536.5 Q1532.1 1531.54 1539.77 1531.54 Z" fill="#000000" fill-rule="nonzero" fill-opacity="1" /><path clip-path="url(#clip180)" d="M1589.3 1537.81 L1589.3 1518.52 L1595.15 1518.52 L1595.15 1568.04 L1589.3 1568.04 L1589.3 1562.7 Q1587.45 1565.88 1584.62 1567.44 Q1581.82 1568.97 1577.87 1568.97 Q1571.41 1568.97 1567.34 1563.81 Q1563.29 1558.65 1563.29 1550.25 Q1563.29 1541.85 1567.34 1536.69 Q1571.41 1531.54 1577.87 1531.54 Q1581.82 1531.54 1584.62 1533.1 Q1587.45 1534.62 1589.3 1537.81 M1569.34 1550.25 Q1569.34 1556.71 1571.98 1560.4 Q1574.66 1564.07 1579.3 1564.07 Q1583.95 1564.07 1586.62 1560.4 Q1589.3 1556.71 1589.3 1550.25 Q1589.3 1543.79 1586.62 1540.13 Q1583.95 1536.44 1579.3 1536.44 Q1574.66 1536.44 1571.98 1540.13 Q1569.34 1543.79 1569.34 1550.25 Z" fill="#000000" fill-rule="nonzero" fill-opacity="1" /><path clip-path="url(#clip180)" d="M1637.71 1548.76 L1637.71 1551.62 L1610.78 1551.62 Q1611.16 1557.67 1614.41 1560.85 Q1617.69 1564 1623.51 1564 Q1626.89 1564 1630.04 1563.17 Q1633.22 1562.35 1636.34 1560.69 L1636.34 1566.23 Q1633.19 1567.57 1629.88 1568.27 Q1626.57 1568.97 1623.16 1568.97 Q1614.63 1568.97 1609.64 1564 Q1604.67 1559.04 1604.67 1550.57 Q1604.67 1541.82 1609.38 1536.69 Q1614.12 1531.54 1622.14 1531.54 Q1629.34 1531.54 1633.51 1536.18 Q1637.71 1540.8 1637.71 1548.76 M1631.85 1547.04 Q1631.79 1542.23 1629.15 1539.37 Q1626.54 1536.5 1622.21 1536.5 Q1617.31 1536.5 1614.35 1539.27 Q1611.42 1542.04 1610.97 1547.07 L1631.85 1547.04 Z" fill="#000000" fill-rule="nonzero" fill-opacity="1" /><path clip-path="url(#clip180)" d="M1647.32 1518.52 L1653.18 1518.52 L1653.18 1568.04 L1647.32 1568.04 L1647.32 1518.52 Z" fill="#000000" fill-rule="nonzero" fill-opacity="1" /><path clip-path="url(#clip180)" d="M1708.88 1533.45 L1708.88 1538.98 Q1706.39 1537.71 1703.72 1537.07 Q1701.05 1536.44 1698.18 1536.44 Q1693.82 1536.44 1691.63 1537.77 Q1689.46 1539.11 1689.46 1541.79 Q1689.46 1543.82 1691.02 1545 Q1692.58 1546.15 1697.29 1547.2 L1699.3 1547.64 Q1705.53 1548.98 1708.14 1551.43 Q1710.79 1553.85 1710.79 1558.21 Q1710.79 1563.17 1706.84 1566.07 Q1702.92 1568.97 1696.05 1568.97 Q1693.19 1568.97 1690.07 1568.39 Q1686.98 1567.85 1683.54 1566.74 L1683.54 1560.69 Q1686.79 1562.38 1689.94 1563.24 Q1693.09 1564.07 1696.18 1564.07 Q1700.31 1564.07 1702.54 1562.66 Q1704.77 1561.23 1704.77 1558.65 Q1704.77 1556.27 1703.15 1554.99 Q1701.56 1553.72 1696.11 1552.54 L1694.08 1552.07 Q1688.63 1550.92 1686.21 1548.56 Q1683.8 1546.18 1683.8 1542.04 Q1683.8 1537.01 1687.36 1534.27 Q1690.93 1531.54 1697.48 1531.54 Q1700.73 1531.54 1703.59 1532.01 Q1706.46 1532.49 1708.88 1533.45 Z" fill="#000000" fill-rule="nonzero" fill-opacity="1" /><path clip-path="url(#clip180)" d="M1720.11 1532.4 L1725.97 1532.4 L1725.97 1568.04 L1720.11 1568.04 L1720.11 1532.4 M1720.11 1518.52 L1725.97 1518.52 L1725.97 1525.93 L1720.11 1525.93 L1720.11 1518.52 Z" fill="#000000" fill-rule="nonzero" fill-opacity="1" /><path clip-path="url(#clip180)" d="M1735.68 1532.4 L1763.49 1532.4 L1763.49 1537.74 L1741.47 1563.37 L1763.49 1563.37 L1763.49 1568.04 L1734.88 1568.04 L1734.88 1562.7 L1756.91 1537.07 L1735.68 1537.07 L1735.68 1532.4 Z" fill="#000000" fill-rule="nonzero" fill-opacity="1" /><path clip-path="url(#clip180)" d="M1802.93 1548.76 L1802.93 1551.62 L1776 1551.62 Q1776.39 1557.67 1779.63 1560.85 Q1782.91 1564 1788.73 1564 Q1792.11 1564 1795.26 1563.17 Q1798.44 1562.35 1801.56 1560.69 L1801.56 1566.23 Q1798.41 1567.57 1795.1 1568.27 Q1791.79 1568.97 1788.38 1568.97 Q1779.85 1568.97 1774.86 1564 Q1769.89 1559.04 1769.89 1550.57 Q1769.89 1541.82 1774.6 1536.69 Q1779.35 1531.54 1787.37 1531.54 Q1794.56 1531.54 1798.73 1536.18 Q1802.93 1540.8 1802.93 1548.76 M1797.07 1547.04 Q1797.01 1542.23 1794.37 1539.37 Q1791.76 1536.5 1787.43 1536.5 Q1782.53 1536.5 1779.57 1539.27 Q1776.64 1542.04 1776.19 1547.07 L1797.07 1547.04 Z" fill="#000000" fill-rule="nonzero" fill-opacity="1" /><polyline clip-path="url(#clip182)" style="stroke:#000000; stroke-linecap:round; stroke-linejoin:round; stroke-width:2; stroke-opacity:0.1; fill:none" points="221.637,1292.8 2352.76,1292.8 "/>
<polyline clip-path="url(#clip182)" style="stroke:#000000; stroke-linecap:round; stroke-linejoin:round; stroke-width:2; stroke-opacity:0.1; fill:none" points="221.637,687.322 2352.76,687.322 "/>
<polyline clip-path="url(#clip180)" style="stroke:#000000; stroke-linecap:round; stroke-linejoin:round; stroke-width:4; stroke-opacity:1; fill:none" points="221.637,1423.18 221.637,192.592 "/>
<polyline clip-path="url(#clip180)" style="stroke:#000000; stroke-linecap:round; stroke-linejoin:round; stroke-width:4; stroke-opacity:1; fill:none" points="221.637,1292.8 240.535,1292.8 "/>
<polyline clip-path="url(#clip180)" style="stroke:#000000; stroke-linecap:round; stroke-linejoin:round; stroke-width:4; stroke-opacity:1; fill:none" points="221.637,687.322 240.535,687.322 "/>
<polyline clip-path="url(#clip180)" style="stroke:#000000; stroke-linecap:round; stroke-linejoin:round; stroke-width:4; stroke-opacity:1; fill:none" points="221.637,1394.89 231.086,1394.89 "/>
<polyline clip-path="url(#clip180)" style="stroke:#000000; stroke-linecap:round; stroke-linejoin:round; stroke-width:4; stroke-opacity:1; fill:none" points="221.637,1351.47 231.086,1351.47 "/>
<polyline clip-path="url(#clip180)" style="stroke:#000000; stroke-linecap:round; stroke-linejoin:round; stroke-width:4; stroke-opacity:1; fill:none" points="221.637,1318.89 231.086,1318.89 "/>
<polyline clip-path="url(#clip180)" style="stroke:#000000; stroke-linecap:round; stroke-linejoin:round; stroke-width:4; stroke-opacity:1; fill:none" points="221.637,1292.8 231.086,1292.8 "/>
<polyline clip-path="url(#clip180)" style="stroke:#000000; stroke-linecap:round; stroke-linejoin:round; stroke-width:4; stroke-opacity:1; fill:none" points="221.637,1292.8 231.086,1292.8 "/>
<polyline clip-path="url(#clip180)" style="stroke:#000000; stroke-linecap:round; stroke-linejoin:round; stroke-width:4; stroke-opacity:1; fill:none" points="221.637,1157.43 231.086,1157.43 "/>
<polyline clip-path="url(#clip180)" style="stroke:#000000; stroke-linecap:round; stroke-linejoin:round; stroke-width:4; stroke-opacity:1; fill:none" points="221.637,1092.16 231.086,1092.16 "/>
<polyline clip-path="url(#clip180)" style="stroke:#000000; stroke-linecap:round; stroke-linejoin:round; stroke-width:4; stroke-opacity:1; fill:none" points="221.637,1048.74 231.086,1048.74 "/>
<polyline clip-path="url(#clip180)" style="stroke:#000000; stroke-linecap:round; stroke-linejoin:round; stroke-width:4; stroke-opacity:1; fill:none" points="221.637,1016.15 231.086,1016.15 "/>
<polyline clip-path="url(#clip180)" style="stroke:#000000; stroke-linecap:round; stroke-linejoin:round; stroke-width:4; stroke-opacity:1; fill:none" points="221.637,1157.43 231.086,1157.43 "/>
<polyline clip-path="url(#clip180)" style="stroke:#000000; stroke-linecap:round; stroke-linejoin:round; stroke-width:4; stroke-opacity:1; fill:none" points="221.637,1092.16 231.086,1092.16 "/>
<polyline clip-path="url(#clip180)" style="stroke:#000000; stroke-linecap:round; stroke-linejoin:round; stroke-width:4; stroke-opacity:1; fill:none" points="221.637,1048.74 231.086,1048.74 "/>
<polyline clip-path="url(#clip180)" style="stroke:#000000; stroke-linecap:round; stroke-linejoin:round; stroke-width:4; stroke-opacity:1; fill:none" points="221.637,1016.15 231.086,1016.15 "/>
<polyline clip-path="url(#clip180)" style="stroke:#000000; stroke-linecap:round; stroke-linejoin:round; stroke-width:4; stroke-opacity:1; fill:none" points="221.637,990.06 231.086,990.06 "/>
<polyline clip-path="url(#clip180)" style="stroke:#000000; stroke-linecap:round; stroke-linejoin:round; stroke-width:4; stroke-opacity:1; fill:none" points="221.637,990.06 231.086,990.06 "/>
<polyline clip-path="url(#clip180)" style="stroke:#000000; stroke-linecap:round; stroke-linejoin:round; stroke-width:4; stroke-opacity:1; fill:none" points="221.637,854.688 231.086,854.688 "/>
<polyline clip-path="url(#clip180)" style="stroke:#000000; stroke-linecap:round; stroke-linejoin:round; stroke-width:4; stroke-opacity:1; fill:none" points="221.637,789.418 231.086,789.418 "/>
<polyline clip-path="url(#clip180)" style="stroke:#000000; stroke-linecap:round; stroke-linejoin:round; stroke-width:4; stroke-opacity:1; fill:none" points="221.637,745.999 231.086,745.999 "/>
<polyline clip-path="url(#clip180)" style="stroke:#000000; stroke-linecap:round; stroke-linejoin:round; stroke-width:4; stroke-opacity:1; fill:none" points="221.637,713.414 231.086,713.414 "/>
<polyline clip-path="url(#clip180)" style="stroke:#000000; stroke-linecap:round; stroke-linejoin:round; stroke-width:4; stroke-opacity:1; fill:none" points="221.637,551.95 231.086,551.95 "/>
<polyline clip-path="url(#clip180)" style="stroke:#000000; stroke-linecap:round; stroke-linejoin:round; stroke-width:4; stroke-opacity:1; fill:none" points="221.637,486.68 231.086,486.68 "/>
<polyline clip-path="url(#clip180)" style="stroke:#000000; stroke-linecap:round; stroke-linejoin:round; stroke-width:4; stroke-opacity:1; fill:none" points="221.637,443.261 231.086,443.261 "/>
<polyline clip-path="url(#clip180)" style="stroke:#000000; stroke-linecap:round; stroke-linejoin:round; stroke-width:4; stroke-opacity:1; fill:none" points="221.637,410.676 231.086,410.676 "/>
<polyline clip-path="url(#clip180)" style="stroke:#000000; stroke-linecap:round; stroke-linejoin:round; stroke-width:4; stroke-opacity:1; fill:none" points="221.637,384.584 231.086,384.584 "/>
<polyline clip-path="url(#clip180)" style="stroke:#000000; stroke-linecap:round; stroke-linejoin:round; stroke-width:4; stroke-opacity:1; fill:none" points="221.637,384.584 231.086,384.584 "/>
<polyline clip-path="url(#clip180)" style="stroke:#000000; stroke-linecap:round; stroke-linejoin:round; stroke-width:4; stroke-opacity:1; fill:none" points="221.637,249.212 231.086,249.212 "/>
<path clip-path="url(#clip180)" d="M114.931 1312.59 L122.57 1312.59 L122.57 1286.22 L114.26 1287.89 L114.26 1283.63 L122.524 1281.97 L127.2 1281.97 L127.2 1312.59 L134.839 1312.59 L134.839 1316.53 L114.931 1316.53 L114.931 1312.59 Z" fill="#000000" fill-rule="nonzero" fill-opacity="1" /><path clip-path="url(#clip180)" d="M154.283 1285.04 Q150.672 1285.04 148.843 1288.61 Q147.038 1292.15 147.038 1299.28 Q147.038 1306.39 148.843 1309.95 Q150.672 1313.49 154.283 1313.49 Q157.917 1313.49 159.723 1309.95 Q161.552 1306.39 161.552 1299.28 Q161.552 1292.15 159.723 1288.61 Q157.917 1285.04 154.283 1285.04 M154.283 1281.34 Q160.093 1281.34 163.149 1285.95 Q166.227 1290.53 166.227 1299.28 Q166.227 1308.01 163.149 1312.61 Q160.093 1317.2 154.283 1317.2 Q148.473 1317.2 145.394 1312.61 Q142.339 1308.01 142.339 1299.28 Q142.339 1290.53 145.394 1285.95 Q148.473 1281.34 154.283 1281.34 Z" fill="#000000" fill-rule="nonzero" fill-opacity="1" /><path clip-path="url(#clip180)" d="M175.932 1263.54 Q172.998 1263.54 171.512 1266.43 Q170.045 1269.31 170.045 1275.1 Q170.045 1280.88 171.512 1283.77 Q172.998 1286.65 175.932 1286.65 Q178.885 1286.65 180.352 1283.77 Q181.838 1280.88 181.838 1275.1 Q181.838 1269.31 180.352 1266.43 Q178.885 1263.54 175.932 1263.54 M175.932 1260.53 Q180.653 1260.53 183.136 1264.27 Q185.637 1267.99 185.637 1275.1 Q185.637 1282.19 183.136 1285.94 Q180.653 1289.66 175.932 1289.66 Q171.212 1289.66 168.71 1285.94 Q166.227 1282.19 166.227 1275.1 Q166.227 1267.99 168.71 1264.27 Q171.212 1260.53 175.932 1260.53 Z" fill="#000000" fill-rule="nonzero" fill-opacity="1" /><path clip-path="url(#clip180)" d="M116.511 707.114 L124.15 707.114 L124.15 680.749 L115.84 682.416 L115.84 678.156 L124.104 676.49 L128.78 676.49 L128.78 707.114 L136.419 707.114 L136.419 711.05 L116.511 711.05 L116.511 707.114 Z" fill="#000000" fill-rule="nonzero" fill-opacity="1" /><path clip-path="url(#clip180)" d="M155.863 679.568 Q152.252 679.568 150.423 683.133 Q148.618 686.675 148.618 693.804 Q148.618 700.911 150.423 704.476 Q152.252 708.017 155.863 708.017 Q159.497 708.017 161.303 704.476 Q163.131 700.911 163.131 693.804 Q163.131 686.675 161.303 683.133 Q159.497 679.568 155.863 679.568 M155.863 675.865 Q161.673 675.865 164.729 680.471 Q167.807 685.054 167.807 693.804 Q167.807 702.531 164.729 707.138 Q161.673 711.721 155.863 711.721 Q150.053 711.721 146.974 707.138 Q143.919 702.531 143.919 693.804 Q143.919 685.054 146.974 680.471 Q150.053 675.865 155.863 675.865 Z" fill="#000000" fill-rule="nonzero" fill-opacity="1" /><path clip-path="url(#clip180)" d="M172.378 680.442 L185.637 680.442 L185.637 683.639 L167.807 683.639 L167.807 680.442 Q169.97 678.204 173.694 674.442 Q177.437 670.662 178.396 669.571 Q180.22 667.521 180.935 666.11 Q181.669 664.681 181.669 663.308 Q181.669 661.07 180.089 659.659 Q178.528 658.249 176.008 658.249 Q174.221 658.249 172.227 658.869 Q170.252 659.49 167.995 660.75 L167.995 656.913 Q170.29 655.992 172.284 655.522 Q174.277 655.051 175.932 655.051 Q180.296 655.051 182.891 657.233 Q185.487 659.415 185.487 663.064 Q185.487 664.794 184.828 666.355 Q184.189 667.897 182.477 670.004 Q182.007 670.549 179.487 673.163 Q176.967 675.759 172.378 680.442 Z" fill="#000000" fill-rule="nonzero" fill-opacity="1" /><path clip-path="url(#clip180)" d="M41.7242 864.047 Q42.4244 861.979 44.7161 860.037 Q47.0077 858.064 51.0181 856.09 L64.0042 849.565 L64.0042 856.472 L51.8138 862.551 Q47.0395 864.907 45.48 867.135 Q43.9204 869.331 43.9204 873.15 L43.9204 880.153 L64.0042 880.153 L64.0042 886.582 L16.4842 886.582 L16.4842 872.068 Q16.4842 863.92 19.8898 859.91 Q23.2955 855.899 30.1704 855.899 Q34.6582 855.899 37.6183 858 Q40.5784 860.069 41.7242 864.047 M21.7677 880.153 L38.6368 880.153 L38.6368 872.068 Q38.6368 867.421 36.5043 865.066 Q34.34 862.679 30.1704 862.679 Q26.0009 862.679 23.9002 865.066 Q21.7677 867.421 21.7677 872.068 L21.7677 880.153 Z" fill="#000000" fill-rule="nonzero" fill-opacity="1" /><path clip-path="url(#clip180)" d="M46.0847 826.776 Q46.0847 833.874 47.7079 836.611 Q49.3312 839.348 53.2461 839.348 Q56.3653 839.348 58.2114 837.311 Q60.0256 835.243 60.0256 831.71 Q60.0256 826.84 56.5881 823.912 Q53.1188 820.952 47.3897 820.952 L46.0847 820.952 L46.0847 826.776 M43.6657 815.095 L64.0042 815.095 L64.0042 820.952 L58.5933 820.952 Q61.8398 822.957 63.3994 825.949 Q64.9272 828.941 64.9272 833.269 Q64.9272 838.744 61.8716 841.99 Q58.7843 845.205 53.6281 845.205 Q47.6125 845.205 44.5569 841.195 Q41.5014 837.152 41.5014 829.163 L41.5014 820.952 L40.9285 820.952 Q36.8862 820.952 34.6901 823.625 Q32.4621 826.267 32.4621 831.073 Q32.4621 834.129 33.1941 837.025 Q33.9262 839.921 35.3903 842.595 L29.9795 842.595 Q28.7381 839.38 28.1334 836.357 Q27.4968 833.333 27.4968 830.468 Q27.4968 822.734 31.5072 818.915 Q35.5176 815.095 43.6657 815.095 Z" fill="#000000" fill-rule="nonzero" fill-opacity="1" /><path clip-path="url(#clip180)" d="M18.2347 797.239 L28.3562 797.239 L28.3562 785.176 L32.9077 785.176 L32.9077 797.239 L52.2594 797.239 Q56.6199 797.239 57.8613 796.062 Q59.1026 794.852 59.1026 791.192 L59.1026 785.176 L64.0042 785.176 L64.0042 791.192 Q64.0042 797.971 61.4897 800.55 Q58.9434 803.128 52.2594 803.128 L32.9077 803.128 L32.9077 807.424 L28.3562 807.424 L28.3562 803.128 L18.2347 803.128 L18.2347 797.239 Z" fill="#000000" fill-rule="nonzero" fill-opacity="1" /><path clip-path="url(#clip180)" d="M28.3562 777.474 L28.3562 771.617 L64.0042 771.617 L64.0042 777.474 L28.3562 777.474 M14.479 777.474 L14.479 771.617 L21.895 771.617 L21.895 777.474 L14.479 777.474 Z" fill="#000000" fill-rule="nonzero" fill-opacity="1" /><path clip-path="url(#clip180)" d="M32.4621 745.55 Q32.4621 750.26 36.1542 752.998 Q39.8145 755.735 46.212 755.735 Q52.6095 755.735 56.3017 753.03 Q59.9619 750.292 59.9619 745.55 Q59.9619 740.871 56.2698 738.134 Q52.5777 735.396 46.212 735.396 Q39.8781 735.396 36.186 738.134 Q32.4621 740.871 32.4621 745.55 M27.4968 745.55 Q27.4968 737.911 32.4621 733.55 Q37.4273 729.19 46.212 729.19 Q54.9649 729.19 59.9619 733.55 Q64.9272 737.911 64.9272 745.55 Q64.9272 753.22 59.9619 757.581 Q54.9649 761.91 46.212 761.91 Q37.4273 761.91 32.4621 757.581 Q27.4968 753.22 27.4968 745.55 Z" fill="#000000" fill-rule="nonzero" fill-opacity="1" /><path clip-path="url(#clip180)" d="M890.15 30.24 L926.695 30.24 L926.695 35.159 L911.359 35.159 L911.359 73.44 L905.486 73.44 L905.486 35.159 L890.15 35.159 L890.15 30.24 Z" fill="#000000" fill-rule="nonzero" fill-opacity="1" /><path clip-path="url(#clip180)" d="M930.283 41.0328 L935.607 41.0328 L935.607 73.44 L930.283 73.44 L930.283 41.0328 M930.283 28.4171 L935.607 28.4171 L935.607 35.159 L930.283 35.159 L930.283 28.4171 Z" fill="#000000" fill-rule="nonzero" fill-opacity="1" /><path clip-path="url(#clip180)" d="M971.978 47.2538 Q973.975 43.6659 976.753 41.9587 Q979.53 40.2515 983.292 40.2515 Q988.356 40.2515 991.104 43.8105 Q993.853 47.3406 993.853 53.8799 L993.853 73.44 L988.5 73.44 L988.5 54.0535 Q988.5 49.395 986.851 47.1381 Q985.202 44.8811 981.816 44.8811 Q977.678 44.8811 975.277 47.63 Q972.875 50.3788 972.875 55.1241 L972.875 73.44 L967.522 73.44 L967.522 54.0535 Q967.522 49.3661 965.873 47.1381 Q964.224 44.8811 960.78 44.8811 Q956.701 44.8811 954.299 47.6589 Q951.897 50.4077 951.897 55.1241 L951.897 73.44 L946.544 73.44 L946.544 41.0328 L951.897 41.0328 L951.897 46.0675 Q953.72 43.0872 956.267 41.6693 Q958.813 40.2515 962.314 40.2515 Q965.844 40.2515 968.304 42.0455 Q970.792 43.8395 971.978 47.2538 Z" fill="#000000" fill-rule="nonzero" fill-opacity="1" /><path clip-path="url(#clip180)" d="M1032.19 55.9054 L1032.19 58.5095 L1007.71 58.5095 Q1008.06 64.0072 1011.01 66.9007 Q1013.99 69.7653 1019.29 69.7653 Q1022.35 69.7653 1025.22 69.0129 Q1028.11 68.2606 1030.95 66.756 L1030.95 71.7907 Q1028.08 73.006 1025.07 73.6425 Q1022.06 74.2791 1018.97 74.2791 Q1011.21 74.2791 1006.67 69.7653 Q1002.16 65.2514 1002.16 57.5547 Q1002.16 49.5975 1006.44 44.939 Q1010.75 40.2515 1018.04 40.2515 Q1024.58 40.2515 1028.37 44.476 Q1032.19 48.6716 1032.19 55.9054 M1026.87 54.3429 Q1026.81 49.9737 1024.41 47.3695 Q1022.04 44.7654 1018.1 44.7654 Q1013.64 44.7654 1010.95 47.2827 Q1008.29 49.8001 1007.89 54.3718 L1026.87 54.3429 Z" fill="#000000" fill-rule="nonzero" fill-opacity="1" /><path clip-path="url(#clip180)" d="M1078.55 46.0096 Q1077.65 45.4888 1076.58 45.2573 Q1075.54 44.9969 1074.26 44.9969 Q1069.75 44.9969 1067.32 47.9482 Q1064.92 50.8707 1064.92 56.3683 L1064.92 73.44 L1059.56 73.44 L1059.56 41.0328 L1064.92 41.0328 L1064.92 46.0675 Q1066.6 43.1161 1069.29 41.6983 Q1071.98 40.2515 1075.83 40.2515 Q1076.38 40.2515 1077.04 40.3383 Q1077.71 40.3962 1078.52 40.5409 L1078.55 46.0096 Z" fill="#000000" fill-rule="nonzero" fill-opacity="1" /><path clip-path="url(#clip180)" d="M1098.86 57.1496 Q1092.41 57.1496 1089.92 58.6253 Q1087.43 60.101 1087.43 63.66 Q1087.43 66.4956 1089.28 68.1738 Q1091.16 69.8231 1094.37 69.8231 Q1098.8 69.8231 1101.46 66.6981 Q1104.15 63.5442 1104.15 58.3359 L1104.15 57.1496 L1098.86 57.1496 M1109.48 54.9505 L1109.48 73.44 L1104.15 73.44 L1104.15 68.521 Q1102.33 71.4724 1099.61 72.8902 Q1096.89 74.2791 1092.96 74.2791 Q1087.98 74.2791 1085.03 71.5014 Q1082.11 68.6947 1082.11 64.0072 Q1082.11 58.5385 1085.75 55.7607 Q1089.43 52.9829 1096.69 52.9829 L1104.15 52.9829 L1104.15 52.4621 Q1104.15 48.7874 1101.72 46.7908 Q1099.32 44.7654 1094.95 44.7654 Q1092.17 44.7654 1089.54 45.4309 Q1086.91 46.0964 1084.48 47.4274 L1084.48 42.5085 Q1087.4 41.38 1090.15 40.8302 Q1092.9 40.2515 1095.5 40.2515 Q1102.53 40.2515 1106.01 43.8973 Q1109.48 47.5431 1109.48 54.9505 Z" fill="#000000" fill-rule="nonzero" fill-opacity="1" /><path clip-path="url(#clip180)" d="M1125.71 31.8314 L1125.71 41.0328 L1136.68 41.0328 L1136.68 45.1705 L1125.71 45.1705 L1125.71 62.763 Q1125.71 66.7271 1126.78 67.8555 Q1127.88 68.984 1131.21 68.984 L1136.68 68.984 L1136.68 73.44 L1131.21 73.44 Q1125.04 73.44 1122.7 71.1541 Q1120.36 68.8393 1120.36 62.763 L1120.36 45.1705 L1116.45 45.1705 L1116.45 41.0328 L1120.36 41.0328 L1120.36 31.8314 L1125.71 31.8314 Z" fill="#000000" fill-rule="nonzero" fill-opacity="1" /><path clip-path="url(#clip180)" d="M1143.68 41.0328 L1149 41.0328 L1149 73.44 L1143.68 73.44 L1143.68 41.0328 M1143.68 28.4171 L1149 28.4171 L1149 35.159 L1143.68 35.159 L1143.68 28.4171 Z" fill="#000000" fill-rule="nonzero" fill-opacity="1" /><path clip-path="url(#clip180)" d="M1172.7 44.7654 Q1168.42 44.7654 1165.93 48.1218 Q1163.44 51.4494 1163.44 57.2653 Q1163.44 63.0813 1165.9 66.4377 Q1168.39 69.7653 1172.7 69.7653 Q1176.95 69.7653 1179.44 66.4088 Q1181.93 63.0523 1181.93 57.2653 Q1181.93 51.5072 1179.44 48.1508 Q1176.95 44.7654 1172.7 44.7654 M1172.7 40.2515 Q1179.64 40.2515 1183.61 44.7654 Q1187.57 49.2792 1187.57 57.2653 Q1187.57 65.2225 1183.61 69.7653 Q1179.64 74.2791 1172.7 74.2791 Q1165.73 74.2791 1161.76 69.7653 Q1157.83 65.2225 1157.83 57.2653 Q1157.83 49.2792 1161.76 44.7654 Q1165.73 40.2515 1172.7 40.2515 Z" fill="#000000" fill-rule="nonzero" fill-opacity="1" /><path clip-path="url(#clip180)" d="M1197.76 66.0905 L1203.86 66.0905 L1203.86 71.0673 L1199.12 80.3265 L1195.39 80.3265 L1197.76 71.0673 L1197.76 66.0905 Z" fill="#000000" fill-rule="nonzero" fill-opacity="1" /><path clip-path="url(#clip180)" d="M1260.2 31.6578 L1260.2 37.358 Q1256.87 35.7666 1253.92 34.9853 Q1250.97 34.2041 1248.22 34.2041 Q1243.45 34.2041 1240.84 36.0559 Q1238.27 37.9078 1238.27 41.3221 Q1238.27 44.1867 1239.97 45.6624 Q1241.71 47.1091 1246.51 48.0061 L1250.04 48.7295 Q1256.58 49.9737 1259.68 53.1276 Q1262.8 56.2526 1262.8 61.5188 Q1262.8 67.7977 1258.58 71.0384 Q1254.38 74.2791 1246.25 74.2791 Q1243.19 74.2791 1239.71 73.5847 Q1236.27 72.8902 1232.57 71.5303 L1232.57 65.5118 Q1236.13 67.5083 1239.54 68.521 Q1242.95 69.5338 1246.25 69.5338 Q1251.26 69.5338 1253.98 67.5662 Q1256.7 65.5986 1256.7 61.9528 Q1256.7 58.7699 1254.73 56.976 Q1252.79 55.182 1248.34 54.285 L1244.78 53.5906 Q1238.24 52.2885 1235.32 49.5107 Q1232.39 46.733 1232.39 41.7851 Q1232.39 36.0559 1236.42 32.7573 Q1240.47 29.4588 1247.56 29.4588 Q1250.59 29.4588 1253.75 30.0085 Q1256.9 30.5583 1260.2 31.6578 Z" fill="#000000" fill-rule="nonzero" fill-opacity="1" /><path clip-path="url(#clip180)" d="M1285.17 76.4492 Q1282.91 82.2362 1280.77 84.0013 Q1278.63 85.7663 1275.04 85.7663 L1270.79 85.7663 L1270.79 81.3103 L1273.92 81.3103 Q1276.11 81.3103 1277.33 80.2687 Q1278.54 79.227 1280.02 75.3497 L1280.98 72.9192 L1267.87 41.0328 L1273.51 41.0328 L1283.64 66.3799 L1293.76 41.0328 L1299.41 41.0328 L1285.17 76.4492 Z" fill="#000000" fill-rule="nonzero" fill-opacity="1" /><path clip-path="url(#clip180)" d="M1331.99 47.2538 Q1333.98 43.6659 1336.76 41.9587 Q1339.54 40.2515 1343.3 40.2515 Q1348.37 40.2515 1351.11 43.8105 Q1353.86 47.3406 1353.86 53.8799 L1353.86 73.44 L1348.51 73.44 L1348.51 54.0535 Q1348.51 49.395 1346.86 47.1381 Q1345.21 44.8811 1341.83 44.8811 Q1337.69 44.8811 1335.29 47.63 Q1332.88 50.3788 1332.88 55.1241 L1332.88 73.44 L1327.53 73.44 L1327.53 54.0535 Q1327.53 49.3661 1325.88 47.1381 Q1324.23 44.8811 1320.79 44.8811 Q1316.71 44.8811 1314.31 47.6589 Q1311.91 50.4077 1311.91 55.1241 L1311.91 73.44 L1306.55 73.44 L1306.55 41.0328 L1311.91 41.0328 L1311.91 46.0675 Q1313.73 43.0872 1316.28 41.6693 Q1318.82 40.2515 1322.32 40.2515 Q1325.85 40.2515 1328.31 42.0455 Q1330.8 43.8395 1331.99 47.2538 Z" fill="#000000" fill-rule="nonzero" fill-opacity="1" /><path clip-path="url(#clip180)" d="M1387.75 57.2653 Q1387.75 51.3915 1385.32 48.064 Q1382.91 44.7075 1378.69 44.7075 Q1374.46 44.7075 1372.03 48.064 Q1369.63 51.3915 1369.63 57.2653 Q1369.63 63.1391 1372.03 66.4956 Q1374.46 69.8231 1378.69 69.8231 Q1382.91 69.8231 1385.32 66.4956 Q1387.75 63.1391 1387.75 57.2653 M1369.63 45.9517 Q1371.31 43.0582 1373.86 41.6693 Q1376.43 40.2515 1379.99 40.2515 Q1385.89 40.2515 1389.57 44.939 Q1393.27 49.6265 1393.27 57.2653 Q1393.27 64.9042 1389.57 69.5916 Q1385.89 74.2791 1379.99 74.2791 Q1376.43 74.2791 1373.86 72.8902 Q1371.31 71.4724 1369.63 68.5789 L1369.63 73.44 L1364.28 73.44 L1364.28 28.4171 L1369.63 28.4171 L1369.63 45.9517 Z" fill="#000000" fill-rule="nonzero" fill-opacity="1" /><path clip-path="url(#clip180)" d="M1414.66 44.7654 Q1410.37 44.7654 1407.88 48.1218 Q1405.4 51.4494 1405.4 57.2653 Q1405.4 63.0813 1407.86 66.4377 Q1410.34 69.7653 1414.66 69.7653 Q1418.91 69.7653 1421.4 66.4088 Q1423.89 63.0523 1423.89 57.2653 Q1423.89 51.5072 1421.4 48.1508 Q1418.91 44.7654 1414.66 44.7654 M1414.66 40.2515 Q1421.6 40.2515 1425.56 44.7654 Q1429.53 49.2792 1429.53 57.2653 Q1429.53 65.2225 1425.56 69.7653 Q1421.6 74.2791 1414.66 74.2791 Q1407.68 74.2791 1403.72 69.7653 Q1399.78 65.2225 1399.78 57.2653 Q1399.78 49.2792 1403.72 44.7654 Q1407.68 40.2515 1414.66 40.2515 Z" fill="#000000" fill-rule="nonzero" fill-opacity="1" /><path clip-path="url(#clip180)" d="M1438.35 28.4171 L1443.68 28.4171 L1443.68 73.44 L1438.35 73.44 L1438.35 28.4171 Z" fill="#000000" fill-rule="nonzero" fill-opacity="1" /><path clip-path="url(#clip180)" d="M1454.82 41.0328 L1460.14 41.0328 L1460.14 73.44 L1454.82 73.44 L1454.82 41.0328 M1454.82 28.4171 L1460.14 28.4171 L1460.14 35.159 L1454.82 35.159 L1454.82 28.4171 Z" fill="#000000" fill-rule="nonzero" fill-opacity="1" /><path clip-path="url(#clip180)" d="M1494.6 42.277 L1494.6 47.2538 Q1492.35 46.0096 1490.06 45.402 Q1487.8 44.7654 1485.49 44.7654 Q1480.31 44.7654 1477.44 48.064 Q1474.58 51.3336 1474.58 57.2653 Q1474.58 63.197 1477.44 66.4956 Q1480.31 69.7653 1485.49 69.7653 Q1487.8 69.7653 1490.06 69.1576 Q1492.35 68.521 1494.6 67.2768 L1494.6 72.1958 Q1492.37 73.2375 1489.97 73.7583 Q1487.6 74.2791 1484.91 74.2791 Q1477.59 74.2791 1473.28 69.6784 Q1468.97 65.0778 1468.97 57.2653 Q1468.97 49.3371 1473.31 44.7943 Q1477.68 40.2515 1485.26 40.2515 Q1487.72 40.2515 1490.06 40.7724 Q1492.4 41.2642 1494.6 42.277 Z" fill="#000000" fill-rule="nonzero" fill-opacity="1" /><path clip-path="url(#clip180)" d="M1524.52 41.9876 L1524.52 47.0223 Q1522.26 45.8649 1519.83 45.2862 Q1517.4 44.7075 1514.8 44.7075 Q1510.84 44.7075 1508.84 45.9228 Q1506.87 47.1381 1506.87 49.5686 Q1506.87 51.4204 1508.29 52.491 Q1509.71 53.5327 1513.99 54.4876 L1515.81 54.8926 Q1521.48 56.1079 1523.86 58.3359 Q1526.26 60.535 1526.26 64.4991 Q1526.26 69.0129 1522.67 71.646 Q1519.11 74.2791 1512.86 74.2791 Q1510.26 74.2791 1507.42 73.7583 Q1504.61 73.2664 1501.49 72.2537 L1501.49 66.756 Q1504.44 68.2896 1507.31 69.0708 Q1510.17 69.8231 1512.98 69.8231 Q1516.74 69.8231 1518.76 68.55 Q1520.79 67.2479 1520.79 64.9042 Q1520.79 62.734 1519.31 61.5766 Q1517.87 60.4192 1512.92 59.3486 L1511.07 58.9146 Q1506.12 57.873 1503.92 55.7318 Q1501.72 53.5616 1501.72 49.8001 Q1501.72 45.2283 1504.96 42.7399 Q1508.2 40.2515 1514.16 40.2515 Q1517.11 40.2515 1519.72 40.6855 Q1522.32 41.1196 1524.52 41.9876 Z" fill="#000000" fill-rule="nonzero" fill-opacity="1" /><path clip-path="url(#clip180)" d="M1544.2 30.24 L1549.12 30.24 L1534.07 78.9377 L1529.15 78.9377 L1544.2 30.24 Z" fill="#000000" fill-rule="nonzero" fill-opacity="1" /><path clip-path="url(#clip180)" d="M1554.93 30.24 L1579.76 30.24 L1579.76 35.159 L1560.78 35.159 L1560.78 47.8904 L1577.91 47.8904 L1577.91 52.8093 L1560.78 52.8093 L1560.78 73.44 L1554.93 73.44 L1554.93 30.24 Z" fill="#000000" fill-rule="nonzero" fill-opacity="1" /><path clip-path="url(#clip180)" d="M1613.87 31.6578 L1613.87 37.358 Q1610.55 35.7666 1607.59 34.9853 Q1604.64 34.2041 1601.89 34.2041 Q1597.12 34.2041 1594.52 36.0559 Q1591.94 37.9078 1591.94 41.3221 Q1591.94 44.1867 1593.65 45.6624 Q1595.38 47.1091 1600.19 48.0061 L1603.72 48.7295 Q1610.26 49.9737 1613.35 53.1276 Q1616.48 56.2526 1616.48 61.5188 Q1616.48 67.7977 1612.25 71.0384 Q1608.06 74.2791 1599.93 74.2791 Q1596.86 74.2791 1593.39 73.5847 Q1589.94 72.8902 1586.24 71.5303 L1586.24 65.5118 Q1589.8 67.5083 1593.21 68.521 Q1596.63 69.5338 1599.93 69.5338 Q1604.93 69.5338 1607.65 67.5662 Q1610.37 65.5986 1610.37 61.9528 Q1610.37 58.7699 1608.4 56.976 Q1606.47 55.182 1602.01 54.285 L1598.45 53.5906 Q1591.91 52.2885 1588.99 49.5107 Q1586.07 46.733 1586.07 41.7851 Q1586.07 36.0559 1590.09 32.7573 Q1594.14 29.4588 1601.23 29.4588 Q1604.27 29.4588 1607.42 30.0085 Q1610.57 30.5583 1613.87 31.6578 Z" fill="#000000" fill-rule="nonzero" fill-opacity="1" /><path clip-path="url(#clip180)" d="M1631.44 35.0432 L1631.44 68.6368 L1638.5 68.6368 Q1647.44 68.6368 1651.58 64.5859 Q1655.74 60.535 1655.74 51.7966 Q1655.74 43.1161 1651.58 39.0941 Q1647.44 35.0432 1638.5 35.0432 L1631.44 35.0432 M1625.59 30.24 L1637.6 30.24 Q1650.16 30.24 1656.03 35.4772 Q1661.91 40.6855 1661.91 51.7966 Q1661.91 62.9655 1656 68.2028 Q1650.1 73.44 1637.6 73.44 L1625.59 73.44 L1625.59 30.24 Z" fill="#000000" fill-rule="nonzero" fill-opacity="1" /><path clip-path="url(#clip180)" d="M998.931 106.788 L998.931 111.822 Q996.674 110.665 994.244 110.086 Q991.813 109.508 989.209 109.508 Q985.245 109.508 983.248 110.723 Q981.281 111.938 981.281 114.369 Q981.281 116.22 982.699 117.291 Q984.117 118.333 988.399 119.288 L990.222 119.693 Q995.893 120.908 998.266 123.136 Q1000.67 125.335 1000.67 129.299 Q1000.67 133.813 997.079 136.446 Q993.52 139.079 987.27 139.079 Q984.666 139.079 981.831 138.558 Q979.024 138.066 975.899 137.054 L975.899 131.556 Q978.85 133.09 981.715 133.871 Q984.579 134.623 987.386 134.623 Q991.148 134.623 993.173 133.35 Q995.199 132.048 995.199 129.704 Q995.199 127.534 993.723 126.377 Q992.276 125.219 987.328 124.149 L985.476 123.715 Q980.529 122.673 978.33 120.532 Q976.13 118.362 976.13 114.6 Q976.13 110.028 979.371 107.54 Q982.612 105.052 988.573 105.052 Q991.524 105.052 994.128 105.486 Q996.732 105.92 998.931 106.788 Z" fill="#000000" fill-rule="nonzero" fill-opacity="1" /><path clip-path="url(#clip180)" d="M1014.3 133.379 L1014.3 150.566 L1008.94 150.566 L1008.94 105.833 L1014.3 105.833 L1014.3 110.752 Q1015.97 107.858 1018.52 106.469 Q1021.1 105.052 1024.65 105.052 Q1030.56 105.052 1034.23 109.739 Q1037.94 114.426 1037.94 122.065 Q1037.94 129.704 1034.23 134.392 Q1030.56 139.079 1024.65 139.079 Q1021.1 139.079 1018.52 137.69 Q1015.97 136.272 1014.3 133.379 M1032.41 122.065 Q1032.41 116.192 1029.98 112.864 Q1027.58 109.508 1023.35 109.508 Q1019.13 109.508 1016.7 112.864 Q1014.3 116.192 1014.3 122.065 Q1014.3 127.939 1016.7 131.296 Q1019.13 134.623 1023.35 134.623 Q1027.58 134.623 1029.98 131.296 Q1032.41 127.939 1032.41 122.065 Z" fill="#000000" fill-rule="nonzero" fill-opacity="1" /><path clip-path="url(#clip180)" d="M1073.7 118.68 L1073.7 138.24 L1068.38 138.24 L1068.38 118.854 Q1068.38 114.253 1066.58 111.967 Q1064.79 109.681 1061.2 109.681 Q1056.89 109.681 1054.4 112.43 Q1051.91 115.179 1051.91 119.924 L1051.91 138.24 L1046.56 138.24 L1046.56 93.2171 L1051.91 93.2171 L1051.91 110.867 Q1053.82 107.945 1056.4 106.498 Q1059 105.052 1062.39 105.052 Q1067.97 105.052 1070.83 108.524 Q1073.7 111.967 1073.7 118.68 Z" fill="#000000" fill-rule="nonzero" fill-opacity="1" /><path clip-path="url(#clip180)" d="M1112.04 120.705 L1112.04 123.31 L1087.56 123.31 Q1087.91 128.807 1090.86 131.701 Q1093.84 134.565 1099.13 134.565 Q1102.2 134.565 1105.06 133.813 Q1107.96 133.061 1110.79 131.556 L1110.79 136.591 Q1107.93 137.806 1104.92 138.443 Q1101.91 139.079 1098.81 139.079 Q1091.06 139.079 1086.52 134.565 Q1082 130.051 1082 122.355 Q1082 114.398 1086.29 109.739 Q1090.6 105.052 1097.89 105.052 Q1104.43 105.052 1108.22 109.276 Q1112.04 113.472 1112.04 120.705 M1106.71 119.143 Q1106.66 114.774 1104.25 112.17 Q1101.88 109.565 1097.95 109.565 Q1093.49 109.565 1090.8 112.083 Q1088.14 114.6 1087.73 119.172 L1106.71 119.143 Z" fill="#000000" fill-rule="nonzero" fill-opacity="1" /><path clip-path="url(#clip180)" d="M1139.56 110.81 Q1138.66 110.289 1137.59 110.057 Q1136.55 109.797 1135.27 109.797 Q1130.76 109.797 1128.33 112.748 Q1125.93 115.671 1125.93 121.168 L1125.93 138.24 L1120.57 138.24 L1120.57 105.833 L1125.93 105.833 L1125.93 110.867 Q1127.61 107.916 1130.3 106.498 Q1132.99 105.052 1136.84 105.052 Q1137.39 105.052 1138.05 105.138 Q1138.72 105.196 1139.53 105.341 L1139.56 110.81 Z" fill="#000000" fill-rule="nonzero" fill-opacity="1" /><path clip-path="url(#clip180)" d="M1145.14 105.833 L1150.46 105.833 L1150.46 138.24 L1145.14 138.24 L1145.14 105.833 M1145.14 93.2171 L1150.46 93.2171 L1150.46 99.959 L1145.14 99.959 L1145.14 93.2171 Z" fill="#000000" fill-rule="nonzero" fill-opacity="1" /><path clip-path="url(#clip180)" d="M1184.93 107.077 L1184.93 112.054 Q1182.67 110.81 1180.38 110.202 Q1178.13 109.565 1175.81 109.565 Q1170.63 109.565 1167.77 112.864 Q1164.9 116.134 1164.9 122.065 Q1164.9 127.997 1167.77 131.296 Q1170.63 134.565 1175.81 134.565 Q1178.13 134.565 1180.38 133.958 Q1182.67 133.321 1184.93 132.077 L1184.93 136.996 Q1182.7 138.037 1180.3 138.558 Q1177.92 139.079 1175.23 139.079 Q1167.91 139.079 1163.6 134.478 Q1159.29 129.878 1159.29 122.065 Q1159.29 114.137 1163.63 109.594 Q1168 105.052 1175.58 105.052 Q1178.04 105.052 1180.38 105.572 Q1182.73 106.064 1184.93 107.077 Z" fill="#000000" fill-rule="nonzero" fill-opacity="1" /><path clip-path="url(#clip180)" d="M1208.91 121.95 Q1202.46 121.95 1199.97 123.425 Q1197.48 124.901 1197.48 128.46 Q1197.48 131.296 1199.34 132.974 Q1201.22 134.623 1204.43 134.623 Q1208.85 134.623 1211.52 131.498 Q1214.21 128.344 1214.21 123.136 L1214.21 121.95 L1208.91 121.95 M1219.53 119.751 L1219.53 138.24 L1214.21 138.24 L1214.21 133.321 Q1212.38 136.272 1209.67 137.69 Q1206.95 139.079 1203.01 139.079 Q1198.03 139.079 1195.08 136.301 Q1192.16 133.495 1192.16 128.807 Q1192.16 123.338 1195.81 120.561 Q1199.48 117.783 1206.74 117.783 L1214.21 117.783 L1214.21 117.262 Q1214.21 113.587 1211.78 111.591 Q1209.38 109.565 1205.01 109.565 Q1202.23 109.565 1199.6 110.231 Q1196.96 110.896 1194.53 112.227 L1194.53 107.308 Q1197.45 106.18 1200.2 105.63 Q1202.95 105.052 1205.56 105.052 Q1212.59 105.052 1216.06 108.697 Q1219.53 112.343 1219.53 119.751 Z" fill="#000000" fill-rule="nonzero" fill-opacity="1" /><path clip-path="url(#clip180)" d="M1230.5 93.2171 L1235.82 93.2171 L1235.82 138.24 L1230.5 138.24 L1230.5 93.2171 Z" fill="#000000" fill-rule="nonzero" fill-opacity="1" /><path clip-path="url(#clip180)" d="M1271.59 148.078 L1271.59 152.216 L1240.8 152.216 L1240.8 148.078 L1271.59 148.078 Z" fill="#000000" fill-rule="nonzero" fill-opacity="1" /><path clip-path="url(#clip180)" d="M1303.53 118.68 L1303.53 138.24 L1298.21 138.24 L1298.21 118.854 Q1298.21 114.253 1296.41 111.967 Q1294.62 109.681 1291.03 109.681 Q1286.72 109.681 1284.23 112.43 Q1281.74 115.179 1281.74 119.924 L1281.74 138.24 L1276.39 138.24 L1276.39 93.2171 L1281.74 93.2171 L1281.74 110.867 Q1283.65 107.945 1286.23 106.498 Q1288.83 105.052 1292.22 105.052 Q1297.8 105.052 1300.67 108.524 Q1303.53 111.967 1303.53 118.68 Z" fill="#000000" fill-rule="nonzero" fill-opacity="1" /><path clip-path="url(#clip180)" d="M1328.88 121.95 Q1322.42 121.95 1319.94 123.425 Q1317.45 124.901 1317.45 128.46 Q1317.45 131.296 1319.3 132.974 Q1321.18 134.623 1324.39 134.623 Q1328.82 134.623 1331.48 131.498 Q1334.17 128.344 1334.17 123.136 L1334.17 121.95 L1328.88 121.95 M1339.5 119.751 L1339.5 138.24 L1334.17 138.24 L1334.17 133.321 Q1332.35 136.272 1329.63 137.69 Q1326.91 139.079 1322.97 139.079 Q1318 139.079 1315.05 136.301 Q1312.12 133.495 1312.12 128.807 Q1312.12 123.338 1315.77 120.561 Q1319.44 117.783 1326.71 117.783 L1334.17 117.783 L1334.17 117.262 Q1334.17 113.587 1331.74 111.591 Q1329.34 109.565 1324.97 109.565 Q1322.19 109.565 1319.56 110.231 Q1316.93 110.896 1314.5 112.227 L1314.5 107.308 Q1317.42 106.18 1320.17 105.63 Q1322.92 105.052 1325.52 105.052 Q1332.55 105.052 1336.02 108.697 Q1339.5 112.343 1339.5 119.751 Z" fill="#000000" fill-rule="nonzero" fill-opacity="1" /><path clip-path="url(#clip180)" d="M1369.24 110.81 Q1368.34 110.289 1367.27 110.057 Q1366.23 109.797 1364.96 109.797 Q1360.45 109.797 1358.01 112.748 Q1355.61 115.671 1355.61 121.168 L1355.61 138.24 L1350.26 138.24 L1350.26 105.833 L1355.61 105.833 L1355.61 110.867 Q1357.29 107.916 1359.98 106.498 Q1362.67 105.052 1366.52 105.052 Q1367.07 105.052 1367.74 105.138 Q1368.4 105.196 1369.21 105.341 L1369.24 110.81 Z" fill="#000000" fill-rule="nonzero" fill-opacity="1" /><path clip-path="url(#clip180)" d="M1399.02 112.054 Q1401.01 108.466 1403.79 106.759 Q1406.57 105.052 1410.33 105.052 Q1415.39 105.052 1418.14 108.611 Q1420.89 112.141 1420.89 118.68 L1420.89 138.24 L1415.54 138.24 L1415.54 118.854 Q1415.54 114.195 1413.89 111.938 Q1412.24 109.681 1408.85 109.681 Q1404.72 109.681 1402.31 112.43 Q1399.91 115.179 1399.91 119.924 L1399.91 138.24 L1394.56 138.24 L1394.56 118.854 Q1394.56 114.166 1392.91 111.938 Q1391.26 109.681 1387.82 109.681 Q1383.74 109.681 1381.34 112.459 Q1378.94 115.208 1378.94 119.924 L1378.94 138.24 L1373.58 138.24 L1373.58 105.833 L1378.94 105.833 L1378.94 110.867 Q1380.76 107.887 1383.3 106.469 Q1385.85 105.052 1389.35 105.052 Q1392.88 105.052 1395.34 106.845 Q1397.83 108.639 1399.02 112.054 Z" fill="#000000" fill-rule="nonzero" fill-opacity="1" /><path clip-path="url(#clip180)" d="M1444.07 109.565 Q1439.79 109.565 1437.3 112.922 Q1434.81 116.249 1434.81 122.065 Q1434.81 127.881 1437.27 131.238 Q1439.76 134.565 1444.07 134.565 Q1448.32 134.565 1450.81 131.209 Q1453.3 127.852 1453.3 122.065 Q1453.3 116.307 1450.81 112.951 Q1448.32 109.565 1444.07 109.565 M1444.07 105.052 Q1451.01 105.052 1454.98 109.565 Q1458.94 114.079 1458.94 122.065 Q1458.94 130.022 1454.98 134.565 Q1451.01 139.079 1444.07 139.079 Q1437.09 139.079 1433.13 134.565 Q1429.2 130.022 1429.2 122.065 Q1429.2 114.079 1433.13 109.565 Q1437.09 105.052 1444.07 105.052 Z" fill="#000000" fill-rule="nonzero" fill-opacity="1" /><path clip-path="url(#clip180)" d="M1494.7 118.68 L1494.7 138.24 L1489.38 138.24 L1489.38 118.854 Q1489.38 114.253 1487.59 111.967 Q1485.79 109.681 1482.2 109.681 Q1477.89 109.681 1475.4 112.43 Q1472.92 115.179 1472.92 119.924 L1472.92 138.24 L1467.56 138.24 L1467.56 105.833 L1472.92 105.833 L1472.92 110.867 Q1474.83 107.945 1477.4 106.498 Q1480.01 105.052 1483.39 105.052 Q1488.97 105.052 1491.84 108.524 Q1494.7 111.967 1494.7 118.68 Z" fill="#000000" fill-rule="nonzero" fill-opacity="1" /><path clip-path="url(#clip180)" d="M1505.32 105.833 L1510.65 105.833 L1510.65 138.24 L1505.32 138.24 L1505.32 105.833 M1505.32 93.2171 L1510.65 93.2171 L1510.65 99.959 L1505.32 99.959 L1505.32 93.2171 Z" fill="#000000" fill-rule="nonzero" fill-opacity="1" /><path clip-path="url(#clip180)" d="M1545.11 107.077 L1545.11 112.054 Q1542.85 110.81 1540.57 110.202 Q1538.31 109.565 1535.99 109.565 Q1530.81 109.565 1527.95 112.864 Q1525.09 116.134 1525.09 122.065 Q1525.09 127.997 1527.95 131.296 Q1530.81 134.565 1535.99 134.565 Q1538.31 134.565 1540.57 133.958 Q1542.85 133.321 1545.11 132.077 L1545.11 136.996 Q1542.88 138.037 1540.48 138.558 Q1538.11 139.079 1535.42 139.079 Q1528.1 139.079 1523.78 134.478 Q1519.47 129.878 1519.47 122.065 Q1519.47 114.137 1523.81 109.594 Q1528.18 105.052 1535.76 105.052 Q1538.22 105.052 1540.57 105.572 Q1542.91 106.064 1545.11 107.077 Z" fill="#000000" fill-rule="nonzero" fill-opacity="1" /><path clip-path="url(#clip180)" d="M1575.03 106.788 L1575.03 111.822 Q1572.77 110.665 1570.34 110.086 Q1567.91 109.508 1565.31 109.508 Q1561.34 109.508 1559.34 110.723 Q1557.38 111.938 1557.38 114.369 Q1557.38 116.22 1558.8 117.291 Q1560.21 118.333 1564.5 119.288 L1566.32 119.693 Q1571.99 120.908 1574.36 123.136 Q1576.76 125.335 1576.76 129.299 Q1576.76 133.813 1573.18 136.446 Q1569.62 139.079 1563.37 139.079 Q1560.76 139.079 1557.93 138.558 Q1555.12 138.066 1552 137.054 L1552 131.556 Q1554.95 133.09 1557.81 133.871 Q1560.68 134.623 1563.48 134.623 Q1567.24 134.623 1569.27 133.35 Q1571.3 132.048 1571.3 129.704 Q1571.3 127.534 1569.82 126.377 Q1568.37 125.219 1563.42 124.149 L1561.57 123.715 Q1556.63 122.673 1554.43 120.532 Q1552.23 118.362 1552.23 114.6 Q1552.23 110.028 1555.47 107.54 Q1558.71 105.052 1564.67 105.052 Q1567.62 105.052 1570.22 105.486 Q1572.83 105.92 1575.03 106.788 Z" fill="#000000" fill-rule="nonzero" fill-opacity="1" /><path clip-path="url(#clip180)" d="M662.706 159.84 L671.416 159.84 L682.44 189.238 L693.522 159.84 L702.231 159.84 L702.231 203.04 L696.531 203.04 L696.531 165.106 L685.391 194.736 L679.517 194.736 L668.377 165.106 L668.377 203.04 L662.706 203.04 L662.706 159.84 Z" fill="#000000" fill-rule="nonzero" fill-opacity="1" /><path clip-path="url(#clip180)" d="M728.331 186.75 Q721.878 186.75 719.39 188.225 Q716.902 189.701 716.902 193.26 Q716.902 196.096 718.753 197.774 Q720.634 199.423 723.846 199.423 Q728.273 199.423 730.935 196.298 Q733.626 193.144 733.626 187.936 L733.626 186.75 L728.331 186.75 M738.95 184.551 L738.95 203.04 L733.626 203.04 L733.626 198.121 Q731.803 201.072 729.083 202.49 Q726.363 203.879 722.428 203.879 Q717.451 203.879 714.5 201.101 Q711.577 198.295 711.577 193.607 Q711.577 188.138 715.223 185.361 Q718.898 182.583 726.161 182.583 L733.626 182.583 L733.626 182.062 Q733.626 178.387 731.195 176.391 Q728.794 174.365 724.425 174.365 Q721.647 174.365 719.014 175.031 Q716.381 175.696 713.95 177.027 L713.95 172.108 Q716.873 170.98 719.621 170.43 Q722.37 169.852 724.974 169.852 Q732.006 169.852 735.478 173.497 Q738.95 177.143 738.95 184.551 Z" fill="#000000" fill-rule="nonzero" fill-opacity="1" /><path clip-path="url(#clip180)" d="M749.714 158.017 L755.067 158.017 L755.067 184.608 L770.952 170.633 L777.752 170.633 L760.564 185.795 L778.475 203.04 L771.531 203.04 L755.067 187.213 L755.067 203.04 L749.714 203.04 L749.714 158.017 Z" fill="#000000" fill-rule="nonzero" fill-opacity="1" /><path clip-path="url(#clip180)" d="M809.841 185.505 L809.841 188.11 L785.362 188.11 Q785.709 193.607 788.66 196.501 Q791.641 199.365 796.936 199.365 Q800.003 199.365 802.867 198.613 Q805.761 197.861 808.597 196.356 L808.597 201.391 Q805.732 202.606 802.723 203.243 Q799.714 203.879 796.618 203.879 Q788.863 203.879 784.32 199.365 Q779.806 194.851 779.806 187.155 Q779.806 179.198 784.089 174.539 Q788.4 169.852 795.692 169.852 Q802.231 169.852 806.021 174.076 Q809.841 178.272 809.841 185.505 M804.517 183.943 Q804.459 179.574 802.057 176.97 Q799.685 174.365 795.749 174.365 Q791.293 174.365 788.603 176.883 Q785.941 179.4 785.535 183.972 L804.517 183.943 Z" fill="#000000" fill-rule="nonzero" fill-opacity="1" /><path clip-path="url(#clip180)" d="M818.811 159.84 L843.637 159.84 L843.637 164.759 L824.656 164.759 L824.656 177.49 L841.785 177.49 L841.785 182.409 L824.656 182.409 L824.656 203.04 L818.811 203.04 L818.811 159.84 Z" fill="#000000" fill-rule="nonzero" fill-opacity="1" /><path clip-path="url(#clip180)" d="M848.874 190.251 L848.874 170.633 L854.198 170.633 L854.198 190.048 Q854.198 194.649 855.992 196.964 Q857.786 199.25 861.374 199.25 Q865.685 199.25 868.174 196.501 Q870.691 193.752 870.691 189.007 L870.691 170.633 L876.015 170.633 L876.015 203.04 L870.691 203.04 L870.691 198.063 Q868.753 201.015 866.177 202.461 Q863.631 203.879 860.246 203.879 Q854.661 203.879 851.768 200.407 Q848.874 196.935 848.874 190.251 M862.271 169.852 L862.271 169.852 Z" fill="#000000" fill-rule="nonzero" fill-opacity="1" /><path clip-path="url(#clip180)" d="M913.92 183.48 L913.92 203.04 L908.596 203.04 L908.596 183.654 Q908.596 179.053 906.802 176.767 Q905.008 174.481 901.42 174.481 Q897.109 174.481 894.62 177.23 Q892.132 179.979 892.132 184.724 L892.132 203.04 L886.779 203.04 L886.779 170.633 L892.132 170.633 L892.132 175.667 Q894.042 172.745 896.617 171.298 Q899.221 169.852 902.607 169.852 Q908.191 169.852 911.056 173.324 Q913.92 176.767 913.92 183.48 Z" fill="#000000" fill-rule="nonzero" fill-opacity="1" /><path clip-path="url(#clip180)" d="M947.861 171.877 L947.861 176.854 Q945.604 175.61 943.318 175.002 Q941.061 174.365 938.746 174.365 Q933.567 174.365 930.702 177.664 Q927.838 180.934 927.838 186.865 Q927.838 192.797 930.702 196.096 Q933.567 199.365 938.746 199.365 Q941.061 199.365 943.318 198.758 Q945.604 198.121 947.861 196.877 L947.861 201.796 Q945.633 202.837 943.231 203.358 Q940.859 203.879 938.168 203.879 Q930.847 203.879 926.536 199.278 Q922.224 194.678 922.224 186.865 Q922.224 178.937 926.565 174.394 Q930.934 169.852 938.515 169.852 Q940.974 169.852 943.318 170.372 Q945.662 170.864 947.861 171.877 Z" fill="#000000" fill-rule="nonzero" fill-opacity="1" /><path clip-path="url(#clip180)" d="M962.386 161.431 L962.386 170.633 L973.353 170.633 L973.353 174.77 L962.386 174.77 L962.386 192.363 Q962.386 196.327 963.457 197.456 Q964.556 198.584 967.884 198.584 L973.353 198.584 L973.353 203.04 L967.884 203.04 Q961.721 203.04 959.377 200.754 Q957.033 198.439 957.033 192.363 L957.033 174.77 L953.127 174.77 L953.127 170.633 L957.033 170.633 L957.033 161.431 L962.386 161.431 Z" fill="#000000" fill-rule="nonzero" fill-opacity="1" /><path clip-path="url(#clip180)" d="M980.355 170.633 L985.679 170.633 L985.679 203.04 L980.355 203.04 L980.355 170.633 M980.355 158.017 L985.679 158.017 L985.679 164.759 L980.355 164.759 L980.355 158.017 Z" fill="#000000" fill-rule="nonzero" fill-opacity="1" /><path clip-path="url(#clip180)" d="M1009.38 174.365 Q1005.09 174.365 1002.61 177.722 Q1000.12 181.049 1000.12 186.865 Q1000.12 192.681 1002.58 196.038 Q1005.07 199.365 1009.38 199.365 Q1013.63 199.365 1016.12 196.009 Q1018.61 192.652 1018.61 186.865 Q1018.61 181.107 1016.12 177.751 Q1013.63 174.365 1009.38 174.365 M1009.38 169.852 Q1016.32 169.852 1020.29 174.365 Q1024.25 178.879 1024.25 186.865 Q1024.25 194.822 1020.29 199.365 Q1016.32 203.879 1009.38 203.879 Q1002.4 203.879 998.439 199.365 Q994.504 194.822 994.504 186.865 Q994.504 178.879 998.439 174.365 Q1002.4 169.852 1009.38 169.852 Z" fill="#000000" fill-rule="nonzero" fill-opacity="1" /><path clip-path="url(#clip180)" d="M1060.01 183.48 L1060.01 203.04 L1054.69 203.04 L1054.69 183.654 Q1054.69 179.053 1052.9 176.767 Q1051.1 174.481 1047.51 174.481 Q1043.2 174.481 1040.71 177.23 Q1038.23 179.979 1038.23 184.724 L1038.23 203.04 L1032.87 203.04 L1032.87 170.633 L1038.23 170.633 L1038.23 175.667 Q1040.13 172.745 1042.71 171.298 Q1045.31 169.852 1048.7 169.852 Q1054.28 169.852 1057.15 173.324 Q1060.01 176.767 1060.01 183.48 Z" fill="#000000" fill-rule="nonzero" fill-opacity="1" /><path clip-path="url(#clip180)" d="M1112.73 186.865 Q1112.73 180.992 1110.3 177.664 Q1107.9 174.308 1103.68 174.308 Q1099.45 174.308 1097.02 177.664 Q1094.62 180.992 1094.62 186.865 Q1094.62 192.739 1097.02 196.096 Q1099.45 199.423 1103.68 199.423 Q1107.9 199.423 1110.3 196.096 Q1112.73 192.739 1112.73 186.865 M1094.62 175.552 Q1096.3 172.658 1098.84 171.269 Q1101.42 169.852 1104.98 169.852 Q1110.88 169.852 1114.56 174.539 Q1118.26 179.226 1118.26 186.865 Q1118.26 194.504 1114.56 199.192 Q1110.88 203.879 1104.98 203.879 Q1101.42 203.879 1098.84 202.49 Q1096.3 201.072 1094.62 198.179 L1094.62 203.04 L1089.27 203.04 L1089.27 158.017 L1094.62 158.017 L1094.62 175.552 Z" fill="#000000" fill-rule="nonzero" fill-opacity="1" /><path clip-path="url(#clip180)" d="M1154.8 185.505 L1154.8 188.11 L1130.33 188.11 Q1130.67 193.607 1133.62 196.501 Q1136.6 199.365 1141.9 199.365 Q1144.97 199.365 1147.83 198.613 Q1150.72 197.861 1153.56 196.356 L1153.56 201.391 Q1150.7 202.606 1147.69 203.243 Q1144.68 203.879 1141.58 203.879 Q1133.83 203.879 1129.28 199.365 Q1124.77 194.851 1124.77 187.155 Q1124.77 179.198 1129.05 174.539 Q1133.36 169.852 1140.66 169.852 Q1147.19 169.852 1150.98 174.076 Q1154.8 178.272 1154.8 185.505 M1149.48 183.943 Q1149.42 179.574 1147.02 176.97 Q1144.65 174.365 1140.71 174.365 Q1136.26 174.365 1133.57 176.883 Q1130.9 179.4 1130.5 183.972 L1149.48 183.943 Z" fill="#000000" fill-rule="nonzero" fill-opacity="1" /><path clip-path="url(#clip180)" d="M1190.48 183.48 L1190.48 203.04 L1185.16 203.04 L1185.16 183.654 Q1185.16 179.053 1183.36 176.767 Q1181.57 174.481 1177.98 174.481 Q1173.67 174.481 1171.18 177.23 Q1168.69 179.979 1168.69 184.724 L1168.69 203.04 L1163.34 203.04 L1163.34 170.633 L1168.69 170.633 L1168.69 175.667 Q1170.6 172.745 1173.18 171.298 Q1175.78 169.852 1179.17 169.852 Q1184.75 169.852 1187.62 173.324 Q1190.48 176.767 1190.48 183.48 Z" fill="#000000" fill-rule="nonzero" fill-opacity="1" /><path clip-path="url(#clip180)" d="M1224.42 171.877 L1224.42 176.854 Q1222.17 175.61 1219.88 175.002 Q1217.62 174.365 1215.31 174.365 Q1210.13 174.365 1207.26 177.664 Q1204.4 180.934 1204.4 186.865 Q1204.4 192.797 1207.26 196.096 Q1210.13 199.365 1215.31 199.365 Q1217.62 199.365 1219.88 198.758 Q1222.17 198.121 1224.42 196.877 L1224.42 201.796 Q1222.19 202.837 1219.79 203.358 Q1217.42 203.879 1214.73 203.879 Q1207.41 203.879 1203.1 199.278 Q1198.79 194.678 1198.79 186.865 Q1198.79 178.937 1203.13 174.394 Q1207.49 169.852 1215.08 169.852 Q1217.54 169.852 1219.88 170.372 Q1222.22 170.864 1224.42 171.877 Z" fill="#000000" fill-rule="nonzero" fill-opacity="1" /><path clip-path="url(#clip180)" d="M1260.62 183.48 L1260.62 203.04 L1255.3 203.04 L1255.3 183.654 Q1255.3 179.053 1253.5 176.767 Q1251.71 174.481 1248.12 174.481 Q1243.81 174.481 1241.32 177.23 Q1238.83 179.979 1238.83 184.724 L1238.83 203.04 L1233.48 203.04 L1233.48 158.017 L1238.83 158.017 L1238.83 175.667 Q1240.74 172.745 1243.32 171.298 Q1245.92 169.852 1249.31 169.852 Q1254.89 169.852 1257.76 173.324 Q1260.62 176.767 1260.62 183.48 Z" fill="#000000" fill-rule="nonzero" fill-opacity="1" /><path clip-path="url(#clip180)" d="M1296.47 176.854 Q1298.47 173.266 1301.24 171.559 Q1304.02 169.852 1307.78 169.852 Q1312.85 169.852 1315.6 173.411 Q1318.35 176.941 1318.35 183.48 L1318.35 203.04 L1312.99 203.04 L1312.99 183.654 Q1312.99 178.995 1311.34 176.738 Q1309.69 174.481 1306.31 174.481 Q1302.17 174.481 1299.77 177.23 Q1297.37 179.979 1297.37 184.724 L1297.37 203.04 L1292.01 203.04 L1292.01 183.654 Q1292.01 178.966 1290.36 176.738 Q1288.72 174.481 1285.27 174.481 Q1281.19 174.481 1278.79 177.259 Q1276.39 180.008 1276.39 184.724 L1276.39 203.04 L1271.04 203.04 L1271.04 170.633 L1276.39 170.633 L1276.39 175.667 Q1278.21 172.687 1280.76 171.269 Q1283.3 169.852 1286.81 169.852 Q1290.34 169.852 1292.8 171.645 Q1295.28 173.439 1296.47 176.854 Z" fill="#000000" fill-rule="nonzero" fill-opacity="1" /><path clip-path="url(#clip180)" d="M1343.69 186.75 Q1337.24 186.75 1334.75 188.225 Q1332.26 189.701 1332.26 193.26 Q1332.26 196.096 1334.11 197.774 Q1336 199.423 1339.21 199.423 Q1343.63 199.423 1346.3 196.298 Q1348.99 193.144 1348.99 187.936 L1348.99 186.75 L1343.69 186.75 M1354.31 184.551 L1354.31 203.04 L1348.99 203.04 L1348.99 198.121 Q1347.16 201.072 1344.44 202.49 Q1341.72 203.879 1337.79 203.879 Q1332.81 203.879 1329.86 201.101 Q1326.94 198.295 1326.94 193.607 Q1326.94 188.138 1330.58 185.361 Q1334.26 182.583 1341.52 182.583 L1348.99 182.583 L1348.99 182.062 Q1348.99 178.387 1346.56 176.391 Q1344.16 174.365 1339.79 174.365 Q1337.01 174.365 1334.38 175.031 Q1331.74 175.696 1329.31 177.027 L1329.31 172.108 Q1332.23 170.98 1334.98 170.43 Q1337.73 169.852 1340.34 169.852 Q1347.37 169.852 1350.84 173.497 Q1354.31 177.143 1354.31 184.551 Z" fill="#000000" fill-rule="nonzero" fill-opacity="1" /><path clip-path="url(#clip180)" d="M1384.06 175.61 Q1383.16 175.089 1382.09 174.857 Q1381.05 174.597 1379.77 174.597 Q1375.26 174.597 1372.83 177.548 Q1370.43 180.471 1370.43 185.968 L1370.43 203.04 L1365.08 203.04 L1365.08 170.633 L1370.43 170.633 L1370.43 175.667 Q1372.11 172.716 1374.8 171.298 Q1377.49 169.852 1381.34 169.852 Q1381.89 169.852 1382.55 169.938 Q1383.22 169.996 1384.03 170.141 L1384.06 175.61 Z" fill="#000000" fill-rule="nonzero" fill-opacity="1" /><path clip-path="url(#clip180)" d="M1389.44 158.017 L1394.79 158.017 L1394.79 184.608 L1410.68 170.633 L1417.48 170.633 L1400.29 185.795 L1418.2 203.04 L1411.26 203.04 L1394.79 187.213 L1394.79 203.04 L1389.44 203.04 L1389.44 158.017 Z" fill="#000000" fill-rule="nonzero" fill-opacity="1" /><path clip-path="url(#clip180)" d="M1425.32 195.691 L1431.42 195.691 L1431.42 200.667 L1426.68 209.927 L1422.95 209.927 L1425.32 200.667 L1425.32 195.691 Z" fill="#000000" fill-rule="nonzero" fill-opacity="1" /><path clip-path="url(#clip180)" d="M1482.29 171.588 L1482.29 176.622 Q1480.03 175.465 1477.6 174.886 Q1475.17 174.308 1472.57 174.308 Q1468.6 174.308 1466.61 175.523 Q1464.64 176.738 1464.64 179.169 Q1464.64 181.02 1466.06 182.091 Q1467.48 183.133 1471.76 184.088 L1473.58 184.493 Q1479.25 185.708 1481.63 187.936 Q1484.03 190.135 1484.03 194.099 Q1484.03 198.613 1480.44 201.246 Q1476.88 203.879 1470.63 203.879 Q1468.03 203.879 1465.19 203.358 Q1462.38 202.866 1459.26 201.854 L1459.26 196.356 Q1462.21 197.89 1465.07 198.671 Q1467.94 199.423 1470.75 199.423 Q1474.51 199.423 1476.53 198.15 Q1478.56 196.848 1478.56 194.504 Q1478.56 192.334 1477.08 191.177 Q1475.64 190.019 1470.69 188.949 L1468.84 188.515 Q1463.89 187.473 1461.69 185.332 Q1459.49 183.162 1459.49 179.4 Q1459.49 174.828 1462.73 172.34 Q1465.97 169.852 1471.93 169.852 Q1474.88 169.852 1477.49 170.286 Q1480.09 170.72 1482.29 171.588 Z" fill="#000000" fill-rule="nonzero" fill-opacity="1" /><path clip-path="url(#clip180)" d="M1492.51 170.633 L1497.83 170.633 L1497.83 203.04 L1492.51 203.04 L1492.51 170.633 M1492.51 158.017 L1497.83 158.017 L1497.83 164.759 L1492.51 164.759 L1492.51 158.017 Z" fill="#000000" fill-rule="nonzero" fill-opacity="1" /><path clip-path="url(#clip180)" d="M1534.2 176.854 Q1536.2 173.266 1538.97 171.559 Q1541.75 169.852 1545.51 169.852 Q1550.58 169.852 1553.33 173.411 Q1556.08 176.941 1556.08 183.48 L1556.08 203.04 L1550.72 203.04 L1550.72 183.654 Q1550.72 178.995 1549.07 176.738 Q1547.42 174.481 1544.04 174.481 Q1539.9 174.481 1537.5 177.23 Q1535.1 179.979 1535.1 184.724 L1535.1 203.04 L1529.74 203.04 L1529.74 183.654 Q1529.74 178.966 1528.1 176.738 Q1526.45 174.481 1523 174.481 Q1518.92 174.481 1516.52 177.259 Q1514.12 180.008 1514.12 184.724 L1514.12 203.04 L1508.77 203.04 L1508.77 170.633 L1514.12 170.633 L1514.12 175.667 Q1515.94 172.687 1518.49 171.269 Q1521.03 169.852 1524.54 169.852 Q1528.07 169.852 1530.53 171.645 Q1533.01 173.439 1534.2 176.854 Z" fill="#000000" fill-rule="nonzero" fill-opacity="1" /><path clip-path="url(#clip180)" d="M1571.84 198.179 L1571.84 215.366 L1566.49 215.366 L1566.49 170.633 L1571.84 170.633 L1571.84 175.552 Q1573.52 172.658 1576.07 171.269 Q1578.64 169.852 1582.2 169.852 Q1588.11 169.852 1591.78 174.539 Q1595.48 179.226 1595.48 186.865 Q1595.48 194.504 1591.78 199.192 Q1588.11 203.879 1582.2 203.879 Q1578.64 203.879 1576.07 202.49 Q1573.52 201.072 1571.84 198.179 M1589.96 186.865 Q1589.96 180.992 1587.53 177.664 Q1585.13 174.308 1580.9 174.308 Q1576.68 174.308 1574.25 177.664 Q1571.84 180.992 1571.84 186.865 Q1571.84 192.739 1574.25 196.096 Q1576.68 199.423 1580.9 199.423 Q1585.13 199.423 1587.53 196.096 Q1589.96 192.739 1589.96 186.865 Z" fill="#000000" fill-rule="nonzero" fill-opacity="1" /><path clip-path="url(#clip180)" d="M1604.31 158.017 L1609.63 158.017 L1609.63 203.04 L1604.31 203.04 L1604.31 158.017 Z" fill="#000000" fill-rule="nonzero" fill-opacity="1" /><path clip-path="url(#clip180)" d="M1620.77 170.633 L1626.1 170.633 L1626.1 203.04 L1620.77 203.04 L1620.77 170.633 M1620.77 158.017 L1626.1 158.017 L1626.1 164.759 L1620.77 164.759 L1620.77 158.017 Z" fill="#000000" fill-rule="nonzero" fill-opacity="1" /><path clip-path="url(#clip180)" d="M1653.64 158.017 L1653.64 162.444 L1648.55 162.444 Q1645.69 162.444 1644.56 163.602 Q1643.46 164.759 1643.46 167.768 L1643.46 170.633 L1652.23 170.633 L1652.23 174.77 L1643.46 174.77 L1643.46 203.04 L1638.11 203.04 L1638.11 174.77 L1633.01 174.77 L1633.01 170.633 L1638.11 170.633 L1638.11 168.376 Q1638.11 162.965 1640.62 160.506 Q1643.14 158.017 1648.61 158.017 L1653.64 158.017 Z" fill="#000000" fill-rule="nonzero" fill-opacity="1" /><path clip-path="url(#clip180)" d="M1670.54 206.049 Q1668.29 211.836 1666.14 213.601 Q1664 215.366 1660.41 215.366 L1656.16 215.366 L1656.16 210.91 L1659.29 210.91 Q1661.49 210.91 1662.7 209.869 Q1663.92 208.827 1665.39 204.95 L1666.35 202.519 L1653.24 170.633 L1658.88 170.633 L1669.01 195.98 L1679.14 170.633 L1684.78 170.633 L1670.54 206.049 Z" fill="#000000" fill-rule="nonzero" fill-opacity="1" /><path clip-path="url(#clip180)" d="M1711.66 176.13 L1748.75 176.13 L1748.75 180.992 L1711.66 180.992 L1711.66 176.13 M1711.66 187.936 L1748.75 187.936 L1748.75 192.855 L1711.66 192.855 L1711.66 187.936 Z" fill="#000000" fill-rule="nonzero" fill-opacity="1" /><path clip-path="url(#clip180)" d="M1795.86 158.017 L1795.86 162.444 L1790.77 162.444 Q1787.9 162.444 1786.77 163.602 Q1785.67 164.759 1785.67 167.768 L1785.67 170.633 L1794.44 170.633 L1794.44 174.77 L1785.67 174.77 L1785.67 203.04 L1780.32 203.04 L1780.32 174.77 L1775.23 174.77 L1775.23 170.633 L1780.32 170.633 L1780.32 168.376 Q1780.32 162.965 1782.84 160.506 Q1785.36 158.017 1790.83 158.017 L1795.86 158.017 Z" fill="#000000" fill-rule="nonzero" fill-opacity="1" /><path clip-path="url(#clip180)" d="M1815.04 186.75 Q1808.59 186.75 1806.1 188.225 Q1803.61 189.701 1803.61 193.26 Q1803.61 196.096 1805.47 197.774 Q1807.35 199.423 1810.56 199.423 Q1814.99 199.423 1817.65 196.298 Q1820.34 193.144 1820.34 187.936 L1820.34 186.75 L1815.04 186.75 M1825.66 184.551 L1825.66 203.04 L1820.34 203.04 L1820.34 198.121 Q1818.52 201.072 1815.8 202.49 Q1813.08 203.879 1809.14 203.879 Q1804.16 203.879 1801.21 201.101 Q1798.29 198.295 1798.29 193.607 Q1798.29 188.138 1801.94 185.361 Q1805.61 182.583 1812.87 182.583 L1820.34 182.583 L1820.34 182.062 Q1820.34 178.387 1817.91 176.391 Q1815.51 174.365 1811.14 174.365 Q1808.36 174.365 1805.73 175.031 Q1803.09 175.696 1800.66 177.027 L1800.66 172.108 Q1803.59 170.98 1806.33 170.43 Q1809.08 169.852 1811.69 169.852 Q1818.72 169.852 1822.19 173.497 Q1825.66 177.143 1825.66 184.551 Z" fill="#000000" fill-rule="nonzero" fill-opacity="1" /><path clip-path="url(#clip180)" d="M1836.63 158.017 L1841.95 158.017 L1841.95 203.04 L1836.63 203.04 L1836.63 158.017 Z" fill="#000000" fill-rule="nonzero" fill-opacity="1" /><path clip-path="url(#clip180)" d="M1873.75 171.588 L1873.75 176.622 Q1871.5 175.465 1869.07 174.886 Q1866.63 174.308 1864.03 174.308 Q1860.07 174.308 1858.07 175.523 Q1856.1 176.738 1856.1 179.169 Q1856.1 181.02 1857.52 182.091 Q1858.94 183.133 1863.22 184.088 L1865.04 184.493 Q1870.71 185.708 1873.09 187.936 Q1875.49 190.135 1875.49 194.099 Q1875.49 198.613 1871.9 201.246 Q1868.34 203.879 1862.09 203.879 Q1859.49 203.879 1856.65 203.358 Q1853.85 202.866 1850.72 201.854 L1850.72 196.356 Q1853.67 197.89 1856.54 198.671 Q1859.4 199.423 1862.21 199.423 Q1865.97 199.423 1867.99 198.15 Q1870.02 196.848 1870.02 194.504 Q1870.02 192.334 1868.54 191.177 Q1867.1 190.019 1862.15 188.949 L1860.3 188.515 Q1855.35 187.473 1853.15 185.332 Q1850.95 183.162 1850.95 179.4 Q1850.95 174.828 1854.19 172.34 Q1857.43 169.852 1863.39 169.852 Q1866.35 169.852 1868.95 170.286 Q1871.55 170.72 1873.75 171.588 Z" fill="#000000" fill-rule="nonzero" fill-opacity="1" /><path clip-path="url(#clip180)" d="M1911.69 185.505 L1911.69 188.11 L1887.21 188.11 Q1887.55 193.607 1890.51 196.501 Q1893.49 199.365 1898.78 199.365 Q1901.85 199.365 1904.71 198.613 Q1907.61 197.861 1910.44 196.356 L1910.44 201.391 Q1907.58 202.606 1904.57 203.243 Q1901.56 203.879 1898.46 203.879 Q1890.71 203.879 1886.17 199.365 Q1881.65 194.851 1881.65 187.155 Q1881.65 179.198 1885.93 174.539 Q1890.25 169.852 1897.54 169.852 Q1904.08 169.852 1907.87 174.076 Q1911.69 178.272 1911.69 185.505 M1906.36 183.943 Q1906.3 179.574 1903.9 176.97 Q1901.53 174.365 1897.6 174.365 Q1893.14 174.365 1890.45 176.883 Q1887.79 179.4 1887.38 183.972 L1906.36 183.943 Z" fill="#000000" fill-rule="nonzero" fill-opacity="1" /><polyline clip-path="url(#clip182)" style="stroke:#009af9; stroke-linecap:round; stroke-linejoin:round; stroke-width:4; stroke-opacity:1; fill:none" points="281.952,1388.35 382.476,1326.96 483.001,1263.92 583.525,1206.84 684.05,1155.77 784.574,1107.2 885.099,1050.58 985.623,994.945 1086.15,938.807 1186.67,879.136 1287.2,827.978 1387.72,768.206 1488.25,712.651 1588.77,655.607 1689.29,562.493 1789.82,506.931 1890.34,439.795 1990.87,367.831 2091.39,365.878 2191.92,304.362 2292.44,227.42 "/>
<circle clip-path="url(#clip182)" cx="281.952" cy="1388.35" r="14.4" fill="#009af9" fill-rule="evenodd" fill-opacity="1" stroke="#000000" stroke-opacity="1" stroke-width="3.2"/>
<circle clip-path="url(#clip182)" cx="382.476" cy="1326.96" r="14.4" fill="#009af9" fill-rule="evenodd" fill-opacity="1" stroke="#000000" stroke-opacity="1" stroke-width="3.2"/>
<circle clip-path="url(#clip182)" cx="483.001" cy="1263.92" r="14.4" fill="#009af9" fill-rule="evenodd" fill-opacity="1" stroke="#000000" stroke-opacity="1" stroke-width="3.2"/>
<circle clip-path="url(#clip182)" cx="583.525" cy="1206.84" r="14.4" fill="#009af9" fill-rule="evenodd" fill-opacity="1" stroke="#000000" stroke-opacity="1" stroke-width="3.2"/>
<circle clip-path="url(#clip182)" cx="684.05" cy="1155.77" r="14.4" fill="#009af9" fill-rule="evenodd" fill-opacity="1" stroke="#000000" stroke-opacity="1" stroke-width="3.2"/>
<circle clip-path="url(#clip182)" cx="784.574" cy="1107.2" r="14.4" fill="#009af9" fill-rule="evenodd" fill-opacity="1" stroke="#000000" stroke-opacity="1" stroke-width="3.2"/>
<circle clip-path="url(#clip182)" cx="885.099" cy="1050.58" r="14.4" fill="#009af9" fill-rule="evenodd" fill-opacity="1" stroke="#000000" stroke-opacity="1" stroke-width="3.2"/>
<circle clip-path="url(#clip182)" cx="985.623" cy="994.945" r="14.4" fill="#009af9" fill-rule="evenodd" fill-opacity="1" stroke="#000000" stroke-opacity="1" stroke-width="3.2"/>
<circle clip-path="url(#clip182)" cx="1086.15" cy="938.807" r="14.4" fill="#009af9" fill-rule="evenodd" fill-opacity="1" stroke="#000000" stroke-opacity="1" stroke-width="3.2"/>
<circle clip-path="url(#clip182)" cx="1186.67" cy="879.136" r="14.4" fill="#009af9" fill-rule="evenodd" fill-opacity="1" stroke="#000000" stroke-opacity="1" stroke-width="3.2"/>
<circle clip-path="url(#clip182)" cx="1287.2" cy="827.978" r="14.4" fill="#009af9" fill-rule="evenodd" fill-opacity="1" stroke="#000000" stroke-opacity="1" stroke-width="3.2"/>
<circle clip-path="url(#clip182)" cx="1387.72" cy="768.206" r="14.4" fill="#009af9" fill-rule="evenodd" fill-opacity="1" stroke="#000000" stroke-opacity="1" stroke-width="3.2"/>
<circle clip-path="url(#clip182)" cx="1488.25" cy="712.651" r="14.4" fill="#009af9" fill-rule="evenodd" fill-opacity="1" stroke="#000000" stroke-opacity="1" stroke-width="3.2"/>
<circle clip-path="url(#clip182)" cx="1588.77" cy="655.607" r="14.4" fill="#009af9" fill-rule="evenodd" fill-opacity="1" stroke="#000000" stroke-opacity="1" stroke-width="3.2"/>
<circle clip-path="url(#clip182)" cx="1689.29" cy="562.493" r="14.4" fill="#009af9" fill-rule="evenodd" fill-opacity="1" stroke="#000000" stroke-opacity="1" stroke-width="3.2"/>
<circle clip-path="url(#clip182)" cx="1789.82" cy="506.931" r="14.4" fill="#009af9" fill-rule="evenodd" fill-opacity="1" stroke="#000000" stroke-opacity="1" stroke-width="3.2"/>
<circle clip-path="url(#clip182)" cx="1890.34" cy="439.795" r="14.4" fill="#009af9" fill-rule="evenodd" fill-opacity="1" stroke="#000000" stroke-opacity="1" stroke-width="3.2"/>
<circle clip-path="url(#clip182)" cx="1990.87" cy="367.831" r="14.4" fill="#009af9" fill-rule="evenodd" fill-opacity="1" stroke="#000000" stroke-opacity="1" stroke-width="3.2"/>
<circle clip-path="url(#clip182)" cx="2091.39" cy="365.878" r="14.4" fill="#009af9" fill-rule="evenodd" fill-opacity="1" stroke="#000000" stroke-opacity="1" stroke-width="3.2"/>
<circle clip-path="url(#clip182)" cx="2191.92" cy="304.362" r="14.4" fill="#009af9" fill-rule="evenodd" fill-opacity="1" stroke="#000000" stroke-opacity="1" stroke-width="3.2"/>
<circle clip-path="url(#clip182)" cx="2292.44" cy="227.42" r="14.4" fill="#009af9" fill-rule="evenodd" fill-opacity="1" stroke="#000000" stroke-opacity="1" stroke-width="3.2"/>
</svg>
