<?xml version="1.0" encoding="utf-8"?>
<svg xmlns="http://www.w3.org/2000/svg" xmlns:xlink="http://www.w3.org/1999/xlink" width="600" height="400" viewBox="0 0 2400 1600">
<defs>
  <clipPath id="clip060">
    <rect x="0" y="0" width="2400" height="1600"/>
  </clipPath>
</defs>
<path clip-path="url(#clip060)" d="M0 1600 L2400 1600 L2400 0 L0 0  Z" fill="#ffffff" fill-rule="evenodd" fill-opacity="1"/>
<defs>
  <clipPath id="clip061">
    <rect x="480" y="0" width="1681" height="1600"/>
  </clipPath>
</defs>
<path clip-path="url(#clip060)" d="M220.716 1423.18 L2352.76 1423.18 L2352.76 192.592 L220.716 192.592  Z" fill="#ffffff" fill-rule="evenodd" fill-opacity="1"/>
<defs>
  <clipPath id="clip062">
    <rect x="220" y="192" width="2133" height="1232"/>
  </clipPath>
</defs>
<polyline clip-path="url(#clip062)" style="stroke:#000000; stroke-linecap:round; stroke-linejoin:round; stroke-width:2; stroke-opacity:0.1; fill:none" points="281.056,1423.18 281.056,192.592 "/>
<polyline clip-path="url(#clip062)" style="stroke:#000000; stroke-linecap:round; stroke-linejoin:round; stroke-width:2; stroke-opacity:0.1; fill:none" points="783.896,1423.18 783.896,192.592 "/>
<polyline clip-path="url(#clip062)" style="stroke:#000000; stroke-linecap:round; stroke-linejoin:round; stroke-width:2; stroke-opacity:0.1; fill:none" points="1286.74,1423.18 1286.74,192.592 "/>
<polyline clip-path="url(#clip062)" style="stroke:#000000; stroke-linecap:round; stroke-linejoin:round; stroke-width:2; stroke-opacity:0.1; fill:none" points="1789.58,1423.18 1789.58,192.592 "/>
<polyline clip-path="url(#clip062)" style="stroke:#000000; stroke-linecap:round; stroke-linejoin:round; stroke-width:2; stroke-opacity:0.1; fill:none" points="2292.42,1423.18 2292.42,192.592 "/>
<polyline clip-path="url(#clip060)" style="stroke:#000000; stroke-linecap:round; stroke-linejoin:round; stroke-width:4; stroke-opacity:1; fill:none" points="220.716,1423.18 2352.76,1423.18 "/>
<polyline clip-path="url(#clip060)" style="stroke:#000000; stroke-linecap:round; stroke-linejoin:round; stroke-width:4; stroke-opacity:1; fill:none" points="281.056,1423.18 281.056,1404.28 "/>
<polyline clip-path="url(#clip060)" style="stroke:#000000; stroke-linecap:round; stroke-linejoin:round; stroke-width:4; stroke-opacity:1; fill:none" points="783.896,1423.18 783.896,1404.28 "/>
<polyline clip-path="url(#clip060)" style="stroke:#000000; stroke-linecap:round; stroke-linejoin:round; stroke-width:4; stroke-opacity:1; fill:none" points="1286.74,1423.18 1286.74,1404.28 "/>
<polyline clip-path="url(#clip060)" style="stroke:#000000; stroke-linecap:round; stroke-linejoin:round; stroke-width:4; stroke-opacity:1; fill:none" points="1789.58,1423.18 1789.58,1404.28 "/>
<polyline clip-path="url(#clip060)" style="stroke:#000000; stroke-linecap:round; stroke-linejoin:round; stroke-width:4; stroke-opacity:1; fill:none" points="2292.42,1423.18 2292.42,1404.28 "/>
<polyline clip-path="url(#clip060)" style="stroke:#000000; stroke-linecap:round; stroke-linejoin:round; stroke-width:4; stroke-opacity:1; fill:none" points="381.624,1423.18 381.624,1413.73 "/>
<polyline clip-path="url(#clip060)" style="stroke:#000000; stroke-linecap:round; stroke-linejoin:round; stroke-width:4; stroke-opacity:1; fill:none" points="482.192,1423.18 482.192,1413.73 "/>
<polyline clip-path="url(#clip060)" style="stroke:#000000; stroke-linecap:round; stroke-linejoin:round; stroke-width:4; stroke-opacity:1; fill:none" points="582.76,1423.18 582.76,1413.73 "/>
<polyline clip-path="url(#clip060)" style="stroke:#000000; stroke-linecap:round; stroke-linejoin:round; stroke-width:4; stroke-opacity:1; fill:none" points="683.328,1423.18 683.328,1413.73 "/>
<polyline clip-path="url(#clip060)" style="stroke:#000000; stroke-linecap:round; stroke-linejoin:round; stroke-width:4; stroke-opacity:1; fill:none" points="884.464,1423.18 884.464,1413.73 "/>
<polyline clip-path="url(#clip060)" style="stroke:#000000; stroke-linecap:round; stroke-linejoin:round; stroke-width:4; stroke-opacity:1; fill:none" points="985.032,1423.18 985.032,1413.73 "/>
<polyline clip-path="url(#clip060)" style="stroke:#000000; stroke-linecap:round; stroke-linejoin:round; stroke-width:4; stroke-opacity:1; fill:none" points="1085.6,1423.18 1085.6,1413.73 "/>
<polyline clip-path="url(#clip060)" style="stroke:#000000; stroke-linecap:round; stroke-linejoin:round; stroke-width:4; stroke-opacity:1; fill:none" points="1186.17,1423.18 1186.17,1413.73 "/>
<polyline clip-path="url(#clip060)" style="stroke:#000000; stroke-linecap:round; stroke-linejoin:round; stroke-width:4; stroke-opacity:1; fill:none" points="1387.3,1423.18 1387.3,1413.73 "/>
<polyline clip-path="url(#clip060)" style="stroke:#000000; stroke-linecap:round; stroke-linejoin:round; stroke-width:4; stroke-opacity:1; fill:none" points="1487.87,1423.18 1487.87,1413.73 "/>
<polyline clip-path="url(#clip060)" style="stroke:#000000; stroke-linecap:round; stroke-linejoin:round; stroke-width:4; stroke-opacity:1; fill:none" points="1588.44,1423.18 1588.44,1413.73 "/>
<polyline clip-path="url(#clip060)" style="stroke:#000000; stroke-linecap:round; stroke-linejoin:round; stroke-width:4; stroke-opacity:1; fill:none" points="1689.01,1423.18 1689.01,1413.73 "/>
<polyline clip-path="url(#clip060)" style="stroke:#000000; stroke-linecap:round; stroke-linejoin:round; stroke-width:4; stroke-opacity:1; fill:none" points="1890.14,1423.18 1890.14,1413.73 "/>
<polyline clip-path="url(#clip060)" style="stroke:#000000; stroke-linecap:round; stroke-linejoin:round; stroke-width:4; stroke-opacity:1; fill:none" points="1990.71,1423.18 1990.71,1413.73 "/>
<polyline clip-path="url(#clip060)" style="stroke:#000000; stroke-linecap:round; stroke-linejoin:round; stroke-width:4; stroke-opacity:1; fill:none" points="2091.28,1423.18 2091.28,1413.73 "/>
<polyline clip-path="url(#clip060)" style="stroke:#000000; stroke-linecap:round; stroke-linejoin:round; stroke-width:4; stroke-opacity:1; fill:none" points="2191.85,1423.18 2191.85,1413.73 "/>
<path clip-path="url(#clip060)" d="M271.334 1451.02 L289.69 1451.02 L289.69 1454.96 L275.616 1454.96 L275.616 1463.43 Q276.635 1463.08 277.654 1462.92 Q278.672 1462.73 279.691 1462.73 Q285.478 1462.73 288.857 1465.9 Q292.237 1469.08 292.237 1474.49 Q292.237 1480.07 288.765 1483.17 Q285.292 1486.25 278.973 1486.25 Q276.797 1486.25 274.529 1485.88 Q272.283 1485.51 269.876 1484.77 L269.876 1480.07 Q271.959 1481.2 274.181 1481.76 Q276.404 1482.32 278.88 1482.32 Q282.885 1482.32 285.223 1480.21 Q287.561 1478.1 287.561 1474.49 Q287.561 1470.88 285.223 1468.77 Q282.885 1466.67 278.88 1466.67 Q277.005 1466.67 275.13 1467.08 Q273.279 1467.5 271.334 1468.38 L271.334 1451.02 Z" fill="#000000" fill-rule="nonzero" fill-opacity="1" /><path clip-path="url(#clip060)" d="M758.584 1481.64 L766.222 1481.64 L766.222 1455.28 L757.912 1456.95 L757.912 1452.69 L766.176 1451.02 L770.852 1451.02 L770.852 1481.64 L778.491 1481.64 L778.491 1485.58 L758.584 1485.58 L758.584 1481.64 Z" fill="#000000" fill-rule="nonzero" fill-opacity="1" /><path clip-path="url(#clip060)" d="M797.935 1454.1 Q794.324 1454.1 792.495 1457.66 Q790.69 1461.2 790.69 1468.33 Q790.69 1475.44 792.495 1479.01 Q794.324 1482.55 797.935 1482.55 Q801.57 1482.55 803.375 1479.01 Q805.204 1475.44 805.204 1468.33 Q805.204 1461.2 803.375 1457.66 Q801.57 1454.1 797.935 1454.1 M797.935 1450.39 Q803.745 1450.39 806.801 1455 Q809.88 1459.58 809.88 1468.33 Q809.88 1477.06 806.801 1481.67 Q803.745 1486.25 797.935 1486.25 Q792.125 1486.25 789.046 1481.67 Q785.991 1477.06 785.991 1468.33 Q785.991 1459.58 789.046 1455 Q792.125 1450.39 797.935 1450.39 Z" fill="#000000" fill-rule="nonzero" fill-opacity="1" /><path clip-path="url(#clip060)" d="M1261.92 1481.64 L1269.56 1481.64 L1269.56 1455.28 L1261.25 1456.95 L1261.25 1452.69 L1269.51 1451.02 L1274.19 1451.02 L1274.19 1481.64 L1281.83 1481.64 L1281.83 1485.58 L1261.92 1485.58 L1261.92 1481.64 Z" fill="#000000" fill-rule="nonzero" fill-opacity="1" /><path clip-path="url(#clip060)" d="M1291.32 1451.02 L1309.68 1451.02 L1309.68 1454.96 L1295.6 1454.96 L1295.6 1463.43 Q1296.62 1463.08 1297.64 1462.92 Q1298.66 1462.73 1299.68 1462.73 Q1305.46 1462.73 1308.84 1465.9 Q1312.22 1469.08 1312.22 1474.49 Q1312.22 1480.07 1308.75 1483.17 Q1305.28 1486.25 1298.96 1486.25 Q1296.78 1486.25 1294.51 1485.88 Q1292.27 1485.51 1289.86 1484.77 L1289.86 1480.07 Q1291.94 1481.2 1294.17 1481.76 Q1296.39 1482.32 1298.87 1482.32 Q1302.87 1482.32 1305.21 1480.21 Q1307.55 1478.1 1307.55 1474.49 Q1307.55 1470.88 1305.21 1468.77 Q1302.87 1466.67 1298.87 1466.67 Q1296.99 1466.67 1295.12 1467.08 Q1293.26 1467.5 1291.32 1468.38 L1291.32 1451.02 Z" fill="#000000" fill-rule="nonzero" fill-opacity="1" /><path clip-path="url(#clip060)" d="M1768.35 1481.64 L1784.67 1481.64 L1784.67 1485.58 L1762.72 1485.58 L1762.72 1481.64 Q1765.39 1478.89 1769.97 1474.26 Q1774.58 1469.61 1775.76 1468.27 Q1778 1465.74 1778.88 1464.01 Q1779.78 1462.25 1779.78 1460.56 Q1779.78 1457.8 1777.84 1456.07 Q1775.92 1454.33 1772.82 1454.33 Q1770.62 1454.33 1768.16 1455.09 Q1765.73 1455.86 1762.96 1457.41 L1762.96 1452.69 Q1765.78 1451.55 1768.23 1450.97 Q1770.69 1450.39 1772.72 1450.39 Q1778.09 1450.39 1781.29 1453.08 Q1784.48 1455.77 1784.48 1460.26 Q1784.48 1462.39 1783.67 1464.31 Q1782.89 1466.2 1780.78 1468.8 Q1780.2 1469.47 1777.1 1472.69 Q1774 1475.88 1768.35 1481.64 Z" fill="#000000" fill-rule="nonzero" fill-opacity="1" /><path clip-path="url(#clip060)" d="M1804.48 1454.1 Q1800.87 1454.1 1799.04 1457.66 Q1797.24 1461.2 1797.24 1468.33 Q1797.24 1475.44 1799.04 1479.01 Q1800.87 1482.55 1804.48 1482.55 Q1808.12 1482.55 1809.92 1479.01 Q1811.75 1475.44 1811.75 1468.33 Q1811.75 1461.2 1809.92 1457.66 Q1808.12 1454.1 1804.48 1454.1 M1804.48 1450.39 Q1810.29 1450.39 1813.35 1455 Q1816.43 1459.58 1816.43 1468.33 Q1816.43 1477.06 1813.35 1481.67 Q1810.29 1486.25 1804.48 1486.25 Q1798.67 1486.25 1795.59 1481.67 Q1792.54 1477.06 1792.54 1468.33 Q1792.54 1459.58 1795.59 1455 Q1798.67 1450.39 1804.48 1450.39 Z" fill="#000000" fill-rule="nonzero" fill-opacity="1" /><path clip-path="url(#clip060)" d="M2271.69 1481.64 L2288.01 1481.64 L2288.01 1485.58 L2266.06 1485.58 L2266.06 1481.64 Q2268.72 1478.89 2273.31 1474.26 Q2277.91 1469.61 2279.09 1468.27 Q2281.34 1465.74 2282.22 1464.01 Q2283.12 1462.25 2283.12 1460.56 Q2283.12 1457.8 2281.18 1456.07 Q2279.26 1454.33 2276.15 1454.33 Q2273.95 1454.33 2271.5 1455.09 Q2269.07 1455.86 2266.29 1457.41 L2266.29 1452.69 Q2269.12 1451.55 2271.57 1450.97 Q2274.02 1450.39 2276.06 1450.39 Q2281.43 1450.39 2284.63 1453.08 Q2287.82 1455.77 2287.82 1460.26 Q2287.82 1462.39 2287.01 1464.31 Q2286.22 1466.2 2284.12 1468.8 Q2283.54 1469.47 2280.44 1472.69 Q2277.33 1475.88 2271.69 1481.64 Z" fill="#000000" fill-rule="nonzero" fill-opacity="1" /><path clip-path="url(#clip060)" d="M2297.87 1451.02 L2316.22 1451.02 L2316.22 1454.96 L2302.15 1454.96 L2302.15 1463.43 Q2303.17 1463.08 2304.19 1462.92 Q2305.2 1462.73 2306.22 1462.73 Q2312.01 1462.73 2315.39 1465.9 Q2318.77 1469.08 2318.77 1474.49 Q2318.77 1480.07 2315.3 1483.17 Q2311.82 1486.25 2305.51 1486.25 Q2303.33 1486.25 2301.06 1485.88 Q2298.82 1485.51 2296.41 1484.77 L2296.41 1480.07 Q2298.49 1481.2 2300.71 1481.76 Q2302.94 1482.32 2305.41 1482.32 Q2309.42 1482.32 2311.76 1480.21 Q2314.09 1478.1 2314.09 1474.49 Q2314.09 1470.88 2311.76 1468.77 Q2309.42 1466.67 2305.41 1466.67 Q2303.54 1466.67 2301.66 1467.08 Q2299.81 1467.5 2297.87 1468.38 L2297.87 1451.02 Z" fill="#000000" fill-rule="nonzero" fill-opacity="1" /><path clip-path="url(#clip060)" d="M796.338 1533.45 L796.338 1538.98 Q793.855 1537.71 791.181 1537.07 Q788.508 1536.44 785.643 1536.44 Q781.283 1536.44 779.087 1537.77 Q776.922 1539.11 776.922 1541.79 Q776.922 1543.82 778.482 1545 Q780.041 1546.15 784.752 1547.2 L786.757 1547.64 Q792.996 1548.98 795.606 1551.43 Q798.247 1553.85 798.247 1558.21 Q798.247 1563.17 794.301 1566.07 Q790.386 1568.97 783.511 1568.97 Q780.646 1568.97 777.527 1568.39 Q774.44 1567.85 771.002 1566.74 L771.002 1560.69 Q774.249 1562.38 777.4 1563.24 Q780.551 1564.07 783.638 1564.07 Q787.776 1564.07 790.004 1562.66 Q792.232 1561.23 792.232 1558.65 Q792.232 1556.27 790.608 1554.99 Q789.017 1553.72 783.574 1552.54 L781.537 1552.07 Q776.095 1550.92 773.676 1548.56 Q771.257 1546.18 771.257 1542.04 Q771.257 1537.01 774.821 1534.27 Q778.386 1531.54 784.943 1531.54 Q788.189 1531.54 791.054 1532.01 Q793.919 1532.49 796.338 1533.45 Z" fill="#000000" fill-rule="nonzero" fill-opacity="1" /><path clip-path="url(#clip060)" d="M813.239 1562.7 L813.239 1581.6 L807.35 1581.6 L807.35 1532.4 L813.239 1532.4 L813.239 1537.81 Q815.085 1534.62 817.885 1533.1 Q820.718 1531.54 824.633 1531.54 Q831.126 1531.54 835.168 1536.69 Q839.242 1541.85 839.242 1550.25 Q839.242 1558.65 835.168 1563.81 Q831.126 1568.97 824.633 1568.97 Q820.718 1568.97 817.885 1567.44 Q815.085 1565.88 813.239 1562.7 M833.163 1550.25 Q833.163 1543.79 830.49 1540.13 Q827.848 1536.44 823.201 1536.44 Q818.554 1536.44 815.88 1540.13 Q813.239 1543.79 813.239 1550.25 Q813.239 1556.71 815.88 1560.4 Q818.554 1564.07 823.201 1564.07 Q827.848 1564.07 830.49 1560.4 Q833.163 1556.71 833.163 1550.25 Z" fill="#000000" fill-rule="nonzero" fill-opacity="1" /><path clip-path="url(#clip060)" d="M878.583 1546.53 L878.583 1568.04 L872.726 1568.04 L872.726 1546.72 Q872.726 1541.66 870.753 1539.14 Q868.779 1536.63 864.833 1536.63 Q860.09 1536.63 857.353 1539.65 Q854.616 1542.68 854.616 1547.9 L854.616 1568.04 L848.727 1568.04 L848.727 1518.52 L854.616 1518.52 L854.616 1537.93 Q856.716 1534.72 859.549 1533.13 Q862.414 1531.54 866.138 1531.54 Q872.28 1531.54 875.431 1535.36 Q878.583 1539.14 878.583 1546.53 Z" fill="#000000" fill-rule="nonzero" fill-opacity="1" /><path clip-path="url(#clip060)" d="M920.755 1548.76 L920.755 1551.62 L893.828 1551.62 Q894.21 1557.67 897.457 1560.85 Q900.735 1564 906.56 1564 Q909.934 1564 913.085 1563.17 Q916.267 1562.35 919.387 1560.69 L919.387 1566.23 Q916.236 1567.57 912.925 1568.27 Q909.615 1568.97 906.21 1568.97 Q897.68 1568.97 892.683 1564 Q887.717 1559.04 887.717 1550.57 Q887.717 1541.82 892.428 1536.69 Q897.17 1531.54 905.191 1531.54 Q912.384 1531.54 916.554 1536.18 Q920.755 1540.8 920.755 1548.76 M914.899 1547.04 Q914.835 1542.23 912.193 1539.37 Q909.584 1536.5 905.255 1536.5 Q900.353 1536.5 897.393 1539.27 Q894.465 1542.04 894.019 1547.07 L914.899 1547.04 Z" fill="#000000" fill-rule="nonzero" fill-opacity="1" /><path clip-path="url(#clip060)" d="M951.024 1537.87 Q950.038 1537.3 948.86 1537.04 Q947.714 1536.76 946.314 1536.76 Q941.348 1536.76 938.675 1540 Q936.033 1543.22 936.033 1549.27 L936.033 1568.04 L930.145 1568.04 L930.145 1532.4 L936.033 1532.4 L936.033 1537.93 Q937.879 1534.69 940.839 1533.13 Q943.799 1531.54 948.032 1531.54 Q948.637 1531.54 949.369 1531.63 Q950.101 1531.7 950.992 1531.85 L951.024 1537.87 Z" fill="#000000" fill-rule="nonzero" fill-opacity="1" /><path clip-path="url(#clip060)" d="M957.167 1532.4 L963.024 1532.4 L963.024 1568.04 L957.167 1568.04 L957.167 1532.4 M957.167 1518.52 L963.024 1518.52 L963.024 1525.93 L957.167 1525.93 L957.167 1518.52 Z" fill="#000000" fill-rule="nonzero" fill-opacity="1" /><path clip-path="url(#clip060)" d="M1000.93 1533.76 L1000.93 1539.24 Q998.449 1537.87 995.934 1537.2 Q993.452 1536.5 990.905 1536.5 Q985.208 1536.5 982.057 1540.13 Q978.906 1543.73 978.906 1550.25 Q978.906 1556.78 982.057 1560.4 Q985.208 1564 990.905 1564 Q993.452 1564 995.934 1563.33 Q998.449 1562.63 1000.93 1561.26 L1000.93 1566.68 Q998.481 1567.82 995.839 1568.39 Q993.229 1568.97 990.269 1568.97 Q982.216 1568.97 977.474 1563.91 Q972.731 1558.85 972.731 1550.25 Q972.731 1541.53 977.506 1536.53 Q982.312 1531.54 990.651 1531.54 Q993.356 1531.54 995.934 1532.11 Q998.512 1532.65 1000.93 1533.76 Z" fill="#000000" fill-rule="nonzero" fill-opacity="1" /><path clip-path="url(#clip060)" d="M1027.32 1550.12 Q1020.22 1550.12 1017.48 1551.75 Q1014.74 1553.37 1014.74 1557.29 Q1014.74 1560.4 1016.78 1562.25 Q1018.85 1564.07 1022.38 1564.07 Q1027.25 1564.07 1030.18 1560.63 Q1033.14 1557.16 1033.14 1551.43 L1033.14 1550.12 L1027.32 1550.12 M1039 1547.71 L1039 1568.04 L1033.14 1568.04 L1033.14 1562.63 Q1031.14 1565.88 1028.14 1567.44 Q1025.15 1568.97 1020.82 1568.97 Q1015.35 1568.97 1012.1 1565.91 Q1008.89 1562.82 1008.89 1557.67 Q1008.89 1551.65 1012.9 1548.6 Q1016.94 1545.54 1024.93 1545.54 L1033.14 1545.54 L1033.14 1544.97 Q1033.14 1540.93 1030.47 1538.73 Q1027.83 1536.5 1023.02 1536.5 Q1019.96 1536.5 1017.07 1537.23 Q1014.17 1537.97 1011.5 1539.43 L1011.5 1534.02 Q1014.71 1532.78 1017.74 1532.17 Q1020.76 1531.54 1023.63 1531.54 Q1031.36 1531.54 1035.18 1535.55 Q1039 1539.56 1039 1547.71 Z" fill="#000000" fill-rule="nonzero" fill-opacity="1" /><path clip-path="url(#clip060)" d="M1051.06 1518.52 L1056.92 1518.52 L1056.92 1568.04 L1051.06 1568.04 L1051.06 1518.52 Z" fill="#000000" fill-rule="nonzero" fill-opacity="1" /><path clip-path="url(#clip060)" d="M1096.26 1578.87 L1096.26 1583.42 L1062.39 1583.42 L1062.39 1578.87 L1096.26 1578.87 Z" fill="#000000" fill-rule="nonzero" fill-opacity="1" /><path clip-path="url(#clip060)" d="M1131.4 1546.53 L1131.4 1568.04 L1125.54 1568.04 L1125.54 1546.72 Q1125.54 1541.66 1123.57 1539.14 Q1121.59 1536.63 1117.65 1536.63 Q1112.9 1536.63 1110.17 1539.65 Q1107.43 1542.68 1107.43 1547.9 L1107.43 1568.04 L1101.54 1568.04 L1101.54 1518.52 L1107.43 1518.52 L1107.43 1537.93 Q1109.53 1534.72 1112.36 1533.13 Q1115.23 1531.54 1118.95 1531.54 Q1125.09 1531.54 1128.25 1535.36 Q1131.4 1539.14 1131.4 1546.53 Z" fill="#000000" fill-rule="nonzero" fill-opacity="1" /><path clip-path="url(#clip060)" d="M1159.28 1550.12 Q1152.18 1550.12 1149.44 1551.75 Q1146.71 1553.37 1146.71 1557.29 Q1146.71 1560.4 1148.74 1562.25 Q1150.81 1564.07 1154.34 1564.07 Q1159.21 1564.07 1162.14 1560.63 Q1165.1 1557.16 1165.1 1551.43 L1165.1 1550.12 L1159.28 1550.12 M1170.96 1547.71 L1170.96 1568.04 L1165.1 1568.04 L1165.1 1562.63 Q1163.1 1565.88 1160.11 1567.44 Q1157.11 1568.97 1152.79 1568.97 Q1147.31 1568.97 1144.06 1565.91 Q1140.85 1562.82 1140.85 1557.67 Q1140.85 1551.65 1144.86 1548.6 Q1148.9 1545.54 1156.89 1545.54 L1165.1 1545.54 L1165.1 1544.97 Q1165.1 1540.93 1162.43 1538.73 Q1159.79 1536.5 1154.98 1536.5 Q1151.93 1536.5 1149.03 1537.23 Q1146.13 1537.97 1143.46 1539.43 L1143.46 1534.02 Q1146.67 1532.78 1149.7 1532.17 Q1152.72 1531.54 1155.59 1531.54 Q1163.32 1531.54 1167.14 1535.55 Q1170.96 1539.56 1170.96 1547.71 Z" fill="#000000" fill-rule="nonzero" fill-opacity="1" /><path clip-path="url(#clip060)" d="M1203.68 1537.87 Q1202.69 1537.3 1201.51 1537.04 Q1200.37 1536.76 1198.97 1536.76 Q1194 1536.76 1191.33 1540 Q1188.69 1543.22 1188.69 1549.27 L1188.69 1568.04 L1182.8 1568.04 L1182.8 1532.4 L1188.69 1532.4 L1188.69 1537.93 Q1190.53 1534.69 1193.49 1533.13 Q1196.45 1531.54 1200.69 1531.54 Q1201.29 1531.54 1202.02 1531.63 Q1202.76 1531.7 1203.65 1531.85 L1203.68 1537.87 Z" fill="#000000" fill-rule="nonzero" fill-opacity="1" /><path clip-path="url(#clip060)" d="M1236.43 1539.24 Q1238.63 1535.29 1241.68 1533.41 Q1244.74 1531.54 1248.88 1531.54 Q1254.45 1531.54 1257.47 1535.45 Q1260.49 1539.33 1260.49 1546.53 L1260.49 1568.04 L1254.6 1568.04 L1254.6 1546.72 Q1254.6 1541.59 1252.79 1539.11 Q1250.98 1536.63 1247.25 1536.63 Q1242.7 1536.63 1240.06 1539.65 Q1237.42 1542.68 1237.42 1547.9 L1237.42 1568.04 L1231.53 1568.04 L1231.53 1546.72 Q1231.53 1541.56 1229.71 1539.11 Q1227.9 1536.63 1224.11 1536.63 Q1219.63 1536.63 1216.98 1539.68 Q1214.34 1542.71 1214.34 1547.9 L1214.34 1568.04 L1208.45 1568.04 L1208.45 1532.4 L1214.34 1532.4 L1214.34 1537.93 Q1216.35 1534.66 1219.15 1533.1 Q1221.95 1531.54 1225.8 1531.54 Q1229.68 1531.54 1232.39 1533.51 Q1235.13 1535.48 1236.43 1539.24 Z" fill="#000000" fill-rule="nonzero" fill-opacity="1" /><path clip-path="url(#clip060)" d="M1285.99 1536.5 Q1281.28 1536.5 1278.54 1540.19 Q1275.8 1543.85 1275.8 1550.25 Q1275.8 1556.65 1278.51 1560.34 Q1281.25 1564 1285.99 1564 Q1290.67 1564 1293.4 1560.31 Q1296.14 1556.62 1296.14 1550.25 Q1296.14 1543.92 1293.4 1540.23 Q1290.67 1536.5 1285.99 1536.5 M1285.99 1531.54 Q1293.63 1531.54 1297.99 1536.5 Q1302.35 1541.47 1302.35 1550.25 Q1302.35 1559 1297.99 1564 Q1293.63 1568.97 1285.99 1568.97 Q1278.32 1568.97 1273.96 1564 Q1269.63 1559 1269.63 1550.25 Q1269.63 1541.47 1273.96 1536.5 Q1278.32 1531.54 1285.99 1531.54 Z" fill="#000000" fill-rule="nonzero" fill-opacity="1" /><path clip-path="url(#clip060)" d="M1341.69 1546.53 L1341.69 1568.04 L1335.83 1568.04 L1335.83 1546.72 Q1335.83 1541.66 1333.86 1539.14 Q1331.88 1536.63 1327.94 1536.63 Q1323.2 1536.63 1320.46 1539.65 Q1317.72 1542.68 1317.72 1547.9 L1317.72 1568.04 L1311.83 1568.04 L1311.83 1532.4 L1317.72 1532.4 L1317.72 1537.93 Q1319.82 1534.72 1322.65 1533.13 Q1325.52 1531.54 1329.24 1531.54 Q1335.39 1531.54 1338.54 1535.36 Q1341.69 1539.14 1341.69 1546.53 Z" fill="#000000" fill-rule="nonzero" fill-opacity="1" /><path clip-path="url(#clip060)" d="M1353.37 1532.4 L1359.23 1532.4 L1359.23 1568.04 L1353.37 1568.04 L1353.37 1532.4 M1353.37 1518.52 L1359.23 1518.52 L1359.23 1525.93 L1353.37 1525.93 L1353.37 1518.52 Z" fill="#000000" fill-rule="nonzero" fill-opacity="1" /><path clip-path="url(#clip060)" d="M1397.13 1533.76 L1397.13 1539.24 Q1394.65 1537.87 1392.14 1537.2 Q1389.65 1536.5 1387.11 1536.5 Q1381.41 1536.5 1378.26 1540.13 Q1375.11 1543.73 1375.11 1550.25 Q1375.11 1556.78 1378.26 1560.4 Q1381.41 1564 1387.11 1564 Q1389.65 1564 1392.14 1563.33 Q1394.65 1562.63 1397.13 1561.26 L1397.13 1566.68 Q1394.68 1567.82 1392.04 1568.39 Q1389.43 1568.97 1386.47 1568.97 Q1378.42 1568.97 1373.68 1563.91 Q1368.93 1558.85 1368.93 1550.25 Q1368.93 1541.53 1373.71 1536.53 Q1378.51 1531.54 1386.85 1531.54 Q1389.56 1531.54 1392.14 1532.11 Q1394.71 1532.65 1397.13 1533.76 Z" fill="#000000" fill-rule="nonzero" fill-opacity="1" /><path clip-path="url(#clip060)" d="M1430.04 1533.45 L1430.04 1538.98 Q1427.56 1537.71 1424.89 1537.07 Q1422.21 1536.44 1419.35 1536.44 Q1414.99 1536.44 1412.79 1537.77 Q1410.63 1539.11 1410.63 1541.79 Q1410.63 1543.82 1412.19 1545 Q1413.75 1546.15 1418.46 1547.2 L1420.46 1547.64 Q1426.7 1548.98 1429.31 1551.43 Q1431.95 1553.85 1431.95 1558.21 Q1431.95 1563.17 1428.01 1566.07 Q1424.09 1568.97 1417.22 1568.97 Q1414.35 1568.97 1411.23 1568.39 Q1408.15 1567.85 1404.71 1566.74 L1404.71 1560.69 Q1407.95 1562.38 1411.11 1563.24 Q1414.26 1564.07 1417.34 1564.07 Q1421.48 1564.07 1423.71 1562.66 Q1425.94 1561.23 1425.94 1558.65 Q1425.94 1556.27 1424.31 1554.99 Q1422.72 1553.72 1417.28 1552.54 L1415.24 1552.07 Q1409.8 1550.92 1407.38 1548.56 Q1404.96 1546.18 1404.96 1542.04 Q1404.96 1537.01 1408.53 1534.27 Q1412.09 1531.54 1418.65 1531.54 Q1421.9 1531.54 1424.76 1532.01 Q1427.62 1532.49 1430.04 1533.45 Z" fill="#000000" fill-rule="nonzero" fill-opacity="1" /><path clip-path="url(#clip060)" d="M1489.75 1539.24 Q1491.95 1535.29 1495.01 1533.41 Q1498.06 1531.54 1502.2 1531.54 Q1507.77 1531.54 1510.79 1535.45 Q1513.82 1539.33 1513.82 1546.53 L1513.82 1568.04 L1507.93 1568.04 L1507.93 1546.72 Q1507.93 1541.59 1506.11 1539.11 Q1504.3 1536.63 1500.58 1536.63 Q1496.02 1536.63 1493.38 1539.65 Q1490.74 1542.68 1490.74 1547.9 L1490.74 1568.04 L1484.85 1568.04 L1484.85 1546.72 Q1484.85 1541.56 1483.04 1539.11 Q1481.22 1536.63 1477.44 1536.63 Q1472.95 1536.63 1470.31 1539.68 Q1467.67 1542.71 1467.67 1547.9 L1467.67 1568.04 L1461.78 1568.04 L1461.78 1532.4 L1467.67 1532.4 L1467.67 1537.93 Q1469.67 1534.66 1472.47 1533.1 Q1475.27 1531.54 1479.12 1531.54 Q1483.01 1531.54 1485.71 1533.51 Q1488.45 1535.48 1489.75 1539.24 Z" fill="#000000" fill-rule="nonzero" fill-opacity="1" /><path clip-path="url(#clip060)" d="M1539.31 1536.5 Q1534.6 1536.5 1531.86 1540.19 Q1529.13 1543.85 1529.13 1550.25 Q1529.13 1556.65 1531.83 1560.34 Q1534.57 1564 1539.31 1564 Q1543.99 1564 1546.73 1560.31 Q1549.46 1556.62 1549.46 1550.25 Q1549.46 1543.92 1546.73 1540.23 Q1543.99 1536.5 1539.31 1536.5 M1539.31 1531.54 Q1546.95 1531.54 1551.31 1536.5 Q1555.67 1541.47 1555.67 1550.25 Q1555.67 1559 1551.31 1564 Q1546.95 1568.97 1539.31 1568.97 Q1531.64 1568.97 1527.28 1564 Q1522.95 1559 1522.95 1550.25 Q1522.95 1541.47 1527.28 1536.5 Q1531.64 1531.54 1539.31 1531.54 Z" fill="#000000" fill-rule="nonzero" fill-opacity="1" /><path clip-path="url(#clip060)" d="M1588.84 1537.81 L1588.84 1518.52 L1594.69 1518.52 L1594.69 1568.04 L1588.84 1568.04 L1588.84 1562.7 Q1586.99 1565.88 1584.16 1567.44 Q1581.36 1568.97 1577.41 1568.97 Q1570.95 1568.97 1566.87 1563.81 Q1562.83 1558.65 1562.83 1550.25 Q1562.83 1541.85 1566.87 1536.69 Q1570.95 1531.54 1577.41 1531.54 Q1581.36 1531.54 1584.16 1533.1 Q1586.99 1534.62 1588.84 1537.81 M1568.88 1550.25 Q1568.88 1556.71 1571.52 1560.4 Q1574.2 1564.07 1578.84 1564.07 Q1583.49 1564.07 1586.16 1560.4 Q1588.84 1556.71 1588.84 1550.25 Q1588.84 1543.79 1586.16 1540.13 Q1583.49 1536.44 1578.84 1536.44 Q1574.2 1536.44 1571.52 1540.13 Q1568.88 1543.79 1568.88 1550.25 Z" fill="#000000" fill-rule="nonzero" fill-opacity="1" /><path clip-path="url(#clip060)" d="M1637.25 1548.76 L1637.25 1551.62 L1610.32 1551.62 Q1610.7 1557.67 1613.95 1560.85 Q1617.23 1564 1623.05 1564 Q1626.43 1564 1629.58 1563.17 Q1632.76 1562.35 1635.88 1560.69 L1635.88 1566.23 Q1632.73 1567.57 1629.42 1568.27 Q1626.11 1568.97 1622.7 1568.97 Q1614.17 1568.97 1609.17 1564 Q1604.21 1559.04 1604.21 1550.57 Q1604.21 1541.82 1608.92 1536.69 Q1613.66 1531.54 1621.68 1531.54 Q1628.88 1531.54 1633.05 1536.18 Q1637.25 1540.8 1637.25 1548.76 M1631.39 1547.04 Q1631.33 1542.23 1628.69 1539.37 Q1626.08 1536.5 1621.75 1536.5 Q1616.85 1536.5 1613.89 1539.27 Q1610.96 1542.04 1610.51 1547.07 L1631.39 1547.04 Z" fill="#000000" fill-rule="nonzero" fill-opacity="1" /><path clip-path="url(#clip060)" d="M1646.86 1518.52 L1652.72 1518.52 L1652.72 1568.04 L1646.86 1568.04 L1646.86 1518.52 Z" fill="#000000" fill-rule="nonzero" fill-opacity="1" /><path clip-path="url(#clip060)" d="M1708.42 1533.45 L1708.42 1538.98 Q1705.93 1537.71 1703.26 1537.07 Q1700.59 1536.44 1697.72 1536.44 Q1693.36 1536.44 1691.16 1537.77 Q1689 1539.11 1689 1541.79 Q1689 1543.82 1690.56 1545 Q1692.12 1546.15 1696.83 1547.2 L1698.84 1547.64 Q1705.07 1548.98 1707.68 1551.43 Q1710.33 1553.85 1710.33 1558.21 Q1710.33 1563.17 1706.38 1566.07 Q1702.46 1568.97 1695.59 1568.97 Q1692.72 1568.97 1689.61 1568.39 Q1686.52 1567.85 1683.08 1566.74 L1683.08 1560.69 Q1686.33 1562.38 1689.48 1563.24 Q1692.63 1564.07 1695.72 1564.07 Q1699.85 1564.07 1702.08 1562.66 Q1704.31 1561.23 1704.31 1558.65 Q1704.31 1556.27 1702.69 1554.99 Q1701.1 1553.72 1695.65 1552.54 L1693.62 1552.07 Q1688.17 1550.92 1685.75 1548.56 Q1683.34 1546.18 1683.34 1542.04 Q1683.34 1537.01 1686.9 1534.27 Q1690.46 1531.54 1697.02 1531.54 Q1700.27 1531.54 1703.13 1532.01 Q1706 1532.49 1708.42 1533.45 Z" fill="#000000" fill-rule="nonzero" fill-opacity="1" /><path clip-path="url(#clip060)" d="M1719.65 1532.4 L1725.51 1532.4 L1725.51 1568.04 L1719.65 1568.04 L1719.65 1532.4 M1719.65 1518.52 L1725.51 1518.52 L1725.51 1525.93 L1719.65 1525.93 L1719.65 1518.52 Z" fill="#000000" fill-rule="nonzero" fill-opacity="1" /><path clip-path="url(#clip060)" d="M1735.22 1532.4 L1763.03 1532.4 L1763.03 1537.74 L1741.01 1563.37 L1763.03 1563.37 L1763.03 1568.04 L1734.42 1568.04 L1734.42 1562.7 L1756.45 1537.07 L1735.22 1537.07 L1735.22 1532.4 Z" fill="#000000" fill-rule="nonzero" fill-opacity="1" /><path clip-path="url(#clip060)" d="M1802.47 1548.76 L1802.47 1551.62 L1775.54 1551.62 Q1775.92 1557.67 1779.17 1560.85 Q1782.45 1564 1788.27 1564 Q1791.65 1564 1794.8 1563.17 Q1797.98 1562.35 1801.1 1560.69 L1801.1 1566.23 Q1797.95 1567.57 1794.64 1568.27 Q1791.33 1568.97 1787.92 1568.97 Q1779.39 1568.97 1774.4 1564 Q1769.43 1559.04 1769.43 1550.57 Q1769.43 1541.82 1774.14 1536.69 Q1778.88 1531.54 1786.91 1531.54 Q1794.1 1531.54 1798.27 1536.18 Q1802.47 1540.8 1802.47 1548.76 M1796.61 1547.04 Q1796.55 1542.23 1793.91 1539.37 Q1791.3 1536.5 1786.97 1536.5 Q1782.07 1536.5 1779.11 1539.27 Q1776.18 1542.04 1775.73 1547.07 L1796.61 1547.04 Z" fill="#000000" fill-rule="nonzero" fill-opacity="1" /><polyline clip-path="url(#clip062)" style="stroke:#000000; stroke-linecap:round; stroke-linejoin:round; stroke-width:2; stroke-opacity:0.1; fill:none" points="220.716,1226.14 2352.76,1226.14 "/>
<polyline clip-path="url(#clip062)" style="stroke:#000000; stroke-linecap:round; stroke-linejoin:round; stroke-width:2; stroke-opacity:0.1; fill:none" points="220.716,722.621 2352.76,722.621 "/>
<polyline clip-path="url(#clip062)" style="stroke:#000000; stroke-linecap:round; stroke-linejoin:round; stroke-width:2; stroke-opacity:0.1; fill:none" points="220.716,219.099 2352.76,219.099 "/>
<polyline clip-path="url(#clip060)" style="stroke:#000000; stroke-linecap:round; stroke-linejoin:round; stroke-width:4; stroke-opacity:1; fill:none" points="220.716,1423.18 220.716,192.592 "/>
<polyline clip-path="url(#clip060)" style="stroke:#000000; stroke-linecap:round; stroke-linejoin:round; stroke-width:4; stroke-opacity:1; fill:none" points="220.716,1226.14 239.613,1226.14 "/>
<polyline clip-path="url(#clip060)" style="stroke:#000000; stroke-linecap:round; stroke-linejoin:round; stroke-width:4; stroke-opacity:1; fill:none" points="220.716,722.621 239.613,722.621 "/>
<polyline clip-path="url(#clip060)" style="stroke:#000000; stroke-linecap:round; stroke-linejoin:round; stroke-width:4; stroke-opacity:1; fill:none" points="220.716,219.099 239.613,219.099 "/>
<polyline clip-path="url(#clip060)" style="stroke:#000000; stroke-linecap:round; stroke-linejoin:round; stroke-width:4; stroke-opacity:1; fill:none" points="220.716,1395.95 230.164,1395.95 "/>
<polyline clip-path="url(#clip060)" style="stroke:#000000; stroke-linecap:round; stroke-linejoin:round; stroke-width:4; stroke-opacity:1; fill:none" points="220.716,1323.74 230.164,1323.74 "/>
<polyline clip-path="url(#clip060)" style="stroke:#000000; stroke-linecap:round; stroke-linejoin:round; stroke-width:4; stroke-opacity:1; fill:none" points="220.716,1269.54 230.164,1269.54 "/>
<polyline clip-path="url(#clip060)" style="stroke:#000000; stroke-linecap:round; stroke-linejoin:round; stroke-width:4; stroke-opacity:1; fill:none" points="220.716,1000.99 230.164,1000.99 "/>
<polyline clip-path="url(#clip060)" style="stroke:#000000; stroke-linecap:round; stroke-linejoin:round; stroke-width:4; stroke-opacity:1; fill:none" points="220.716,892.43 230.164,892.43 "/>
<polyline clip-path="url(#clip060)" style="stroke:#000000; stroke-linecap:round; stroke-linejoin:round; stroke-width:4; stroke-opacity:1; fill:none" points="220.716,820.214 230.164,820.214 "/>
<polyline clip-path="url(#clip060)" style="stroke:#000000; stroke-linecap:round; stroke-linejoin:round; stroke-width:4; stroke-opacity:1; fill:none" points="220.716,766.018 230.164,766.018 "/>
<polyline clip-path="url(#clip060)" style="stroke:#000000; stroke-linecap:round; stroke-linejoin:round; stroke-width:4; stroke-opacity:1; fill:none" points="220.716,497.467 230.164,497.467 "/>
<polyline clip-path="url(#clip060)" style="stroke:#000000; stroke-linecap:round; stroke-linejoin:round; stroke-width:4; stroke-opacity:1; fill:none" points="220.716,388.908 230.164,388.908 "/>
<polyline clip-path="url(#clip060)" style="stroke:#000000; stroke-linecap:round; stroke-linejoin:round; stroke-width:4; stroke-opacity:1; fill:none" points="220.716,316.691 230.164,316.691 "/>
<polyline clip-path="url(#clip060)" style="stroke:#000000; stroke-linecap:round; stroke-linejoin:round; stroke-width:4; stroke-opacity:1; fill:none" points="220.716,262.495 230.164,262.495 "/>
<path clip-path="url(#clip060)" d="M116.699 1245.94 L124.338 1245.94 L124.338 1219.57 L116.028 1221.24 L116.028 1216.98 L124.292 1215.31 L128.968 1215.31 L128.968 1245.94 L136.607 1245.94 L136.607 1249.87 L116.699 1249.87 L116.699 1245.94 Z" fill="#000000" fill-rule="nonzero" fill-opacity="1" /><path clip-path="url(#clip060)" d="M156.051 1218.39 Q152.44 1218.39 150.611 1221.96 Q148.806 1225.5 148.806 1232.63 Q148.806 1239.73 150.611 1243.3 Q152.44 1246.84 156.051 1246.84 Q159.685 1246.84 161.491 1243.3 Q163.32 1239.73 163.32 1232.63 Q163.32 1225.5 161.491 1221.96 Q159.685 1218.39 156.051 1218.39 M156.051 1214.69 Q161.861 1214.69 164.917 1219.29 Q167.995 1223.88 167.995 1232.63 Q167.995 1241.35 164.917 1245.96 Q161.861 1250.54 156.051 1250.54 Q150.241 1250.54 147.162 1245.96 Q144.107 1241.35 144.107 1232.63 Q144.107 1223.88 147.162 1219.29 Q150.241 1214.69 156.051 1214.69 Z" fill="#000000" fill-rule="nonzero" fill-opacity="1" /><path clip-path="url(#clip060)" d="M168.541 1219.26 L174.747 1219.26 L174.747 1197.84 L167.995 1199.2 L167.995 1195.74 L174.71 1194.38 L178.509 1194.38 L178.509 1219.26 L184.716 1219.26 L184.716 1222.46 L168.541 1222.46 L168.541 1219.26 Z" fill="#000000" fill-rule="nonzero" fill-opacity="1" /><path clip-path="url(#clip060)" d="M115.59 742.414 L123.229 742.414 L123.229 716.048 L114.918 717.715 L114.918 713.456 L123.182 711.789 L127.858 711.789 L127.858 742.414 L135.497 742.414 L135.497 746.349 L115.59 746.349 L115.59 742.414 Z" fill="#000000" fill-rule="nonzero" fill-opacity="1" /><path clip-path="url(#clip060)" d="M154.941 714.868 Q151.33 714.868 149.502 718.432 Q147.696 721.974 147.696 729.104 Q147.696 736.21 149.502 739.775 Q151.33 743.317 154.941 743.317 Q158.576 743.317 160.381 739.775 Q162.21 736.21 162.21 729.104 Q162.21 721.974 160.381 718.432 Q158.576 714.868 154.941 714.868 M154.941 711.164 Q160.752 711.164 163.807 715.77 Q166.886 720.354 166.886 729.104 Q166.886 737.83 163.807 742.437 Q160.752 747.02 154.941 747.02 Q149.131 747.02 146.053 742.437 Q142.997 737.83 142.997 729.104 Q142.997 720.354 146.053 715.77 Q149.131 711.164 154.941 711.164 Z" fill="#000000" fill-rule="nonzero" fill-opacity="1" /><path clip-path="url(#clip060)" d="M171.456 715.741 L184.716 715.741 L184.716 718.939 L166.886 718.939 L166.886 715.741 Q169.049 713.503 172.773 709.742 Q176.515 705.961 177.475 704.87 Q179.299 702.82 180.014 701.41 Q180.747 699.98 180.747 698.607 Q180.747 696.369 179.167 694.959 Q177.606 693.548 175.086 693.548 Q173.299 693.548 171.306 694.169 Q169.331 694.789 167.074 696.049 L167.074 692.213 Q169.368 691.291 171.362 690.821 Q173.356 690.351 175.011 690.351 Q179.374 690.351 181.97 692.532 Q184.565 694.714 184.565 698.363 Q184.565 700.093 183.907 701.654 Q183.267 703.196 181.556 705.303 Q181.086 705.848 178.565 708.463 Q176.045 711.058 171.456 715.741 Z" fill="#000000" fill-rule="nonzero" fill-opacity="1" /><path clip-path="url(#clip060)" d="M114.931 238.891 L122.57 238.891 L122.57 212.526 L114.26 214.192 L114.26 209.933 L122.524 208.266 L127.2 208.266 L127.2 238.891 L134.839 238.891 L134.839 242.826 L114.931 242.826 L114.931 238.891 Z" fill="#000000" fill-rule="nonzero" fill-opacity="1" /><path clip-path="url(#clip060)" d="M154.283 211.345 Q150.672 211.345 148.843 214.91 Q147.038 218.451 147.038 225.581 Q147.038 232.687 148.843 236.252 Q150.672 239.794 154.283 239.794 Q157.917 239.794 159.723 236.252 Q161.552 232.687 161.552 225.581 Q161.552 218.451 159.723 214.91 Q157.917 211.345 154.283 211.345 M154.283 207.641 Q160.093 207.641 163.149 212.248 Q166.227 216.831 166.227 225.581 Q166.227 234.308 163.149 238.914 Q160.093 243.498 154.283 243.498 Q148.473 243.498 145.394 238.914 Q142.339 234.308 142.339 225.581 Q142.339 216.831 145.394 212.248 Q148.473 207.641 154.283 207.641 Z" fill="#000000" fill-rule="nonzero" fill-opacity="1" /><path clip-path="url(#clip060)" d="M178.923 200.276 Q181.65 200.859 183.173 202.702 Q184.716 204.545 184.716 207.253 Q184.716 211.41 181.857 213.686 Q178.998 215.961 173.732 215.961 Q171.964 215.961 170.083 215.604 Q168.221 215.265 166.227 214.57 L166.227 210.902 Q167.807 211.824 169.688 212.294 Q171.569 212.764 173.619 212.764 Q177.192 212.764 179.054 211.353 Q180.935 209.943 180.935 207.253 Q180.935 204.771 179.186 203.379 Q177.456 201.968 174.352 201.968 L171.08 201.968 L171.08 198.846 L174.503 198.846 Q177.305 198.846 178.791 197.737 Q180.277 196.608 180.277 194.502 Q180.277 192.339 178.735 191.191 Q177.211 190.025 174.352 190.025 Q172.791 190.025 171.005 190.364 Q169.218 190.702 167.074 191.417 L167.074 188.032 Q169.237 187.43 171.117 187.129 Q173.017 186.828 174.691 186.828 Q179.017 186.828 181.537 188.803 Q184.057 190.759 184.057 194.107 Q184.057 196.439 182.722 198.056 Q181.387 199.655 178.923 200.276 Z" fill="#000000" fill-rule="nonzero" fill-opacity="1" /><path clip-path="url(#clip060)" d="M41.7242 864.047 Q42.4244 861.979 44.7161 860.037 Q47.0077 858.064 51.0181 856.09 L64.0042 849.565 L64.0042 856.472 L51.8138 862.551 Q47.0395 864.907 45.48 867.135 Q43.9204 869.331 43.9204 873.15 L43.9204 880.153 L64.0042 880.153 L64.0042 886.582 L16.4842 886.582 L16.4842 872.068 Q16.4842 863.92 19.8898 859.91 Q23.2955 855.899 30.1704 855.899 Q34.6582 855.899 37.6183 858 Q40.5784 860.069 41.7242 864.047 M21.7677 880.153 L38.6368 880.153 L38.6368 872.068 Q38.6368 867.421 36.5043 865.066 Q34.34 862.679 30.1704 862.679 Q26.0009 862.679 23.9002 865.066 Q21.7677 867.421 21.7677 872.068 L21.7677 880.153 Z" fill="#000000" fill-rule="nonzero" fill-opacity="1" /><path clip-path="url(#clip060)" d="M46.0847 826.776 Q46.0847 833.874 47.7079 836.611 Q49.3312 839.348 53.2461 839.348 Q56.3653 839.348 58.2114 837.311 Q60.0256 835.243 60.0256 831.71 Q60.0256 826.84 56.5881 823.912 Q53.1188 820.952 47.3897 820.952 L46.0847 820.952 L46.0847 826.776 M43.6657 815.095 L64.0042 815.095 L64.0042 820.952 L58.5933 820.952 Q61.8398 822.957 63.3994 825.949 Q64.9272 828.941 64.9272 833.269 Q64.9272 838.744 61.8716 841.99 Q58.7843 845.205 53.6281 845.205 Q47.6125 845.205 44.5569 841.195 Q41.5014 837.152 41.5014 829.163 L41.5014 820.952 L40.9285 820.952 Q36.8862 820.952 34.6901 823.625 Q32.4621 826.267 32.4621 831.073 Q32.4621 834.129 33.1941 837.025 Q33.9262 839.921 35.3903 842.595 L29.9795 842.595 Q28.7381 839.38 28.1334 836.357 Q27.4968 833.333 27.4968 830.468 Q27.4968 822.734 31.5072 818.915 Q35.5176 815.095 43.6657 815.095 Z" fill="#000000" fill-rule="nonzero" fill-opacity="1" /><path clip-path="url(#clip060)" d="M18.2347 797.239 L28.3562 797.239 L28.3562 785.176 L32.9077 785.176 L32.9077 797.239 L52.2594 797.239 Q56.6199 797.239 57.8613 796.062 Q59.1026 794.852 59.1026 791.192 L59.1026 785.176 L64.0042 785.176 L64.0042 791.192 Q64.0042 797.971 61.4897 800.55 Q58.9434 803.128 52.2594 803.128 L32.9077 803.128 L32.9077 807.424 L28.3562 807.424 L28.3562 803.128 L18.2347 803.128 L18.2347 797.239 Z" fill="#000000" fill-rule="nonzero" fill-opacity="1" /><path clip-path="url(#clip060)" d="M28.3562 777.474 L28.3562 771.617 L64.0042 771.617 L64.0042 777.474 L28.3562 777.474 M14.479 777.474 L14.479 771.617 L21.895 771.617 L21.895 777.474 L14.479 777.474 Z" fill="#000000" fill-rule="nonzero" fill-opacity="1" /><path clip-path="url(#clip060)" d="M32.4621 745.55 Q32.4621 750.26 36.1542 752.998 Q39.8145 755.735 46.212 755.735 Q52.6095 755.735 56.3017 753.03 Q59.9619 750.292 59.9619 745.55 Q59.9619 740.871 56.2698 738.134 Q52.5777 735.396 46.212 735.396 Q39.8781 735.396 36.186 738.134 Q32.4621 740.871 32.4621 745.55 M27.4968 745.55 Q27.4968 737.911 32.4621 733.55 Q37.4273 729.19 46.212 729.19 Q54.9649 729.19 59.9619 733.55 Q64.9272 737.911 64.9272 745.55 Q64.9272 753.22 59.9619 757.581 Q54.9649 761.91 46.212 761.91 Q37.4273 761.91 32.4621 757.581 Q27.4968 753.22 27.4968 745.55 Z" fill="#000000" fill-rule="nonzero" fill-opacity="1" /><path clip-path="url(#clip060)" d="M889.689 30.24 L926.234 30.24 L926.234 35.159 L910.899 35.159 L910.899 73.44 L905.025 73.44 L905.025 35.159 L889.689 35.159 L889.689 30.24 Z" fill="#000000" fill-rule="nonzero" fill-opacity="1" /><path clip-path="url(#clip060)" d="M929.822 41.0328 L935.146 41.0328 L935.146 73.44 L929.822 73.44 L929.822 41.0328 M929.822 28.4171 L935.146 28.4171 L935.146 35.159 L929.822 35.159 L929.822 28.4171 Z" fill="#000000" fill-rule="nonzero" fill-opacity="1" /><path clip-path="url(#clip060)" d="M971.517 47.2538 Q973.514 43.6659 976.292 41.9587 Q979.07 40.2515 982.831 40.2515 Q987.895 40.2515 990.644 43.8105 Q993.392 47.3406 993.392 53.8799 L993.392 73.44 L988.039 73.44 L988.039 54.0535 Q988.039 49.395 986.39 47.1381 Q984.741 44.8811 981.355 44.8811 Q977.218 44.8811 974.816 47.63 Q972.414 50.3788 972.414 55.1241 L972.414 73.44 L967.061 73.44 L967.061 54.0535 Q967.061 49.3661 965.412 47.1381 Q963.763 44.8811 960.32 44.8811 Q956.24 44.8811 953.838 47.6589 Q951.437 50.4077 951.437 55.1241 L951.437 73.44 L946.084 73.44 L946.084 41.0328 L951.437 41.0328 L951.437 46.0675 Q953.259 43.0872 955.806 41.6693 Q958.352 40.2515 961.853 40.2515 Q965.383 40.2515 967.843 42.0455 Q970.331 43.8395 971.517 47.2538 Z" fill="#000000" fill-rule="nonzero" fill-opacity="1" /><path clip-path="url(#clip060)" d="M1031.73 55.9054 L1031.73 58.5095 L1007.25 58.5095 Q1007.6 64.0072 1010.55 66.9007 Q1013.53 69.7653 1018.83 69.7653 Q1021.89 69.7653 1024.76 69.0129 Q1027.65 68.2606 1030.49 66.756 L1030.49 71.7907 Q1027.62 73.006 1024.61 73.6425 Q1021.6 74.2791 1018.51 74.2791 Q1010.75 74.2791 1006.21 69.7653 Q1001.7 65.2514 1001.7 57.5547 Q1001.7 49.5975 1005.98 44.939 Q1010.29 40.2515 1017.58 40.2515 Q1024.12 40.2515 1027.91 44.476 Q1031.73 48.6716 1031.73 55.9054 M1026.41 54.3429 Q1026.35 49.9737 1023.95 47.3695 Q1021.58 44.7654 1017.64 44.7654 Q1013.18 44.7654 1010.49 47.2827 Q1007.83 49.8001 1007.43 54.3718 L1026.41 54.3429 Z" fill="#000000" fill-rule="nonzero" fill-opacity="1" /><path clip-path="url(#clip060)" d="M1078.09 46.0096 Q1077.19 45.4888 1076.12 45.2573 Q1075.08 44.9969 1073.8 44.9969 Q1069.29 44.9969 1066.86 47.9482 Q1064.46 50.8707 1064.46 56.3683 L1064.46 73.44 L1059.1 73.44 L1059.1 41.0328 L1064.46 41.0328 L1064.46 46.0675 Q1066.14 43.1161 1068.83 41.6983 Q1071.52 40.2515 1075.37 40.2515 Q1075.92 40.2515 1076.58 40.3383 Q1077.25 40.3962 1078.06 40.5409 L1078.09 46.0096 Z" fill="#000000" fill-rule="nonzero" fill-opacity="1" /><path clip-path="url(#clip060)" d="M1098.4 57.1496 Q1091.95 57.1496 1089.46 58.6253 Q1086.97 60.101 1086.97 63.66 Q1086.97 66.4956 1088.82 68.1738 Q1090.7 69.8231 1093.91 69.8231 Q1098.34 69.8231 1101 66.6981 Q1103.69 63.5442 1103.69 58.3359 L1103.69 57.1496 L1098.4 57.1496 M1109.02 54.9505 L1109.02 73.44 L1103.69 73.44 L1103.69 68.521 Q1101.87 71.4724 1099.15 72.8902 Q1096.43 74.2791 1092.49 74.2791 Q1087.52 74.2791 1084.57 71.5014 Q1081.64 68.6947 1081.64 64.0072 Q1081.64 58.5385 1085.29 55.7607 Q1088.96 52.9829 1096.23 52.9829 L1103.69 52.9829 L1103.69 52.4621 Q1103.69 48.7874 1101.26 46.7908 Q1098.86 44.7654 1094.49 44.7654 Q1091.71 44.7654 1089.08 45.4309 Q1086.45 46.0964 1084.02 47.4274 L1084.02 42.5085 Q1086.94 41.38 1089.69 40.8302 Q1092.44 40.2515 1095.04 40.2515 Q1102.07 40.2515 1105.54 43.8973 Q1109.02 47.5431 1109.02 54.9505 Z" fill="#000000" fill-rule="nonzero" fill-opacity="1" /><path clip-path="url(#clip060)" d="M1125.25 31.8314 L1125.25 41.0328 L1136.22 41.0328 L1136.22 45.1705 L1125.25 45.1705 L1125.25 62.763 Q1125.25 66.7271 1126.32 67.8555 Q1127.42 68.984 1130.75 68.984 L1136.22 68.984 L1136.22 73.44 L1130.75 73.44 Q1124.58 73.44 1122.24 71.1541 Q1119.9 68.8393 1119.9 62.763 L1119.9 45.1705 L1115.99 45.1705 L1115.99 41.0328 L1119.9 41.0328 L1119.9 31.8314 L1125.25 31.8314 Z" fill="#000000" fill-rule="nonzero" fill-opacity="1" /><path clip-path="url(#clip060)" d="M1143.22 41.0328 L1148.54 41.0328 L1148.54 73.44 L1143.22 73.44 L1143.22 41.0328 M1143.22 28.4171 L1148.54 28.4171 L1148.54 35.159 L1143.22 35.159 L1143.22 28.4171 Z" fill="#000000" fill-rule="nonzero" fill-opacity="1" /><path clip-path="url(#clip060)" d="M1172.24 44.7654 Q1167.96 44.7654 1165.47 48.1218 Q1162.98 51.4494 1162.98 57.2653 Q1162.98 63.0813 1165.44 66.4377 Q1167.93 69.7653 1172.24 69.7653 Q1176.49 69.7653 1178.98 66.4088 Q1181.47 63.0523 1181.47 57.2653 Q1181.47 51.5072 1178.98 48.1508 Q1176.49 44.7654 1172.24 44.7654 M1172.24 40.2515 Q1179.18 40.2515 1183.15 44.7654 Q1187.11 49.2792 1187.11 57.2653 Q1187.11 65.2225 1183.15 69.7653 Q1179.18 74.2791 1172.24 74.2791 Q1165.27 74.2791 1161.3 69.7653 Q1157.37 65.2225 1157.37 57.2653 Q1157.37 49.2792 1161.3 44.7654 Q1165.27 40.2515 1172.24 40.2515 Z" fill="#000000" fill-rule="nonzero" fill-opacity="1" /><path clip-path="url(#clip060)" d="M1197.3 66.0905 L1203.4 66.0905 L1203.4 71.0673 L1198.66 80.3265 L1194.92 80.3265 L1197.3 71.0673 L1197.3 66.0905 Z" fill="#000000" fill-rule="nonzero" fill-opacity="1" /><path clip-path="url(#clip060)" d="M1259.74 31.6578 L1259.74 37.358 Q1256.41 35.7666 1253.46 34.9853 Q1250.51 34.2041 1247.76 34.2041 Q1242.99 34.2041 1240.38 36.0559 Q1237.81 37.9078 1237.81 41.3221 Q1237.81 44.1867 1239.51 45.6624 Q1241.25 47.1091 1246.05 48.0061 L1249.58 48.7295 Q1256.12 49.9737 1259.22 53.1276 Q1262.34 56.2526 1262.34 61.5188 Q1262.34 67.7977 1258.12 71.0384 Q1253.92 74.2791 1245.79 74.2791 Q1242.73 74.2791 1239.25 73.5847 Q1235.81 72.8902 1232.11 71.5303 L1232.11 65.5118 Q1235.67 67.5083 1239.08 68.521 Q1242.49 69.5338 1245.79 69.5338 Q1250.8 69.5338 1253.52 67.5662 Q1256.24 65.5986 1256.24 61.9528 Q1256.24 58.7699 1254.27 56.976 Q1252.33 55.182 1247.88 54.285 L1244.32 53.5906 Q1237.78 52.2885 1234.86 49.5107 Q1231.93 46.733 1231.93 41.7851 Q1231.93 36.0559 1235.95 32.7573 Q1240.01 29.4588 1247.09 29.4588 Q1250.13 29.4588 1253.29 30.0085 Q1256.44 30.5583 1259.74 31.6578 Z" fill="#000000" fill-rule="nonzero" fill-opacity="1" /><path clip-path="url(#clip060)" d="M1284.71 76.4492 Q1282.45 82.2362 1280.31 84.0013 Q1278.17 85.7663 1274.58 85.7663 L1270.33 85.7663 L1270.33 81.3103 L1273.45 81.3103 Q1275.65 81.3103 1276.87 80.2687 Q1278.08 79.227 1279.56 75.3497 L1280.51 72.9192 L1267.41 41.0328 L1273.05 41.0328 L1283.18 66.3799 L1293.3 41.0328 L1298.95 41.0328 L1284.71 76.4492 Z" fill="#000000" fill-rule="nonzero" fill-opacity="1" /><path clip-path="url(#clip060)" d="M1331.53 47.2538 Q1333.52 43.6659 1336.3 41.9587 Q1339.08 40.2515 1342.84 40.2515 Q1347.9 40.2515 1350.65 43.8105 Q1353.4 47.3406 1353.4 53.8799 L1353.4 73.44 L1348.05 73.44 L1348.05 54.0535 Q1348.05 49.395 1346.4 47.1381 Q1344.75 44.8811 1341.37 44.8811 Q1337.23 44.8811 1334.83 47.63 Q1332.42 50.3788 1332.42 55.1241 L1332.42 73.44 L1327.07 73.44 L1327.07 54.0535 Q1327.07 49.3661 1325.42 47.1381 Q1323.77 44.8811 1320.33 44.8811 Q1316.25 44.8811 1313.85 47.6589 Q1311.45 50.4077 1311.45 55.1241 L1311.45 73.44 L1306.09 73.44 L1306.09 41.0328 L1311.45 41.0328 L1311.45 46.0675 Q1313.27 43.0872 1315.82 41.6693 Q1318.36 40.2515 1321.86 40.2515 Q1325.39 40.2515 1327.85 42.0455 Q1330.34 43.8395 1331.53 47.2538 Z" fill="#000000" fill-rule="nonzero" fill-opacity="1" /><path clip-path="url(#clip060)" d="M1387.28 57.2653 Q1387.28 51.3915 1384.85 48.064 Q1382.45 44.7075 1378.23 44.7075 Q1374 44.7075 1371.57 48.064 Q1369.17 51.3915 1369.17 57.2653 Q1369.17 63.1391 1371.57 66.4956 Q1374 69.8231 1378.23 69.8231 Q1382.45 69.8231 1384.85 66.4956 Q1387.28 63.1391 1387.28 57.2653 M1369.17 45.9517 Q1370.85 43.0582 1373.4 41.6693 Q1375.97 40.2515 1379.53 40.2515 Q1385.43 40.2515 1389.11 44.939 Q1392.81 49.6265 1392.81 57.2653 Q1392.81 64.9042 1389.11 69.5916 Q1385.43 74.2791 1379.53 74.2791 Q1375.97 74.2791 1373.4 72.8902 Q1370.85 71.4724 1369.17 68.5789 L1369.17 73.44 L1363.82 73.44 L1363.82 28.4171 L1369.17 28.4171 L1369.17 45.9517 Z" fill="#000000" fill-rule="nonzero" fill-opacity="1" /><path clip-path="url(#clip060)" d="M1414.19 44.7654 Q1409.91 44.7654 1407.42 48.1218 Q1404.94 51.4494 1404.94 57.2653 Q1404.94 63.0813 1407.39 66.4377 Q1409.88 69.7653 1414.19 69.7653 Q1418.45 69.7653 1420.94 66.4088 Q1423.42 63.0523 1423.42 57.2653 Q1423.42 51.5072 1420.94 48.1508 Q1418.45 44.7654 1414.19 44.7654 M1414.19 40.2515 Q1421.14 40.2515 1425.1 44.7654 Q1429.07 49.2792 1429.07 57.2653 Q1429.07 65.2225 1425.1 69.7653 Q1421.14 74.2791 1414.19 74.2791 Q1407.22 74.2791 1403.26 69.7653 Q1399.32 65.2225 1399.32 57.2653 Q1399.32 49.2792 1403.26 44.7654 Q1407.22 40.2515 1414.19 40.2515 Z" fill="#000000" fill-rule="nonzero" fill-opacity="1" /><path clip-path="url(#clip060)" d="M1437.89 28.4171 L1443.22 28.4171 L1443.22 73.44 L1437.89 73.44 L1437.89 28.4171 Z" fill="#000000" fill-rule="nonzero" fill-opacity="1" /><path clip-path="url(#clip060)" d="M1454.36 41.0328 L1459.68 41.0328 L1459.68 73.44 L1454.36 73.44 L1454.36 41.0328 M1454.36 28.4171 L1459.68 28.4171 L1459.68 35.159 L1454.36 35.159 L1454.36 28.4171 Z" fill="#000000" fill-rule="nonzero" fill-opacity="1" /><path clip-path="url(#clip060)" d="M1494.14 42.277 L1494.14 47.2538 Q1491.89 46.0096 1489.6 45.402 Q1487.34 44.7654 1485.03 44.7654 Q1479.85 44.7654 1476.98 48.064 Q1474.12 51.3336 1474.12 57.2653 Q1474.12 63.197 1476.98 66.4956 Q1479.85 69.7653 1485.03 69.7653 Q1487.34 69.7653 1489.6 69.1576 Q1491.89 68.521 1494.14 67.2768 L1494.14 72.1958 Q1491.91 73.2375 1489.51 73.7583 Q1487.14 74.2791 1484.45 74.2791 Q1477.13 74.2791 1472.82 69.6784 Q1468.51 65.0778 1468.51 57.2653 Q1468.51 49.3371 1472.85 44.7943 Q1477.22 40.2515 1484.8 40.2515 Q1487.26 40.2515 1489.6 40.7724 Q1491.94 41.2642 1494.14 42.277 Z" fill="#000000" fill-rule="nonzero" fill-opacity="1" /><path clip-path="url(#clip060)" d="M1524.06 41.9876 L1524.06 47.0223 Q1521.8 45.8649 1519.37 45.2862 Q1516.94 44.7075 1514.34 44.7075 Q1510.37 44.7075 1508.38 45.9228 Q1506.41 47.1381 1506.41 49.5686 Q1506.41 51.4204 1507.83 52.491 Q1509.25 53.5327 1513.53 54.4876 L1515.35 54.8926 Q1521.02 56.1079 1523.4 58.3359 Q1525.8 60.535 1525.8 64.4991 Q1525.8 69.0129 1522.21 71.646 Q1518.65 74.2791 1512.4 74.2791 Q1509.8 74.2791 1506.96 73.7583 Q1504.15 73.2664 1501.03 72.2537 L1501.03 66.756 Q1503.98 68.2896 1506.84 69.0708 Q1509.71 69.8231 1512.52 69.8231 Q1516.28 69.8231 1518.3 68.55 Q1520.33 67.2479 1520.33 64.9042 Q1520.33 62.734 1518.85 61.5766 Q1517.41 60.4192 1512.46 59.3486 L1510.61 58.9146 Q1505.66 57.873 1503.46 55.7318 Q1501.26 53.5616 1501.26 49.8001 Q1501.26 45.2283 1504.5 42.7399 Q1507.74 40.2515 1513.7 40.2515 Q1516.65 40.2515 1519.26 40.6855 Q1521.86 41.1196 1524.06 41.9876 Z" fill="#000000" fill-rule="nonzero" fill-opacity="1" /><path clip-path="url(#clip060)" d="M1543.74 30.24 L1548.66 30.24 L1533.61 78.9377 L1528.69 78.9377 L1543.74 30.24 Z" fill="#000000" fill-rule="nonzero" fill-opacity="1" /><path clip-path="url(#clip060)" d="M1554.47 30.24 L1579.3 30.24 L1579.3 35.159 L1560.32 35.159 L1560.32 47.8904 L1577.45 47.8904 L1577.45 52.8093 L1560.32 52.8093 L1560.32 73.44 L1554.47 73.44 L1554.47 30.24 Z" fill="#000000" fill-rule="nonzero" fill-opacity="1" /><path clip-path="url(#clip060)" d="M1613.41 31.6578 L1613.41 37.358 Q1610.08 35.7666 1607.13 34.9853 Q1604.18 34.2041 1601.43 34.2041 Q1596.66 34.2041 1594.05 36.0559 Q1591.48 37.9078 1591.48 41.3221 Q1591.48 44.1867 1593.19 45.6624 Q1594.92 47.1091 1599.73 48.0061 L1603.26 48.7295 Q1609.8 49.9737 1612.89 53.1276 Q1616.02 56.2526 1616.02 61.5188 Q1616.02 67.7977 1611.79 71.0384 Q1607.6 74.2791 1599.47 74.2791 Q1596.4 74.2791 1592.93 73.5847 Q1589.48 72.8902 1585.78 71.5303 L1585.78 65.5118 Q1589.34 67.5083 1592.75 68.521 Q1596.17 69.5338 1599.47 69.5338 Q1604.47 69.5338 1607.19 67.5662 Q1609.91 65.5986 1609.91 61.9528 Q1609.91 58.7699 1607.94 56.976 Q1606 55.182 1601.55 54.285 L1597.99 53.5906 Q1591.45 52.2885 1588.53 49.5107 Q1585.61 46.733 1585.61 41.7851 Q1585.61 36.0559 1589.63 32.7573 Q1593.68 29.4588 1600.77 29.4588 Q1603.81 29.4588 1606.96 30.0085 Q1610.11 30.5583 1613.41 31.6578 Z" fill="#000000" fill-rule="nonzero" fill-opacity="1" /><path clip-path="url(#clip060)" d="M1630.98 35.0432 L1630.98 68.6368 L1638.04 68.6368 Q1646.98 68.6368 1651.11 64.5859 Q1655.28 60.535 1655.28 51.7966 Q1655.28 43.1161 1651.11 39.0941 Q1646.98 35.0432 1638.04 35.0432 L1630.98 35.0432 M1625.13 30.24 L1637.14 30.24 Q1649.7 30.24 1655.57 35.4772 Q1661.44 40.6855 1661.44 51.7966 Q1661.44 62.9655 1655.54 68.2028 Q1649.64 73.44 1637.14 73.44 L1625.13 73.44 L1625.13 30.24 Z" fill="#000000" fill-rule="nonzero" fill-opacity="1" /><path clip-path="url(#clip060)" d="M998.47 106.788 L998.47 111.822 Q996.214 110.665 993.783 110.086 Q991.352 109.508 988.748 109.508 Q984.784 109.508 982.788 110.723 Q980.82 111.938 980.82 114.369 Q980.82 116.22 982.238 117.291 Q983.656 118.333 987.938 119.288 L989.761 119.693 Q995.432 120.908 997.805 123.136 Q1000.21 125.335 1000.21 129.299 Q1000.21 133.813 996.619 136.446 Q993.06 139.079 986.81 139.079 Q984.205 139.079 981.37 138.558 Q978.563 138.066 975.438 137.054 L975.438 131.556 Q978.39 133.09 981.254 133.871 Q984.119 134.623 986.925 134.623 Q990.687 134.623 992.712 133.35 Q994.738 132.048 994.738 129.704 Q994.738 127.534 993.262 126.377 Q991.815 125.219 986.868 124.149 L985.016 123.715 Q980.068 122.673 977.869 120.532 Q975.67 118.362 975.67 114.6 Q975.67 110.028 978.91 107.54 Q982.151 105.052 988.112 105.052 Q991.063 105.052 993.667 105.486 Q996.271 105.92 998.47 106.788 Z" fill="#000000" fill-rule="nonzero" fill-opacity="1" /><path clip-path="url(#clip060)" d="M1013.83 133.379 L1013.83 150.566 L1008.48 150.566 L1008.48 105.833 L1013.83 105.833 L1013.83 110.752 Q1015.51 107.858 1018.06 106.469 Q1020.63 105.052 1024.19 105.052 Q1030.1 105.052 1033.77 109.739 Q1037.47 114.426 1037.47 122.065 Q1037.47 129.704 1033.77 134.392 Q1030.1 139.079 1024.19 139.079 Q1020.63 139.079 1018.06 137.69 Q1015.51 136.272 1013.83 133.379 M1031.95 122.065 Q1031.95 116.192 1029.52 112.864 Q1027.12 109.508 1022.89 109.508 Q1018.67 109.508 1016.24 112.864 Q1013.83 116.192 1013.83 122.065 Q1013.83 127.939 1016.24 131.296 Q1018.67 134.623 1022.89 134.623 Q1027.12 134.623 1029.52 131.296 Q1031.95 127.939 1031.95 122.065 Z" fill="#000000" fill-rule="nonzero" fill-opacity="1" /><path clip-path="url(#clip060)" d="M1073.24 118.68 L1073.24 138.24 L1067.91 138.24 L1067.91 118.854 Q1067.91 114.253 1066.12 111.967 Q1064.33 109.681 1060.74 109.681 Q1056.43 109.681 1053.94 112.43 Q1051.45 115.179 1051.45 119.924 L1051.45 138.24 L1046.1 138.24 L1046.1 93.2171 L1051.45 93.2171 L1051.45 110.867 Q1053.36 107.945 1055.94 106.498 Q1058.54 105.052 1061.92 105.052 Q1067.51 105.052 1070.37 108.524 Q1073.24 111.967 1073.24 118.68 Z" fill="#000000" fill-rule="nonzero" fill-opacity="1" /><path clip-path="url(#clip060)" d="M1111.58 120.705 L1111.58 123.31 L1087.1 123.31 Q1087.45 128.807 1090.4 131.701 Q1093.38 134.565 1098.67 134.565 Q1101.74 134.565 1104.6 133.813 Q1107.5 133.061 1110.33 131.556 L1110.33 136.591 Q1107.47 137.806 1104.46 138.443 Q1101.45 139.079 1098.35 139.079 Q1090.6 139.079 1086.06 134.565 Q1081.54 130.051 1081.54 122.355 Q1081.54 114.398 1085.83 109.739 Q1090.14 105.052 1097.43 105.052 Q1103.97 105.052 1107.76 109.276 Q1111.58 113.472 1111.58 120.705 M1106.25 119.143 Q1106.2 114.774 1103.79 112.17 Q1101.42 109.565 1097.49 109.565 Q1093.03 109.565 1090.34 112.083 Q1087.68 114.6 1087.27 119.172 L1106.25 119.143 Z" fill="#000000" fill-rule="nonzero" fill-opacity="1" /><path clip-path="url(#clip060)" d="M1139.09 110.81 Q1138.2 110.289 1137.13 110.057 Q1136.09 109.797 1134.81 109.797 Q1130.3 109.797 1127.87 112.748 Q1125.47 115.671 1125.47 121.168 L1125.47 138.24 L1120.11 138.24 L1120.11 105.833 L1125.47 105.833 L1125.47 110.867 Q1127.14 107.916 1129.84 106.498 Q1132.53 105.052 1136.37 105.052 Q1136.92 105.052 1137.59 105.138 Q1138.26 105.196 1139.07 105.341 L1139.09 110.81 Z" fill="#000000" fill-rule="nonzero" fill-opacity="1" /><path clip-path="url(#clip060)" d="M1144.68 105.833 L1150 105.833 L1150 138.24 L1144.68 138.24 L1144.68 105.833 M1144.68 93.2171 L1150 93.2171 L1150 99.959 L1144.68 99.959 L1144.68 93.2171 Z" fill="#000000" fill-rule="nonzero" fill-opacity="1" /><path clip-path="url(#clip060)" d="M1184.46 107.077 L1184.46 112.054 Q1182.21 110.81 1179.92 110.202 Q1177.67 109.565 1175.35 109.565 Q1170.17 109.565 1167.31 112.864 Q1164.44 116.134 1164.44 122.065 Q1164.44 127.997 1167.31 131.296 Q1170.17 134.565 1175.35 134.565 Q1177.67 134.565 1179.92 133.958 Q1182.21 133.321 1184.46 132.077 L1184.46 136.996 Q1182.24 138.037 1179.84 138.558 Q1177.46 139.079 1174.77 139.079 Q1167.45 139.079 1163.14 134.478 Q1158.83 129.878 1158.83 122.065 Q1158.83 114.137 1163.17 109.594 Q1167.54 105.052 1175.12 105.052 Q1177.58 105.052 1179.92 105.572 Q1182.27 106.064 1184.46 107.077 Z" fill="#000000" fill-rule="nonzero" fill-opacity="1" /><path clip-path="url(#clip060)" d="M1208.45 121.95 Q1202 121.95 1199.51 123.425 Q1197.02 124.901 1197.02 128.46 Q1197.02 131.296 1198.87 132.974 Q1200.76 134.623 1203.97 134.623 Q1208.39 134.623 1211.06 131.498 Q1213.75 128.344 1213.75 123.136 L1213.75 121.95 L1208.45 121.95 M1219.07 119.751 L1219.07 138.24 L1213.75 138.24 L1213.75 133.321 Q1211.92 136.272 1209.2 137.69 Q1206.48 139.079 1202.55 139.079 Q1197.57 139.079 1194.62 136.301 Q1191.7 133.495 1191.7 128.807 Q1191.7 123.338 1195.34 120.561 Q1199.02 117.783 1206.28 117.783 L1213.75 117.783 L1213.75 117.262 Q1213.75 113.587 1211.32 111.591 Q1208.91 109.565 1204.55 109.565 Q1201.77 109.565 1199.13 110.231 Q1196.5 110.896 1194.07 112.227 L1194.07 107.308 Q1196.99 106.18 1199.74 105.63 Q1202.49 105.052 1205.1 105.052 Q1212.13 105.052 1215.6 108.697 Q1219.07 112.343 1219.07 119.751 Z" fill="#000000" fill-rule="nonzero" fill-opacity="1" /><path clip-path="url(#clip060)" d="M1230.04 93.2171 L1235.36 93.2171 L1235.36 138.24 L1230.04 138.24 L1230.04 93.2171 Z" fill="#000000" fill-rule="nonzero" fill-opacity="1" /><path clip-path="url(#clip060)" d="M1271.13 148.078 L1271.13 152.216 L1240.34 152.216 L1240.34 148.078 L1271.13 148.078 Z" fill="#000000" fill-rule="nonzero" fill-opacity="1" /><path clip-path="url(#clip060)" d="M1303.07 118.68 L1303.07 138.24 L1297.75 138.24 L1297.75 118.854 Q1297.75 114.253 1295.95 111.967 Q1294.16 109.681 1290.57 109.681 Q1286.26 109.681 1283.77 112.43 Q1281.28 115.179 1281.28 119.924 L1281.28 138.24 L1275.93 138.24 L1275.93 93.2171 L1281.28 93.2171 L1281.28 110.867 Q1283.19 107.945 1285.77 106.498 Q1288.37 105.052 1291.76 105.052 Q1297.34 105.052 1300.2 108.524 Q1303.07 111.967 1303.07 118.68 Z" fill="#000000" fill-rule="nonzero" fill-opacity="1" /><path clip-path="url(#clip060)" d="M1328.42 121.95 Q1321.96 121.95 1319.48 123.425 Q1316.99 124.901 1316.99 128.46 Q1316.99 131.296 1318.84 132.974 Q1320.72 134.623 1323.93 134.623 Q1328.36 134.623 1331.02 131.498 Q1333.71 128.344 1333.71 123.136 L1333.71 121.95 L1328.42 121.95 M1339.04 119.751 L1339.04 138.24 L1333.71 138.24 L1333.71 133.321 Q1331.89 136.272 1329.17 137.69 Q1326.45 139.079 1322.51 139.079 Q1317.54 139.079 1314.59 136.301 Q1311.66 133.495 1311.66 128.807 Q1311.66 123.338 1315.31 120.561 Q1318.98 117.783 1326.25 117.783 L1333.71 117.783 L1333.71 117.262 Q1333.71 113.587 1331.28 111.591 Q1328.88 109.565 1324.51 109.565 Q1321.73 109.565 1319.1 110.231 Q1316.47 110.896 1314.04 112.227 L1314.04 107.308 Q1316.96 106.18 1319.71 105.63 Q1322.46 105.052 1325.06 105.052 Q1332.09 105.052 1335.56 108.697 Q1339.04 112.343 1339.04 119.751 Z" fill="#000000" fill-rule="nonzero" fill-opacity="1" /><path clip-path="url(#clip060)" d="M1368.78 110.81 Q1367.88 110.289 1366.81 110.057 Q1365.77 109.797 1364.5 109.797 Q1359.98 109.797 1357.55 112.748 Q1355.15 115.671 1355.15 121.168 L1355.15 138.24 L1349.8 138.24 L1349.8 105.833 L1355.15 105.833 L1355.15 110.867 Q1356.83 107.916 1359.52 106.498 Q1362.21 105.052 1366.06 105.052 Q1366.61 105.052 1367.28 105.138 Q1367.94 105.196 1368.75 105.341 L1368.78 110.81 Z" fill="#000000" fill-rule="nonzero" fill-opacity="1" /><path clip-path="url(#clip060)" d="M1398.56 112.054 Q1400.55 108.466 1403.33 106.759 Q1406.11 105.052 1409.87 105.052 Q1414.93 105.052 1417.68 108.611 Q1420.43 112.141 1420.43 118.68 L1420.43 138.24 L1415.08 138.24 L1415.08 118.854 Q1415.08 114.195 1413.43 111.938 Q1411.78 109.681 1408.39 109.681 Q1404.26 109.681 1401.85 112.43 Q1399.45 115.179 1399.45 119.924 L1399.45 138.24 L1394.1 138.24 L1394.1 118.854 Q1394.1 114.166 1392.45 111.938 Q1390.8 109.681 1387.36 109.681 Q1383.28 109.681 1380.88 112.459 Q1378.47 115.208 1378.47 119.924 L1378.47 138.24 L1373.12 138.24 L1373.12 105.833 L1378.47 105.833 L1378.47 110.867 Q1380.3 107.887 1382.84 106.469 Q1385.39 105.052 1388.89 105.052 Q1392.42 105.052 1394.88 106.845 Q1397.37 108.639 1398.56 112.054 Z" fill="#000000" fill-rule="nonzero" fill-opacity="1" /><path clip-path="url(#clip060)" d="M1443.61 109.565 Q1439.32 109.565 1436.84 112.922 Q1434.35 116.249 1434.35 122.065 Q1434.35 127.881 1436.81 131.238 Q1439.3 134.565 1443.61 134.565 Q1447.86 134.565 1450.35 131.209 Q1452.84 127.852 1452.84 122.065 Q1452.84 116.307 1450.35 112.951 Q1447.86 109.565 1443.61 109.565 M1443.61 105.052 Q1450.55 105.052 1454.52 109.565 Q1458.48 114.079 1458.48 122.065 Q1458.48 130.022 1454.52 134.565 Q1450.55 139.079 1443.61 139.079 Q1436.63 139.079 1432.67 134.565 Q1428.73 130.022 1428.73 122.065 Q1428.73 114.079 1432.67 109.565 Q1436.63 105.052 1443.61 105.052 Z" fill="#000000" fill-rule="nonzero" fill-opacity="1" /><path clip-path="url(#clip060)" d="M1494.24 118.68 L1494.24 138.24 L1488.92 138.24 L1488.92 118.854 Q1488.92 114.253 1487.13 111.967 Q1485.33 109.681 1481.74 109.681 Q1477.43 109.681 1474.94 112.43 Q1472.46 115.179 1472.46 119.924 L1472.46 138.24 L1467.1 138.24 L1467.1 105.833 L1472.46 105.833 L1472.46 110.867 Q1474.36 107.945 1476.94 106.498 Q1479.54 105.052 1482.93 105.052 Q1488.51 105.052 1491.38 108.524 Q1494.24 111.967 1494.24 118.68 Z" fill="#000000" fill-rule="nonzero" fill-opacity="1" /><path clip-path="url(#clip060)" d="M1504.86 105.833 L1510.19 105.833 L1510.19 138.24 L1504.86 138.24 L1504.86 105.833 M1504.86 93.2171 L1510.19 93.2171 L1510.19 99.959 L1504.86 99.959 L1504.86 93.2171 Z" fill="#000000" fill-rule="nonzero" fill-opacity="1" /><path clip-path="url(#clip060)" d="M1544.65 107.077 L1544.65 112.054 Q1542.39 110.81 1540.11 110.202 Q1537.85 109.565 1535.53 109.565 Q1530.35 109.565 1527.49 112.864 Q1524.63 116.134 1524.63 122.065 Q1524.63 127.997 1527.49 131.296 Q1530.35 134.565 1535.53 134.565 Q1537.85 134.565 1540.11 133.958 Q1542.39 133.321 1544.65 132.077 L1544.65 136.996 Q1542.42 138.037 1540.02 138.558 Q1537.65 139.079 1534.95 139.079 Q1527.63 139.079 1523.32 134.478 Q1519.01 129.878 1519.01 122.065 Q1519.01 114.137 1523.35 109.594 Q1527.72 105.052 1535.3 105.052 Q1537.76 105.052 1540.11 105.572 Q1542.45 106.064 1544.65 107.077 Z" fill="#000000" fill-rule="nonzero" fill-opacity="1" /><path clip-path="url(#clip060)" d="M1574.57 106.788 L1574.57 111.822 Q1572.31 110.665 1569.88 110.086 Q1567.45 109.508 1564.84 109.508 Q1560.88 109.508 1558.88 110.723 Q1556.92 111.938 1556.92 114.369 Q1556.92 116.22 1558.33 117.291 Q1559.75 118.333 1564.03 119.288 L1565.86 119.693 Q1571.53 120.908 1573.9 123.136 Q1576.3 125.335 1576.3 129.299 Q1576.3 133.813 1572.72 136.446 Q1569.16 139.079 1562.91 139.079 Q1560.3 139.079 1557.47 138.558 Q1554.66 138.066 1551.53 137.054 L1551.53 131.556 Q1554.49 133.09 1557.35 133.871 Q1560.22 134.623 1563.02 134.623 Q1566.78 134.623 1568.81 133.35 Q1570.83 132.048 1570.83 129.704 Q1570.83 127.534 1569.36 126.377 Q1567.91 125.219 1562.96 124.149 L1561.11 123.715 Q1556.16 122.673 1553.97 120.532 Q1551.77 118.362 1551.77 114.6 Q1551.77 110.028 1555.01 107.54 Q1558.25 105.052 1564.21 105.052 Q1567.16 105.052 1569.76 105.486 Q1572.37 105.92 1574.57 106.788 Z" fill="#000000" fill-rule="nonzero" fill-opacity="1" /><path clip-path="url(#clip060)" d="M758.281 161.258 L758.281 166.958 Q754.953 165.367 752.002 164.585 Q749.051 163.804 746.302 163.804 Q741.527 163.804 738.923 165.656 Q736.348 167.508 736.348 170.922 Q736.348 173.787 738.055 175.262 Q739.791 176.709 744.595 177.606 L748.125 178.329 Q754.664 179.574 757.76 182.728 Q760.885 185.853 760.885 191.119 Q760.885 197.398 756.66 200.638 Q752.465 203.879 744.334 203.879 Q741.267 203.879 737.795 203.185 Q734.352 202.49 730.648 201.13 L730.648 195.112 Q734.207 197.108 737.621 198.121 Q741.036 199.134 744.334 199.134 Q749.34 199.134 752.06 197.166 Q754.78 195.199 754.78 191.553 Q754.78 188.37 752.812 186.576 Q750.873 184.782 746.417 183.885 L742.858 183.191 Q736.319 181.888 733.397 179.111 Q730.474 176.333 730.474 171.385 Q730.474 165.656 734.496 162.357 Q738.547 159.059 745.636 159.059 Q748.674 159.059 751.828 159.609 Q754.982 160.158 758.281 161.258 Z" fill="#000000" fill-rule="nonzero" fill-opacity="1" /><path clip-path="url(#clip060)" d="M783.252 206.049 Q780.995 211.836 778.854 213.601 Q776.712 215.366 773.124 215.366 L768.871 215.366 L768.871 210.91 L771.996 210.91 Q774.195 210.91 775.41 209.869 Q776.626 208.827 778.101 204.95 L779.056 202.519 L765.949 170.633 L771.591 170.633 L781.718 195.98 L791.845 170.633 L797.488 170.633 L783.252 206.049 Z" fill="#000000" fill-rule="nonzero" fill-opacity="1" /><path clip-path="url(#clip060)" d="M830.069 176.854 Q832.065 173.266 834.843 171.559 Q837.621 169.852 841.382 169.852 Q846.446 169.852 849.195 173.411 Q851.943 176.941 851.943 183.48 L851.943 203.04 L846.59 203.04 L846.59 183.654 Q846.59 178.995 844.941 176.738 Q843.292 174.481 839.907 174.481 Q835.769 174.481 833.367 177.23 Q830.966 179.979 830.966 184.724 L830.966 203.04 L825.613 203.04 L825.613 183.654 Q825.613 178.966 823.963 176.738 Q822.314 174.481 818.871 174.481 Q814.791 174.481 812.389 177.259 Q809.988 180.008 809.988 184.724 L809.988 203.04 L804.635 203.04 L804.635 170.633 L809.988 170.633 L809.988 175.667 Q811.811 172.687 814.357 171.269 Q816.903 169.852 820.404 169.852 Q823.934 169.852 826.394 171.645 Q828.882 173.439 830.069 176.854 Z" fill="#000000" fill-rule="nonzero" fill-opacity="1" /><path clip-path="url(#clip060)" d="M885.826 186.865 Q885.826 180.992 883.396 177.664 Q880.994 174.308 876.77 174.308 Q872.545 174.308 870.115 177.664 Q867.713 180.992 867.713 186.865 Q867.713 192.739 870.115 196.096 Q872.545 199.423 876.77 199.423 Q880.994 199.423 883.396 196.096 Q885.826 192.739 885.826 186.865 M867.713 175.552 Q869.391 172.658 871.938 171.269 Q874.513 169.852 878.072 169.852 Q883.975 169.852 887.649 174.539 Q891.353 179.226 891.353 186.865 Q891.353 194.504 887.649 199.192 Q883.975 203.879 878.072 203.879 Q874.513 203.879 871.938 202.49 Q869.391 201.072 867.713 198.179 L867.713 203.04 L862.36 203.04 L862.36 158.017 L867.713 158.017 L867.713 175.552 Z" fill="#000000" fill-rule="nonzero" fill-opacity="1" /><path clip-path="url(#clip060)" d="M912.736 174.365 Q908.454 174.365 905.965 177.722 Q903.477 181.049 903.477 186.865 Q903.477 192.681 905.936 196.038 Q908.425 199.365 912.736 199.365 Q916.989 199.365 919.478 196.009 Q921.966 192.652 921.966 186.865 Q921.966 181.107 919.478 177.751 Q916.989 174.365 912.736 174.365 M912.736 169.852 Q919.68 169.852 923.644 174.365 Q927.609 178.879 927.609 186.865 Q927.609 194.822 923.644 199.365 Q919.68 203.879 912.736 203.879 Q905.763 203.879 901.799 199.365 Q897.863 194.822 897.863 186.865 Q897.863 178.879 901.799 174.365 Q905.763 169.852 912.736 169.852 Z" fill="#000000" fill-rule="nonzero" fill-opacity="1" /><path clip-path="url(#clip060)" d="M936.434 158.017 L941.758 158.017 L941.758 203.04 L936.434 203.04 L936.434 158.017 Z" fill="#000000" fill-rule="nonzero" fill-opacity="1" /><path clip-path="url(#clip060)" d="M952.898 170.633 L958.222 170.633 L958.222 203.04 L952.898 203.04 L952.898 170.633 M952.898 158.017 L958.222 158.017 L958.222 164.759 L952.898 164.759 L952.898 158.017 Z" fill="#000000" fill-rule="nonzero" fill-opacity="1" /><path clip-path="url(#clip060)" d="M992.683 171.877 L992.683 176.854 Q990.427 175.61 988.141 175.002 Q985.884 174.365 983.569 174.365 Q978.39 174.365 975.525 177.664 Q972.66 180.934 972.66 186.865 Q972.66 192.797 975.525 196.096 Q978.39 199.365 983.569 199.365 Q985.884 199.365 988.141 198.758 Q990.427 198.121 992.683 196.877 L992.683 201.796 Q990.455 202.837 988.054 203.358 Q985.681 203.879 982.99 203.879 Q975.67 203.879 971.358 199.278 Q967.047 194.678 967.047 186.865 Q967.047 178.937 971.387 174.394 Q975.756 169.852 983.337 169.852 Q985.797 169.852 988.141 170.372 Q990.484 170.864 992.683 171.877 Z" fill="#000000" fill-rule="nonzero" fill-opacity="1" /><path clip-path="url(#clip060)" d="M1044.04 186.865 Q1044.04 180.992 1041.61 177.664 Q1039.21 174.308 1034.99 174.308 Q1030.76 174.308 1028.33 177.664 Q1025.93 180.992 1025.93 186.865 Q1025.93 192.739 1028.33 196.096 Q1030.76 199.423 1034.99 199.423 Q1039.21 199.423 1041.61 196.096 Q1044.04 192.739 1044.04 186.865 M1025.93 175.552 Q1027.61 172.658 1030.15 171.269 Q1032.73 169.852 1036.29 169.852 Q1042.19 169.852 1045.87 174.539 Q1049.57 179.226 1049.57 186.865 Q1049.57 194.504 1045.87 199.192 Q1042.19 203.879 1036.29 203.879 Q1032.73 203.879 1030.15 202.49 Q1027.61 201.072 1025.93 198.179 L1025.93 203.04 L1020.58 203.04 L1020.58 158.017 L1025.93 158.017 L1025.93 175.552 Z" fill="#000000" fill-rule="nonzero" fill-opacity="1" /><path clip-path="url(#clip060)" d="M1086.11 185.505 L1086.11 188.11 L1061.64 188.11 Q1061.98 193.607 1064.93 196.501 Q1067.91 199.365 1073.21 199.365 Q1076.28 199.365 1079.14 198.613 Q1082.03 197.861 1084.87 196.356 L1084.87 201.391 Q1082.01 202.606 1079 203.243 Q1075.99 203.879 1072.89 203.879 Q1065.14 203.879 1060.59 199.365 Q1056.08 194.851 1056.08 187.155 Q1056.08 179.198 1060.36 174.539 Q1064.67 169.852 1071.97 169.852 Q1078.5 169.852 1082.3 174.076 Q1086.11 178.272 1086.11 185.505 M1080.79 183.943 Q1080.73 179.574 1078.33 176.97 Q1075.96 174.365 1072.02 174.365 Q1067.57 174.365 1064.88 176.883 Q1062.21 179.4 1061.81 183.972 L1080.79 183.943 Z" fill="#000000" fill-rule="nonzero" fill-opacity="1" /><path clip-path="url(#clip060)" d="M1121.79 183.48 L1121.79 203.04 L1116.47 203.04 L1116.47 183.654 Q1116.47 179.053 1114.67 176.767 Q1112.88 174.481 1109.29 174.481 Q1104.98 174.481 1102.49 177.23 Q1100 179.979 1100 184.724 L1100 203.04 L1094.65 203.04 L1094.65 170.633 L1100 170.633 L1100 175.667 Q1101.91 172.745 1104.49 171.298 Q1107.09 169.852 1110.48 169.852 Q1116.06 169.852 1118.93 173.324 Q1121.79 176.767 1121.79 183.48 Z" fill="#000000" fill-rule="nonzero" fill-opacity="1" /><path clip-path="url(#clip060)" d="M1155.73 171.877 L1155.73 176.854 Q1153.48 175.61 1151.19 175.002 Q1148.93 174.365 1146.62 174.365 Q1141.44 174.365 1138.57 177.664 Q1135.71 180.934 1135.71 186.865 Q1135.71 192.797 1138.57 196.096 Q1141.44 199.365 1146.62 199.365 Q1148.93 199.365 1151.19 198.758 Q1153.48 198.121 1155.73 196.877 L1155.73 201.796 Q1153.5 202.837 1151.1 203.358 Q1148.73 203.879 1146.04 203.879 Q1138.72 203.879 1134.41 199.278 Q1130.1 194.678 1130.1 186.865 Q1130.1 178.937 1134.44 174.394 Q1138.81 169.852 1146.39 169.852 Q1148.85 169.852 1151.19 170.372 Q1153.53 170.864 1155.73 171.877 Z" fill="#000000" fill-rule="nonzero" fill-opacity="1" /><path clip-path="url(#clip060)" d="M1191.93 183.48 L1191.93 203.04 L1186.61 203.04 L1186.61 183.654 Q1186.61 179.053 1184.81 176.767 Q1183.02 174.481 1179.43 174.481 Q1175.12 174.481 1172.63 177.23 Q1170.14 179.979 1170.14 184.724 L1170.14 203.04 L1164.79 203.04 L1164.79 158.017 L1170.14 158.017 L1170.14 175.667 Q1172.05 172.745 1174.63 171.298 Q1177.23 169.852 1180.62 169.852 Q1186.2 169.852 1189.07 173.324 Q1191.93 176.767 1191.93 183.48 Z" fill="#000000" fill-rule="nonzero" fill-opacity="1" /><path clip-path="url(#clip060)" d="M1227.78 176.854 Q1229.78 173.266 1232.55 171.559 Q1235.33 169.852 1239.09 169.852 Q1244.16 169.852 1246.91 173.411 Q1249.66 176.941 1249.66 183.48 L1249.66 203.04 L1244.3 203.04 L1244.3 183.654 Q1244.3 178.995 1242.65 176.738 Q1241 174.481 1237.62 174.481 Q1233.48 174.481 1231.08 177.23 Q1228.68 179.979 1228.68 184.724 L1228.68 203.04 L1223.32 203.04 L1223.32 183.654 Q1223.32 178.966 1221.68 176.738 Q1220.03 174.481 1216.58 174.481 Q1212.5 174.481 1210.1 177.259 Q1207.7 180.008 1207.7 184.724 L1207.7 203.04 L1202.35 203.04 L1202.35 170.633 L1207.7 170.633 L1207.7 175.667 Q1209.52 172.687 1212.07 171.269 Q1214.62 169.852 1218.12 169.852 Q1221.65 169.852 1224.11 171.645 Q1226.59 173.439 1227.78 176.854 Z" fill="#000000" fill-rule="nonzero" fill-opacity="1" /><path clip-path="url(#clip060)" d="M1275 186.75 Q1268.55 186.75 1266.06 188.225 Q1263.57 189.701 1263.57 193.26 Q1263.57 196.096 1265.43 197.774 Q1267.31 199.423 1270.52 199.423 Q1274.94 199.423 1277.61 196.298 Q1280.3 193.144 1280.3 187.936 L1280.3 186.75 L1275 186.75 M1285.62 184.551 L1285.62 203.04 L1280.3 203.04 L1280.3 198.121 Q1278.47 201.072 1275.75 202.49 Q1273.03 203.879 1269.1 203.879 Q1264.12 203.879 1261.17 201.101 Q1258.25 198.295 1258.25 193.607 Q1258.25 188.138 1261.89 185.361 Q1265.57 182.583 1272.83 182.583 L1280.3 182.583 L1280.3 182.062 Q1280.3 178.387 1277.87 176.391 Q1275.47 174.365 1271.1 174.365 Q1268.32 174.365 1265.69 175.031 Q1263.05 175.696 1260.62 177.027 L1260.62 172.108 Q1263.54 170.98 1266.29 170.43 Q1269.04 169.852 1271.65 169.852 Q1278.68 169.852 1282.15 173.497 Q1285.62 177.143 1285.62 184.551 Z" fill="#000000" fill-rule="nonzero" fill-opacity="1" /><path clip-path="url(#clip060)" d="M1315.37 175.61 Q1314.47 175.089 1313.4 174.857 Q1312.36 174.597 1311.08 174.597 Q1306.57 174.597 1304.14 177.548 Q1301.74 180.471 1301.74 185.968 L1301.74 203.04 L1296.39 203.04 L1296.39 170.633 L1301.74 170.633 L1301.74 175.667 Q1303.42 172.716 1306.11 171.298 Q1308.8 169.852 1312.65 169.852 Q1313.2 169.852 1313.86 169.938 Q1314.53 169.996 1315.34 170.141 L1315.37 175.61 Z" fill="#000000" fill-rule="nonzero" fill-opacity="1" /><path clip-path="url(#clip060)" d="M1320.75 158.017 L1326.1 158.017 L1326.1 184.608 L1341.99 170.633 L1348.79 170.633 L1331.6 185.795 L1349.51 203.04 L1342.57 203.04 L1326.1 187.213 L1326.1 203.04 L1320.75 203.04 L1320.75 158.017 Z" fill="#000000" fill-rule="nonzero" fill-opacity="1" /><path clip-path="url(#clip060)" d="M1356.63 195.691 L1362.73 195.691 L1362.73 200.667 L1357.99 209.927 L1354.26 209.927 L1356.63 200.667 L1356.63 195.691 Z" fill="#000000" fill-rule="nonzero" fill-opacity="1" /><path clip-path="url(#clip060)" d="M1413.6 171.588 L1413.6 176.622 Q1411.34 175.465 1408.91 174.886 Q1406.48 174.308 1403.88 174.308 Q1399.92 174.308 1397.92 175.523 Q1395.95 176.738 1395.95 179.169 Q1395.95 181.02 1397.37 182.091 Q1398.79 183.133 1403.07 184.088 L1404.89 184.493 Q1410.56 185.708 1412.94 187.936 Q1415.34 190.135 1415.34 194.099 Q1415.34 198.613 1411.75 201.246 Q1408.19 203.879 1401.94 203.879 Q1399.34 203.879 1396.5 203.358 Q1393.69 202.866 1390.57 201.854 L1390.57 196.356 Q1393.52 197.89 1396.39 198.671 Q1399.25 199.423 1402.06 199.423 Q1405.82 199.423 1407.84 198.15 Q1409.87 196.848 1409.87 194.504 Q1409.87 192.334 1408.39 191.177 Q1406.95 190.019 1402 188.949 L1400.15 188.515 Q1395.2 187.473 1393 185.332 Q1390.8 183.162 1390.8 179.4 Q1390.8 174.828 1394.04 172.34 Q1397.28 169.852 1403.24 169.852 Q1406.19 169.852 1408.8 170.286 Q1411.4 170.72 1413.6 171.588 Z" fill="#000000" fill-rule="nonzero" fill-opacity="1" /><path clip-path="url(#clip060)" d="M1423.82 170.633 L1429.14 170.633 L1429.14 203.04 L1423.82 203.04 L1423.82 170.633 M1423.82 158.017 L1429.14 158.017 L1429.14 164.759 L1423.82 164.759 L1423.82 158.017 Z" fill="#000000" fill-rule="nonzero" fill-opacity="1" /><path clip-path="url(#clip060)" d="M1465.51 176.854 Q1467.51 173.266 1470.29 171.559 Q1473.06 169.852 1476.82 169.852 Q1481.89 169.852 1484.64 173.411 Q1487.39 176.941 1487.39 183.48 L1487.39 203.04 L1482.03 203.04 L1482.03 183.654 Q1482.03 178.995 1480.38 176.738 Q1478.73 174.481 1475.35 174.481 Q1471.21 174.481 1468.81 177.23 Q1466.41 179.979 1466.41 184.724 L1466.41 203.04 L1461.05 203.04 L1461.05 183.654 Q1461.05 178.966 1459.41 176.738 Q1457.76 174.481 1454.31 174.481 Q1450.23 174.481 1447.83 177.259 Q1445.43 180.008 1445.43 184.724 L1445.43 203.04 L1440.08 203.04 L1440.08 170.633 L1445.43 170.633 L1445.43 175.667 Q1447.25 172.687 1449.8 171.269 Q1452.35 169.852 1455.85 169.852 Q1459.38 169.852 1461.84 171.645 Q1464.32 173.439 1465.51 176.854 Z" fill="#000000" fill-rule="nonzero" fill-opacity="1" /><path clip-path="url(#clip060)" d="M1503.16 198.179 L1503.16 215.366 L1497.8 215.366 L1497.8 170.633 L1503.16 170.633 L1503.16 175.552 Q1504.83 172.658 1507.38 171.269 Q1509.95 169.852 1513.51 169.852 Q1519.42 169.852 1523.09 174.539 Q1526.8 179.226 1526.8 186.865 Q1526.8 194.504 1523.09 199.192 Q1519.42 203.879 1513.51 203.879 Q1509.95 203.879 1507.38 202.49 Q1504.83 201.072 1503.16 198.179 M1521.27 186.865 Q1521.27 180.992 1518.84 177.664 Q1516.44 174.308 1512.21 174.308 Q1507.99 174.308 1505.56 177.664 Q1503.16 180.992 1503.16 186.865 Q1503.16 192.739 1505.56 196.096 Q1507.99 199.423 1512.21 199.423 Q1516.44 199.423 1518.84 196.096 Q1521.27 192.739 1521.27 186.865 Z" fill="#000000" fill-rule="nonzero" fill-opacity="1" /><path clip-path="url(#clip060)" d="M1535.62 158.017 L1540.94 158.017 L1540.94 203.04 L1535.62 203.04 L1535.62 158.017 Z" fill="#000000" fill-rule="nonzero" fill-opacity="1" /><path clip-path="url(#clip060)" d="M1552.08 170.633 L1557.41 170.633 L1557.41 203.04 L1552.08 203.04 L1552.08 170.633 M1552.08 158.017 L1557.41 158.017 L1557.41 164.759 L1552.08 164.759 L1552.08 158.017 Z" fill="#000000" fill-rule="nonzero" fill-opacity="1" /><path clip-path="url(#clip060)" d="M1584.95 158.017 L1584.95 162.444 L1579.86 162.444 Q1577 162.444 1575.87 163.602 Q1574.77 164.759 1574.77 167.768 L1574.77 170.633 L1583.54 170.633 L1583.54 174.77 L1574.77 174.77 L1574.77 203.04 L1569.42 203.04 L1569.42 174.77 L1564.32 174.77 L1564.32 170.633 L1569.42 170.633 L1569.42 168.376 Q1569.42 162.965 1571.93 160.506 Q1574.45 158.017 1579.92 158.017 L1584.95 158.017 Z" fill="#000000" fill-rule="nonzero" fill-opacity="1" /><path clip-path="url(#clip060)" d="M1601.85 206.049 Q1599.6 211.836 1597.45 213.601 Q1595.31 215.366 1591.73 215.366 L1587.47 215.366 L1587.47 210.91 L1590.6 210.91 Q1592.8 210.91 1594.01 209.869 Q1595.23 208.827 1596.7 204.95 L1597.66 202.519 L1584.55 170.633 L1590.19 170.633 L1600.32 195.98 L1610.45 170.633 L1616.09 170.633 L1601.85 206.049 Z" fill="#000000" fill-rule="nonzero" fill-opacity="1" /><path clip-path="url(#clip060)" d="M1642.97 176.13 L1680.06 176.13 L1680.06 180.992 L1642.97 180.992 L1642.97 176.13 M1642.97 187.936 L1680.06 187.936 L1680.06 192.855 L1642.97 192.855 L1642.97 187.936 Z" fill="#000000" fill-rule="nonzero" fill-opacity="1" /><path clip-path="url(#clip060)" d="M1727.17 158.017 L1727.17 162.444 L1722.08 162.444 Q1719.21 162.444 1718.08 163.602 Q1716.99 164.759 1716.99 167.768 L1716.99 170.633 L1725.75 170.633 L1725.75 174.77 L1716.99 174.77 L1716.99 203.04 L1711.63 203.04 L1711.63 174.77 L1706.54 174.77 L1706.54 170.633 L1711.63 170.633 L1711.63 168.376 Q1711.63 162.965 1714.15 160.506 Q1716.67 158.017 1722.14 158.017 L1727.17 158.017 Z" fill="#000000" fill-rule="nonzero" fill-opacity="1" /><path clip-path="url(#clip060)" d="M1746.35 186.75 Q1739.9 186.75 1737.41 188.225 Q1734.92 189.701 1734.92 193.26 Q1734.92 196.096 1736.78 197.774 Q1738.66 199.423 1741.87 199.423 Q1746.3 199.423 1748.96 196.298 Q1751.65 193.144 1751.65 187.936 L1751.65 186.75 L1746.35 186.75 M1756.97 184.551 L1756.97 203.04 L1751.65 203.04 L1751.65 198.121 Q1749.83 201.072 1747.11 202.49 Q1744.39 203.879 1740.45 203.879 Q1735.47 203.879 1732.52 201.101 Q1729.6 198.295 1729.6 193.607 Q1729.6 188.138 1733.25 185.361 Q1736.92 182.583 1744.18 182.583 L1751.65 182.583 L1751.65 182.062 Q1751.65 178.387 1749.22 176.391 Q1746.82 174.365 1742.45 174.365 Q1739.67 174.365 1737.04 175.031 Q1734.4 175.696 1731.97 177.027 L1731.97 172.108 Q1734.9 170.98 1737.64 170.43 Q1740.39 169.852 1743 169.852 Q1750.03 169.852 1753.5 173.497 Q1756.97 177.143 1756.97 184.551 Z" fill="#000000" fill-rule="nonzero" fill-opacity="1" /><path clip-path="url(#clip060)" d="M1767.94 158.017 L1773.26 158.017 L1773.26 203.04 L1767.94 203.04 L1767.94 158.017 Z" fill="#000000" fill-rule="nonzero" fill-opacity="1" /><path clip-path="url(#clip060)" d="M1805.06 171.588 L1805.06 176.622 Q1802.81 175.465 1800.38 174.886 Q1797.95 174.308 1795.34 174.308 Q1791.38 174.308 1789.38 175.523 Q1787.41 176.738 1787.41 179.169 Q1787.41 181.02 1788.83 182.091 Q1790.25 183.133 1794.53 184.088 L1796.35 184.493 Q1802.03 185.708 1804.4 187.936 Q1806.8 190.135 1806.8 194.099 Q1806.8 198.613 1803.21 201.246 Q1799.65 203.879 1793.4 203.879 Q1790.8 203.879 1787.96 203.358 Q1785.16 202.866 1782.03 201.854 L1782.03 196.356 Q1784.98 197.89 1787.85 198.671 Q1790.71 199.423 1793.52 199.423 Q1797.28 199.423 1799.31 198.15 Q1801.33 196.848 1801.33 194.504 Q1801.33 192.334 1799.86 191.177 Q1798.41 190.019 1793.46 188.949 L1791.61 188.515 Q1786.66 187.473 1784.46 185.332 Q1782.26 183.162 1782.26 179.4 Q1782.26 174.828 1785.5 172.34 Q1788.74 169.852 1794.7 169.852 Q1797.66 169.852 1800.26 170.286 Q1802.86 170.72 1805.06 171.588 Z" fill="#000000" fill-rule="nonzero" fill-opacity="1" /><path clip-path="url(#clip060)" d="M1843 185.505 L1843 188.11 L1818.52 188.11 Q1818.87 193.607 1821.82 196.501 Q1824.8 199.365 1830.09 199.365 Q1833.16 199.365 1836.02 198.613 Q1838.92 197.861 1841.75 196.356 L1841.75 201.391 Q1838.89 202.606 1835.88 203.243 Q1832.87 203.879 1829.77 203.879 Q1822.02 203.879 1817.48 199.365 Q1812.96 194.851 1812.96 187.155 Q1812.96 179.198 1817.25 174.539 Q1821.56 169.852 1828.85 169.852 Q1835.39 169.852 1839.18 174.076 Q1843 178.272 1843 185.505 M1837.67 183.943 Q1837.62 179.574 1835.21 176.97 Q1832.84 174.365 1828.91 174.365 Q1824.45 174.365 1821.76 176.883 Q1819.1 179.4 1818.69 183.972 L1837.67 183.943 Z" fill="#000000" fill-rule="nonzero" fill-opacity="1" /><polyline clip-path="url(#clip062)" style="stroke:#009af9; stroke-linecap:round; stroke-linejoin:round; stroke-width:4; stroke-opacity:1; fill:none" points="281.056,1388.35 381.624,1345.45 482.192,1293.16 582.76,1230.8 683.328,1177.08 783.896,1125.01 884.464,1058.95 985.032,1002.16 1085.6,938.977 1186.17,891.133 1286.74,822.039 1387.3,761.601 1487.87,703.044 1588.44,639.149 1689.01,574.331 1789.58,502.524 1890.14,446.843 1990.71,378.631 2091.28,308.129 2191.85,227.42 2292.42,241.024 "/>
<circle clip-path="url(#clip062)" cx="281.056" cy="1388.35" r="14.4" fill="#009af9" fill-rule="evenodd" fill-opacity="1" stroke="#000000" stroke-opacity="1" stroke-width="3.2"/>
<circle clip-path="url(#clip062)" cx="381.624" cy="1345.45" r="14.4" fill="#009af9" fill-rule="evenodd" fill-opacity="1" stroke="#000000" stroke-opacity="1" stroke-width="3.2"/>
<circle clip-path="url(#clip062)" cx="482.192" cy="1293.16" r="14.4" fill="#009af9" fill-rule="evenodd" fill-opacity="1" stroke="#000000" stroke-opacity="1" stroke-width="3.2"/>
<circle clip-path="url(#clip062)" cx="582.76" cy="1230.8" r="14.4" fill="#009af9" fill-rule="evenodd" fill-opacity="1" stroke="#000000" stroke-opacity="1" stroke-width="3.2"/>
<circle clip-path="url(#clip062)" cx="683.328" cy="1177.08" r="14.4" fill="#009af9" fill-rule="evenodd" fill-opacity="1" stroke="#000000" stroke-opacity="1" stroke-width="3.2"/>
<circle clip-path="url(#clip062)" cx="783.896" cy="1125.01" r="14.4" fill="#009af9" fill-rule="evenodd" fill-opacity="1" stroke="#000000" stroke-opacity="1" stroke-width="3.2"/>
<circle clip-path="url(#clip062)" cx="884.464" cy="1058.95" r="14.4" fill="#009af9" fill-rule="evenodd" fill-opacity="1" stroke="#000000" stroke-opacity="1" stroke-width="3.2"/>
<circle clip-path="url(#clip062)" cx="985.032" cy="1002.16" r="14.4" fill="#009af9" fill-rule="evenodd" fill-opacity="1" stroke="#000000" stroke-opacity="1" stroke-width="3.2"/>
<circle clip-path="url(#clip062)" cx="1085.6" cy="938.977" r="14.4" fill="#009af9" fill-rule="evenodd" fill-opacity="1" stroke="#000000" stroke-opacity="1" stroke-width="3.2"/>
<circle clip-path="url(#clip062)" cx="1186.17" cy="891.133" r="14.4" fill="#009af9" fill-rule="evenodd" fill-opacity="1" stroke="#000000" stroke-opacity="1" stroke-width="3.2"/>
<circle clip-path="url(#clip062)" cx="1286.74" cy="822.039" r="14.4" fill="#009af9" fill-rule="evenodd" fill-opacity="1" stroke="#000000" stroke-opacity="1" stroke-width="3.2"/>
<circle clip-path="url(#clip062)" cx="1387.3" cy="761.601" r="14.4" fill="#009af9" fill-rule="evenodd" fill-opacity="1" stroke="#000000" stroke-opacity="1" stroke-width="3.2"/>
<circle clip-path="url(#clip062)" cx="1487.87" cy="703.044" r="14.4" fill="#009af9" fill-rule="evenodd" fill-opacity="1" stroke="#000000" stroke-opacity="1" stroke-width="3.2"/>
<circle clip-path="url(#clip062)" cx="1588.44" cy="639.149" r="14.4" fill="#009af9" fill-rule="evenodd" fill-opacity="1" stroke="#000000" stroke-opacity="1" stroke-width="3.2"/>
<circle clip-path="url(#clip062)" cx="1689.01" cy="574.331" r="14.4" fill="#009af9" fill-rule="evenodd" fill-opacity="1" stroke="#000000" stroke-opacity="1" stroke-width="3.2"/>
<circle clip-path="url(#clip062)" cx="1789.58" cy="502.524" r="14.4" fill="#009af9" fill-rule="evenodd" fill-opacity="1" stroke="#000000" stroke-opacity="1" stroke-width="3.2"/>
<circle clip-path="url(#clip062)" cx="1890.14" cy="446.843" r="14.4" fill="#009af9" fill-rule="evenodd" fill-opacity="1" stroke="#000000" stroke-opacity="1" stroke-width="3.2"/>
<circle clip-path="url(#clip062)" cx="1990.71" cy="378.631" r="14.4" fill="#009af9" fill-rule="evenodd" fill-opacity="1" stroke="#000000" stroke-opacity="1" stroke-width="3.2"/>
<circle clip-path="url(#clip062)" cx="2091.28" cy="308.129" r="14.4" fill="#009af9" fill-rule="evenodd" fill-opacity="1" stroke="#000000" stroke-opacity="1" stroke-width="3.2"/>
<circle clip-path="url(#clip062)" cx="2191.85" cy="227.42" r="14.4" fill="#009af9" fill-rule="evenodd" fill-opacity="1" stroke="#000000" stroke-opacity="1" stroke-width="3.2"/>
<circle clip-path="url(#clip062)" cx="2292.42" cy="241.024" r="14.4" fill="#009af9" fill-rule="evenodd" fill-opacity="1" stroke="#000000" stroke-opacity="1" stroke-width="3.2"/>
</svg>
