<?xml version="1.0" encoding="utf-8"?>
<svg xmlns="http://www.w3.org/2000/svg" xmlns:xlink="http://www.w3.org/1999/xlink" width="600" height="400" viewBox="0 0 2400 1600">
<defs>
  <clipPath id="clip940">
    <rect x="0" y="0" width="2400" height="1600"/>
  </clipPath>
</defs>
<path clip-path="url(#clip940)" d="M0 1600 L2400 1600 L2400 0 L0 0  Z" fill="#ffffff" fill-rule="evenodd" fill-opacity="1"/>
<defs>
  <clipPath id="clip941">
    <rect x="480" y="0" width="1681" height="1600"/>
  </clipPath>
</defs>
<path clip-path="url(#clip940)" d="M222.69 1423.18 L2352.76 1423.18 L2352.76 192.592 L222.69 192.592  Z" fill="#ffffff" fill-rule="evenodd" fill-opacity="1"/>
<defs>
  <clipPath id="clip942">
    <rect x="222" y="192" width="2131" height="1232"/>
  </clipPath>
</defs>
<polyline clip-path="url(#clip942)" style="stroke:#000000; stroke-linecap:round; stroke-linejoin:round; stroke-width:2; stroke-opacity:0.1; fill:none" points="282.975,1423.18 282.975,192.592 "/>
<polyline clip-path="url(#clip942)" style="stroke:#000000; stroke-linecap:round; stroke-linejoin:round; stroke-width:2; stroke-opacity:0.1; fill:none" points="811.79,1423.18 811.79,192.592 "/>
<polyline clip-path="url(#clip942)" style="stroke:#000000; stroke-linecap:round; stroke-linejoin:round; stroke-width:2; stroke-opacity:0.1; fill:none" points="1340.6,1423.18 1340.6,192.592 "/>
<polyline clip-path="url(#clip942)" style="stroke:#000000; stroke-linecap:round; stroke-linejoin:round; stroke-width:2; stroke-opacity:0.1; fill:none" points="1869.42,1423.18 1869.42,192.592 "/>
<polyline clip-path="url(#clip940)" style="stroke:#000000; stroke-linecap:round; stroke-linejoin:round; stroke-width:4; stroke-opacity:1; fill:none" points="222.69,1423.18 2352.76,1423.18 "/>
<polyline clip-path="url(#clip940)" style="stroke:#000000; stroke-linecap:round; stroke-linejoin:round; stroke-width:4; stroke-opacity:1; fill:none" points="282.975,1423.18 282.975,1404.28 "/>
<polyline clip-path="url(#clip940)" style="stroke:#000000; stroke-linecap:round; stroke-linejoin:round; stroke-width:4; stroke-opacity:1; fill:none" points="811.79,1423.18 811.79,1404.28 "/>
<polyline clip-path="url(#clip940)" style="stroke:#000000; stroke-linecap:round; stroke-linejoin:round; stroke-width:4; stroke-opacity:1; fill:none" points="1340.6,1423.18 1340.6,1404.28 "/>
<polyline clip-path="url(#clip940)" style="stroke:#000000; stroke-linecap:round; stroke-linejoin:round; stroke-width:4; stroke-opacity:1; fill:none" points="1869.42,1423.18 1869.42,1404.28 "/>
<polyline clip-path="url(#clip940)" style="stroke:#000000; stroke-linecap:round; stroke-linejoin:round; stroke-width:4; stroke-opacity:1; fill:none" points="388.738,1423.18 388.738,1413.73 "/>
<polyline clip-path="url(#clip940)" style="stroke:#000000; stroke-linecap:round; stroke-linejoin:round; stroke-width:4; stroke-opacity:1; fill:none" points="494.501,1423.18 494.501,1413.73 "/>
<polyline clip-path="url(#clip940)" style="stroke:#000000; stroke-linecap:round; stroke-linejoin:round; stroke-width:4; stroke-opacity:1; fill:none" points="600.264,1423.18 600.264,1413.73 "/>
<polyline clip-path="url(#clip940)" style="stroke:#000000; stroke-linecap:round; stroke-linejoin:round; stroke-width:4; stroke-opacity:1; fill:none" points="706.027,1423.18 706.027,1413.73 "/>
<polyline clip-path="url(#clip940)" style="stroke:#000000; stroke-linecap:round; stroke-linejoin:round; stroke-width:4; stroke-opacity:1; fill:none" points="917.553,1423.18 917.553,1413.73 "/>
<polyline clip-path="url(#clip940)" style="stroke:#000000; stroke-linecap:round; stroke-linejoin:round; stroke-width:4; stroke-opacity:1; fill:none" points="1023.32,1423.18 1023.32,1413.73 "/>
<polyline clip-path="url(#clip940)" style="stroke:#000000; stroke-linecap:round; stroke-linejoin:round; stroke-width:4; stroke-opacity:1; fill:none" points="1129.08,1423.18 1129.08,1413.73 "/>
<polyline clip-path="url(#clip940)" style="stroke:#000000; stroke-linecap:round; stroke-linejoin:round; stroke-width:4; stroke-opacity:1; fill:none" points="1234.84,1423.18 1234.84,1413.73 "/>
<polyline clip-path="url(#clip940)" style="stroke:#000000; stroke-linecap:round; stroke-linejoin:round; stroke-width:4; stroke-opacity:1; fill:none" points="1446.37,1423.18 1446.37,1413.73 "/>
<polyline clip-path="url(#clip940)" style="stroke:#000000; stroke-linecap:round; stroke-linejoin:round; stroke-width:4; stroke-opacity:1; fill:none" points="1552.13,1423.18 1552.13,1413.73 "/>
<polyline clip-path="url(#clip940)" style="stroke:#000000; stroke-linecap:round; stroke-linejoin:round; stroke-width:4; stroke-opacity:1; fill:none" points="1657.89,1423.18 1657.89,1413.73 "/>
<polyline clip-path="url(#clip940)" style="stroke:#000000; stroke-linecap:round; stroke-linejoin:round; stroke-width:4; stroke-opacity:1; fill:none" points="1763.66,1423.18 1763.66,1413.73 "/>
<polyline clip-path="url(#clip940)" style="stroke:#000000; stroke-linecap:round; stroke-linejoin:round; stroke-width:4; stroke-opacity:1; fill:none" points="1975.18,1423.18 1975.18,1413.73 "/>
<polyline clip-path="url(#clip940)" style="stroke:#000000; stroke-linecap:round; stroke-linejoin:round; stroke-width:4; stroke-opacity:1; fill:none" points="2080.95,1423.18 2080.95,1413.73 "/>
<polyline clip-path="url(#clip940)" style="stroke:#000000; stroke-linecap:round; stroke-linejoin:round; stroke-width:4; stroke-opacity:1; fill:none" points="2186.71,1423.18 2186.71,1413.73 "/>
<polyline clip-path="url(#clip940)" style="stroke:#000000; stroke-linecap:round; stroke-linejoin:round; stroke-width:4; stroke-opacity:1; fill:none" points="2292.47,1423.18 2292.47,1413.73 "/>
<path clip-path="url(#clip940)" d="M273.253 1451.02 L291.609 1451.02 L291.609 1454.96 L277.535 1454.96 L277.535 1463.43 Q278.554 1463.08 279.572 1462.92 Q280.591 1462.73 281.609 1462.73 Q287.396 1462.73 290.776 1465.9 Q294.156 1469.08 294.156 1474.49 Q294.156 1480.07 290.683 1483.17 Q287.211 1486.25 280.892 1486.25 Q278.716 1486.25 276.447 1485.88 Q274.202 1485.51 271.795 1484.77 L271.795 1480.07 Q273.878 1481.2 276.1 1481.76 Q278.322 1482.32 280.799 1482.32 Q284.804 1482.32 287.142 1480.21 Q289.48 1478.1 289.48 1474.49 Q289.48 1470.88 287.142 1468.77 Q284.804 1466.67 280.799 1466.67 Q278.924 1466.67 277.049 1467.08 Q275.197 1467.5 273.253 1468.38 L273.253 1451.02 Z" fill="#000000" fill-rule="nonzero" fill-opacity="1" /><path clip-path="url(#clip940)" d="M786.478 1481.64 L794.116 1481.64 L794.116 1455.28 L785.806 1456.95 L785.806 1452.69 L794.07 1451.02 L798.746 1451.02 L798.746 1481.64 L806.385 1481.64 L806.385 1485.58 L786.478 1485.58 L786.478 1481.64 Z" fill="#000000" fill-rule="nonzero" fill-opacity="1" /><path clip-path="url(#clip940)" d="M825.829 1454.1 Q822.218 1454.1 820.389 1457.66 Q818.584 1461.2 818.584 1468.33 Q818.584 1475.44 820.389 1479.01 Q822.218 1482.55 825.829 1482.55 Q829.463 1482.55 831.269 1479.01 Q833.098 1475.44 833.098 1468.33 Q833.098 1461.2 831.269 1457.66 Q829.463 1454.1 825.829 1454.1 M825.829 1450.39 Q831.639 1450.39 834.695 1455 Q837.774 1459.58 837.774 1468.33 Q837.774 1477.06 834.695 1481.67 Q831.639 1486.25 825.829 1486.25 Q820.019 1486.25 816.94 1481.67 Q813.885 1477.06 813.885 1468.33 Q813.885 1459.58 816.94 1455 Q820.019 1450.39 825.829 1450.39 Z" fill="#000000" fill-rule="nonzero" fill-opacity="1" /><path clip-path="url(#clip940)" d="M1315.79 1481.64 L1323.43 1481.64 L1323.43 1455.28 L1315.12 1456.95 L1315.12 1452.69 L1323.38 1451.02 L1328.06 1451.02 L1328.06 1481.64 L1335.7 1481.64 L1335.7 1485.58 L1315.79 1485.58 L1315.79 1481.64 Z" fill="#000000" fill-rule="nonzero" fill-opacity="1" /><path clip-path="url(#clip940)" d="M1345.19 1451.02 L1363.54 1451.02 L1363.54 1454.96 L1349.47 1454.96 L1349.47 1463.43 Q1350.49 1463.08 1351.51 1462.92 Q1352.53 1462.73 1353.54 1462.73 Q1359.33 1462.73 1362.71 1465.9 Q1366.09 1469.08 1366.09 1474.49 Q1366.09 1480.07 1362.62 1483.17 Q1359.15 1486.25 1352.83 1486.25 Q1350.65 1486.25 1348.38 1485.88 Q1346.14 1485.51 1343.73 1484.77 L1343.73 1480.07 Q1345.81 1481.2 1348.04 1481.76 Q1350.26 1482.32 1352.73 1482.32 Q1356.74 1482.32 1359.08 1480.21 Q1361.41 1478.1 1361.41 1474.49 Q1361.41 1470.88 1359.08 1468.77 Q1356.74 1466.67 1352.73 1466.67 Q1350.86 1466.67 1348.98 1467.08 Q1347.13 1467.5 1345.19 1468.38 L1345.19 1451.02 Z" fill="#000000" fill-rule="nonzero" fill-opacity="1" /><path clip-path="url(#clip940)" d="M1848.19 1481.64 L1864.51 1481.64 L1864.51 1485.58 L1842.57 1485.58 L1842.57 1481.64 Q1845.23 1478.89 1849.81 1474.26 Q1854.42 1469.61 1855.6 1468.27 Q1857.85 1465.74 1858.72 1464.01 Q1859.63 1462.25 1859.63 1460.56 Q1859.63 1457.8 1857.68 1456.07 Q1855.76 1454.33 1852.66 1454.33 Q1850.46 1454.33 1848.01 1455.09 Q1845.58 1455.86 1842.8 1457.41 L1842.8 1452.69 Q1845.62 1451.55 1848.08 1450.97 Q1850.53 1450.39 1852.57 1450.39 Q1857.94 1450.39 1861.13 1453.08 Q1864.33 1455.77 1864.33 1460.26 Q1864.33 1462.39 1863.52 1464.31 Q1862.73 1466.2 1860.62 1468.8 Q1860.04 1469.47 1856.94 1472.69 Q1853.84 1475.88 1848.19 1481.64 Z" fill="#000000" fill-rule="nonzero" fill-opacity="1" /><path clip-path="url(#clip940)" d="M1884.33 1454.1 Q1880.72 1454.1 1878.89 1457.66 Q1877.08 1461.2 1877.08 1468.33 Q1877.08 1475.44 1878.89 1479.01 Q1880.72 1482.55 1884.33 1482.55 Q1887.96 1482.55 1889.77 1479.01 Q1891.6 1475.44 1891.6 1468.33 Q1891.6 1461.2 1889.77 1457.66 Q1887.96 1454.1 1884.33 1454.1 M1884.33 1450.39 Q1890.14 1450.39 1893.19 1455 Q1896.27 1459.58 1896.27 1468.33 Q1896.27 1477.06 1893.19 1481.67 Q1890.14 1486.25 1884.33 1486.25 Q1878.52 1486.25 1875.44 1481.67 Q1872.38 1477.06 1872.38 1468.33 Q1872.38 1459.58 1875.44 1455 Q1878.52 1450.39 1884.33 1450.39 Z" fill="#000000" fill-rule="nonzero" fill-opacity="1" /><path clip-path="url(#clip940)" d="M797.325 1533.45 L797.325 1538.98 Q794.842 1537.71 792.169 1537.07 Q789.495 1536.44 786.631 1536.44 Q782.27 1536.44 780.074 1537.77 Q777.91 1539.11 777.91 1541.79 Q777.91 1543.82 779.469 1545 Q781.029 1546.15 785.739 1547.2 L787.745 1547.64 Q793.983 1548.98 796.593 1551.43 Q799.235 1553.85 799.235 1558.21 Q799.235 1563.17 795.288 1566.07 Q791.373 1568.97 784.498 1568.97 Q781.634 1568.97 778.514 1568.39 Q775.427 1567.85 771.989 1566.74 L771.989 1560.69 Q775.236 1562.38 778.387 1563.24 Q781.538 1564.07 784.625 1564.07 Q788.763 1564.07 790.991 1562.66 Q793.219 1561.23 793.219 1558.65 Q793.219 1556.27 791.596 1554.99 Q790.004 1553.72 784.562 1552.54 L782.525 1552.07 Q777.082 1550.92 774.663 1548.56 Q772.244 1546.18 772.244 1542.04 Q772.244 1537.01 775.809 1534.27 Q779.374 1531.54 785.93 1531.54 Q789.177 1531.54 792.041 1532.01 Q794.906 1532.49 797.325 1533.45 Z" fill="#000000" fill-rule="nonzero" fill-opacity="1" /><path clip-path="url(#clip940)" d="M814.226 1562.7 L814.226 1581.6 L808.338 1581.6 L808.338 1532.4 L814.226 1532.4 L814.226 1537.81 Q816.072 1534.62 818.873 1533.1 Q821.706 1531.54 825.621 1531.54 Q832.114 1531.54 836.156 1536.69 Q840.23 1541.85 840.23 1550.25 Q840.23 1558.65 836.156 1563.81 Q832.114 1568.97 825.621 1568.97 Q821.706 1568.97 818.873 1567.44 Q816.072 1565.88 814.226 1562.7 M834.151 1550.25 Q834.151 1543.79 831.477 1540.13 Q828.835 1536.44 824.188 1536.44 Q819.541 1536.44 816.868 1540.13 Q814.226 1543.79 814.226 1550.25 Q814.226 1556.71 816.868 1560.4 Q819.541 1564.07 824.188 1564.07 Q828.835 1564.07 831.477 1560.4 Q834.151 1556.71 834.151 1550.25 Z" fill="#000000" fill-rule="nonzero" fill-opacity="1" /><path clip-path="url(#clip940)" d="M879.57 1546.53 L879.57 1568.04 L873.713 1568.04 L873.713 1546.72 Q873.713 1541.66 871.74 1539.14 Q869.767 1536.63 865.82 1536.63 Q861.078 1536.63 858.34 1539.65 Q855.603 1542.68 855.603 1547.9 L855.603 1568.04 L849.715 1568.04 L849.715 1518.52 L855.603 1518.52 L855.603 1537.93 Q857.704 1534.72 860.536 1533.13 Q863.401 1531.54 867.125 1531.54 Q873.268 1531.54 876.419 1535.36 Q879.57 1539.14 879.57 1546.53 Z" fill="#000000" fill-rule="nonzero" fill-opacity="1" /><path clip-path="url(#clip940)" d="M921.743 1548.76 L921.743 1551.62 L894.816 1551.62 Q895.198 1557.67 898.444 1560.85 Q901.723 1564 907.547 1564 Q910.921 1564 914.072 1563.17 Q917.255 1562.35 920.374 1560.69 L920.374 1566.23 Q917.223 1567.57 913.913 1568.27 Q910.603 1568.97 907.197 1568.97 Q898.667 1568.97 893.67 1564 Q888.705 1559.04 888.705 1550.57 Q888.705 1541.82 893.415 1536.69 Q898.158 1531.54 906.179 1531.54 Q913.372 1531.54 917.541 1536.18 Q921.743 1540.8 921.743 1548.76 M915.886 1547.04 Q915.823 1542.23 913.181 1539.37 Q910.571 1536.5 906.242 1536.5 Q901.341 1536.5 898.381 1539.27 Q895.452 1542.04 895.007 1547.07 L915.886 1547.04 Z" fill="#000000" fill-rule="nonzero" fill-opacity="1" /><path clip-path="url(#clip940)" d="M952.012 1537.87 Q951.025 1537.3 949.847 1537.04 Q948.701 1536.76 947.301 1536.76 Q942.336 1536.76 939.662 1540 Q937.02 1543.22 937.02 1549.27 L937.02 1568.04 L931.132 1568.04 L931.132 1532.4 L937.02 1532.4 L937.02 1537.93 Q938.866 1534.69 941.827 1533.13 Q944.787 1531.54 949.02 1531.54 Q949.625 1531.54 950.357 1531.63 Q951.089 1531.7 951.98 1531.85 L952.012 1537.87 Z" fill="#000000" fill-rule="nonzero" fill-opacity="1" /><path clip-path="url(#clip940)" d="M958.155 1532.4 L964.011 1532.4 L964.011 1568.04 L958.155 1568.04 L958.155 1532.4 M958.155 1518.52 L964.011 1518.52 L964.011 1525.93 L958.155 1525.93 L958.155 1518.52 Z" fill="#000000" fill-rule="nonzero" fill-opacity="1" /><path clip-path="url(#clip940)" d="M1001.92 1533.76 L1001.92 1539.24 Q999.436 1537.87 996.922 1537.2 Q994.439 1536.5 991.893 1536.5 Q986.196 1536.5 983.044 1540.13 Q979.893 1543.73 979.893 1550.25 Q979.893 1556.78 983.044 1560.4 Q986.196 1564 991.893 1564 Q994.439 1564 996.922 1563.33 Q999.436 1562.63 1001.92 1561.26 L1001.92 1566.68 Q999.468 1567.82 996.826 1568.39 Q994.216 1568.97 991.256 1568.97 Q983.204 1568.97 978.461 1563.91 Q973.719 1558.85 973.719 1550.25 Q973.719 1541.53 978.493 1536.53 Q983.299 1531.54 991.638 1531.54 Q994.344 1531.54 996.922 1532.11 Q999.5 1532.65 1001.92 1533.76 Z" fill="#000000" fill-rule="nonzero" fill-opacity="1" /><path clip-path="url(#clip940)" d="M1028.3 1550.12 Q1021.21 1550.12 1018.47 1551.75 Q1015.73 1553.37 1015.73 1557.29 Q1015.73 1560.4 1017.77 1562.25 Q1019.84 1564.07 1023.37 1564.07 Q1028.24 1564.07 1031.17 1560.63 Q1034.13 1557.16 1034.13 1551.43 L1034.13 1550.12 L1028.3 1550.12 M1039.99 1547.71 L1039.99 1568.04 L1034.13 1568.04 L1034.13 1562.63 Q1032.12 1565.88 1029.13 1567.44 Q1026.14 1568.97 1021.81 1568.97 Q1016.34 1568.97 1013.09 1565.91 Q1009.88 1562.82 1009.88 1557.67 Q1009.88 1551.65 1013.89 1548.6 Q1017.93 1545.54 1025.92 1545.54 L1034.13 1545.54 L1034.13 1544.97 Q1034.13 1540.93 1031.46 1538.73 Q1028.81 1536.5 1024.01 1536.5 Q1020.95 1536.5 1018.06 1537.23 Q1015.16 1537.97 1012.49 1539.43 L1012.49 1534.02 Q1015.7 1532.78 1018.72 1532.17 Q1021.75 1531.54 1024.61 1531.54 Q1032.35 1531.54 1036.17 1535.55 Q1039.99 1539.56 1039.99 1547.71 Z" fill="#000000" fill-rule="nonzero" fill-opacity="1" /><path clip-path="url(#clip940)" d="M1052.05 1518.52 L1057.91 1518.52 L1057.91 1568.04 L1052.05 1568.04 L1052.05 1518.52 Z" fill="#000000" fill-rule="nonzero" fill-opacity="1" /><path clip-path="url(#clip940)" d="M1097.25 1578.87 L1097.25 1583.42 L1063.38 1583.42 L1063.38 1578.87 L1097.25 1578.87 Z" fill="#000000" fill-rule="nonzero" fill-opacity="1" /><path clip-path="url(#clip940)" d="M1132.38 1546.53 L1132.38 1568.04 L1126.53 1568.04 L1126.53 1546.72 Q1126.53 1541.66 1124.55 1539.14 Q1122.58 1536.63 1118.63 1536.63 Q1113.89 1536.63 1111.15 1539.65 Q1108.42 1542.68 1108.42 1547.9 L1108.42 1568.04 L1102.53 1568.04 L1102.53 1518.52 L1108.42 1518.52 L1108.42 1537.93 Q1110.52 1534.72 1113.35 1533.13 Q1116.22 1531.54 1119.94 1531.54 Q1126.08 1531.54 1129.23 1535.36 Q1132.38 1539.14 1132.38 1546.53 Z" fill="#000000" fill-rule="nonzero" fill-opacity="1" /><path clip-path="url(#clip940)" d="M1160.27 1550.12 Q1153.17 1550.12 1150.43 1551.75 Q1147.69 1553.37 1147.69 1557.29 Q1147.69 1560.4 1149.73 1562.25 Q1151.8 1564.07 1155.33 1564.07 Q1160.2 1564.07 1163.13 1560.63 Q1166.09 1557.16 1166.09 1551.43 L1166.09 1550.12 L1160.27 1550.12 M1171.95 1547.71 L1171.95 1568.04 L1166.09 1568.04 L1166.09 1562.63 Q1164.09 1565.88 1161.09 1567.44 Q1158.1 1568.97 1153.77 1568.97 Q1148.3 1568.97 1145.05 1565.91 Q1141.84 1562.82 1141.84 1557.67 Q1141.84 1551.65 1145.85 1548.6 Q1149.89 1545.54 1157.88 1545.54 L1166.09 1545.54 L1166.09 1544.97 Q1166.09 1540.93 1163.42 1538.73 Q1160.78 1536.5 1155.97 1536.5 Q1152.91 1536.5 1150.02 1537.23 Q1147.12 1537.97 1144.45 1539.43 L1144.45 1534.02 Q1147.66 1532.78 1150.69 1532.17 Q1153.71 1531.54 1156.57 1531.54 Q1164.31 1531.54 1168.13 1535.55 Q1171.95 1539.56 1171.95 1547.71 Z" fill="#000000" fill-rule="nonzero" fill-opacity="1" /><path clip-path="url(#clip940)" d="M1204.67 1537.87 Q1203.68 1537.3 1202.5 1537.04 Q1201.36 1536.76 1199.96 1536.76 Q1194.99 1536.76 1192.32 1540 Q1189.68 1543.22 1189.68 1549.27 L1189.68 1568.04 L1183.79 1568.04 L1183.79 1532.4 L1189.68 1532.4 L1189.68 1537.93 Q1191.52 1534.69 1194.48 1533.13 Q1197.44 1531.54 1201.67 1531.54 Q1202.28 1531.54 1203.01 1531.63 Q1203.74 1531.7 1204.63 1531.85 L1204.67 1537.87 Z" fill="#000000" fill-rule="nonzero" fill-opacity="1" /><path clip-path="url(#clip940)" d="M1237.42 1539.24 Q1239.61 1535.29 1242.67 1533.41 Q1245.73 1531.54 1249.86 1531.54 Q1255.43 1531.54 1258.46 1535.45 Q1261.48 1539.33 1261.48 1546.53 L1261.48 1568.04 L1255.59 1568.04 L1255.59 1546.72 Q1255.59 1541.59 1253.78 1539.11 Q1251.96 1536.63 1248.24 1536.63 Q1243.69 1536.63 1241.05 1539.65 Q1238.4 1542.68 1238.4 1547.9 L1238.4 1568.04 L1232.52 1568.04 L1232.52 1546.72 Q1232.52 1541.56 1230.7 1539.11 Q1228.89 1536.63 1225.1 1536.63 Q1220.61 1536.63 1217.97 1539.68 Q1215.33 1542.71 1215.33 1547.9 L1215.33 1568.04 L1209.44 1568.04 L1209.44 1532.4 L1215.33 1532.4 L1215.33 1537.93 Q1217.33 1534.66 1220.14 1533.1 Q1222.94 1531.54 1226.79 1531.54 Q1230.67 1531.54 1233.38 1533.51 Q1236.11 1535.48 1237.42 1539.24 Z" fill="#000000" fill-rule="nonzero" fill-opacity="1" /><path clip-path="url(#clip940)" d="M1286.98 1536.5 Q1282.26 1536.5 1279.53 1540.19 Q1276.79 1543.85 1276.79 1550.25 Q1276.79 1556.65 1279.5 1560.34 Q1282.23 1564 1286.98 1564 Q1291.65 1564 1294.39 1560.31 Q1297.13 1556.62 1297.13 1550.25 Q1297.13 1543.92 1294.39 1540.23 Q1291.65 1536.5 1286.98 1536.5 M1286.98 1531.54 Q1294.61 1531.54 1298.97 1536.5 Q1303.34 1541.47 1303.34 1550.25 Q1303.34 1559 1298.97 1564 Q1294.61 1568.97 1286.98 1568.97 Q1279.3 1568.97 1274.94 1564 Q1270.62 1559 1270.62 1550.25 Q1270.62 1541.47 1274.94 1536.5 Q1279.3 1531.54 1286.98 1531.54 Z" fill="#000000" fill-rule="nonzero" fill-opacity="1" /><path clip-path="url(#clip940)" d="M1342.68 1546.53 L1342.68 1568.04 L1336.82 1568.04 L1336.82 1546.72 Q1336.82 1541.66 1334.85 1539.14 Q1332.87 1536.63 1328.93 1536.63 Q1324.18 1536.63 1321.45 1539.65 Q1318.71 1542.68 1318.71 1547.9 L1318.71 1568.04 L1312.82 1568.04 L1312.82 1532.4 L1318.71 1532.4 L1318.71 1537.93 Q1320.81 1534.72 1323.64 1533.13 Q1326.51 1531.54 1330.23 1531.54 Q1336.37 1531.54 1339.52 1535.36 Q1342.68 1539.14 1342.68 1546.53 Z" fill="#000000" fill-rule="nonzero" fill-opacity="1" /><path clip-path="url(#clip940)" d="M1354.36 1532.4 L1360.21 1532.4 L1360.21 1568.04 L1354.36 1568.04 L1354.36 1532.4 M1354.36 1518.52 L1360.21 1518.52 L1360.21 1525.93 L1354.36 1525.93 L1354.36 1518.52 Z" fill="#000000" fill-rule="nonzero" fill-opacity="1" /><path clip-path="url(#clip940)" d="M1398.12 1533.76 L1398.12 1539.24 Q1395.64 1537.87 1393.12 1537.2 Q1390.64 1536.5 1388.09 1536.5 Q1382.4 1536.5 1379.25 1540.13 Q1376.1 1543.73 1376.1 1550.25 Q1376.1 1556.78 1379.25 1560.4 Q1382.4 1564 1388.09 1564 Q1390.64 1564 1393.12 1563.33 Q1395.64 1562.63 1398.12 1561.26 L1398.12 1566.68 Q1395.67 1567.82 1393.03 1568.39 Q1390.42 1568.97 1387.46 1568.97 Q1379.41 1568.97 1374.66 1563.91 Q1369.92 1558.85 1369.92 1550.25 Q1369.92 1541.53 1374.69 1536.53 Q1379.5 1531.54 1387.84 1531.54 Q1390.55 1531.54 1393.12 1532.11 Q1395.7 1532.65 1398.12 1533.76 Z" fill="#000000" fill-rule="nonzero" fill-opacity="1" /><path clip-path="url(#clip940)" d="M1431.03 1533.45 L1431.03 1538.98 Q1428.55 1537.71 1425.87 1537.07 Q1423.2 1536.44 1420.34 1536.44 Q1415.98 1536.44 1413.78 1537.77 Q1411.62 1539.11 1411.62 1541.79 Q1411.62 1543.82 1413.18 1545 Q1414.73 1546.15 1419.45 1547.2 L1421.45 1547.64 Q1427.69 1548.98 1430.3 1551.43 Q1432.94 1553.85 1432.94 1558.21 Q1432.94 1563.17 1428.99 1566.07 Q1425.08 1568.97 1418.2 1568.97 Q1415.34 1568.97 1412.22 1568.39 Q1409.13 1567.85 1405.7 1566.74 L1405.7 1560.69 Q1408.94 1562.38 1412.09 1563.24 Q1415.24 1564.07 1418.33 1564.07 Q1422.47 1564.07 1424.7 1562.66 Q1426.93 1561.23 1426.93 1558.65 Q1426.93 1556.27 1425.3 1554.99 Q1423.71 1553.72 1418.27 1552.54 L1416.23 1552.07 Q1410.79 1550.92 1408.37 1548.56 Q1405.95 1546.18 1405.95 1542.04 Q1405.95 1537.01 1409.51 1534.27 Q1413.08 1531.54 1419.64 1531.54 Q1422.88 1531.54 1425.75 1532.01 Q1428.61 1532.49 1431.03 1533.45 Z" fill="#000000" fill-rule="nonzero" fill-opacity="1" /><path clip-path="url(#clip940)" d="M1490.74 1539.24 Q1492.94 1535.29 1495.99 1533.41 Q1499.05 1531.54 1503.19 1531.54 Q1508.76 1531.54 1511.78 1535.45 Q1514.8 1539.33 1514.8 1546.53 L1514.8 1568.04 L1508.92 1568.04 L1508.92 1546.72 Q1508.92 1541.59 1507.1 1539.11 Q1505.29 1536.63 1501.56 1536.63 Q1497.01 1536.63 1494.37 1539.65 Q1491.73 1542.68 1491.73 1547.9 L1491.73 1568.04 L1485.84 1568.04 L1485.84 1546.72 Q1485.84 1541.56 1484.03 1539.11 Q1482.21 1536.63 1478.42 1536.63 Q1473.94 1536.63 1471.29 1539.68 Q1468.65 1542.71 1468.65 1547.9 L1468.65 1568.04 L1462.76 1568.04 L1462.76 1532.4 L1468.65 1532.4 L1468.65 1537.93 Q1470.66 1534.66 1473.46 1533.1 Q1476.26 1531.54 1480.11 1531.54 Q1483.99 1531.54 1486.7 1533.51 Q1489.44 1535.48 1490.74 1539.24 Z" fill="#000000" fill-rule="nonzero" fill-opacity="1" /><path clip-path="url(#clip940)" d="M1540.3 1536.5 Q1535.59 1536.5 1532.85 1540.19 Q1530.11 1543.85 1530.11 1550.25 Q1530.11 1556.65 1532.82 1560.34 Q1535.56 1564 1540.3 1564 Q1544.98 1564 1547.71 1560.31 Q1550.45 1556.62 1550.45 1550.25 Q1550.45 1543.92 1547.71 1540.23 Q1544.98 1536.5 1540.3 1536.5 M1540.3 1531.54 Q1547.94 1531.54 1552.3 1536.5 Q1556.66 1541.47 1556.66 1550.25 Q1556.66 1559 1552.3 1564 Q1547.94 1568.97 1540.3 1568.97 Q1532.63 1568.97 1528.27 1564 Q1523.94 1559 1523.94 1550.25 Q1523.94 1541.47 1528.27 1536.5 Q1532.63 1531.54 1540.3 1531.54 Z" fill="#000000" fill-rule="nonzero" fill-opacity="1" /><path clip-path="url(#clip940)" d="M1589.82 1537.81 L1589.82 1518.52 L1595.68 1518.52 L1595.68 1568.04 L1589.82 1568.04 L1589.82 1562.7 Q1587.98 1565.88 1585.14 1567.44 Q1582.34 1568.97 1578.4 1568.97 Q1571.94 1568.97 1567.86 1563.81 Q1563.82 1558.65 1563.82 1550.25 Q1563.82 1541.85 1567.86 1536.69 Q1571.94 1531.54 1578.4 1531.54 Q1582.34 1531.54 1585.14 1533.1 Q1587.98 1534.62 1589.82 1537.81 M1569.87 1550.25 Q1569.87 1556.71 1572.51 1560.4 Q1575.18 1564.07 1579.83 1564.07 Q1584.48 1564.07 1587.15 1560.4 Q1589.82 1556.71 1589.82 1550.25 Q1589.82 1543.79 1587.15 1540.13 Q1584.48 1536.44 1579.83 1536.44 Q1575.18 1536.44 1572.51 1540.13 Q1569.87 1543.79 1569.87 1550.25 Z" fill="#000000" fill-rule="nonzero" fill-opacity="1" /><path clip-path="url(#clip940)" d="M1638.23 1548.76 L1638.23 1551.62 L1611.31 1551.62 Q1611.69 1557.67 1614.94 1560.85 Q1618.21 1564 1624.04 1564 Q1627.41 1564 1630.56 1563.17 Q1633.75 1562.35 1636.87 1560.69 L1636.87 1566.23 Q1633.72 1567.57 1630.41 1568.27 Q1627.09 1568.97 1623.69 1568.97 Q1615.16 1568.97 1610.16 1564 Q1605.2 1559.04 1605.2 1550.57 Q1605.2 1541.82 1609.91 1536.69 Q1614.65 1531.54 1622.67 1531.54 Q1629.86 1531.54 1634.03 1536.18 Q1638.23 1540.8 1638.23 1548.76 M1632.38 1547.04 Q1632.31 1542.23 1629.67 1539.37 Q1627.06 1536.5 1622.73 1536.5 Q1617.83 1536.5 1614.87 1539.27 Q1611.94 1542.04 1611.5 1547.07 L1632.38 1547.04 Z" fill="#000000" fill-rule="nonzero" fill-opacity="1" /><path clip-path="url(#clip940)" d="M1647.85 1518.52 L1653.7 1518.52 L1653.7 1568.04 L1647.85 1568.04 L1647.85 1518.52 Z" fill="#000000" fill-rule="nonzero" fill-opacity="1" /><path clip-path="url(#clip940)" d="M1709.4 1533.45 L1709.4 1538.98 Q1706.92 1537.71 1704.25 1537.07 Q1701.57 1536.44 1698.71 1536.44 Q1694.35 1536.44 1692.15 1537.77 Q1689.99 1539.11 1689.99 1541.79 Q1689.99 1543.82 1691.55 1545 Q1693.11 1546.15 1697.82 1547.2 L1699.82 1547.64 Q1706.06 1548.98 1708.67 1551.43 Q1711.31 1553.85 1711.31 1558.21 Q1711.31 1563.17 1707.37 1566.07 Q1703.45 1568.97 1696.58 1568.97 Q1693.71 1568.97 1690.59 1568.39 Q1687.51 1567.85 1684.07 1566.74 L1684.07 1560.69 Q1687.31 1562.38 1690.47 1563.24 Q1693.62 1564.07 1696.7 1564.07 Q1700.84 1564.07 1703.07 1562.66 Q1705.3 1561.23 1705.3 1558.65 Q1705.3 1556.27 1703.67 1554.99 Q1702.08 1553.72 1696.64 1552.54 L1694.6 1552.07 Q1689.16 1550.92 1686.74 1548.56 Q1684.32 1546.18 1684.32 1542.04 Q1684.32 1537.01 1687.89 1534.27 Q1691.45 1531.54 1698.01 1531.54 Q1701.26 1531.54 1704.12 1532.01 Q1706.98 1532.49 1709.4 1533.45 Z" fill="#000000" fill-rule="nonzero" fill-opacity="1" /><path clip-path="url(#clip940)" d="M1720.64 1532.4 L1726.5 1532.4 L1726.5 1568.04 L1720.64 1568.04 L1720.64 1532.4 M1720.64 1518.52 L1726.5 1518.52 L1726.5 1525.93 L1720.64 1525.93 L1720.64 1518.52 Z" fill="#000000" fill-rule="nonzero" fill-opacity="1" /><path clip-path="url(#clip940)" d="M1736.2 1532.4 L1764.02 1532.4 L1764.02 1537.74 L1742 1563.37 L1764.02 1563.37 L1764.02 1568.04 L1735.41 1568.04 L1735.41 1562.7 L1757.43 1537.07 L1736.2 1537.07 L1736.2 1532.4 Z" fill="#000000" fill-rule="nonzero" fill-opacity="1" /><path clip-path="url(#clip940)" d="M1803.46 1548.76 L1803.46 1551.62 L1776.53 1551.62 Q1776.91 1557.67 1780.16 1560.85 Q1783.44 1564 1789.26 1564 Q1792.64 1564 1795.79 1563.17 Q1798.97 1562.35 1802.09 1560.69 L1802.09 1566.23 Q1798.94 1567.57 1795.63 1568.27 Q1792.32 1568.97 1788.91 1568.97 Q1780.38 1568.97 1775.38 1564 Q1770.42 1559.04 1770.42 1550.57 Q1770.42 1541.82 1775.13 1536.69 Q1779.87 1531.54 1787.89 1531.54 Q1795.09 1531.54 1799.26 1536.18 Q1803.46 1540.8 1803.46 1548.76 M1797.6 1547.04 Q1797.54 1542.23 1794.89 1539.37 Q1792.28 1536.5 1787.96 1536.5 Q1783.05 1536.5 1780.09 1539.27 Q1777.17 1542.04 1776.72 1547.07 L1797.6 1547.04 Z" fill="#000000" fill-rule="nonzero" fill-opacity="1" /><polyline clip-path="url(#clip942)" style="stroke:#000000; stroke-linecap:round; stroke-linejoin:round; stroke-width:2; stroke-opacity:0.1; fill:none" points="222.69,1407.17 2352.76,1407.17 "/>
<polyline clip-path="url(#clip942)" style="stroke:#000000; stroke-linecap:round; stroke-linejoin:round; stroke-width:2; stroke-opacity:0.1; fill:none" points="222.69,1114.08 2352.76,1114.08 "/>
<polyline clip-path="url(#clip942)" style="stroke:#000000; stroke-linecap:round; stroke-linejoin:round; stroke-width:2; stroke-opacity:0.1; fill:none" points="222.69,820.981 2352.76,820.981 "/>
<polyline clip-path="url(#clip942)" style="stroke:#000000; stroke-linecap:round; stroke-linejoin:round; stroke-width:2; stroke-opacity:0.1; fill:none" points="222.69,527.886 2352.76,527.886 "/>
<polyline clip-path="url(#clip942)" style="stroke:#000000; stroke-linecap:round; stroke-linejoin:round; stroke-width:2; stroke-opacity:0.1; fill:none" points="222.69,234.791 2352.76,234.791 "/>
<polyline clip-path="url(#clip940)" style="stroke:#000000; stroke-linecap:round; stroke-linejoin:round; stroke-width:4; stroke-opacity:1; fill:none" points="222.69,1423.18 222.69,192.592 "/>
<polyline clip-path="url(#clip940)" style="stroke:#000000; stroke-linecap:round; stroke-linejoin:round; stroke-width:4; stroke-opacity:1; fill:none" points="222.69,1407.17 241.588,1407.17 "/>
<polyline clip-path="url(#clip940)" style="stroke:#000000; stroke-linecap:round; stroke-linejoin:round; stroke-width:4; stroke-opacity:1; fill:none" points="222.69,1114.08 241.588,1114.08 "/>
<polyline clip-path="url(#clip940)" style="stroke:#000000; stroke-linecap:round; stroke-linejoin:round; stroke-width:4; stroke-opacity:1; fill:none" points="222.69,820.981 241.588,820.981 "/>
<polyline clip-path="url(#clip940)" style="stroke:#000000; stroke-linecap:round; stroke-linejoin:round; stroke-width:4; stroke-opacity:1; fill:none" points="222.69,527.886 241.588,527.886 "/>
<polyline clip-path="url(#clip940)" style="stroke:#000000; stroke-linecap:round; stroke-linejoin:round; stroke-width:4; stroke-opacity:1; fill:none" points="222.69,234.791 241.588,234.791 "/>
<polyline clip-path="url(#clip940)" style="stroke:#000000; stroke-linecap:round; stroke-linejoin:round; stroke-width:4; stroke-opacity:1; fill:none" points="222.69,1276.11 232.139,1276.11 "/>
<polyline clip-path="url(#clip940)" style="stroke:#000000; stroke-linecap:round; stroke-linejoin:round; stroke-width:4; stroke-opacity:1; fill:none" points="222.69,1212.92 232.139,1212.92 "/>
<polyline clip-path="url(#clip940)" style="stroke:#000000; stroke-linecap:round; stroke-linejoin:round; stroke-width:4; stroke-opacity:1; fill:none" points="222.69,1170.88 232.139,1170.88 "/>
<polyline clip-path="url(#clip940)" style="stroke:#000000; stroke-linecap:round; stroke-linejoin:round; stroke-width:4; stroke-opacity:1; fill:none" points="222.69,1139.34 232.139,1139.34 "/>
<polyline clip-path="url(#clip940)" style="stroke:#000000; stroke-linecap:round; stroke-linejoin:round; stroke-width:4; stroke-opacity:1; fill:none" points="222.69,983.016 232.139,983.016 "/>
<polyline clip-path="url(#clip940)" style="stroke:#000000; stroke-linecap:round; stroke-linejoin:round; stroke-width:4; stroke-opacity:1; fill:none" points="222.69,919.825 232.139,919.825 "/>
<polyline clip-path="url(#clip940)" style="stroke:#000000; stroke-linecap:round; stroke-linejoin:round; stroke-width:4; stroke-opacity:1; fill:none" points="222.69,877.789 232.139,877.789 "/>
<polyline clip-path="url(#clip940)" style="stroke:#000000; stroke-linecap:round; stroke-linejoin:round; stroke-width:4; stroke-opacity:1; fill:none" points="222.69,846.242 232.139,846.242 "/>
<polyline clip-path="url(#clip940)" style="stroke:#000000; stroke-linecap:round; stroke-linejoin:round; stroke-width:4; stroke-opacity:1; fill:none" points="222.69,689.921 232.139,689.921 "/>
<polyline clip-path="url(#clip940)" style="stroke:#000000; stroke-linecap:round; stroke-linejoin:round; stroke-width:4; stroke-opacity:1; fill:none" points="222.69,626.73 232.139,626.73 "/>
<polyline clip-path="url(#clip940)" style="stroke:#000000; stroke-linecap:round; stroke-linejoin:round; stroke-width:4; stroke-opacity:1; fill:none" points="222.69,584.694 232.139,584.694 "/>
<polyline clip-path="url(#clip940)" style="stroke:#000000; stroke-linecap:round; stroke-linejoin:round; stroke-width:4; stroke-opacity:1; fill:none" points="222.69,553.147 232.139,553.147 "/>
<polyline clip-path="url(#clip940)" style="stroke:#000000; stroke-linecap:round; stroke-linejoin:round; stroke-width:4; stroke-opacity:1; fill:none" points="222.69,396.826 232.139,396.826 "/>
<polyline clip-path="url(#clip940)" style="stroke:#000000; stroke-linecap:round; stroke-linejoin:round; stroke-width:4; stroke-opacity:1; fill:none" points="222.69,333.635 232.139,333.635 "/>
<polyline clip-path="url(#clip940)" style="stroke:#000000; stroke-linecap:round; stroke-linejoin:round; stroke-width:4; stroke-opacity:1; fill:none" points="222.69,291.599 232.139,291.599 "/>
<polyline clip-path="url(#clip940)" style="stroke:#000000; stroke-linecap:round; stroke-linejoin:round; stroke-width:4; stroke-opacity:1; fill:none" points="222.69,260.052 232.139,260.052 "/>
<path clip-path="url(#clip940)" d="M115.985 1426.96 L123.624 1426.96 L123.624 1400.6 L115.313 1402.26 L115.313 1398.01 L123.577 1396.34 L128.253 1396.34 L128.253 1426.96 L135.892 1426.96 L135.892 1430.9 L115.985 1430.9 L115.985 1426.96 Z" fill="#000000" fill-rule="nonzero" fill-opacity="1" /><path clip-path="url(#clip940)" d="M155.336 1399.42 Q151.725 1399.42 149.897 1402.98 Q148.091 1406.52 148.091 1413.65 Q148.091 1420.76 149.897 1424.32 Q151.725 1427.87 155.336 1427.87 Q158.971 1427.87 160.776 1424.32 Q162.605 1420.76 162.605 1413.65 Q162.605 1406.52 160.776 1402.98 Q158.971 1399.42 155.336 1399.42 M155.336 1395.71 Q161.146 1395.71 164.202 1400.32 Q167.281 1404.9 167.281 1413.65 Q167.281 1422.38 164.202 1426.99 Q161.146 1431.57 155.336 1431.57 Q149.526 1431.57 146.447 1426.99 Q143.392 1422.38 143.392 1413.65 Q143.392 1404.9 146.447 1400.32 Q149.526 1395.71 155.336 1395.71 Z" fill="#000000" fill-rule="nonzero" fill-opacity="1" /><path clip-path="url(#clip940)" d="M176.986 1377.91 Q174.052 1377.91 172.566 1380.81 Q171.099 1383.68 171.099 1389.48 Q171.099 1395.25 172.566 1398.15 Q174.052 1401.02 176.986 1401.02 Q179.938 1401.02 181.405 1398.15 Q182.891 1395.25 182.891 1389.48 Q182.891 1383.68 181.405 1380.81 Q179.938 1377.91 176.986 1377.91 M176.986 1374.9 Q181.706 1374.9 184.189 1378.64 Q186.69 1382.37 186.69 1389.48 Q186.69 1396.57 184.189 1400.31 Q181.706 1404.03 176.986 1404.03 Q172.265 1404.03 169.763 1400.31 Q167.281 1396.57 167.281 1389.48 Q167.281 1382.37 169.763 1378.64 Q172.265 1374.9 176.986 1374.9 Z" fill="#000000" fill-rule="nonzero" fill-opacity="1" /><path clip-path="url(#clip940)" d="M118.674 1133.87 L126.313 1133.87 L126.313 1107.5 L118.003 1109.17 L118.003 1104.91 L126.267 1103.24 L130.943 1103.24 L130.943 1133.87 L138.581 1133.87 L138.581 1137.8 L118.674 1137.8 L118.674 1133.87 Z" fill="#000000" fill-rule="nonzero" fill-opacity="1" /><path clip-path="url(#clip940)" d="M158.026 1106.32 Q154.415 1106.32 152.586 1109.89 Q150.781 1113.43 150.781 1120.56 Q150.781 1127.66 152.586 1131.23 Q154.415 1134.77 158.026 1134.77 Q161.66 1134.77 163.466 1131.23 Q165.294 1127.66 165.294 1120.56 Q165.294 1113.43 163.466 1109.89 Q161.66 1106.32 158.026 1106.32 M158.026 1102.62 Q163.836 1102.62 166.892 1107.23 Q169.97 1111.81 169.97 1120.56 Q169.97 1129.29 166.892 1133.89 Q163.836 1138.47 158.026 1138.47 Q152.216 1138.47 149.137 1133.89 Q146.081 1129.29 146.081 1120.56 Q146.081 1111.81 149.137 1107.23 Q152.216 1102.62 158.026 1102.62 Z" fill="#000000" fill-rule="nonzero" fill-opacity="1" /><path clip-path="url(#clip940)" d="M170.516 1107.2 L176.722 1107.2 L176.722 1085.77 L169.97 1087.13 L169.97 1083.67 L176.685 1082.31 L180.484 1082.31 L180.484 1107.2 L186.69 1107.2 L186.69 1110.39 L170.516 1110.39 L170.516 1107.2 Z" fill="#000000" fill-rule="nonzero" fill-opacity="1" /><path clip-path="url(#clip940)" d="M117.565 840.773 L125.203 840.773 L125.203 814.408 L116.893 816.074 L116.893 811.815 L125.157 810.149 L129.833 810.149 L129.833 840.773 L137.472 840.773 L137.472 844.709 L117.565 844.709 L117.565 840.773 Z" fill="#000000" fill-rule="nonzero" fill-opacity="1" /><path clip-path="url(#clip940)" d="M156.916 813.227 Q153.305 813.227 151.476 816.792 Q149.671 820.334 149.671 827.463 Q149.671 834.57 151.476 838.135 Q153.305 841.676 156.916 841.676 Q160.55 841.676 162.356 838.135 Q164.185 834.57 164.185 827.463 Q164.185 820.334 162.356 816.792 Q160.55 813.227 156.916 813.227 M156.916 809.524 Q162.726 809.524 165.782 814.13 Q168.861 818.713 168.861 827.463 Q168.861 836.19 165.782 840.797 Q162.726 845.38 156.916 845.38 Q151.106 845.38 148.027 840.797 Q144.972 836.19 144.972 827.463 Q144.972 818.713 148.027 814.13 Q151.106 809.524 156.916 809.524 Z" fill="#000000" fill-rule="nonzero" fill-opacity="1" /><path clip-path="url(#clip940)" d="M173.431 814.101 L186.69 814.101 L186.69 817.298 L168.861 817.298 L168.861 814.101 Q171.023 811.863 174.747 808.101 Q178.49 804.321 179.449 803.23 Q181.274 801.18 181.988 799.769 Q182.722 798.34 182.722 796.967 Q182.722 794.729 181.142 793.318 Q179.581 791.908 177.061 791.908 Q175.274 791.908 173.28 792.528 Q171.306 793.149 169.049 794.409 L169.049 790.572 Q171.343 789.651 173.337 789.181 Q175.33 788.71 176.986 788.71 Q181.349 788.71 183.944 790.892 Q186.54 793.074 186.54 796.722 Q186.54 798.453 185.882 800.014 Q185.242 801.556 183.531 803.663 Q183.06 804.208 180.54 806.822 Q178.02 809.418 173.431 814.101 Z" fill="#000000" fill-rule="nonzero" fill-opacity="1" /><path clip-path="url(#clip940)" d="M116.906 547.678 L124.545 547.678 L124.545 521.313 L116.235 522.979 L116.235 518.72 L124.499 517.053 L129.175 517.053 L129.175 547.678 L136.814 547.678 L136.814 551.613 L116.906 551.613 L116.906 547.678 Z" fill="#000000" fill-rule="nonzero" fill-opacity="1" /><path clip-path="url(#clip940)" d="M156.258 520.132 Q152.647 520.132 150.818 523.697 Q149.013 527.239 149.013 534.368 Q149.013 541.475 150.818 545.039 Q152.647 548.581 156.258 548.581 Q159.892 548.581 161.698 545.039 Q163.526 541.475 163.526 534.368 Q163.526 527.239 161.698 523.697 Q159.892 520.132 156.258 520.132 M156.258 516.428 Q162.068 516.428 165.124 521.035 Q168.202 525.618 168.202 534.368 Q168.202 543.095 165.124 547.701 Q162.068 552.285 156.258 552.285 Q150.448 552.285 147.369 547.701 Q144.314 543.095 144.314 534.368 Q144.314 525.618 147.369 521.035 Q150.448 516.428 156.258 516.428 Z" fill="#000000" fill-rule="nonzero" fill-opacity="1" /><path clip-path="url(#clip940)" d="M180.898 509.063 Q183.625 509.646 185.148 511.489 Q186.69 513.332 186.69 516.041 Q186.69 520.197 183.832 522.473 Q180.973 524.749 175.707 524.749 Q173.939 524.749 172.058 524.391 Q170.196 524.053 168.202 523.357 L168.202 519.689 Q169.782 520.611 171.663 521.081 Q173.544 521.551 175.594 521.551 Q179.167 521.551 181.029 520.141 Q182.91 518.73 182.91 516.041 Q182.91 513.558 181.161 512.166 Q179.431 510.756 176.327 510.756 L173.055 510.756 L173.055 507.633 L176.478 507.633 Q179.28 507.633 180.766 506.524 Q182.252 505.395 182.252 503.289 Q182.252 501.126 180.709 499.979 Q179.186 498.813 176.327 498.813 Q174.766 498.813 172.979 499.151 Q171.193 499.49 169.049 500.204 L169.049 496.819 Q171.212 496.217 173.092 495.916 Q174.992 495.615 176.666 495.615 Q180.992 495.615 183.512 497.59 Q186.032 499.546 186.032 502.894 Q186.032 505.226 184.697 506.844 Q183.361 508.442 180.898 509.063 Z" fill="#000000" fill-rule="nonzero" fill-opacity="1" /><path clip-path="url(#clip940)" d="M114.931 254.583 L122.57 254.583 L122.57 228.218 L114.26 229.884 L114.26 225.625 L122.524 223.958 L127.2 223.958 L127.2 254.583 L134.839 254.583 L134.839 258.518 L114.931 258.518 L114.931 254.583 Z" fill="#000000" fill-rule="nonzero" fill-opacity="1" /><path clip-path="url(#clip940)" d="M154.283 227.037 Q150.672 227.037 148.843 230.602 Q147.038 234.144 147.038 241.273 Q147.038 248.38 148.843 251.944 Q150.672 255.486 154.283 255.486 Q157.917 255.486 159.723 251.944 Q161.552 248.38 161.552 241.273 Q161.552 234.144 159.723 230.602 Q157.917 227.037 154.283 227.037 M154.283 223.333 Q160.093 223.333 163.149 227.94 Q166.227 232.523 166.227 241.273 Q166.227 250 163.149 254.606 Q160.093 259.19 154.283 259.19 Q148.473 259.19 145.394 254.606 Q142.339 250 142.339 241.273 Q142.339 232.523 145.394 227.94 Q148.473 223.333 154.283 223.333 Z" fill="#000000" fill-rule="nonzero" fill-opacity="1" /><path clip-path="url(#clip940)" d="M178.904 206.338 L169.312 221.328 L178.904 221.328 L178.904 206.338 M177.907 203.028 L182.684 203.028 L182.684 221.328 L186.69 221.328 L186.69 224.488 L182.684 224.488 L182.684 231.108 L178.904 231.108 L178.904 224.488 L166.227 224.488 L166.227 220.82 L177.907 203.028 Z" fill="#000000" fill-rule="nonzero" fill-opacity="1" /><path clip-path="url(#clip940)" d="M41.7242 864.047 Q42.4244 861.979 44.7161 860.037 Q47.0077 858.064 51.0181 856.09 L64.0042 849.565 L64.0042 856.472 L51.8138 862.551 Q47.0395 864.907 45.48 867.135 Q43.9204 869.331 43.9204 873.15 L43.9204 880.153 L64.0042 880.153 L64.0042 886.582 L16.4842 886.582 L16.4842 872.068 Q16.4842 863.92 19.8898 859.91 Q23.2955 855.899 30.1704 855.899 Q34.6582 855.899 37.6183 858 Q40.5784 860.069 41.7242 864.047 M21.7677 880.153 L38.6368 880.153 L38.6368 872.068 Q38.6368 867.421 36.5043 865.066 Q34.34 862.679 30.1704 862.679 Q26.0009 862.679 23.9002 865.066 Q21.7677 867.421 21.7677 872.068 L21.7677 880.153 Z" fill="#000000" fill-rule="nonzero" fill-opacity="1" /><path clip-path="url(#clip940)" d="M46.0847 826.776 Q46.0847 833.874 47.7079 836.611 Q49.3312 839.348 53.2461 839.348 Q56.3653 839.348 58.2114 837.311 Q60.0256 835.243 60.0256 831.71 Q60.0256 826.84 56.5881 823.912 Q53.1188 820.952 47.3897 820.952 L46.0847 820.952 L46.0847 826.776 M43.6657 815.095 L64.0042 815.095 L64.0042 820.952 L58.5933 820.952 Q61.8398 822.957 63.3994 825.949 Q64.9272 828.941 64.9272 833.269 Q64.9272 838.744 61.8716 841.99 Q58.7843 845.205 53.6281 845.205 Q47.6125 845.205 44.5569 841.195 Q41.5014 837.152 41.5014 829.163 L41.5014 820.952 L40.9285 820.952 Q36.8862 820.952 34.6901 823.625 Q32.4621 826.267 32.4621 831.073 Q32.4621 834.129 33.1941 837.025 Q33.9262 839.921 35.3903 842.595 L29.9795 842.595 Q28.7381 839.38 28.1334 836.357 Q27.4968 833.333 27.4968 830.468 Q27.4968 822.734 31.5072 818.915 Q35.5176 815.095 43.6657 815.095 Z" fill="#000000" fill-rule="nonzero" fill-opacity="1" /><path clip-path="url(#clip940)" d="M18.2347 797.239 L28.3562 797.239 L28.3562 785.176 L32.9077 785.176 L32.9077 797.239 L52.2594 797.239 Q56.6199 797.239 57.8613 796.062 Q59.1026 794.852 59.1026 791.192 L59.1026 785.176 L64.0042 785.176 L64.0042 791.192 Q64.0042 797.971 61.4897 800.55 Q58.9434 803.128 52.2594 803.128 L32.9077 803.128 L32.9077 807.424 L28.3562 807.424 L28.3562 803.128 L18.2347 803.128 L18.2347 797.239 Z" fill="#000000" fill-rule="nonzero" fill-opacity="1" /><path clip-path="url(#clip940)" d="M28.3562 777.474 L28.3562 771.617 L64.0042 771.617 L64.0042 777.474 L28.3562 777.474 M14.479 777.474 L14.479 771.617 L21.895 771.617 L21.895 777.474 L14.479 777.474 Z" fill="#000000" fill-rule="nonzero" fill-opacity="1" /><path clip-path="url(#clip940)" d="M32.4621 745.55 Q32.4621 750.26 36.1542 752.998 Q39.8145 755.735 46.212 755.735 Q52.6095 755.735 56.3017 753.03 Q59.9619 750.292 59.9619 745.55 Q59.9619 740.871 56.2698 738.134 Q52.5777 735.396 46.212 735.396 Q39.8781 735.396 36.186 738.134 Q32.4621 740.871 32.4621 745.55 M27.4968 745.55 Q27.4968 737.911 32.4621 733.55 Q37.4273 729.19 46.212 729.19 Q54.9649 729.19 59.9619 733.55 Q64.9272 737.911 64.9272 745.55 Q64.9272 753.22 59.9619 757.581 Q54.9649 761.91 46.212 761.91 Q37.4273 761.91 32.4621 757.581 Q27.4968 753.22 27.4968 745.55 Z" fill="#000000" fill-rule="nonzero" fill-opacity="1" /><path clip-path="url(#clip940)" d="M890.677 30.24 L927.222 30.24 L927.222 35.159 L911.886 35.159 L911.886 73.44 L906.012 73.44 L906.012 35.159 L890.677 35.159 L890.677 30.24 Z" fill="#000000" fill-rule="nonzero" fill-opacity="1" /><path clip-path="url(#clip940)" d="M930.81 41.0328 L936.134 41.0328 L936.134 73.44 L930.81 73.44 L930.81 41.0328 M930.81 28.4171 L936.134 28.4171 L936.134 35.159 L930.81 35.159 L930.81 28.4171 Z" fill="#000000" fill-rule="nonzero" fill-opacity="1" /><path clip-path="url(#clip940)" d="M972.505 47.2538 Q974.501 43.6659 977.279 41.9587 Q980.057 40.2515 983.818 40.2515 Q988.882 40.2515 991.631 43.8105 Q994.38 47.3406 994.38 53.8799 L994.38 73.44 L989.027 73.44 L989.027 54.0535 Q989.027 49.395 987.378 47.1381 Q985.728 44.8811 982.343 44.8811 Q978.205 44.8811 975.803 47.63 Q973.402 50.3788 973.402 55.1241 L973.402 73.44 L968.049 73.44 L968.049 54.0535 Q968.049 49.3661 966.4 47.1381 Q964.75 44.8811 961.307 44.8811 Q957.227 44.8811 954.826 47.6589 Q952.424 50.4077 952.424 55.1241 L952.424 73.44 L947.071 73.44 L947.071 41.0328 L952.424 41.0328 L952.424 46.0675 Q954.247 43.0872 956.793 41.6693 Q959.339 40.2515 962.841 40.2515 Q966.371 40.2515 968.83 42.0455 Q971.319 43.8395 972.505 47.2538 Z" fill="#000000" fill-rule="nonzero" fill-opacity="1" /><path clip-path="url(#clip940)" d="M1032.72 55.9054 L1032.72 58.5095 L1008.24 58.5095 Q1008.59 64.0072 1011.54 66.9007 Q1014.52 69.7653 1019.81 69.7653 Q1022.88 69.7653 1025.75 69.0129 Q1028.64 68.2606 1031.47 66.756 L1031.47 71.7907 Q1028.61 73.006 1025.6 73.6425 Q1022.59 74.2791 1019.5 74.2791 Q1011.74 74.2791 1007.2 69.7653 Q1002.68 65.2514 1002.68 57.5547 Q1002.68 49.5975 1006.97 44.939 Q1011.28 40.2515 1018.57 40.2515 Q1025.11 40.2515 1028.9 44.476 Q1032.72 48.6716 1032.72 55.9054 M1027.39 54.3429 Q1027.34 49.9737 1024.94 47.3695 Q1022.56 44.7654 1018.63 44.7654 Q1014.17 44.7654 1011.48 47.2827 Q1008.82 49.8001 1008.41 54.3718 L1027.39 54.3429 Z" fill="#000000" fill-rule="nonzero" fill-opacity="1" /><path clip-path="url(#clip940)" d="M1079.07 46.0096 Q1078.18 45.4888 1077.11 45.2573 Q1076.06 44.9969 1074.79 44.9969 Q1070.28 44.9969 1067.85 47.9482 Q1065.44 50.8707 1065.44 56.3683 L1065.44 73.44 L1060.09 73.44 L1060.09 41.0328 L1065.44 41.0328 L1065.44 46.0675 Q1067.12 43.1161 1069.81 41.6983 Q1072.5 40.2515 1076.35 40.2515 Q1076.9 40.2515 1077.57 40.3383 Q1078.23 40.3962 1079.04 40.5409 L1079.07 46.0096 Z" fill="#000000" fill-rule="nonzero" fill-opacity="1" /><path clip-path="url(#clip940)" d="M1099.39 57.1496 Q1092.93 57.1496 1090.44 58.6253 Q1087.96 60.101 1087.96 63.66 Q1087.96 66.4956 1089.81 68.1738 Q1091.69 69.8231 1094.9 69.8231 Q1099.33 69.8231 1101.99 66.6981 Q1104.68 63.5442 1104.68 58.3359 L1104.68 57.1496 L1099.39 57.1496 M1110 54.9505 L1110 73.44 L1104.68 73.44 L1104.68 68.521 Q1102.86 71.4724 1100.14 72.8902 Q1097.42 74.2791 1093.48 74.2791 Q1088.51 74.2791 1085.55 71.5014 Q1082.63 68.6947 1082.63 64.0072 Q1082.63 58.5385 1086.28 55.7607 Q1089.95 52.9829 1097.21 52.9829 L1104.68 52.9829 L1104.68 52.4621 Q1104.68 48.7874 1102.25 46.7908 Q1099.85 44.7654 1095.48 44.7654 Q1092.7 44.7654 1090.07 45.4309 Q1087.43 46.0964 1085 47.4274 L1085 42.5085 Q1087.93 41.38 1090.68 40.8302 Q1093.42 40.2515 1096.03 40.2515 Q1103.06 40.2515 1106.53 43.8973 Q1110 47.5431 1110 54.9505 Z" fill="#000000" fill-rule="nonzero" fill-opacity="1" /><path clip-path="url(#clip940)" d="M1126.24 31.8314 L1126.24 41.0328 L1137.2 41.0328 L1137.2 45.1705 L1126.24 45.1705 L1126.24 62.763 Q1126.24 66.7271 1127.31 67.8555 Q1128.41 68.984 1131.73 68.984 L1137.2 68.984 L1137.2 73.44 L1131.73 73.44 Q1125.57 73.44 1123.23 71.1541 Q1120.88 68.8393 1120.88 62.763 L1120.88 45.1705 L1116.98 45.1705 L1116.98 41.0328 L1120.88 41.0328 L1120.88 31.8314 L1126.24 31.8314 Z" fill="#000000" fill-rule="nonzero" fill-opacity="1" /><path clip-path="url(#clip940)" d="M1144.21 41.0328 L1149.53 41.0328 L1149.53 73.44 L1144.21 73.44 L1144.21 41.0328 M1144.21 28.4171 L1149.53 28.4171 L1149.53 35.159 L1144.21 35.159 L1144.21 28.4171 Z" fill="#000000" fill-rule="nonzero" fill-opacity="1" /><path clip-path="url(#clip940)" d="M1173.23 44.7654 Q1168.94 44.7654 1166.46 48.1218 Q1163.97 51.4494 1163.97 57.2653 Q1163.97 63.0813 1166.43 66.4377 Q1168.92 69.7653 1173.23 69.7653 Q1177.48 69.7653 1179.97 66.4088 Q1182.46 63.0523 1182.46 57.2653 Q1182.46 51.5072 1179.97 48.1508 Q1177.48 44.7654 1173.23 44.7654 M1173.23 40.2515 Q1180.17 40.2515 1184.14 44.7654 Q1188.1 49.2792 1188.1 57.2653 Q1188.1 65.2225 1184.14 69.7653 Q1180.17 74.2791 1173.23 74.2791 Q1166.25 74.2791 1162.29 69.7653 Q1158.35 65.2225 1158.35 57.2653 Q1158.35 49.2792 1162.29 44.7654 Q1166.25 40.2515 1173.23 40.2515 Z" fill="#000000" fill-rule="nonzero" fill-opacity="1" /><path clip-path="url(#clip940)" d="M1198.28 66.0905 L1204.39 66.0905 L1204.39 71.0673 L1199.64 80.3265 L1195.91 80.3265 L1198.28 71.0673 L1198.28 66.0905 Z" fill="#000000" fill-rule="nonzero" fill-opacity="1" /><path clip-path="url(#clip940)" d="M1260.73 31.6578 L1260.73 37.358 Q1257.4 35.7666 1254.45 34.9853 Q1251.5 34.2041 1248.75 34.2041 Q1243.97 34.2041 1241.37 36.0559 Q1238.79 37.9078 1238.79 41.3221 Q1238.79 44.1867 1240.5 45.6624 Q1242.24 47.1091 1247.04 48.0061 L1250.57 48.7295 Q1257.11 49.9737 1260.21 53.1276 Q1263.33 56.2526 1263.33 61.5188 Q1263.33 67.7977 1259.11 71.0384 Q1254.91 74.2791 1246.78 74.2791 Q1243.71 74.2791 1240.24 73.5847 Q1236.8 72.8902 1233.09 71.5303 L1233.09 65.5118 Q1236.65 67.5083 1240.07 68.521 Q1243.48 69.5338 1246.78 69.5338 Q1251.79 69.5338 1254.51 67.5662 Q1257.23 65.5986 1257.23 61.9528 Q1257.23 58.7699 1255.26 56.976 Q1253.32 55.182 1248.86 54.285 L1245.3 53.5906 Q1238.77 52.2885 1235.84 49.5107 Q1232.92 46.733 1232.92 41.7851 Q1232.92 36.0559 1236.94 32.7573 Q1240.99 29.4588 1248.08 29.4588 Q1251.12 29.4588 1254.27 30.0085 Q1257.43 30.5583 1260.73 31.6578 Z" fill="#000000" fill-rule="nonzero" fill-opacity="1" /><path clip-path="url(#clip940)" d="M1285.7 76.4492 Q1283.44 82.2362 1281.3 84.0013 Q1279.16 85.7663 1275.57 85.7663 L1271.32 85.7663 L1271.32 81.3103 L1274.44 81.3103 Q1276.64 81.3103 1277.86 80.2687 Q1279.07 79.227 1280.55 75.3497 L1281.5 72.9192 L1268.39 41.0328 L1274.04 41.0328 L1284.16 66.3799 L1294.29 41.0328 L1299.93 41.0328 L1285.7 76.4492 Z" fill="#000000" fill-rule="nonzero" fill-opacity="1" /><path clip-path="url(#clip940)" d="M1332.51 47.2538 Q1334.51 43.6659 1337.29 41.9587 Q1340.07 40.2515 1343.83 40.2515 Q1348.89 40.2515 1351.64 43.8105 Q1354.39 47.3406 1354.39 53.8799 L1354.39 73.44 L1349.04 73.44 L1349.04 54.0535 Q1349.04 49.395 1347.39 47.1381 Q1345.74 44.8811 1342.35 44.8811 Q1338.21 44.8811 1335.81 47.63 Q1333.41 50.3788 1333.41 55.1241 L1333.41 73.44 L1328.06 73.44 L1328.06 54.0535 Q1328.06 49.3661 1326.41 47.1381 Q1324.76 44.8811 1321.32 44.8811 Q1317.24 44.8811 1314.84 47.6589 Q1312.43 50.4077 1312.43 55.1241 L1312.43 73.44 L1307.08 73.44 L1307.08 41.0328 L1312.43 41.0328 L1312.43 46.0675 Q1314.26 43.0872 1316.8 41.6693 Q1319.35 40.2515 1322.85 40.2515 Q1326.38 40.2515 1328.84 42.0455 Q1331.33 43.8395 1332.51 47.2538 Z" fill="#000000" fill-rule="nonzero" fill-opacity="1" /><path clip-path="url(#clip940)" d="M1388.27 57.2653 Q1388.27 51.3915 1385.84 48.064 Q1383.44 44.7075 1379.22 44.7075 Q1374.99 44.7075 1372.56 48.064 Q1370.16 51.3915 1370.16 57.2653 Q1370.16 63.1391 1372.56 66.4956 Q1374.99 69.8231 1379.22 69.8231 Q1383.44 69.8231 1385.84 66.4956 Q1388.27 63.1391 1388.27 57.2653 M1370.16 45.9517 Q1371.84 43.0582 1374.38 41.6693 Q1376.96 40.2515 1380.52 40.2515 Q1386.42 40.2515 1390.1 44.939 Q1393.8 49.6265 1393.8 57.2653 Q1393.8 64.9042 1390.1 69.5916 Q1386.42 74.2791 1380.52 74.2791 Q1376.96 74.2791 1374.38 72.8902 Q1371.84 71.4724 1370.16 68.5789 L1370.16 73.44 L1364.81 73.44 L1364.81 28.4171 L1370.16 28.4171 L1370.16 45.9517 Z" fill="#000000" fill-rule="nonzero" fill-opacity="1" /><path clip-path="url(#clip940)" d="M1415.18 44.7654 Q1410.9 44.7654 1408.41 48.1218 Q1405.92 51.4494 1405.92 57.2653 Q1405.92 63.0813 1408.38 66.4377 Q1410.87 69.7653 1415.18 69.7653 Q1419.44 69.7653 1421.92 66.4088 Q1424.41 63.0523 1424.41 57.2653 Q1424.41 51.5072 1421.92 48.1508 Q1419.44 44.7654 1415.18 44.7654 M1415.18 40.2515 Q1422.13 40.2515 1426.09 44.7654 Q1430.05 49.2792 1430.05 57.2653 Q1430.05 65.2225 1426.09 69.7653 Q1422.13 74.2791 1415.18 74.2791 Q1408.21 74.2791 1404.24 69.7653 Q1400.31 65.2225 1400.31 57.2653 Q1400.31 49.2792 1404.24 44.7654 Q1408.21 40.2515 1415.18 40.2515 Z" fill="#000000" fill-rule="nonzero" fill-opacity="1" /><path clip-path="url(#clip940)" d="M1438.88 28.4171 L1444.2 28.4171 L1444.2 73.44 L1438.88 73.44 L1438.88 28.4171 Z" fill="#000000" fill-rule="nonzero" fill-opacity="1" /><path clip-path="url(#clip940)" d="M1455.34 41.0328 L1460.67 41.0328 L1460.67 73.44 L1455.34 73.44 L1455.34 41.0328 M1455.34 28.4171 L1460.67 28.4171 L1460.67 35.159 L1455.34 35.159 L1455.34 28.4171 Z" fill="#000000" fill-rule="nonzero" fill-opacity="1" /><path clip-path="url(#clip940)" d="M1495.13 42.277 L1495.13 47.2538 Q1492.87 46.0096 1490.59 45.402 Q1488.33 44.7654 1486.01 44.7654 Q1480.84 44.7654 1477.97 48.064 Q1475.11 51.3336 1475.11 57.2653 Q1475.11 63.197 1477.97 66.4956 Q1480.84 69.7653 1486.01 69.7653 Q1488.33 69.7653 1490.59 69.1576 Q1492.87 68.521 1495.13 67.2768 L1495.13 72.1958 Q1492.9 73.2375 1490.5 73.7583 Q1488.13 74.2791 1485.44 74.2791 Q1478.12 74.2791 1473.8 69.6784 Q1469.49 65.0778 1469.49 57.2653 Q1469.49 49.3371 1473.83 44.7943 Q1478.2 40.2515 1485.78 40.2515 Q1488.24 40.2515 1490.59 40.7724 Q1492.93 41.2642 1495.13 42.277 Z" fill="#000000" fill-rule="nonzero" fill-opacity="1" /><path clip-path="url(#clip940)" d="M1525.05 41.9876 L1525.05 47.0223 Q1522.79 45.8649 1520.36 45.2862 Q1517.93 44.7075 1515.33 44.7075 Q1511.36 44.7075 1509.37 45.9228 Q1507.4 47.1381 1507.4 49.5686 Q1507.4 51.4204 1508.82 52.491 Q1510.23 53.5327 1514.52 54.4876 L1516.34 54.8926 Q1522.01 56.1079 1524.38 58.3359 Q1526.78 60.535 1526.78 64.4991 Q1526.78 69.0129 1523.2 71.646 Q1519.64 74.2791 1513.39 74.2791 Q1510.78 74.2791 1507.95 73.7583 Q1505.14 73.2664 1502.02 72.2537 L1502.02 66.756 Q1504.97 68.2896 1507.83 69.0708 Q1510.7 69.8231 1513.5 69.8231 Q1517.26 69.8231 1519.29 68.55 Q1521.32 67.2479 1521.32 64.9042 Q1521.32 62.734 1519.84 61.5766 Q1518.39 60.4192 1513.45 59.3486 L1511.59 58.9146 Q1506.65 57.873 1504.45 55.7318 Q1502.25 53.5616 1502.25 49.8001 Q1502.25 45.2283 1505.49 42.7399 Q1508.73 40.2515 1514.69 40.2515 Q1517.64 40.2515 1520.25 40.6855 Q1522.85 41.1196 1525.05 41.9876 Z" fill="#000000" fill-rule="nonzero" fill-opacity="1" /><path clip-path="url(#clip940)" d="M1544.72 30.24 L1549.64 30.24 L1534.6 78.9377 L1529.68 78.9377 L1544.72 30.24 Z" fill="#000000" fill-rule="nonzero" fill-opacity="1" /><path clip-path="url(#clip940)" d="M1555.46 30.24 L1580.29 30.24 L1580.29 35.159 L1561.3 35.159 L1561.3 47.8904 L1578.43 47.8904 L1578.43 52.8093 L1561.3 52.8093 L1561.3 73.44 L1555.46 73.44 L1555.46 30.24 Z" fill="#000000" fill-rule="nonzero" fill-opacity="1" /><path clip-path="url(#clip940)" d="M1614.4 31.6578 L1614.4 37.358 Q1611.07 35.7666 1608.12 34.9853 Q1605.17 34.2041 1602.42 34.2041 Q1597.65 34.2041 1595.04 36.0559 Q1592.47 37.9078 1592.47 41.3221 Q1592.47 44.1867 1594.17 45.6624 Q1595.91 47.1091 1600.71 48.0061 L1604.24 48.7295 Q1610.78 49.9737 1613.88 53.1276 Q1617 56.2526 1617 61.5188 Q1617 67.7977 1612.78 71.0384 Q1608.58 74.2791 1600.45 74.2791 Q1597.39 74.2791 1593.91 73.5847 Q1590.47 72.8902 1586.77 71.5303 L1586.77 65.5118 Q1590.33 67.5083 1593.74 68.521 Q1597.15 69.5338 1600.45 69.5338 Q1605.46 69.5338 1608.18 67.5662 Q1610.9 65.5986 1610.9 61.9528 Q1610.9 58.7699 1608.93 56.976 Q1606.99 55.182 1602.54 54.285 L1598.98 53.5906 Q1592.44 52.2885 1589.52 49.5107 Q1586.59 46.733 1586.59 41.7851 Q1586.59 36.0559 1590.62 32.7573 Q1594.67 29.4588 1601.75 29.4588 Q1604.79 29.4588 1607.95 30.0085 Q1611.1 30.5583 1614.4 31.6578 Z" fill="#000000" fill-rule="nonzero" fill-opacity="1" /><path clip-path="url(#clip940)" d="M1631.96 35.0432 L1631.96 68.6368 L1639.02 68.6368 Q1647.96 68.6368 1652.1 64.5859 Q1656.27 60.535 1656.27 51.7966 Q1656.27 43.1161 1652.1 39.0941 Q1647.96 35.0432 1639.02 35.0432 L1631.96 35.0432 M1626.12 30.24 L1638.13 30.24 Q1650.68 30.24 1656.56 35.4772 Q1662.43 40.6855 1662.43 51.7966 Q1662.43 62.9655 1656.53 68.2028 Q1650.63 73.44 1638.13 73.44 L1626.12 73.44 L1626.12 30.24 Z" fill="#000000" fill-rule="nonzero" fill-opacity="1" /><path clip-path="url(#clip940)" d="M999.458 106.788 L999.458 111.822 Q997.201 110.665 994.77 110.086 Q992.34 109.508 989.736 109.508 Q985.772 109.508 983.775 110.723 Q981.808 111.938 981.808 114.369 Q981.808 116.22 983.225 117.291 Q984.643 118.333 988.926 119.288 L990.748 119.693 Q996.42 120.908 998.792 123.136 Q1001.19 125.335 1001.19 129.299 Q1001.19 133.813 997.606 136.446 Q994.047 139.079 987.797 139.079 Q985.193 139.079 982.357 138.558 Q979.551 138.066 976.426 137.054 L976.426 131.556 Q979.377 133.09 982.242 133.871 Q985.106 134.623 987.913 134.623 Q991.674 134.623 993.7 133.35 Q995.725 132.048 995.725 129.704 Q995.725 127.534 994.25 126.377 Q992.803 125.219 987.855 124.149 L986.003 123.715 Q981.055 122.673 978.856 120.532 Q976.657 118.362 976.657 114.6 Q976.657 110.028 979.898 107.54 Q983.139 105.052 989.099 105.052 Q992.051 105.052 994.655 105.486 Q997.259 105.92 999.458 106.788 Z" fill="#000000" fill-rule="nonzero" fill-opacity="1" /><path clip-path="url(#clip940)" d="M1014.82 133.379 L1014.82 150.566 L1009.47 150.566 L1009.47 105.833 L1014.82 105.833 L1014.82 110.752 Q1016.5 107.858 1019.05 106.469 Q1021.62 105.052 1025.18 105.052 Q1031.08 105.052 1034.76 109.739 Q1038.46 114.426 1038.46 122.065 Q1038.46 129.704 1034.76 134.392 Q1031.08 139.079 1025.18 139.079 Q1021.62 139.079 1019.05 137.69 Q1016.5 136.272 1014.82 133.379 M1032.94 122.065 Q1032.94 116.192 1030.51 112.864 Q1028.1 109.508 1023.88 109.508 Q1019.65 109.508 1017.22 112.864 Q1014.82 116.192 1014.82 122.065 Q1014.82 127.939 1017.22 131.296 Q1019.65 134.623 1023.88 134.623 Q1028.1 134.623 1030.51 131.296 Q1032.94 127.939 1032.94 122.065 Z" fill="#000000" fill-rule="nonzero" fill-opacity="1" /><path clip-path="url(#clip940)" d="M1074.23 118.68 L1074.23 138.24 L1068.9 138.24 L1068.9 118.854 Q1068.9 114.253 1067.11 111.967 Q1065.31 109.681 1061.73 109.681 Q1057.41 109.681 1054.93 112.43 Q1052.44 115.179 1052.44 119.924 L1052.44 138.24 L1047.08 138.24 L1047.08 93.2171 L1052.44 93.2171 L1052.44 110.867 Q1054.35 107.945 1056.92 106.498 Q1059.53 105.052 1062.91 105.052 Q1068.5 105.052 1071.36 108.524 Q1074.23 111.967 1074.23 118.68 Z" fill="#000000" fill-rule="nonzero" fill-opacity="1" /><path clip-path="url(#clip940)" d="M1112.56 120.705 L1112.56 123.31 L1088.09 123.31 Q1088.43 128.807 1091.38 131.701 Q1094.36 134.565 1099.66 134.565 Q1102.73 134.565 1105.59 133.813 Q1108.49 133.061 1111.32 131.556 L1111.32 136.591 Q1108.46 137.806 1105.45 138.443 Q1102.44 139.079 1099.34 139.079 Q1091.59 139.079 1087.04 134.565 Q1082.53 130.051 1082.53 122.355 Q1082.53 114.398 1086.81 109.739 Q1091.12 105.052 1098.42 105.052 Q1104.95 105.052 1108.75 109.276 Q1112.56 113.472 1112.56 120.705 M1107.24 119.143 Q1107.18 114.774 1104.78 112.17 Q1102.41 109.565 1098.47 109.565 Q1094.02 109.565 1091.33 112.083 Q1088.66 114.6 1088.26 119.172 L1107.24 119.143 Z" fill="#000000" fill-rule="nonzero" fill-opacity="1" /><path clip-path="url(#clip940)" d="M1140.08 110.81 Q1139.19 110.289 1138.11 110.057 Q1137.07 109.797 1135.8 109.797 Q1131.29 109.797 1128.86 112.748 Q1126.45 115.671 1126.45 121.168 L1126.45 138.24 L1121.1 138.24 L1121.1 105.833 L1126.45 105.833 L1126.45 110.867 Q1128.13 107.916 1130.82 106.498 Q1133.51 105.052 1137.36 105.052 Q1137.91 105.052 1138.58 105.138 Q1139.24 105.196 1140.05 105.341 L1140.08 110.81 Z" fill="#000000" fill-rule="nonzero" fill-opacity="1" /><path clip-path="url(#clip940)" d="M1145.67 105.833 L1150.99 105.833 L1150.99 138.24 L1145.67 138.24 L1145.67 105.833 M1145.67 93.2171 L1150.99 93.2171 L1150.99 99.959 L1145.67 99.959 L1145.67 93.2171 Z" fill="#000000" fill-rule="nonzero" fill-opacity="1" /><path clip-path="url(#clip940)" d="M1185.45 107.077 L1185.45 112.054 Q1183.2 110.81 1180.91 110.202 Q1178.65 109.565 1176.34 109.565 Q1171.16 109.565 1168.29 112.864 Q1165.43 116.134 1165.43 122.065 Q1165.43 127.997 1168.29 131.296 Q1171.16 134.565 1176.34 134.565 Q1178.65 134.565 1180.91 133.958 Q1183.2 133.321 1185.45 132.077 L1185.45 136.996 Q1183.22 138.037 1180.82 138.558 Q1178.45 139.079 1175.76 139.079 Q1168.44 139.079 1164.13 134.478 Q1159.82 129.878 1159.82 122.065 Q1159.82 114.137 1164.16 109.594 Q1168.53 105.052 1176.11 105.052 Q1178.57 105.052 1180.91 105.572 Q1183.25 106.064 1185.45 107.077 Z" fill="#000000" fill-rule="nonzero" fill-opacity="1" /><path clip-path="url(#clip940)" d="M1209.44 121.95 Q1202.99 121.95 1200.5 123.425 Q1198.01 124.901 1198.01 128.46 Q1198.01 131.296 1199.86 132.974 Q1201.74 134.623 1204.95 134.623 Q1209.38 134.623 1212.04 131.498 Q1214.73 128.344 1214.73 123.136 L1214.73 121.95 L1209.44 121.95 M1220.06 119.751 L1220.06 138.24 L1214.73 138.24 L1214.73 133.321 Q1212.91 136.272 1210.19 137.69 Q1207.47 139.079 1203.54 139.079 Q1198.56 139.079 1195.61 136.301 Q1192.69 133.495 1192.69 128.807 Q1192.69 123.338 1196.33 120.561 Q1200.01 117.783 1207.27 117.783 L1214.73 117.783 L1214.73 117.262 Q1214.73 113.587 1212.3 111.591 Q1209.9 109.565 1205.53 109.565 Q1202.76 109.565 1200.12 110.231 Q1197.49 110.896 1195.06 112.227 L1195.06 107.308 Q1197.98 106.18 1200.73 105.63 Q1203.48 105.052 1206.08 105.052 Q1213.11 105.052 1216.59 108.697 Q1220.06 112.343 1220.06 119.751 Z" fill="#000000" fill-rule="nonzero" fill-opacity="1" /><path clip-path="url(#clip940)" d="M1231.02 93.2171 L1236.35 93.2171 L1236.35 138.24 L1231.02 138.24 L1231.02 93.2171 Z" fill="#000000" fill-rule="nonzero" fill-opacity="1" /><path clip-path="url(#clip940)" d="M1272.11 148.078 L1272.11 152.216 L1241.33 152.216 L1241.33 148.078 L1272.11 148.078 Z" fill="#000000" fill-rule="nonzero" fill-opacity="1" /><path clip-path="url(#clip940)" d="M1304.06 118.68 L1304.06 138.24 L1298.73 138.24 L1298.73 118.854 Q1298.73 114.253 1296.94 111.967 Q1295.14 109.681 1291.56 109.681 Q1287.25 109.681 1284.76 112.43 Q1282.27 115.179 1282.27 119.924 L1282.27 138.24 L1276.92 138.24 L1276.92 93.2171 L1282.27 93.2171 L1282.27 110.867 Q1284.18 107.945 1286.75 106.498 Q1289.36 105.052 1292.74 105.052 Q1298.33 105.052 1301.19 108.524 Q1304.06 111.967 1304.06 118.68 Z" fill="#000000" fill-rule="nonzero" fill-opacity="1" /><path clip-path="url(#clip940)" d="M1329.4 121.95 Q1322.95 121.95 1320.46 123.425 Q1317.97 124.901 1317.97 128.46 Q1317.97 131.296 1319.83 132.974 Q1321.71 134.623 1324.92 134.623 Q1329.35 134.623 1332.01 131.498 Q1334.7 128.344 1334.7 123.136 L1334.7 121.95 L1329.4 121.95 M1340.02 119.751 L1340.02 138.24 L1334.7 138.24 L1334.7 133.321 Q1332.88 136.272 1330.16 137.69 Q1327.44 139.079 1323.5 139.079 Q1318.52 139.079 1315.57 136.301 Q1312.65 133.495 1312.65 128.807 Q1312.65 123.338 1316.3 120.561 Q1319.97 117.783 1327.23 117.783 L1334.7 117.783 L1334.7 117.262 Q1334.7 113.587 1332.27 111.591 Q1329.87 109.565 1325.5 109.565 Q1322.72 109.565 1320.09 110.231 Q1317.45 110.896 1315.02 112.227 L1315.02 107.308 Q1317.95 106.18 1320.69 105.63 Q1323.44 105.052 1326.05 105.052 Q1333.08 105.052 1336.55 108.697 Q1340.02 112.343 1340.02 119.751 Z" fill="#000000" fill-rule="nonzero" fill-opacity="1" /><path clip-path="url(#clip940)" d="M1369.77 110.81 Q1368.87 110.289 1367.8 110.057 Q1366.76 109.797 1365.49 109.797 Q1360.97 109.797 1358.54 112.748 Q1356.14 115.671 1356.14 121.168 L1356.14 138.24 L1350.79 138.24 L1350.79 105.833 L1356.14 105.833 L1356.14 110.867 Q1357.82 107.916 1360.51 106.498 Q1363.2 105.052 1367.05 105.052 Q1367.6 105.052 1368.26 105.138 Q1368.93 105.196 1369.74 105.341 L1369.77 110.81 Z" fill="#000000" fill-rule="nonzero" fill-opacity="1" /><path clip-path="url(#clip940)" d="M1399.54 112.054 Q1401.54 108.466 1404.32 106.759 Q1407.09 105.052 1410.86 105.052 Q1415.92 105.052 1418.67 108.611 Q1421.42 112.141 1421.42 118.68 L1421.42 138.24 L1416.06 138.24 L1416.06 118.854 Q1416.06 114.195 1414.42 111.938 Q1412.77 109.681 1409.38 109.681 Q1405.24 109.681 1402.84 112.43 Q1400.44 115.179 1400.44 119.924 L1400.44 138.24 L1395.09 138.24 L1395.09 118.854 Q1395.09 114.166 1393.44 111.938 Q1391.79 109.681 1388.34 109.681 Q1384.26 109.681 1381.86 112.459 Q1379.46 115.208 1379.46 119.924 L1379.46 138.24 L1374.11 138.24 L1374.11 105.833 L1379.46 105.833 L1379.46 110.867 Q1381.28 107.887 1383.83 106.469 Q1386.38 105.052 1389.88 105.052 Q1393.41 105.052 1395.87 106.845 Q1398.36 108.639 1399.54 112.054 Z" fill="#000000" fill-rule="nonzero" fill-opacity="1" /><path clip-path="url(#clip940)" d="M1444.59 109.565 Q1440.31 109.565 1437.82 112.922 Q1435.34 116.249 1435.34 122.065 Q1435.34 127.881 1437.79 131.238 Q1440.28 134.565 1444.59 134.565 Q1448.85 134.565 1451.34 131.209 Q1453.82 127.852 1453.82 122.065 Q1453.82 116.307 1451.34 112.951 Q1448.85 109.565 1444.59 109.565 M1444.59 105.052 Q1451.54 105.052 1455.5 109.565 Q1459.47 114.079 1459.47 122.065 Q1459.47 130.022 1455.5 134.565 Q1451.54 139.079 1444.59 139.079 Q1437.62 139.079 1433.66 134.565 Q1429.72 130.022 1429.72 122.065 Q1429.72 114.079 1433.66 109.565 Q1437.62 105.052 1444.59 105.052 Z" fill="#000000" fill-rule="nonzero" fill-opacity="1" /><path clip-path="url(#clip940)" d="M1495.23 118.68 L1495.23 138.24 L1489.91 138.24 L1489.91 118.854 Q1489.91 114.253 1488.11 111.967 Q1486.32 109.681 1482.73 109.681 Q1478.42 109.681 1475.93 112.43 Q1473.44 115.179 1473.44 119.924 L1473.44 138.24 L1468.09 138.24 L1468.09 105.833 L1473.44 105.833 L1473.44 110.867 Q1475.35 107.945 1477.93 106.498 Q1480.53 105.052 1483.92 105.052 Q1489.5 105.052 1492.37 108.524 Q1495.23 111.967 1495.23 118.68 Z" fill="#000000" fill-rule="nonzero" fill-opacity="1" /><path clip-path="url(#clip940)" d="M1505.85 105.833 L1511.17 105.833 L1511.17 138.24 L1505.85 138.24 L1505.85 105.833 M1505.85 93.2171 L1511.17 93.2171 L1511.17 99.959 L1505.85 99.959 L1505.85 93.2171 Z" fill="#000000" fill-rule="nonzero" fill-opacity="1" /><path clip-path="url(#clip940)" d="M1545.64 107.077 L1545.64 112.054 Q1543.38 110.81 1541.09 110.202 Q1538.84 109.565 1536.52 109.565 Q1531.34 109.565 1528.48 112.864 Q1525.61 116.134 1525.61 122.065 Q1525.61 127.997 1528.48 131.296 Q1531.34 134.565 1536.52 134.565 Q1538.84 134.565 1541.09 133.958 Q1543.38 133.321 1545.64 132.077 L1545.64 136.996 Q1543.41 138.037 1541.01 138.558 Q1538.63 139.079 1535.94 139.079 Q1528.62 139.079 1524.31 134.478 Q1520 129.878 1520 122.065 Q1520 114.137 1524.34 109.594 Q1528.71 105.052 1536.29 105.052 Q1538.75 105.052 1541.09 105.572 Q1543.44 106.064 1545.64 107.077 Z" fill="#000000" fill-rule="nonzero" fill-opacity="1" /><path clip-path="url(#clip940)" d="M1575.55 106.788 L1575.55 111.822 Q1573.3 110.665 1570.87 110.086 Q1568.44 109.508 1565.83 109.508 Q1561.87 109.508 1559.87 110.723 Q1557.9 111.938 1557.9 114.369 Q1557.9 116.22 1559.32 117.291 Q1560.74 118.333 1565.02 119.288 L1566.84 119.693 Q1572.52 120.908 1574.89 123.136 Q1577.29 125.335 1577.29 129.299 Q1577.29 133.813 1573.7 136.446 Q1570.14 139.079 1563.89 139.079 Q1561.29 139.079 1558.45 138.558 Q1555.65 138.066 1552.52 137.054 L1552.52 131.556 Q1555.47 133.09 1558.34 133.871 Q1561.2 134.623 1564.01 134.623 Q1567.77 134.623 1569.8 133.35 Q1571.82 132.048 1571.82 129.704 Q1571.82 127.534 1570.35 126.377 Q1568.9 125.219 1563.95 124.149 L1562.1 123.715 Q1557.15 122.673 1554.95 120.532 Q1552.75 118.362 1552.75 114.6 Q1552.75 110.028 1555.99 107.54 Q1559.23 105.052 1565.2 105.052 Q1568.15 105.052 1570.75 105.486 Q1573.36 105.92 1575.55 106.788 Z" fill="#000000" fill-rule="nonzero" fill-opacity="1" /><path clip-path="url(#clip940)" d="M813.738 159.84 L841.053 159.84 L841.053 164.759 L819.583 164.759 L819.583 177.548 L840.156 177.548 L840.156 182.467 L819.583 182.467 L819.583 198.121 L841.574 198.121 L841.574 203.04 L813.738 203.04 L813.738 159.84 Z" fill="#000000" fill-rule="nonzero" fill-opacity="1" /><path clip-path="url(#clip940)" d="M877.887 170.633 L866.169 186.402 L878.495 203.04 L872.216 203.04 L862.783 190.309 L853.35 203.04 L847.072 203.04 L859.658 186.084 L848.142 170.633 L854.421 170.633 L863.015 182.178 L871.608 170.633 L877.887 170.633 Z" fill="#000000" fill-rule="nonzero" fill-opacity="1" /><path clip-path="url(#clip940)" d="M911.915 185.505 L911.915 188.11 L887.436 188.11 Q887.783 193.607 890.735 196.501 Q893.715 199.365 899.01 199.365 Q902.077 199.365 904.942 198.613 Q907.835 197.861 910.671 196.356 L910.671 201.391 Q907.806 202.606 904.797 203.243 Q901.788 203.879 898.692 203.879 Q890.937 203.879 886.394 199.365 Q881.88 194.851 881.88 187.155 Q881.88 179.198 886.163 174.539 Q890.474 169.852 897.766 169.852 Q904.305 169.852 908.096 174.076 Q911.915 178.272 911.915 185.505 M906.591 183.943 Q906.533 179.574 904.131 176.97 Q901.759 174.365 897.824 174.365 Q893.368 174.365 890.677 176.883 Q888.015 179.4 887.61 183.972 L906.591 183.943 Z" fill="#000000" fill-rule="nonzero" fill-opacity="1" /><path clip-path="url(#clip940)" d="M962.754 186.865 Q962.754 180.992 960.323 177.664 Q957.922 174.308 953.697 174.308 Q949.473 174.308 947.042 177.664 Q944.64 180.992 944.64 186.865 Q944.64 192.739 947.042 196.096 Q949.473 199.423 953.697 199.423 Q957.922 199.423 960.323 196.096 Q962.754 192.739 962.754 186.865 M944.64 175.552 Q946.319 172.658 948.865 171.269 Q951.44 169.852 954.999 169.852 Q960.902 169.852 964.577 174.539 Q968.28 179.226 968.28 186.865 Q968.28 194.504 964.577 199.192 Q960.902 203.879 954.999 203.879 Q951.44 203.879 948.865 202.49 Q946.319 201.072 944.64 198.179 L944.64 203.04 L939.287 203.04 L939.287 158.017 L944.64 158.017 L944.64 175.552 Z" fill="#000000" fill-rule="nonzero" fill-opacity="1" /><path clip-path="url(#clip940)" d="M1004.83 185.505 L1004.83 188.11 L980.346 188.11 Q980.694 193.607 983.645 196.501 Q986.625 199.365 991.92 199.365 Q994.987 199.365 997.852 198.613 Q1000.75 197.861 1003.58 196.356 L1003.58 201.391 Q1000.72 202.606 997.707 203.243 Q994.698 203.879 991.602 203.879 Q983.847 203.879 979.305 199.365 Q974.791 194.851 974.791 187.155 Q974.791 179.198 979.073 174.539 Q983.384 169.852 990.676 169.852 Q997.215 169.852 1001.01 174.076 Q1004.83 178.272 1004.83 185.505 M999.501 183.943 Q999.443 179.574 997.042 176.97 Q994.669 174.365 990.734 174.365 Q986.278 174.365 983.587 176.883 Q980.925 179.4 980.52 183.972 L999.501 183.943 Z" fill="#000000" fill-rule="nonzero" fill-opacity="1" /><path clip-path="url(#clip940)" d="M1040.5 183.48 L1040.5 203.04 L1035.18 203.04 L1035.18 183.654 Q1035.18 179.053 1033.38 176.767 Q1031.59 174.481 1028 174.481 Q1023.69 174.481 1021.2 177.23 Q1018.71 179.979 1018.71 184.724 L1018.71 203.04 L1013.36 203.04 L1013.36 170.633 L1018.71 170.633 L1018.71 175.667 Q1020.62 172.745 1023.2 171.298 Q1025.8 169.852 1029.19 169.852 Q1034.77 169.852 1037.64 173.324 Q1040.5 176.767 1040.5 183.48 Z" fill="#000000" fill-rule="nonzero" fill-opacity="1" /><path clip-path="url(#clip940)" d="M1074.44 171.877 L1074.44 176.854 Q1072.19 175.61 1069.9 175.002 Q1067.64 174.365 1065.33 174.365 Q1060.15 174.365 1057.28 177.664 Q1054.42 180.934 1054.42 186.865 Q1054.42 192.797 1057.28 196.096 Q1060.15 199.365 1065.33 199.365 Q1067.64 199.365 1069.9 198.758 Q1072.19 198.121 1074.44 196.877 L1074.44 201.796 Q1072.22 202.837 1069.81 203.358 Q1067.44 203.879 1064.75 203.879 Q1057.43 203.879 1053.12 199.278 Q1048.81 194.678 1048.81 186.865 Q1048.81 178.937 1053.15 174.394 Q1057.52 169.852 1065.1 169.852 Q1067.56 169.852 1069.9 170.372 Q1072.24 170.864 1074.44 171.877 Z" fill="#000000" fill-rule="nonzero" fill-opacity="1" /><path clip-path="url(#clip940)" d="M1110.64 183.48 L1110.64 203.04 L1105.32 203.04 L1105.32 183.654 Q1105.32 179.053 1103.52 176.767 Q1101.73 174.481 1098.14 174.481 Q1093.83 174.481 1091.34 177.23 Q1088.85 179.979 1088.85 184.724 L1088.85 203.04 L1083.5 203.04 L1083.5 158.017 L1088.85 158.017 L1088.85 175.667 Q1090.76 172.745 1093.34 171.298 Q1095.94 169.852 1099.33 169.852 Q1104.91 169.852 1107.78 173.324 Q1110.64 176.767 1110.64 183.48 Z" fill="#000000" fill-rule="nonzero" fill-opacity="1" /><path clip-path="url(#clip940)" d="M1146.49 176.854 Q1148.49 173.266 1151.27 171.559 Q1154.04 169.852 1157.8 169.852 Q1162.87 169.852 1165.62 173.411 Q1168.37 176.941 1168.37 183.48 L1168.37 203.04 L1163.01 203.04 L1163.01 183.654 Q1163.01 178.995 1161.36 176.738 Q1159.71 174.481 1156.33 174.481 Q1152.19 174.481 1149.79 177.23 Q1147.39 179.979 1147.39 184.724 L1147.39 203.04 L1142.04 203.04 L1142.04 183.654 Q1142.04 178.966 1140.39 176.738 Q1138.74 174.481 1135.29 174.481 Q1131.21 174.481 1128.81 177.259 Q1126.41 180.008 1126.41 184.724 L1126.41 203.04 L1121.06 203.04 L1121.06 170.633 L1126.41 170.633 L1126.41 175.667 Q1128.23 172.687 1130.78 171.269 Q1133.33 169.852 1136.83 169.852 Q1140.36 169.852 1142.82 171.645 Q1145.3 173.439 1146.49 176.854 Z" fill="#000000" fill-rule="nonzero" fill-opacity="1" /><path clip-path="url(#clip940)" d="M1193.71 186.75 Q1187.26 186.75 1184.77 188.225 Q1182.28 189.701 1182.28 193.26 Q1182.28 196.096 1184.14 197.774 Q1186.02 199.423 1189.23 199.423 Q1193.66 199.423 1196.32 196.298 Q1199.01 193.144 1199.01 187.936 L1199.01 186.75 L1193.71 186.75 M1204.33 184.551 L1204.33 203.04 L1199.01 203.04 L1199.01 198.121 Q1197.19 201.072 1194.47 202.49 Q1191.75 203.879 1187.81 203.879 Q1182.83 203.879 1179.88 201.101 Q1176.96 198.295 1176.96 193.607 Q1176.96 188.138 1180.61 185.361 Q1184.28 182.583 1191.54 182.583 L1199.01 182.583 L1199.01 182.062 Q1199.01 178.387 1196.58 176.391 Q1194.18 174.365 1189.81 174.365 Q1187.03 174.365 1184.4 175.031 Q1181.76 175.696 1179.33 177.027 L1179.33 172.108 Q1182.25 170.98 1185 170.43 Q1187.75 169.852 1190.36 169.852 Q1197.39 169.852 1200.86 173.497 Q1204.33 177.143 1204.33 184.551 Z" fill="#000000" fill-rule="nonzero" fill-opacity="1" /><path clip-path="url(#clip940)" d="M1234.08 175.61 Q1233.18 175.089 1232.11 174.857 Q1231.07 174.597 1229.8 174.597 Q1225.28 174.597 1222.85 177.548 Q1220.45 180.471 1220.45 185.968 L1220.45 203.04 L1215.1 203.04 L1215.1 170.633 L1220.45 170.633 L1220.45 175.667 Q1222.13 172.716 1224.82 171.298 Q1227.51 169.852 1231.36 169.852 Q1231.91 169.852 1232.57 169.938 Q1233.24 169.996 1234.05 170.141 L1234.08 175.61 Z" fill="#000000" fill-rule="nonzero" fill-opacity="1" /><path clip-path="url(#clip940)" d="M1239.46 158.017 L1244.81 158.017 L1244.81 184.608 L1260.7 170.633 L1267.5 170.633 L1250.31 185.795 L1268.22 203.04 L1261.28 203.04 L1244.81 187.213 L1244.81 203.04 L1239.46 203.04 L1239.46 158.017 Z" fill="#000000" fill-rule="nonzero" fill-opacity="1" /><path clip-path="url(#clip940)" d="M1275.34 195.691 L1281.44 195.691 L1281.44 200.667 L1276.7 209.927 L1272.97 209.927 L1275.34 200.667 L1275.34 195.691 Z" fill="#000000" fill-rule="nonzero" fill-opacity="1" /><path clip-path="url(#clip940)" d="M1332.31 171.588 L1332.31 176.622 Q1330.06 175.465 1327.62 174.886 Q1325.19 174.308 1322.59 174.308 Q1318.63 174.308 1316.63 175.523 Q1314.66 176.738 1314.66 179.169 Q1314.66 181.02 1316.08 182.091 Q1317.5 183.133 1321.78 184.088 L1323.6 184.493 Q1329.27 185.708 1331.65 187.936 Q1334.05 190.135 1334.05 194.099 Q1334.05 198.613 1330.46 201.246 Q1326.9 203.879 1320.65 203.879 Q1318.05 203.879 1315.21 203.358 Q1312.4 202.866 1309.28 201.854 L1309.28 196.356 Q1312.23 197.89 1315.1 198.671 Q1317.96 199.423 1320.77 199.423 Q1324.53 199.423 1326.55 198.15 Q1328.58 196.848 1328.58 194.504 Q1328.58 192.334 1327.1 191.177 Q1325.66 190.019 1320.71 188.949 L1318.86 188.515 Q1313.91 187.473 1311.71 185.332 Q1309.51 183.162 1309.51 179.4 Q1309.51 174.828 1312.75 172.34 Q1315.99 169.852 1321.95 169.852 Q1324.9 169.852 1327.51 170.286 Q1330.11 170.72 1332.31 171.588 Z" fill="#000000" fill-rule="nonzero" fill-opacity="1" /><path clip-path="url(#clip940)" d="M1342.53 170.633 L1347.85 170.633 L1347.85 203.04 L1342.53 203.04 L1342.53 170.633 M1342.53 158.017 L1347.85 158.017 L1347.85 164.759 L1342.53 164.759 L1342.53 158.017 Z" fill="#000000" fill-rule="nonzero" fill-opacity="1" /><path clip-path="url(#clip940)" d="M1384.22 176.854 Q1386.22 173.266 1389 171.559 Q1391.77 169.852 1395.54 169.852 Q1400.6 169.852 1403.35 173.411 Q1406.1 176.941 1406.1 183.48 L1406.1 203.04 L1400.74 203.04 L1400.74 183.654 Q1400.74 178.995 1399.09 176.738 Q1397.44 174.481 1394.06 174.481 Q1389.92 174.481 1387.52 177.23 Q1385.12 179.979 1385.12 184.724 L1385.12 203.04 L1379.77 203.04 L1379.77 183.654 Q1379.77 178.966 1378.12 176.738 Q1376.47 174.481 1373.02 174.481 Q1368.94 174.481 1366.54 177.259 Q1364.14 180.008 1364.14 184.724 L1364.14 203.04 L1358.79 203.04 L1358.79 170.633 L1364.14 170.633 L1364.14 175.667 Q1365.96 172.687 1368.51 171.269 Q1371.06 169.852 1374.56 169.852 Q1378.09 169.852 1380.55 171.645 Q1383.04 173.439 1384.22 176.854 Z" fill="#000000" fill-rule="nonzero" fill-opacity="1" /><path clip-path="url(#clip940)" d="M1421.87 198.179 L1421.87 215.366 L1416.51 215.366 L1416.51 170.633 L1421.87 170.633 L1421.87 175.552 Q1423.54 172.658 1426.09 171.269 Q1428.67 169.852 1432.22 169.852 Q1438.13 169.852 1441.8 174.539 Q1445.51 179.226 1445.51 186.865 Q1445.51 194.504 1441.8 199.192 Q1438.13 203.879 1432.22 203.879 Q1428.67 203.879 1426.09 202.49 Q1423.54 201.072 1421.87 198.179 M1439.98 186.865 Q1439.98 180.992 1437.55 177.664 Q1435.15 174.308 1430.92 174.308 Q1426.7 174.308 1424.27 177.664 Q1421.87 180.992 1421.87 186.865 Q1421.87 192.739 1424.27 196.096 Q1426.7 199.423 1430.92 199.423 Q1435.15 199.423 1437.55 196.096 Q1439.98 192.739 1439.98 186.865 Z" fill="#000000" fill-rule="nonzero" fill-opacity="1" /><path clip-path="url(#clip940)" d="M1454.33 158.017 L1459.66 158.017 L1459.66 203.04 L1454.33 203.04 L1454.33 158.017 Z" fill="#000000" fill-rule="nonzero" fill-opacity="1" /><path clip-path="url(#clip940)" d="M1470.8 170.633 L1476.12 170.633 L1476.12 203.04 L1470.8 203.04 L1470.8 170.633 M1470.8 158.017 L1476.12 158.017 L1476.12 164.759 L1470.8 164.759 L1470.8 158.017 Z" fill="#000000" fill-rule="nonzero" fill-opacity="1" /><path clip-path="url(#clip940)" d="M1503.67 158.017 L1503.67 162.444 L1498.57 162.444 Q1495.71 162.444 1494.58 163.602 Q1493.48 164.759 1493.48 167.768 L1493.48 170.633 L1502.25 170.633 L1502.25 174.77 L1493.48 174.77 L1493.48 203.04 L1488.13 203.04 L1488.13 174.77 L1483.03 174.77 L1483.03 170.633 L1488.13 170.633 L1488.13 168.376 Q1488.13 162.965 1490.64 160.506 Q1493.16 158.017 1498.63 158.017 L1503.67 158.017 Z" fill="#000000" fill-rule="nonzero" fill-opacity="1" /><path clip-path="url(#clip940)" d="M1520.56 206.049 Q1518.31 211.836 1516.17 213.601 Q1514.02 215.366 1510.44 215.366 L1506.18 215.366 L1506.18 210.91 L1509.31 210.91 Q1511.51 210.91 1512.72 209.869 Q1513.94 208.827 1515.41 204.95 L1516.37 202.519 L1503.26 170.633 L1508.9 170.633 L1519.03 195.98 L1529.16 170.633 L1534.8 170.633 L1520.56 206.049 Z" fill="#000000" fill-rule="nonzero" fill-opacity="1" /><path clip-path="url(#clip940)" d="M1561.68 176.13 L1598.77 176.13 L1598.77 180.992 L1561.68 180.992 L1561.68 176.13 M1561.68 187.936 L1598.77 187.936 L1598.77 192.855 L1561.68 192.855 L1561.68 187.936 Z" fill="#000000" fill-rule="nonzero" fill-opacity="1" /><path clip-path="url(#clip940)" d="M1645.88 158.017 L1645.88 162.444 L1640.79 162.444 Q1637.92 162.444 1636.8 163.602 Q1635.7 164.759 1635.7 167.768 L1635.7 170.633 L1644.46 170.633 L1644.46 174.77 L1635.7 174.77 L1635.7 203.04 L1630.34 203.04 L1630.34 174.77 L1625.25 174.77 L1625.25 170.633 L1630.34 170.633 L1630.34 168.376 Q1630.34 162.965 1632.86 160.506 Q1635.38 158.017 1640.85 158.017 L1645.88 158.017 Z" fill="#000000" fill-rule="nonzero" fill-opacity="1" /><path clip-path="url(#clip940)" d="M1665.06 186.75 Q1658.61 186.75 1656.12 188.225 Q1653.64 189.701 1653.64 193.26 Q1653.64 196.096 1655.49 197.774 Q1657.37 199.423 1660.58 199.423 Q1665.01 199.423 1667.67 196.298 Q1670.36 193.144 1670.36 187.936 L1670.36 186.75 L1665.06 186.75 M1675.68 184.551 L1675.68 203.04 L1670.36 203.04 L1670.36 198.121 Q1668.54 201.072 1665.82 202.49 Q1663.1 203.879 1659.16 203.879 Q1654.19 203.879 1651.23 201.101 Q1648.31 198.295 1648.31 193.607 Q1648.31 188.138 1651.96 185.361 Q1655.63 182.583 1662.89 182.583 L1670.36 182.583 L1670.36 182.062 Q1670.36 178.387 1667.93 176.391 Q1665.53 174.365 1661.16 174.365 Q1658.38 174.365 1655.75 175.031 Q1653.11 175.696 1650.68 177.027 L1650.68 172.108 Q1653.61 170.98 1656.36 170.43 Q1659.1 169.852 1661.71 169.852 Q1668.74 169.852 1672.21 173.497 Q1675.68 177.143 1675.68 184.551 Z" fill="#000000" fill-rule="nonzero" fill-opacity="1" /><path clip-path="url(#clip940)" d="M1686.65 158.017 L1691.97 158.017 L1691.97 203.04 L1686.65 203.04 L1686.65 158.017 Z" fill="#000000" fill-rule="nonzero" fill-opacity="1" /><path clip-path="url(#clip940)" d="M1723.77 171.588 L1723.77 176.622 Q1721.52 175.465 1719.09 174.886 Q1716.66 174.308 1714.05 174.308 Q1710.09 174.308 1708.09 175.523 Q1706.12 176.738 1706.12 179.169 Q1706.12 181.02 1707.54 182.091 Q1708.96 183.133 1713.24 184.088 L1715.06 184.493 Q1720.74 185.708 1723.11 187.936 Q1725.51 190.135 1725.51 194.099 Q1725.51 198.613 1721.92 201.246 Q1718.36 203.879 1712.11 203.879 Q1709.51 203.879 1706.67 203.358 Q1703.87 202.866 1700.74 201.854 L1700.74 196.356 Q1703.69 197.89 1706.56 198.671 Q1709.42 199.423 1712.23 199.423 Q1715.99 199.423 1718.02 198.15 Q1720.04 196.848 1720.04 194.504 Q1720.04 192.334 1718.57 191.177 Q1717.12 190.019 1712.17 188.949 L1710.32 188.515 Q1705.37 187.473 1703.17 185.332 Q1700.97 183.162 1700.97 179.4 Q1700.97 174.828 1704.21 172.34 Q1707.45 169.852 1713.42 169.852 Q1716.37 169.852 1718.97 170.286 Q1721.57 170.72 1723.77 171.588 Z" fill="#000000" fill-rule="nonzero" fill-opacity="1" /><path clip-path="url(#clip940)" d="M1761.71 185.505 L1761.71 188.11 L1737.23 188.11 Q1737.58 193.607 1740.53 196.501 Q1743.51 199.365 1748.8 199.365 Q1751.87 199.365 1754.73 198.613 Q1757.63 197.861 1760.46 196.356 L1760.46 201.391 Q1757.6 202.606 1754.59 203.243 Q1751.58 203.879 1748.48 203.879 Q1740.73 203.879 1736.19 199.365 Q1731.67 194.851 1731.67 187.155 Q1731.67 179.198 1735.96 174.539 Q1740.27 169.852 1747.56 169.852 Q1754.1 169.852 1757.89 174.076 Q1761.71 178.272 1761.71 185.505 M1756.38 183.943 Q1756.33 179.574 1753.92 176.97 Q1751.55 174.365 1747.62 174.365 Q1743.16 174.365 1740.47 176.883 Q1737.81 179.4 1737.4 183.972 L1756.38 183.943 Z" fill="#000000" fill-rule="nonzero" fill-opacity="1" /><polyline clip-path="url(#clip942)" style="stroke:#009af9; stroke-linecap:round; stroke-linejoin:round; stroke-width:4; stroke-opacity:1; fill:none" points="282.975,1388.35 388.738,1282.96 494.501,1191.94 600.264,1114.38 706.027,1026.48 811.79,993.72 917.553,955.735 1023.32,860.515 1129.08,756.306 1234.84,717.796 1340.6,664.048 1446.37,619.716 1552.13,565.444 1657.89,519.846 1763.66,471.506 1869.42,418.436 1975.18,356.223 2080.95,293.651 2186.71,227.42 "/>
<circle clip-path="url(#clip942)" cx="282.975" cy="1388.35" r="14.4" fill="#009af9" fill-rule="evenodd" fill-opacity="1" stroke="#000000" stroke-opacity="1" stroke-width="3.2"/>
<circle clip-path="url(#clip942)" cx="388.738" cy="1282.96" r="14.4" fill="#009af9" fill-rule="evenodd" fill-opacity="1" stroke="#000000" stroke-opacity="1" stroke-width="3.2"/>
<circle clip-path="url(#clip942)" cx="494.501" cy="1191.94" r="14.4" fill="#009af9" fill-rule="evenodd" fill-opacity="1" stroke="#000000" stroke-opacity="1" stroke-width="3.2"/>
<circle clip-path="url(#clip942)" cx="600.264" cy="1114.38" r="14.4" fill="#009af9" fill-rule="evenodd" fill-opacity="1" stroke="#000000" stroke-opacity="1" stroke-width="3.2"/>
<circle clip-path="url(#clip942)" cx="706.027" cy="1026.48" r="14.4" fill="#009af9" fill-rule="evenodd" fill-opacity="1" stroke="#000000" stroke-opacity="1" stroke-width="3.2"/>
<circle clip-path="url(#clip942)" cx="811.79" cy="993.72" r="14.4" fill="#009af9" fill-rule="evenodd" fill-opacity="1" stroke="#000000" stroke-opacity="1" stroke-width="3.2"/>
<circle clip-path="url(#clip942)" cx="917.553" cy="955.735" r="14.4" fill="#009af9" fill-rule="evenodd" fill-opacity="1" stroke="#000000" stroke-opacity="1" stroke-width="3.2"/>
<circle clip-path="url(#clip942)" cx="1023.32" cy="860.515" r="14.4" fill="#009af9" fill-rule="evenodd" fill-opacity="1" stroke="#000000" stroke-opacity="1" stroke-width="3.2"/>
<circle clip-path="url(#clip942)" cx="1129.08" cy="756.306" r="14.4" fill="#009af9" fill-rule="evenodd" fill-opacity="1" stroke="#000000" stroke-opacity="1" stroke-width="3.2"/>
<circle clip-path="url(#clip942)" cx="1234.84" cy="717.796" r="14.4" fill="#009af9" fill-rule="evenodd" fill-opacity="1" stroke="#000000" stroke-opacity="1" stroke-width="3.2"/>
<circle clip-path="url(#clip942)" cx="1340.6" cy="664.048" r="14.4" fill="#009af9" fill-rule="evenodd" fill-opacity="1" stroke="#000000" stroke-opacity="1" stroke-width="3.2"/>
<circle clip-path="url(#clip942)" cx="1446.37" cy="619.716" r="14.4" fill="#009af9" fill-rule="evenodd" fill-opacity="1" stroke="#000000" stroke-opacity="1" stroke-width="3.2"/>
<circle clip-path="url(#clip942)" cx="1552.13" cy="565.444" r="14.4" fill="#009af9" fill-rule="evenodd" fill-opacity="1" stroke="#000000" stroke-opacity="1" stroke-width="3.2"/>
<circle clip-path="url(#clip942)" cx="1657.89" cy="519.846" r="14.4" fill="#009af9" fill-rule="evenodd" fill-opacity="1" stroke="#000000" stroke-opacity="1" stroke-width="3.2"/>
<circle clip-path="url(#clip942)" cx="1763.66" cy="471.506" r="14.4" fill="#009af9" fill-rule="evenodd" fill-opacity="1" stroke="#000000" stroke-opacity="1" stroke-width="3.2"/>
<circle clip-path="url(#clip942)" cx="1869.42" cy="418.436" r="14.4" fill="#009af9" fill-rule="evenodd" fill-opacity="1" stroke="#000000" stroke-opacity="1" stroke-width="3.2"/>
<circle clip-path="url(#clip942)" cx="1975.18" cy="356.223" r="14.4" fill="#009af9" fill-rule="evenodd" fill-opacity="1" stroke="#000000" stroke-opacity="1" stroke-width="3.2"/>
<circle clip-path="url(#clip942)" cx="2080.95" cy="293.651" r="14.4" fill="#009af9" fill-rule="evenodd" fill-opacity="1" stroke="#000000" stroke-opacity="1" stroke-width="3.2"/>
<circle clip-path="url(#clip942)" cx="2186.71" cy="227.42" r="14.4" fill="#009af9" fill-rule="evenodd" fill-opacity="1" stroke="#000000" stroke-opacity="1" stroke-width="3.2"/>
</svg>
