<?xml version="1.0" encoding="utf-8"?>
<svg xmlns="http://www.w3.org/2000/svg" xmlns:xlink="http://www.w3.org/1999/xlink" width="600" height="400" viewBox="0 0 2400 1600">
<defs>
  <clipPath id="clip190">
    <rect x="0" y="0" width="2400" height="1600"/>
  </clipPath>
</defs>
<path clip-path="url(#clip190)" d="M0 1600 L2400 1600 L2400 0 L0 0  Z" fill="#ffffff" fill-rule="evenodd" fill-opacity="1"/>
<defs>
  <clipPath id="clip191">
    <rect x="480" y="0" width="1681" height="1600"/>
  </clipPath>
</defs>
<path clip-path="url(#clip190)" d="M264.287 1423.18 L2352.76 1423.18 L2352.76 106.192 L264.287 106.192  Z" fill="#ffffff" fill-rule="evenodd" fill-opacity="1"/>
<defs>
  <clipPath id="clip192">
    <rect x="264" y="106" width="2089" height="1318"/>
  </clipPath>
</defs>
<polyline clip-path="url(#clip192)" style="stroke:#000000; stroke-linecap:round; stroke-linejoin:round; stroke-width:2; stroke-opacity:0.1; fill:none" points="323.395,1423.18 323.395,106.192 "/>
<polyline clip-path="url(#clip192)" style="stroke:#000000; stroke-linecap:round; stroke-linejoin:round; stroke-width:2; stroke-opacity:0.1; fill:none" points="902.881,1423.18 902.881,106.192 "/>
<polyline clip-path="url(#clip192)" style="stroke:#000000; stroke-linecap:round; stroke-linejoin:round; stroke-width:2; stroke-opacity:0.1; fill:none" points="1482.37,1423.18 1482.37,106.192 "/>
<polyline clip-path="url(#clip192)" style="stroke:#000000; stroke-linecap:round; stroke-linejoin:round; stroke-width:2; stroke-opacity:0.1; fill:none" points="2061.85,1423.18 2061.85,106.192 "/>
<polyline clip-path="url(#clip190)" style="stroke:#000000; stroke-linecap:round; stroke-linejoin:round; stroke-width:4; stroke-opacity:1; fill:none" points="264.287,1423.18 2352.76,1423.18 "/>
<polyline clip-path="url(#clip190)" style="stroke:#000000; stroke-linecap:round; stroke-linejoin:round; stroke-width:4; stroke-opacity:1; fill:none" points="323.395,1423.18 323.395,1404.28 "/>
<polyline clip-path="url(#clip190)" style="stroke:#000000; stroke-linecap:round; stroke-linejoin:round; stroke-width:4; stroke-opacity:1; fill:none" points="902.881,1423.18 902.881,1404.28 "/>
<polyline clip-path="url(#clip190)" style="stroke:#000000; stroke-linecap:round; stroke-linejoin:round; stroke-width:4; stroke-opacity:1; fill:none" points="1482.37,1423.18 1482.37,1404.28 "/>
<polyline clip-path="url(#clip190)" style="stroke:#000000; stroke-linecap:round; stroke-linejoin:round; stroke-width:4; stroke-opacity:1; fill:none" points="2061.85,1423.18 2061.85,1404.28 "/>
<path clip-path="url(#clip190)" d="M313.673 1451.02 L332.029 1451.02 L332.029 1454.96 L317.955 1454.96 L317.955 1463.43 Q318.974 1463.08 319.992 1462.92 Q321.011 1462.73 322.029 1462.73 Q327.816 1462.73 331.196 1465.9 Q334.575 1469.08 334.575 1474.49 Q334.575 1480.07 331.103 1483.17 Q327.631 1486.25 321.312 1486.25 Q319.136 1486.25 316.867 1485.88 Q314.622 1485.51 312.214 1484.77 L312.214 1480.07 Q314.298 1481.2 316.52 1481.76 Q318.742 1482.32 321.219 1482.32 Q325.224 1482.32 327.562 1480.21 Q329.9 1478.1 329.9 1474.49 Q329.9 1470.88 327.562 1468.77 Q325.224 1466.67 321.219 1466.67 Q319.344 1466.67 317.469 1467.08 Q315.617 1467.5 313.673 1468.38 L313.673 1451.02 Z" fill="#000000" fill-rule="nonzero" fill-opacity="1" /><path clip-path="url(#clip190)" d="M877.569 1481.64 L885.208 1481.64 L885.208 1455.28 L876.898 1456.95 L876.898 1452.69 L885.161 1451.02 L889.837 1451.02 L889.837 1481.64 L897.476 1481.64 L897.476 1485.58 L877.569 1485.58 L877.569 1481.64 Z" fill="#000000" fill-rule="nonzero" fill-opacity="1" /><path clip-path="url(#clip190)" d="M916.92 1454.1 Q913.309 1454.1 911.481 1457.66 Q909.675 1461.2 909.675 1468.33 Q909.675 1475.44 911.481 1479.01 Q913.309 1482.55 916.92 1482.55 Q920.555 1482.55 922.36 1479.01 Q924.189 1475.44 924.189 1468.33 Q924.189 1461.2 922.36 1457.66 Q920.555 1454.1 916.92 1454.1 M916.92 1450.39 Q922.731 1450.39 925.786 1455 Q928.865 1459.58 928.865 1468.33 Q928.865 1477.06 925.786 1481.67 Q922.731 1486.25 916.92 1486.25 Q911.11 1486.25 908.032 1481.67 Q904.976 1477.06 904.976 1468.33 Q904.976 1459.58 908.032 1455 Q911.11 1450.39 916.92 1450.39 Z" fill="#000000" fill-rule="nonzero" fill-opacity="1" /><path clip-path="url(#clip190)" d="M1457.55 1481.64 L1465.19 1481.64 L1465.19 1455.28 L1456.88 1456.95 L1456.88 1452.69 L1465.15 1451.02 L1469.82 1451.02 L1469.82 1481.64 L1477.46 1481.64 L1477.46 1485.58 L1457.55 1485.58 L1457.55 1481.64 Z" fill="#000000" fill-rule="nonzero" fill-opacity="1" /><path clip-path="url(#clip190)" d="M1486.95 1451.02 L1505.31 1451.02 L1505.31 1454.96 L1491.23 1454.96 L1491.23 1463.43 Q1492.25 1463.08 1493.27 1462.92 Q1494.29 1462.73 1495.31 1462.73 Q1501.09 1462.73 1504.47 1465.9 Q1507.85 1469.08 1507.85 1474.49 Q1507.85 1480.07 1504.38 1483.17 Q1500.91 1486.25 1494.59 1486.25 Q1492.41 1486.25 1490.15 1485.88 Q1487.9 1485.51 1485.49 1484.77 L1485.49 1480.07 Q1487.58 1481.2 1489.8 1481.76 Q1492.02 1482.32 1494.5 1482.32 Q1498.5 1482.32 1500.84 1480.21 Q1503.18 1478.1 1503.18 1474.49 Q1503.18 1470.88 1500.84 1468.77 Q1498.5 1466.67 1494.5 1466.67 Q1492.62 1466.67 1490.75 1467.08 Q1488.9 1467.5 1486.95 1468.38 L1486.95 1451.02 Z" fill="#000000" fill-rule="nonzero" fill-opacity="1" /><path clip-path="url(#clip190)" d="M2040.63 1481.64 L2056.95 1481.64 L2056.95 1485.58 L2035 1485.58 L2035 1481.64 Q2037.66 1478.89 2042.25 1474.26 Q2046.85 1469.61 2048.03 1468.27 Q2050.28 1465.74 2051.16 1464.01 Q2052.06 1462.25 2052.06 1460.56 Q2052.06 1457.8 2050.12 1456.07 Q2048.2 1454.33 2045.09 1454.33 Q2042.9 1454.33 2040.44 1455.09 Q2038.01 1455.86 2035.23 1457.41 L2035.23 1452.69 Q2038.06 1451.55 2040.51 1450.97 Q2042.97 1450.39 2045 1450.39 Q2050.37 1450.39 2053.57 1453.08 Q2056.76 1455.77 2056.76 1460.26 Q2056.76 1462.39 2055.95 1464.31 Q2055.16 1466.2 2053.06 1468.8 Q2052.48 1469.47 2049.38 1472.69 Q2046.28 1475.88 2040.63 1481.64 Z" fill="#000000" fill-rule="nonzero" fill-opacity="1" /><path clip-path="url(#clip190)" d="M2076.76 1454.1 Q2073.15 1454.1 2071.32 1457.66 Q2069.52 1461.2 2069.52 1468.33 Q2069.52 1475.44 2071.32 1479.01 Q2073.15 1482.55 2076.76 1482.55 Q2080.4 1482.55 2082.2 1479.01 Q2084.03 1475.44 2084.03 1468.33 Q2084.03 1461.2 2082.2 1457.66 Q2080.4 1454.1 2076.76 1454.1 M2076.76 1450.39 Q2082.57 1450.39 2085.63 1455 Q2088.71 1459.58 2088.71 1468.33 Q2088.71 1477.06 2085.63 1481.67 Q2082.57 1486.25 2076.76 1486.25 Q2070.95 1486.25 2067.87 1481.67 Q2064.82 1477.06 2064.82 1468.33 Q2064.82 1459.58 2067.87 1455 Q2070.95 1450.39 2076.76 1450.39 Z" fill="#000000" fill-rule="nonzero" fill-opacity="1" /><path clip-path="url(#clip190)" d="M919.8 1522.08 L919.8 1528.35 Q916.139 1526.6 912.893 1525.74 Q909.646 1524.88 906.623 1524.88 Q901.371 1524.88 898.506 1526.92 Q895.674 1528.96 895.674 1532.71 Q895.674 1535.87 897.552 1537.49 Q899.461 1539.08 904.745 1540.07 L908.628 1540.86 Q915.821 1542.23 919.227 1545.7 Q922.664 1549.14 922.664 1554.93 Q922.664 1561.84 918.017 1565.4 Q913.402 1568.97 904.458 1568.97 Q901.085 1568.97 897.265 1568.2 Q893.478 1567.44 889.403 1565.94 L889.403 1559.32 Q893.318 1561.52 897.074 1562.63 Q900.83 1563.75 904.458 1563.75 Q909.965 1563.75 912.957 1561.58 Q915.948 1559.42 915.948 1555.41 Q915.948 1551.91 913.784 1549.93 Q911.652 1547.96 906.75 1546.97 L902.835 1546.21 Q895.642 1544.78 892.427 1541.72 Q889.213 1538.67 889.213 1533.22 Q889.213 1526.92 893.637 1523.29 Q898.093 1519.66 905.891 1519.66 Q909.233 1519.66 912.702 1520.27 Q916.171 1520.87 919.8 1522.08 Z" fill="#000000" fill-rule="nonzero" fill-opacity="1" /><path clip-path="url(#clip190)" d="M938.101 1562.7 L938.101 1581.6 L932.213 1581.6 L932.213 1532.4 L938.101 1532.4 L938.101 1537.81 Q939.947 1534.62 942.748 1533.1 Q945.581 1531.54 949.496 1531.54 Q955.989 1531.54 960.031 1536.69 Q964.105 1541.85 964.105 1550.25 Q964.105 1558.65 960.031 1563.81 Q955.989 1568.97 949.496 1568.97 Q945.581 1568.97 942.748 1567.44 Q939.947 1565.88 938.101 1562.7 M958.026 1550.25 Q958.026 1543.79 955.352 1540.13 Q952.71 1536.44 948.063 1536.44 Q943.417 1536.44 940.743 1540.13 Q938.101 1543.79 938.101 1550.25 Q938.101 1556.71 940.743 1560.4 Q943.417 1564.07 948.063 1564.07 Q952.71 1564.07 955.352 1560.4 Q958.026 1556.71 958.026 1550.25 Z" fill="#000000" fill-rule="nonzero" fill-opacity="1" /><path clip-path="url(#clip190)" d="M1003.45 1546.53 L1003.45 1568.04 L997.589 1568.04 L997.589 1546.72 Q997.589 1541.66 995.615 1539.14 Q993.642 1536.63 989.695 1536.63 Q984.953 1536.63 982.215 1539.65 Q979.478 1542.68 979.478 1547.9 L979.478 1568.04 L973.59 1568.04 L973.59 1518.52 L979.478 1518.52 L979.478 1537.93 Q981.579 1534.72 984.412 1533.13 Q987.276 1531.54 991 1531.54 Q997.143 1531.54 1000.29 1535.36 Q1003.45 1539.14 1003.45 1546.53 Z" fill="#000000" fill-rule="nonzero" fill-opacity="1" /><path clip-path="url(#clip190)" d="M1045.62 1548.76 L1045.62 1551.62 L1018.69 1551.62 Q1019.07 1557.67 1022.32 1560.85 Q1025.6 1564 1031.42 1564 Q1034.8 1564 1037.95 1563.17 Q1041.13 1562.35 1044.25 1560.69 L1044.25 1566.23 Q1041.1 1567.57 1037.79 1568.27 Q1034.48 1568.97 1031.07 1568.97 Q1022.54 1568.97 1017.55 1564 Q1012.58 1559.04 1012.58 1550.57 Q1012.58 1541.82 1017.29 1536.69 Q1022.03 1531.54 1030.05 1531.54 Q1037.25 1531.54 1041.42 1536.18 Q1045.62 1540.8 1045.62 1548.76 M1039.76 1547.04 Q1039.7 1542.23 1037.06 1539.37 Q1034.45 1536.5 1030.12 1536.5 Q1025.22 1536.5 1022.26 1539.27 Q1019.33 1542.04 1018.88 1547.07 L1039.76 1547.04 Z" fill="#000000" fill-rule="nonzero" fill-opacity="1" /><path clip-path="url(#clip190)" d="M1075.89 1537.87 Q1074.9 1537.3 1073.72 1537.04 Q1072.58 1536.76 1071.18 1536.76 Q1066.21 1536.76 1063.54 1540 Q1060.9 1543.22 1060.9 1549.27 L1060.9 1568.04 L1055.01 1568.04 L1055.01 1532.4 L1060.9 1532.4 L1060.9 1537.93 Q1062.74 1534.69 1065.7 1533.13 Q1068.66 1531.54 1072.89 1531.54 Q1073.5 1531.54 1074.23 1531.63 Q1074.96 1531.7 1075.86 1531.85 L1075.89 1537.87 Z" fill="#000000" fill-rule="nonzero" fill-opacity="1" /><path clip-path="url(#clip190)" d="M1082.03 1532.4 L1087.89 1532.4 L1087.89 1568.04 L1082.03 1568.04 L1082.03 1532.4 M1082.03 1518.52 L1087.89 1518.52 L1087.89 1525.93 L1082.03 1525.93 L1082.03 1518.52 Z" fill="#000000" fill-rule="nonzero" fill-opacity="1" /><path clip-path="url(#clip190)" d="M1125.79 1533.76 L1125.79 1539.24 Q1123.31 1537.87 1120.8 1537.2 Q1118.31 1536.5 1115.77 1536.5 Q1110.07 1536.5 1106.92 1540.13 Q1103.77 1543.73 1103.77 1550.25 Q1103.77 1556.78 1106.92 1560.4 Q1110.07 1564 1115.77 1564 Q1118.31 1564 1120.8 1563.33 Q1123.31 1562.63 1125.79 1561.26 L1125.79 1566.68 Q1123.34 1567.82 1120.7 1568.39 Q1118.09 1568.97 1115.13 1568.97 Q1107.08 1568.97 1102.34 1563.91 Q1097.59 1558.85 1097.59 1550.25 Q1097.59 1541.53 1102.37 1536.53 Q1107.17 1531.54 1115.51 1531.54 Q1118.22 1531.54 1120.8 1532.11 Q1123.38 1532.65 1125.79 1533.76 Z" fill="#000000" fill-rule="nonzero" fill-opacity="1" /><path clip-path="url(#clip190)" d="M1152.18 1550.12 Q1145.08 1550.12 1142.34 1551.75 Q1139.61 1553.37 1139.61 1557.29 Q1139.61 1560.4 1141.64 1562.25 Q1143.71 1564.07 1147.25 1564.07 Q1152.12 1564.07 1155.04 1560.63 Q1158 1557.16 1158 1551.43 L1158 1550.12 L1152.18 1550.12 M1163.86 1547.71 L1163.86 1568.04 L1158 1568.04 L1158 1562.63 Q1156 1565.88 1153.01 1567.44 Q1150.02 1568.97 1145.69 1568.97 Q1140.21 1568.97 1136.97 1565.91 Q1133.75 1562.82 1133.75 1557.67 Q1133.75 1551.65 1137.76 1548.6 Q1141.8 1545.54 1149.79 1545.54 L1158 1545.54 L1158 1544.97 Q1158 1540.93 1155.33 1538.73 Q1152.69 1536.5 1147.88 1536.5 Q1144.83 1536.5 1141.93 1537.23 Q1139.03 1537.97 1136.36 1539.43 L1136.36 1534.02 Q1139.58 1532.78 1142.6 1532.17 Q1145.62 1531.54 1148.49 1531.54 Q1156.22 1531.54 1160.04 1535.55 Q1163.86 1539.56 1163.86 1547.71 Z" fill="#000000" fill-rule="nonzero" fill-opacity="1" /><path clip-path="url(#clip190)" d="M1175.92 1518.52 L1181.78 1518.52 L1181.78 1568.04 L1175.92 1568.04 L1175.92 1518.52 Z" fill="#000000" fill-rule="nonzero" fill-opacity="1" /><path clip-path="url(#clip190)" d="M1215.01 1520.52 L1221.44 1520.52 L1221.44 1540 L1244.8 1540 L1244.8 1520.52 L1251.23 1520.52 L1251.23 1568.04 L1244.8 1568.04 L1244.8 1545.41 L1221.44 1545.41 L1221.44 1568.04 L1215.01 1568.04 L1215.01 1520.52 Z" fill="#000000" fill-rule="nonzero" fill-opacity="1" /><path clip-path="url(#clip190)" d="M1279.97 1550.12 Q1272.87 1550.12 1270.14 1551.75 Q1267.4 1553.37 1267.4 1557.29 Q1267.4 1560.4 1269.44 1562.25 Q1271.51 1564.07 1275.04 1564.07 Q1279.91 1564.07 1282.84 1560.63 Q1285.8 1557.16 1285.8 1551.43 L1285.8 1550.12 L1279.97 1550.12 M1291.65 1547.71 L1291.65 1568.04 L1285.8 1568.04 L1285.8 1562.63 Q1283.79 1565.88 1280.8 1567.44 Q1277.81 1568.97 1273.48 1568.97 Q1268 1568.97 1264.76 1565.91 Q1261.54 1562.82 1261.54 1557.67 Q1261.54 1551.65 1265.55 1548.6 Q1269.6 1545.54 1277.58 1545.54 L1285.8 1545.54 L1285.8 1544.97 Q1285.8 1540.93 1283.12 1538.73 Q1280.48 1536.5 1275.67 1536.5 Q1272.62 1536.5 1269.72 1537.23 Q1266.83 1537.97 1264.15 1539.43 L1264.15 1534.02 Q1267.37 1532.78 1270.39 1532.17 Q1273.41 1531.54 1276.28 1531.54 Q1284.01 1531.54 1287.83 1535.55 Q1291.65 1539.56 1291.65 1547.71 Z" fill="#000000" fill-rule="nonzero" fill-opacity="1" /><path clip-path="url(#clip190)" d="M1324.37 1537.87 Q1323.39 1537.3 1322.21 1537.04 Q1321.06 1536.76 1319.66 1536.76 Q1314.7 1536.76 1312.02 1540 Q1309.38 1543.22 1309.38 1549.27 L1309.38 1568.04 L1303.49 1568.04 L1303.49 1532.4 L1309.38 1532.4 L1309.38 1537.93 Q1311.23 1534.69 1314.19 1533.13 Q1317.15 1531.54 1321.38 1531.54 Q1321.99 1531.54 1322.72 1531.63 Q1323.45 1531.7 1324.34 1531.85 L1324.37 1537.87 Z" fill="#000000" fill-rule="nonzero" fill-opacity="1" /><path clip-path="url(#clip190)" d="M1357.12 1539.24 Q1359.32 1535.29 1362.38 1533.41 Q1365.43 1531.54 1369.57 1531.54 Q1375.14 1531.54 1378.16 1535.45 Q1381.19 1539.33 1381.19 1546.53 L1381.19 1568.04 L1375.3 1568.04 L1375.3 1546.72 Q1375.3 1541.59 1373.48 1539.11 Q1371.67 1536.63 1367.95 1536.63 Q1363.39 1536.63 1360.75 1539.65 Q1358.11 1542.68 1358.11 1547.9 L1358.11 1568.04 L1352.22 1568.04 L1352.22 1546.72 Q1352.22 1541.56 1350.41 1539.11 Q1348.59 1536.63 1344.81 1536.63 Q1340.32 1536.63 1337.68 1539.68 Q1335.03 1542.71 1335.03 1547.9 L1335.03 1568.04 L1329.15 1568.04 L1329.15 1532.4 L1335.03 1532.4 L1335.03 1537.93 Q1337.04 1534.66 1339.84 1533.1 Q1342.64 1531.54 1346.49 1531.54 Q1350.38 1531.54 1353.08 1533.51 Q1355.82 1535.48 1357.12 1539.24 Z" fill="#000000" fill-rule="nonzero" fill-opacity="1" /><path clip-path="url(#clip190)" d="M1406.68 1536.5 Q1401.97 1536.5 1399.23 1540.19 Q1396.5 1543.85 1396.5 1550.25 Q1396.5 1556.65 1399.2 1560.34 Q1401.94 1564 1406.68 1564 Q1411.36 1564 1414.1 1560.31 Q1416.83 1556.62 1416.83 1550.25 Q1416.83 1543.92 1414.1 1540.23 Q1411.36 1536.5 1406.68 1536.5 M1406.68 1531.54 Q1414.32 1531.54 1418.68 1536.5 Q1423.04 1541.47 1423.04 1550.25 Q1423.04 1559 1418.68 1564 Q1414.32 1568.97 1406.68 1568.97 Q1399.01 1568.97 1394.65 1564 Q1390.32 1559 1390.32 1550.25 Q1390.32 1541.47 1394.65 1536.5 Q1399.01 1531.54 1406.68 1531.54 Z" fill="#000000" fill-rule="nonzero" fill-opacity="1" /><path clip-path="url(#clip190)" d="M1462.38 1546.53 L1462.38 1568.04 L1456.52 1568.04 L1456.52 1546.72 Q1456.52 1541.66 1454.55 1539.14 Q1452.58 1536.63 1448.63 1536.63 Q1443.89 1536.63 1441.15 1539.65 Q1438.41 1542.68 1438.41 1547.9 L1438.41 1568.04 L1432.53 1568.04 L1432.53 1532.4 L1438.41 1532.4 L1438.41 1537.93 Q1440.51 1534.72 1443.35 1533.13 Q1446.21 1531.54 1449.94 1531.54 Q1456.08 1531.54 1459.23 1535.36 Q1462.38 1539.14 1462.38 1546.53 Z" fill="#000000" fill-rule="nonzero" fill-opacity="1" /><path clip-path="url(#clip190)" d="M1474.06 1532.4 L1479.92 1532.4 L1479.92 1568.04 L1474.06 1568.04 L1474.06 1532.4 M1474.06 1518.52 L1479.92 1518.52 L1479.92 1525.93 L1474.06 1525.93 L1474.06 1518.52 Z" fill="#000000" fill-rule="nonzero" fill-opacity="1" /><path clip-path="url(#clip190)" d="M1517.83 1533.76 L1517.83 1539.24 Q1515.34 1537.87 1512.83 1537.2 Q1510.35 1536.5 1507.8 1536.5 Q1502.1 1536.5 1498.95 1540.13 Q1495.8 1543.73 1495.8 1550.25 Q1495.8 1556.78 1498.95 1560.4 Q1502.1 1564 1507.8 1564 Q1510.35 1564 1512.83 1563.33 Q1515.34 1562.63 1517.83 1561.26 L1517.83 1566.68 Q1515.38 1567.82 1512.73 1568.39 Q1510.12 1568.97 1507.16 1568.97 Q1499.11 1568.97 1494.37 1563.91 Q1489.63 1558.85 1489.63 1550.25 Q1489.63 1541.53 1494.4 1536.53 Q1499.21 1531.54 1507.55 1531.54 Q1510.25 1531.54 1512.83 1532.11 Q1515.41 1532.65 1517.83 1533.76 Z" fill="#000000" fill-rule="nonzero" fill-opacity="1" /><path clip-path="url(#clip190)" d="M1568.27 1524.88 Q1561.27 1524.88 1557.13 1530.1 Q1553.03 1535.32 1553.03 1544.33 Q1553.03 1553.31 1557.13 1558.53 Q1561.27 1563.75 1568.27 1563.75 Q1575.28 1563.75 1579.35 1558.53 Q1583.46 1553.31 1583.46 1544.33 Q1583.46 1535.32 1579.35 1530.1 Q1575.28 1524.88 1568.27 1524.88 M1568.27 1519.66 Q1578.27 1519.66 1584.25 1526.38 Q1590.24 1533.06 1590.24 1544.33 Q1590.24 1555.57 1584.25 1562.28 Q1578.27 1568.97 1568.27 1568.97 Q1558.25 1568.97 1552.23 1562.28 Q1546.25 1555.6 1546.25 1544.33 Q1546.25 1533.06 1552.23 1526.38 Q1558.25 1519.66 1568.27 1519.66 Z" fill="#000000" fill-rule="nonzero" fill-opacity="1" /><path clip-path="url(#clip190)" d="M1620.7 1537.87 Q1619.71 1537.3 1618.53 1537.04 Q1617.39 1536.76 1615.99 1536.76 Q1611.02 1536.76 1608.35 1540 Q1605.7 1543.22 1605.7 1549.27 L1605.7 1568.04 L1599.82 1568.04 L1599.82 1532.4 L1605.7 1532.4 L1605.7 1537.93 Q1607.55 1534.69 1610.51 1533.13 Q1613.47 1531.54 1617.7 1531.54 Q1618.31 1531.54 1619.04 1531.63 Q1619.77 1531.7 1620.66 1531.85 L1620.7 1537.87 Z" fill="#000000" fill-rule="nonzero" fill-opacity="1" /><path clip-path="url(#clip190)" d="M1649.15 1537.81 L1649.15 1518.52 L1655.01 1518.52 L1655.01 1568.04 L1649.15 1568.04 L1649.15 1562.7 Q1647.3 1565.88 1644.47 1567.44 Q1641.67 1568.97 1637.72 1568.97 Q1631.26 1568.97 1627.19 1563.81 Q1623.15 1558.65 1623.15 1550.25 Q1623.15 1541.85 1627.19 1536.69 Q1631.26 1531.54 1637.72 1531.54 Q1641.67 1531.54 1644.47 1533.1 Q1647.3 1534.62 1649.15 1537.81 M1629.19 1550.25 Q1629.19 1556.71 1631.84 1560.4 Q1634.51 1564.07 1639.16 1564.07 Q1643.8 1564.07 1646.48 1560.4 Q1649.15 1556.71 1649.15 1550.25 Q1649.15 1543.79 1646.48 1540.13 Q1643.8 1536.44 1639.16 1536.44 Q1634.51 1536.44 1631.84 1540.13 Q1629.19 1543.79 1629.19 1550.25 Z" fill="#000000" fill-rule="nonzero" fill-opacity="1" /><path clip-path="url(#clip190)" d="M1697.56 1548.76 L1697.56 1551.62 L1670.63 1551.62 Q1671.02 1557.67 1674.26 1560.85 Q1677.54 1564 1683.37 1564 Q1686.74 1564 1689.89 1563.17 Q1693.07 1562.35 1696.19 1560.69 L1696.19 1566.23 Q1693.04 1567.57 1689.73 1568.27 Q1686.42 1568.97 1683.02 1568.97 Q1674.49 1568.97 1669.49 1564 Q1664.52 1559.04 1664.52 1550.57 Q1664.52 1541.82 1669.23 1536.69 Q1673.98 1531.54 1682 1531.54 Q1689.19 1531.54 1693.36 1536.18 Q1697.56 1540.8 1697.56 1548.76 M1691.71 1547.04 Q1691.64 1542.23 1689 1539.37 Q1686.39 1536.5 1682.06 1536.5 Q1677.16 1536.5 1674.2 1539.27 Q1671.27 1542.04 1670.83 1547.07 L1691.71 1547.04 Z" fill="#000000" fill-rule="nonzero" fill-opacity="1" /><path clip-path="url(#clip190)" d="M1727.83 1537.87 Q1726.84 1537.3 1725.67 1537.04 Q1724.52 1536.76 1723.12 1536.76 Q1718.15 1536.76 1715.48 1540 Q1712.84 1543.22 1712.84 1549.27 L1712.84 1568.04 L1706.95 1568.04 L1706.95 1532.4 L1712.84 1532.4 L1712.84 1537.93 Q1714.69 1534.69 1717.65 1533.13 Q1720.61 1531.54 1724.84 1531.54 Q1725.44 1531.54 1726.18 1531.63 Q1726.91 1531.7 1727.8 1531.85 L1727.83 1537.87 Z" fill="#000000" fill-rule="nonzero" fill-opacity="1" /><polyline clip-path="url(#clip192)" style="stroke:#000000; stroke-linecap:round; stroke-linejoin:round; stroke-width:2; stroke-opacity:0.1; fill:none" points="264.287,1387.18 2352.76,1387.18 "/>
<polyline clip-path="url(#clip192)" style="stroke:#000000; stroke-linecap:round; stroke-linejoin:round; stroke-width:2; stroke-opacity:0.1; fill:none" points="264.287,1159.7 2352.76,1159.7 "/>
<polyline clip-path="url(#clip192)" style="stroke:#000000; stroke-linecap:round; stroke-linejoin:round; stroke-width:2; stroke-opacity:0.1; fill:none" points="264.287,932.225 2352.76,932.225 "/>
<polyline clip-path="url(#clip192)" style="stroke:#000000; stroke-linecap:round; stroke-linejoin:round; stroke-width:2; stroke-opacity:0.1; fill:none" points="264.287,704.745 2352.76,704.745 "/>
<polyline clip-path="url(#clip192)" style="stroke:#000000; stroke-linecap:round; stroke-linejoin:round; stroke-width:2; stroke-opacity:0.1; fill:none" points="264.287,477.266 2352.76,477.266 "/>
<polyline clip-path="url(#clip192)" style="stroke:#000000; stroke-linecap:round; stroke-linejoin:round; stroke-width:2; stroke-opacity:0.1; fill:none" points="264.287,249.786 2352.76,249.786 "/>
<polyline clip-path="url(#clip190)" style="stroke:#000000; stroke-linecap:round; stroke-linejoin:round; stroke-width:4; stroke-opacity:1; fill:none" points="264.287,1423.18 264.287,106.192 "/>
<polyline clip-path="url(#clip190)" style="stroke:#000000; stroke-linecap:round; stroke-linejoin:round; stroke-width:4; stroke-opacity:1; fill:none" points="264.287,1387.18 283.185,1387.18 "/>
<polyline clip-path="url(#clip190)" style="stroke:#000000; stroke-linecap:round; stroke-linejoin:round; stroke-width:4; stroke-opacity:1; fill:none" points="264.287,1159.7 283.185,1159.7 "/>
<polyline clip-path="url(#clip190)" style="stroke:#000000; stroke-linecap:round; stroke-linejoin:round; stroke-width:4; stroke-opacity:1; fill:none" points="264.287,932.225 283.185,932.225 "/>
<polyline clip-path="url(#clip190)" style="stroke:#000000; stroke-linecap:round; stroke-linejoin:round; stroke-width:4; stroke-opacity:1; fill:none" points="264.287,704.745 283.185,704.745 "/>
<polyline clip-path="url(#clip190)" style="stroke:#000000; stroke-linecap:round; stroke-linejoin:round; stroke-width:4; stroke-opacity:1; fill:none" points="264.287,477.266 283.185,477.266 "/>
<polyline clip-path="url(#clip190)" style="stroke:#000000; stroke-linecap:round; stroke-linejoin:round; stroke-width:4; stroke-opacity:1; fill:none" points="264.287,249.786 283.185,249.786 "/>
<path clip-path="url(#clip190)" d="M216.343 1372.98 Q212.732 1372.98 210.903 1376.55 Q209.098 1380.09 209.098 1387.22 Q209.098 1394.32 210.903 1397.89 Q212.732 1401.43 216.343 1401.43 Q219.977 1401.43 221.783 1397.89 Q223.611 1394.32 223.611 1387.22 Q223.611 1380.09 221.783 1376.55 Q219.977 1372.98 216.343 1372.98 M216.343 1369.28 Q222.153 1369.28 225.209 1373.88 Q228.287 1378.47 228.287 1387.22 Q228.287 1395.94 225.209 1400.55 Q222.153 1405.13 216.343 1405.13 Q210.533 1405.13 207.454 1400.55 Q204.399 1395.94 204.399 1387.22 Q204.399 1378.47 207.454 1373.88 Q210.533 1369.28 216.343 1369.28 Z" fill="#000000" fill-rule="nonzero" fill-opacity="1" /><path clip-path="url(#clip190)" d="M146.066 1142.42 L164.422 1142.42 L164.422 1146.36 L150.348 1146.36 L150.348 1154.83 Q151.366 1154.48 152.385 1154.32 Q153.403 1154.14 154.422 1154.14 Q160.209 1154.14 163.589 1157.31 Q166.968 1160.48 166.968 1165.9 Q166.968 1171.47 163.496 1174.58 Q160.024 1177.66 153.704 1177.66 Q151.528 1177.66 149.26 1177.28 Q147.015 1176.91 144.607 1176.17 L144.607 1171.47 Q146.691 1172.61 148.913 1173.16 Q151.135 1173.72 153.612 1173.72 Q157.616 1173.72 159.954 1171.61 Q162.292 1169.51 162.292 1165.9 Q162.292 1162.29 159.954 1160.18 Q157.616 1158.07 153.612 1158.07 Q151.737 1158.07 149.862 1158.49 Q148.01 1158.91 146.066 1159.79 L146.066 1142.42 Z" fill="#000000" fill-rule="nonzero" fill-opacity="1" /><path clip-path="url(#clip190)" d="M186.181 1145.5 Q182.57 1145.5 180.741 1149.07 Q178.936 1152.61 178.936 1159.74 Q178.936 1166.85 180.741 1170.41 Q182.57 1173.95 186.181 1173.95 Q189.815 1173.95 191.621 1170.41 Q193.45 1166.85 193.45 1159.74 Q193.45 1152.61 191.621 1149.07 Q189.815 1145.5 186.181 1145.5 M186.181 1141.8 Q191.991 1141.8 195.047 1146.41 Q198.125 1150.99 198.125 1159.74 Q198.125 1168.47 195.047 1173.07 Q191.991 1177.66 186.181 1177.66 Q180.371 1177.66 177.292 1173.07 Q174.237 1168.47 174.237 1159.74 Q174.237 1150.99 177.292 1146.41 Q180.371 1141.8 186.181 1141.8 Z" fill="#000000" fill-rule="nonzero" fill-opacity="1" /><path clip-path="url(#clip190)" d="M216.343 1145.5 Q212.732 1145.5 210.903 1149.07 Q209.098 1152.61 209.098 1159.74 Q209.098 1166.85 210.903 1170.41 Q212.732 1173.95 216.343 1173.95 Q219.977 1173.95 221.783 1170.41 Q223.611 1166.85 223.611 1159.74 Q223.611 1152.61 221.783 1149.07 Q219.977 1145.5 216.343 1145.5 M216.343 1141.8 Q222.153 1141.8 225.209 1146.41 Q228.287 1150.99 228.287 1159.74 Q228.287 1168.47 225.209 1173.07 Q222.153 1177.66 216.343 1177.66 Q210.533 1177.66 207.454 1173.07 Q204.399 1168.47 204.399 1159.74 Q204.399 1150.99 207.454 1146.41 Q210.533 1141.8 216.343 1141.8 Z" fill="#000000" fill-rule="nonzero" fill-opacity="1" /><path clip-path="url(#clip190)" d="M116.668 945.569 L124.306 945.569 L124.306 919.204 L115.996 920.87 L115.996 916.611 L124.26 914.945 L128.936 914.945 L128.936 945.569 L136.575 945.569 L136.575 949.505 L116.668 949.505 L116.668 945.569 Z" fill="#000000" fill-rule="nonzero" fill-opacity="1" /><path clip-path="url(#clip190)" d="M156.019 918.023 Q152.408 918.023 150.579 921.588 Q148.774 925.13 148.774 932.259 Q148.774 939.366 150.579 942.931 Q152.408 946.472 156.019 946.472 Q159.653 946.472 161.459 942.931 Q163.288 939.366 163.288 932.259 Q163.288 925.13 161.459 921.588 Q159.653 918.023 156.019 918.023 M156.019 914.32 Q161.829 914.32 164.885 918.926 Q167.964 923.509 167.964 932.259 Q167.964 940.986 164.885 945.593 Q161.829 950.176 156.019 950.176 Q150.209 950.176 147.13 945.593 Q144.075 940.986 144.075 932.259 Q144.075 923.509 147.13 918.926 Q150.209 914.32 156.019 914.32 Z" fill="#000000" fill-rule="nonzero" fill-opacity="1" /><path clip-path="url(#clip190)" d="M186.181 918.023 Q182.57 918.023 180.741 921.588 Q178.936 925.13 178.936 932.259 Q178.936 939.366 180.741 942.931 Q182.57 946.472 186.181 946.472 Q189.815 946.472 191.621 942.931 Q193.45 939.366 193.45 932.259 Q193.45 925.13 191.621 921.588 Q189.815 918.023 186.181 918.023 M186.181 914.32 Q191.991 914.32 195.047 918.926 Q198.125 923.509 198.125 932.259 Q198.125 940.986 195.047 945.593 Q191.991 950.176 186.181 950.176 Q180.371 950.176 177.292 945.593 Q174.237 940.986 174.237 932.259 Q174.237 923.509 177.292 918.926 Q180.371 914.32 186.181 914.32 Z" fill="#000000" fill-rule="nonzero" fill-opacity="1" /><path clip-path="url(#clip190)" d="M216.343 918.023 Q212.732 918.023 210.903 921.588 Q209.098 925.13 209.098 932.259 Q209.098 939.366 210.903 942.931 Q212.732 946.472 216.343 946.472 Q219.977 946.472 221.783 942.931 Q223.611 939.366 223.611 932.259 Q223.611 925.13 221.783 921.588 Q219.977 918.023 216.343 918.023 M216.343 914.32 Q222.153 914.32 225.209 918.926 Q228.287 923.509 228.287 932.259 Q228.287 940.986 225.209 945.593 Q222.153 950.176 216.343 950.176 Q210.533 950.176 207.454 945.593 Q204.399 940.986 204.399 932.259 Q204.399 923.509 207.454 918.926 Q210.533 914.32 216.343 914.32 Z" fill="#000000" fill-rule="nonzero" fill-opacity="1" /><path clip-path="url(#clip190)" d="M116.668 718.09 L124.306 718.09 L124.306 691.724 L115.996 693.391 L115.996 689.132 L124.26 687.465 L128.936 687.465 L128.936 718.09 L136.575 718.09 L136.575 722.025 L116.668 722.025 L116.668 718.09 Z" fill="#000000" fill-rule="nonzero" fill-opacity="1" /><path clip-path="url(#clip190)" d="M146.066 687.465 L164.422 687.465 L164.422 691.4 L150.348 691.4 L150.348 699.872 Q151.366 699.525 152.385 699.363 Q153.403 699.178 154.422 699.178 Q160.209 699.178 163.589 702.349 Q166.968 705.521 166.968 710.937 Q166.968 716.516 163.496 719.618 Q160.024 722.696 153.704 722.696 Q151.528 722.696 149.26 722.326 Q147.015 721.956 144.607 721.215 L144.607 716.516 Q146.691 717.65 148.913 718.206 Q151.135 718.761 153.612 718.761 Q157.616 718.761 159.954 716.655 Q162.292 714.548 162.292 710.937 Q162.292 707.326 159.954 705.22 Q157.616 703.113 153.612 703.113 Q151.737 703.113 149.862 703.53 Q148.01 703.947 146.066 704.826 L146.066 687.465 Z" fill="#000000" fill-rule="nonzero" fill-opacity="1" /><path clip-path="url(#clip190)" d="M186.181 690.544 Q182.57 690.544 180.741 694.109 Q178.936 697.65 178.936 704.78 Q178.936 711.886 180.741 715.451 Q182.57 718.993 186.181 718.993 Q189.815 718.993 191.621 715.451 Q193.45 711.886 193.45 704.78 Q193.45 697.65 191.621 694.109 Q189.815 690.544 186.181 690.544 M186.181 686.84 Q191.991 686.84 195.047 691.447 Q198.125 696.03 198.125 704.78 Q198.125 713.507 195.047 718.113 Q191.991 722.696 186.181 722.696 Q180.371 722.696 177.292 718.113 Q174.237 713.507 174.237 704.78 Q174.237 696.03 177.292 691.447 Q180.371 686.84 186.181 686.84 Z" fill="#000000" fill-rule="nonzero" fill-opacity="1" /><path clip-path="url(#clip190)" d="M216.343 690.544 Q212.732 690.544 210.903 694.109 Q209.098 697.65 209.098 704.78 Q209.098 711.886 210.903 715.451 Q212.732 718.993 216.343 718.993 Q219.977 718.993 221.783 715.451 Q223.611 711.886 223.611 704.78 Q223.611 697.65 221.783 694.109 Q219.977 690.544 216.343 690.544 M216.343 686.84 Q222.153 686.84 225.209 691.447 Q228.287 696.03 228.287 704.78 Q228.287 713.507 225.209 718.113 Q222.153 722.696 216.343 722.696 Q210.533 722.696 207.454 718.113 Q204.399 713.507 204.399 704.78 Q204.399 696.03 207.454 691.447 Q210.533 686.84 216.343 686.84 Z" fill="#000000" fill-rule="nonzero" fill-opacity="1" /><path clip-path="url(#clip190)" d="M119.885 490.611 L136.204 490.611 L136.204 494.546 L114.26 494.546 L114.26 490.611 Q116.922 487.856 121.505 483.226 Q126.112 478.574 127.292 477.231 Q129.538 474.708 130.417 472.972 Q131.32 471.212 131.32 469.523 Q131.32 466.768 129.376 465.032 Q127.455 463.296 124.353 463.296 Q122.154 463.296 119.7 464.06 Q117.269 464.824 114.492 466.375 L114.492 461.652 Q117.316 460.518 119.769 459.939 Q122.223 459.361 124.26 459.361 Q129.63 459.361 132.825 462.046 Q136.019 464.731 136.019 469.222 Q136.019 471.351 135.209 473.273 Q134.422 475.171 132.316 477.763 Q131.737 478.435 128.635 481.652 Q125.533 484.847 119.885 490.611 Z" fill="#000000" fill-rule="nonzero" fill-opacity="1" /><path clip-path="url(#clip190)" d="M156.019 463.064 Q152.408 463.064 150.579 466.629 Q148.774 470.171 148.774 477.3 Q148.774 484.407 150.579 487.972 Q152.408 491.513 156.019 491.513 Q159.653 491.513 161.459 487.972 Q163.288 484.407 163.288 477.3 Q163.288 470.171 161.459 466.629 Q159.653 463.064 156.019 463.064 M156.019 459.361 Q161.829 459.361 164.885 463.967 Q167.964 468.55 167.964 477.3 Q167.964 486.027 164.885 490.634 Q161.829 495.217 156.019 495.217 Q150.209 495.217 147.13 490.634 Q144.075 486.027 144.075 477.3 Q144.075 468.55 147.13 463.967 Q150.209 459.361 156.019 459.361 Z" fill="#000000" fill-rule="nonzero" fill-opacity="1" /><path clip-path="url(#clip190)" d="M186.181 463.064 Q182.57 463.064 180.741 466.629 Q178.936 470.171 178.936 477.3 Q178.936 484.407 180.741 487.972 Q182.57 491.513 186.181 491.513 Q189.815 491.513 191.621 487.972 Q193.45 484.407 193.45 477.3 Q193.45 470.171 191.621 466.629 Q189.815 463.064 186.181 463.064 M186.181 459.361 Q191.991 459.361 195.047 463.967 Q198.125 468.55 198.125 477.3 Q198.125 486.027 195.047 490.634 Q191.991 495.217 186.181 495.217 Q180.371 495.217 177.292 490.634 Q174.237 486.027 174.237 477.3 Q174.237 468.55 177.292 463.967 Q180.371 459.361 186.181 459.361 Z" fill="#000000" fill-rule="nonzero" fill-opacity="1" /><path clip-path="url(#clip190)" d="M216.343 463.064 Q212.732 463.064 210.903 466.629 Q209.098 470.171 209.098 477.3 Q209.098 484.407 210.903 487.972 Q212.732 491.513 216.343 491.513 Q219.977 491.513 221.783 487.972 Q223.611 484.407 223.611 477.3 Q223.611 470.171 221.783 466.629 Q219.977 463.064 216.343 463.064 M216.343 459.361 Q222.153 459.361 225.209 463.967 Q228.287 468.55 228.287 477.3 Q228.287 486.027 225.209 490.634 Q222.153 495.217 216.343 495.217 Q210.533 495.217 207.454 490.634 Q204.399 486.027 204.399 477.3 Q204.399 468.55 207.454 463.967 Q210.533 459.361 216.343 459.361 Z" fill="#000000" fill-rule="nonzero" fill-opacity="1" /><path clip-path="url(#clip190)" d="M119.885 263.131 L136.204 263.131 L136.204 267.066 L114.26 267.066 L114.26 263.131 Q116.922 260.376 121.505 255.747 Q126.112 251.094 127.292 249.751 Q129.538 247.228 130.417 245.492 Q131.32 243.733 131.32 242.043 Q131.32 239.289 129.376 237.552 Q127.455 235.816 124.353 235.816 Q122.154 235.816 119.7 236.58 Q117.269 237.344 114.492 238.895 L114.492 234.173 Q117.316 233.039 119.769 232.46 Q122.223 231.881 124.26 231.881 Q129.63 231.881 132.825 234.566 Q136.019 237.252 136.019 241.742 Q136.019 243.872 135.209 245.793 Q134.422 247.691 132.316 250.284 Q131.737 250.955 128.635 254.173 Q125.533 257.367 119.885 263.131 Z" fill="#000000" fill-rule="nonzero" fill-opacity="1" /><path clip-path="url(#clip190)" d="M146.066 232.506 L164.422 232.506 L164.422 236.441 L150.348 236.441 L150.348 244.914 Q151.366 244.566 152.385 244.404 Q153.403 244.219 154.422 244.219 Q160.209 244.219 163.589 247.39 Q166.968 250.562 166.968 255.978 Q166.968 261.557 163.496 264.659 Q160.024 267.738 153.704 267.738 Q151.528 267.738 149.26 267.367 Q147.015 266.997 144.607 266.256 L144.607 261.557 Q146.691 262.691 148.913 263.247 Q151.135 263.802 153.612 263.802 Q157.616 263.802 159.954 261.696 Q162.292 259.589 162.292 255.978 Q162.292 252.367 159.954 250.261 Q157.616 248.154 153.612 248.154 Q151.737 248.154 149.862 248.571 Q148.01 248.988 146.066 249.867 L146.066 232.506 Z" fill="#000000" fill-rule="nonzero" fill-opacity="1" /><path clip-path="url(#clip190)" d="M186.181 235.585 Q182.57 235.585 180.741 239.15 Q178.936 242.691 178.936 249.821 Q178.936 256.927 180.741 260.492 Q182.57 264.034 186.181 264.034 Q189.815 264.034 191.621 260.492 Q193.45 256.927 193.45 249.821 Q193.45 242.691 191.621 239.15 Q189.815 235.585 186.181 235.585 M186.181 231.881 Q191.991 231.881 195.047 236.488 Q198.125 241.071 198.125 249.821 Q198.125 258.548 195.047 263.154 Q191.991 267.738 186.181 267.738 Q180.371 267.738 177.292 263.154 Q174.237 258.548 174.237 249.821 Q174.237 241.071 177.292 236.488 Q180.371 231.881 186.181 231.881 Z" fill="#000000" fill-rule="nonzero" fill-opacity="1" /><path clip-path="url(#clip190)" d="M216.343 235.585 Q212.732 235.585 210.903 239.15 Q209.098 242.691 209.098 249.821 Q209.098 256.927 210.903 260.492 Q212.732 264.034 216.343 264.034 Q219.977 264.034 221.783 260.492 Q223.611 256.927 223.611 249.821 Q223.611 242.691 221.783 239.15 Q219.977 235.585 216.343 235.585 M216.343 231.881 Q222.153 231.881 225.209 236.488 Q228.287 241.071 228.287 249.821 Q228.287 258.548 225.209 263.154 Q222.153 267.738 216.343 267.738 Q210.533 267.738 207.454 263.154 Q204.399 258.548 204.399 249.821 Q204.399 241.071 207.454 236.488 Q210.533 231.881 216.343 231.881 Z" fill="#000000" fill-rule="nonzero" fill-opacity="1" /><path clip-path="url(#clip190)" d="M41.7242 820.847 Q42.4244 818.779 44.7161 816.837 Q47.0077 814.864 51.0181 812.89 L64.0042 806.365 L64.0042 813.272 L51.8138 819.351 Q47.0395 821.707 45.48 823.935 Q43.9204 826.131 43.9204 829.95 L43.9204 836.953 L64.0042 836.953 L64.0042 843.382 L16.4842 843.382 L16.4842 828.868 Q16.4842 820.72 19.8898 816.71 Q23.2955 812.699 30.1704 812.699 Q34.6582 812.699 37.6183 814.8 Q40.5784 816.869 41.7242 820.847 M21.7677 836.953 L38.6368 836.953 L38.6368 828.868 Q38.6368 824.221 36.5043 821.866 Q34.34 819.479 30.1704 819.479 Q26.0009 819.479 23.9002 821.866 Q21.7677 824.221 21.7677 828.868 L21.7677 836.953 Z" fill="#000000" fill-rule="nonzero" fill-opacity="1" /><path clip-path="url(#clip190)" d="M46.0847 783.576 Q46.0847 790.674 47.7079 793.411 Q49.3312 796.148 53.2461 796.148 Q56.3653 796.148 58.2114 794.111 Q60.0256 792.043 60.0256 788.51 Q60.0256 783.64 56.5881 780.712 Q53.1188 777.752 47.3897 777.752 L46.0847 777.752 L46.0847 783.576 M43.6657 771.895 L64.0042 771.895 L64.0042 777.752 L58.5933 777.752 Q61.8398 779.757 63.3994 782.749 Q64.9272 785.741 64.9272 790.069 Q64.9272 795.544 61.8716 798.79 Q58.7843 802.005 53.6281 802.005 Q47.6125 802.005 44.5569 797.995 Q41.5014 793.952 41.5014 785.963 L41.5014 777.752 L40.9285 777.752 Q36.8862 777.752 34.6901 780.425 Q32.4621 783.067 32.4621 787.873 Q32.4621 790.929 33.1941 793.825 Q33.9262 796.721 35.3903 799.395 L29.9795 799.395 Q28.7381 796.18 28.1334 793.157 Q27.4968 790.133 27.4968 787.268 Q27.4968 779.534 31.5072 775.715 Q35.5176 771.895 43.6657 771.895 Z" fill="#000000" fill-rule="nonzero" fill-opacity="1" /><path clip-path="url(#clip190)" d="M18.2347 754.039 L28.3562 754.039 L28.3562 741.976 L32.9077 741.976 L32.9077 754.039 L52.2594 754.039 Q56.6199 754.039 57.8613 752.862 Q59.1026 751.652 59.1026 747.992 L59.1026 741.976 L64.0042 741.976 L64.0042 747.992 Q64.0042 754.771 61.4897 757.35 Q58.9434 759.928 52.2594 759.928 L32.9077 759.928 L32.9077 764.224 L28.3562 764.224 L28.3562 759.928 L18.2347 759.928 L18.2347 754.039 Z" fill="#000000" fill-rule="nonzero" fill-opacity="1" /><path clip-path="url(#clip190)" d="M28.3562 734.274 L28.3562 728.417 L64.0042 728.417 L64.0042 734.274 L28.3562 734.274 M14.479 734.274 L14.479 728.417 L21.895 728.417 L21.895 734.274 L14.479 734.274 Z" fill="#000000" fill-rule="nonzero" fill-opacity="1" /><path clip-path="url(#clip190)" d="M32.4621 702.35 Q32.4621 707.06 36.1542 709.798 Q39.8145 712.535 46.212 712.535 Q52.6095 712.535 56.3017 709.83 Q59.9619 707.092 59.9619 702.35 Q59.9619 697.671 56.2698 694.934 Q52.5777 692.196 46.212 692.196 Q39.8781 692.196 36.186 694.934 Q32.4621 697.671 32.4621 702.35 M27.4968 702.35 Q27.4968 694.711 32.4621 690.35 Q37.4273 685.99 46.212 685.99 Q54.9649 685.99 59.9619 690.35 Q64.9272 694.711 64.9272 702.35 Q64.9272 710.02 59.9619 714.381 Q54.9649 718.71 46.212 718.71 Q37.4273 718.71 32.4621 714.381 Q27.4968 710.02 27.4968 702.35 Z" fill="#000000" fill-rule="nonzero" fill-opacity="1" /><path clip-path="url(#clip190)" d="M571.445 31.5855 Q573.326 32.222 575.091 34.3054 Q576.885 36.3887 578.679 40.0345 L584.611 51.84 L578.332 51.84 L572.805 40.7579 Q570.664 36.4176 568.638 34.9998 Q566.642 33.582 563.17 33.582 L556.804 33.582 L556.804 51.84 L550.959 51.84 L550.959 8.64 L564.153 8.64 Q571.561 8.64 575.207 11.736 Q578.852 14.8321 578.852 21.0821 Q578.852 25.1619 576.943 27.8529 Q575.062 30.5438 571.445 31.5855 M556.804 13.4432 L556.804 28.7788 L564.153 28.7788 Q568.378 28.7788 570.519 26.8401 Q572.689 24.8726 572.689 21.0821 Q572.689 17.2916 570.519 15.3819 Q568.378 13.4432 564.153 13.4432 L556.804 13.4432 Z" fill="#000000" fill-rule="nonzero" fill-opacity="1" /><path clip-path="url(#clip190)" d="M605.328 35.5496 Q598.876 35.5496 596.387 37.0253 Q593.899 38.501 593.899 42.06 Q593.899 44.8956 595.751 46.5738 Q597.631 48.2231 600.843 48.2231 Q605.27 48.2231 607.932 45.0981 Q610.623 41.9442 610.623 36.7359 L610.623 35.5496 L605.328 35.5496 M615.947 33.3505 L615.947 51.84 L610.623 51.84 L610.623 46.921 Q608.8 49.8724 606.08 51.2902 Q603.36 52.6791 599.425 52.6791 Q594.448 52.6791 591.497 49.9014 Q588.575 47.0947 588.575 42.4072 Q588.575 36.9385 592.22 34.1607 Q595.895 31.3829 603.158 31.3829 L610.623 31.3829 L610.623 30.8621 Q610.623 27.1874 608.193 25.1908 Q605.791 23.1654 601.422 23.1654 Q598.644 23.1654 596.011 23.8309 Q593.378 24.4964 590.947 25.8274 L590.947 20.9085 Q593.87 19.78 596.619 19.2302 Q599.367 18.6515 601.972 18.6515 Q609.003 18.6515 612.475 22.2973 Q615.947 25.9431 615.947 33.3505 Z" fill="#000000" fill-rule="nonzero" fill-opacity="1" /><path clip-path="url(#clip190)" d="M632.18 10.2314 L632.18 19.4328 L643.146 19.4328 L643.146 23.5705 L632.18 23.5705 L632.18 41.163 Q632.18 45.1271 633.25 46.2555 Q634.35 47.384 637.677 47.384 L643.146 47.384 L643.146 51.84 L637.677 51.84 Q631.514 51.84 629.171 49.5541 Q626.827 47.2393 626.827 41.163 L626.827 23.5705 L622.921 23.5705 L622.921 19.4328 L626.827 19.4328 L626.827 10.2314 L632.18 10.2314 Z" fill="#000000" fill-rule="nonzero" fill-opacity="1" /><path clip-path="url(#clip190)" d="M650.148 19.4328 L655.472 19.4328 L655.472 51.84 L650.148 51.84 L650.148 19.4328 M650.148 6.81709 L655.472 6.81709 L655.472 13.559 L650.148 13.559 L650.148 6.81709 Z" fill="#000000" fill-rule="nonzero" fill-opacity="1" /><path clip-path="url(#clip190)" d="M679.17 23.1654 Q674.888 23.1654 672.399 26.5218 Q669.911 29.8494 669.911 35.6653 Q669.911 41.4813 672.371 44.8377 Q674.859 48.1653 679.17 48.1653 Q683.424 48.1653 685.912 44.8088 Q688.401 41.4523 688.401 35.6653 Q688.401 29.9072 685.912 26.5508 Q683.424 23.1654 679.17 23.1654 M679.17 18.6515 Q686.115 18.6515 690.079 23.1654 Q694.043 27.6792 694.043 35.6653 Q694.043 43.6225 690.079 48.1653 Q686.115 52.6791 679.17 52.6791 Q672.197 52.6791 668.233 48.1653 Q664.298 43.6225 664.298 35.6653 Q664.298 27.6792 668.233 23.1654 Q672.197 18.6515 679.17 18.6515 Z" fill="#000000" fill-rule="nonzero" fill-opacity="1" /><path clip-path="url(#clip190)" d="M734.263 23.1654 Q729.98 23.1654 727.492 26.5218 Q725.003 29.8494 725.003 35.6653 Q725.003 41.4813 727.463 44.8377 Q729.951 48.1653 734.263 48.1653 Q738.516 48.1653 741.004 44.8088 Q743.493 41.4523 743.493 35.6653 Q743.493 29.9072 741.004 26.5508 Q738.516 23.1654 734.263 23.1654 M734.263 18.6515 Q741.207 18.6515 745.171 23.1654 Q749.135 27.6792 749.135 35.6653 Q749.135 43.6225 745.171 48.1653 Q741.207 52.6791 734.263 52.6791 Q727.289 52.6791 723.325 48.1653 Q719.39 43.6225 719.39 35.6653 Q719.39 27.6792 723.325 23.1654 Q727.289 18.6515 734.263 18.6515 Z" fill="#000000" fill-rule="nonzero" fill-opacity="1" /><path clip-path="url(#clip190)" d="M774.366 6.81709 L774.366 11.2442 L769.274 11.2442 Q766.409 11.2442 765.281 12.4016 Q764.181 13.559 764.181 16.5682 L764.181 19.4328 L772.949 19.4328 L772.949 23.5705 L764.181 23.5705 L764.181 51.84 L758.828 51.84 L758.828 23.5705 L753.736 23.5705 L753.736 19.4328 L758.828 19.4328 L758.828 17.1758 Q758.828 11.765 761.346 9.30551 Q763.863 6.81709 769.332 6.81709 L774.366 6.81709 Z" fill="#000000" fill-rule="nonzero" fill-opacity="1" /><path clip-path="url(#clip190)" d="M802.925 10.2314 L802.925 19.4328 L813.892 19.4328 L813.892 23.5705 L802.925 23.5705 L802.925 41.163 Q802.925 45.1271 803.996 46.2555 Q805.095 47.384 808.423 47.384 L813.892 47.384 L813.892 51.84 L808.423 51.84 Q802.26 51.84 799.916 49.5541 Q797.572 47.2393 797.572 41.163 L797.572 23.5705 L793.666 23.5705 L793.666 19.4328 L797.572 19.4328 L797.572 10.2314 L802.925 10.2314 Z" fill="#000000" fill-rule="nonzero" fill-opacity="1" /><path clip-path="url(#clip190)" d="M820.894 19.4328 L826.218 19.4328 L826.218 51.84 L820.894 51.84 L820.894 19.4328 M820.894 6.81709 L826.218 6.81709 L826.218 13.559 L820.894 13.559 L820.894 6.81709 Z" fill="#000000" fill-rule="nonzero" fill-opacity="1" /><path clip-path="url(#clip190)" d="M862.589 25.6538 Q864.586 22.0659 867.364 20.3587 Q870.141 18.6515 873.903 18.6515 Q878.967 18.6515 881.715 22.2105 Q884.464 25.7406 884.464 32.2799 L884.464 51.84 L879.111 51.84 L879.111 32.4535 Q879.111 27.795 877.462 25.5381 Q875.813 23.2811 872.427 23.2811 Q868.29 23.2811 865.888 26.03 Q863.486 28.7788 863.486 33.5241 L863.486 51.84 L858.133 51.84 L858.133 32.4535 Q858.133 27.7661 856.484 25.5381 Q854.835 23.2811 851.392 23.2811 Q847.312 23.2811 844.91 26.0589 Q842.508 28.8077 842.508 33.5241 L842.508 51.84 L837.156 51.84 L837.156 19.4328 L842.508 19.4328 L842.508 24.4675 Q844.331 21.4872 846.878 20.0693 Q849.424 18.6515 852.925 18.6515 Q856.455 18.6515 858.915 20.4455 Q861.403 22.2395 862.589 25.6538 Z" fill="#000000" fill-rule="nonzero" fill-opacity="1" /><path clip-path="url(#clip190)" d="M922.803 34.3054 L922.803 36.9095 L898.324 36.9095 Q898.671 42.4072 901.623 45.3007 Q904.603 48.1653 909.898 48.1653 Q912.965 48.1653 915.83 47.4129 Q918.723 46.6606 921.559 45.156 L921.559 50.1907 Q918.694 51.406 915.685 52.0425 Q912.676 52.6791 909.58 52.6791 Q901.825 52.6791 897.282 48.1653 Q892.769 43.6514 892.769 35.9547 Q892.769 27.9975 897.051 23.339 Q901.362 18.6515 908.654 18.6515 Q915.193 18.6515 918.984 22.876 Q922.803 27.0716 922.803 34.3054 M917.479 32.7429 Q917.421 28.3737 915.02 25.7695 Q912.647 23.1654 908.712 23.1654 Q904.256 23.1654 901.565 25.6827 Q898.903 28.2001 898.498 32.7718 L917.479 32.7429 Z" fill="#000000" fill-rule="nonzero" fill-opacity="1" /><path clip-path="url(#clip190)" d="M952.201 20.3876 L952.201 25.4223 Q949.944 24.2649 947.514 23.6862 Q945.083 23.1075 942.479 23.1075 Q938.515 23.1075 936.518 24.3228 Q934.551 25.5381 934.551 27.9686 Q934.551 29.8204 935.969 30.891 Q937.386 31.9327 941.669 32.8876 L943.492 33.2926 Q949.163 34.5079 951.536 36.7359 Q953.937 38.935 953.937 42.8991 Q953.937 47.4129 950.349 50.046 Q946.79 52.6791 940.54 52.6791 Q937.936 52.6791 935.101 52.1583 Q932.294 51.6664 929.169 50.6537 L929.169 45.156 Q932.12 46.6896 934.985 47.4708 Q937.849 48.2231 940.656 48.2231 Q944.418 48.2231 946.443 46.95 Q948.469 45.6479 948.469 43.3042 Q948.469 41.134 946.993 39.9766 Q945.546 38.8192 940.598 37.7486 L938.746 37.3146 Q933.799 36.273 931.599 34.1318 Q929.4 31.9616 929.4 28.2001 Q929.4 23.6283 932.641 21.1399 Q935.882 18.6515 941.842 18.6515 Q944.794 18.6515 947.398 19.0855 Q950.002 19.5196 952.201 20.3876 Z" fill="#000000" fill-rule="nonzero" fill-opacity="1" /><path clip-path="url(#clip190)" d="M963.775 44.4905 L969.88 44.4905 L969.88 49.4673 L965.135 58.7265 L961.403 58.7265 L963.775 49.4673 L963.775 44.4905 Z" fill="#000000" fill-rule="nonzero" fill-opacity="1" /><path clip-path="url(#clip190)" d="M1026.22 10.0578 L1026.22 15.758 Q1022.89 14.1666 1019.94 13.3853 Q1016.99 12.6041 1014.24 12.6041 Q1009.46 12.6041 1006.86 14.4559 Q1004.28 16.3078 1004.28 19.7221 Q1004.28 22.5867 1005.99 24.0624 Q1007.73 25.5091 1012.53 26.4061 L1016.06 27.1295 Q1022.6 28.3737 1025.7 31.5276 Q1028.82 34.6526 1028.82 39.9188 Q1028.82 46.1977 1024.6 49.4384 Q1020.4 52.6791 1012.27 52.6791 Q1009.2 52.6791 1005.73 51.9847 Q1002.29 51.2902 998.584 49.9303 L998.584 43.9118 Q1002.14 45.9083 1005.56 46.921 Q1008.97 47.9338 1012.27 47.9338 Q1017.28 47.9338 1020 45.9662 Q1022.72 43.9986 1022.72 40.3528 Q1022.72 37.1699 1020.75 35.376 Q1018.81 33.582 1014.35 32.685 L1010.79 31.9906 Q1004.26 30.6885 1001.33 27.9107 Q998.41 25.133 998.41 20.1851 Q998.41 14.4559 1002.43 11.1573 Q1006.48 7.85875 1013.57 7.85875 Q1016.61 7.85875 1019.76 8.40852 Q1022.92 8.95829 1026.22 10.0578 Z" fill="#000000" fill-rule="nonzero" fill-opacity="1" /><path clip-path="url(#clip190)" d="M1051.19 54.8492 Q1048.93 60.6362 1046.79 62.4013 Q1044.65 64.1663 1041.06 64.1663 L1036.81 64.1663 L1036.81 59.7103 L1039.93 59.7103 Q1042.13 59.7103 1043.35 58.6687 Q1044.56 57.627 1046.04 53.7497 L1046.99 51.3192 L1033.88 19.4328 L1039.53 19.4328 L1049.65 44.7799 L1059.78 19.4328 L1065.42 19.4328 L1051.19 54.8492 Z" fill="#000000" fill-rule="nonzero" fill-opacity="1" /><path clip-path="url(#clip190)" d="M1098 25.6538 Q1100 22.0659 1102.78 20.3587 Q1105.56 18.6515 1109.32 18.6515 Q1114.38 18.6515 1117.13 22.2105 Q1119.88 25.7406 1119.88 32.2799 L1119.88 51.84 L1114.53 51.84 L1114.53 32.4535 Q1114.53 27.795 1112.88 25.5381 Q1111.23 23.2811 1107.84 23.2811 Q1103.71 23.2811 1101.3 26.03 Q1098.9 28.7788 1098.9 33.5241 L1098.9 51.84 L1093.55 51.84 L1093.55 32.4535 Q1093.55 27.7661 1091.9 25.5381 Q1090.25 23.2811 1086.81 23.2811 Q1082.73 23.2811 1080.33 26.0589 Q1077.92 28.8077 1077.92 33.5241 L1077.92 51.84 L1072.57 51.84 L1072.57 19.4328 L1077.92 19.4328 L1077.92 24.4675 Q1079.75 21.4872 1082.29 20.0693 Q1084.84 18.6515 1088.34 18.6515 Q1091.87 18.6515 1094.33 20.4455 Q1096.82 22.2395 1098 25.6538 Z" fill="#000000" fill-rule="nonzero" fill-opacity="1" /><path clip-path="url(#clip190)" d="M1153.76 35.6653 Q1153.76 29.7915 1151.33 26.464 Q1148.93 23.1075 1144.71 23.1075 Q1140.48 23.1075 1138.05 26.464 Q1135.65 29.7915 1135.65 35.6653 Q1135.65 41.5391 1138.05 44.8956 Q1140.48 48.2231 1144.71 48.2231 Q1148.93 48.2231 1151.33 44.8956 Q1153.76 41.5391 1153.76 35.6653 M1135.65 24.3517 Q1137.33 21.4582 1139.87 20.0693 Q1142.45 18.6515 1146.01 18.6515 Q1151.91 18.6515 1155.59 23.339 Q1159.29 28.0265 1159.29 35.6653 Q1159.29 43.3042 1155.59 47.9916 Q1151.91 52.6791 1146.01 52.6791 Q1142.45 52.6791 1139.87 51.2902 Q1137.33 49.8724 1135.65 46.9789 L1135.65 51.84 L1130.3 51.84 L1130.3 6.81709 L1135.65 6.81709 L1135.65 24.3517 Z" fill="#000000" fill-rule="nonzero" fill-opacity="1" /><path clip-path="url(#clip190)" d="M1180.67 23.1654 Q1176.39 23.1654 1173.9 26.5218 Q1171.41 29.8494 1171.41 35.6653 Q1171.41 41.4813 1173.87 44.8377 Q1176.36 48.1653 1180.67 48.1653 Q1184.93 48.1653 1187.41 44.8088 Q1189.9 41.4523 1189.9 35.6653 Q1189.9 29.9072 1187.41 26.5508 Q1184.93 23.1654 1180.67 23.1654 M1180.67 18.6515 Q1187.62 18.6515 1191.58 23.1654 Q1195.54 27.6792 1195.54 35.6653 Q1195.54 43.6225 1191.58 48.1653 Q1187.62 52.6791 1180.67 52.6791 Q1173.7 52.6791 1169.73 48.1653 Q1165.8 43.6225 1165.8 35.6653 Q1165.8 27.6792 1169.73 23.1654 Q1173.7 18.6515 1180.67 18.6515 Z" fill="#000000" fill-rule="nonzero" fill-opacity="1" /><path clip-path="url(#clip190)" d="M1204.37 6.81709 L1209.69 6.81709 L1209.69 51.84 L1204.37 51.84 L1204.37 6.81709 Z" fill="#000000" fill-rule="nonzero" fill-opacity="1" /><path clip-path="url(#clip190)" d="M1220.83 19.4328 L1226.16 19.4328 L1226.16 51.84 L1220.83 51.84 L1220.83 19.4328 M1220.83 6.81709 L1226.16 6.81709 L1226.16 13.559 L1220.83 13.559 L1220.83 6.81709 Z" fill="#000000" fill-rule="nonzero" fill-opacity="1" /><path clip-path="url(#clip190)" d="M1260.62 20.677 L1260.62 25.6538 Q1258.36 24.4096 1256.08 23.802 Q1253.82 23.1654 1251.51 23.1654 Q1246.33 23.1654 1243.46 26.464 Q1240.6 29.7336 1240.6 35.6653 Q1240.6 41.597 1243.46 44.8956 Q1246.33 48.1653 1251.51 48.1653 Q1253.82 48.1653 1256.08 47.5576 Q1258.36 46.921 1260.62 45.6768 L1260.62 50.5958 Q1258.39 51.6375 1255.99 52.1583 Q1253.62 52.6791 1250.93 52.6791 Q1243.61 52.6791 1239.29 48.0784 Q1234.98 43.4778 1234.98 35.6653 Q1234.98 27.7371 1239.32 23.1943 Q1243.69 18.6515 1251.27 18.6515 Q1253.73 18.6515 1256.08 19.1724 Q1258.42 19.6642 1260.62 20.677 Z" fill="#000000" fill-rule="nonzero" fill-opacity="1" /><path clip-path="url(#clip190)" d="M1290.54 20.3876 L1290.54 25.4223 Q1288.28 24.2649 1285.85 23.6862 Q1283.42 23.1075 1280.82 23.1075 Q1276.85 23.1075 1274.86 24.3228 Q1272.89 25.5381 1272.89 27.9686 Q1272.89 29.8204 1274.31 30.891 Q1275.72 31.9327 1280.01 32.8876 L1281.83 33.2926 Q1287.5 34.5079 1289.87 36.7359 Q1292.27 38.935 1292.27 42.8991 Q1292.27 47.4129 1288.69 50.046 Q1285.13 52.6791 1278.88 52.6791 Q1276.27 52.6791 1273.44 52.1583 Q1270.63 51.6664 1267.51 50.6537 L1267.51 45.156 Q1270.46 46.6896 1273.32 47.4708 Q1276.19 48.2231 1278.99 48.2231 Q1282.75 48.2231 1284.78 46.95 Q1286.81 45.6479 1286.81 43.3042 Q1286.81 41.134 1285.33 39.9766 Q1283.88 38.8192 1278.94 37.7486 L1277.08 37.3146 Q1272.14 36.273 1269.94 34.1318 Q1267.74 31.9616 1267.74 28.2001 Q1267.74 23.6283 1270.98 21.1399 Q1274.22 18.6515 1280.18 18.6515 Q1283.13 18.6515 1285.74 19.0855 Q1288.34 19.5196 1290.54 20.3876 Z" fill="#000000" fill-rule="nonzero" fill-opacity="1" /><path clip-path="url(#clip190)" d="M1310.21 8.64 L1315.13 8.64 L1300.09 57.3377 L1295.17 57.3377 L1310.21 8.64 Z" fill="#000000" fill-rule="nonzero" fill-opacity="1" /><path clip-path="url(#clip190)" d="M1320.95 8.64 L1345.78 8.64 L1345.78 13.559 L1326.79 13.559 L1326.79 26.2904 L1343.92 26.2904 L1343.92 31.2093 L1326.79 31.2093 L1326.79 51.84 L1320.95 51.84 L1320.95 8.64 Z" fill="#000000" fill-rule="nonzero" fill-opacity="1" /><path clip-path="url(#clip190)" d="M1379.89 10.0578 L1379.89 15.758 Q1376.56 14.1666 1373.61 13.3853 Q1370.66 12.6041 1367.91 12.6041 Q1363.14 12.6041 1360.53 14.4559 Q1357.96 16.3078 1357.96 19.7221 Q1357.96 22.5867 1359.66 24.0624 Q1361.4 25.5091 1366.2 26.4061 L1369.73 27.1295 Q1376.27 28.3737 1379.37 31.5276 Q1382.49 34.6526 1382.49 39.9188 Q1382.49 46.1977 1378.27 49.4384 Q1374.07 52.6791 1365.94 52.6791 Q1362.88 52.6791 1359.4 51.9847 Q1355.96 51.2902 1352.26 49.9303 L1352.26 43.9118 Q1355.82 45.9083 1359.23 46.921 Q1362.64 47.9338 1365.94 47.9338 Q1370.95 47.9338 1373.67 45.9662 Q1376.39 43.9986 1376.39 40.3528 Q1376.39 37.1699 1374.42 35.376 Q1372.48 33.582 1368.03 32.685 L1364.47 31.9906 Q1357.93 30.6885 1355.01 27.9107 Q1352.08 25.133 1352.08 20.1851 Q1352.08 14.4559 1356.11 11.1573 Q1360.16 7.85875 1367.25 7.85875 Q1370.28 7.85875 1373.44 8.40852 Q1376.59 8.95829 1379.89 10.0578 Z" fill="#000000" fill-rule="nonzero" fill-opacity="1" /><path clip-path="url(#clip190)" d="M1397.45 13.4432 L1397.45 47.0368 L1404.51 47.0368 Q1413.45 47.0368 1417.59 42.9859 Q1421.76 38.935 1421.76 30.1966 Q1421.76 21.5161 1417.59 17.4941 Q1413.45 13.4432 1404.51 13.4432 L1397.45 13.4432 M1391.61 8.64 L1403.62 8.64 Q1416.17 8.64 1422.05 13.8772 Q1427.92 19.0855 1427.92 30.1966 Q1427.92 41.3655 1422.02 46.6028 Q1416.12 51.84 1403.62 51.84 L1391.61 51.84 L1391.61 8.64 Z" fill="#000000" fill-rule="nonzero" fill-opacity="1" /><path clip-path="url(#clip190)" d="M1438.37 44.4905 L1444.47 44.4905 L1444.47 51.84 L1438.37 51.84 L1438.37 44.4905 M1438.37 21.1978 L1444.47 21.1978 L1444.47 28.5473 L1438.37 28.5473 L1438.37 21.1978 Z" fill="#000000" fill-rule="nonzero" fill-opacity="1" /><path clip-path="url(#clip190)" d="M1496.47 20.3876 L1496.47 25.4223 Q1494.21 24.2649 1491.78 23.6862 Q1489.35 23.1075 1486.75 23.1075 Q1482.78 23.1075 1480.79 24.3228 Q1478.82 25.5381 1478.82 27.9686 Q1478.82 29.8204 1480.24 30.891 Q1481.65 31.9327 1485.94 32.8876 L1487.76 33.2926 Q1493.43 34.5079 1495.8 36.7359 Q1498.21 38.935 1498.21 42.8991 Q1498.21 47.4129 1494.62 50.046 Q1491.06 52.6791 1484.81 52.6791 Q1482.2 52.6791 1479.37 52.1583 Q1476.56 51.6664 1473.44 50.6537 L1473.44 45.156 Q1476.39 46.6896 1479.25 47.4708 Q1482.12 48.2231 1484.92 48.2231 Q1488.69 48.2231 1490.71 46.95 Q1492.74 45.6479 1492.74 43.3042 Q1492.74 41.134 1491.26 39.9766 Q1489.81 38.8192 1484.87 37.7486 L1483.01 37.3146 Q1478.07 36.273 1475.87 34.1318 Q1473.67 31.9616 1473.67 28.2001 Q1473.67 23.6283 1476.91 21.1399 Q1480.15 18.6515 1486.11 18.6515 Q1489.06 18.6515 1491.67 19.0855 Q1494.27 19.5196 1496.47 20.3876 Z" fill="#000000" fill-rule="nonzero" fill-opacity="1" /><path clip-path="url(#clip190)" d="M1520.17 54.8492 Q1517.91 60.6362 1515.77 62.4013 Q1513.63 64.1663 1510.04 64.1663 L1505.79 64.1663 L1505.79 59.7103 L1508.91 59.7103 Q1511.11 59.7103 1512.33 58.6687 Q1513.54 57.627 1515.02 53.7497 L1515.97 51.3192 L1502.86 19.4328 L1508.51 19.4328 L1518.63 44.7799 L1528.76 19.4328 L1534.4 19.4328 L1520.17 54.8492 Z" fill="#000000" fill-rule="nonzero" fill-opacity="1" /><path clip-path="url(#clip190)" d="M1566.98 25.6538 Q1568.98 22.0659 1571.76 20.3587 Q1574.54 18.6515 1578.3 18.6515 Q1583.36 18.6515 1586.11 22.2105 Q1588.86 25.7406 1588.86 32.2799 L1588.86 51.84 L1583.51 51.84 L1583.51 32.4535 Q1583.51 27.795 1581.86 25.5381 Q1580.21 23.2811 1576.82 23.2811 Q1572.68 23.2811 1570.28 26.03 Q1567.88 28.7788 1567.88 33.5241 L1567.88 51.84 L1562.53 51.84 L1562.53 32.4535 Q1562.53 27.7661 1560.88 25.5381 Q1559.23 23.2811 1555.79 23.2811 Q1551.71 23.2811 1549.3 26.0589 Q1546.9 28.8077 1546.9 33.5241 L1546.9 51.84 L1541.55 51.84 L1541.55 19.4328 L1546.9 19.4328 L1546.9 24.4675 Q1548.73 21.4872 1551.27 20.0693 Q1553.82 18.6515 1557.32 18.6515 Q1560.85 18.6515 1563.31 20.4455 Q1565.8 22.2395 1566.98 25.6538 Z" fill="#000000" fill-rule="nonzero" fill-opacity="1" /><path clip-path="url(#clip190)" d="M1622.74 35.6653 Q1622.74 29.7915 1620.31 26.464 Q1617.91 23.1075 1613.68 23.1075 Q1609.46 23.1075 1607.03 26.464 Q1604.63 29.7915 1604.63 35.6653 Q1604.63 41.5391 1607.03 44.8956 Q1609.46 48.2231 1613.68 48.2231 Q1617.91 48.2231 1620.31 44.8956 Q1622.74 41.5391 1622.74 35.6653 M1604.63 24.3517 Q1606.31 21.4582 1608.85 20.0693 Q1611.43 18.6515 1614.99 18.6515 Q1620.89 18.6515 1624.56 23.339 Q1628.27 28.0265 1628.27 35.6653 Q1628.27 43.3042 1624.56 47.9916 Q1620.89 52.6791 1614.99 52.6791 Q1611.43 52.6791 1608.85 51.2902 Q1606.31 49.8724 1604.63 46.9789 L1604.63 51.84 L1599.28 51.84 L1599.28 6.81709 L1604.63 6.81709 L1604.63 24.3517 Z" fill="#000000" fill-rule="nonzero" fill-opacity="1" /><path clip-path="url(#clip190)" d="M1649.65 23.1654 Q1645.37 23.1654 1642.88 26.5218 Q1640.39 29.8494 1640.39 35.6653 Q1640.39 41.4813 1642.85 44.8377 Q1645.34 48.1653 1649.65 48.1653 Q1653.9 48.1653 1656.39 44.8088 Q1658.88 41.4523 1658.88 35.6653 Q1658.88 29.9072 1656.39 26.5508 Q1653.9 23.1654 1649.65 23.1654 M1649.65 18.6515 Q1656.6 18.6515 1660.56 23.1654 Q1664.52 27.6792 1664.52 35.6653 Q1664.52 43.6225 1660.56 48.1653 Q1656.6 52.6791 1649.65 52.6791 Q1642.68 52.6791 1638.71 48.1653 Q1634.78 43.6225 1634.78 35.6653 Q1634.78 27.6792 1638.71 23.1654 Q1642.68 18.6515 1649.65 18.6515 Z" fill="#000000" fill-rule="nonzero" fill-opacity="1" /><path clip-path="url(#clip190)" d="M1673.35 6.81709 L1678.67 6.81709 L1678.67 51.84 L1673.35 51.84 L1673.35 6.81709 Z" fill="#000000" fill-rule="nonzero" fill-opacity="1" /><path clip-path="url(#clip190)" d="M1689.81 19.4328 L1695.14 19.4328 L1695.14 51.84 L1689.81 51.84 L1689.81 19.4328 M1689.81 6.81709 L1695.14 6.81709 L1695.14 13.559 L1689.81 13.559 L1689.81 6.81709 Z" fill="#000000" fill-rule="nonzero" fill-opacity="1" /><path clip-path="url(#clip190)" d="M1729.6 20.677 L1729.6 25.6538 Q1727.34 24.4096 1725.06 23.802 Q1722.8 23.1654 1720.48 23.1654 Q1715.3 23.1654 1712.44 26.464 Q1709.58 29.7336 1709.58 35.6653 Q1709.58 41.597 1712.44 44.8956 Q1715.3 48.1653 1720.48 48.1653 Q1722.8 48.1653 1725.06 47.5576 Q1727.34 46.921 1729.6 45.6768 L1729.6 50.5958 Q1727.37 51.6375 1724.97 52.1583 Q1722.6 52.6791 1719.91 52.6791 Q1712.58 52.6791 1708.27 48.0784 Q1703.96 43.4778 1703.96 35.6653 Q1703.96 27.7371 1708.3 23.1943 Q1712.67 18.6515 1720.25 18.6515 Q1722.71 18.6515 1725.06 19.1724 Q1727.4 19.6642 1729.6 20.677 Z" fill="#000000" fill-rule="nonzero" fill-opacity="1" /><path clip-path="url(#clip190)" d="M1762.84 46.9789 L1762.84 64.1663 L1757.49 64.1663 L1757.49 19.4328 L1762.84 19.4328 L1762.84 24.3517 Q1764.52 21.4582 1767.07 20.0693 Q1769.64 18.6515 1773.2 18.6515 Q1779.11 18.6515 1782.78 23.339 Q1786.48 28.0265 1786.48 35.6653 Q1786.48 43.3042 1782.78 47.9916 Q1779.11 52.6791 1773.2 52.6791 Q1769.64 52.6791 1767.07 51.2902 Q1764.52 49.8724 1762.84 46.9789 M1780.96 35.6653 Q1780.96 29.7915 1778.53 26.464 Q1776.13 23.1075 1771.9 23.1075 Q1767.68 23.1075 1765.25 26.464 Q1762.84 29.7915 1762.84 35.6653 Q1762.84 41.5391 1765.25 44.8956 Q1767.68 48.2231 1771.9 48.2231 Q1776.13 48.2231 1778.53 44.8956 Q1780.96 41.5391 1780.96 35.6653 Z" fill="#000000" fill-rule="nonzero" fill-opacity="1" /><path clip-path="url(#clip190)" d="M1814.09 24.4096 Q1813.19 23.8888 1812.12 23.6573 Q1811.08 23.3969 1809.81 23.3969 Q1805.29 23.3969 1802.86 26.3482 Q1800.46 29.2707 1800.46 34.7683 L1800.46 51.84 L1795.11 51.84 L1795.11 19.4328 L1800.46 19.4328 L1800.46 24.4675 Q1802.14 21.5161 1804.83 20.0983 Q1807.52 18.6515 1811.37 18.6515 Q1811.92 18.6515 1812.58 18.7383 Q1813.25 18.7962 1814.06 18.9409 L1814.09 24.4096 Z" fill="#000000" fill-rule="nonzero" fill-opacity="1" /><path clip-path="url(#clip190)" d="M1830.93 23.1654 Q1826.65 23.1654 1824.16 26.5218 Q1821.67 29.8494 1821.67 35.6653 Q1821.67 41.4813 1824.13 44.8377 Q1826.62 48.1653 1830.93 48.1653 Q1835.18 48.1653 1837.67 44.8088 Q1840.16 41.4523 1840.16 35.6653 Q1840.16 29.9072 1837.67 26.5508 Q1835.18 23.1654 1830.93 23.1654 M1830.93 18.6515 Q1837.87 18.6515 1841.84 23.1654 Q1845.8 27.6792 1845.8 35.6653 Q1845.8 43.6225 1841.84 48.1653 Q1837.87 52.6791 1830.93 52.6791 Q1823.96 52.6791 1819.99 48.1653 Q1816.06 43.6225 1816.06 35.6653 Q1816.06 27.6792 1819.99 23.1654 Q1823.96 18.6515 1830.93 18.6515 Z" fill="#000000" fill-rule="nonzero" fill-opacity="1" /><path clip-path="url(#clip190)" d="M1877.95 20.677 L1877.95 25.6538 Q1875.69 24.4096 1873.41 23.802 Q1871.15 23.1654 1868.83 23.1654 Q1863.65 23.1654 1860.79 26.464 Q1857.93 29.7336 1857.93 35.6653 Q1857.93 41.597 1860.79 44.8956 Q1863.65 48.1653 1868.83 48.1653 Q1871.15 48.1653 1873.41 47.5576 Q1875.69 46.921 1877.95 45.6768 L1877.95 50.5958 Q1875.72 51.6375 1873.32 52.1583 Q1870.95 52.6791 1868.26 52.6791 Q1860.93 52.6791 1856.62 48.0784 Q1852.31 43.4778 1852.31 35.6653 Q1852.31 27.7371 1856.65 23.1943 Q1861.02 18.6515 1868.6 18.6515 Q1871.06 18.6515 1873.41 19.1724 Q1875.75 19.6642 1877.95 20.677 Z" fill="#000000" fill-rule="nonzero" fill-opacity="1" /><path clip-path="url(#clip190)" d="M1914.93 34.3054 L1914.93 36.9095 L1890.45 36.9095 Q1890.8 42.4072 1893.75 45.3007 Q1896.73 48.1653 1902.02 48.1653 Q1905.09 48.1653 1907.95 47.4129 Q1910.85 46.6606 1913.68 45.156 L1913.68 50.1907 Q1910.82 51.406 1907.81 52.0425 Q1904.8 52.6791 1901.7 52.6791 Q1893.95 52.6791 1889.41 48.1653 Q1884.89 43.6514 1884.89 35.9547 Q1884.89 27.9975 1889.18 23.339 Q1893.49 18.6515 1900.78 18.6515 Q1907.32 18.6515 1911.11 22.876 Q1914.93 27.0716 1914.93 34.3054 M1909.6 32.7429 Q1909.55 28.3737 1907.14 25.7695 Q1904.77 23.1654 1900.84 23.1654 Q1896.38 23.1654 1893.69 25.6827 Q1891.03 28.2001 1890.62 32.7718 L1909.6 32.7429 Z" fill="#000000" fill-rule="nonzero" fill-opacity="1" /><path clip-path="url(#clip190)" d="M1944.33 20.3876 L1944.33 25.4223 Q1942.07 24.2649 1939.64 23.6862 Q1937.21 23.1075 1934.6 23.1075 Q1930.64 23.1075 1928.64 24.3228 Q1926.68 25.5381 1926.68 27.9686 Q1926.68 29.8204 1928.09 30.891 Q1929.51 31.9327 1933.79 32.8876 L1935.62 33.2926 Q1941.29 34.5079 1943.66 36.7359 Q1946.06 38.935 1946.06 42.8991 Q1946.06 47.4129 1942.47 50.046 Q1938.91 52.6791 1932.66 52.6791 Q1930.06 52.6791 1927.22 52.1583 Q1924.42 51.6664 1921.29 50.6537 L1921.29 45.156 Q1924.24 46.6896 1927.11 47.4708 Q1929.97 48.2231 1932.78 48.2231 Q1936.54 48.2231 1938.57 46.95 Q1940.59 45.6479 1940.59 43.3042 Q1940.59 41.134 1939.12 39.9766 Q1937.67 38.8192 1932.72 37.7486 L1930.87 37.3146 Q1925.92 36.273 1923.72 34.1318 Q1921.52 31.9616 1921.52 28.2001 Q1921.52 23.6283 1924.77 21.1399 Q1928.01 18.6515 1933.97 18.6515 Q1936.92 18.6515 1939.52 19.0855 Q1942.13 19.5196 1944.33 20.3876 Z" fill="#000000" fill-rule="nonzero" fill-opacity="1" /><path clip-path="url(#clip190)" d="M1975.2 20.3876 L1975.2 25.4223 Q1972.94 24.2649 1970.51 23.6862 Q1968.08 23.1075 1965.48 23.1075 Q1961.51 23.1075 1959.52 24.3228 Q1957.55 25.5381 1957.55 27.9686 Q1957.55 29.8204 1958.97 30.891 Q1960.38 31.9327 1964.67 32.8876 L1966.49 33.2926 Q1972.16 34.5079 1974.53 36.7359 Q1976.94 38.935 1976.94 42.8991 Q1976.94 47.4129 1973.35 50.046 Q1969.79 52.6791 1963.54 52.6791 Q1960.93 52.6791 1958.1 52.1583 Q1955.29 51.6664 1952.17 50.6537 L1952.17 45.156 Q1955.12 46.6896 1957.98 47.4708 Q1960.85 48.2231 1963.65 48.2231 Q1967.42 48.2231 1969.44 46.95 Q1971.47 45.6479 1971.47 43.3042 Q1971.47 41.134 1969.99 39.9766 Q1968.54 38.8192 1963.6 37.7486 L1961.74 37.3146 Q1956.8 36.273 1954.6 34.1318 Q1952.4 31.9616 1952.4 28.2001 Q1952.4 23.6283 1955.64 21.1399 Q1958.88 18.6515 1964.84 18.6515 Q1967.79 18.6515 1970.4 19.0855 Q1973 19.5196 1975.2 20.3876 Z" fill="#000000" fill-rule="nonzero" fill-opacity="1" /><path clip-path="url(#clip190)" d="M1985.41 19.4328 L1990.74 19.4328 L1990.74 51.84 L1985.41 51.84 L1985.41 19.4328 M1985.41 6.81709 L1990.74 6.81709 L1990.74 13.559 L1985.41 13.559 L1985.41 6.81709 Z" fill="#000000" fill-rule="nonzero" fill-opacity="1" /><path clip-path="url(#clip190)" d="M2028.82 32.2799 L2028.82 51.84 L2023.49 51.84 L2023.49 32.4535 Q2023.49 27.8529 2021.7 25.567 Q2019.9 23.2811 2016.32 23.2811 Q2012 23.2811 2009.52 26.03 Q2007.03 28.7788 2007.03 33.5241 L2007.03 51.84 L2001.67 51.84 L2001.67 19.4328 L2007.03 19.4328 L2007.03 24.4675 Q2008.94 21.545 2011.51 20.0983 Q2014.12 18.6515 2017.5 18.6515 Q2023.09 18.6515 2025.95 22.1237 Q2028.82 25.567 2028.82 32.2799 Z" fill="#000000" fill-rule="nonzero" fill-opacity="1" /><path clip-path="url(#clip190)" d="M2060.76 35.2602 Q2060.76 29.4732 2058.36 26.2904 Q2055.99 23.1075 2051.67 23.1075 Q2047.39 23.1075 2044.99 26.2904 Q2042.62 29.4732 2042.62 35.2602 Q2042.62 41.0183 2044.99 44.2012 Q2047.39 47.384 2051.67 47.384 Q2055.99 47.384 2058.36 44.2012 Q2060.76 41.0183 2060.76 35.2602 M2066.08 47.818 Q2066.08 56.0934 2062.41 60.1154 Q2058.73 64.1663 2051.15 64.1663 Q2048.35 64.1663 2045.86 63.7323 Q2043.37 63.3272 2041.03 62.4592 L2041.03 57.2798 Q2043.37 58.5529 2045.66 59.1606 Q2047.94 59.7682 2050.31 59.7682 Q2055.55 59.7682 2058.16 57.0194 Q2060.76 54.2995 2060.76 48.7729 L2060.76 46.1398 Q2059.11 49.0044 2056.54 50.4222 Q2053.96 51.84 2050.37 51.84 Q2044.41 51.84 2040.77 47.2972 Q2037.12 42.7544 2037.12 35.2602 Q2037.12 27.7371 2040.77 23.1943 Q2044.41 18.6515 2050.37 18.6515 Q2053.96 18.6515 2056.54 20.0693 Q2059.11 21.4872 2060.76 24.3517 L2060.76 19.4328 L2066.08 19.4328 L2066.08 47.818 Z" fill="#000000" fill-rule="nonzero" fill-opacity="1" /><polyline clip-path="url(#clip192)" style="stroke:#009af9; stroke-linecap:round; stroke-linejoin:round; stroke-width:4; stroke-opacity:1; fill:none" points="323.395,1385.91 439.292,1385.59 555.189,1385.12 671.087,1384.49 786.984,1383.68 902.881,1382.61 1018.78,1381.11 1134.68,1377.54 1250.57,1374.42 1366.47,1368.8 1482.37,1362.09 1598.26,1353.75 1714.16,1056.39 1830.06,863.676 1945.96,725.469 2061.85,785.041 2177.75,533.256 2293.65,143.465 "/>
</svg>
