<?xml version="1.0" encoding="UTF-8" standalone="no"?>
<!DOCTYPE svg PUBLIC "-//W3C//DTD SVG 1.1//EN"
 "http://www.w3.org/Graphics/SVG/1.1/DTD/svg11.dtd">
<!-- Generated by graphviz version 8.0.1 (20230327.1645)
 -->
<!-- Pages: 1 -->
<svg width="386pt" height="1412pt"
 viewBox="0.00 0.00 386.16 1412.00" xmlns="http://www.w3.org/2000/svg" xmlns:xlink="http://www.w3.org/1999/xlink">
<g id="graph0" class="graph" transform="scale(1 1) rotate(0) translate(4 1408)">
<polygon fill="white" stroke="none" points="-4,4 -4,-1408 382.16,-1408 382.16,4 -4,4"/>
<!-- 16 -->
<g id="node1" class="node">
<title>16</title>
<ellipse fill="lightgrey" stroke="black" cx="228.16" cy="-954" rx="27" ry="18"/>
<text text-anchor="middle" x="228.16" y="-950.3" font-family="Times New Roman,serif" font-size="14.00">16 &#45;</text>
</g>
<!-- 15 -->
<g id="node2" class="node">
<title>15</title>
<ellipse fill="lightgrey" stroke="black" cx="247.16" cy="-882" rx="27" ry="18"/>
<text text-anchor="middle" x="247.16" y="-878.3" font-family="Times New Roman,serif" font-size="14.00">15 *</text>
</g>
<!-- 16&#45;&gt;15 -->
<g id="edge1" class="edge">
<title>16&#45;&gt;15</title>
<path fill="none" stroke="black" d="M232.75,-936.05C234.86,-928.32 237.4,-918.96 239.75,-910.27"/>
<polygon fill="black" stroke="black" points="243.36,-911.36 242.6,-900.79 236.6,-909.52 243.36,-911.36"/>
</g>
<!-- 12 -->
<g id="node3" class="node">
<title>12</title>
<ellipse fill="lightgrey" stroke="black" cx="201.16" cy="-666" rx="27" ry="18"/>
<text text-anchor="middle" x="201.16" y="-662.3" font-family="Times New Roman,serif" font-size="14.00">12 &#45;</text>
</g>
<!-- 16&#45;&gt;12 -->
<g id="edge9" class="edge">
<title>16&#45;&gt;12</title>
<path fill="none" stroke="black" d="M221.46,-936.11C217.71,-925.84 213.36,-912.37 211.16,-900 198.13,-827.01 198.62,-739.21 199.96,-695.14"/>
<polygon fill="black" stroke="black" points="203.48,-695.53 200.33,-685.42 196.49,-695.29 203.48,-695.53"/>
</g>
<!-- 3 -->
<g id="node7" class="node">
<title>3</title>
<ellipse fill="lightgrey" stroke="black" cx="207.16" cy="-90" rx="27" ry="18"/>
<text text-anchor="middle" x="207.16" y="-86.3" font-family="Times New Roman,serif" font-size="14.00">3 *</text>
</g>
<!-- 15&#45;&gt;3 -->
<g id="edge7" class="edge">
<title>15&#45;&gt;3</title>
<path fill="none" stroke="black" d="M259.9,-865.7C267.71,-855.59 277.3,-841.71 283.16,-828 299.04,-790.8 302.16,-779.45 302.16,-739 302.16,-739 302.16,-739 302.16,-233 302.16,-182.73 260.52,-136.79 232.38,-111.47"/>
<polygon fill="black" stroke="black" points="234.98,-108.23 225.14,-104.3 230.38,-113.51 234.98,-108.23"/>
</g>
<!-- 14 -->
<g id="node15" class="node">
<title>14</title>
<ellipse fill="lightgrey" stroke="black" cx="247.16" cy="-810" rx="27" ry="18"/>
<text text-anchor="middle" x="247.16" y="-806.3" font-family="Times New Roman,serif" font-size="14.00">14 &#45;</text>
</g>
<!-- 15&#45;&gt;14 -->
<g id="edge35" class="edge">
<title>15&#45;&gt;14</title>
<path fill="none" stroke="black" d="M247.16,-863.7C247.16,-856.24 247.16,-847.32 247.16,-838.97"/>
<polygon fill="black" stroke="black" points="250.66,-839.1 247.16,-829.1 243.66,-839.1 250.66,-839.1"/>
</g>
<!-- 8 -->
<g id="node4" class="node">
<title>8</title>
<ellipse fill="lightgrey" stroke="black" cx="116.16" cy="-378" rx="27" ry="18"/>
<text text-anchor="middle" x="116.16" y="-374.3" font-family="Times New Roman,serif" font-size="14.00">8 &#45;</text>
</g>
<!-- 12&#45;&gt;8 -->
<g id="edge2" class="edge">
<title>12&#45;&gt;8</title>
<path fill="none" stroke="black" d="M191.1,-648.83C185.13,-638.61 177.83,-624.92 173.16,-612 145.35,-535.11 157.45,-510.67 135.16,-432 132.71,-423.37 129.58,-414.11 126.56,-405.79"/>
<polygon fill="black" stroke="black" points="129.51,-404.67 122.73,-396.52 122.95,-407.11 129.51,-404.67"/>
</g>
<!-- 11 -->
<g id="node8" class="node">
<title>11</title>
<ellipse fill="lightgrey" stroke="black" cx="209.16" cy="-594" rx="27" ry="18"/>
<text text-anchor="middle" x="209.16" y="-590.3" font-family="Times New Roman,serif" font-size="14.00">11 *</text>
</g>
<!-- 12&#45;&gt;11 -->
<g id="edge36" class="edge">
<title>12&#45;&gt;11</title>
<path fill="none" stroke="black" d="M203.13,-647.7C203.99,-640.24 205,-631.32 205.96,-622.97"/>
<polygon fill="black" stroke="black" points="209.54,-623.44 207.2,-613.1 202.59,-622.64 209.54,-623.44"/>
</g>
<!-- 2 -->
<g id="node11" class="node">
<title>2</title>
<ellipse fill="#96ff96" stroke="green" cx="112.16" cy="-18" rx="33.29" ry="18"/>
<text text-anchor="middle" x="112.16" y="-14.3" font-family="Times New Roman,serif" font-size="14.00">v1 2 x</text>
</g>
<!-- 8&#45;&gt;2 -->
<g id="edge24" class="edge">
<title>8&#45;&gt;2</title>
<path fill="none" stroke="black" d="M122.24,-360.07C125.61,-349.79 129.45,-336.31 131.16,-324 133.36,-308.15 131.72,-303.99 131.16,-288 128.05,-200.04 119.26,-96.2 114.81,-47.24"/>
<polygon fill="black" stroke="black" points="118.2,-46.92 113.8,-37.29 111.23,-47.56 118.2,-46.92"/>
</g>
<!-- 7 -->
<g id="node16" class="node">
<title>7</title>
<ellipse fill="lightgrey" stroke="black" cx="95.16" cy="-306" rx="27" ry="18"/>
<text text-anchor="middle" x="95.16" y="-302.3" font-family="Times New Roman,serif" font-size="14.00">7 *</text>
</g>
<!-- 8&#45;&gt;7 -->
<g id="edge13" class="edge">
<title>8&#45;&gt;7</title>
<path fill="none" stroke="black" d="M111.07,-360.05C108.75,-352.32 105.94,-342.96 103.34,-334.27"/>
<polygon fill="black" stroke="black" points="106.42,-333.36 100.19,-324.79 99.71,-335.37 106.42,-333.36"/>
</g>
<!-- 17 -->
<g id="node5" class="node">
<title>17</title>
<ellipse fill="lightgrey" stroke="black" cx="209.16" cy="-1026" rx="27" ry="18"/>
<text text-anchor="middle" x="209.16" y="-1022.3" font-family="Times New Roman,serif" font-size="14.00">17 *</text>
</g>
<!-- 17&#45;&gt;16 -->
<g id="edge3" class="edge">
<title>17&#45;&gt;16</title>
<path fill="none" stroke="black" d="M213.75,-1008.05C215.86,-1000.32 218.4,-990.96 220.75,-982.27"/>
<polygon fill="black" stroke="black" points="224.36,-983.36 223.6,-972.79 217.6,-981.52 224.36,-983.36"/>
</g>
<!-- 17&#45;&gt;3 -->
<g id="edge16" class="edge">
<title>17&#45;&gt;3</title>
<path fill="none" stroke="black" d="M183.36,-1020.01C127.87,-1007.61 2.16,-969.94 2.16,-883 2.16,-883 2.16,-883 2.16,-233 2.16,-192.55 -6.47,-173.55 21.16,-144 59.38,-103.11 126.7,-93 169.01,-90.92"/>
<polygon fill="black" stroke="black" points="169.11,-94.39 178.98,-90.54 168.86,-87.39 169.11,-94.39"/>
</g>
<!-- 19 -->
<g id="node6" class="node">
<title>19</title>
<ellipse fill="lightgrey" stroke="black" cx="247.16" cy="-1170" rx="27" ry="18"/>
<text text-anchor="middle" x="247.16" y="-1166.3" font-family="Times New Roman,serif" font-size="14.00">19 *</text>
</g>
<!-- 19&#45;&gt;3 -->
<g id="edge4" class="edge">
<title>19&#45;&gt;3</title>
<path fill="none" stroke="black" d="M263.78,-1155.62C290.53,-1132.48 340.16,-1082.11 340.16,-1027 340.16,-1027 340.16,-1027 340.16,-233 340.16,-173.53 277.24,-128.69 237.95,-106.49"/>
<polygon fill="black" stroke="black" points="239.98,-103.06 229.52,-101.34 236.62,-109.2 239.98,-103.06"/>
</g>
<!-- 18 -->
<g id="node14" class="node">
<title>18</title>
<ellipse fill="lightgrey" stroke="black" cx="200.16" cy="-1098" rx="27" ry="18"/>
<text text-anchor="middle" x="200.16" y="-1094.3" font-family="Times New Roman,serif" font-size="14.00">18 &#45;</text>
</g>
<!-- 19&#45;&gt;18 -->
<g id="edge21" class="edge">
<title>19&#45;&gt;18</title>
<path fill="none" stroke="black" d="M236.49,-1153.12C230.66,-1144.43 223.31,-1133.49 216.75,-1123.72"/>
<polygon fill="black" stroke="black" points="219.26,-1122.17 210.78,-1115.82 213.45,-1126.07 219.26,-1122.17"/>
</g>
<!-- 3&#45;&gt;2 -->
<g id="edge10" class="edge">
<title>3&#45;&gt;2</title>
<path fill="none" stroke="black" d="M189.73,-76.16C175.72,-65.84 155.78,-51.14 139.62,-39.24"/>
<polygon fill="black" stroke="black" points="142.23,-36.07 132.1,-32.96 138.07,-41.71 142.23,-36.07"/>
</g>
<!-- 11&#45;&gt;3 -->
<g id="edge5" class="edge">
<title>11&#45;&gt;3</title>
<path fill="none" stroke="black" d="M212.51,-576.03C217.47,-549.48 226.16,-496.44 226.16,-451 226.16,-451 226.16,-451 226.16,-233 226.16,-193 218.66,-147.21 213.08,-118.69"/>
<polygon fill="black" stroke="black" points="216.32,-118.06 210.91,-108.95 209.46,-119.45 216.32,-118.06"/>
</g>
<!-- 10 -->
<g id="node12" class="node">
<title>10</title>
<ellipse fill="lightgrey" stroke="black" cx="99.16" cy="-522" rx="27" ry="18"/>
<text text-anchor="middle" x="99.16" y="-518.3" font-family="Times New Roman,serif" font-size="14.00">10 &#45;</text>
</g>
<!-- 11&#45;&gt;10 -->
<g id="edge17" class="edge">
<title>11&#45;&gt;10</title>
<path fill="none" stroke="black" d="M190,-580.81C172.64,-569.77 146.87,-553.36 127.2,-540.84"/>
<polygon fill="black" stroke="black" points="129.41,-537.47 119.1,-535.05 125.65,-543.37 129.41,-537.47"/>
</g>
<!-- 21 -->
<g id="node9" class="node">
<title>21</title>
<ellipse fill="lightgrey" stroke="black" cx="275.16" cy="-1314" rx="27" ry="18"/>
<text text-anchor="middle" x="275.16" y="-1310.3" font-family="Times New Roman,serif" font-size="14.00">21 *</text>
</g>
<!-- 21&#45;&gt;3 -->
<g id="edge6" class="edge">
<title>21&#45;&gt;3</title>
<path fill="none" stroke="black" d="M293.1,-1300.38C322.61,-1278 378.16,-1228.26 378.16,-1171 378.16,-1171 378.16,-1171 378.16,-233 378.16,-162.72 291.6,-120.56 241.65,-102.09"/>
<polygon fill="black" stroke="black" points="242.89,-98.46 232.29,-98.4 240.54,-105.05 242.89,-98.46"/>
</g>
<!-- 20 -->
<g id="node18" class="node">
<title>20</title>
<ellipse fill="lightgrey" stroke="black" cx="275.16" cy="-1242" rx="27" ry="18"/>
<text text-anchor="middle" x="275.16" y="-1238.3" font-family="Times New Roman,serif" font-size="14.00">20 &#45;</text>
</g>
<!-- 21&#45;&gt;20 -->
<g id="edge33" class="edge">
<title>21&#45;&gt;20</title>
<path fill="none" stroke="black" d="M275.16,-1295.7C275.16,-1288.24 275.16,-1279.32 275.16,-1270.97"/>
<polygon fill="black" stroke="black" points="278.66,-1271.1 275.16,-1261.1 271.66,-1271.1 278.66,-1271.1"/>
</g>
<!-- 13 -->
<g id="node10" class="node">
<title>13</title>
<ellipse fill="lightgrey" stroke="black" cx="247.16" cy="-738" rx="27" ry="18"/>
<text text-anchor="middle" x="247.16" y="-734.3" font-family="Times New Roman,serif" font-size="14.00">13 *</text>
</g>
<!-- 13&#45;&gt;12 -->
<g id="edge19" class="edge">
<title>13&#45;&gt;12</title>
<path fill="none" stroke="black" d="M236.72,-721.12C231.01,-712.43 223.82,-701.49 217.4,-691.72"/>
<polygon fill="black" stroke="black" points="219.97,-690.26 211.55,-683.82 214.12,-694.1 219.97,-690.26"/>
</g>
<!-- 13&#45;&gt;3 -->
<g id="edge8" class="edge">
<title>13&#45;&gt;3</title>
<path fill="none" stroke="black" d="M250.51,-720.03C255.47,-693.48 264.16,-640.44 264.16,-595 264.16,-595 264.16,-595 264.16,-233 264.16,-189.47 240.8,-143.48 223.99,-116.02"/>
<polygon fill="black" stroke="black" points="226.45,-114.36 218.15,-107.78 220.53,-118.1 226.45,-114.36"/>
</g>
<!-- 6 -->
<g id="node13" class="node">
<title>6</title>
<ellipse fill="lightgrey" stroke="black" cx="57.16" cy="-234" rx="27" ry="18"/>
<text text-anchor="middle" x="57.16" y="-230.3" font-family="Times New Roman,serif" font-size="14.00">6 &#45;</text>
</g>
<!-- 10&#45;&gt;6 -->
<g id="edge11" class="edge">
<title>10&#45;&gt;6</title>
<path fill="none" stroke="black" d="M85.54,-506.03C77.38,-496.04 67.73,-482.18 63.16,-468 40.28,-397.12 47.2,-307.72 52.89,-263.07"/>
<polygon fill="black" stroke="black" points="56.49,-263.6 54.37,-253.22 49.55,-262.66 56.49,-263.6"/>
</g>
<!-- 9 -->
<g id="node19" class="node">
<title>9</title>
<ellipse fill="lightgrey" stroke="black" cx="99.16" cy="-450" rx="27" ry="18"/>
<text text-anchor="middle" x="99.16" y="-446.3" font-family="Times New Roman,serif" font-size="14.00">9 *</text>
</g>
<!-- 10&#45;&gt;9 -->
<g id="edge29" class="edge">
<title>10&#45;&gt;9</title>
<path fill="none" stroke="black" d="M99.16,-503.7C99.16,-496.24 99.16,-487.32 99.16,-478.97"/>
<polygon fill="black" stroke="black" points="102.66,-479.1 99.16,-469.1 95.66,-479.1 102.66,-479.1"/>
</g>
<!-- 4 -->
<g id="node20" class="node">
<title>4</title>
<ellipse fill="lightgrey" stroke="black" cx="57.16" cy="-162" rx="27" ry="18"/>
<text text-anchor="middle" x="57.16" y="-158.3" font-family="Times New Roman,serif" font-size="14.00">4 *</text>
</g>
<!-- 6&#45;&gt;4 -->
<g id="edge28" class="edge">
<title>6&#45;&gt;4</title>
<path fill="none" stroke="black" d="M57.16,-215.7C57.16,-208.24 57.16,-199.32 57.16,-190.97"/>
<polygon fill="black" stroke="black" points="60.66,-191.1 57.16,-181.1 53.66,-191.1 60.66,-191.1"/>
</g>
<!-- 18&#45;&gt;17 -->
<g id="edge14" class="edge">
<title>18&#45;&gt;17</title>
<path fill="none" stroke="black" d="M202.38,-1079.7C203.34,-1072.24 204.49,-1063.32 205.56,-1054.97"/>
<polygon fill="black" stroke="black" points="209.15,-1055.47 206.96,-1045.1 202.21,-1054.58 209.15,-1055.47"/>
</g>
<!-- 18&#45;&gt;14 -->
<g id="edge12" class="edge">
<title>18&#45;&gt;14</title>
<path fill="none" stroke="black" d="M189.53,-1081.07C183.42,-1070.93 176.34,-1057.25 173.16,-1044 169.42,-1028.44 171.1,-1023.87 173.16,-1008 181.67,-942.36 183.72,-924.24 211.16,-864 215.69,-854.04 222.06,-843.9 228.18,-835.2"/>
<polygon fill="black" stroke="black" points="231.55,-837.53 234.63,-827.4 225.9,-833.4 231.55,-837.53"/>
</g>
<!-- 14&#45;&gt;13 -->
<g id="edge26" class="edge">
<title>14&#45;&gt;13</title>
<path fill="none" stroke="black" d="M247.16,-791.7C247.16,-784.24 247.16,-775.32 247.16,-766.97"/>
<polygon fill="black" stroke="black" points="250.66,-767.1 247.16,-757.1 243.66,-767.1 250.66,-767.1"/>
</g>
<!-- 14&#45;&gt;10 -->
<g id="edge18" class="edge">
<title>14&#45;&gt;10</title>
<path fill="none" stroke="black" d="M236.33,-793.31C229.12,-782.8 219.48,-768.63 211.16,-756 190.26,-724.29 182.65,-717.7 165.16,-684 141.52,-638.47 120.2,-582.51 108.53,-549.98"/>
<polygon fill="black" stroke="black" points="111.59,-549.15 104.95,-540.9 104.99,-551.49 111.59,-549.15"/>
</g>
<!-- 7&#45;&gt;3 -->
<g id="edge22" class="edge">
<title>7&#45;&gt;3</title>
<path fill="none" stroke="black" d="M102.69,-288.26C116.15,-258.69 145.61,-195.46 174.16,-144 179.28,-134.77 185.27,-124.9 190.74,-116.2"/>
<polygon fill="black" stroke="black" points="194.19,-118.3 196.62,-107.98 188.29,-114.54 194.19,-118.3"/>
</g>
<!-- 7&#45;&gt;6 -->
<g id="edge25" class="edge">
<title>7&#45;&gt;6</title>
<path fill="none" stroke="black" d="M86.34,-288.76C81.83,-280.46 76.24,-270.15 71.16,-260.79"/>
<polygon fill="black" stroke="black" points="73.77,-259.27 65.92,-252.15 67.62,-262.61 73.77,-259.27"/>
</g>
<!-- 22 -->
<g id="node17" class="node">
<title>22</title>
<ellipse fill="#ff9696" stroke="red" cx="247.16" cy="-1386" rx="34.39" ry="18"/>
<text text-anchor="middle" x="247.16" y="-1382.3" font-family="Times New Roman,serif" font-size="14.00">r1 22 &#45;</text>
</g>
<!-- 22&#45;&gt;21 -->
<g id="edge15" class="edge">
<title>22&#45;&gt;21</title>
<path fill="none" stroke="black" d="M253.93,-1368.05C257.06,-1360.23 260.86,-1350.75 264.36,-1341.98"/>
<polygon fill="black" stroke="black" points="267.98,-1343.37 268.44,-1332.79 261.48,-1340.77 267.98,-1343.37"/>
</g>
<!-- 22&#45;&gt;18 -->
<g id="edge27" class="edge">
<title>22&#45;&gt;18</title>
<path fill="none" stroke="black" d="M243.64,-1367.66C236.77,-1333.43 221.36,-1254.67 211.16,-1188 208.05,-1167.67 205.22,-1144.63 203.21,-1127.09"/>
<polygon fill="black" stroke="black" points="206.6,-1126.98 202.01,-1117.44 199.65,-1127.76 206.6,-1126.98"/>
</g>
<!-- 20&#45;&gt;16 -->
<g id="edge34" class="edge">
<title>20&#45;&gt;16</title>
<path fill="none" stroke="black" d="M278.91,-1223.89C282.33,-1205.94 286.39,-1176.92 283.16,-1152 275.07,-1089.66 251.87,-1019.34 238.32,-981.88"/>
<polygon fill="black" stroke="black" points="241.35,-980.97 234.61,-972.79 234.78,-983.38 241.35,-980.97"/>
</g>
<!-- 20&#45;&gt;19 -->
<g id="edge20" class="edge">
<title>20&#45;&gt;19</title>
<path fill="none" stroke="black" d="M268.52,-1224.41C265.31,-1216.39 261.38,-1206.57 257.77,-1197.54"/>
<polygon fill="black" stroke="black" points="260.71,-1196.45 253.74,-1188.47 254.21,-1199.05 260.71,-1196.45"/>
</g>
<!-- 9&#45;&gt;8 -->
<g id="edge31" class="edge">
<title>9&#45;&gt;8</title>
<path fill="none" stroke="black" d="M103.27,-432.05C105.1,-424.52 107.31,-415.44 109.37,-406.94"/>
<polygon fill="black" stroke="black" points="113,-407.82 111.96,-397.28 106.2,-406.17 113,-407.82"/>
</g>
<!-- 9&#45;&gt;3 -->
<g id="edge23" class="edge">
<title>9&#45;&gt;3</title>
<path fill="none" stroke="black" d="M115.74,-435.57C127.19,-425.62 142.1,-411.19 152.16,-396 175.71,-360.42 188.16,-349.67 188.16,-307 188.16,-307 188.16,-307 188.16,-233 188.16,-193 195.66,-147.21 201.23,-118.69"/>
<polygon fill="black" stroke="black" points="204.85,-119.45 203.4,-108.95 197.99,-118.06 204.85,-119.45"/>
</g>
<!-- 4&#45;&gt;3 -->
<g id="edge30" class="edge">
<title>4&#45;&gt;3</title>
<path fill="none" stroke="black" d="M78.97,-150.82C104.41,-138.95 146.67,-119.23 175.66,-105.7"/>
<polygon fill="black" stroke="black" points="176.74,-108.59 184.32,-101.19 173.78,-102.25 176.74,-108.59"/>
</g>
<!-- 4&#45;&gt;2 -->
<g id="edge32" class="edge">
<title>4&#45;&gt;2</title>
<path fill="none" stroke="black" d="M63.68,-144.15C73.07,-119.92 90.48,-74.96 101.68,-46.05"/>
<polygon fill="black" stroke="black" points="105.29,-47.41 105.64,-36.82 98.76,-44.89 105.29,-47.41"/>
</g>
</g>
</svg>
