<?xml version="1.0" encoding="utf-8"?>
<svg xmlns="http://www.w3.org/2000/svg" xmlns:xlink="http://www.w3.org/1999/xlink" width="600" height="400" viewBox="0 0 2400 1600">
<defs>
  <clipPath id="clip090">
    <rect x="0" y="0" width="2400" height="1600"/>
  </clipPath>
</defs>
<path clip-path="url(#clip090)" d="M0 1600 L2400 1600 L2400 0 L0 0  Z" fill="#ffffff" fill-rule="evenodd" fill-opacity="1"/>
<defs>
  <clipPath id="clip091">
    <rect x="480" y="0" width="1681" height="1600"/>
  </clipPath>
</defs>
<path clip-path="url(#clip090)" d="M222.69 1423.18 L2352.76 1423.18 L2352.76 192.592 L222.69 192.592  Z" fill="#ffffff" fill-rule="evenodd" fill-opacity="1"/>
<defs>
  <clipPath id="clip092">
    <rect x="222" y="192" width="2131" height="1232"/>
  </clipPath>
</defs>
<polyline clip-path="url(#clip092)" style="stroke:#000000; stroke-linecap:round; stroke-linejoin:round; stroke-width:2; stroke-opacity:0.1; fill:none" points="282.975,1423.18 282.975,192.592 "/>
<polyline clip-path="url(#clip092)" style="stroke:#000000; stroke-linecap:round; stroke-linejoin:round; stroke-width:2; stroke-opacity:0.1; fill:none" points="684.874,1423.18 684.874,192.592 "/>
<polyline clip-path="url(#clip092)" style="stroke:#000000; stroke-linecap:round; stroke-linejoin:round; stroke-width:2; stroke-opacity:0.1; fill:none" points="1086.77,1423.18 1086.77,192.592 "/>
<polyline clip-path="url(#clip092)" style="stroke:#000000; stroke-linecap:round; stroke-linejoin:round; stroke-width:2; stroke-opacity:0.1; fill:none" points="1488.67,1423.18 1488.67,192.592 "/>
<polyline clip-path="url(#clip092)" style="stroke:#000000; stroke-linecap:round; stroke-linejoin:round; stroke-width:2; stroke-opacity:0.1; fill:none" points="1890.57,1423.18 1890.57,192.592 "/>
<polyline clip-path="url(#clip092)" style="stroke:#000000; stroke-linecap:round; stroke-linejoin:round; stroke-width:2; stroke-opacity:0.1; fill:none" points="2292.47,1423.18 2292.47,192.592 "/>
<polyline clip-path="url(#clip090)" style="stroke:#000000; stroke-linecap:round; stroke-linejoin:round; stroke-width:4; stroke-opacity:1; fill:none" points="222.69,1423.18 2352.76,1423.18 "/>
<polyline clip-path="url(#clip090)" style="stroke:#000000; stroke-linecap:round; stroke-linejoin:round; stroke-width:4; stroke-opacity:1; fill:none" points="282.975,1423.18 282.975,1404.28 "/>
<polyline clip-path="url(#clip090)" style="stroke:#000000; stroke-linecap:round; stroke-linejoin:round; stroke-width:4; stroke-opacity:1; fill:none" points="684.874,1423.18 684.874,1404.28 "/>
<polyline clip-path="url(#clip090)" style="stroke:#000000; stroke-linecap:round; stroke-linejoin:round; stroke-width:4; stroke-opacity:1; fill:none" points="1086.77,1423.18 1086.77,1404.28 "/>
<polyline clip-path="url(#clip090)" style="stroke:#000000; stroke-linecap:round; stroke-linejoin:round; stroke-width:4; stroke-opacity:1; fill:none" points="1488.67,1423.18 1488.67,1404.28 "/>
<polyline clip-path="url(#clip090)" style="stroke:#000000; stroke-linecap:round; stroke-linejoin:round; stroke-width:4; stroke-opacity:1; fill:none" points="1890.57,1423.18 1890.57,1404.28 "/>
<polyline clip-path="url(#clip090)" style="stroke:#000000; stroke-linecap:round; stroke-linejoin:round; stroke-width:4; stroke-opacity:1; fill:none" points="2292.47,1423.18 2292.47,1404.28 "/>
<polyline clip-path="url(#clip090)" style="stroke:#000000; stroke-linecap:round; stroke-linejoin:round; stroke-width:4; stroke-opacity:1; fill:none" points="363.355,1423.18 363.355,1413.73 "/>
<polyline clip-path="url(#clip090)" style="stroke:#000000; stroke-linecap:round; stroke-linejoin:round; stroke-width:4; stroke-opacity:1; fill:none" points="443.735,1423.18 443.735,1413.73 "/>
<polyline clip-path="url(#clip090)" style="stroke:#000000; stroke-linecap:round; stroke-linejoin:round; stroke-width:4; stroke-opacity:1; fill:none" points="524.115,1423.18 524.115,1413.73 "/>
<polyline clip-path="url(#clip090)" style="stroke:#000000; stroke-linecap:round; stroke-linejoin:round; stroke-width:4; stroke-opacity:1; fill:none" points="604.495,1423.18 604.495,1413.73 "/>
<polyline clip-path="url(#clip090)" style="stroke:#000000; stroke-linecap:round; stroke-linejoin:round; stroke-width:4; stroke-opacity:1; fill:none" points="765.254,1423.18 765.254,1413.73 "/>
<polyline clip-path="url(#clip090)" style="stroke:#000000; stroke-linecap:round; stroke-linejoin:round; stroke-width:4; stroke-opacity:1; fill:none" points="845.634,1423.18 845.634,1413.73 "/>
<polyline clip-path="url(#clip090)" style="stroke:#000000; stroke-linecap:round; stroke-linejoin:round; stroke-width:4; stroke-opacity:1; fill:none" points="926.014,1423.18 926.014,1413.73 "/>
<polyline clip-path="url(#clip090)" style="stroke:#000000; stroke-linecap:round; stroke-linejoin:round; stroke-width:4; stroke-opacity:1; fill:none" points="1006.39,1423.18 1006.39,1413.73 "/>
<polyline clip-path="url(#clip090)" style="stroke:#000000; stroke-linecap:round; stroke-linejoin:round; stroke-width:4; stroke-opacity:1; fill:none" points="1167.15,1423.18 1167.15,1413.73 "/>
<polyline clip-path="url(#clip090)" style="stroke:#000000; stroke-linecap:round; stroke-linejoin:round; stroke-width:4; stroke-opacity:1; fill:none" points="1247.53,1423.18 1247.53,1413.73 "/>
<polyline clip-path="url(#clip090)" style="stroke:#000000; stroke-linecap:round; stroke-linejoin:round; stroke-width:4; stroke-opacity:1; fill:none" points="1327.91,1423.18 1327.91,1413.73 "/>
<polyline clip-path="url(#clip090)" style="stroke:#000000; stroke-linecap:round; stroke-linejoin:round; stroke-width:4; stroke-opacity:1; fill:none" points="1408.29,1423.18 1408.29,1413.73 "/>
<polyline clip-path="url(#clip090)" style="stroke:#000000; stroke-linecap:round; stroke-linejoin:round; stroke-width:4; stroke-opacity:1; fill:none" points="1569.05,1423.18 1569.05,1413.73 "/>
<polyline clip-path="url(#clip090)" style="stroke:#000000; stroke-linecap:round; stroke-linejoin:round; stroke-width:4; stroke-opacity:1; fill:none" points="1649.43,1423.18 1649.43,1413.73 "/>
<polyline clip-path="url(#clip090)" style="stroke:#000000; stroke-linecap:round; stroke-linejoin:round; stroke-width:4; stroke-opacity:1; fill:none" points="1729.81,1423.18 1729.81,1413.73 "/>
<polyline clip-path="url(#clip090)" style="stroke:#000000; stroke-linecap:round; stroke-linejoin:round; stroke-width:4; stroke-opacity:1; fill:none" points="1810.19,1423.18 1810.19,1413.73 "/>
<polyline clip-path="url(#clip090)" style="stroke:#000000; stroke-linecap:round; stroke-linejoin:round; stroke-width:4; stroke-opacity:1; fill:none" points="1970.95,1423.18 1970.95,1413.73 "/>
<polyline clip-path="url(#clip090)" style="stroke:#000000; stroke-linecap:round; stroke-linejoin:round; stroke-width:4; stroke-opacity:1; fill:none" points="2051.33,1423.18 2051.33,1413.73 "/>
<polyline clip-path="url(#clip090)" style="stroke:#000000; stroke-linecap:round; stroke-linejoin:round; stroke-width:4; stroke-opacity:1; fill:none" points="2131.71,1423.18 2131.71,1413.73 "/>
<polyline clip-path="url(#clip090)" style="stroke:#000000; stroke-linecap:round; stroke-linejoin:round; stroke-width:4; stroke-opacity:1; fill:none" points="2212.09,1423.18 2212.09,1413.73 "/>
<path clip-path="url(#clip090)" d="M273.253 1451.02 L291.609 1451.02 L291.609 1454.96 L277.535 1454.96 L277.535 1463.43 Q278.554 1463.08 279.572 1462.92 Q280.591 1462.73 281.609 1462.73 Q287.396 1462.73 290.776 1465.9 Q294.156 1469.08 294.156 1474.49 Q294.156 1480.07 290.683 1483.17 Q287.211 1486.25 280.892 1486.25 Q278.716 1486.25 276.447 1485.88 Q274.202 1485.51 271.795 1484.77 L271.795 1480.07 Q273.878 1481.2 276.1 1481.76 Q278.322 1482.32 280.799 1482.32 Q284.804 1482.32 287.142 1480.21 Q289.48 1478.1 289.48 1474.49 Q289.48 1470.88 287.142 1468.77 Q284.804 1466.67 280.799 1466.67 Q278.924 1466.67 277.049 1467.08 Q275.197 1467.5 273.253 1468.38 L273.253 1451.02 Z" fill="#000000" fill-rule="nonzero" fill-opacity="1" /><path clip-path="url(#clip090)" d="M659.562 1481.64 L667.201 1481.64 L667.201 1455.28 L658.891 1456.95 L658.891 1452.69 L667.155 1451.02 L671.83 1451.02 L671.83 1481.64 L679.469 1481.64 L679.469 1485.58 L659.562 1485.58 L659.562 1481.64 Z" fill="#000000" fill-rule="nonzero" fill-opacity="1" /><path clip-path="url(#clip090)" d="M698.914 1454.1 Q695.303 1454.1 693.474 1457.66 Q691.668 1461.2 691.668 1468.33 Q691.668 1475.44 693.474 1479.01 Q695.303 1482.55 698.914 1482.55 Q702.548 1482.55 704.353 1479.01 Q706.182 1475.44 706.182 1468.33 Q706.182 1461.2 704.353 1457.66 Q702.548 1454.1 698.914 1454.1 M698.914 1450.39 Q704.724 1450.39 707.779 1455 Q710.858 1459.58 710.858 1468.33 Q710.858 1477.06 707.779 1481.67 Q704.724 1486.25 698.914 1486.25 Q693.103 1486.25 690.025 1481.67 Q686.969 1477.06 686.969 1468.33 Q686.969 1459.58 690.025 1455 Q693.103 1450.39 698.914 1450.39 Z" fill="#000000" fill-rule="nonzero" fill-opacity="1" /><path clip-path="url(#clip090)" d="M1061.96 1481.64 L1069.6 1481.64 L1069.6 1455.28 L1061.29 1456.95 L1061.29 1452.69 L1069.55 1451.02 L1074.23 1451.02 L1074.23 1481.64 L1081.87 1481.64 L1081.87 1485.58 L1061.96 1485.58 L1061.96 1481.64 Z" fill="#000000" fill-rule="nonzero" fill-opacity="1" /><path clip-path="url(#clip090)" d="M1091.36 1451.02 L1109.71 1451.02 L1109.71 1454.96 L1095.64 1454.96 L1095.64 1463.43 Q1096.66 1463.08 1097.68 1462.92 Q1098.69 1462.73 1099.71 1462.73 Q1105.5 1462.73 1108.88 1465.9 Q1112.26 1469.08 1112.26 1474.49 Q1112.26 1480.07 1108.79 1483.17 Q1105.32 1486.25 1099 1486.25 Q1096.82 1486.25 1094.55 1485.88 Q1092.31 1485.51 1089.9 1484.77 L1089.9 1480.07 Q1091.98 1481.2 1094.2 1481.76 Q1096.43 1482.32 1098.9 1482.32 Q1102.91 1482.32 1105.25 1480.21 Q1107.58 1478.1 1107.58 1474.49 Q1107.58 1470.88 1105.25 1468.77 Q1102.91 1466.67 1098.9 1466.67 Q1097.03 1466.67 1095.15 1467.08 Q1093.3 1467.5 1091.36 1468.38 L1091.36 1451.02 Z" fill="#000000" fill-rule="nonzero" fill-opacity="1" /><path clip-path="url(#clip090)" d="M1467.45 1481.64 L1483.77 1481.64 L1483.77 1485.58 L1461.82 1485.58 L1461.82 1481.64 Q1464.48 1478.89 1469.07 1474.26 Q1473.67 1469.61 1474.85 1468.27 Q1477.1 1465.74 1477.98 1464.01 Q1478.88 1462.25 1478.88 1460.56 Q1478.88 1457.8 1476.94 1456.07 Q1475.02 1454.33 1471.91 1454.33 Q1469.71 1454.33 1467.26 1455.09 Q1464.83 1455.86 1462.05 1457.41 L1462.05 1452.69 Q1464.88 1451.55 1467.33 1450.97 Q1469.78 1450.39 1471.82 1450.39 Q1477.19 1450.39 1480.39 1453.08 Q1483.58 1455.77 1483.58 1460.26 Q1483.58 1462.39 1482.77 1464.31 Q1481.98 1466.2 1479.88 1468.8 Q1479.3 1469.47 1476.2 1472.69 Q1473.09 1475.88 1467.45 1481.64 Z" fill="#000000" fill-rule="nonzero" fill-opacity="1" /><path clip-path="url(#clip090)" d="M1503.58 1454.1 Q1499.97 1454.1 1498.14 1457.66 Q1496.33 1461.2 1496.33 1468.33 Q1496.33 1475.44 1498.14 1479.01 Q1499.97 1482.55 1503.58 1482.55 Q1507.21 1482.55 1509.02 1479.01 Q1510.85 1475.44 1510.85 1468.33 Q1510.85 1461.2 1509.02 1457.66 Q1507.21 1454.1 1503.58 1454.1 M1503.58 1450.39 Q1509.39 1450.39 1512.45 1455 Q1515.52 1459.58 1515.52 1468.33 Q1515.52 1477.06 1512.45 1481.67 Q1509.39 1486.25 1503.58 1486.25 Q1497.77 1486.25 1494.69 1481.67 Q1491.64 1477.06 1491.64 1468.33 Q1491.64 1459.58 1494.69 1455 Q1497.77 1450.39 1503.58 1450.39 Z" fill="#000000" fill-rule="nonzero" fill-opacity="1" /><path clip-path="url(#clip090)" d="M1869.84 1481.64 L1886.16 1481.64 L1886.16 1485.58 L1864.22 1485.58 L1864.22 1481.64 Q1866.88 1478.89 1871.46 1474.26 Q1876.07 1469.61 1877.25 1468.27 Q1879.5 1465.74 1880.38 1464.01 Q1881.28 1462.25 1881.28 1460.56 Q1881.28 1457.8 1879.33 1456.07 Q1877.41 1454.33 1874.31 1454.33 Q1872.11 1454.33 1869.66 1455.09 Q1867.23 1455.86 1864.45 1457.41 L1864.45 1452.69 Q1867.27 1451.55 1869.73 1450.97 Q1872.18 1450.39 1874.22 1450.39 Q1879.59 1450.39 1882.78 1453.08 Q1885.98 1455.77 1885.98 1460.26 Q1885.98 1462.39 1885.17 1464.31 Q1884.38 1466.2 1882.27 1468.8 Q1881.69 1469.47 1878.59 1472.69 Q1875.49 1475.88 1869.84 1481.64 Z" fill="#000000" fill-rule="nonzero" fill-opacity="1" /><path clip-path="url(#clip090)" d="M1896.02 1451.02 L1914.38 1451.02 L1914.38 1454.96 L1900.31 1454.96 L1900.31 1463.43 Q1901.32 1463.08 1902.34 1462.92 Q1903.36 1462.73 1904.38 1462.73 Q1910.17 1462.73 1913.55 1465.9 Q1916.93 1469.08 1916.93 1474.49 Q1916.93 1480.07 1913.45 1483.17 Q1909.98 1486.25 1903.66 1486.25 Q1901.49 1486.25 1899.22 1485.88 Q1896.97 1485.51 1894.56 1484.77 L1894.56 1480.07 Q1896.65 1481.2 1898.87 1481.76 Q1901.09 1482.32 1903.57 1482.32 Q1907.57 1482.32 1909.91 1480.21 Q1912.25 1478.1 1912.25 1474.49 Q1912.25 1470.88 1909.91 1468.77 Q1907.57 1466.67 1903.57 1466.67 Q1901.69 1466.67 1899.82 1467.08 Q1897.97 1467.5 1896.02 1468.38 L1896.02 1451.02 Z" fill="#000000" fill-rule="nonzero" fill-opacity="1" /><path clip-path="url(#clip090)" d="M2281.31 1466.95 Q2284.67 1467.66 2286.55 1469.93 Q2288.44 1472.2 2288.44 1475.53 Q2288.44 1480.65 2284.92 1483.45 Q2281.41 1486.25 2274.92 1486.25 Q2272.75 1486.25 2270.43 1485.81 Q2268.14 1485.39 2265.69 1484.54 L2265.69 1480.02 Q2267.63 1481.16 2269.95 1481.74 Q2272.26 1482.32 2274.79 1482.32 Q2279.18 1482.32 2281.48 1480.58 Q2283.79 1478.84 2283.79 1475.53 Q2283.79 1472.48 2281.64 1470.77 Q2279.51 1469.03 2275.69 1469.03 L2271.66 1469.03 L2271.66 1465.19 L2275.87 1465.19 Q2279.32 1465.19 2281.15 1463.82 Q2282.98 1462.43 2282.98 1459.84 Q2282.98 1457.18 2281.08 1455.77 Q2279.21 1454.33 2275.69 1454.33 Q2273.77 1454.33 2271.57 1454.75 Q2269.37 1455.16 2266.73 1456.04 L2266.73 1451.88 Q2269.39 1451.14 2271.71 1450.77 Q2274.05 1450.39 2276.11 1450.39 Q2281.43 1450.39 2284.53 1452.83 Q2287.63 1455.23 2287.63 1459.35 Q2287.63 1462.22 2285.99 1464.21 Q2284.35 1466.18 2281.31 1466.95 Z" fill="#000000" fill-rule="nonzero" fill-opacity="1" /><path clip-path="url(#clip090)" d="M2307.31 1454.1 Q2303.7 1454.1 2301.87 1457.66 Q2300.06 1461.2 2300.06 1468.33 Q2300.06 1475.44 2301.87 1479.01 Q2303.7 1482.55 2307.31 1482.55 Q2310.94 1482.55 2312.75 1479.01 Q2314.58 1475.44 2314.58 1468.33 Q2314.58 1461.2 2312.75 1457.66 Q2310.94 1454.1 2307.31 1454.1 M2307.31 1450.39 Q2313.12 1450.39 2316.17 1455 Q2319.25 1459.58 2319.25 1468.33 Q2319.25 1477.06 2316.17 1481.67 Q2313.12 1486.25 2307.31 1486.25 Q2301.5 1486.25 2298.42 1481.67 Q2295.36 1477.06 2295.36 1468.33 Q2295.36 1459.58 2298.42 1455 Q2301.5 1450.39 2307.31 1450.39 Z" fill="#000000" fill-rule="nonzero" fill-opacity="1" /><path clip-path="url(#clip090)" d="M958.473 1533.76 L958.473 1539.24 Q955.99 1537.87 953.476 1537.2 Q950.993 1536.5 948.447 1536.5 Q942.75 1536.5 939.599 1540.13 Q936.448 1543.73 936.448 1550.25 Q936.448 1556.78 939.599 1560.4 Q942.75 1564 948.447 1564 Q950.993 1564 953.476 1563.33 Q955.99 1562.63 958.473 1561.26 L958.473 1566.68 Q956.022 1567.82 953.38 1568.39 Q950.77 1568.97 947.81 1568.97 Q939.758 1568.97 935.015 1563.91 Q930.273 1558.85 930.273 1550.25 Q930.273 1541.53 935.047 1536.53 Q939.853 1531.54 948.192 1531.54 Q950.898 1531.54 953.476 1532.11 Q956.054 1532.65 958.473 1533.76 Z" fill="#000000" fill-rule="nonzero" fill-opacity="1" /><path clip-path="url(#clip090)" d="M998.29 1546.53 L998.29 1568.04 L992.434 1568.04 L992.434 1546.72 Q992.434 1541.66 990.461 1539.14 Q988.487 1536.63 984.54 1536.63 Q979.798 1536.63 977.061 1539.65 Q974.323 1542.68 974.323 1547.9 L974.323 1568.04 L968.435 1568.04 L968.435 1518.52 L974.323 1518.52 L974.323 1537.93 Q976.424 1534.72 979.257 1533.13 Q982.121 1531.54 985.845 1531.54 Q991.988 1531.54 995.139 1535.36 Q998.29 1539.14 998.29 1546.53 Z" fill="#000000" fill-rule="nonzero" fill-opacity="1" /><path clip-path="url(#clip090)" d="M1040.46 1548.76 L1040.46 1551.62 L1013.54 1551.62 Q1013.92 1557.67 1017.16 1560.85 Q1020.44 1564 1026.27 1564 Q1029.64 1564 1032.79 1563.17 Q1035.98 1562.35 1039.09 1560.69 L1039.09 1566.23 Q1035.94 1567.57 1032.63 1568.27 Q1029.32 1568.97 1025.92 1568.97 Q1017.39 1568.97 1012.39 1564 Q1007.43 1559.04 1007.43 1550.57 Q1007.43 1541.82 1012.14 1536.69 Q1016.88 1531.54 1024.9 1531.54 Q1032.09 1531.54 1036.26 1536.18 Q1040.46 1540.8 1040.46 1548.76 M1034.61 1547.04 Q1034.54 1542.23 1031.9 1539.37 Q1029.29 1536.5 1024.96 1536.5 Q1020.06 1536.5 1017.1 1539.27 Q1014.17 1542.04 1013.73 1547.07 L1034.61 1547.04 Z" fill="#000000" fill-rule="nonzero" fill-opacity="1" /><path clip-path="url(#clip090)" d="M1075.67 1550.25 Q1075.67 1543.79 1072.99 1540.13 Q1070.35 1536.44 1065.7 1536.44 Q1061.06 1536.44 1058.38 1540.13 Q1055.74 1543.79 1055.74 1550.25 Q1055.74 1556.71 1058.38 1560.4 Q1061.06 1564.07 1065.7 1564.07 Q1070.35 1564.07 1072.99 1560.4 Q1075.67 1556.71 1075.67 1550.25 M1055.74 1537.81 Q1057.59 1534.62 1060.39 1533.1 Q1063.22 1531.54 1067.14 1531.54 Q1073.63 1531.54 1077.67 1536.69 Q1081.74 1541.85 1081.74 1550.25 Q1081.74 1558.65 1077.67 1563.81 Q1073.63 1568.97 1067.14 1568.97 Q1063.22 1568.97 1060.39 1567.44 Q1057.59 1565.88 1055.74 1562.7 L1055.74 1568.04 L1049.85 1568.04 L1049.85 1518.52 L1055.74 1518.52 L1055.74 1537.81 Z" fill="#000000" fill-rule="nonzero" fill-opacity="1" /><path clip-path="url(#clip090)" d="M1106.28 1571.35 Q1103.8 1577.72 1101.45 1579.66 Q1099.09 1581.6 1095.14 1581.6 L1090.47 1581.6 L1090.47 1576.7 L1093.9 1576.7 Q1096.32 1576.7 1097.66 1575.56 Q1099 1574.41 1100.62 1570.14 L1101.67 1567.47 L1087.25 1532.4 L1093.46 1532.4 L1104.6 1560.28 L1115.74 1532.4 L1121.94 1532.4 L1106.28 1571.35 Z" fill="#000000" fill-rule="nonzero" fill-opacity="1" /><path clip-path="url(#clip090)" d="M1152.75 1533.45 L1152.75 1538.98 Q1150.27 1537.71 1147.6 1537.07 Q1144.92 1536.44 1142.06 1536.44 Q1137.7 1536.44 1135.5 1537.77 Q1133.34 1539.11 1133.34 1541.79 Q1133.34 1543.82 1134.9 1545 Q1136.46 1546.15 1141.17 1547.2 L1143.17 1547.64 Q1149.41 1548.98 1152.02 1551.43 Q1154.66 1553.85 1154.66 1558.21 Q1154.66 1563.17 1150.72 1566.07 Q1146.8 1568.97 1139.93 1568.97 Q1137.06 1568.97 1133.94 1568.39 Q1130.86 1567.85 1127.42 1566.74 L1127.42 1560.69 Q1130.67 1562.38 1133.82 1563.24 Q1136.97 1564.07 1140.05 1564.07 Q1144.19 1564.07 1146.42 1562.66 Q1148.65 1561.23 1148.65 1558.65 Q1148.65 1556.27 1147.03 1554.99 Q1145.43 1553.72 1139.99 1552.54 L1137.95 1552.07 Q1132.51 1550.92 1130.09 1548.56 Q1127.67 1546.18 1127.67 1542.04 Q1127.67 1537.01 1131.24 1534.27 Q1134.8 1531.54 1141.36 1531.54 Q1144.61 1531.54 1147.47 1532.01 Q1150.34 1532.49 1152.75 1533.45 Z" fill="#000000" fill-rule="nonzero" fill-opacity="1" /><path clip-path="url(#clip090)" d="M1193.62 1546.53 L1193.62 1568.04 L1187.77 1568.04 L1187.77 1546.72 Q1187.77 1541.66 1185.79 1539.14 Q1183.82 1536.63 1179.87 1536.63 Q1175.13 1536.63 1172.39 1539.65 Q1169.66 1542.68 1169.66 1547.9 L1169.66 1568.04 L1163.77 1568.04 L1163.77 1518.52 L1169.66 1518.52 L1169.66 1537.93 Q1171.76 1534.72 1174.59 1533.13 Q1177.45 1531.54 1181.18 1531.54 Q1187.32 1531.54 1190.47 1535.36 Q1193.62 1539.14 1193.62 1546.53 Z" fill="#000000" fill-rule="nonzero" fill-opacity="1" /><path clip-path="url(#clip090)" d="M1235.79 1548.76 L1235.79 1551.62 L1208.87 1551.62 Q1209.25 1557.67 1212.5 1560.85 Q1215.77 1564 1221.6 1564 Q1224.97 1564 1228.12 1563.17 Q1231.31 1562.35 1234.43 1560.69 L1234.43 1566.23 Q1231.28 1567.57 1227.97 1568.27 Q1224.65 1568.97 1221.25 1568.97 Q1212.72 1568.97 1207.72 1564 Q1202.76 1559.04 1202.76 1550.57 Q1202.76 1541.82 1207.47 1536.69 Q1212.21 1531.54 1220.23 1531.54 Q1227.42 1531.54 1231.59 1536.18 Q1235.79 1540.8 1235.79 1548.76 M1229.94 1547.04 Q1229.87 1542.23 1227.23 1539.37 Q1224.62 1536.5 1220.29 1536.5 Q1215.39 1536.5 1212.43 1539.27 Q1209.5 1542.04 1209.06 1547.07 L1229.94 1547.04 Z" fill="#000000" fill-rule="nonzero" fill-opacity="1" /><path clip-path="url(#clip090)" d="M1241.21 1532.4 L1247.41 1532.4 L1258.55 1562.31 L1269.69 1532.4 L1275.9 1532.4 L1262.53 1568.04 L1254.57 1568.04 L1241.21 1532.4 Z" fill="#000000" fill-rule="nonzero" fill-opacity="1" /><path clip-path="url(#clip090)" d="M1332.46 1539.24 Q1334.65 1535.29 1337.71 1533.41 Q1340.77 1531.54 1344.9 1531.54 Q1350.47 1531.54 1353.5 1535.45 Q1356.52 1539.33 1356.52 1546.53 L1356.52 1568.04 L1350.63 1568.04 L1350.63 1546.72 Q1350.63 1541.59 1348.82 1539.11 Q1347 1536.63 1343.28 1536.63 Q1338.73 1536.63 1336.09 1539.65 Q1333.44 1542.68 1333.44 1547.9 L1333.44 1568.04 L1327.56 1568.04 L1327.56 1546.72 Q1327.56 1541.56 1325.74 1539.11 Q1323.93 1536.63 1320.14 1536.63 Q1315.65 1536.63 1313.01 1539.68 Q1310.37 1542.71 1310.37 1547.9 L1310.37 1568.04 L1304.48 1568.04 L1304.48 1532.4 L1310.37 1532.4 L1310.37 1537.93 Q1312.37 1534.66 1315.18 1533.1 Q1317.98 1531.54 1321.83 1531.54 Q1325.71 1531.54 1328.42 1533.51 Q1331.15 1535.48 1332.46 1539.24 Z" fill="#000000" fill-rule="nonzero" fill-opacity="1" /><path clip-path="url(#clip090)" d="M1382.02 1536.5 Q1377.3 1536.5 1374.57 1540.19 Q1371.83 1543.85 1371.83 1550.25 Q1371.83 1556.65 1374.54 1560.34 Q1377.27 1564 1382.02 1564 Q1386.69 1564 1389.43 1560.31 Q1392.17 1556.62 1392.17 1550.25 Q1392.17 1543.92 1389.43 1540.23 Q1386.69 1536.5 1382.02 1536.5 M1382.02 1531.54 Q1389.65 1531.54 1394.01 1536.5 Q1398.38 1541.47 1398.38 1550.25 Q1398.38 1559 1394.01 1564 Q1389.65 1568.97 1382.02 1568.97 Q1374.34 1568.97 1369.98 1564 Q1365.66 1559 1365.66 1550.25 Q1365.66 1541.47 1369.98 1536.5 Q1374.34 1531.54 1382.02 1531.54 Z" fill="#000000" fill-rule="nonzero" fill-opacity="1" /><path clip-path="url(#clip090)" d="M1431.54 1537.81 L1431.54 1518.52 L1437.4 1518.52 L1437.4 1568.04 L1431.54 1568.04 L1431.54 1562.7 Q1429.69 1565.88 1426.86 1567.44 Q1424.06 1568.97 1420.11 1568.97 Q1413.65 1568.97 1409.58 1563.81 Q1405.54 1558.65 1405.54 1550.25 Q1405.54 1541.85 1409.58 1536.69 Q1413.65 1531.54 1420.11 1531.54 Q1424.06 1531.54 1426.86 1533.1 Q1429.69 1534.62 1431.54 1537.81 M1411.58 1550.25 Q1411.58 1556.71 1414.23 1560.4 Q1416.9 1564.07 1421.55 1564.07 Q1426.19 1564.07 1428.87 1560.4 Q1431.54 1556.71 1431.54 1550.25 Q1431.54 1543.79 1428.87 1540.13 Q1426.19 1536.44 1421.55 1536.44 Q1416.9 1536.44 1414.23 1540.13 Q1411.58 1543.79 1411.58 1550.25 Z" fill="#000000" fill-rule="nonzero" fill-opacity="1" /><path clip-path="url(#clip090)" d="M1479.95 1548.76 L1479.95 1551.62 L1453.02 1551.62 Q1453.41 1557.67 1456.65 1560.85 Q1459.93 1564 1465.76 1564 Q1469.13 1564 1472.28 1563.17 Q1475.46 1562.35 1478.58 1560.69 L1478.58 1566.23 Q1475.43 1567.57 1472.12 1568.27 Q1468.81 1568.97 1465.41 1568.97 Q1456.88 1568.97 1451.88 1564 Q1446.91 1559.04 1446.91 1550.57 Q1446.91 1541.82 1451.62 1536.69 Q1456.37 1531.54 1464.39 1531.54 Q1471.58 1531.54 1475.75 1536.18 Q1479.95 1540.8 1479.95 1548.76 M1474.1 1547.04 Q1474.03 1542.23 1471.39 1539.37 Q1468.78 1536.5 1464.45 1536.5 Q1459.55 1536.5 1456.59 1539.27 Q1453.66 1542.04 1453.22 1547.07 L1474.1 1547.04 Z" fill="#000000" fill-rule="nonzero" fill-opacity="1" /><path clip-path="url(#clip090)" d="M1489.56 1518.52 L1495.42 1518.52 L1495.42 1568.04 L1489.56 1568.04 L1489.56 1518.52 Z" fill="#000000" fill-rule="nonzero" fill-opacity="1" /><path clip-path="url(#clip090)" d="M1551.12 1533.45 L1551.12 1538.98 Q1548.64 1537.71 1545.96 1537.07 Q1543.29 1536.44 1540.43 1536.44 Q1536.07 1536.44 1533.87 1537.77 Q1531.7 1539.11 1531.7 1541.79 Q1531.7 1543.82 1533.26 1545 Q1534.82 1546.15 1539.53 1547.2 L1541.54 1547.64 Q1547.78 1548.98 1550.39 1551.43 Q1553.03 1553.85 1553.03 1558.21 Q1553.03 1563.17 1549.08 1566.07 Q1545.17 1568.97 1538.29 1568.97 Q1535.43 1568.97 1532.31 1568.39 Q1529.22 1567.85 1525.78 1566.74 L1525.78 1560.69 Q1529.03 1562.38 1532.18 1563.24 Q1535.33 1564.07 1538.42 1564.07 Q1542.56 1564.07 1544.79 1562.66 Q1547.01 1561.23 1547.01 1558.65 Q1547.01 1556.27 1545.39 1554.99 Q1543.8 1553.72 1538.36 1552.54 L1536.32 1552.07 Q1530.88 1550.92 1528.46 1548.56 Q1526.04 1546.18 1526.04 1542.04 Q1526.04 1537.01 1529.6 1534.27 Q1533.17 1531.54 1539.73 1531.54 Q1542.97 1531.54 1545.84 1532.01 Q1548.7 1532.49 1551.12 1533.45 Z" fill="#000000" fill-rule="nonzero" fill-opacity="1" /><path clip-path="url(#clip090)" d="M1562.36 1532.4 L1568.21 1532.4 L1568.21 1568.04 L1562.36 1568.04 L1562.36 1532.4 M1562.36 1518.52 L1568.21 1518.52 L1568.21 1525.93 L1562.36 1525.93 L1562.36 1518.52 Z" fill="#000000" fill-rule="nonzero" fill-opacity="1" /><path clip-path="url(#clip090)" d="M1577.92 1532.4 L1605.74 1532.4 L1605.74 1537.74 L1583.71 1563.37 L1605.74 1563.37 L1605.74 1568.04 L1577.12 1568.04 L1577.12 1562.7 L1599.15 1537.07 L1577.92 1537.07 L1577.92 1532.4 Z" fill="#000000" fill-rule="nonzero" fill-opacity="1" /><path clip-path="url(#clip090)" d="M1645.17 1548.76 L1645.17 1551.62 L1618.25 1551.62 Q1618.63 1557.67 1621.87 1560.85 Q1625.15 1564 1630.98 1564 Q1634.35 1564 1637.5 1563.17 Q1640.69 1562.35 1643.8 1560.69 L1643.8 1566.23 Q1640.65 1567.57 1637.34 1568.27 Q1634.03 1568.97 1630.63 1568.97 Q1622.1 1568.97 1617.1 1564 Q1612.14 1559.04 1612.14 1550.57 Q1612.14 1541.82 1616.85 1536.69 Q1621.59 1531.54 1629.61 1531.54 Q1636.8 1531.54 1640.97 1536.18 Q1645.17 1540.8 1645.17 1548.76 M1639.32 1547.04 Q1639.25 1542.23 1636.61 1539.37 Q1634 1536.5 1629.67 1536.5 Q1624.77 1536.5 1621.81 1539.27 Q1618.88 1542.04 1618.44 1547.07 L1639.32 1547.04 Z" fill="#000000" fill-rule="nonzero" fill-opacity="1" /><polyline clip-path="url(#clip092)" style="stroke:#000000; stroke-linecap:round; stroke-linejoin:round; stroke-width:2; stroke-opacity:0.1; fill:none" points="222.69,1025.59 2352.76,1025.59 "/>
<polyline clip-path="url(#clip092)" style="stroke:#000000; stroke-linecap:round; stroke-linejoin:round; stroke-width:2; stroke-opacity:0.1; fill:none" points="222.69,529.82 2352.76,529.82 "/>
<polyline clip-path="url(#clip090)" style="stroke:#000000; stroke-linecap:round; stroke-linejoin:round; stroke-width:4; stroke-opacity:1; fill:none" points="222.69,1423.18 222.69,192.592 "/>
<polyline clip-path="url(#clip090)" style="stroke:#000000; stroke-linecap:round; stroke-linejoin:round; stroke-width:4; stroke-opacity:1; fill:none" points="222.69,1025.59 241.588,1025.59 "/>
<polyline clip-path="url(#clip090)" style="stroke:#000000; stroke-linecap:round; stroke-linejoin:round; stroke-width:4; stroke-opacity:1; fill:none" points="222.69,529.82 241.588,529.82 "/>
<polyline clip-path="url(#clip090)" style="stroke:#000000; stroke-linecap:round; stroke-linejoin:round; stroke-width:4; stroke-opacity:1; fill:none" points="222.69,1162.64 232.139,1162.64 "/>
<polyline clip-path="url(#clip090)" style="stroke:#000000; stroke-linecap:round; stroke-linejoin:round; stroke-width:4; stroke-opacity:1; fill:none" points="222.69,1109.19 232.139,1109.19 "/>
<polyline clip-path="url(#clip090)" style="stroke:#000000; stroke-linecap:round; stroke-linejoin:round; stroke-width:4; stroke-opacity:1; fill:none" points="222.69,1073.64 232.139,1073.64 "/>
<polyline clip-path="url(#clip090)" style="stroke:#000000; stroke-linecap:round; stroke-linejoin:round; stroke-width:4; stroke-opacity:1; fill:none" points="222.69,1046.96 232.139,1046.96 "/>
<polyline clip-path="url(#clip090)" style="stroke:#000000; stroke-linecap:round; stroke-linejoin:round; stroke-width:4; stroke-opacity:1; fill:none" points="222.69,1025.59 232.139,1025.59 "/>
<polyline clip-path="url(#clip090)" style="stroke:#000000; stroke-linecap:round; stroke-linejoin:round; stroke-width:4; stroke-opacity:1; fill:none" points="222.69,1025.59 232.139,1025.59 "/>
<polyline clip-path="url(#clip090)" style="stroke:#000000; stroke-linecap:round; stroke-linejoin:round; stroke-width:4; stroke-opacity:1; fill:none" points="222.69,914.75 232.139,914.75 "/>
<polyline clip-path="url(#clip090)" style="stroke:#000000; stroke-linecap:round; stroke-linejoin:round; stroke-width:4; stroke-opacity:1; fill:none" points="222.69,861.305 232.139,861.305 "/>
<polyline clip-path="url(#clip090)" style="stroke:#000000; stroke-linecap:round; stroke-linejoin:round; stroke-width:4; stroke-opacity:1; fill:none" points="222.69,825.753 232.139,825.753 "/>
<polyline clip-path="url(#clip090)" style="stroke:#000000; stroke-linecap:round; stroke-linejoin:round; stroke-width:4; stroke-opacity:1; fill:none" points="222.69,799.072 232.139,799.072 "/>
<polyline clip-path="url(#clip090)" style="stroke:#000000; stroke-linecap:round; stroke-linejoin:round; stroke-width:4; stroke-opacity:1; fill:none" points="222.69,914.75 232.139,914.75 "/>
<polyline clip-path="url(#clip090)" style="stroke:#000000; stroke-linecap:round; stroke-linejoin:round; stroke-width:4; stroke-opacity:1; fill:none" points="222.69,861.305 232.139,861.305 "/>
<polyline clip-path="url(#clip090)" style="stroke:#000000; stroke-linecap:round; stroke-linejoin:round; stroke-width:4; stroke-opacity:1; fill:none" points="222.69,825.753 232.139,825.753 "/>
<polyline clip-path="url(#clip090)" style="stroke:#000000; stroke-linecap:round; stroke-linejoin:round; stroke-width:4; stroke-opacity:1; fill:none" points="222.69,799.072 232.139,799.072 "/>
<polyline clip-path="url(#clip090)" style="stroke:#000000; stroke-linecap:round; stroke-linejoin:round; stroke-width:4; stroke-opacity:1; fill:none" points="222.69,777.707 232.139,777.707 "/>
<polyline clip-path="url(#clip090)" style="stroke:#000000; stroke-linecap:round; stroke-linejoin:round; stroke-width:4; stroke-opacity:1; fill:none" points="222.69,777.707 232.139,777.707 "/>
<polyline clip-path="url(#clip090)" style="stroke:#000000; stroke-linecap:round; stroke-linejoin:round; stroke-width:4; stroke-opacity:1; fill:none" points="222.69,666.862 232.139,666.862 "/>
<polyline clip-path="url(#clip090)" style="stroke:#000000; stroke-linecap:round; stroke-linejoin:round; stroke-width:4; stroke-opacity:1; fill:none" points="222.69,613.418 232.139,613.418 "/>
<polyline clip-path="url(#clip090)" style="stroke:#000000; stroke-linecap:round; stroke-linejoin:round; stroke-width:4; stroke-opacity:1; fill:none" points="222.69,577.865 232.139,577.865 "/>
<polyline clip-path="url(#clip090)" style="stroke:#000000; stroke-linecap:round; stroke-linejoin:round; stroke-width:4; stroke-opacity:1; fill:none" points="222.69,551.184 232.139,551.184 "/>
<polyline clip-path="url(#clip090)" style="stroke:#000000; stroke-linecap:round; stroke-linejoin:round; stroke-width:4; stroke-opacity:1; fill:none" points="222.69,418.975 232.139,418.975 "/>
<polyline clip-path="url(#clip090)" style="stroke:#000000; stroke-linecap:round; stroke-linejoin:round; stroke-width:4; stroke-opacity:1; fill:none" points="222.69,365.53 232.139,365.53 "/>
<polyline clip-path="url(#clip090)" style="stroke:#000000; stroke-linecap:round; stroke-linejoin:round; stroke-width:4; stroke-opacity:1; fill:none" points="222.69,329.978 232.139,329.978 "/>
<polyline clip-path="url(#clip090)" style="stroke:#000000; stroke-linecap:round; stroke-linejoin:round; stroke-width:4; stroke-opacity:1; fill:none" points="222.69,303.297 232.139,303.297 "/>
<polyline clip-path="url(#clip090)" style="stroke:#000000; stroke-linecap:round; stroke-linejoin:round; stroke-width:4; stroke-opacity:1; fill:none" points="222.69,281.932 232.139,281.932 "/>
<polyline clip-path="url(#clip090)" style="stroke:#000000; stroke-linecap:round; stroke-linejoin:round; stroke-width:4; stroke-opacity:1; fill:none" points="222.69,281.932 232.139,281.932 "/>
<path clip-path="url(#clip090)" d="M117.565 1045.39 L125.203 1045.39 L125.203 1019.02 L116.893 1020.69 L116.893 1016.43 L125.157 1014.76 L129.833 1014.76 L129.833 1045.39 L137.472 1045.39 L137.472 1049.32 L117.565 1049.32 L117.565 1045.39 Z" fill="#000000" fill-rule="nonzero" fill-opacity="1" /><path clip-path="url(#clip090)" d="M156.916 1017.84 Q153.305 1017.84 151.476 1021.41 Q149.671 1024.95 149.671 1032.08 Q149.671 1039.18 151.476 1042.75 Q153.305 1046.29 156.916 1046.29 Q160.55 1046.29 162.356 1042.75 Q164.185 1039.18 164.185 1032.08 Q164.185 1024.95 162.356 1021.41 Q160.55 1017.84 156.916 1017.84 M156.916 1014.14 Q162.726 1014.14 165.782 1018.74 Q168.861 1023.33 168.861 1032.08 Q168.861 1040.8 165.782 1045.41 Q162.726 1049.99 156.916 1049.99 Q151.106 1049.99 148.027 1045.41 Q144.972 1040.8 144.972 1032.08 Q144.972 1023.33 148.027 1018.74 Q151.106 1014.14 156.916 1014.14 Z" fill="#000000" fill-rule="nonzero" fill-opacity="1" /><path clip-path="url(#clip090)" d="M173.431 1018.71 L186.69 1018.71 L186.69 1021.91 L168.861 1021.91 L168.861 1018.71 Q171.023 1016.48 174.747 1012.72 Q178.49 1008.93 179.449 1007.84 Q181.274 1005.79 181.988 1004.38 Q182.722 1002.95 182.722 1001.58 Q182.722 999.343 181.142 997.932 Q179.581 996.522 177.061 996.522 Q175.274 996.522 173.28 997.142 Q171.306 997.763 169.049 999.023 L169.049 995.186 Q171.343 994.265 173.337 993.794 Q175.33 993.324 176.986 993.324 Q181.349 993.324 183.944 995.506 Q186.54 997.688 186.54 1001.34 Q186.54 1003.07 185.882 1004.63 Q185.242 1006.17 183.531 1008.28 Q183.06 1008.82 180.54 1011.44 Q178.02 1014.03 173.431 1018.71 Z" fill="#000000" fill-rule="nonzero" fill-opacity="1" /><path clip-path="url(#clip090)" d="M114.931 549.612 L122.57 549.612 L122.57 523.247 L114.26 524.913 L114.26 520.654 L122.524 518.987 L127.2 518.987 L127.2 549.612 L134.839 549.612 L134.839 553.547 L114.931 553.547 L114.931 549.612 Z" fill="#000000" fill-rule="nonzero" fill-opacity="1" /><path clip-path="url(#clip090)" d="M154.283 522.066 Q150.672 522.066 148.843 525.631 Q147.038 529.172 147.038 536.302 Q147.038 543.409 148.843 546.973 Q150.672 550.515 154.283 550.515 Q157.917 550.515 159.723 546.973 Q161.552 543.409 161.552 536.302 Q161.552 529.172 159.723 525.631 Q157.917 522.066 154.283 522.066 M154.283 518.362 Q160.093 518.362 163.149 522.969 Q166.227 527.552 166.227 536.302 Q166.227 545.029 163.149 549.635 Q160.093 554.219 154.283 554.219 Q148.473 554.219 145.394 549.635 Q142.339 545.029 142.339 536.302 Q142.339 527.552 145.394 522.969 Q148.473 518.362 154.283 518.362 Z" fill="#000000" fill-rule="nonzero" fill-opacity="1" /><path clip-path="url(#clip090)" d="M178.904 501.367 L169.312 516.357 L178.904 516.357 L178.904 501.367 M177.907 498.057 L182.684 498.057 L182.684 516.357 L186.69 516.357 L186.69 519.517 L182.684 519.517 L182.684 526.137 L178.904 526.137 L178.904 519.517 L166.227 519.517 L166.227 515.849 L177.907 498.057 Z" fill="#000000" fill-rule="nonzero" fill-opacity="1" /><path clip-path="url(#clip090)" d="M41.7242 864.047 Q42.4244 861.979 44.7161 860.037 Q47.0077 858.064 51.0181 856.09 L64.0042 849.565 L64.0042 856.472 L51.8138 862.551 Q47.0395 864.907 45.48 867.135 Q43.9204 869.331 43.9204 873.15 L43.9204 880.153 L64.0042 880.153 L64.0042 886.582 L16.4842 886.582 L16.4842 872.068 Q16.4842 863.92 19.8898 859.91 Q23.2955 855.899 30.1704 855.899 Q34.6582 855.899 37.6183 858 Q40.5784 860.069 41.7242 864.047 M21.7677 880.153 L38.6368 880.153 L38.6368 872.068 Q38.6368 867.421 36.5043 865.066 Q34.34 862.679 30.1704 862.679 Q26.0009 862.679 23.9002 865.066 Q21.7677 867.421 21.7677 872.068 L21.7677 880.153 Z" fill="#000000" fill-rule="nonzero" fill-opacity="1" /><path clip-path="url(#clip090)" d="M46.0847 826.776 Q46.0847 833.874 47.7079 836.611 Q49.3312 839.348 53.2461 839.348 Q56.3653 839.348 58.2114 837.311 Q60.0256 835.243 60.0256 831.71 Q60.0256 826.84 56.5881 823.912 Q53.1188 820.952 47.3897 820.952 L46.0847 820.952 L46.0847 826.776 M43.6657 815.095 L64.0042 815.095 L64.0042 820.952 L58.5933 820.952 Q61.8398 822.957 63.3994 825.949 Q64.9272 828.941 64.9272 833.269 Q64.9272 838.744 61.8716 841.99 Q58.7843 845.205 53.6281 845.205 Q47.6125 845.205 44.5569 841.195 Q41.5014 837.152 41.5014 829.163 L41.5014 820.952 L40.9285 820.952 Q36.8862 820.952 34.6901 823.625 Q32.4621 826.267 32.4621 831.073 Q32.4621 834.129 33.1941 837.025 Q33.9262 839.921 35.3903 842.595 L29.9795 842.595 Q28.7381 839.38 28.1334 836.357 Q27.4968 833.333 27.4968 830.468 Q27.4968 822.734 31.5072 818.915 Q35.5176 815.095 43.6657 815.095 Z" fill="#000000" fill-rule="nonzero" fill-opacity="1" /><path clip-path="url(#clip090)" d="M18.2347 797.239 L28.3562 797.239 L28.3562 785.176 L32.9077 785.176 L32.9077 797.239 L52.2594 797.239 Q56.6199 797.239 57.8613 796.062 Q59.1026 794.852 59.1026 791.192 L59.1026 785.176 L64.0042 785.176 L64.0042 791.192 Q64.0042 797.971 61.4897 800.55 Q58.9434 803.128 52.2594 803.128 L32.9077 803.128 L32.9077 807.424 L28.3562 807.424 L28.3562 803.128 L18.2347 803.128 L18.2347 797.239 Z" fill="#000000" fill-rule="nonzero" fill-opacity="1" /><path clip-path="url(#clip090)" d="M28.3562 777.474 L28.3562 771.617 L64.0042 771.617 L64.0042 777.474 L28.3562 777.474 M14.479 777.474 L14.479 771.617 L21.895 771.617 L21.895 777.474 L14.479 777.474 Z" fill="#000000" fill-rule="nonzero" fill-opacity="1" /><path clip-path="url(#clip090)" d="M32.4621 745.55 Q32.4621 750.26 36.1542 752.998 Q39.8145 755.735 46.212 755.735 Q52.6095 755.735 56.3017 753.03 Q59.9619 750.292 59.9619 745.55 Q59.9619 740.871 56.2698 738.134 Q52.5777 735.396 46.212 735.396 Q39.8781 735.396 36.186 738.134 Q32.4621 740.871 32.4621 745.55 M27.4968 745.55 Q27.4968 737.911 32.4621 733.55 Q37.4273 729.19 46.212 729.19 Q54.9649 729.19 59.9619 733.55 Q64.9272 737.911 64.9272 745.55 Q64.9272 753.22 59.9619 757.581 Q54.9649 761.91 46.212 761.91 Q37.4273 761.91 32.4621 757.581 Q27.4968 753.22 27.4968 745.55 Z" fill="#000000" fill-rule="nonzero" fill-opacity="1" /><path clip-path="url(#clip090)" d="M890.677 30.24 L927.222 30.24 L927.222 35.159 L911.886 35.159 L911.886 73.44 L906.012 73.44 L906.012 35.159 L890.677 35.159 L890.677 30.24 Z" fill="#000000" fill-rule="nonzero" fill-opacity="1" /><path clip-path="url(#clip090)" d="M930.81 41.0328 L936.134 41.0328 L936.134 73.44 L930.81 73.44 L930.81 41.0328 M930.81 28.4171 L936.134 28.4171 L936.134 35.159 L930.81 35.159 L930.81 28.4171 Z" fill="#000000" fill-rule="nonzero" fill-opacity="1" /><path clip-path="url(#clip090)" d="M972.505 47.2538 Q974.501 43.6659 977.279 41.9587 Q980.057 40.2515 983.818 40.2515 Q988.882 40.2515 991.631 43.8105 Q994.38 47.3406 994.38 53.8799 L994.38 73.44 L989.027 73.44 L989.027 54.0535 Q989.027 49.395 987.378 47.1381 Q985.728 44.8811 982.343 44.8811 Q978.205 44.8811 975.803 47.63 Q973.402 50.3788 973.402 55.1241 L973.402 73.44 L968.049 73.44 L968.049 54.0535 Q968.049 49.3661 966.4 47.1381 Q964.75 44.8811 961.307 44.8811 Q957.227 44.8811 954.826 47.6589 Q952.424 50.4077 952.424 55.1241 L952.424 73.44 L947.071 73.44 L947.071 41.0328 L952.424 41.0328 L952.424 46.0675 Q954.247 43.0872 956.793 41.6693 Q959.339 40.2515 962.841 40.2515 Q966.371 40.2515 968.83 42.0455 Q971.319 43.8395 972.505 47.2538 Z" fill="#000000" fill-rule="nonzero" fill-opacity="1" /><path clip-path="url(#clip090)" d="M1032.72 55.9054 L1032.72 58.5095 L1008.24 58.5095 Q1008.59 64.0072 1011.54 66.9007 Q1014.52 69.7653 1019.81 69.7653 Q1022.88 69.7653 1025.75 69.0129 Q1028.64 68.2606 1031.47 66.756 L1031.47 71.7907 Q1028.61 73.006 1025.6 73.6425 Q1022.59 74.2791 1019.5 74.2791 Q1011.74 74.2791 1007.2 69.7653 Q1002.68 65.2514 1002.68 57.5547 Q1002.68 49.5975 1006.97 44.939 Q1011.28 40.2515 1018.57 40.2515 Q1025.11 40.2515 1028.9 44.476 Q1032.72 48.6716 1032.72 55.9054 M1027.39 54.3429 Q1027.34 49.9737 1024.94 47.3695 Q1022.56 44.7654 1018.63 44.7654 Q1014.17 44.7654 1011.48 47.2827 Q1008.82 49.8001 1008.41 54.3718 L1027.39 54.3429 Z" fill="#000000" fill-rule="nonzero" fill-opacity="1" /><path clip-path="url(#clip090)" d="M1079.07 46.0096 Q1078.18 45.4888 1077.11 45.2573 Q1076.06 44.9969 1074.79 44.9969 Q1070.28 44.9969 1067.85 47.9482 Q1065.44 50.8707 1065.44 56.3683 L1065.44 73.44 L1060.09 73.44 L1060.09 41.0328 L1065.44 41.0328 L1065.44 46.0675 Q1067.12 43.1161 1069.81 41.6983 Q1072.5 40.2515 1076.35 40.2515 Q1076.9 40.2515 1077.57 40.3383 Q1078.23 40.3962 1079.04 40.5409 L1079.07 46.0096 Z" fill="#000000" fill-rule="nonzero" fill-opacity="1" /><path clip-path="url(#clip090)" d="M1099.39 57.1496 Q1092.93 57.1496 1090.44 58.6253 Q1087.96 60.101 1087.96 63.66 Q1087.96 66.4956 1089.81 68.1738 Q1091.69 69.8231 1094.9 69.8231 Q1099.33 69.8231 1101.99 66.6981 Q1104.68 63.5442 1104.68 58.3359 L1104.68 57.1496 L1099.39 57.1496 M1110 54.9505 L1110 73.44 L1104.68 73.44 L1104.68 68.521 Q1102.86 71.4724 1100.14 72.8902 Q1097.42 74.2791 1093.48 74.2791 Q1088.51 74.2791 1085.55 71.5014 Q1082.63 68.6947 1082.63 64.0072 Q1082.63 58.5385 1086.28 55.7607 Q1089.95 52.9829 1097.21 52.9829 L1104.68 52.9829 L1104.68 52.4621 Q1104.68 48.7874 1102.25 46.7908 Q1099.85 44.7654 1095.48 44.7654 Q1092.7 44.7654 1090.07 45.4309 Q1087.43 46.0964 1085 47.4274 L1085 42.5085 Q1087.93 41.38 1090.68 40.8302 Q1093.42 40.2515 1096.03 40.2515 Q1103.06 40.2515 1106.53 43.8973 Q1110 47.5431 1110 54.9505 Z" fill="#000000" fill-rule="nonzero" fill-opacity="1" /><path clip-path="url(#clip090)" d="M1126.24 31.8314 L1126.24 41.0328 L1137.2 41.0328 L1137.2 45.1705 L1126.24 45.1705 L1126.24 62.763 Q1126.24 66.7271 1127.31 67.8555 Q1128.41 68.984 1131.73 68.984 L1137.2 68.984 L1137.2 73.44 L1131.73 73.44 Q1125.57 73.44 1123.23 71.1541 Q1120.88 68.8393 1120.88 62.763 L1120.88 45.1705 L1116.98 45.1705 L1116.98 41.0328 L1120.88 41.0328 L1120.88 31.8314 L1126.24 31.8314 Z" fill="#000000" fill-rule="nonzero" fill-opacity="1" /><path clip-path="url(#clip090)" d="M1144.21 41.0328 L1149.53 41.0328 L1149.53 73.44 L1144.21 73.44 L1144.21 41.0328 M1144.21 28.4171 L1149.53 28.4171 L1149.53 35.159 L1144.21 35.159 L1144.21 28.4171 Z" fill="#000000" fill-rule="nonzero" fill-opacity="1" /><path clip-path="url(#clip090)" d="M1173.23 44.7654 Q1168.94 44.7654 1166.46 48.1218 Q1163.97 51.4494 1163.97 57.2653 Q1163.97 63.0813 1166.43 66.4377 Q1168.92 69.7653 1173.23 69.7653 Q1177.48 69.7653 1179.97 66.4088 Q1182.46 63.0523 1182.46 57.2653 Q1182.46 51.5072 1179.97 48.1508 Q1177.48 44.7654 1173.23 44.7654 M1173.23 40.2515 Q1180.17 40.2515 1184.14 44.7654 Q1188.1 49.2792 1188.1 57.2653 Q1188.1 65.2225 1184.14 69.7653 Q1180.17 74.2791 1173.23 74.2791 Q1166.25 74.2791 1162.29 69.7653 Q1158.35 65.2225 1158.35 57.2653 Q1158.35 49.2792 1162.29 44.7654 Q1166.25 40.2515 1173.23 40.2515 Z" fill="#000000" fill-rule="nonzero" fill-opacity="1" /><path clip-path="url(#clip090)" d="M1198.28 66.0905 L1204.39 66.0905 L1204.39 71.0673 L1199.64 80.3265 L1195.91 80.3265 L1198.28 71.0673 L1198.28 66.0905 Z" fill="#000000" fill-rule="nonzero" fill-opacity="1" /><path clip-path="url(#clip090)" d="M1260.73 31.6578 L1260.73 37.358 Q1257.4 35.7666 1254.45 34.9853 Q1251.5 34.2041 1248.75 34.2041 Q1243.97 34.2041 1241.37 36.0559 Q1238.79 37.9078 1238.79 41.3221 Q1238.79 44.1867 1240.5 45.6624 Q1242.24 47.1091 1247.04 48.0061 L1250.57 48.7295 Q1257.11 49.9737 1260.21 53.1276 Q1263.33 56.2526 1263.33 61.5188 Q1263.33 67.7977 1259.11 71.0384 Q1254.91 74.2791 1246.78 74.2791 Q1243.71 74.2791 1240.24 73.5847 Q1236.8 72.8902 1233.09 71.5303 L1233.09 65.5118 Q1236.65 67.5083 1240.07 68.521 Q1243.48 69.5338 1246.78 69.5338 Q1251.79 69.5338 1254.51 67.5662 Q1257.23 65.5986 1257.23 61.9528 Q1257.23 58.7699 1255.26 56.976 Q1253.32 55.182 1248.86 54.285 L1245.3 53.5906 Q1238.77 52.2885 1235.84 49.5107 Q1232.92 46.733 1232.92 41.7851 Q1232.92 36.0559 1236.94 32.7573 Q1240.99 29.4588 1248.08 29.4588 Q1251.12 29.4588 1254.27 30.0085 Q1257.43 30.5583 1260.73 31.6578 Z" fill="#000000" fill-rule="nonzero" fill-opacity="1" /><path clip-path="url(#clip090)" d="M1285.7 76.4492 Q1283.44 82.2362 1281.3 84.0013 Q1279.16 85.7663 1275.57 85.7663 L1271.32 85.7663 L1271.32 81.3103 L1274.44 81.3103 Q1276.64 81.3103 1277.86 80.2687 Q1279.07 79.227 1280.55 75.3497 L1281.5 72.9192 L1268.39 41.0328 L1274.04 41.0328 L1284.16 66.3799 L1294.29 41.0328 L1299.93 41.0328 L1285.7 76.4492 Z" fill="#000000" fill-rule="nonzero" fill-opacity="1" /><path clip-path="url(#clip090)" d="M1332.51 47.2538 Q1334.51 43.6659 1337.29 41.9587 Q1340.07 40.2515 1343.83 40.2515 Q1348.89 40.2515 1351.64 43.8105 Q1354.39 47.3406 1354.39 53.8799 L1354.39 73.44 L1349.04 73.44 L1349.04 54.0535 Q1349.04 49.395 1347.39 47.1381 Q1345.74 44.8811 1342.35 44.8811 Q1338.21 44.8811 1335.81 47.63 Q1333.41 50.3788 1333.41 55.1241 L1333.41 73.44 L1328.06 73.44 L1328.06 54.0535 Q1328.06 49.3661 1326.41 47.1381 Q1324.76 44.8811 1321.32 44.8811 Q1317.24 44.8811 1314.84 47.6589 Q1312.43 50.4077 1312.43 55.1241 L1312.43 73.44 L1307.08 73.44 L1307.08 41.0328 L1312.43 41.0328 L1312.43 46.0675 Q1314.26 43.0872 1316.8 41.6693 Q1319.35 40.2515 1322.85 40.2515 Q1326.38 40.2515 1328.84 42.0455 Q1331.33 43.8395 1332.51 47.2538 Z" fill="#000000" fill-rule="nonzero" fill-opacity="1" /><path clip-path="url(#clip090)" d="M1388.27 57.2653 Q1388.27 51.3915 1385.84 48.064 Q1383.44 44.7075 1379.22 44.7075 Q1374.99 44.7075 1372.56 48.064 Q1370.16 51.3915 1370.16 57.2653 Q1370.16 63.1391 1372.56 66.4956 Q1374.99 69.8231 1379.22 69.8231 Q1383.44 69.8231 1385.84 66.4956 Q1388.27 63.1391 1388.27 57.2653 M1370.16 45.9517 Q1371.84 43.0582 1374.38 41.6693 Q1376.96 40.2515 1380.52 40.2515 Q1386.42 40.2515 1390.1 44.939 Q1393.8 49.6265 1393.8 57.2653 Q1393.8 64.9042 1390.1 69.5916 Q1386.42 74.2791 1380.52 74.2791 Q1376.96 74.2791 1374.38 72.8902 Q1371.84 71.4724 1370.16 68.5789 L1370.16 73.44 L1364.81 73.44 L1364.81 28.4171 L1370.16 28.4171 L1370.16 45.9517 Z" fill="#000000" fill-rule="nonzero" fill-opacity="1" /><path clip-path="url(#clip090)" d="M1415.18 44.7654 Q1410.9 44.7654 1408.41 48.1218 Q1405.92 51.4494 1405.92 57.2653 Q1405.92 63.0813 1408.38 66.4377 Q1410.87 69.7653 1415.18 69.7653 Q1419.44 69.7653 1421.92 66.4088 Q1424.41 63.0523 1424.41 57.2653 Q1424.41 51.5072 1421.92 48.1508 Q1419.44 44.7654 1415.18 44.7654 M1415.18 40.2515 Q1422.13 40.2515 1426.09 44.7654 Q1430.05 49.2792 1430.05 57.2653 Q1430.05 65.2225 1426.09 69.7653 Q1422.13 74.2791 1415.18 74.2791 Q1408.21 74.2791 1404.24 69.7653 Q1400.31 65.2225 1400.31 57.2653 Q1400.31 49.2792 1404.24 44.7654 Q1408.21 40.2515 1415.18 40.2515 Z" fill="#000000" fill-rule="nonzero" fill-opacity="1" /><path clip-path="url(#clip090)" d="M1438.88 28.4171 L1444.2 28.4171 L1444.2 73.44 L1438.88 73.44 L1438.88 28.4171 Z" fill="#000000" fill-rule="nonzero" fill-opacity="1" /><path clip-path="url(#clip090)" d="M1455.34 41.0328 L1460.67 41.0328 L1460.67 73.44 L1455.34 73.44 L1455.34 41.0328 M1455.34 28.4171 L1460.67 28.4171 L1460.67 35.159 L1455.34 35.159 L1455.34 28.4171 Z" fill="#000000" fill-rule="nonzero" fill-opacity="1" /><path clip-path="url(#clip090)" d="M1495.13 42.277 L1495.13 47.2538 Q1492.87 46.0096 1490.59 45.402 Q1488.33 44.7654 1486.01 44.7654 Q1480.84 44.7654 1477.97 48.064 Q1475.11 51.3336 1475.11 57.2653 Q1475.11 63.197 1477.97 66.4956 Q1480.84 69.7653 1486.01 69.7653 Q1488.33 69.7653 1490.59 69.1576 Q1492.87 68.521 1495.13 67.2768 L1495.13 72.1958 Q1492.9 73.2375 1490.5 73.7583 Q1488.13 74.2791 1485.44 74.2791 Q1478.12 74.2791 1473.8 69.6784 Q1469.49 65.0778 1469.49 57.2653 Q1469.49 49.3371 1473.83 44.7943 Q1478.2 40.2515 1485.78 40.2515 Q1488.24 40.2515 1490.59 40.7724 Q1492.93 41.2642 1495.13 42.277 Z" fill="#000000" fill-rule="nonzero" fill-opacity="1" /><path clip-path="url(#clip090)" d="M1525.05 41.9876 L1525.05 47.0223 Q1522.79 45.8649 1520.36 45.2862 Q1517.93 44.7075 1515.33 44.7075 Q1511.36 44.7075 1509.37 45.9228 Q1507.4 47.1381 1507.4 49.5686 Q1507.4 51.4204 1508.82 52.491 Q1510.23 53.5327 1514.52 54.4876 L1516.34 54.8926 Q1522.01 56.1079 1524.38 58.3359 Q1526.78 60.535 1526.78 64.4991 Q1526.78 69.0129 1523.2 71.646 Q1519.64 74.2791 1513.39 74.2791 Q1510.78 74.2791 1507.95 73.7583 Q1505.14 73.2664 1502.02 72.2537 L1502.02 66.756 Q1504.97 68.2896 1507.83 69.0708 Q1510.7 69.8231 1513.5 69.8231 Q1517.26 69.8231 1519.29 68.55 Q1521.32 67.2479 1521.32 64.9042 Q1521.32 62.734 1519.84 61.5766 Q1518.39 60.4192 1513.45 59.3486 L1511.59 58.9146 Q1506.65 57.873 1504.45 55.7318 Q1502.25 53.5616 1502.25 49.8001 Q1502.25 45.2283 1505.49 42.7399 Q1508.73 40.2515 1514.69 40.2515 Q1517.64 40.2515 1520.25 40.6855 Q1522.85 41.1196 1525.05 41.9876 Z" fill="#000000" fill-rule="nonzero" fill-opacity="1" /><path clip-path="url(#clip090)" d="M1544.72 30.24 L1549.64 30.24 L1534.6 78.9377 L1529.68 78.9377 L1544.72 30.24 Z" fill="#000000" fill-rule="nonzero" fill-opacity="1" /><path clip-path="url(#clip090)" d="M1555.46 30.24 L1580.29 30.24 L1580.29 35.159 L1561.3 35.159 L1561.3 47.8904 L1578.43 47.8904 L1578.43 52.8093 L1561.3 52.8093 L1561.3 73.44 L1555.46 73.44 L1555.46 30.24 Z" fill="#000000" fill-rule="nonzero" fill-opacity="1" /><path clip-path="url(#clip090)" d="M1614.4 31.6578 L1614.4 37.358 Q1611.07 35.7666 1608.12 34.9853 Q1605.17 34.2041 1602.42 34.2041 Q1597.65 34.2041 1595.04 36.0559 Q1592.47 37.9078 1592.47 41.3221 Q1592.47 44.1867 1594.17 45.6624 Q1595.91 47.1091 1600.71 48.0061 L1604.24 48.7295 Q1610.78 49.9737 1613.88 53.1276 Q1617 56.2526 1617 61.5188 Q1617 67.7977 1612.78 71.0384 Q1608.58 74.2791 1600.45 74.2791 Q1597.39 74.2791 1593.91 73.5847 Q1590.47 72.8902 1586.77 71.5303 L1586.77 65.5118 Q1590.33 67.5083 1593.74 68.521 Q1597.15 69.5338 1600.45 69.5338 Q1605.46 69.5338 1608.18 67.5662 Q1610.9 65.5986 1610.9 61.9528 Q1610.9 58.7699 1608.93 56.976 Q1606.99 55.182 1602.54 54.285 L1598.98 53.5906 Q1592.44 52.2885 1589.52 49.5107 Q1586.59 46.733 1586.59 41.7851 Q1586.59 36.0559 1590.62 32.7573 Q1594.67 29.4588 1601.75 29.4588 Q1604.79 29.4588 1607.95 30.0085 Q1611.1 30.5583 1614.4 31.6578 Z" fill="#000000" fill-rule="nonzero" fill-opacity="1" /><path clip-path="url(#clip090)" d="M1631.96 35.0432 L1631.96 68.6368 L1639.02 68.6368 Q1647.96 68.6368 1652.1 64.5859 Q1656.27 60.535 1656.27 51.7966 Q1656.27 43.1161 1652.1 39.0941 Q1647.96 35.0432 1639.02 35.0432 L1631.96 35.0432 M1626.12 30.24 L1638.13 30.24 Q1650.68 30.24 1656.56 35.4772 Q1662.43 40.6855 1662.43 51.7966 Q1662.43 62.9655 1656.53 68.2028 Q1650.63 73.44 1638.13 73.44 L1626.12 73.44 L1626.12 30.24 Z" fill="#000000" fill-rule="nonzero" fill-opacity="1" /><path clip-path="url(#clip090)" d="M1145.96 107.077 L1145.96 112.054 Q1143.7 110.81 1141.41 110.202 Q1139.16 109.565 1136.84 109.565 Q1131.66 109.565 1128.8 112.864 Q1125.93 116.134 1125.93 122.065 Q1125.93 127.997 1128.8 131.296 Q1131.66 134.565 1136.84 134.565 Q1139.16 134.565 1141.41 133.958 Q1143.7 133.321 1145.96 132.077 L1145.96 136.996 Q1143.73 138.037 1141.33 138.558 Q1138.95 139.079 1136.26 139.079 Q1128.94 139.079 1124.63 134.478 Q1120.32 129.878 1120.32 122.065 Q1120.32 114.137 1124.66 109.594 Q1129.03 105.052 1136.61 105.052 Q1139.07 105.052 1141.41 105.572 Q1143.76 106.064 1145.96 107.077 Z" fill="#000000" fill-rule="nonzero" fill-opacity="1" /><path clip-path="url(#clip090)" d="M1182.15 118.68 L1182.15 138.24 L1176.83 138.24 L1176.83 118.854 Q1176.83 114.253 1175.04 111.967 Q1173.24 109.681 1169.65 109.681 Q1165.34 109.681 1162.85 112.43 Q1160.37 115.179 1160.37 119.924 L1160.37 138.24 L1155.01 138.24 L1155.01 93.2171 L1160.37 93.2171 L1160.37 110.867 Q1162.28 107.945 1164.85 106.498 Q1167.45 105.052 1170.84 105.052 Q1176.42 105.052 1179.29 108.524 Q1182.15 111.967 1182.15 118.68 Z" fill="#000000" fill-rule="nonzero" fill-opacity="1" /><path clip-path="url(#clip090)" d="M1220.49 120.705 L1220.49 123.31 L1196.01 123.31 Q1196.36 128.807 1199.31 131.701 Q1202.29 134.565 1207.59 134.565 Q1210.65 134.565 1213.52 133.813 Q1216.41 133.061 1219.25 131.556 L1219.25 136.591 Q1216.38 137.806 1213.37 138.443 Q1210.37 139.079 1207.27 139.079 Q1199.51 139.079 1194.97 134.565 Q1190.46 130.051 1190.46 122.355 Q1190.46 114.398 1194.74 109.739 Q1199.05 105.052 1206.34 105.052 Q1212.88 105.052 1216.67 109.276 Q1220.49 113.472 1220.49 120.705 M1215.17 119.143 Q1215.11 114.774 1212.71 112.17 Q1210.34 109.565 1206.4 109.565 Q1201.95 109.565 1199.25 112.083 Q1196.59 114.6 1196.19 119.172 L1215.17 119.143 Z" fill="#000000" fill-rule="nonzero" fill-opacity="1" /><path clip-path="url(#clip090)" d="M1252.49 122.065 Q1252.49 116.192 1250.06 112.864 Q1247.66 109.508 1243.44 109.508 Q1239.21 109.508 1236.78 112.864 Q1234.38 116.192 1234.38 122.065 Q1234.38 127.939 1236.78 131.296 Q1239.21 134.623 1243.44 134.623 Q1247.66 134.623 1250.06 131.296 Q1252.49 127.939 1252.49 122.065 M1234.38 110.752 Q1236.06 107.858 1238.61 106.469 Q1241.18 105.052 1244.74 105.052 Q1250.64 105.052 1254.32 109.739 Q1258.02 114.426 1258.02 122.065 Q1258.02 129.704 1254.32 134.392 Q1250.64 139.079 1244.74 139.079 Q1241.18 139.079 1238.61 137.69 Q1236.06 136.272 1234.38 133.379 L1234.38 138.24 L1229.03 138.24 L1229.03 93.2171 L1234.38 93.2171 L1234.38 110.752 Z" fill="#000000" fill-rule="nonzero" fill-opacity="1" /><path clip-path="url(#clip090)" d="M1280.33 141.249 Q1278.07 147.036 1275.93 148.801 Q1273.79 150.566 1270.2 150.566 L1265.95 150.566 L1265.95 146.11 L1269.07 146.11 Q1271.27 146.11 1272.49 145.069 Q1273.7 144.027 1275.18 140.15 L1276.13 137.719 L1263.03 105.833 L1268.67 105.833 L1278.8 131.18 L1288.92 105.833 L1294.57 105.833 L1280.33 141.249 Z" fill="#000000" fill-rule="nonzero" fill-opacity="1" /><path clip-path="url(#clip090)" d="M1322.58 106.788 L1322.58 111.822 Q1320.32 110.665 1317.89 110.086 Q1315.46 109.508 1312.85 109.508 Q1308.89 109.508 1306.89 110.723 Q1304.92 111.938 1304.92 114.369 Q1304.92 116.22 1306.34 117.291 Q1307.76 118.333 1312.04 119.288 L1313.87 119.693 Q1319.54 120.908 1321.91 123.136 Q1324.31 125.335 1324.31 129.299 Q1324.31 133.813 1320.72 136.446 Q1317.16 139.079 1310.91 139.079 Q1308.31 139.079 1305.47 138.558 Q1302.67 138.066 1299.54 137.054 L1299.54 131.556 Q1302.49 133.09 1305.36 133.871 Q1308.22 134.623 1311.03 134.623 Q1314.79 134.623 1316.82 133.35 Q1318.84 132.048 1318.84 129.704 Q1318.84 127.534 1317.37 126.377 Q1315.92 125.219 1310.97 124.149 L1309.12 123.715 Q1304.17 122.673 1301.97 120.532 Q1299.77 118.362 1299.77 114.6 Q1299.77 110.028 1303.02 107.54 Q1306.26 105.052 1312.22 105.052 Q1315.17 105.052 1317.77 105.486 Q1320.38 105.92 1322.58 106.788 Z" fill="#000000" fill-rule="nonzero" fill-opacity="1" /><path clip-path="url(#clip090)" d="M1359.73 118.68 L1359.73 138.24 L1354.4 138.24 L1354.4 118.854 Q1354.4 114.253 1352.61 111.967 Q1350.82 109.681 1347.23 109.681 Q1342.92 109.681 1340.43 112.43 Q1337.94 115.179 1337.94 119.924 L1337.94 138.24 L1332.59 138.24 L1332.59 93.2171 L1337.94 93.2171 L1337.94 110.867 Q1339.85 107.945 1342.42 106.498 Q1345.03 105.052 1348.41 105.052 Q1354 105.052 1356.86 108.524 Q1359.73 111.967 1359.73 118.68 Z" fill="#000000" fill-rule="nonzero" fill-opacity="1" /><path clip-path="url(#clip090)" d="M1398.07 120.705 L1398.07 123.31 L1373.59 123.31 Q1373.94 128.807 1376.89 131.701 Q1379.87 134.565 1385.16 134.565 Q1388.23 134.565 1391.09 133.813 Q1393.99 133.061 1396.82 131.556 L1396.82 136.591 Q1393.96 137.806 1390.95 138.443 Q1387.94 139.079 1384.84 139.079 Q1377.09 139.079 1372.55 134.565 Q1368.03 130.051 1368.03 122.355 Q1368.03 114.398 1372.31 109.739 Q1376.63 105.052 1383.92 105.052 Q1390.46 105.052 1394.25 109.276 Q1398.07 113.472 1398.07 120.705 M1392.74 119.143 Q1392.68 114.774 1390.28 112.17 Q1387.91 109.565 1383.98 109.565 Q1379.52 109.565 1376.83 112.083 Q1374.17 114.6 1373.76 119.172 L1392.74 119.143 Z" fill="#000000" fill-rule="nonzero" fill-opacity="1" /><path clip-path="url(#clip090)" d="M1402.99 105.833 L1408.63 105.833 L1418.76 133.032 L1428.88 105.833 L1434.52 105.833 L1422.37 138.24 L1415.14 138.24 L1402.99 105.833 Z" fill="#000000" fill-rule="nonzero" fill-opacity="1" /><path clip-path="url(#clip090)" d="M759.268 161.258 L759.268 166.958 Q755.941 165.367 752.989 164.585 Q750.038 163.804 747.289 163.804 Q742.515 163.804 739.911 165.656 Q737.335 167.508 737.335 170.922 Q737.335 173.787 739.043 175.262 Q740.779 176.709 745.582 177.606 L749.112 178.329 Q755.651 179.574 758.747 182.728 Q761.872 185.853 761.872 191.119 Q761.872 197.398 757.648 200.638 Q753.452 203.879 745.322 203.879 Q742.254 203.879 738.782 203.185 Q735.339 202.49 731.635 201.13 L731.635 195.112 Q735.194 197.108 738.609 198.121 Q742.023 199.134 745.322 199.134 Q750.327 199.134 753.047 197.166 Q755.767 195.199 755.767 191.553 Q755.767 188.37 753.799 186.576 Q751.861 184.782 747.405 183.885 L743.846 183.191 Q737.307 181.888 734.384 179.111 Q731.462 176.333 731.462 171.385 Q731.462 165.656 735.484 162.357 Q739.535 159.059 746.624 159.059 Q749.662 159.059 752.816 159.609 Q755.97 160.158 759.268 161.258 Z" fill="#000000" fill-rule="nonzero" fill-opacity="1" /><path clip-path="url(#clip090)" d="M784.239 206.049 Q781.982 211.836 779.841 213.601 Q777.7 215.366 774.112 215.366 L769.858 215.366 L769.858 210.91 L772.983 210.91 Q775.182 210.91 776.398 209.869 Q777.613 208.827 779.089 204.95 L780.044 202.519 L766.936 170.633 L772.578 170.633 L782.706 195.98 L792.833 170.633 L798.475 170.633 L784.239 206.049 Z" fill="#000000" fill-rule="nonzero" fill-opacity="1" /><path clip-path="url(#clip090)" d="M831.056 176.854 Q833.053 173.266 835.83 171.559 Q838.608 169.852 842.37 169.852 Q847.433 169.852 850.182 173.411 Q852.931 176.941 852.931 183.48 L852.931 203.04 L847.578 203.04 L847.578 183.654 Q847.578 178.995 845.929 176.738 Q844.279 174.481 840.894 174.481 Q836.756 174.481 834.355 177.23 Q831.953 179.979 831.953 184.724 L831.953 203.04 L826.6 203.04 L826.6 183.654 Q826.6 178.966 824.951 176.738 Q823.301 174.481 819.858 174.481 Q815.778 174.481 813.377 177.259 Q810.975 180.008 810.975 184.724 L810.975 203.04 L805.622 203.04 L805.622 170.633 L810.975 170.633 L810.975 175.667 Q812.798 172.687 815.344 171.269 Q817.891 169.852 821.392 169.852 Q824.922 169.852 827.381 171.645 Q829.87 173.439 831.056 176.854 Z" fill="#000000" fill-rule="nonzero" fill-opacity="1" /><path clip-path="url(#clip090)" d="M886.814 186.865 Q886.814 180.992 884.383 177.664 Q881.982 174.308 877.757 174.308 Q873.533 174.308 871.102 177.664 Q868.7 180.992 868.7 186.865 Q868.7 192.739 871.102 196.096 Q873.533 199.423 877.757 199.423 Q881.982 199.423 884.383 196.096 Q886.814 192.739 886.814 186.865 M868.7 175.552 Q870.379 172.658 872.925 171.269 Q875.5 169.852 879.059 169.852 Q884.962 169.852 888.637 174.539 Q892.34 179.226 892.34 186.865 Q892.34 194.504 888.637 199.192 Q884.962 203.879 879.059 203.879 Q875.5 203.879 872.925 202.49 Q870.379 201.072 868.7 198.179 L868.7 203.04 L863.347 203.04 L863.347 158.017 L868.7 158.017 L868.7 175.552 Z" fill="#000000" fill-rule="nonzero" fill-opacity="1" /><path clip-path="url(#clip090)" d="M913.723 174.365 Q909.441 174.365 906.953 177.722 Q904.464 181.049 904.464 186.865 Q904.464 192.681 906.924 196.038 Q909.412 199.365 913.723 199.365 Q917.977 199.365 920.465 196.009 Q922.954 192.652 922.954 186.865 Q922.954 181.107 920.465 177.751 Q917.977 174.365 913.723 174.365 M913.723 169.852 Q920.668 169.852 924.632 174.365 Q928.596 178.879 928.596 186.865 Q928.596 194.822 924.632 199.365 Q920.668 203.879 913.723 203.879 Q906.75 203.879 902.786 199.365 Q898.851 194.822 898.851 186.865 Q898.851 178.879 902.786 174.365 Q906.75 169.852 913.723 169.852 Z" fill="#000000" fill-rule="nonzero" fill-opacity="1" /><path clip-path="url(#clip090)" d="M937.421 158.017 L942.745 158.017 L942.745 203.04 L937.421 203.04 L937.421 158.017 Z" fill="#000000" fill-rule="nonzero" fill-opacity="1" /><path clip-path="url(#clip090)" d="M953.885 170.633 L959.209 170.633 L959.209 203.04 L953.885 203.04 L953.885 170.633 M953.885 158.017 L959.209 158.017 L959.209 164.759 L953.885 164.759 L953.885 158.017 Z" fill="#000000" fill-rule="nonzero" fill-opacity="1" /><path clip-path="url(#clip090)" d="M993.671 171.877 L993.671 176.854 Q991.414 175.61 989.128 175.002 Q986.871 174.365 984.556 174.365 Q979.377 174.365 976.512 177.664 Q973.648 180.934 973.648 186.865 Q973.648 192.797 976.512 196.096 Q979.377 199.365 984.556 199.365 Q986.871 199.365 989.128 198.758 Q991.414 198.121 993.671 196.877 L993.671 201.796 Q991.443 202.837 989.041 203.358 Q986.669 203.879 983.978 203.879 Q976.657 203.879 972.346 199.278 Q968.034 194.678 968.034 186.865 Q968.034 178.937 972.375 174.394 Q976.744 169.852 984.325 169.852 Q986.784 169.852 989.128 170.372 Q991.472 170.864 993.671 171.877 Z" fill="#000000" fill-rule="nonzero" fill-opacity="1" /><path clip-path="url(#clip090)" d="M1045.03 186.865 Q1045.03 180.992 1042.6 177.664 Q1040.2 174.308 1035.97 174.308 Q1031.75 174.308 1029.32 177.664 Q1026.92 180.992 1026.92 186.865 Q1026.92 192.739 1029.32 196.096 Q1031.75 199.423 1035.97 199.423 Q1040.2 199.423 1042.6 196.096 Q1045.03 192.739 1045.03 186.865 M1026.92 175.552 Q1028.6 172.658 1031.14 171.269 Q1033.72 169.852 1037.28 169.852 Q1043.18 169.852 1046.85 174.539 Q1050.56 179.226 1050.56 186.865 Q1050.56 194.504 1046.85 199.192 Q1043.18 203.879 1037.28 203.879 Q1033.72 203.879 1031.14 202.49 Q1028.6 201.072 1026.92 198.179 L1026.92 203.04 L1021.56 203.04 L1021.56 158.017 L1026.92 158.017 L1026.92 175.552 Z" fill="#000000" fill-rule="nonzero" fill-opacity="1" /><path clip-path="url(#clip090)" d="M1087.1 185.505 L1087.1 188.11 L1062.62 188.11 Q1062.97 193.607 1065.92 196.501 Q1068.9 199.365 1074.2 199.365 Q1077.26 199.365 1080.13 198.613 Q1083.02 197.861 1085.86 196.356 L1085.86 201.391 Q1082.99 202.606 1079.98 203.243 Q1076.97 203.879 1073.88 203.879 Q1066.12 203.879 1061.58 199.365 Q1057.07 194.851 1057.07 187.155 Q1057.07 179.198 1061.35 174.539 Q1065.66 169.852 1072.95 169.852 Q1079.49 169.852 1083.28 174.076 Q1087.1 178.272 1087.1 185.505 M1081.78 183.943 Q1081.72 179.574 1079.32 176.97 Q1076.95 174.365 1073.01 174.365 Q1068.55 174.365 1065.86 176.883 Q1063.2 179.4 1062.8 183.972 L1081.78 183.943 Z" fill="#000000" fill-rule="nonzero" fill-opacity="1" /><path clip-path="url(#clip090)" d="M1122.78 183.48 L1122.78 203.04 L1117.45 203.04 L1117.45 183.654 Q1117.45 179.053 1115.66 176.767 Q1113.87 174.481 1110.28 174.481 Q1105.97 174.481 1103.48 177.23 Q1100.99 179.979 1100.99 184.724 L1100.99 203.04 L1095.64 203.04 L1095.64 170.633 L1100.99 170.633 L1100.99 175.667 Q1102.9 172.745 1105.48 171.298 Q1108.08 169.852 1111.47 169.852 Q1117.05 169.852 1119.91 173.324 Q1122.78 176.767 1122.78 183.48 Z" fill="#000000" fill-rule="nonzero" fill-opacity="1" /><path clip-path="url(#clip090)" d="M1156.72 171.877 L1156.72 176.854 Q1154.46 175.61 1152.18 175.002 Q1149.92 174.365 1147.61 174.365 Q1142.43 174.365 1139.56 177.664 Q1136.7 180.934 1136.7 186.865 Q1136.7 192.797 1139.56 196.096 Q1142.43 199.365 1147.61 199.365 Q1149.92 199.365 1152.18 198.758 Q1154.46 198.121 1156.72 196.877 L1156.72 201.796 Q1154.49 202.837 1152.09 203.358 Q1149.72 203.879 1147.03 203.879 Q1139.71 203.879 1135.39 199.278 Q1131.08 194.678 1131.08 186.865 Q1131.08 178.937 1135.42 174.394 Q1139.79 169.852 1147.37 169.852 Q1149.83 169.852 1152.18 170.372 Q1154.52 170.864 1156.72 171.877 Z" fill="#000000" fill-rule="nonzero" fill-opacity="1" /><path clip-path="url(#clip090)" d="M1192.92 183.48 L1192.92 203.04 L1187.59 203.04 L1187.59 183.654 Q1187.59 179.053 1185.8 176.767 Q1184.01 174.481 1180.42 174.481 Q1176.11 174.481 1173.62 177.23 Q1171.13 179.979 1171.13 184.724 L1171.13 203.04 L1165.78 203.04 L1165.78 158.017 L1171.13 158.017 L1171.13 175.667 Q1173.04 172.745 1175.61 171.298 Q1178.22 169.852 1181.6 169.852 Q1187.19 169.852 1190.05 173.324 Q1192.92 176.767 1192.92 183.48 Z" fill="#000000" fill-rule="nonzero" fill-opacity="1" /><path clip-path="url(#clip090)" d="M1228.77 176.854 Q1230.76 173.266 1233.54 171.559 Q1236.32 169.852 1240.08 169.852 Q1245.15 169.852 1247.89 173.411 Q1250.64 176.941 1250.64 183.48 L1250.64 203.04 L1245.29 203.04 L1245.29 183.654 Q1245.29 178.995 1243.64 176.738 Q1241.99 174.481 1238.61 174.481 Q1234.47 174.481 1232.07 177.23 Q1229.66 179.979 1229.66 184.724 L1229.66 203.04 L1224.31 203.04 L1224.31 183.654 Q1224.31 178.966 1222.66 176.738 Q1221.01 174.481 1217.57 174.481 Q1213.49 174.481 1211.09 177.259 Q1208.69 180.008 1208.69 184.724 L1208.69 203.04 L1203.33 203.04 L1203.33 170.633 L1208.69 170.633 L1208.69 175.667 Q1210.51 172.687 1213.06 171.269 Q1215.6 169.852 1219.1 169.852 Q1222.63 169.852 1225.09 171.645 Q1227.58 173.439 1228.77 176.854 Z" fill="#000000" fill-rule="nonzero" fill-opacity="1" /><path clip-path="url(#clip090)" d="M1275.99 186.75 Q1269.54 186.75 1267.05 188.225 Q1264.56 189.701 1264.56 193.26 Q1264.56 196.096 1266.41 197.774 Q1268.29 199.423 1271.51 199.423 Q1275.93 199.423 1278.59 196.298 Q1281.29 193.144 1281.29 187.936 L1281.29 186.75 L1275.99 186.75 M1286.61 184.551 L1286.61 203.04 L1281.29 203.04 L1281.29 198.121 Q1279.46 201.072 1276.74 202.49 Q1274.02 203.879 1270.09 203.879 Q1265.11 203.879 1262.16 201.101 Q1259.24 198.295 1259.24 193.607 Q1259.24 188.138 1262.88 185.361 Q1266.56 182.583 1273.82 182.583 L1281.29 182.583 L1281.29 182.062 Q1281.29 178.387 1278.85 176.391 Q1276.45 174.365 1272.08 174.365 Q1269.31 174.365 1266.67 175.031 Q1264.04 175.696 1261.61 177.027 L1261.61 172.108 Q1264.53 170.98 1267.28 170.43 Q1270.03 169.852 1272.63 169.852 Q1279.66 169.852 1283.14 173.497 Q1286.61 177.143 1286.61 184.551 Z" fill="#000000" fill-rule="nonzero" fill-opacity="1" /><path clip-path="url(#clip090)" d="M1316.35 175.61 Q1315.46 175.089 1314.39 174.857 Q1313.35 174.597 1312.07 174.597 Q1307.56 174.597 1305.13 177.548 Q1302.73 180.471 1302.73 185.968 L1302.73 203.04 L1297.37 203.04 L1297.37 170.633 L1302.73 170.633 L1302.73 175.667 Q1304.4 172.716 1307.1 171.298 Q1309.79 169.852 1313.63 169.852 Q1314.18 169.852 1314.85 169.938 Q1315.52 169.996 1316.33 170.141 L1316.35 175.61 Z" fill="#000000" fill-rule="nonzero" fill-opacity="1" /><path clip-path="url(#clip090)" d="M1321.74 158.017 L1327.09 158.017 L1327.09 184.608 L1342.97 170.633 L1349.77 170.633 L1332.59 185.795 L1350.5 203.04 L1343.55 203.04 L1327.09 187.213 L1327.09 203.04 L1321.74 203.04 L1321.74 158.017 Z" fill="#000000" fill-rule="nonzero" fill-opacity="1" /><path clip-path="url(#clip090)" d="M1357.62 195.691 L1363.72 195.691 L1363.72 200.667 L1358.98 209.927 L1355.24 209.927 L1357.62 200.667 L1357.62 195.691 Z" fill="#000000" fill-rule="nonzero" fill-opacity="1" /><path clip-path="url(#clip090)" d="M1414.59 171.588 L1414.59 176.622 Q1412.33 175.465 1409.9 174.886 Q1407.47 174.308 1404.87 174.308 Q1400.9 174.308 1398.91 175.523 Q1396.94 176.738 1396.94 179.169 Q1396.94 181.02 1398.36 182.091 Q1399.77 183.133 1404.06 184.088 L1405.88 184.493 Q1411.55 185.708 1413.92 187.936 Q1416.32 190.135 1416.32 194.099 Q1416.32 198.613 1412.74 201.246 Q1409.18 203.879 1402.93 203.879 Q1400.32 203.879 1397.49 203.358 Q1394.68 202.866 1391.56 201.854 L1391.56 196.356 Q1394.51 197.89 1397.37 198.671 Q1400.24 199.423 1403.04 199.423 Q1406.81 199.423 1408.83 198.15 Q1410.86 196.848 1410.86 194.504 Q1410.86 192.334 1409.38 191.177 Q1407.93 190.019 1402.99 188.949 L1401.13 188.515 Q1396.19 187.473 1393.99 185.332 Q1391.79 183.162 1391.79 179.4 Q1391.79 174.828 1395.03 172.34 Q1398.27 169.852 1404.23 169.852 Q1407.18 169.852 1409.79 170.286 Q1412.39 170.72 1414.59 171.588 Z" fill="#000000" fill-rule="nonzero" fill-opacity="1" /><path clip-path="url(#clip090)" d="M1424.8 170.633 L1430.13 170.633 L1430.13 203.04 L1424.8 203.04 L1424.8 170.633 M1424.8 158.017 L1430.13 158.017 L1430.13 164.759 L1424.8 164.759 L1424.8 158.017 Z" fill="#000000" fill-rule="nonzero" fill-opacity="1" /><path clip-path="url(#clip090)" d="M1466.5 176.854 Q1468.49 173.266 1471.27 171.559 Q1474.05 169.852 1477.81 169.852 Q1482.88 169.852 1485.62 173.411 Q1488.37 176.941 1488.37 183.48 L1488.37 203.04 L1483.02 203.04 L1483.02 183.654 Q1483.02 178.995 1481.37 176.738 Q1479.72 174.481 1476.34 174.481 Q1472.2 174.481 1469.8 177.23 Q1467.4 179.979 1467.4 184.724 L1467.4 203.04 L1462.04 203.04 L1462.04 183.654 Q1462.04 178.966 1460.39 176.738 Q1458.74 174.481 1455.3 174.481 Q1451.22 174.481 1448.82 177.259 Q1446.42 180.008 1446.42 184.724 L1446.42 203.04 L1441.06 203.04 L1441.06 170.633 L1446.42 170.633 L1446.42 175.667 Q1448.24 172.687 1450.79 171.269 Q1453.33 169.852 1456.83 169.852 Q1460.36 169.852 1462.82 171.645 Q1465.31 173.439 1466.5 176.854 Z" fill="#000000" fill-rule="nonzero" fill-opacity="1" /><path clip-path="url(#clip090)" d="M1504.14 198.179 L1504.14 215.366 L1498.79 215.366 L1498.79 170.633 L1504.14 170.633 L1504.14 175.552 Q1505.82 172.658 1508.37 171.269 Q1510.94 169.852 1514.5 169.852 Q1520.4 169.852 1524.08 174.539 Q1527.78 179.226 1527.78 186.865 Q1527.78 194.504 1524.08 199.192 Q1520.4 203.879 1514.5 203.879 Q1510.94 203.879 1508.37 202.49 Q1505.82 201.072 1504.14 198.179 M1522.26 186.865 Q1522.26 180.992 1519.83 177.664 Q1517.42 174.308 1513.2 174.308 Q1508.97 174.308 1506.54 177.664 Q1504.14 180.992 1504.14 186.865 Q1504.14 192.739 1506.54 196.096 Q1508.97 199.423 1513.2 199.423 Q1517.42 199.423 1519.83 196.096 Q1522.26 192.739 1522.26 186.865 Z" fill="#000000" fill-rule="nonzero" fill-opacity="1" /><path clip-path="url(#clip090)" d="M1536.61 158.017 L1541.93 158.017 L1541.93 203.04 L1536.61 203.04 L1536.61 158.017 Z" fill="#000000" fill-rule="nonzero" fill-opacity="1" /><path clip-path="url(#clip090)" d="M1553.07 170.633 L1558.4 170.633 L1558.4 203.04 L1553.07 203.04 L1553.07 170.633 M1553.07 158.017 L1558.4 158.017 L1558.4 164.759 L1553.07 164.759 L1553.07 158.017 Z" fill="#000000" fill-rule="nonzero" fill-opacity="1" /><path clip-path="url(#clip090)" d="M1585.94 158.017 L1585.94 162.444 L1580.85 162.444 Q1577.98 162.444 1576.86 163.602 Q1575.76 164.759 1575.76 167.768 L1575.76 170.633 L1584.52 170.633 L1584.52 174.77 L1575.76 174.77 L1575.76 203.04 L1570.4 203.04 L1570.4 174.77 L1565.31 174.77 L1565.31 170.633 L1570.4 170.633 L1570.4 168.376 Q1570.4 162.965 1572.92 160.506 Q1575.44 158.017 1580.91 158.017 L1585.94 158.017 Z" fill="#000000" fill-rule="nonzero" fill-opacity="1" /><path clip-path="url(#clip090)" d="M1602.84 206.049 Q1600.58 211.836 1598.44 213.601 Q1596.3 215.366 1592.71 215.366 L1588.46 215.366 L1588.46 210.91 L1591.58 210.91 Q1593.78 210.91 1595 209.869 Q1596.21 208.827 1597.69 204.95 L1598.64 202.519 L1585.54 170.633 L1591.18 170.633 L1601.31 195.98 L1611.43 170.633 L1617.08 170.633 L1602.84 206.049 Z" fill="#000000" fill-rule="nonzero" fill-opacity="1" /><path clip-path="url(#clip090)" d="M1643.96 176.13 L1681.05 176.13 L1681.05 180.992 L1643.96 180.992 L1643.96 176.13 M1643.96 187.936 L1681.05 187.936 L1681.05 192.855 L1643.96 192.855 L1643.96 187.936 Z" fill="#000000" fill-rule="nonzero" fill-opacity="1" /><path clip-path="url(#clip090)" d="M1728.16 158.017 L1728.16 162.444 L1723.07 162.444 Q1720.2 162.444 1719.07 163.602 Q1717.97 164.759 1717.97 167.768 L1717.97 170.633 L1726.74 170.633 L1726.74 174.77 L1717.97 174.77 L1717.97 203.04 L1712.62 203.04 L1712.62 174.77 L1707.53 174.77 L1707.53 170.633 L1712.62 170.633 L1712.62 168.376 Q1712.62 162.965 1715.14 160.506 Q1717.65 158.017 1723.12 158.017 L1728.16 158.017 Z" fill="#000000" fill-rule="nonzero" fill-opacity="1" /><path clip-path="url(#clip090)" d="M1747.34 186.75 Q1740.89 186.75 1738.4 188.225 Q1735.91 189.701 1735.91 193.26 Q1735.91 196.096 1737.76 197.774 Q1739.64 199.423 1742.86 199.423 Q1747.28 199.423 1749.95 196.298 Q1752.64 193.144 1752.64 187.936 L1752.64 186.75 L1747.34 186.75 M1757.96 184.551 L1757.96 203.04 L1752.64 203.04 L1752.64 198.121 Q1750.81 201.072 1748.09 202.49 Q1745.37 203.879 1741.44 203.879 Q1736.46 203.879 1733.51 201.101 Q1730.59 198.295 1730.59 193.607 Q1730.59 188.138 1734.23 185.361 Q1737.91 182.583 1745.17 182.583 L1752.64 182.583 L1752.64 182.062 Q1752.64 178.387 1750.21 176.391 Q1747.8 174.365 1743.44 174.365 Q1740.66 174.365 1738.02 175.031 Q1735.39 175.696 1732.96 177.027 L1732.96 172.108 Q1735.88 170.98 1738.63 170.43 Q1741.38 169.852 1743.99 169.852 Q1751.02 169.852 1754.49 173.497 Q1757.96 177.143 1757.96 184.551 Z" fill="#000000" fill-rule="nonzero" fill-opacity="1" /><path clip-path="url(#clip090)" d="M1768.93 158.017 L1774.25 158.017 L1774.25 203.04 L1768.93 203.04 L1768.93 158.017 Z" fill="#000000" fill-rule="nonzero" fill-opacity="1" /><path clip-path="url(#clip090)" d="M1806.05 171.588 L1806.05 176.622 Q1803.79 175.465 1801.36 174.886 Q1798.93 174.308 1796.33 174.308 Q1792.36 174.308 1790.37 175.523 Q1788.4 176.738 1788.4 179.169 Q1788.4 181.02 1789.82 182.091 Q1791.24 183.133 1795.52 184.088 L1797.34 184.493 Q1803.01 185.708 1805.39 187.936 Q1807.79 190.135 1807.79 194.099 Q1807.79 198.613 1804.2 201.246 Q1800.64 203.879 1794.39 203.879 Q1791.79 203.879 1788.95 203.358 Q1786.14 202.866 1783.02 201.854 L1783.02 196.356 Q1785.97 197.89 1788.83 198.671 Q1791.7 199.423 1794.51 199.423 Q1798.27 199.423 1800.29 198.15 Q1802.32 196.848 1802.32 194.504 Q1802.32 192.334 1800.84 191.177 Q1799.4 190.019 1794.45 188.949 L1792.6 188.515 Q1787.65 187.473 1785.45 185.332 Q1783.25 183.162 1783.25 179.4 Q1783.25 174.828 1786.49 172.34 Q1789.73 169.852 1795.69 169.852 Q1798.64 169.852 1801.25 170.286 Q1803.85 170.72 1806.05 171.588 Z" fill="#000000" fill-rule="nonzero" fill-opacity="1" /><path clip-path="url(#clip090)" d="M1843.98 185.505 L1843.98 188.11 L1819.51 188.11 Q1819.85 193.607 1822.8 196.501 Q1825.78 199.365 1831.08 199.365 Q1834.15 199.365 1837.01 198.613 Q1839.9 197.861 1842.74 196.356 L1842.74 201.391 Q1839.88 202.606 1836.87 203.243 Q1833.86 203.879 1830.76 203.879 Q1823.01 203.879 1818.46 199.365 Q1813.95 194.851 1813.95 187.155 Q1813.95 179.198 1818.23 174.539 Q1822.54 169.852 1829.84 169.852 Q1836.37 169.852 1840.17 174.076 Q1843.98 178.272 1843.98 185.505 M1838.66 183.943 Q1838.6 179.574 1836.2 176.97 Q1833.83 174.365 1829.89 174.365 Q1825.44 174.365 1822.75 176.883 Q1820.08 179.4 1819.68 183.972 L1838.66 183.943 Z" fill="#000000" fill-rule="nonzero" fill-opacity="1" /><polyline clip-path="url(#clip092)" style="stroke:#009af9; stroke-linecap:round; stroke-linejoin:round; stroke-width:4; stroke-opacity:1; fill:none" points="282.975,1388.35 363.355,1360.68 443.735,1323.61 524.115,1281.89 604.495,1241.87 684.874,1202.62 765.254,1164.46 845.634,1117.48 926.014,1075.42 1006.39,1029.99 1086.77,985.002 1167.15,950.704 1247.53,905.196 1327.91,860.196 1408.29,811.14 1488.67,763.161 1569.05,714.56 1649.43,664.833 1729.81,617.741 1810.19,567.427 1890.57,509.712 1970.95,461.673 2051.33,382.344 2131.71,327.13 2212.09,270.018 2292.47,227.42 "/>
<circle clip-path="url(#clip092)" cx="282.975" cy="1388.35" r="14.4" fill="#009af9" fill-rule="evenodd" fill-opacity="1" stroke="#000000" stroke-opacity="1" stroke-width="3.2"/>
<circle clip-path="url(#clip092)" cx="363.355" cy="1360.68" r="14.4" fill="#009af9" fill-rule="evenodd" fill-opacity="1" stroke="#000000" stroke-opacity="1" stroke-width="3.2"/>
<circle clip-path="url(#clip092)" cx="443.735" cy="1323.61" r="14.4" fill="#009af9" fill-rule="evenodd" fill-opacity="1" stroke="#000000" stroke-opacity="1" stroke-width="3.2"/>
<circle clip-path="url(#clip092)" cx="524.115" cy="1281.89" r="14.4" fill="#009af9" fill-rule="evenodd" fill-opacity="1" stroke="#000000" stroke-opacity="1" stroke-width="3.2"/>
<circle clip-path="url(#clip092)" cx="604.495" cy="1241.87" r="14.4" fill="#009af9" fill-rule="evenodd" fill-opacity="1" stroke="#000000" stroke-opacity="1" stroke-width="3.2"/>
<circle clip-path="url(#clip092)" cx="684.874" cy="1202.62" r="14.4" fill="#009af9" fill-rule="evenodd" fill-opacity="1" stroke="#000000" stroke-opacity="1" stroke-width="3.2"/>
<circle clip-path="url(#clip092)" cx="765.254" cy="1164.46" r="14.4" fill="#009af9" fill-rule="evenodd" fill-opacity="1" stroke="#000000" stroke-opacity="1" stroke-width="3.2"/>
<circle clip-path="url(#clip092)" cx="845.634" cy="1117.48" r="14.4" fill="#009af9" fill-rule="evenodd" fill-opacity="1" stroke="#000000" stroke-opacity="1" stroke-width="3.2"/>
<circle clip-path="url(#clip092)" cx="926.014" cy="1075.42" r="14.4" fill="#009af9" fill-rule="evenodd" fill-opacity="1" stroke="#000000" stroke-opacity="1" stroke-width="3.2"/>
<circle clip-path="url(#clip092)" cx="1006.39" cy="1029.99" r="14.4" fill="#009af9" fill-rule="evenodd" fill-opacity="1" stroke="#000000" stroke-opacity="1" stroke-width="3.2"/>
<circle clip-path="url(#clip092)" cx="1086.77" cy="985.002" r="14.4" fill="#009af9" fill-rule="evenodd" fill-opacity="1" stroke="#000000" stroke-opacity="1" stroke-width="3.2"/>
<circle clip-path="url(#clip092)" cx="1167.15" cy="950.704" r="14.4" fill="#009af9" fill-rule="evenodd" fill-opacity="1" stroke="#000000" stroke-opacity="1" stroke-width="3.2"/>
<circle clip-path="url(#clip092)" cx="1247.53" cy="905.196" r="14.4" fill="#009af9" fill-rule="evenodd" fill-opacity="1" stroke="#000000" stroke-opacity="1" stroke-width="3.2"/>
<circle clip-path="url(#clip092)" cx="1327.91" cy="860.196" r="14.4" fill="#009af9" fill-rule="evenodd" fill-opacity="1" stroke="#000000" stroke-opacity="1" stroke-width="3.2"/>
<circle clip-path="url(#clip092)" cx="1408.29" cy="811.14" r="14.4" fill="#009af9" fill-rule="evenodd" fill-opacity="1" stroke="#000000" stroke-opacity="1" stroke-width="3.2"/>
<circle clip-path="url(#clip092)" cx="1488.67" cy="763.161" r="14.4" fill="#009af9" fill-rule="evenodd" fill-opacity="1" stroke="#000000" stroke-opacity="1" stroke-width="3.2"/>
<circle clip-path="url(#clip092)" cx="1569.05" cy="714.56" r="14.4" fill="#009af9" fill-rule="evenodd" fill-opacity="1" stroke="#000000" stroke-opacity="1" stroke-width="3.2"/>
<circle clip-path="url(#clip092)" cx="1649.43" cy="664.833" r="14.4" fill="#009af9" fill-rule="evenodd" fill-opacity="1" stroke="#000000" stroke-opacity="1" stroke-width="3.2"/>
<circle clip-path="url(#clip092)" cx="1729.81" cy="617.741" r="14.4" fill="#009af9" fill-rule="evenodd" fill-opacity="1" stroke="#000000" stroke-opacity="1" stroke-width="3.2"/>
<circle clip-path="url(#clip092)" cx="1810.19" cy="567.427" r="14.4" fill="#009af9" fill-rule="evenodd" fill-opacity="1" stroke="#000000" stroke-opacity="1" stroke-width="3.2"/>
<circle clip-path="url(#clip092)" cx="1890.57" cy="509.712" r="14.4" fill="#009af9" fill-rule="evenodd" fill-opacity="1" stroke="#000000" stroke-opacity="1" stroke-width="3.2"/>
<circle clip-path="url(#clip092)" cx="1970.95" cy="461.673" r="14.4" fill="#009af9" fill-rule="evenodd" fill-opacity="1" stroke="#000000" stroke-opacity="1" stroke-width="3.2"/>
<circle clip-path="url(#clip092)" cx="2051.33" cy="382.344" r="14.4" fill="#009af9" fill-rule="evenodd" fill-opacity="1" stroke="#000000" stroke-opacity="1" stroke-width="3.2"/>
<circle clip-path="url(#clip092)" cx="2131.71" cy="327.13" r="14.4" fill="#009af9" fill-rule="evenodd" fill-opacity="1" stroke="#000000" stroke-opacity="1" stroke-width="3.2"/>
<circle clip-path="url(#clip092)" cx="2212.09" cy="270.018" r="14.4" fill="#009af9" fill-rule="evenodd" fill-opacity="1" stroke="#000000" stroke-opacity="1" stroke-width="3.2"/>
<circle clip-path="url(#clip092)" cx="2292.47" cy="227.42" r="14.4" fill="#009af9" fill-rule="evenodd" fill-opacity="1" stroke="#000000" stroke-opacity="1" stroke-width="3.2"/>
</svg>
