<?xml version="1.0" encoding="utf-8"?>
<svg xmlns="http://www.w3.org/2000/svg" xmlns:xlink="http://www.w3.org/1999/xlink" width="600" height="400" viewBox="0 0 2400 1600">
<defs>
  <clipPath id="clip360">
    <rect x="0" y="0" width="2400" height="1600"/>
  </clipPath>
</defs>
<path clip-path="url(#clip360)" d="M0 1600 L2400 1600 L2400 0 L0 0  Z" fill="#ffffff" fill-rule="evenodd" fill-opacity="1"/>
<defs>
  <clipPath id="clip361">
    <rect x="480" y="0" width="1681" height="1600"/>
  </clipPath>
</defs>
<path clip-path="url(#clip360)" d="M222.69 1423.18 L2352.76 1423.18 L2352.76 192.592 L222.69 192.592  Z" fill="#ffffff" fill-rule="evenodd" fill-opacity="1"/>
<defs>
  <clipPath id="clip362">
    <rect x="222" y="192" width="2131" height="1232"/>
  </clipPath>
</defs>
<polyline clip-path="url(#clip362)" style="stroke:#000000; stroke-linecap:round; stroke-linejoin:round; stroke-width:2; stroke-opacity:0.1; fill:none" points="282.975,1423.18 282.975,192.592 "/>
<polyline clip-path="url(#clip362)" style="stroke:#000000; stroke-linecap:round; stroke-linejoin:round; stroke-width:2; stroke-opacity:0.1; fill:none" points="761.427,1423.18 761.427,192.592 "/>
<polyline clip-path="url(#clip362)" style="stroke:#000000; stroke-linecap:round; stroke-linejoin:round; stroke-width:2; stroke-opacity:0.1; fill:none" points="1239.88,1423.18 1239.88,192.592 "/>
<polyline clip-path="url(#clip362)" style="stroke:#000000; stroke-linecap:round; stroke-linejoin:round; stroke-width:2; stroke-opacity:0.1; fill:none" points="1718.33,1423.18 1718.33,192.592 "/>
<polyline clip-path="url(#clip362)" style="stroke:#000000; stroke-linecap:round; stroke-linejoin:round; stroke-width:2; stroke-opacity:0.1; fill:none" points="2196.78,1423.18 2196.78,192.592 "/>
<polyline clip-path="url(#clip360)" style="stroke:#000000; stroke-linecap:round; stroke-linejoin:round; stroke-width:4; stroke-opacity:1; fill:none" points="222.69,1423.18 2352.76,1423.18 "/>
<polyline clip-path="url(#clip360)" style="stroke:#000000; stroke-linecap:round; stroke-linejoin:round; stroke-width:4; stroke-opacity:1; fill:none" points="282.975,1423.18 282.975,1404.28 "/>
<polyline clip-path="url(#clip360)" style="stroke:#000000; stroke-linecap:round; stroke-linejoin:round; stroke-width:4; stroke-opacity:1; fill:none" points="761.427,1423.18 761.427,1404.28 "/>
<polyline clip-path="url(#clip360)" style="stroke:#000000; stroke-linecap:round; stroke-linejoin:round; stroke-width:4; stroke-opacity:1; fill:none" points="1239.88,1423.18 1239.88,1404.28 "/>
<polyline clip-path="url(#clip360)" style="stroke:#000000; stroke-linecap:round; stroke-linejoin:round; stroke-width:4; stroke-opacity:1; fill:none" points="1718.33,1423.18 1718.33,1404.28 "/>
<polyline clip-path="url(#clip360)" style="stroke:#000000; stroke-linecap:round; stroke-linejoin:round; stroke-width:4; stroke-opacity:1; fill:none" points="2196.78,1423.18 2196.78,1404.28 "/>
<polyline clip-path="url(#clip360)" style="stroke:#000000; stroke-linecap:round; stroke-linejoin:round; stroke-width:4; stroke-opacity:1; fill:none" points="378.665,1423.18 378.665,1413.73 "/>
<polyline clip-path="url(#clip360)" style="stroke:#000000; stroke-linecap:round; stroke-linejoin:round; stroke-width:4; stroke-opacity:1; fill:none" points="474.356,1423.18 474.356,1413.73 "/>
<polyline clip-path="url(#clip360)" style="stroke:#000000; stroke-linecap:round; stroke-linejoin:round; stroke-width:4; stroke-opacity:1; fill:none" points="570.046,1423.18 570.046,1413.73 "/>
<polyline clip-path="url(#clip360)" style="stroke:#000000; stroke-linecap:round; stroke-linejoin:round; stroke-width:4; stroke-opacity:1; fill:none" points="665.736,1423.18 665.736,1413.73 "/>
<polyline clip-path="url(#clip360)" style="stroke:#000000; stroke-linecap:round; stroke-linejoin:round; stroke-width:4; stroke-opacity:1; fill:none" points="857.117,1423.18 857.117,1413.73 "/>
<polyline clip-path="url(#clip360)" style="stroke:#000000; stroke-linecap:round; stroke-linejoin:round; stroke-width:4; stroke-opacity:1; fill:none" points="952.807,1423.18 952.807,1413.73 "/>
<polyline clip-path="url(#clip360)" style="stroke:#000000; stroke-linecap:round; stroke-linejoin:round; stroke-width:4; stroke-opacity:1; fill:none" points="1048.5,1423.18 1048.5,1413.73 "/>
<polyline clip-path="url(#clip360)" style="stroke:#000000; stroke-linecap:round; stroke-linejoin:round; stroke-width:4; stroke-opacity:1; fill:none" points="1144.19,1423.18 1144.19,1413.73 "/>
<polyline clip-path="url(#clip360)" style="stroke:#000000; stroke-linecap:round; stroke-linejoin:round; stroke-width:4; stroke-opacity:1; fill:none" points="1335.57,1423.18 1335.57,1413.73 "/>
<polyline clip-path="url(#clip360)" style="stroke:#000000; stroke-linecap:round; stroke-linejoin:round; stroke-width:4; stroke-opacity:1; fill:none" points="1431.26,1423.18 1431.26,1413.73 "/>
<polyline clip-path="url(#clip360)" style="stroke:#000000; stroke-linecap:round; stroke-linejoin:round; stroke-width:4; stroke-opacity:1; fill:none" points="1526.95,1423.18 1526.95,1413.73 "/>
<polyline clip-path="url(#clip360)" style="stroke:#000000; stroke-linecap:round; stroke-linejoin:round; stroke-width:4; stroke-opacity:1; fill:none" points="1622.64,1423.18 1622.64,1413.73 "/>
<polyline clip-path="url(#clip360)" style="stroke:#000000; stroke-linecap:round; stroke-linejoin:round; stroke-width:4; stroke-opacity:1; fill:none" points="1814.02,1423.18 1814.02,1413.73 "/>
<polyline clip-path="url(#clip360)" style="stroke:#000000; stroke-linecap:round; stroke-linejoin:round; stroke-width:4; stroke-opacity:1; fill:none" points="1909.71,1423.18 1909.71,1413.73 "/>
<polyline clip-path="url(#clip360)" style="stroke:#000000; stroke-linecap:round; stroke-linejoin:round; stroke-width:4; stroke-opacity:1; fill:none" points="2005.4,1423.18 2005.4,1413.73 "/>
<polyline clip-path="url(#clip360)" style="stroke:#000000; stroke-linecap:round; stroke-linejoin:round; stroke-width:4; stroke-opacity:1; fill:none" points="2101.09,1423.18 2101.09,1413.73 "/>
<polyline clip-path="url(#clip360)" style="stroke:#000000; stroke-linecap:round; stroke-linejoin:round; stroke-width:4; stroke-opacity:1; fill:none" points="2292.47,1423.18 2292.47,1413.73 "/>
<path clip-path="url(#clip360)" d="M273.253 1451.02 L291.609 1451.02 L291.609 1454.96 L277.535 1454.96 L277.535 1463.43 Q278.554 1463.08 279.572 1462.92 Q280.591 1462.73 281.609 1462.73 Q287.396 1462.73 290.776 1465.9 Q294.156 1469.08 294.156 1474.49 Q294.156 1480.07 290.683 1483.17 Q287.211 1486.25 280.892 1486.25 Q278.716 1486.25 276.447 1485.88 Q274.202 1485.51 271.795 1484.77 L271.795 1480.07 Q273.878 1481.2 276.1 1481.76 Q278.322 1482.32 280.799 1482.32 Q284.804 1482.32 287.142 1480.21 Q289.48 1478.1 289.48 1474.49 Q289.48 1470.88 287.142 1468.77 Q284.804 1466.67 280.799 1466.67 Q278.924 1466.67 277.049 1467.08 Q275.197 1467.5 273.253 1468.38 L273.253 1451.02 Z" fill="#000000" fill-rule="nonzero" fill-opacity="1" /><path clip-path="url(#clip360)" d="M736.114 1481.64 L743.753 1481.64 L743.753 1455.28 L735.443 1456.95 L735.443 1452.69 L743.707 1451.02 L748.383 1451.02 L748.383 1481.64 L756.022 1481.64 L756.022 1485.58 L736.114 1485.58 L736.114 1481.64 Z" fill="#000000" fill-rule="nonzero" fill-opacity="1" /><path clip-path="url(#clip360)" d="M775.466 1454.1 Q771.855 1454.1 770.026 1457.66 Q768.221 1461.2 768.221 1468.33 Q768.221 1475.44 770.026 1479.01 Q771.855 1482.55 775.466 1482.55 Q779.1 1482.55 780.906 1479.01 Q782.734 1475.44 782.734 1468.33 Q782.734 1461.2 780.906 1457.66 Q779.1 1454.1 775.466 1454.1 M775.466 1450.39 Q781.276 1450.39 784.332 1455 Q787.41 1459.58 787.41 1468.33 Q787.41 1477.06 784.332 1481.67 Q781.276 1486.25 775.466 1486.25 Q769.656 1486.25 766.577 1481.67 Q763.521 1477.06 763.521 1468.33 Q763.521 1459.58 766.577 1455 Q769.656 1450.39 775.466 1450.39 Z" fill="#000000" fill-rule="nonzero" fill-opacity="1" /><path clip-path="url(#clip360)" d="M1215.06 1481.64 L1222.7 1481.64 L1222.7 1455.28 L1214.39 1456.95 L1214.39 1452.69 L1222.66 1451.02 L1227.33 1451.02 L1227.33 1481.64 L1234.97 1481.64 L1234.97 1485.58 L1215.06 1485.58 L1215.06 1481.64 Z" fill="#000000" fill-rule="nonzero" fill-opacity="1" /><path clip-path="url(#clip360)" d="M1244.46 1451.02 L1262.82 1451.02 L1262.82 1454.96 L1248.74 1454.96 L1248.74 1463.43 Q1249.76 1463.08 1250.78 1462.92 Q1251.8 1462.73 1252.82 1462.73 Q1258.6 1462.73 1261.98 1465.9 Q1265.36 1469.08 1265.36 1474.49 Q1265.36 1480.07 1261.89 1483.17 Q1258.42 1486.25 1252.1 1486.25 Q1249.92 1486.25 1247.66 1485.88 Q1245.41 1485.51 1243 1484.77 L1243 1480.07 Q1245.09 1481.2 1247.31 1481.76 Q1249.53 1482.32 1252.01 1482.32 Q1256.01 1482.32 1258.35 1480.21 Q1260.69 1478.1 1260.69 1474.49 Q1260.69 1470.88 1258.35 1468.77 Q1256.01 1466.67 1252.01 1466.67 Q1250.13 1466.67 1248.26 1467.08 Q1246.41 1467.5 1244.46 1468.38 L1244.46 1451.02 Z" fill="#000000" fill-rule="nonzero" fill-opacity="1" /><path clip-path="url(#clip360)" d="M1697.1 1481.64 L1713.42 1481.64 L1713.42 1485.58 L1691.48 1485.58 L1691.48 1481.64 Q1694.14 1478.89 1698.72 1474.26 Q1703.33 1469.61 1704.51 1468.27 Q1706.76 1465.74 1707.63 1464.01 Q1708.54 1462.25 1708.54 1460.56 Q1708.54 1457.8 1706.59 1456.07 Q1704.67 1454.33 1701.57 1454.33 Q1699.37 1454.33 1696.92 1455.09 Q1694.49 1455.86 1691.71 1457.41 L1691.71 1452.69 Q1694.53 1451.55 1696.99 1450.97 Q1699.44 1450.39 1701.48 1450.39 Q1706.85 1450.39 1710.04 1453.08 Q1713.24 1455.77 1713.24 1460.26 Q1713.24 1462.39 1712.43 1464.31 Q1711.64 1466.2 1709.53 1468.8 Q1708.95 1469.47 1705.85 1472.69 Q1702.75 1475.88 1697.1 1481.64 Z" fill="#000000" fill-rule="nonzero" fill-opacity="1" /><path clip-path="url(#clip360)" d="M1733.24 1454.1 Q1729.63 1454.1 1727.8 1457.66 Q1725.99 1461.2 1725.99 1468.33 Q1725.99 1475.44 1727.8 1479.01 Q1729.63 1482.55 1733.24 1482.55 Q1736.87 1482.55 1738.68 1479.01 Q1740.51 1475.44 1740.51 1468.33 Q1740.51 1461.2 1738.68 1457.66 Q1736.87 1454.1 1733.24 1454.1 M1733.24 1450.39 Q1739.05 1450.39 1742.1 1455 Q1745.18 1459.58 1745.18 1468.33 Q1745.18 1477.06 1742.1 1481.67 Q1739.05 1486.25 1733.24 1486.25 Q1727.43 1486.25 1724.35 1481.67 Q1721.29 1477.06 1721.29 1468.33 Q1721.29 1459.58 1724.35 1455 Q1727.43 1450.39 1733.24 1450.39 Z" fill="#000000" fill-rule="nonzero" fill-opacity="1" /><path clip-path="url(#clip360)" d="M2176.05 1481.64 L2192.37 1481.64 L2192.37 1485.58 L2170.43 1485.58 L2170.43 1481.64 Q2173.09 1478.89 2177.67 1474.26 Q2182.28 1469.61 2183.46 1468.27 Q2185.7 1465.74 2186.58 1464.01 Q2187.49 1462.25 2187.49 1460.56 Q2187.49 1457.8 2185.54 1456.07 Q2183.62 1454.33 2180.52 1454.33 Q2178.32 1454.33 2175.87 1455.09 Q2173.44 1455.86 2170.66 1457.41 L2170.66 1452.69 Q2173.48 1451.55 2175.94 1450.97 Q2178.39 1450.39 2180.43 1450.39 Q2185.8 1450.39 2188.99 1453.08 Q2192.19 1455.77 2192.19 1460.26 Q2192.19 1462.39 2191.38 1464.31 Q2190.59 1466.2 2188.48 1468.8 Q2187.9 1469.47 2184.8 1472.69 Q2181.7 1475.88 2176.05 1481.64 Z" fill="#000000" fill-rule="nonzero" fill-opacity="1" /><path clip-path="url(#clip360)" d="M2202.23 1451.02 L2220.59 1451.02 L2220.59 1454.96 L2206.51 1454.96 L2206.51 1463.43 Q2207.53 1463.08 2208.55 1462.92 Q2209.57 1462.73 2210.59 1462.73 Q2216.38 1462.73 2219.76 1465.9 Q2223.13 1469.08 2223.13 1474.49 Q2223.13 1480.07 2219.66 1483.17 Q2216.19 1486.25 2209.87 1486.25 Q2207.7 1486.25 2205.43 1485.88 Q2203.18 1485.51 2200.77 1484.77 L2200.77 1480.07 Q2202.86 1481.2 2205.08 1481.76 Q2207.3 1482.32 2209.78 1482.32 Q2213.78 1482.32 2216.12 1480.21 Q2218.46 1478.1 2218.46 1474.49 Q2218.46 1470.88 2216.12 1468.77 Q2213.78 1466.67 2209.78 1466.67 Q2207.9 1466.67 2206.03 1467.08 Q2204.18 1467.5 2202.23 1468.38 L2202.23 1451.02 Z" fill="#000000" fill-rule="nonzero" fill-opacity="1" /><path clip-path="url(#clip360)" d="M958.473 1533.76 L958.473 1539.24 Q955.99 1537.87 953.476 1537.2 Q950.993 1536.5 948.447 1536.5 Q942.75 1536.5 939.599 1540.13 Q936.448 1543.73 936.448 1550.25 Q936.448 1556.78 939.599 1560.4 Q942.75 1564 948.447 1564 Q950.993 1564 953.476 1563.33 Q955.99 1562.63 958.473 1561.26 L958.473 1566.68 Q956.022 1567.82 953.38 1568.39 Q950.77 1568.97 947.81 1568.97 Q939.758 1568.97 935.015 1563.91 Q930.273 1558.85 930.273 1550.25 Q930.273 1541.53 935.047 1536.53 Q939.853 1531.54 948.192 1531.54 Q950.898 1531.54 953.476 1532.11 Q956.054 1532.65 958.473 1533.76 Z" fill="#000000" fill-rule="nonzero" fill-opacity="1" /><path clip-path="url(#clip360)" d="M998.29 1546.53 L998.29 1568.04 L992.434 1568.04 L992.434 1546.72 Q992.434 1541.66 990.461 1539.14 Q988.487 1536.63 984.54 1536.63 Q979.798 1536.63 977.061 1539.65 Q974.323 1542.68 974.323 1547.9 L974.323 1568.04 L968.435 1568.04 L968.435 1518.52 L974.323 1518.52 L974.323 1537.93 Q976.424 1534.72 979.257 1533.13 Q982.121 1531.54 985.845 1531.54 Q991.988 1531.54 995.139 1535.36 Q998.29 1539.14 998.29 1546.53 Z" fill="#000000" fill-rule="nonzero" fill-opacity="1" /><path clip-path="url(#clip360)" d="M1040.46 1548.76 L1040.46 1551.62 L1013.54 1551.62 Q1013.92 1557.67 1017.16 1560.85 Q1020.44 1564 1026.27 1564 Q1029.64 1564 1032.79 1563.17 Q1035.98 1562.35 1039.09 1560.69 L1039.09 1566.23 Q1035.94 1567.57 1032.63 1568.27 Q1029.32 1568.97 1025.92 1568.97 Q1017.39 1568.97 1012.39 1564 Q1007.43 1559.04 1007.43 1550.57 Q1007.43 1541.82 1012.14 1536.69 Q1016.88 1531.54 1024.9 1531.54 Q1032.09 1531.54 1036.26 1536.18 Q1040.46 1540.8 1040.46 1548.76 M1034.61 1547.04 Q1034.54 1542.23 1031.9 1539.37 Q1029.29 1536.5 1024.96 1536.5 Q1020.06 1536.5 1017.1 1539.27 Q1014.17 1542.04 1013.73 1547.07 L1034.61 1547.04 Z" fill="#000000" fill-rule="nonzero" fill-opacity="1" /><path clip-path="url(#clip360)" d="M1075.67 1550.25 Q1075.67 1543.79 1072.99 1540.13 Q1070.35 1536.44 1065.7 1536.44 Q1061.06 1536.44 1058.38 1540.13 Q1055.74 1543.79 1055.74 1550.25 Q1055.74 1556.71 1058.38 1560.4 Q1061.06 1564.07 1065.7 1564.07 Q1070.35 1564.07 1072.99 1560.4 Q1075.67 1556.71 1075.67 1550.25 M1055.74 1537.81 Q1057.59 1534.62 1060.39 1533.1 Q1063.22 1531.54 1067.14 1531.54 Q1073.63 1531.54 1077.67 1536.69 Q1081.74 1541.85 1081.74 1550.25 Q1081.74 1558.65 1077.67 1563.81 Q1073.63 1568.97 1067.14 1568.97 Q1063.22 1568.97 1060.39 1567.44 Q1057.59 1565.88 1055.74 1562.7 L1055.74 1568.04 L1049.85 1568.04 L1049.85 1518.52 L1055.74 1518.52 L1055.74 1537.81 Z" fill="#000000" fill-rule="nonzero" fill-opacity="1" /><path clip-path="url(#clip360)" d="M1106.28 1571.35 Q1103.8 1577.72 1101.45 1579.66 Q1099.09 1581.6 1095.14 1581.6 L1090.47 1581.6 L1090.47 1576.7 L1093.9 1576.7 Q1096.32 1576.7 1097.66 1575.56 Q1099 1574.41 1100.62 1570.14 L1101.67 1567.47 L1087.25 1532.4 L1093.46 1532.4 L1104.6 1560.28 L1115.74 1532.4 L1121.94 1532.4 L1106.28 1571.35 Z" fill="#000000" fill-rule="nonzero" fill-opacity="1" /><path clip-path="url(#clip360)" d="M1152.75 1533.45 L1152.75 1538.98 Q1150.27 1537.71 1147.6 1537.07 Q1144.92 1536.44 1142.06 1536.44 Q1137.7 1536.44 1135.5 1537.77 Q1133.34 1539.11 1133.34 1541.79 Q1133.34 1543.82 1134.9 1545 Q1136.46 1546.15 1141.17 1547.2 L1143.17 1547.64 Q1149.41 1548.98 1152.02 1551.43 Q1154.66 1553.85 1154.66 1558.21 Q1154.66 1563.17 1150.72 1566.07 Q1146.8 1568.97 1139.93 1568.97 Q1137.06 1568.97 1133.94 1568.39 Q1130.86 1567.85 1127.42 1566.74 L1127.42 1560.69 Q1130.67 1562.38 1133.82 1563.24 Q1136.97 1564.07 1140.05 1564.07 Q1144.19 1564.07 1146.42 1562.66 Q1148.65 1561.23 1148.65 1558.65 Q1148.65 1556.27 1147.03 1554.99 Q1145.43 1553.72 1139.99 1552.54 L1137.95 1552.07 Q1132.51 1550.92 1130.09 1548.56 Q1127.67 1546.18 1127.67 1542.04 Q1127.67 1537.01 1131.24 1534.27 Q1134.8 1531.54 1141.36 1531.54 Q1144.61 1531.54 1147.47 1532.01 Q1150.34 1532.49 1152.75 1533.45 Z" fill="#000000" fill-rule="nonzero" fill-opacity="1" /><path clip-path="url(#clip360)" d="M1193.62 1546.53 L1193.62 1568.04 L1187.77 1568.04 L1187.77 1546.72 Q1187.77 1541.66 1185.79 1539.14 Q1183.82 1536.63 1179.87 1536.63 Q1175.13 1536.63 1172.39 1539.65 Q1169.66 1542.68 1169.66 1547.9 L1169.66 1568.04 L1163.77 1568.04 L1163.77 1518.52 L1169.66 1518.52 L1169.66 1537.93 Q1171.76 1534.72 1174.59 1533.13 Q1177.45 1531.54 1181.18 1531.54 Q1187.32 1531.54 1190.47 1535.36 Q1193.62 1539.14 1193.62 1546.53 Z" fill="#000000" fill-rule="nonzero" fill-opacity="1" /><path clip-path="url(#clip360)" d="M1235.79 1548.76 L1235.79 1551.62 L1208.87 1551.62 Q1209.25 1557.67 1212.5 1560.85 Q1215.77 1564 1221.6 1564 Q1224.97 1564 1228.12 1563.17 Q1231.31 1562.35 1234.43 1560.69 L1234.43 1566.23 Q1231.28 1567.57 1227.97 1568.27 Q1224.65 1568.97 1221.25 1568.97 Q1212.72 1568.97 1207.72 1564 Q1202.76 1559.04 1202.76 1550.57 Q1202.76 1541.82 1207.47 1536.69 Q1212.21 1531.54 1220.23 1531.54 Q1227.42 1531.54 1231.59 1536.18 Q1235.79 1540.8 1235.79 1548.76 M1229.94 1547.04 Q1229.87 1542.23 1227.23 1539.37 Q1224.62 1536.5 1220.29 1536.5 Q1215.39 1536.5 1212.43 1539.27 Q1209.5 1542.04 1209.06 1547.07 L1229.94 1547.04 Z" fill="#000000" fill-rule="nonzero" fill-opacity="1" /><path clip-path="url(#clip360)" d="M1241.21 1532.4 L1247.41 1532.4 L1258.55 1562.31 L1269.69 1532.4 L1275.9 1532.4 L1262.53 1568.04 L1254.57 1568.04 L1241.21 1532.4 Z" fill="#000000" fill-rule="nonzero" fill-opacity="1" /><path clip-path="url(#clip360)" d="M1332.46 1539.24 Q1334.65 1535.29 1337.71 1533.41 Q1340.77 1531.54 1344.9 1531.54 Q1350.47 1531.54 1353.5 1535.45 Q1356.52 1539.33 1356.52 1546.53 L1356.52 1568.04 L1350.63 1568.04 L1350.63 1546.72 Q1350.63 1541.59 1348.82 1539.11 Q1347 1536.63 1343.28 1536.63 Q1338.73 1536.63 1336.09 1539.65 Q1333.44 1542.68 1333.44 1547.9 L1333.44 1568.04 L1327.56 1568.04 L1327.56 1546.72 Q1327.56 1541.56 1325.74 1539.11 Q1323.93 1536.63 1320.14 1536.63 Q1315.65 1536.63 1313.01 1539.68 Q1310.37 1542.71 1310.37 1547.9 L1310.37 1568.04 L1304.48 1568.04 L1304.48 1532.4 L1310.37 1532.4 L1310.37 1537.93 Q1312.37 1534.66 1315.18 1533.1 Q1317.98 1531.54 1321.83 1531.54 Q1325.71 1531.54 1328.42 1533.51 Q1331.15 1535.48 1332.46 1539.24 Z" fill="#000000" fill-rule="nonzero" fill-opacity="1" /><path clip-path="url(#clip360)" d="M1382.02 1536.5 Q1377.3 1536.5 1374.57 1540.19 Q1371.83 1543.85 1371.83 1550.25 Q1371.83 1556.65 1374.54 1560.34 Q1377.27 1564 1382.02 1564 Q1386.69 1564 1389.43 1560.31 Q1392.17 1556.62 1392.17 1550.25 Q1392.17 1543.92 1389.43 1540.23 Q1386.69 1536.5 1382.02 1536.5 M1382.02 1531.54 Q1389.65 1531.54 1394.01 1536.5 Q1398.38 1541.47 1398.38 1550.25 Q1398.38 1559 1394.01 1564 Q1389.65 1568.97 1382.02 1568.97 Q1374.34 1568.97 1369.98 1564 Q1365.66 1559 1365.66 1550.25 Q1365.66 1541.47 1369.98 1536.5 Q1374.34 1531.54 1382.02 1531.54 Z" fill="#000000" fill-rule="nonzero" fill-opacity="1" /><path clip-path="url(#clip360)" d="M1431.54 1537.81 L1431.54 1518.52 L1437.4 1518.52 L1437.4 1568.04 L1431.54 1568.04 L1431.54 1562.7 Q1429.69 1565.88 1426.86 1567.44 Q1424.06 1568.97 1420.11 1568.97 Q1413.65 1568.97 1409.58 1563.81 Q1405.54 1558.65 1405.54 1550.25 Q1405.54 1541.85 1409.58 1536.69 Q1413.65 1531.54 1420.11 1531.54 Q1424.06 1531.54 1426.86 1533.1 Q1429.69 1534.62 1431.54 1537.81 M1411.58 1550.25 Q1411.58 1556.71 1414.23 1560.4 Q1416.9 1564.07 1421.55 1564.07 Q1426.19 1564.07 1428.87 1560.4 Q1431.54 1556.71 1431.54 1550.25 Q1431.54 1543.79 1428.87 1540.13 Q1426.19 1536.44 1421.55 1536.44 Q1416.9 1536.44 1414.23 1540.13 Q1411.58 1543.79 1411.58 1550.25 Z" fill="#000000" fill-rule="nonzero" fill-opacity="1" /><path clip-path="url(#clip360)" d="M1479.95 1548.76 L1479.95 1551.62 L1453.02 1551.62 Q1453.41 1557.67 1456.65 1560.85 Q1459.93 1564 1465.76 1564 Q1469.13 1564 1472.28 1563.17 Q1475.46 1562.35 1478.58 1560.69 L1478.58 1566.23 Q1475.43 1567.57 1472.12 1568.27 Q1468.81 1568.97 1465.41 1568.97 Q1456.88 1568.97 1451.88 1564 Q1446.91 1559.04 1446.91 1550.57 Q1446.91 1541.82 1451.62 1536.69 Q1456.37 1531.54 1464.39 1531.54 Q1471.58 1531.54 1475.75 1536.18 Q1479.95 1540.8 1479.95 1548.76 M1474.1 1547.04 Q1474.03 1542.23 1471.39 1539.37 Q1468.78 1536.5 1464.45 1536.5 Q1459.55 1536.5 1456.59 1539.27 Q1453.66 1542.04 1453.22 1547.07 L1474.1 1547.04 Z" fill="#000000" fill-rule="nonzero" fill-opacity="1" /><path clip-path="url(#clip360)" d="M1489.56 1518.52 L1495.42 1518.52 L1495.42 1568.04 L1489.56 1568.04 L1489.56 1518.52 Z" fill="#000000" fill-rule="nonzero" fill-opacity="1" /><path clip-path="url(#clip360)" d="M1551.12 1533.45 L1551.12 1538.98 Q1548.64 1537.71 1545.96 1537.07 Q1543.29 1536.44 1540.43 1536.44 Q1536.07 1536.44 1533.87 1537.77 Q1531.7 1539.11 1531.7 1541.79 Q1531.7 1543.82 1533.26 1545 Q1534.82 1546.15 1539.53 1547.2 L1541.54 1547.64 Q1547.78 1548.98 1550.39 1551.43 Q1553.03 1553.85 1553.03 1558.21 Q1553.03 1563.17 1549.08 1566.07 Q1545.17 1568.97 1538.29 1568.97 Q1535.43 1568.97 1532.31 1568.39 Q1529.22 1567.85 1525.78 1566.74 L1525.78 1560.69 Q1529.03 1562.38 1532.18 1563.24 Q1535.33 1564.07 1538.42 1564.07 Q1542.56 1564.07 1544.79 1562.66 Q1547.01 1561.23 1547.01 1558.65 Q1547.01 1556.27 1545.39 1554.99 Q1543.8 1553.72 1538.36 1552.54 L1536.32 1552.07 Q1530.88 1550.92 1528.46 1548.56 Q1526.04 1546.18 1526.04 1542.04 Q1526.04 1537.01 1529.6 1534.27 Q1533.17 1531.54 1539.73 1531.54 Q1542.97 1531.54 1545.84 1532.01 Q1548.7 1532.49 1551.12 1533.45 Z" fill="#000000" fill-rule="nonzero" fill-opacity="1" /><path clip-path="url(#clip360)" d="M1562.36 1532.4 L1568.21 1532.4 L1568.21 1568.04 L1562.36 1568.04 L1562.36 1532.4 M1562.36 1518.52 L1568.21 1518.52 L1568.21 1525.93 L1562.36 1525.93 L1562.36 1518.52 Z" fill="#000000" fill-rule="nonzero" fill-opacity="1" /><path clip-path="url(#clip360)" d="M1577.92 1532.4 L1605.74 1532.4 L1605.74 1537.74 L1583.71 1563.37 L1605.74 1563.37 L1605.74 1568.04 L1577.12 1568.04 L1577.12 1562.7 L1599.15 1537.07 L1577.92 1537.07 L1577.92 1532.4 Z" fill="#000000" fill-rule="nonzero" fill-opacity="1" /><path clip-path="url(#clip360)" d="M1645.17 1548.76 L1645.17 1551.62 L1618.25 1551.62 Q1618.63 1557.67 1621.87 1560.85 Q1625.15 1564 1630.98 1564 Q1634.35 1564 1637.5 1563.17 Q1640.69 1562.35 1643.8 1560.69 L1643.8 1566.23 Q1640.65 1567.57 1637.34 1568.27 Q1634.03 1568.97 1630.63 1568.97 Q1622.1 1568.97 1617.1 1564 Q1612.14 1559.04 1612.14 1550.57 Q1612.14 1541.82 1616.85 1536.69 Q1621.59 1531.54 1629.61 1531.54 Q1636.8 1531.54 1640.97 1536.18 Q1645.17 1540.8 1645.17 1548.76 M1639.32 1547.04 Q1639.25 1542.23 1636.61 1539.37 Q1634 1536.5 1629.67 1536.5 Q1624.77 1536.5 1621.81 1539.27 Q1618.88 1542.04 1618.44 1547.07 L1639.32 1547.04 Z" fill="#000000" fill-rule="nonzero" fill-opacity="1" /><polyline clip-path="url(#clip362)" style="stroke:#000000; stroke-linecap:round; stroke-linejoin:round; stroke-width:2; stroke-opacity:0.1; fill:none" points="222.69,1369.17 2352.76,1369.17 "/>
<polyline clip-path="url(#clip362)" style="stroke:#000000; stroke-linecap:round; stroke-linejoin:round; stroke-width:2; stroke-opacity:0.1; fill:none" points="222.69,1094.57 2352.76,1094.57 "/>
<polyline clip-path="url(#clip362)" style="stroke:#000000; stroke-linecap:round; stroke-linejoin:round; stroke-width:2; stroke-opacity:0.1; fill:none" points="222.69,819.958 2352.76,819.958 "/>
<polyline clip-path="url(#clip362)" style="stroke:#000000; stroke-linecap:round; stroke-linejoin:round; stroke-width:2; stroke-opacity:0.1; fill:none" points="222.69,545.352 2352.76,545.352 "/>
<polyline clip-path="url(#clip362)" style="stroke:#000000; stroke-linecap:round; stroke-linejoin:round; stroke-width:2; stroke-opacity:0.1; fill:none" points="222.69,270.745 2352.76,270.745 "/>
<polyline clip-path="url(#clip360)" style="stroke:#000000; stroke-linecap:round; stroke-linejoin:round; stroke-width:4; stroke-opacity:1; fill:none" points="222.69,1423.18 222.69,192.592 "/>
<polyline clip-path="url(#clip360)" style="stroke:#000000; stroke-linecap:round; stroke-linejoin:round; stroke-width:4; stroke-opacity:1; fill:none" points="222.69,1369.17 241.588,1369.17 "/>
<polyline clip-path="url(#clip360)" style="stroke:#000000; stroke-linecap:round; stroke-linejoin:round; stroke-width:4; stroke-opacity:1; fill:none" points="222.69,1094.57 241.588,1094.57 "/>
<polyline clip-path="url(#clip360)" style="stroke:#000000; stroke-linecap:round; stroke-linejoin:round; stroke-width:4; stroke-opacity:1; fill:none" points="222.69,819.958 241.588,819.958 "/>
<polyline clip-path="url(#clip360)" style="stroke:#000000; stroke-linecap:round; stroke-linejoin:round; stroke-width:4; stroke-opacity:1; fill:none" points="222.69,545.352 241.588,545.352 "/>
<polyline clip-path="url(#clip360)" style="stroke:#000000; stroke-linecap:round; stroke-linejoin:round; stroke-width:4; stroke-opacity:1; fill:none" points="222.69,270.745 241.588,270.745 "/>
<polyline clip-path="url(#clip360)" style="stroke:#000000; stroke-linecap:round; stroke-linejoin:round; stroke-width:4; stroke-opacity:1; fill:none" points="222.69,1422.4 232.139,1422.4 "/>
<polyline clip-path="url(#clip360)" style="stroke:#000000; stroke-linecap:round; stroke-linejoin:round; stroke-width:4; stroke-opacity:1; fill:none" points="222.69,1392.84 232.139,1392.84 "/>
<polyline clip-path="url(#clip360)" style="stroke:#000000; stroke-linecap:round; stroke-linejoin:round; stroke-width:4; stroke-opacity:1; fill:none" points="222.69,1246.38 232.139,1246.38 "/>
<polyline clip-path="url(#clip360)" style="stroke:#000000; stroke-linecap:round; stroke-linejoin:round; stroke-width:4; stroke-opacity:1; fill:none" points="222.69,1187.17 232.139,1187.17 "/>
<polyline clip-path="url(#clip360)" style="stroke:#000000; stroke-linecap:round; stroke-linejoin:round; stroke-width:4; stroke-opacity:1; fill:none" points="222.69,1147.79 232.139,1147.79 "/>
<polyline clip-path="url(#clip360)" style="stroke:#000000; stroke-linecap:round; stroke-linejoin:round; stroke-width:4; stroke-opacity:1; fill:none" points="222.69,1118.23 232.139,1118.23 "/>
<polyline clip-path="url(#clip360)" style="stroke:#000000; stroke-linecap:round; stroke-linejoin:round; stroke-width:4; stroke-opacity:1; fill:none" points="222.69,971.773 232.139,971.773 "/>
<polyline clip-path="url(#clip360)" style="stroke:#000000; stroke-linecap:round; stroke-linejoin:round; stroke-width:4; stroke-opacity:1; fill:none" points="222.69,912.567 232.139,912.567 "/>
<polyline clip-path="url(#clip360)" style="stroke:#000000; stroke-linecap:round; stroke-linejoin:round; stroke-width:4; stroke-opacity:1; fill:none" points="222.69,873.183 232.139,873.183 "/>
<polyline clip-path="url(#clip360)" style="stroke:#000000; stroke-linecap:round; stroke-linejoin:round; stroke-width:4; stroke-opacity:1; fill:none" points="222.69,843.626 232.139,843.626 "/>
<polyline clip-path="url(#clip360)" style="stroke:#000000; stroke-linecap:round; stroke-linejoin:round; stroke-width:4; stroke-opacity:1; fill:none" points="222.69,697.166 232.139,697.166 "/>
<polyline clip-path="url(#clip360)" style="stroke:#000000; stroke-linecap:round; stroke-linejoin:round; stroke-width:4; stroke-opacity:1; fill:none" points="222.69,637.961 232.139,637.961 "/>
<polyline clip-path="url(#clip360)" style="stroke:#000000; stroke-linecap:round; stroke-linejoin:round; stroke-width:4; stroke-opacity:1; fill:none" points="222.69,598.576 232.139,598.576 "/>
<polyline clip-path="url(#clip360)" style="stroke:#000000; stroke-linecap:round; stroke-linejoin:round; stroke-width:4; stroke-opacity:1; fill:none" points="222.69,569.019 232.139,569.019 "/>
<polyline clip-path="url(#clip360)" style="stroke:#000000; stroke-linecap:round; stroke-linejoin:round; stroke-width:4; stroke-opacity:1; fill:none" points="222.69,422.559 232.139,422.559 "/>
<polyline clip-path="url(#clip360)" style="stroke:#000000; stroke-linecap:round; stroke-linejoin:round; stroke-width:4; stroke-opacity:1; fill:none" points="222.69,363.354 232.139,363.354 "/>
<polyline clip-path="url(#clip360)" style="stroke:#000000; stroke-linecap:round; stroke-linejoin:round; stroke-width:4; stroke-opacity:1; fill:none" points="222.69,323.97 232.139,323.97 "/>
<polyline clip-path="url(#clip360)" style="stroke:#000000; stroke-linecap:round; stroke-linejoin:round; stroke-width:4; stroke-opacity:1; fill:none" points="222.69,294.413 232.139,294.413 "/>
<path clip-path="url(#clip360)" d="M115.985 1388.96 L123.624 1388.96 L123.624 1362.6 L115.313 1364.27 L115.313 1360.01 L123.577 1358.34 L128.253 1358.34 L128.253 1388.96 L135.892 1388.96 L135.892 1392.9 L115.985 1392.9 L115.985 1388.96 Z" fill="#000000" fill-rule="nonzero" fill-opacity="1" /><path clip-path="url(#clip360)" d="M155.336 1361.42 Q151.725 1361.42 149.897 1364.98 Q148.091 1368.52 148.091 1375.65 Q148.091 1382.76 149.897 1386.33 Q151.725 1389.87 155.336 1389.87 Q158.971 1389.87 160.776 1386.33 Q162.605 1382.76 162.605 1375.65 Q162.605 1368.52 160.776 1364.98 Q158.971 1361.42 155.336 1361.42 M155.336 1357.71 Q161.146 1357.71 164.202 1362.32 Q167.281 1366.9 167.281 1375.65 Q167.281 1384.38 164.202 1388.99 Q161.146 1393.57 155.336 1393.57 Q149.526 1393.57 146.447 1388.99 Q143.392 1384.38 143.392 1375.65 Q143.392 1366.9 146.447 1362.32 Q149.526 1357.71 155.336 1357.71 Z" fill="#000000" fill-rule="nonzero" fill-opacity="1" /><path clip-path="url(#clip360)" d="M176.986 1339.91 Q174.052 1339.91 172.566 1342.81 Q171.099 1345.68 171.099 1351.48 Q171.099 1357.25 172.566 1360.15 Q174.052 1363.03 176.986 1363.03 Q179.938 1363.03 181.405 1360.15 Q182.891 1357.25 182.891 1351.48 Q182.891 1345.68 181.405 1342.81 Q179.938 1339.91 176.986 1339.91 M176.986 1336.9 Q181.706 1336.9 184.189 1340.64 Q186.69 1344.37 186.69 1351.48 Q186.69 1358.57 184.189 1362.31 Q181.706 1366.03 176.986 1366.03 Q172.265 1366.03 169.763 1362.31 Q167.281 1358.57 167.281 1351.48 Q167.281 1344.37 169.763 1340.64 Q172.265 1336.9 176.986 1336.9 Z" fill="#000000" fill-rule="nonzero" fill-opacity="1" /><path clip-path="url(#clip360)" d="M118.674 1114.36 L126.313 1114.36 L126.313 1087.99 L118.003 1089.66 L118.003 1085.4 L126.267 1083.73 L130.943 1083.73 L130.943 1114.36 L138.581 1114.36 L138.581 1118.29 L118.674 1118.29 L118.674 1114.36 Z" fill="#000000" fill-rule="nonzero" fill-opacity="1" /><path clip-path="url(#clip360)" d="M158.026 1086.81 Q154.415 1086.81 152.586 1090.38 Q150.781 1093.92 150.781 1101.05 Q150.781 1108.15 152.586 1111.72 Q154.415 1115.26 158.026 1115.26 Q161.66 1115.26 163.466 1111.72 Q165.294 1108.15 165.294 1101.05 Q165.294 1093.92 163.466 1090.38 Q161.66 1086.81 158.026 1086.81 M158.026 1083.11 Q163.836 1083.11 166.892 1087.71 Q169.97 1092.3 169.97 1101.05 Q169.97 1109.77 166.892 1114.38 Q163.836 1118.96 158.026 1118.96 Q152.216 1118.96 149.137 1114.38 Q146.081 1109.77 146.081 1101.05 Q146.081 1092.3 149.137 1087.71 Q152.216 1083.11 158.026 1083.11 Z" fill="#000000" fill-rule="nonzero" fill-opacity="1" /><path clip-path="url(#clip360)" d="M170.516 1087.68 L176.722 1087.68 L176.722 1066.26 L169.97 1067.62 L169.97 1064.16 L176.685 1062.8 L180.484 1062.8 L180.484 1087.68 L186.69 1087.68 L186.69 1090.88 L170.516 1090.88 L170.516 1087.68 Z" fill="#000000" fill-rule="nonzero" fill-opacity="1" /><path clip-path="url(#clip360)" d="M117.565 839.751 L125.203 839.751 L125.203 813.385 L116.893 815.052 L116.893 810.793 L125.157 809.126 L129.833 809.126 L129.833 839.751 L137.472 839.751 L137.472 843.686 L117.565 843.686 L117.565 839.751 Z" fill="#000000" fill-rule="nonzero" fill-opacity="1" /><path clip-path="url(#clip360)" d="M156.916 812.205 Q153.305 812.205 151.476 815.77 Q149.671 819.311 149.671 826.441 Q149.671 833.547 151.476 837.112 Q153.305 840.654 156.916 840.654 Q160.55 840.654 162.356 837.112 Q164.185 833.547 164.185 826.441 Q164.185 819.311 162.356 815.77 Q160.55 812.205 156.916 812.205 M156.916 808.501 Q162.726 808.501 165.782 813.108 Q168.861 817.691 168.861 826.441 Q168.861 835.168 165.782 839.774 Q162.726 844.357 156.916 844.357 Q151.106 844.357 148.027 839.774 Q144.972 835.168 144.972 826.441 Q144.972 817.691 148.027 813.108 Q151.106 808.501 156.916 808.501 Z" fill="#000000" fill-rule="nonzero" fill-opacity="1" /><path clip-path="url(#clip360)" d="M173.431 813.078 L186.69 813.078 L186.69 816.276 L168.861 816.276 L168.861 813.078 Q171.023 810.84 174.747 807.079 Q178.49 803.298 179.449 802.207 Q181.274 800.157 181.988 798.747 Q182.722 797.317 182.722 795.944 Q182.722 793.706 181.142 792.296 Q179.581 790.885 177.061 790.885 Q175.274 790.885 173.28 791.506 Q171.306 792.127 169.049 793.387 L169.049 789.55 Q171.343 788.628 173.337 788.158 Q175.33 787.688 176.986 787.688 Q181.349 787.688 183.944 789.87 Q186.54 792.051 186.54 795.7 Q186.54 797.43 185.882 798.991 Q185.242 800.534 183.531 802.64 Q183.06 803.185 180.54 805.8 Q178.02 808.395 173.431 813.078 Z" fill="#000000" fill-rule="nonzero" fill-opacity="1" /><path clip-path="url(#clip360)" d="M116.906 565.144 L124.545 565.144 L124.545 538.779 L116.235 540.445 L116.235 536.186 L124.499 534.519 L129.175 534.519 L129.175 565.144 L136.814 565.144 L136.814 569.079 L116.906 569.079 L116.906 565.144 Z" fill="#000000" fill-rule="nonzero" fill-opacity="1" /><path clip-path="url(#clip360)" d="M156.258 537.598 Q152.647 537.598 150.818 541.163 Q149.013 544.705 149.013 551.834 Q149.013 558.941 150.818 562.505 Q152.647 566.047 156.258 566.047 Q159.892 566.047 161.698 562.505 Q163.526 558.941 163.526 551.834 Q163.526 544.705 161.698 541.163 Q159.892 537.598 156.258 537.598 M156.258 533.894 Q162.068 533.894 165.124 538.501 Q168.202 543.084 168.202 551.834 Q168.202 560.561 165.124 565.167 Q162.068 569.751 156.258 569.751 Q150.448 569.751 147.369 565.167 Q144.314 560.561 144.314 551.834 Q144.314 543.084 147.369 538.501 Q150.448 533.894 156.258 533.894 Z" fill="#000000" fill-rule="nonzero" fill-opacity="1" /><path clip-path="url(#clip360)" d="M180.898 526.529 Q183.625 527.112 185.148 528.955 Q186.69 530.798 186.69 533.507 Q186.69 537.663 183.832 539.939 Q180.973 542.215 175.707 542.215 Q173.939 542.215 172.058 541.857 Q170.196 541.519 168.202 540.823 L168.202 537.155 Q169.782 538.077 171.663 538.547 Q173.544 539.017 175.594 539.017 Q179.167 539.017 181.029 537.607 Q182.91 536.196 182.91 533.507 Q182.91 531.024 181.161 529.632 Q179.431 528.222 176.327 528.222 L173.055 528.222 L173.055 525.099 L176.478 525.099 Q179.28 525.099 180.766 523.99 Q182.252 522.861 182.252 520.755 Q182.252 518.592 180.709 517.445 Q179.186 516.279 176.327 516.279 Q174.766 516.279 172.979 516.617 Q171.193 516.956 169.049 517.67 L169.049 514.285 Q171.212 513.683 173.092 513.382 Q174.992 513.081 176.666 513.081 Q180.992 513.081 183.512 515.056 Q186.032 517.012 186.032 520.36 Q186.032 522.692 184.697 524.31 Q183.361 525.908 180.898 526.529 Z" fill="#000000" fill-rule="nonzero" fill-opacity="1" /><path clip-path="url(#clip360)" d="M114.931 290.538 L122.57 290.538 L122.57 264.172 L114.26 265.839 L114.26 261.58 L122.524 259.913 L127.2 259.913 L127.2 290.538 L134.839 290.538 L134.839 294.473 L114.931 294.473 L114.931 290.538 Z" fill="#000000" fill-rule="nonzero" fill-opacity="1" /><path clip-path="url(#clip360)" d="M154.283 262.992 Q150.672 262.992 148.843 266.556 Q147.038 270.098 147.038 277.228 Q147.038 284.334 148.843 287.899 Q150.672 291.44 154.283 291.44 Q157.917 291.44 159.723 287.899 Q161.552 284.334 161.552 277.228 Q161.552 270.098 159.723 266.556 Q157.917 262.992 154.283 262.992 M154.283 259.288 Q160.093 259.288 163.149 263.894 Q166.227 268.478 166.227 277.228 Q166.227 285.954 163.149 290.561 Q160.093 295.144 154.283 295.144 Q148.473 295.144 145.394 290.561 Q142.339 285.954 142.339 277.228 Q142.339 268.478 145.394 263.894 Q148.473 259.288 154.283 259.288 Z" fill="#000000" fill-rule="nonzero" fill-opacity="1" /><path clip-path="url(#clip360)" d="M178.904 242.293 L169.312 257.282 L178.904 257.282 L178.904 242.293 M177.907 238.982 L182.684 238.982 L182.684 257.282 L186.69 257.282 L186.69 260.442 L182.684 260.442 L182.684 267.062 L178.904 267.062 L178.904 260.442 L166.227 260.442 L166.227 256.775 L177.907 238.982 Z" fill="#000000" fill-rule="nonzero" fill-opacity="1" /><path clip-path="url(#clip360)" d="M41.7242 864.047 Q42.4244 861.979 44.7161 860.037 Q47.0077 858.064 51.0181 856.09 L64.0042 849.565 L64.0042 856.472 L51.8138 862.551 Q47.0395 864.907 45.48 867.135 Q43.9204 869.331 43.9204 873.15 L43.9204 880.153 L64.0042 880.153 L64.0042 886.582 L16.4842 886.582 L16.4842 872.068 Q16.4842 863.92 19.8898 859.91 Q23.2955 855.899 30.1704 855.899 Q34.6582 855.899 37.6183 858 Q40.5784 860.069 41.7242 864.047 M21.7677 880.153 L38.6368 880.153 L38.6368 872.068 Q38.6368 867.421 36.5043 865.066 Q34.34 862.679 30.1704 862.679 Q26.0009 862.679 23.9002 865.066 Q21.7677 867.421 21.7677 872.068 L21.7677 880.153 Z" fill="#000000" fill-rule="nonzero" fill-opacity="1" /><path clip-path="url(#clip360)" d="M46.0847 826.776 Q46.0847 833.874 47.7079 836.611 Q49.3312 839.348 53.2461 839.348 Q56.3653 839.348 58.2114 837.311 Q60.0256 835.243 60.0256 831.71 Q60.0256 826.84 56.5881 823.912 Q53.1188 820.952 47.3897 820.952 L46.0847 820.952 L46.0847 826.776 M43.6657 815.095 L64.0042 815.095 L64.0042 820.952 L58.5933 820.952 Q61.8398 822.957 63.3994 825.949 Q64.9272 828.941 64.9272 833.269 Q64.9272 838.744 61.8716 841.99 Q58.7843 845.205 53.6281 845.205 Q47.6125 845.205 44.5569 841.195 Q41.5014 837.152 41.5014 829.163 L41.5014 820.952 L40.9285 820.952 Q36.8862 820.952 34.6901 823.625 Q32.4621 826.267 32.4621 831.073 Q32.4621 834.129 33.1941 837.025 Q33.9262 839.921 35.3903 842.595 L29.9795 842.595 Q28.7381 839.38 28.1334 836.357 Q27.4968 833.333 27.4968 830.468 Q27.4968 822.734 31.5072 818.915 Q35.5176 815.095 43.6657 815.095 Z" fill="#000000" fill-rule="nonzero" fill-opacity="1" /><path clip-path="url(#clip360)" d="M18.2347 797.239 L28.3562 797.239 L28.3562 785.176 L32.9077 785.176 L32.9077 797.239 L52.2594 797.239 Q56.6199 797.239 57.8613 796.062 Q59.1026 794.852 59.1026 791.192 L59.1026 785.176 L64.0042 785.176 L64.0042 791.192 Q64.0042 797.971 61.4897 800.55 Q58.9434 803.128 52.2594 803.128 L32.9077 803.128 L32.9077 807.424 L28.3562 807.424 L28.3562 803.128 L18.2347 803.128 L18.2347 797.239 Z" fill="#000000" fill-rule="nonzero" fill-opacity="1" /><path clip-path="url(#clip360)" d="M28.3562 777.474 L28.3562 771.617 L64.0042 771.617 L64.0042 777.474 L28.3562 777.474 M14.479 777.474 L14.479 771.617 L21.895 771.617 L21.895 777.474 L14.479 777.474 Z" fill="#000000" fill-rule="nonzero" fill-opacity="1" /><path clip-path="url(#clip360)" d="M32.4621 745.55 Q32.4621 750.26 36.1542 752.998 Q39.8145 755.735 46.212 755.735 Q52.6095 755.735 56.3017 753.03 Q59.9619 750.292 59.9619 745.55 Q59.9619 740.871 56.2698 738.134 Q52.5777 735.396 46.212 735.396 Q39.8781 735.396 36.186 738.134 Q32.4621 740.871 32.4621 745.55 M27.4968 745.55 Q27.4968 737.911 32.4621 733.55 Q37.4273 729.19 46.212 729.19 Q54.9649 729.19 59.9619 733.55 Q64.9272 737.911 64.9272 745.55 Q64.9272 753.22 59.9619 757.581 Q54.9649 761.91 46.212 761.91 Q37.4273 761.91 32.4621 757.581 Q27.4968 753.22 27.4968 745.55 Z" fill="#000000" fill-rule="nonzero" fill-opacity="1" /><path clip-path="url(#clip360)" d="M890.677 30.24 L927.222 30.24 L927.222 35.159 L911.886 35.159 L911.886 73.44 L906.012 73.44 L906.012 35.159 L890.677 35.159 L890.677 30.24 Z" fill="#000000" fill-rule="nonzero" fill-opacity="1" /><path clip-path="url(#clip360)" d="M930.81 41.0328 L936.134 41.0328 L936.134 73.44 L930.81 73.44 L930.81 41.0328 M930.81 28.4171 L936.134 28.4171 L936.134 35.159 L930.81 35.159 L930.81 28.4171 Z" fill="#000000" fill-rule="nonzero" fill-opacity="1" /><path clip-path="url(#clip360)" d="M972.505 47.2538 Q974.501 43.6659 977.279 41.9587 Q980.057 40.2515 983.818 40.2515 Q988.882 40.2515 991.631 43.8105 Q994.38 47.3406 994.38 53.8799 L994.38 73.44 L989.027 73.44 L989.027 54.0535 Q989.027 49.395 987.378 47.1381 Q985.728 44.8811 982.343 44.8811 Q978.205 44.8811 975.803 47.63 Q973.402 50.3788 973.402 55.1241 L973.402 73.44 L968.049 73.44 L968.049 54.0535 Q968.049 49.3661 966.4 47.1381 Q964.75 44.8811 961.307 44.8811 Q957.227 44.8811 954.826 47.6589 Q952.424 50.4077 952.424 55.1241 L952.424 73.44 L947.071 73.44 L947.071 41.0328 L952.424 41.0328 L952.424 46.0675 Q954.247 43.0872 956.793 41.6693 Q959.339 40.2515 962.841 40.2515 Q966.371 40.2515 968.83 42.0455 Q971.319 43.8395 972.505 47.2538 Z" fill="#000000" fill-rule="nonzero" fill-opacity="1" /><path clip-path="url(#clip360)" d="M1032.72 55.9054 L1032.72 58.5095 L1008.24 58.5095 Q1008.59 64.0072 1011.54 66.9007 Q1014.52 69.7653 1019.81 69.7653 Q1022.88 69.7653 1025.75 69.0129 Q1028.64 68.2606 1031.47 66.756 L1031.47 71.7907 Q1028.61 73.006 1025.6 73.6425 Q1022.59 74.2791 1019.5 74.2791 Q1011.74 74.2791 1007.2 69.7653 Q1002.68 65.2514 1002.68 57.5547 Q1002.68 49.5975 1006.97 44.939 Q1011.28 40.2515 1018.57 40.2515 Q1025.11 40.2515 1028.9 44.476 Q1032.72 48.6716 1032.72 55.9054 M1027.39 54.3429 Q1027.34 49.9737 1024.94 47.3695 Q1022.56 44.7654 1018.63 44.7654 Q1014.17 44.7654 1011.48 47.2827 Q1008.82 49.8001 1008.41 54.3718 L1027.39 54.3429 Z" fill="#000000" fill-rule="nonzero" fill-opacity="1" /><path clip-path="url(#clip360)" d="M1079.07 46.0096 Q1078.18 45.4888 1077.11 45.2573 Q1076.06 44.9969 1074.79 44.9969 Q1070.28 44.9969 1067.85 47.9482 Q1065.44 50.8707 1065.44 56.3683 L1065.44 73.44 L1060.09 73.44 L1060.09 41.0328 L1065.44 41.0328 L1065.44 46.0675 Q1067.12 43.1161 1069.81 41.6983 Q1072.5 40.2515 1076.35 40.2515 Q1076.9 40.2515 1077.57 40.3383 Q1078.23 40.3962 1079.04 40.5409 L1079.07 46.0096 Z" fill="#000000" fill-rule="nonzero" fill-opacity="1" /><path clip-path="url(#clip360)" d="M1099.39 57.1496 Q1092.93 57.1496 1090.44 58.6253 Q1087.96 60.101 1087.96 63.66 Q1087.96 66.4956 1089.81 68.1738 Q1091.69 69.8231 1094.9 69.8231 Q1099.33 69.8231 1101.99 66.6981 Q1104.68 63.5442 1104.68 58.3359 L1104.68 57.1496 L1099.39 57.1496 M1110 54.9505 L1110 73.44 L1104.68 73.44 L1104.68 68.521 Q1102.86 71.4724 1100.14 72.8902 Q1097.42 74.2791 1093.48 74.2791 Q1088.51 74.2791 1085.55 71.5014 Q1082.63 68.6947 1082.63 64.0072 Q1082.63 58.5385 1086.28 55.7607 Q1089.95 52.9829 1097.21 52.9829 L1104.68 52.9829 L1104.68 52.4621 Q1104.68 48.7874 1102.25 46.7908 Q1099.85 44.7654 1095.48 44.7654 Q1092.7 44.7654 1090.07 45.4309 Q1087.43 46.0964 1085 47.4274 L1085 42.5085 Q1087.93 41.38 1090.68 40.8302 Q1093.42 40.2515 1096.03 40.2515 Q1103.06 40.2515 1106.53 43.8973 Q1110 47.5431 1110 54.9505 Z" fill="#000000" fill-rule="nonzero" fill-opacity="1" /><path clip-path="url(#clip360)" d="M1126.24 31.8314 L1126.24 41.0328 L1137.2 41.0328 L1137.2 45.1705 L1126.24 45.1705 L1126.24 62.763 Q1126.24 66.7271 1127.31 67.8555 Q1128.41 68.984 1131.73 68.984 L1137.2 68.984 L1137.2 73.44 L1131.73 73.44 Q1125.57 73.44 1123.23 71.1541 Q1120.88 68.8393 1120.88 62.763 L1120.88 45.1705 L1116.98 45.1705 L1116.98 41.0328 L1120.88 41.0328 L1120.88 31.8314 L1126.24 31.8314 Z" fill="#000000" fill-rule="nonzero" fill-opacity="1" /><path clip-path="url(#clip360)" d="M1144.21 41.0328 L1149.53 41.0328 L1149.53 73.44 L1144.21 73.44 L1144.21 41.0328 M1144.21 28.4171 L1149.53 28.4171 L1149.53 35.159 L1144.21 35.159 L1144.21 28.4171 Z" fill="#000000" fill-rule="nonzero" fill-opacity="1" /><path clip-path="url(#clip360)" d="M1173.23 44.7654 Q1168.94 44.7654 1166.46 48.1218 Q1163.97 51.4494 1163.97 57.2653 Q1163.97 63.0813 1166.43 66.4377 Q1168.92 69.7653 1173.23 69.7653 Q1177.48 69.7653 1179.97 66.4088 Q1182.46 63.0523 1182.46 57.2653 Q1182.46 51.5072 1179.97 48.1508 Q1177.48 44.7654 1173.23 44.7654 M1173.23 40.2515 Q1180.17 40.2515 1184.14 44.7654 Q1188.1 49.2792 1188.1 57.2653 Q1188.1 65.2225 1184.14 69.7653 Q1180.17 74.2791 1173.23 74.2791 Q1166.25 74.2791 1162.29 69.7653 Q1158.35 65.2225 1158.35 57.2653 Q1158.35 49.2792 1162.29 44.7654 Q1166.25 40.2515 1173.23 40.2515 Z" fill="#000000" fill-rule="nonzero" fill-opacity="1" /><path clip-path="url(#clip360)" d="M1198.28 66.0905 L1204.39 66.0905 L1204.39 71.0673 L1199.64 80.3265 L1195.91 80.3265 L1198.28 71.0673 L1198.28 66.0905 Z" fill="#000000" fill-rule="nonzero" fill-opacity="1" /><path clip-path="url(#clip360)" d="M1260.73 31.6578 L1260.73 37.358 Q1257.4 35.7666 1254.45 34.9853 Q1251.5 34.2041 1248.75 34.2041 Q1243.97 34.2041 1241.37 36.0559 Q1238.79 37.9078 1238.79 41.3221 Q1238.79 44.1867 1240.5 45.6624 Q1242.24 47.1091 1247.04 48.0061 L1250.57 48.7295 Q1257.11 49.9737 1260.21 53.1276 Q1263.33 56.2526 1263.33 61.5188 Q1263.33 67.7977 1259.11 71.0384 Q1254.91 74.2791 1246.78 74.2791 Q1243.71 74.2791 1240.24 73.5847 Q1236.8 72.8902 1233.09 71.5303 L1233.09 65.5118 Q1236.65 67.5083 1240.07 68.521 Q1243.48 69.5338 1246.78 69.5338 Q1251.79 69.5338 1254.51 67.5662 Q1257.23 65.5986 1257.23 61.9528 Q1257.23 58.7699 1255.26 56.976 Q1253.32 55.182 1248.86 54.285 L1245.3 53.5906 Q1238.77 52.2885 1235.84 49.5107 Q1232.92 46.733 1232.92 41.7851 Q1232.92 36.0559 1236.94 32.7573 Q1240.99 29.4588 1248.08 29.4588 Q1251.12 29.4588 1254.27 30.0085 Q1257.43 30.5583 1260.73 31.6578 Z" fill="#000000" fill-rule="nonzero" fill-opacity="1" /><path clip-path="url(#clip360)" d="M1285.7 76.4492 Q1283.44 82.2362 1281.3 84.0013 Q1279.16 85.7663 1275.57 85.7663 L1271.32 85.7663 L1271.32 81.3103 L1274.44 81.3103 Q1276.64 81.3103 1277.86 80.2687 Q1279.07 79.227 1280.55 75.3497 L1281.5 72.9192 L1268.39 41.0328 L1274.04 41.0328 L1284.16 66.3799 L1294.29 41.0328 L1299.93 41.0328 L1285.7 76.4492 Z" fill="#000000" fill-rule="nonzero" fill-opacity="1" /><path clip-path="url(#clip360)" d="M1332.51 47.2538 Q1334.51 43.6659 1337.29 41.9587 Q1340.07 40.2515 1343.83 40.2515 Q1348.89 40.2515 1351.64 43.8105 Q1354.39 47.3406 1354.39 53.8799 L1354.39 73.44 L1349.04 73.44 L1349.04 54.0535 Q1349.04 49.395 1347.39 47.1381 Q1345.74 44.8811 1342.35 44.8811 Q1338.21 44.8811 1335.81 47.63 Q1333.41 50.3788 1333.41 55.1241 L1333.41 73.44 L1328.06 73.44 L1328.06 54.0535 Q1328.06 49.3661 1326.41 47.1381 Q1324.76 44.8811 1321.32 44.8811 Q1317.24 44.8811 1314.84 47.6589 Q1312.43 50.4077 1312.43 55.1241 L1312.43 73.44 L1307.08 73.44 L1307.08 41.0328 L1312.43 41.0328 L1312.43 46.0675 Q1314.26 43.0872 1316.8 41.6693 Q1319.35 40.2515 1322.85 40.2515 Q1326.38 40.2515 1328.84 42.0455 Q1331.33 43.8395 1332.51 47.2538 Z" fill="#000000" fill-rule="nonzero" fill-opacity="1" /><path clip-path="url(#clip360)" d="M1388.27 57.2653 Q1388.27 51.3915 1385.84 48.064 Q1383.44 44.7075 1379.22 44.7075 Q1374.99 44.7075 1372.56 48.064 Q1370.16 51.3915 1370.16 57.2653 Q1370.16 63.1391 1372.56 66.4956 Q1374.99 69.8231 1379.22 69.8231 Q1383.44 69.8231 1385.84 66.4956 Q1388.27 63.1391 1388.27 57.2653 M1370.16 45.9517 Q1371.84 43.0582 1374.38 41.6693 Q1376.96 40.2515 1380.52 40.2515 Q1386.42 40.2515 1390.1 44.939 Q1393.8 49.6265 1393.8 57.2653 Q1393.8 64.9042 1390.1 69.5916 Q1386.42 74.2791 1380.52 74.2791 Q1376.96 74.2791 1374.38 72.8902 Q1371.84 71.4724 1370.16 68.5789 L1370.16 73.44 L1364.81 73.44 L1364.81 28.4171 L1370.16 28.4171 L1370.16 45.9517 Z" fill="#000000" fill-rule="nonzero" fill-opacity="1" /><path clip-path="url(#clip360)" d="M1415.18 44.7654 Q1410.9 44.7654 1408.41 48.1218 Q1405.92 51.4494 1405.92 57.2653 Q1405.92 63.0813 1408.38 66.4377 Q1410.87 69.7653 1415.18 69.7653 Q1419.44 69.7653 1421.92 66.4088 Q1424.41 63.0523 1424.41 57.2653 Q1424.41 51.5072 1421.92 48.1508 Q1419.44 44.7654 1415.18 44.7654 M1415.18 40.2515 Q1422.13 40.2515 1426.09 44.7654 Q1430.05 49.2792 1430.05 57.2653 Q1430.05 65.2225 1426.09 69.7653 Q1422.13 74.2791 1415.18 74.2791 Q1408.21 74.2791 1404.24 69.7653 Q1400.31 65.2225 1400.31 57.2653 Q1400.31 49.2792 1404.24 44.7654 Q1408.21 40.2515 1415.18 40.2515 Z" fill="#000000" fill-rule="nonzero" fill-opacity="1" /><path clip-path="url(#clip360)" d="M1438.88 28.4171 L1444.2 28.4171 L1444.2 73.44 L1438.88 73.44 L1438.88 28.4171 Z" fill="#000000" fill-rule="nonzero" fill-opacity="1" /><path clip-path="url(#clip360)" d="M1455.34 41.0328 L1460.67 41.0328 L1460.67 73.44 L1455.34 73.44 L1455.34 41.0328 M1455.34 28.4171 L1460.67 28.4171 L1460.67 35.159 L1455.34 35.159 L1455.34 28.4171 Z" fill="#000000" fill-rule="nonzero" fill-opacity="1" /><path clip-path="url(#clip360)" d="M1495.13 42.277 L1495.13 47.2538 Q1492.87 46.0096 1490.59 45.402 Q1488.33 44.7654 1486.01 44.7654 Q1480.84 44.7654 1477.97 48.064 Q1475.11 51.3336 1475.11 57.2653 Q1475.11 63.197 1477.97 66.4956 Q1480.84 69.7653 1486.01 69.7653 Q1488.33 69.7653 1490.59 69.1576 Q1492.87 68.521 1495.13 67.2768 L1495.13 72.1958 Q1492.9 73.2375 1490.5 73.7583 Q1488.13 74.2791 1485.44 74.2791 Q1478.12 74.2791 1473.8 69.6784 Q1469.49 65.0778 1469.49 57.2653 Q1469.49 49.3371 1473.83 44.7943 Q1478.2 40.2515 1485.78 40.2515 Q1488.24 40.2515 1490.59 40.7724 Q1492.93 41.2642 1495.13 42.277 Z" fill="#000000" fill-rule="nonzero" fill-opacity="1" /><path clip-path="url(#clip360)" d="M1525.05 41.9876 L1525.05 47.0223 Q1522.79 45.8649 1520.36 45.2862 Q1517.93 44.7075 1515.33 44.7075 Q1511.36 44.7075 1509.37 45.9228 Q1507.4 47.1381 1507.4 49.5686 Q1507.4 51.4204 1508.82 52.491 Q1510.23 53.5327 1514.52 54.4876 L1516.34 54.8926 Q1522.01 56.1079 1524.38 58.3359 Q1526.78 60.535 1526.78 64.4991 Q1526.78 69.0129 1523.2 71.646 Q1519.64 74.2791 1513.39 74.2791 Q1510.78 74.2791 1507.95 73.7583 Q1505.14 73.2664 1502.02 72.2537 L1502.02 66.756 Q1504.97 68.2896 1507.83 69.0708 Q1510.7 69.8231 1513.5 69.8231 Q1517.26 69.8231 1519.29 68.55 Q1521.32 67.2479 1521.32 64.9042 Q1521.32 62.734 1519.84 61.5766 Q1518.39 60.4192 1513.45 59.3486 L1511.59 58.9146 Q1506.65 57.873 1504.45 55.7318 Q1502.25 53.5616 1502.25 49.8001 Q1502.25 45.2283 1505.49 42.7399 Q1508.73 40.2515 1514.69 40.2515 Q1517.64 40.2515 1520.25 40.6855 Q1522.85 41.1196 1525.05 41.9876 Z" fill="#000000" fill-rule="nonzero" fill-opacity="1" /><path clip-path="url(#clip360)" d="M1544.72 30.24 L1549.64 30.24 L1534.6 78.9377 L1529.68 78.9377 L1544.72 30.24 Z" fill="#000000" fill-rule="nonzero" fill-opacity="1" /><path clip-path="url(#clip360)" d="M1555.46 30.24 L1580.29 30.24 L1580.29 35.159 L1561.3 35.159 L1561.3 47.8904 L1578.43 47.8904 L1578.43 52.8093 L1561.3 52.8093 L1561.3 73.44 L1555.46 73.44 L1555.46 30.24 Z" fill="#000000" fill-rule="nonzero" fill-opacity="1" /><path clip-path="url(#clip360)" d="M1614.4 31.6578 L1614.4 37.358 Q1611.07 35.7666 1608.12 34.9853 Q1605.17 34.2041 1602.42 34.2041 Q1597.65 34.2041 1595.04 36.0559 Q1592.47 37.9078 1592.47 41.3221 Q1592.47 44.1867 1594.17 45.6624 Q1595.91 47.1091 1600.71 48.0061 L1604.24 48.7295 Q1610.78 49.9737 1613.88 53.1276 Q1617 56.2526 1617 61.5188 Q1617 67.7977 1612.78 71.0384 Q1608.58 74.2791 1600.45 74.2791 Q1597.39 74.2791 1593.91 73.5847 Q1590.47 72.8902 1586.77 71.5303 L1586.77 65.5118 Q1590.33 67.5083 1593.74 68.521 Q1597.15 69.5338 1600.45 69.5338 Q1605.46 69.5338 1608.18 67.5662 Q1610.9 65.5986 1610.9 61.9528 Q1610.9 58.7699 1608.93 56.976 Q1606.99 55.182 1602.54 54.285 L1598.98 53.5906 Q1592.44 52.2885 1589.52 49.5107 Q1586.59 46.733 1586.59 41.7851 Q1586.59 36.0559 1590.62 32.7573 Q1594.67 29.4588 1601.75 29.4588 Q1604.79 29.4588 1607.95 30.0085 Q1611.1 30.5583 1614.4 31.6578 Z" fill="#000000" fill-rule="nonzero" fill-opacity="1" /><path clip-path="url(#clip360)" d="M1631.96 35.0432 L1631.96 68.6368 L1639.02 68.6368 Q1647.96 68.6368 1652.1 64.5859 Q1656.27 60.535 1656.27 51.7966 Q1656.27 43.1161 1652.1 39.0941 Q1647.96 35.0432 1639.02 35.0432 L1631.96 35.0432 M1626.12 30.24 L1638.13 30.24 Q1650.68 30.24 1656.56 35.4772 Q1662.43 40.6855 1662.43 51.7966 Q1662.43 62.9655 1656.53 68.2028 Q1650.63 73.44 1638.13 73.44 L1626.12 73.44 L1626.12 30.24 Z" fill="#000000" fill-rule="nonzero" fill-opacity="1" /><path clip-path="url(#clip360)" d="M1145.96 107.077 L1145.96 112.054 Q1143.7 110.81 1141.41 110.202 Q1139.16 109.565 1136.84 109.565 Q1131.66 109.565 1128.8 112.864 Q1125.93 116.134 1125.93 122.065 Q1125.93 127.997 1128.8 131.296 Q1131.66 134.565 1136.84 134.565 Q1139.16 134.565 1141.41 133.958 Q1143.7 133.321 1145.96 132.077 L1145.96 136.996 Q1143.73 138.037 1141.33 138.558 Q1138.95 139.079 1136.26 139.079 Q1128.94 139.079 1124.63 134.478 Q1120.32 129.878 1120.32 122.065 Q1120.32 114.137 1124.66 109.594 Q1129.03 105.052 1136.61 105.052 Q1139.07 105.052 1141.41 105.572 Q1143.76 106.064 1145.96 107.077 Z" fill="#000000" fill-rule="nonzero" fill-opacity="1" /><path clip-path="url(#clip360)" d="M1182.15 118.68 L1182.15 138.24 L1176.83 138.24 L1176.83 118.854 Q1176.83 114.253 1175.04 111.967 Q1173.24 109.681 1169.65 109.681 Q1165.34 109.681 1162.85 112.43 Q1160.37 115.179 1160.37 119.924 L1160.37 138.24 L1155.01 138.24 L1155.01 93.2171 L1160.37 93.2171 L1160.37 110.867 Q1162.28 107.945 1164.85 106.498 Q1167.45 105.052 1170.84 105.052 Q1176.42 105.052 1179.29 108.524 Q1182.15 111.967 1182.15 118.68 Z" fill="#000000" fill-rule="nonzero" fill-opacity="1" /><path clip-path="url(#clip360)" d="M1220.49 120.705 L1220.49 123.31 L1196.01 123.31 Q1196.36 128.807 1199.31 131.701 Q1202.29 134.565 1207.59 134.565 Q1210.65 134.565 1213.52 133.813 Q1216.41 133.061 1219.25 131.556 L1219.25 136.591 Q1216.38 137.806 1213.37 138.443 Q1210.37 139.079 1207.27 139.079 Q1199.51 139.079 1194.97 134.565 Q1190.46 130.051 1190.46 122.355 Q1190.46 114.398 1194.74 109.739 Q1199.05 105.052 1206.34 105.052 Q1212.88 105.052 1216.67 109.276 Q1220.49 113.472 1220.49 120.705 M1215.17 119.143 Q1215.11 114.774 1212.71 112.17 Q1210.34 109.565 1206.4 109.565 Q1201.95 109.565 1199.25 112.083 Q1196.59 114.6 1196.19 119.172 L1215.17 119.143 Z" fill="#000000" fill-rule="nonzero" fill-opacity="1" /><path clip-path="url(#clip360)" d="M1252.49 122.065 Q1252.49 116.192 1250.06 112.864 Q1247.66 109.508 1243.44 109.508 Q1239.21 109.508 1236.78 112.864 Q1234.38 116.192 1234.38 122.065 Q1234.38 127.939 1236.78 131.296 Q1239.21 134.623 1243.44 134.623 Q1247.66 134.623 1250.06 131.296 Q1252.49 127.939 1252.49 122.065 M1234.38 110.752 Q1236.06 107.858 1238.61 106.469 Q1241.18 105.052 1244.74 105.052 Q1250.64 105.052 1254.32 109.739 Q1258.02 114.426 1258.02 122.065 Q1258.02 129.704 1254.32 134.392 Q1250.64 139.079 1244.74 139.079 Q1241.18 139.079 1238.61 137.69 Q1236.06 136.272 1234.38 133.379 L1234.38 138.24 L1229.03 138.24 L1229.03 93.2171 L1234.38 93.2171 L1234.38 110.752 Z" fill="#000000" fill-rule="nonzero" fill-opacity="1" /><path clip-path="url(#clip360)" d="M1280.33 141.249 Q1278.07 147.036 1275.93 148.801 Q1273.79 150.566 1270.2 150.566 L1265.95 150.566 L1265.95 146.11 L1269.07 146.11 Q1271.27 146.11 1272.49 145.069 Q1273.7 144.027 1275.18 140.15 L1276.13 137.719 L1263.03 105.833 L1268.67 105.833 L1278.8 131.18 L1288.92 105.833 L1294.57 105.833 L1280.33 141.249 Z" fill="#000000" fill-rule="nonzero" fill-opacity="1" /><path clip-path="url(#clip360)" d="M1322.58 106.788 L1322.58 111.822 Q1320.32 110.665 1317.89 110.086 Q1315.46 109.508 1312.85 109.508 Q1308.89 109.508 1306.89 110.723 Q1304.92 111.938 1304.92 114.369 Q1304.92 116.22 1306.34 117.291 Q1307.76 118.333 1312.04 119.288 L1313.87 119.693 Q1319.54 120.908 1321.91 123.136 Q1324.31 125.335 1324.31 129.299 Q1324.31 133.813 1320.72 136.446 Q1317.16 139.079 1310.91 139.079 Q1308.31 139.079 1305.47 138.558 Q1302.67 138.066 1299.54 137.054 L1299.54 131.556 Q1302.49 133.09 1305.36 133.871 Q1308.22 134.623 1311.03 134.623 Q1314.79 134.623 1316.82 133.35 Q1318.84 132.048 1318.84 129.704 Q1318.84 127.534 1317.37 126.377 Q1315.92 125.219 1310.97 124.149 L1309.12 123.715 Q1304.17 122.673 1301.97 120.532 Q1299.77 118.362 1299.77 114.6 Q1299.77 110.028 1303.02 107.54 Q1306.26 105.052 1312.22 105.052 Q1315.17 105.052 1317.77 105.486 Q1320.38 105.92 1322.58 106.788 Z" fill="#000000" fill-rule="nonzero" fill-opacity="1" /><path clip-path="url(#clip360)" d="M1359.73 118.68 L1359.73 138.24 L1354.4 138.24 L1354.4 118.854 Q1354.4 114.253 1352.61 111.967 Q1350.82 109.681 1347.23 109.681 Q1342.92 109.681 1340.43 112.43 Q1337.94 115.179 1337.94 119.924 L1337.94 138.24 L1332.59 138.24 L1332.59 93.2171 L1337.94 93.2171 L1337.94 110.867 Q1339.85 107.945 1342.42 106.498 Q1345.03 105.052 1348.41 105.052 Q1354 105.052 1356.86 108.524 Q1359.73 111.967 1359.73 118.68 Z" fill="#000000" fill-rule="nonzero" fill-opacity="1" /><path clip-path="url(#clip360)" d="M1398.07 120.705 L1398.07 123.31 L1373.59 123.31 Q1373.94 128.807 1376.89 131.701 Q1379.87 134.565 1385.16 134.565 Q1388.23 134.565 1391.09 133.813 Q1393.99 133.061 1396.82 131.556 L1396.82 136.591 Q1393.96 137.806 1390.95 138.443 Q1387.94 139.079 1384.84 139.079 Q1377.09 139.079 1372.55 134.565 Q1368.03 130.051 1368.03 122.355 Q1368.03 114.398 1372.31 109.739 Q1376.63 105.052 1383.92 105.052 Q1390.46 105.052 1394.25 109.276 Q1398.07 113.472 1398.07 120.705 M1392.74 119.143 Q1392.68 114.774 1390.28 112.17 Q1387.91 109.565 1383.98 109.565 Q1379.52 109.565 1376.83 112.083 Q1374.17 114.6 1373.76 119.172 L1392.74 119.143 Z" fill="#000000" fill-rule="nonzero" fill-opacity="1" /><path clip-path="url(#clip360)" d="M1402.99 105.833 L1408.63 105.833 L1418.76 133.032 L1428.88 105.833 L1434.52 105.833 L1422.37 138.24 L1415.14 138.24 L1402.99 105.833 Z" fill="#000000" fill-rule="nonzero" fill-opacity="1" /><path clip-path="url(#clip360)" d="M823.417 159.84 L850.732 159.84 L850.732 164.759 L829.262 164.759 L829.262 177.548 L849.835 177.548 L849.835 182.467 L829.262 182.467 L829.262 198.121 L851.253 198.121 L851.253 203.04 L823.417 203.04 L823.417 159.84 Z" fill="#000000" fill-rule="nonzero" fill-opacity="1" /><path clip-path="url(#clip360)" d="M887.566 170.633 L875.847 186.402 L888.174 203.04 L881.895 203.04 L872.462 190.309 L863.029 203.04 L856.75 203.04 L869.337 186.084 L857.821 170.633 L864.1 170.633 L872.694 182.178 L881.287 170.633 L887.566 170.633 Z" fill="#000000" fill-rule="nonzero" fill-opacity="1" /><path clip-path="url(#clip360)" d="M921.594 185.505 L921.594 188.11 L897.115 188.11 Q897.462 193.607 900.413 196.501 Q903.394 199.365 908.689 199.365 Q911.756 199.365 914.62 198.613 Q917.514 197.861 920.35 196.356 L920.35 201.391 Q917.485 202.606 914.476 203.243 Q911.466 203.879 908.37 203.879 Q900.616 203.879 896.073 199.365 Q891.559 194.851 891.559 187.155 Q891.559 179.198 895.842 174.539 Q900.153 169.852 907.444 169.852 Q913.984 169.852 917.774 174.076 Q921.594 178.272 921.594 185.505 M916.27 183.943 Q916.212 179.574 913.81 176.97 Q911.438 174.365 907.502 174.365 Q903.046 174.365 900.355 176.883 Q897.693 179.4 897.288 183.972 L916.27 183.943 Z" fill="#000000" fill-rule="nonzero" fill-opacity="1" /><path clip-path="url(#clip360)" d="M972.433 186.865 Q972.433 180.992 970.002 177.664 Q967.6 174.308 963.376 174.308 Q959.151 174.308 956.721 177.664 Q954.319 180.992 954.319 186.865 Q954.319 192.739 956.721 196.096 Q959.151 199.423 963.376 199.423 Q967.6 199.423 970.002 196.096 Q972.433 192.739 972.433 186.865 M954.319 175.552 Q955.997 172.658 958.544 171.269 Q961.119 169.852 964.678 169.852 Q970.581 169.852 974.255 174.539 Q977.959 179.226 977.959 186.865 Q977.959 194.504 974.255 199.192 Q970.581 203.879 964.678 203.879 Q961.119 203.879 958.544 202.49 Q955.997 201.072 954.319 198.179 L954.319 203.04 L948.966 203.04 L948.966 158.017 L954.319 158.017 L954.319 175.552 Z" fill="#000000" fill-rule="nonzero" fill-opacity="1" /><path clip-path="url(#clip360)" d="M1014.5 185.505 L1014.5 188.11 L990.025 188.11 Q990.372 193.607 993.324 196.501 Q996.304 199.365 1001.6 199.365 Q1004.67 199.365 1007.53 198.613 Q1010.42 197.861 1013.26 196.356 L1013.26 201.391 Q1010.4 202.606 1007.39 203.243 Q1004.38 203.879 1001.28 203.879 Q993.526 203.879 988.983 199.365 Q984.47 194.851 984.47 187.155 Q984.47 179.198 988.752 174.539 Q993.063 169.852 1000.35 169.852 Q1006.89 169.852 1010.68 174.076 Q1014.5 178.272 1014.5 185.505 M1009.18 183.943 Q1009.12 179.574 1006.72 176.97 Q1004.35 174.365 1000.41 174.365 Q995.957 174.365 993.266 176.883 Q990.604 179.4 990.199 183.972 L1009.18 183.943 Z" fill="#000000" fill-rule="nonzero" fill-opacity="1" /><path clip-path="url(#clip360)" d="M1050.18 183.48 L1050.18 203.04 L1044.86 203.04 L1044.86 183.654 Q1044.86 179.053 1043.06 176.767 Q1041.27 174.481 1037.68 174.481 Q1033.37 174.481 1030.88 177.23 Q1028.39 179.979 1028.39 184.724 L1028.39 203.04 L1023.04 203.04 L1023.04 170.633 L1028.39 170.633 L1028.39 175.667 Q1030.3 172.745 1032.88 171.298 Q1035.48 169.852 1038.87 169.852 Q1044.45 169.852 1047.32 173.324 Q1050.18 176.767 1050.18 183.48 Z" fill="#000000" fill-rule="nonzero" fill-opacity="1" /><path clip-path="url(#clip360)" d="M1084.12 171.877 L1084.12 176.854 Q1081.86 175.61 1079.58 175.002 Q1077.32 174.365 1075.01 174.365 Q1069.83 174.365 1066.96 177.664 Q1064.1 180.934 1064.1 186.865 Q1064.1 192.797 1066.96 196.096 Q1069.83 199.365 1075.01 199.365 Q1077.32 199.365 1079.58 198.758 Q1081.86 198.121 1084.12 196.877 L1084.12 201.796 Q1081.89 202.837 1079.49 203.358 Q1077.12 203.879 1074.43 203.879 Q1067.11 203.879 1062.8 199.278 Q1058.49 194.678 1058.49 186.865 Q1058.49 178.937 1062.83 174.394 Q1067.19 169.852 1074.78 169.852 Q1077.24 169.852 1079.58 170.372 Q1081.92 170.864 1084.12 171.877 Z" fill="#000000" fill-rule="nonzero" fill-opacity="1" /><path clip-path="url(#clip360)" d="M1120.32 183.48 L1120.32 203.04 L1115 203.04 L1115 183.654 Q1115 179.053 1113.2 176.767 Q1111.41 174.481 1107.82 174.481 Q1103.51 174.481 1101.02 177.23 Q1098.53 179.979 1098.53 184.724 L1098.53 203.04 L1093.18 203.04 L1093.18 158.017 L1098.53 158.017 L1098.53 175.667 Q1100.44 172.745 1103.02 171.298 Q1105.62 169.852 1109.01 169.852 Q1114.59 169.852 1117.45 173.324 Q1120.32 176.767 1120.32 183.48 Z" fill="#000000" fill-rule="nonzero" fill-opacity="1" /><path clip-path="url(#clip360)" d="M1156.17 176.854 Q1158.17 173.266 1160.94 171.559 Q1163.72 169.852 1167.48 169.852 Q1172.55 169.852 1175.3 173.411 Q1178.04 176.941 1178.04 183.48 L1178.04 203.04 L1172.69 203.04 L1172.69 183.654 Q1172.69 178.995 1171.04 176.738 Q1169.39 174.481 1166.01 174.481 Q1161.87 174.481 1159.47 177.23 Q1157.07 179.979 1157.07 184.724 L1157.07 203.04 L1151.71 203.04 L1151.71 183.654 Q1151.71 178.966 1150.06 176.738 Q1148.42 174.481 1144.97 174.481 Q1140.89 174.481 1138.49 177.259 Q1136.09 180.008 1136.09 184.724 L1136.09 203.04 L1130.74 203.04 L1130.74 170.633 L1136.09 170.633 L1136.09 175.667 Q1137.91 172.687 1140.46 171.269 Q1143 169.852 1146.51 169.852 Q1150.04 169.852 1152.5 171.645 Q1154.98 173.439 1156.17 176.854 Z" fill="#000000" fill-rule="nonzero" fill-opacity="1" /><path clip-path="url(#clip360)" d="M1203.39 186.75 Q1196.94 186.75 1194.45 188.225 Q1191.96 189.701 1191.96 193.26 Q1191.96 196.096 1193.81 197.774 Q1195.7 199.423 1198.91 199.423 Q1203.33 199.423 1206 196.298 Q1208.69 193.144 1208.69 187.936 L1208.69 186.75 L1203.39 186.75 M1214.01 184.551 L1214.01 203.04 L1208.69 203.04 L1208.69 198.121 Q1206.86 201.072 1204.14 202.49 Q1201.42 203.879 1197.49 203.879 Q1192.51 203.879 1189.56 201.101 Q1186.64 198.295 1186.64 193.607 Q1186.64 188.138 1190.28 185.361 Q1193.96 182.583 1201.22 182.583 L1208.69 182.583 L1208.69 182.062 Q1208.69 178.387 1206.26 176.391 Q1203.85 174.365 1199.49 174.365 Q1196.71 174.365 1194.07 175.031 Q1191.44 175.696 1189.01 177.027 L1189.01 172.108 Q1191.93 170.98 1194.68 170.43 Q1197.43 169.852 1200.04 169.852 Q1207.07 169.852 1210.54 173.497 Q1214.01 177.143 1214.01 184.551 Z" fill="#000000" fill-rule="nonzero" fill-opacity="1" /><path clip-path="url(#clip360)" d="M1243.76 175.61 Q1242.86 175.089 1241.79 174.857 Q1240.75 174.597 1239.47 174.597 Q1234.96 174.597 1232.53 177.548 Q1230.13 180.471 1230.13 185.968 L1230.13 203.04 L1224.77 203.04 L1224.77 170.633 L1230.13 170.633 L1230.13 175.667 Q1231.81 172.716 1234.5 171.298 Q1237.19 169.852 1241.04 169.852 Q1241.59 169.852 1242.25 169.938 Q1242.92 169.996 1243.73 170.141 L1243.76 175.61 Z" fill="#000000" fill-rule="nonzero" fill-opacity="1" /><path clip-path="url(#clip360)" d="M1249.14 158.017 L1254.49 158.017 L1254.49 184.608 L1270.38 170.633 L1277.18 170.633 L1259.99 185.795 L1277.9 203.04 L1270.96 203.04 L1254.49 187.213 L1254.49 203.04 L1249.14 203.04 L1249.14 158.017 Z" fill="#000000" fill-rule="nonzero" fill-opacity="1" /><path clip-path="url(#clip360)" d="M1285.02 195.691 L1291.12 195.691 L1291.12 200.667 L1286.38 209.927 L1282.65 209.927 L1285.02 200.667 L1285.02 195.691 Z" fill="#000000" fill-rule="nonzero" fill-opacity="1" /><path clip-path="url(#clip360)" d="M1341.99 171.588 L1341.99 176.622 Q1339.73 175.465 1337.3 174.886 Q1334.87 174.308 1332.27 174.308 Q1328.3 174.308 1326.31 175.523 Q1324.34 176.738 1324.34 179.169 Q1324.34 181.02 1325.76 182.091 Q1327.18 183.133 1331.46 184.088 L1333.28 184.493 Q1338.95 185.708 1341.33 187.936 Q1343.73 190.135 1343.73 194.099 Q1343.73 198.613 1340.14 201.246 Q1336.58 203.879 1330.33 203.879 Q1327.73 203.879 1324.89 203.358 Q1322.08 202.866 1318.96 201.854 L1318.96 196.356 Q1321.91 197.89 1324.77 198.671 Q1327.64 199.423 1330.45 199.423 Q1334.21 199.423 1336.23 198.15 Q1338.26 196.848 1338.26 194.504 Q1338.26 192.334 1336.78 191.177 Q1335.34 190.019 1330.39 188.949 L1328.54 188.515 Q1323.59 187.473 1321.39 185.332 Q1319.19 183.162 1319.19 179.4 Q1319.19 174.828 1322.43 172.34 Q1325.67 169.852 1331.63 169.852 Q1334.58 169.852 1337.19 170.286 Q1339.79 170.72 1341.99 171.588 Z" fill="#000000" fill-rule="nonzero" fill-opacity="1" /><path clip-path="url(#clip360)" d="M1352.2 170.633 L1357.53 170.633 L1357.53 203.04 L1352.2 203.04 L1352.2 170.633 M1352.2 158.017 L1357.53 158.017 L1357.53 164.759 L1352.2 164.759 L1352.2 158.017 Z" fill="#000000" fill-rule="nonzero" fill-opacity="1" /><path clip-path="url(#clip360)" d="M1393.9 176.854 Q1395.9 173.266 1398.67 171.559 Q1401.45 169.852 1405.21 169.852 Q1410.28 169.852 1413.03 173.411 Q1415.78 176.941 1415.78 183.48 L1415.78 203.04 L1410.42 203.04 L1410.42 183.654 Q1410.42 178.995 1408.77 176.738 Q1407.12 174.481 1403.74 174.481 Q1399.6 174.481 1397.2 177.23 Q1394.8 179.979 1394.8 184.724 L1394.8 203.04 L1389.44 203.04 L1389.44 183.654 Q1389.44 178.966 1387.79 176.738 Q1386.15 174.481 1382.7 174.481 Q1378.62 174.481 1376.22 177.259 Q1373.82 180.008 1373.82 184.724 L1373.82 203.04 L1368.47 203.04 L1368.47 170.633 L1373.82 170.633 L1373.82 175.667 Q1375.64 172.687 1378.19 171.269 Q1380.73 169.852 1384.24 169.852 Q1387.77 169.852 1390.23 171.645 Q1392.71 173.439 1393.9 176.854 Z" fill="#000000" fill-rule="nonzero" fill-opacity="1" /><path clip-path="url(#clip360)" d="M1431.54 198.179 L1431.54 215.366 L1426.19 215.366 L1426.19 170.633 L1431.54 170.633 L1431.54 175.552 Q1433.22 172.658 1435.77 171.269 Q1438.34 169.852 1441.9 169.852 Q1447.81 169.852 1451.48 174.539 Q1455.18 179.226 1455.18 186.865 Q1455.18 194.504 1451.48 199.192 Q1447.81 203.879 1441.9 203.879 Q1438.34 203.879 1435.77 202.49 Q1433.22 201.072 1431.54 198.179 M1449.66 186.865 Q1449.66 180.992 1447.23 177.664 Q1444.83 174.308 1440.6 174.308 Q1436.38 174.308 1433.95 177.664 Q1431.54 180.992 1431.54 186.865 Q1431.54 192.739 1433.95 196.096 Q1436.38 199.423 1440.6 199.423 Q1444.83 199.423 1447.23 196.096 Q1449.66 192.739 1449.66 186.865 Z" fill="#000000" fill-rule="nonzero" fill-opacity="1" /><path clip-path="url(#clip360)" d="M1464.01 158.017 L1469.33 158.017 L1469.33 203.04 L1464.01 203.04 L1464.01 158.017 Z" fill="#000000" fill-rule="nonzero" fill-opacity="1" /><path clip-path="url(#clip360)" d="M1480.47 170.633 L1485.8 170.633 L1485.8 203.04 L1480.47 203.04 L1480.47 170.633 M1480.47 158.017 L1485.8 158.017 L1485.8 164.759 L1480.47 164.759 L1480.47 158.017 Z" fill="#000000" fill-rule="nonzero" fill-opacity="1" /><path clip-path="url(#clip360)" d="M1513.34 158.017 L1513.34 162.444 L1508.25 162.444 Q1505.39 162.444 1504.26 163.602 Q1503.16 164.759 1503.16 167.768 L1503.16 170.633 L1511.93 170.633 L1511.93 174.77 L1503.16 174.77 L1503.16 203.04 L1497.81 203.04 L1497.81 174.77 L1492.71 174.77 L1492.71 170.633 L1497.81 170.633 L1497.81 168.376 Q1497.81 162.965 1500.32 160.506 Q1502.84 158.017 1508.31 158.017 L1513.34 158.017 Z" fill="#000000" fill-rule="nonzero" fill-opacity="1" /><path clip-path="url(#clip360)" d="M1530.24 206.049 Q1527.99 211.836 1525.84 213.601 Q1523.7 215.366 1520.11 215.366 L1515.86 215.366 L1515.86 210.91 L1518.99 210.91 Q1521.19 210.91 1522.4 209.869 Q1523.62 208.827 1525.09 204.95 L1526.05 202.519 L1512.94 170.633 L1518.58 170.633 L1528.71 195.98 L1538.84 170.633 L1544.48 170.633 L1530.24 206.049 Z" fill="#000000" fill-rule="nonzero" fill-opacity="1" /><path clip-path="url(#clip360)" d="M1571.36 176.13 L1608.45 176.13 L1608.45 180.992 L1571.36 180.992 L1571.36 176.13 M1571.36 187.936 L1608.45 187.936 L1608.45 192.855 L1571.36 192.855 L1571.36 187.936 Z" fill="#000000" fill-rule="nonzero" fill-opacity="1" /><path clip-path="url(#clip360)" d="M1644.42 161.431 L1644.42 170.633 L1655.39 170.633 L1655.39 174.77 L1644.42 174.77 L1644.42 192.363 Q1644.42 196.327 1645.49 197.456 Q1646.59 198.584 1649.92 198.584 L1655.39 198.584 L1655.39 203.04 L1649.92 203.04 Q1643.75 203.04 1641.41 200.754 Q1639.07 198.439 1639.07 192.363 L1639.07 174.77 L1635.16 174.77 L1635.16 170.633 L1639.07 170.633 L1639.07 161.431 L1644.42 161.431 Z" fill="#000000" fill-rule="nonzero" fill-opacity="1" /><path clip-path="url(#clip360)" d="M1681.17 175.61 Q1680.27 175.089 1679.2 174.857 Q1678.16 174.597 1676.88 174.597 Q1672.37 174.597 1669.94 177.548 Q1667.54 180.471 1667.54 185.968 L1667.54 203.04 L1662.19 203.04 L1662.19 170.633 L1667.54 170.633 L1667.54 175.667 Q1669.22 172.716 1671.91 171.298 Q1674.6 169.852 1678.45 169.852 Q1679 169.852 1679.66 169.938 Q1680.33 169.996 1681.14 170.141 L1681.17 175.61 Z" fill="#000000" fill-rule="nonzero" fill-opacity="1" /><path clip-path="url(#clip360)" d="M1686.2 190.251 L1686.2 170.633 L1691.53 170.633 L1691.53 190.048 Q1691.53 194.649 1693.32 196.964 Q1695.11 199.25 1698.7 199.25 Q1703.01 199.25 1705.5 196.501 Q1708.02 193.752 1708.02 189.007 L1708.02 170.633 L1713.34 170.633 L1713.34 203.04 L1708.02 203.04 L1708.02 198.063 Q1706.08 201.015 1703.51 202.461 Q1700.96 203.879 1697.57 203.879 Q1691.99 203.879 1689.1 200.407 Q1686.2 196.935 1686.2 190.251 M1699.6 169.852 L1699.6 169.852 Z" fill="#000000" fill-rule="nonzero" fill-opacity="1" /><path clip-path="url(#clip360)" d="M1752.03 185.505 L1752.03 188.11 L1727.55 188.11 Q1727.9 193.607 1730.85 196.501 Q1733.83 199.365 1739.12 199.365 Q1742.19 199.365 1745.06 198.613 Q1747.95 197.861 1750.78 196.356 L1750.78 201.391 Q1747.92 202.606 1744.91 203.243 Q1741.9 203.879 1738.81 203.879 Q1731.05 203.879 1726.51 199.365 Q1721.99 194.851 1721.99 187.155 Q1721.99 179.198 1726.28 174.539 Q1730.59 169.852 1737.88 169.852 Q1744.42 169.852 1748.21 174.076 Q1752.03 178.272 1752.03 185.505 M1746.71 183.943 Q1746.65 179.574 1744.25 176.97 Q1741.87 174.365 1737.94 174.365 Q1733.48 174.365 1730.79 176.883 Q1728.13 179.4 1727.72 183.972 L1746.71 183.943 Z" fill="#000000" fill-rule="nonzero" fill-opacity="1" /><polyline clip-path="url(#clip362)" style="stroke:#009af9; stroke-linecap:round; stroke-linejoin:round; stroke-width:4; stroke-opacity:1; fill:none" points="282.975,1388.35 378.665,1356.73 474.356,1313.89 570.046,1266.52 665.736,1213.08 761.427,1162.58 857.117,1104.49 952.807,1051.73 1048.5,972.582 1144.19,898.6 1239.88,850.079 1335.57,792.931 1431.26,727.146 1526.95,606.537 1622.64,546.912 1718.33,489.589 1814.02,441.699 1909.71,379.598 2005.4,334.3 2101.09,277.293 2196.78,227.42 "/>
<circle clip-path="url(#clip362)" cx="282.975" cy="1388.35" r="14.4" fill="#009af9" fill-rule="evenodd" fill-opacity="1" stroke="#000000" stroke-opacity="1" stroke-width="3.2"/>
<circle clip-path="url(#clip362)" cx="378.665" cy="1356.73" r="14.4" fill="#009af9" fill-rule="evenodd" fill-opacity="1" stroke="#000000" stroke-opacity="1" stroke-width="3.2"/>
<circle clip-path="url(#clip362)" cx="474.356" cy="1313.89" r="14.4" fill="#009af9" fill-rule="evenodd" fill-opacity="1" stroke="#000000" stroke-opacity="1" stroke-width="3.2"/>
<circle clip-path="url(#clip362)" cx="570.046" cy="1266.52" r="14.4" fill="#009af9" fill-rule="evenodd" fill-opacity="1" stroke="#000000" stroke-opacity="1" stroke-width="3.2"/>
<circle clip-path="url(#clip362)" cx="665.736" cy="1213.08" r="14.4" fill="#009af9" fill-rule="evenodd" fill-opacity="1" stroke="#000000" stroke-opacity="1" stroke-width="3.2"/>
<circle clip-path="url(#clip362)" cx="761.427" cy="1162.58" r="14.4" fill="#009af9" fill-rule="evenodd" fill-opacity="1" stroke="#000000" stroke-opacity="1" stroke-width="3.2"/>
<circle clip-path="url(#clip362)" cx="857.117" cy="1104.49" r="14.4" fill="#009af9" fill-rule="evenodd" fill-opacity="1" stroke="#000000" stroke-opacity="1" stroke-width="3.2"/>
<circle clip-path="url(#clip362)" cx="952.807" cy="1051.73" r="14.4" fill="#009af9" fill-rule="evenodd" fill-opacity="1" stroke="#000000" stroke-opacity="1" stroke-width="3.2"/>
<circle clip-path="url(#clip362)" cx="1048.5" cy="972.582" r="14.4" fill="#009af9" fill-rule="evenodd" fill-opacity="1" stroke="#000000" stroke-opacity="1" stroke-width="3.2"/>
<circle clip-path="url(#clip362)" cx="1144.19" cy="898.6" r="14.4" fill="#009af9" fill-rule="evenodd" fill-opacity="1" stroke="#000000" stroke-opacity="1" stroke-width="3.2"/>
<circle clip-path="url(#clip362)" cx="1239.88" cy="850.079" r="14.4" fill="#009af9" fill-rule="evenodd" fill-opacity="1" stroke="#000000" stroke-opacity="1" stroke-width="3.2"/>
<circle clip-path="url(#clip362)" cx="1335.57" cy="792.931" r="14.4" fill="#009af9" fill-rule="evenodd" fill-opacity="1" stroke="#000000" stroke-opacity="1" stroke-width="3.2"/>
<circle clip-path="url(#clip362)" cx="1431.26" cy="727.146" r="14.4" fill="#009af9" fill-rule="evenodd" fill-opacity="1" stroke="#000000" stroke-opacity="1" stroke-width="3.2"/>
<circle clip-path="url(#clip362)" cx="1526.95" cy="606.537" r="14.4" fill="#009af9" fill-rule="evenodd" fill-opacity="1" stroke="#000000" stroke-opacity="1" stroke-width="3.2"/>
<circle clip-path="url(#clip362)" cx="1622.64" cy="546.912" r="14.4" fill="#009af9" fill-rule="evenodd" fill-opacity="1" stroke="#000000" stroke-opacity="1" stroke-width="3.2"/>
<circle clip-path="url(#clip362)" cx="1718.33" cy="489.589" r="14.4" fill="#009af9" fill-rule="evenodd" fill-opacity="1" stroke="#000000" stroke-opacity="1" stroke-width="3.2"/>
<circle clip-path="url(#clip362)" cx="1814.02" cy="441.699" r="14.4" fill="#009af9" fill-rule="evenodd" fill-opacity="1" stroke="#000000" stroke-opacity="1" stroke-width="3.2"/>
<circle clip-path="url(#clip362)" cx="1909.71" cy="379.598" r="14.4" fill="#009af9" fill-rule="evenodd" fill-opacity="1" stroke="#000000" stroke-opacity="1" stroke-width="3.2"/>
<circle clip-path="url(#clip362)" cx="2005.4" cy="334.3" r="14.4" fill="#009af9" fill-rule="evenodd" fill-opacity="1" stroke="#000000" stroke-opacity="1" stroke-width="3.2"/>
<circle clip-path="url(#clip362)" cx="2101.09" cy="277.293" r="14.4" fill="#009af9" fill-rule="evenodd" fill-opacity="1" stroke="#000000" stroke-opacity="1" stroke-width="3.2"/>
<circle clip-path="url(#clip362)" cx="2196.78" cy="227.42" r="14.4" fill="#009af9" fill-rule="evenodd" fill-opacity="1" stroke="#000000" stroke-opacity="1" stroke-width="3.2"/>
</svg>
