<?xml version="1.0" encoding="utf-8"?>
<svg xmlns="http://www.w3.org/2000/svg" xmlns:xlink="http://www.w3.org/1999/xlink" width="600" height="400" viewBox="0 0 2400 1600">
<defs>
  <clipPath id="clip150">
    <rect x="0" y="0" width="2400" height="1600"/>
  </clipPath>
</defs>
<path clip-path="url(#clip150)" d="M0 1600 L2400 1600 L2400 0 L0 0  Z" fill="#ffffff" fill-rule="evenodd" fill-opacity="1"/>
<defs>
  <clipPath id="clip151">
    <rect x="480" y="0" width="1681" height="1600"/>
  </clipPath>
</defs>
<path clip-path="url(#clip150)" d="M222.69 1423.18 L2352.76 1423.18 L2352.76 192.592 L222.69 192.592  Z" fill="#ffffff" fill-rule="evenodd" fill-opacity="1"/>
<defs>
  <clipPath id="clip152">
    <rect x="222" y="192" width="2131" height="1232"/>
  </clipPath>
</defs>
<polyline clip-path="url(#clip152)" style="stroke:#000000; stroke-linecap:round; stroke-linejoin:round; stroke-width:2; stroke-opacity:0.1; fill:none" points="282.975,1423.18 282.975,192.592 "/>
<polyline clip-path="url(#clip152)" style="stroke:#000000; stroke-linecap:round; stroke-linejoin:round; stroke-width:2; stroke-opacity:0.1; fill:none" points="785.349,1423.18 785.349,192.592 "/>
<polyline clip-path="url(#clip152)" style="stroke:#000000; stroke-linecap:round; stroke-linejoin:round; stroke-width:2; stroke-opacity:0.1; fill:none" points="1287.72,1423.18 1287.72,192.592 "/>
<polyline clip-path="url(#clip152)" style="stroke:#000000; stroke-linecap:round; stroke-linejoin:round; stroke-width:2; stroke-opacity:0.1; fill:none" points="1790.1,1423.18 1790.1,192.592 "/>
<polyline clip-path="url(#clip152)" style="stroke:#000000; stroke-linecap:round; stroke-linejoin:round; stroke-width:2; stroke-opacity:0.1; fill:none" points="2292.47,1423.18 2292.47,192.592 "/>
<polyline clip-path="url(#clip150)" style="stroke:#000000; stroke-linecap:round; stroke-linejoin:round; stroke-width:4; stroke-opacity:1; fill:none" points="222.69,1423.18 2352.76,1423.18 "/>
<polyline clip-path="url(#clip150)" style="stroke:#000000; stroke-linecap:round; stroke-linejoin:round; stroke-width:4; stroke-opacity:1; fill:none" points="282.975,1423.18 282.975,1404.28 "/>
<polyline clip-path="url(#clip150)" style="stroke:#000000; stroke-linecap:round; stroke-linejoin:round; stroke-width:4; stroke-opacity:1; fill:none" points="785.349,1423.18 785.349,1404.28 "/>
<polyline clip-path="url(#clip150)" style="stroke:#000000; stroke-linecap:round; stroke-linejoin:round; stroke-width:4; stroke-opacity:1; fill:none" points="1287.72,1423.18 1287.72,1404.28 "/>
<polyline clip-path="url(#clip150)" style="stroke:#000000; stroke-linecap:round; stroke-linejoin:round; stroke-width:4; stroke-opacity:1; fill:none" points="1790.1,1423.18 1790.1,1404.28 "/>
<polyline clip-path="url(#clip150)" style="stroke:#000000; stroke-linecap:round; stroke-linejoin:round; stroke-width:4; stroke-opacity:1; fill:none" points="2292.47,1423.18 2292.47,1404.28 "/>
<polyline clip-path="url(#clip150)" style="stroke:#000000; stroke-linecap:round; stroke-linejoin:round; stroke-width:4; stroke-opacity:1; fill:none" points="383.45,1423.18 383.45,1413.73 "/>
<polyline clip-path="url(#clip150)" style="stroke:#000000; stroke-linecap:round; stroke-linejoin:round; stroke-width:4; stroke-opacity:1; fill:none" points="483.925,1423.18 483.925,1413.73 "/>
<polyline clip-path="url(#clip150)" style="stroke:#000000; stroke-linecap:round; stroke-linejoin:round; stroke-width:4; stroke-opacity:1; fill:none" points="584.4,1423.18 584.4,1413.73 "/>
<polyline clip-path="url(#clip150)" style="stroke:#000000; stroke-linecap:round; stroke-linejoin:round; stroke-width:4; stroke-opacity:1; fill:none" points="684.874,1423.18 684.874,1413.73 "/>
<polyline clip-path="url(#clip150)" style="stroke:#000000; stroke-linecap:round; stroke-linejoin:round; stroke-width:4; stroke-opacity:1; fill:none" points="885.824,1423.18 885.824,1413.73 "/>
<polyline clip-path="url(#clip150)" style="stroke:#000000; stroke-linecap:round; stroke-linejoin:round; stroke-width:4; stroke-opacity:1; fill:none" points="986.299,1423.18 986.299,1413.73 "/>
<polyline clip-path="url(#clip150)" style="stroke:#000000; stroke-linecap:round; stroke-linejoin:round; stroke-width:4; stroke-opacity:1; fill:none" points="1086.77,1423.18 1086.77,1413.73 "/>
<polyline clip-path="url(#clip150)" style="stroke:#000000; stroke-linecap:round; stroke-linejoin:round; stroke-width:4; stroke-opacity:1; fill:none" points="1187.25,1423.18 1187.25,1413.73 "/>
<polyline clip-path="url(#clip150)" style="stroke:#000000; stroke-linecap:round; stroke-linejoin:round; stroke-width:4; stroke-opacity:1; fill:none" points="1388.2,1423.18 1388.2,1413.73 "/>
<polyline clip-path="url(#clip150)" style="stroke:#000000; stroke-linecap:round; stroke-linejoin:round; stroke-width:4; stroke-opacity:1; fill:none" points="1488.67,1423.18 1488.67,1413.73 "/>
<polyline clip-path="url(#clip150)" style="stroke:#000000; stroke-linecap:round; stroke-linejoin:round; stroke-width:4; stroke-opacity:1; fill:none" points="1589.15,1423.18 1589.15,1413.73 "/>
<polyline clip-path="url(#clip150)" style="stroke:#000000; stroke-linecap:round; stroke-linejoin:round; stroke-width:4; stroke-opacity:1; fill:none" points="1689.62,1423.18 1689.62,1413.73 "/>
<polyline clip-path="url(#clip150)" style="stroke:#000000; stroke-linecap:round; stroke-linejoin:round; stroke-width:4; stroke-opacity:1; fill:none" points="1890.57,1423.18 1890.57,1413.73 "/>
<polyline clip-path="url(#clip150)" style="stroke:#000000; stroke-linecap:round; stroke-linejoin:round; stroke-width:4; stroke-opacity:1; fill:none" points="1991.05,1423.18 1991.05,1413.73 "/>
<polyline clip-path="url(#clip150)" style="stroke:#000000; stroke-linecap:round; stroke-linejoin:round; stroke-width:4; stroke-opacity:1; fill:none" points="2091.52,1423.18 2091.52,1413.73 "/>
<polyline clip-path="url(#clip150)" style="stroke:#000000; stroke-linecap:round; stroke-linejoin:round; stroke-width:4; stroke-opacity:1; fill:none" points="2192,1423.18 2192,1413.73 "/>
<path clip-path="url(#clip150)" d="M273.253 1451.02 L291.609 1451.02 L291.609 1454.96 L277.535 1454.96 L277.535 1463.43 Q278.554 1463.08 279.572 1462.92 Q280.591 1462.73 281.609 1462.73 Q287.396 1462.73 290.776 1465.9 Q294.156 1469.08 294.156 1474.49 Q294.156 1480.07 290.683 1483.17 Q287.211 1486.25 280.892 1486.25 Q278.716 1486.25 276.447 1485.88 Q274.202 1485.51 271.795 1484.77 L271.795 1480.07 Q273.878 1481.2 276.1 1481.76 Q278.322 1482.32 280.799 1482.32 Q284.804 1482.32 287.142 1480.21 Q289.48 1478.1 289.48 1474.49 Q289.48 1470.88 287.142 1468.77 Q284.804 1466.67 280.799 1466.67 Q278.924 1466.67 277.049 1467.08 Q275.197 1467.5 273.253 1468.38 L273.253 1451.02 Z" fill="#000000" fill-rule="nonzero" fill-opacity="1" /><path clip-path="url(#clip150)" d="M760.037 1481.64 L767.676 1481.64 L767.676 1455.28 L759.366 1456.95 L759.366 1452.69 L767.629 1451.02 L772.305 1451.02 L772.305 1481.64 L779.944 1481.64 L779.944 1485.58 L760.037 1485.58 L760.037 1481.64 Z" fill="#000000" fill-rule="nonzero" fill-opacity="1" /><path clip-path="url(#clip150)" d="M799.388 1454.1 Q795.777 1454.1 793.949 1457.66 Q792.143 1461.2 792.143 1468.33 Q792.143 1475.44 793.949 1479.01 Q795.777 1482.55 799.388 1482.55 Q803.023 1482.55 804.828 1479.01 Q806.657 1475.44 806.657 1468.33 Q806.657 1461.2 804.828 1457.66 Q803.023 1454.1 799.388 1454.1 M799.388 1450.39 Q805.199 1450.39 808.254 1455 Q811.333 1459.58 811.333 1468.33 Q811.333 1477.06 808.254 1481.67 Q805.199 1486.25 799.388 1486.25 Q793.578 1486.25 790.5 1481.67 Q787.444 1477.06 787.444 1468.33 Q787.444 1459.58 790.5 1455 Q793.578 1450.39 799.388 1450.39 Z" fill="#000000" fill-rule="nonzero" fill-opacity="1" /><path clip-path="url(#clip150)" d="M1262.91 1481.64 L1270.55 1481.64 L1270.55 1455.28 L1262.24 1456.95 L1262.24 1452.69 L1270.5 1451.02 L1275.18 1451.02 L1275.18 1481.64 L1282.82 1481.64 L1282.82 1485.58 L1262.91 1485.58 L1262.91 1481.64 Z" fill="#000000" fill-rule="nonzero" fill-opacity="1" /><path clip-path="url(#clip150)" d="M1292.31 1451.02 L1310.66 1451.02 L1310.66 1454.96 L1296.59 1454.96 L1296.59 1463.43 Q1297.61 1463.08 1298.63 1462.92 Q1299.64 1462.73 1300.66 1462.73 Q1306.45 1462.73 1309.83 1465.9 Q1313.21 1469.08 1313.21 1474.49 Q1313.21 1480.07 1309.74 1483.17 Q1306.26 1486.25 1299.95 1486.25 Q1297.77 1486.25 1295.5 1485.88 Q1293.26 1485.51 1290.85 1484.77 L1290.85 1480.07 Q1292.93 1481.2 1295.15 1481.76 Q1297.38 1482.32 1299.85 1482.32 Q1303.86 1482.32 1306.2 1480.21 Q1308.53 1478.1 1308.53 1474.49 Q1308.53 1470.88 1306.2 1468.77 Q1303.86 1466.67 1299.85 1466.67 Q1297.98 1466.67 1296.1 1467.08 Q1294.25 1467.5 1292.31 1468.38 L1292.31 1451.02 Z" fill="#000000" fill-rule="nonzero" fill-opacity="1" /><path clip-path="url(#clip150)" d="M1768.87 1481.64 L1785.19 1481.64 L1785.19 1485.58 L1763.25 1485.58 L1763.25 1481.64 Q1765.91 1478.89 1770.49 1474.26 Q1775.1 1469.61 1776.28 1468.27 Q1778.52 1465.74 1779.4 1464.01 Q1780.31 1462.25 1780.31 1460.56 Q1780.31 1457.8 1778.36 1456.07 Q1776.44 1454.33 1773.34 1454.33 Q1771.14 1454.33 1768.69 1455.09 Q1766.25 1455.86 1763.48 1457.41 L1763.48 1452.69 Q1766.3 1451.55 1768.75 1450.97 Q1771.21 1450.39 1773.25 1450.39 Q1778.62 1450.39 1781.81 1453.08 Q1785 1455.77 1785 1460.26 Q1785 1462.39 1784.19 1464.31 Q1783.41 1466.2 1781.3 1468.8 Q1780.72 1469.47 1777.62 1472.69 Q1774.52 1475.88 1768.87 1481.64 Z" fill="#000000" fill-rule="nonzero" fill-opacity="1" /><path clip-path="url(#clip150)" d="M1805 1454.1 Q1801.39 1454.1 1799.56 1457.66 Q1797.76 1461.2 1797.76 1468.33 Q1797.76 1475.44 1799.56 1479.01 Q1801.39 1482.55 1805 1482.55 Q1808.64 1482.55 1810.44 1479.01 Q1812.27 1475.44 1812.27 1468.33 Q1812.27 1461.2 1810.44 1457.66 Q1808.64 1454.1 1805 1454.1 M1805 1450.39 Q1810.81 1450.39 1813.87 1455 Q1816.95 1459.58 1816.95 1468.33 Q1816.95 1477.06 1813.87 1481.67 Q1810.81 1486.25 1805 1486.25 Q1799.19 1486.25 1796.12 1481.67 Q1793.06 1477.06 1793.06 1468.33 Q1793.06 1459.58 1796.12 1455 Q1799.19 1450.39 1805 1450.39 Z" fill="#000000" fill-rule="nonzero" fill-opacity="1" /><path clip-path="url(#clip150)" d="M2271.74 1481.64 L2288.06 1481.64 L2288.06 1485.58 L2266.12 1485.58 L2266.12 1481.64 Q2268.78 1478.89 2273.36 1474.26 Q2277.97 1469.61 2279.15 1468.27 Q2281.39 1465.74 2282.27 1464.01 Q2283.18 1462.25 2283.18 1460.56 Q2283.18 1457.8 2281.23 1456.07 Q2279.31 1454.33 2276.21 1454.33 Q2274.01 1454.33 2271.56 1455.09 Q2269.13 1455.86 2266.35 1457.41 L2266.35 1452.69 Q2269.17 1451.55 2271.63 1450.97 Q2274.08 1450.39 2276.12 1450.39 Q2281.49 1450.39 2284.68 1453.08 Q2287.88 1455.77 2287.88 1460.26 Q2287.88 1462.39 2287.07 1464.31 Q2286.28 1466.2 2284.17 1468.8 Q2283.59 1469.47 2280.49 1472.69 Q2277.39 1475.88 2271.74 1481.64 Z" fill="#000000" fill-rule="nonzero" fill-opacity="1" /><path clip-path="url(#clip150)" d="M2297.92 1451.02 L2316.28 1451.02 L2316.28 1454.96 L2302.2 1454.96 L2302.2 1463.43 Q2303.22 1463.08 2304.24 1462.92 Q2305.26 1462.73 2306.28 1462.73 Q2312.07 1462.73 2315.45 1465.9 Q2318.83 1469.08 2318.83 1474.49 Q2318.83 1480.07 2315.35 1483.17 Q2311.88 1486.25 2305.56 1486.25 Q2303.39 1486.25 2301.12 1485.88 Q2298.87 1485.51 2296.46 1484.77 L2296.46 1480.07 Q2298.55 1481.2 2300.77 1481.76 Q2302.99 1482.32 2305.47 1482.32 Q2309.47 1482.32 2311.81 1480.21 Q2314.15 1478.1 2314.15 1474.49 Q2314.15 1470.88 2311.81 1468.77 Q2309.47 1466.67 2305.47 1466.67 Q2303.59 1466.67 2301.72 1467.08 Q2299.87 1467.5 2297.92 1468.38 L2297.92 1451.02 Z" fill="#000000" fill-rule="nonzero" fill-opacity="1" /><path clip-path="url(#clip150)" d="M958.473 1533.76 L958.473 1539.24 Q955.99 1537.87 953.476 1537.2 Q950.993 1536.5 948.447 1536.5 Q942.75 1536.5 939.599 1540.13 Q936.448 1543.73 936.448 1550.25 Q936.448 1556.78 939.599 1560.4 Q942.75 1564 948.447 1564 Q950.993 1564 953.476 1563.33 Q955.99 1562.63 958.473 1561.26 L958.473 1566.68 Q956.022 1567.82 953.38 1568.39 Q950.77 1568.97 947.81 1568.97 Q939.758 1568.97 935.015 1563.91 Q930.273 1558.85 930.273 1550.25 Q930.273 1541.53 935.047 1536.53 Q939.853 1531.54 948.192 1531.54 Q950.898 1531.54 953.476 1532.11 Q956.054 1532.65 958.473 1533.76 Z" fill="#000000" fill-rule="nonzero" fill-opacity="1" /><path clip-path="url(#clip150)" d="M998.29 1546.53 L998.29 1568.04 L992.434 1568.04 L992.434 1546.72 Q992.434 1541.66 990.461 1539.14 Q988.487 1536.63 984.54 1536.63 Q979.798 1536.63 977.061 1539.65 Q974.323 1542.68 974.323 1547.9 L974.323 1568.04 L968.435 1568.04 L968.435 1518.52 L974.323 1518.52 L974.323 1537.93 Q976.424 1534.72 979.257 1533.13 Q982.121 1531.54 985.845 1531.54 Q991.988 1531.54 995.139 1535.36 Q998.29 1539.14 998.29 1546.53 Z" fill="#000000" fill-rule="nonzero" fill-opacity="1" /><path clip-path="url(#clip150)" d="M1040.46 1548.76 L1040.46 1551.62 L1013.54 1551.62 Q1013.92 1557.67 1017.16 1560.85 Q1020.44 1564 1026.27 1564 Q1029.64 1564 1032.79 1563.17 Q1035.98 1562.35 1039.09 1560.69 L1039.09 1566.23 Q1035.94 1567.57 1032.63 1568.27 Q1029.32 1568.97 1025.92 1568.97 Q1017.39 1568.97 1012.39 1564 Q1007.43 1559.04 1007.43 1550.57 Q1007.43 1541.82 1012.14 1536.69 Q1016.88 1531.54 1024.9 1531.54 Q1032.09 1531.54 1036.26 1536.18 Q1040.46 1540.8 1040.46 1548.76 M1034.61 1547.04 Q1034.54 1542.23 1031.9 1539.37 Q1029.29 1536.5 1024.96 1536.5 Q1020.06 1536.5 1017.1 1539.27 Q1014.17 1542.04 1013.73 1547.07 L1034.61 1547.04 Z" fill="#000000" fill-rule="nonzero" fill-opacity="1" /><path clip-path="url(#clip150)" d="M1075.67 1550.25 Q1075.67 1543.79 1072.99 1540.13 Q1070.35 1536.44 1065.7 1536.44 Q1061.06 1536.44 1058.38 1540.13 Q1055.74 1543.79 1055.74 1550.25 Q1055.74 1556.71 1058.38 1560.4 Q1061.06 1564.07 1065.7 1564.07 Q1070.35 1564.07 1072.99 1560.4 Q1075.67 1556.71 1075.67 1550.25 M1055.74 1537.81 Q1057.59 1534.62 1060.39 1533.1 Q1063.22 1531.54 1067.14 1531.54 Q1073.63 1531.54 1077.67 1536.69 Q1081.74 1541.85 1081.74 1550.25 Q1081.74 1558.65 1077.67 1563.81 Q1073.63 1568.97 1067.14 1568.97 Q1063.22 1568.97 1060.39 1567.44 Q1057.59 1565.88 1055.74 1562.7 L1055.74 1568.04 L1049.85 1568.04 L1049.85 1518.52 L1055.74 1518.52 L1055.74 1537.81 Z" fill="#000000" fill-rule="nonzero" fill-opacity="1" /><path clip-path="url(#clip150)" d="M1106.28 1571.35 Q1103.8 1577.72 1101.45 1579.66 Q1099.09 1581.6 1095.14 1581.6 L1090.47 1581.6 L1090.47 1576.7 L1093.9 1576.7 Q1096.32 1576.7 1097.66 1575.56 Q1099 1574.41 1100.62 1570.14 L1101.67 1567.47 L1087.25 1532.4 L1093.46 1532.4 L1104.6 1560.28 L1115.74 1532.4 L1121.94 1532.4 L1106.28 1571.35 Z" fill="#000000" fill-rule="nonzero" fill-opacity="1" /><path clip-path="url(#clip150)" d="M1152.75 1533.45 L1152.75 1538.98 Q1150.27 1537.71 1147.6 1537.07 Q1144.92 1536.44 1142.06 1536.44 Q1137.7 1536.44 1135.5 1537.77 Q1133.34 1539.11 1133.34 1541.79 Q1133.34 1543.82 1134.9 1545 Q1136.46 1546.15 1141.17 1547.2 L1143.17 1547.64 Q1149.41 1548.98 1152.02 1551.43 Q1154.66 1553.85 1154.66 1558.21 Q1154.66 1563.17 1150.72 1566.07 Q1146.8 1568.97 1139.93 1568.97 Q1137.06 1568.97 1133.94 1568.39 Q1130.86 1567.85 1127.42 1566.74 L1127.42 1560.69 Q1130.67 1562.38 1133.82 1563.24 Q1136.97 1564.07 1140.05 1564.07 Q1144.19 1564.07 1146.42 1562.66 Q1148.65 1561.23 1148.65 1558.65 Q1148.65 1556.27 1147.03 1554.99 Q1145.43 1553.72 1139.99 1552.54 L1137.95 1552.07 Q1132.51 1550.92 1130.09 1548.56 Q1127.67 1546.18 1127.67 1542.04 Q1127.67 1537.01 1131.24 1534.27 Q1134.8 1531.54 1141.36 1531.54 Q1144.61 1531.54 1147.47 1532.01 Q1150.34 1532.49 1152.75 1533.45 Z" fill="#000000" fill-rule="nonzero" fill-opacity="1" /><path clip-path="url(#clip150)" d="M1193.62 1546.53 L1193.62 1568.04 L1187.77 1568.04 L1187.77 1546.72 Q1187.77 1541.66 1185.79 1539.14 Q1183.82 1536.63 1179.87 1536.63 Q1175.13 1536.63 1172.39 1539.65 Q1169.66 1542.68 1169.66 1547.9 L1169.66 1568.04 L1163.77 1568.04 L1163.77 1518.52 L1169.66 1518.52 L1169.66 1537.93 Q1171.76 1534.72 1174.59 1533.13 Q1177.45 1531.54 1181.18 1531.54 Q1187.32 1531.54 1190.47 1535.36 Q1193.62 1539.14 1193.62 1546.53 Z" fill="#000000" fill-rule="nonzero" fill-opacity="1" /><path clip-path="url(#clip150)" d="M1235.79 1548.76 L1235.79 1551.62 L1208.87 1551.62 Q1209.25 1557.67 1212.5 1560.85 Q1215.77 1564 1221.6 1564 Q1224.97 1564 1228.12 1563.17 Q1231.31 1562.35 1234.43 1560.69 L1234.43 1566.23 Q1231.28 1567.57 1227.97 1568.27 Q1224.65 1568.97 1221.25 1568.97 Q1212.72 1568.97 1207.72 1564 Q1202.76 1559.04 1202.76 1550.57 Q1202.76 1541.82 1207.47 1536.69 Q1212.21 1531.54 1220.23 1531.54 Q1227.42 1531.54 1231.59 1536.18 Q1235.79 1540.8 1235.79 1548.76 M1229.94 1547.04 Q1229.87 1542.23 1227.23 1539.37 Q1224.62 1536.5 1220.29 1536.5 Q1215.39 1536.5 1212.43 1539.27 Q1209.5 1542.04 1209.06 1547.07 L1229.94 1547.04 Z" fill="#000000" fill-rule="nonzero" fill-opacity="1" /><path clip-path="url(#clip150)" d="M1241.21 1532.4 L1247.41 1532.4 L1258.55 1562.31 L1269.69 1532.4 L1275.9 1532.4 L1262.53 1568.04 L1254.57 1568.04 L1241.21 1532.4 Z" fill="#000000" fill-rule="nonzero" fill-opacity="1" /><path clip-path="url(#clip150)" d="M1332.46 1539.24 Q1334.65 1535.29 1337.71 1533.41 Q1340.77 1531.54 1344.9 1531.54 Q1350.47 1531.54 1353.5 1535.45 Q1356.52 1539.33 1356.52 1546.53 L1356.52 1568.04 L1350.63 1568.04 L1350.63 1546.72 Q1350.63 1541.59 1348.82 1539.11 Q1347 1536.63 1343.28 1536.63 Q1338.73 1536.63 1336.09 1539.65 Q1333.44 1542.68 1333.44 1547.9 L1333.44 1568.04 L1327.56 1568.04 L1327.56 1546.72 Q1327.56 1541.56 1325.74 1539.11 Q1323.93 1536.63 1320.14 1536.63 Q1315.65 1536.63 1313.01 1539.68 Q1310.37 1542.71 1310.37 1547.9 L1310.37 1568.04 L1304.48 1568.04 L1304.48 1532.4 L1310.37 1532.4 L1310.37 1537.93 Q1312.37 1534.66 1315.18 1533.1 Q1317.98 1531.54 1321.83 1531.54 Q1325.71 1531.54 1328.42 1533.51 Q1331.15 1535.48 1332.46 1539.24 Z" fill="#000000" fill-rule="nonzero" fill-opacity="1" /><path clip-path="url(#clip150)" d="M1382.02 1536.5 Q1377.3 1536.5 1374.57 1540.19 Q1371.83 1543.85 1371.83 1550.25 Q1371.83 1556.65 1374.54 1560.34 Q1377.27 1564 1382.02 1564 Q1386.69 1564 1389.43 1560.31 Q1392.17 1556.62 1392.17 1550.25 Q1392.17 1543.92 1389.43 1540.23 Q1386.69 1536.5 1382.02 1536.5 M1382.02 1531.54 Q1389.65 1531.54 1394.01 1536.5 Q1398.38 1541.47 1398.38 1550.25 Q1398.38 1559 1394.01 1564 Q1389.65 1568.97 1382.02 1568.97 Q1374.34 1568.97 1369.98 1564 Q1365.66 1559 1365.66 1550.25 Q1365.66 1541.47 1369.98 1536.5 Q1374.34 1531.54 1382.02 1531.54 Z" fill="#000000" fill-rule="nonzero" fill-opacity="1" /><path clip-path="url(#clip150)" d="M1431.54 1537.81 L1431.54 1518.52 L1437.4 1518.52 L1437.4 1568.04 L1431.54 1568.04 L1431.54 1562.7 Q1429.69 1565.88 1426.86 1567.44 Q1424.06 1568.97 1420.11 1568.97 Q1413.65 1568.97 1409.58 1563.81 Q1405.54 1558.65 1405.54 1550.25 Q1405.54 1541.85 1409.58 1536.69 Q1413.65 1531.54 1420.11 1531.54 Q1424.06 1531.54 1426.86 1533.1 Q1429.69 1534.62 1431.54 1537.81 M1411.58 1550.25 Q1411.58 1556.71 1414.23 1560.4 Q1416.9 1564.07 1421.55 1564.07 Q1426.19 1564.07 1428.87 1560.4 Q1431.54 1556.71 1431.54 1550.25 Q1431.54 1543.79 1428.87 1540.13 Q1426.19 1536.44 1421.55 1536.44 Q1416.9 1536.44 1414.23 1540.13 Q1411.58 1543.79 1411.58 1550.25 Z" fill="#000000" fill-rule="nonzero" fill-opacity="1" /><path clip-path="url(#clip150)" d="M1479.95 1548.76 L1479.95 1551.62 L1453.02 1551.62 Q1453.41 1557.67 1456.65 1560.85 Q1459.93 1564 1465.76 1564 Q1469.13 1564 1472.28 1563.17 Q1475.46 1562.35 1478.58 1560.69 L1478.58 1566.23 Q1475.43 1567.57 1472.12 1568.27 Q1468.81 1568.97 1465.41 1568.97 Q1456.88 1568.97 1451.88 1564 Q1446.91 1559.04 1446.91 1550.57 Q1446.91 1541.82 1451.62 1536.69 Q1456.37 1531.54 1464.39 1531.54 Q1471.58 1531.54 1475.75 1536.18 Q1479.95 1540.8 1479.95 1548.76 M1474.1 1547.04 Q1474.03 1542.23 1471.39 1539.37 Q1468.78 1536.5 1464.45 1536.5 Q1459.55 1536.5 1456.59 1539.27 Q1453.66 1542.04 1453.22 1547.07 L1474.1 1547.04 Z" fill="#000000" fill-rule="nonzero" fill-opacity="1" /><path clip-path="url(#clip150)" d="M1489.56 1518.52 L1495.42 1518.52 L1495.42 1568.04 L1489.56 1568.04 L1489.56 1518.52 Z" fill="#000000" fill-rule="nonzero" fill-opacity="1" /><path clip-path="url(#clip150)" d="M1551.12 1533.45 L1551.12 1538.98 Q1548.64 1537.71 1545.96 1537.07 Q1543.29 1536.44 1540.43 1536.44 Q1536.07 1536.44 1533.87 1537.77 Q1531.7 1539.11 1531.7 1541.79 Q1531.7 1543.82 1533.26 1545 Q1534.82 1546.15 1539.53 1547.2 L1541.54 1547.64 Q1547.78 1548.98 1550.39 1551.43 Q1553.03 1553.85 1553.03 1558.21 Q1553.03 1563.17 1549.08 1566.07 Q1545.17 1568.97 1538.29 1568.97 Q1535.43 1568.97 1532.31 1568.39 Q1529.22 1567.85 1525.78 1566.74 L1525.78 1560.69 Q1529.03 1562.38 1532.18 1563.24 Q1535.33 1564.07 1538.42 1564.07 Q1542.56 1564.07 1544.79 1562.66 Q1547.01 1561.23 1547.01 1558.65 Q1547.01 1556.27 1545.39 1554.99 Q1543.8 1553.72 1538.36 1552.54 L1536.32 1552.07 Q1530.88 1550.92 1528.46 1548.56 Q1526.04 1546.18 1526.04 1542.04 Q1526.04 1537.01 1529.6 1534.27 Q1533.17 1531.54 1539.73 1531.54 Q1542.97 1531.54 1545.84 1532.01 Q1548.7 1532.49 1551.12 1533.45 Z" fill="#000000" fill-rule="nonzero" fill-opacity="1" /><path clip-path="url(#clip150)" d="M1562.36 1532.4 L1568.21 1532.4 L1568.21 1568.04 L1562.36 1568.04 L1562.36 1532.4 M1562.36 1518.52 L1568.21 1518.52 L1568.21 1525.93 L1562.36 1525.93 L1562.36 1518.52 Z" fill="#000000" fill-rule="nonzero" fill-opacity="1" /><path clip-path="url(#clip150)" d="M1577.92 1532.4 L1605.74 1532.4 L1605.74 1537.74 L1583.71 1563.37 L1605.74 1563.37 L1605.74 1568.04 L1577.12 1568.04 L1577.12 1562.7 L1599.15 1537.07 L1577.92 1537.07 L1577.92 1532.4 Z" fill="#000000" fill-rule="nonzero" fill-opacity="1" /><path clip-path="url(#clip150)" d="M1645.17 1548.76 L1645.17 1551.62 L1618.25 1551.62 Q1618.63 1557.67 1621.87 1560.85 Q1625.15 1564 1630.98 1564 Q1634.35 1564 1637.5 1563.17 Q1640.69 1562.35 1643.8 1560.69 L1643.8 1566.23 Q1640.65 1567.57 1637.34 1568.27 Q1634.03 1568.97 1630.63 1568.97 Q1622.1 1568.97 1617.1 1564 Q1612.14 1559.04 1612.14 1550.57 Q1612.14 1541.82 1616.85 1536.69 Q1621.59 1531.54 1629.61 1531.54 Q1636.8 1531.54 1640.97 1536.18 Q1645.17 1540.8 1645.17 1548.76 M1639.32 1547.04 Q1639.25 1542.23 1636.61 1539.37 Q1634 1536.5 1629.67 1536.5 Q1624.77 1536.5 1621.81 1539.27 Q1618.88 1542.04 1618.44 1547.07 L1639.32 1547.04 Z" fill="#000000" fill-rule="nonzero" fill-opacity="1" /><polyline clip-path="url(#clip152)" style="stroke:#000000; stroke-linecap:round; stroke-linejoin:round; stroke-width:2; stroke-opacity:0.1; fill:none" points="222.69,1368.21 2352.76,1368.21 "/>
<polyline clip-path="url(#clip152)" style="stroke:#000000; stroke-linecap:round; stroke-linejoin:round; stroke-width:2; stroke-opacity:0.1; fill:none" points="222.69,1113.37 2352.76,1113.37 "/>
<polyline clip-path="url(#clip152)" style="stroke:#000000; stroke-linecap:round; stroke-linejoin:round; stroke-width:2; stroke-opacity:0.1; fill:none" points="222.69,858.527 2352.76,858.527 "/>
<polyline clip-path="url(#clip152)" style="stroke:#000000; stroke-linecap:round; stroke-linejoin:round; stroke-width:2; stroke-opacity:0.1; fill:none" points="222.69,603.685 2352.76,603.685 "/>
<polyline clip-path="url(#clip152)" style="stroke:#000000; stroke-linecap:round; stroke-linejoin:round; stroke-width:2; stroke-opacity:0.1; fill:none" points="222.69,348.843 2352.76,348.843 "/>
<polyline clip-path="url(#clip150)" style="stroke:#000000; stroke-linecap:round; stroke-linejoin:round; stroke-width:4; stroke-opacity:1; fill:none" points="222.69,1423.18 222.69,192.592 "/>
<polyline clip-path="url(#clip150)" style="stroke:#000000; stroke-linecap:round; stroke-linejoin:round; stroke-width:4; stroke-opacity:1; fill:none" points="222.69,1368.21 241.588,1368.21 "/>
<polyline clip-path="url(#clip150)" style="stroke:#000000; stroke-linecap:round; stroke-linejoin:round; stroke-width:4; stroke-opacity:1; fill:none" points="222.69,1113.37 241.588,1113.37 "/>
<polyline clip-path="url(#clip150)" style="stroke:#000000; stroke-linecap:round; stroke-linejoin:round; stroke-width:4; stroke-opacity:1; fill:none" points="222.69,858.527 241.588,858.527 "/>
<polyline clip-path="url(#clip150)" style="stroke:#000000; stroke-linecap:round; stroke-linejoin:round; stroke-width:4; stroke-opacity:1; fill:none" points="222.69,603.685 241.588,603.685 "/>
<polyline clip-path="url(#clip150)" style="stroke:#000000; stroke-linecap:round; stroke-linejoin:round; stroke-width:4; stroke-opacity:1; fill:none" points="222.69,348.843 241.588,348.843 "/>
<polyline clip-path="url(#clip150)" style="stroke:#000000; stroke-linecap:round; stroke-linejoin:round; stroke-width:4; stroke-opacity:1; fill:none" points="222.69,1417.6 232.139,1417.6 "/>
<polyline clip-path="url(#clip150)" style="stroke:#000000; stroke-linecap:round; stroke-linejoin:round; stroke-width:4; stroke-opacity:1; fill:none" points="222.69,1390.18 232.139,1390.18 "/>
<polyline clip-path="url(#clip150)" style="stroke:#000000; stroke-linecap:round; stroke-linejoin:round; stroke-width:4; stroke-opacity:1; fill:none" points="222.69,1254.26 232.139,1254.26 "/>
<polyline clip-path="url(#clip150)" style="stroke:#000000; stroke-linecap:round; stroke-linejoin:round; stroke-width:4; stroke-opacity:1; fill:none" points="222.69,1199.31 232.139,1199.31 "/>
<polyline clip-path="url(#clip150)" style="stroke:#000000; stroke-linecap:round; stroke-linejoin:round; stroke-width:4; stroke-opacity:1; fill:none" points="222.69,1162.76 232.139,1162.76 "/>
<polyline clip-path="url(#clip150)" style="stroke:#000000; stroke-linecap:round; stroke-linejoin:round; stroke-width:4; stroke-opacity:1; fill:none" points="222.69,1135.33 232.139,1135.33 "/>
<polyline clip-path="url(#clip150)" style="stroke:#000000; stroke-linecap:round; stroke-linejoin:round; stroke-width:4; stroke-opacity:1; fill:none" points="222.69,999.414 232.139,999.414 "/>
<polyline clip-path="url(#clip150)" style="stroke:#000000; stroke-linecap:round; stroke-linejoin:round; stroke-width:4; stroke-opacity:1; fill:none" points="222.69,944.471 232.139,944.471 "/>
<polyline clip-path="url(#clip150)" style="stroke:#000000; stroke-linecap:round; stroke-linejoin:round; stroke-width:4; stroke-opacity:1; fill:none" points="222.69,907.921 232.139,907.921 "/>
<polyline clip-path="url(#clip150)" style="stroke:#000000; stroke-linecap:round; stroke-linejoin:round; stroke-width:4; stroke-opacity:1; fill:none" points="222.69,880.491 232.139,880.491 "/>
<polyline clip-path="url(#clip150)" style="stroke:#000000; stroke-linecap:round; stroke-linejoin:round; stroke-width:4; stroke-opacity:1; fill:none" points="222.69,744.572 232.139,744.572 "/>
<polyline clip-path="url(#clip150)" style="stroke:#000000; stroke-linecap:round; stroke-linejoin:round; stroke-width:4; stroke-opacity:1; fill:none" points="222.69,689.628 232.139,689.628 "/>
<polyline clip-path="url(#clip150)" style="stroke:#000000; stroke-linecap:round; stroke-linejoin:round; stroke-width:4; stroke-opacity:1; fill:none" points="222.69,653.078 232.139,653.078 "/>
<polyline clip-path="url(#clip150)" style="stroke:#000000; stroke-linecap:round; stroke-linejoin:round; stroke-width:4; stroke-opacity:1; fill:none" points="222.69,625.649 232.139,625.649 "/>
<polyline clip-path="url(#clip150)" style="stroke:#000000; stroke-linecap:round; stroke-linejoin:round; stroke-width:4; stroke-opacity:1; fill:none" points="222.69,489.73 232.139,489.73 "/>
<polyline clip-path="url(#clip150)" style="stroke:#000000; stroke-linecap:round; stroke-linejoin:round; stroke-width:4; stroke-opacity:1; fill:none" points="222.69,434.786 232.139,434.786 "/>
<polyline clip-path="url(#clip150)" style="stroke:#000000; stroke-linecap:round; stroke-linejoin:round; stroke-width:4; stroke-opacity:1; fill:none" points="222.69,398.236 232.139,398.236 "/>
<polyline clip-path="url(#clip150)" style="stroke:#000000; stroke-linecap:round; stroke-linejoin:round; stroke-width:4; stroke-opacity:1; fill:none" points="222.69,370.806 232.139,370.806 "/>
<polyline clip-path="url(#clip150)" style="stroke:#000000; stroke-linecap:round; stroke-linejoin:round; stroke-width:4; stroke-opacity:1; fill:none" points="222.69,234.888 232.139,234.888 "/>
<path clip-path="url(#clip150)" d="M115.985 1388 L123.624 1388 L123.624 1361.64 L115.313 1363.3 L115.313 1359.05 L123.577 1357.38 L128.253 1357.38 L128.253 1388 L135.892 1388 L135.892 1391.94 L115.985 1391.94 L115.985 1388 Z" fill="#000000" fill-rule="nonzero" fill-opacity="1" /><path clip-path="url(#clip150)" d="M155.336 1360.46 Q151.725 1360.46 149.897 1364.02 Q148.091 1367.56 148.091 1374.69 Q148.091 1381.8 149.897 1385.37 Q151.725 1388.91 155.336 1388.91 Q158.971 1388.91 160.776 1385.37 Q162.605 1381.8 162.605 1374.69 Q162.605 1367.56 160.776 1364.02 Q158.971 1360.46 155.336 1360.46 M155.336 1356.75 Q161.146 1356.75 164.202 1361.36 Q167.281 1365.94 167.281 1374.69 Q167.281 1383.42 164.202 1388.03 Q161.146 1392.61 155.336 1392.61 Q149.526 1392.61 146.447 1388.03 Q143.392 1383.42 143.392 1374.69 Q143.392 1365.94 146.447 1361.36 Q149.526 1356.75 155.336 1356.75 Z" fill="#000000" fill-rule="nonzero" fill-opacity="1" /><path clip-path="url(#clip150)" d="M176.986 1338.95 Q174.052 1338.95 172.566 1341.85 Q171.099 1344.72 171.099 1350.52 Q171.099 1356.29 172.566 1359.19 Q174.052 1362.06 176.986 1362.06 Q179.938 1362.06 181.405 1359.19 Q182.891 1356.29 182.891 1350.52 Q182.891 1344.72 181.405 1341.85 Q179.938 1338.95 176.986 1338.95 M176.986 1335.94 Q181.706 1335.94 184.189 1339.68 Q186.69 1343.41 186.69 1350.52 Q186.69 1357.61 184.189 1361.35 Q181.706 1365.07 176.986 1365.07 Q172.265 1365.07 169.763 1361.35 Q167.281 1357.61 167.281 1350.52 Q167.281 1343.41 169.763 1339.68 Q172.265 1335.94 176.986 1335.94 Z" fill="#000000" fill-rule="nonzero" fill-opacity="1" /><path clip-path="url(#clip150)" d="M118.674 1133.16 L126.313 1133.16 L126.313 1106.8 L118.003 1108.46 L118.003 1104.2 L126.267 1102.54 L130.943 1102.54 L130.943 1133.16 L138.581 1133.16 L138.581 1137.1 L118.674 1137.1 L118.674 1133.16 Z" fill="#000000" fill-rule="nonzero" fill-opacity="1" /><path clip-path="url(#clip150)" d="M158.026 1105.62 Q154.415 1105.62 152.586 1109.18 Q150.781 1112.72 150.781 1119.85 Q150.781 1126.96 152.586 1130.52 Q154.415 1134.06 158.026 1134.06 Q161.66 1134.06 163.466 1130.52 Q165.294 1126.96 165.294 1119.85 Q165.294 1112.72 163.466 1109.18 Q161.66 1105.62 158.026 1105.62 M158.026 1101.91 Q163.836 1101.91 166.892 1106.52 Q169.97 1111.1 169.97 1119.85 Q169.97 1128.58 166.892 1133.18 Q163.836 1137.77 158.026 1137.77 Q152.216 1137.77 149.137 1133.18 Q146.081 1128.58 146.081 1119.85 Q146.081 1111.1 149.137 1106.52 Q152.216 1101.91 158.026 1101.91 Z" fill="#000000" fill-rule="nonzero" fill-opacity="1" /><path clip-path="url(#clip150)" d="M170.516 1106.49 L176.722 1106.49 L176.722 1085.07 L169.97 1086.42 L169.97 1082.96 L176.685 1081.61 L180.484 1081.61 L180.484 1106.49 L186.69 1106.49 L186.69 1109.69 L170.516 1109.69 L170.516 1106.49 Z" fill="#000000" fill-rule="nonzero" fill-opacity="1" /><path clip-path="url(#clip150)" d="M117.565 878.319 L125.203 878.319 L125.203 851.954 L116.893 853.621 L116.893 849.361 L125.157 847.695 L129.833 847.695 L129.833 878.319 L137.472 878.319 L137.472 882.255 L117.565 882.255 L117.565 878.319 Z" fill="#000000" fill-rule="nonzero" fill-opacity="1" /><path clip-path="url(#clip150)" d="M156.916 850.773 Q153.305 850.773 151.476 854.338 Q149.671 857.88 149.671 865.009 Q149.671 872.116 151.476 875.681 Q153.305 879.222 156.916 879.222 Q160.55 879.222 162.356 875.681 Q164.185 872.116 164.185 865.009 Q164.185 857.88 162.356 854.338 Q160.55 850.773 156.916 850.773 M156.916 847.07 Q162.726 847.07 165.782 851.676 Q168.861 856.259 168.861 865.009 Q168.861 873.736 165.782 878.343 Q162.726 882.926 156.916 882.926 Q151.106 882.926 148.027 878.343 Q144.972 873.736 144.972 865.009 Q144.972 856.259 148.027 851.676 Q151.106 847.07 156.916 847.07 Z" fill="#000000" fill-rule="nonzero" fill-opacity="1" /><path clip-path="url(#clip150)" d="M173.431 851.647 L186.69 851.647 L186.69 854.844 L168.861 854.844 L168.861 851.647 Q171.023 849.409 174.747 845.647 Q178.49 841.867 179.449 840.776 Q181.274 838.726 181.988 837.315 Q182.722 835.886 182.722 834.513 Q182.722 832.275 181.142 830.864 Q179.581 829.454 177.061 829.454 Q175.274 829.454 173.28 830.074 Q171.306 830.695 169.049 831.955 L169.049 828.118 Q171.343 827.197 173.337 826.727 Q175.33 826.256 176.986 826.256 Q181.349 826.256 183.944 828.438 Q186.54 830.62 186.54 834.269 Q186.54 835.999 185.882 837.56 Q185.242 839.102 183.531 841.209 Q183.06 841.754 180.54 844.368 Q178.02 846.964 173.431 851.647 Z" fill="#000000" fill-rule="nonzero" fill-opacity="1" /><path clip-path="url(#clip150)" d="M116.906 623.477 L124.545 623.477 L124.545 597.112 L116.235 598.778 L116.235 594.519 L124.499 592.852 L129.175 592.852 L129.175 623.477 L136.814 623.477 L136.814 627.412 L116.906 627.412 L116.906 623.477 Z" fill="#000000" fill-rule="nonzero" fill-opacity="1" /><path clip-path="url(#clip150)" d="M156.258 595.931 Q152.647 595.931 150.818 599.496 Q149.013 603.038 149.013 610.167 Q149.013 617.274 150.818 620.838 Q152.647 624.38 156.258 624.38 Q159.892 624.38 161.698 620.838 Q163.526 617.274 163.526 610.167 Q163.526 603.038 161.698 599.496 Q159.892 595.931 156.258 595.931 M156.258 592.227 Q162.068 592.227 165.124 596.834 Q168.202 601.417 168.202 610.167 Q168.202 618.894 165.124 623.5 Q162.068 628.084 156.258 628.084 Q150.448 628.084 147.369 623.5 Q144.314 618.894 144.314 610.167 Q144.314 601.417 147.369 596.834 Q150.448 592.227 156.258 592.227 Z" fill="#000000" fill-rule="nonzero" fill-opacity="1" /><path clip-path="url(#clip150)" d="M180.898 584.862 Q183.625 585.445 185.148 587.288 Q186.69 589.131 186.69 591.839 Q186.69 595.996 183.832 598.272 Q180.973 600.547 175.707 600.547 Q173.939 600.547 172.058 600.19 Q170.196 599.852 168.202 599.156 L168.202 595.488 Q169.782 596.41 171.663 596.88 Q173.544 597.35 175.594 597.35 Q179.167 597.35 181.029 595.94 Q182.91 594.529 182.91 591.839 Q182.91 589.357 181.161 587.965 Q179.431 586.554 176.327 586.554 L173.055 586.554 L173.055 583.432 L176.478 583.432 Q179.28 583.432 180.766 582.323 Q182.252 581.194 182.252 579.088 Q182.252 576.925 180.709 575.778 Q179.186 574.612 176.327 574.612 Q174.766 574.612 172.979 574.95 Q171.193 575.289 169.049 576.003 L169.049 572.618 Q171.212 572.016 173.092 571.715 Q174.992 571.414 176.666 571.414 Q180.992 571.414 183.512 573.389 Q186.032 575.345 186.032 578.693 Q186.032 581.025 184.697 582.642 Q183.361 584.241 180.898 584.862 Z" fill="#000000" fill-rule="nonzero" fill-opacity="1" /><path clip-path="url(#clip150)" d="M114.931 368.635 L122.57 368.635 L122.57 342.269 L114.26 343.936 L114.26 339.677 L122.524 338.01 L127.2 338.01 L127.2 368.635 L134.839 368.635 L134.839 372.57 L114.931 372.57 L114.931 368.635 Z" fill="#000000" fill-rule="nonzero" fill-opacity="1" /><path clip-path="url(#clip150)" d="M154.283 341.089 Q150.672 341.089 148.843 344.654 Q147.038 348.195 147.038 355.325 Q147.038 362.431 148.843 365.996 Q150.672 369.538 154.283 369.538 Q157.917 369.538 159.723 365.996 Q161.552 362.431 161.552 355.325 Q161.552 348.195 159.723 344.654 Q157.917 341.089 154.283 341.089 M154.283 337.385 Q160.093 337.385 163.149 341.992 Q166.227 346.575 166.227 355.325 Q166.227 364.052 163.149 368.658 Q160.093 373.241 154.283 373.241 Q148.473 373.241 145.394 368.658 Q142.339 364.052 142.339 355.325 Q142.339 346.575 145.394 341.992 Q148.473 337.385 154.283 337.385 Z" fill="#000000" fill-rule="nonzero" fill-opacity="1" /><path clip-path="url(#clip150)" d="M178.904 320.39 L169.312 335.38 L178.904 335.38 L178.904 320.39 M177.907 317.08 L182.684 317.08 L182.684 335.38 L186.69 335.38 L186.69 338.539 L182.684 338.539 L182.684 345.16 L178.904 345.16 L178.904 338.539 L166.227 338.539 L166.227 334.872 L177.907 317.08 Z" fill="#000000" fill-rule="nonzero" fill-opacity="1" /><path clip-path="url(#clip150)" d="M41.7242 864.047 Q42.4244 861.979 44.7161 860.037 Q47.0077 858.064 51.0181 856.09 L64.0042 849.565 L64.0042 856.472 L51.8138 862.551 Q47.0395 864.907 45.48 867.135 Q43.9204 869.331 43.9204 873.15 L43.9204 880.153 L64.0042 880.153 L64.0042 886.582 L16.4842 886.582 L16.4842 872.068 Q16.4842 863.92 19.8898 859.91 Q23.2955 855.899 30.1704 855.899 Q34.6582 855.899 37.6183 858 Q40.5784 860.069 41.7242 864.047 M21.7677 880.153 L38.6368 880.153 L38.6368 872.068 Q38.6368 867.421 36.5043 865.066 Q34.34 862.679 30.1704 862.679 Q26.0009 862.679 23.9002 865.066 Q21.7677 867.421 21.7677 872.068 L21.7677 880.153 Z" fill="#000000" fill-rule="nonzero" fill-opacity="1" /><path clip-path="url(#clip150)" d="M46.0847 826.776 Q46.0847 833.874 47.7079 836.611 Q49.3312 839.348 53.2461 839.348 Q56.3653 839.348 58.2114 837.311 Q60.0256 835.243 60.0256 831.71 Q60.0256 826.84 56.5881 823.912 Q53.1188 820.952 47.3897 820.952 L46.0847 820.952 L46.0847 826.776 M43.6657 815.095 L64.0042 815.095 L64.0042 820.952 L58.5933 820.952 Q61.8398 822.957 63.3994 825.949 Q64.9272 828.941 64.9272 833.269 Q64.9272 838.744 61.8716 841.99 Q58.7843 845.205 53.6281 845.205 Q47.6125 845.205 44.5569 841.195 Q41.5014 837.152 41.5014 829.163 L41.5014 820.952 L40.9285 820.952 Q36.8862 820.952 34.6901 823.625 Q32.4621 826.267 32.4621 831.073 Q32.4621 834.129 33.1941 837.025 Q33.9262 839.921 35.3903 842.595 L29.9795 842.595 Q28.7381 839.38 28.1334 836.357 Q27.4968 833.333 27.4968 830.468 Q27.4968 822.734 31.5072 818.915 Q35.5176 815.095 43.6657 815.095 Z" fill="#000000" fill-rule="nonzero" fill-opacity="1" /><path clip-path="url(#clip150)" d="M18.2347 797.239 L28.3562 797.239 L28.3562 785.176 L32.9077 785.176 L32.9077 797.239 L52.2594 797.239 Q56.6199 797.239 57.8613 796.062 Q59.1026 794.852 59.1026 791.192 L59.1026 785.176 L64.0042 785.176 L64.0042 791.192 Q64.0042 797.971 61.4897 800.55 Q58.9434 803.128 52.2594 803.128 L32.9077 803.128 L32.9077 807.424 L28.3562 807.424 L28.3562 803.128 L18.2347 803.128 L18.2347 797.239 Z" fill="#000000" fill-rule="nonzero" fill-opacity="1" /><path clip-path="url(#clip150)" d="M28.3562 777.474 L28.3562 771.617 L64.0042 771.617 L64.0042 777.474 L28.3562 777.474 M14.479 777.474 L14.479 771.617 L21.895 771.617 L21.895 777.474 L14.479 777.474 Z" fill="#000000" fill-rule="nonzero" fill-opacity="1" /><path clip-path="url(#clip150)" d="M32.4621 745.55 Q32.4621 750.26 36.1542 752.998 Q39.8145 755.735 46.212 755.735 Q52.6095 755.735 56.3017 753.03 Q59.9619 750.292 59.9619 745.55 Q59.9619 740.871 56.2698 738.134 Q52.5777 735.396 46.212 735.396 Q39.8781 735.396 36.186 738.134 Q32.4621 740.871 32.4621 745.55 M27.4968 745.55 Q27.4968 737.911 32.4621 733.55 Q37.4273 729.19 46.212 729.19 Q54.9649 729.19 59.9619 733.55 Q64.9272 737.911 64.9272 745.55 Q64.9272 753.22 59.9619 757.581 Q54.9649 761.91 46.212 761.91 Q37.4273 761.91 32.4621 757.581 Q27.4968 753.22 27.4968 745.55 Z" fill="#000000" fill-rule="nonzero" fill-opacity="1" /><path clip-path="url(#clip150)" d="M890.677 30.24 L927.222 30.24 L927.222 35.159 L911.886 35.159 L911.886 73.44 L906.012 73.44 L906.012 35.159 L890.677 35.159 L890.677 30.24 Z" fill="#000000" fill-rule="nonzero" fill-opacity="1" /><path clip-path="url(#clip150)" d="M930.81 41.0328 L936.134 41.0328 L936.134 73.44 L930.81 73.44 L930.81 41.0328 M930.81 28.4171 L936.134 28.4171 L936.134 35.159 L930.81 35.159 L930.81 28.4171 Z" fill="#000000" fill-rule="nonzero" fill-opacity="1" /><path clip-path="url(#clip150)" d="M972.505 47.2538 Q974.501 43.6659 977.279 41.9587 Q980.057 40.2515 983.818 40.2515 Q988.882 40.2515 991.631 43.8105 Q994.38 47.3406 994.38 53.8799 L994.38 73.44 L989.027 73.44 L989.027 54.0535 Q989.027 49.395 987.378 47.1381 Q985.728 44.8811 982.343 44.8811 Q978.205 44.8811 975.803 47.63 Q973.402 50.3788 973.402 55.1241 L973.402 73.44 L968.049 73.44 L968.049 54.0535 Q968.049 49.3661 966.4 47.1381 Q964.75 44.8811 961.307 44.8811 Q957.227 44.8811 954.826 47.6589 Q952.424 50.4077 952.424 55.1241 L952.424 73.44 L947.071 73.44 L947.071 41.0328 L952.424 41.0328 L952.424 46.0675 Q954.247 43.0872 956.793 41.6693 Q959.339 40.2515 962.841 40.2515 Q966.371 40.2515 968.83 42.0455 Q971.319 43.8395 972.505 47.2538 Z" fill="#000000" fill-rule="nonzero" fill-opacity="1" /><path clip-path="url(#clip150)" d="M1032.72 55.9054 L1032.72 58.5095 L1008.24 58.5095 Q1008.59 64.0072 1011.54 66.9007 Q1014.52 69.7653 1019.81 69.7653 Q1022.88 69.7653 1025.75 69.0129 Q1028.64 68.2606 1031.47 66.756 L1031.47 71.7907 Q1028.61 73.006 1025.6 73.6425 Q1022.59 74.2791 1019.5 74.2791 Q1011.74 74.2791 1007.2 69.7653 Q1002.68 65.2514 1002.68 57.5547 Q1002.68 49.5975 1006.97 44.939 Q1011.28 40.2515 1018.57 40.2515 Q1025.11 40.2515 1028.9 44.476 Q1032.72 48.6716 1032.72 55.9054 M1027.39 54.3429 Q1027.34 49.9737 1024.94 47.3695 Q1022.56 44.7654 1018.63 44.7654 Q1014.17 44.7654 1011.48 47.2827 Q1008.82 49.8001 1008.41 54.3718 L1027.39 54.3429 Z" fill="#000000" fill-rule="nonzero" fill-opacity="1" /><path clip-path="url(#clip150)" d="M1079.07 46.0096 Q1078.18 45.4888 1077.11 45.2573 Q1076.06 44.9969 1074.79 44.9969 Q1070.28 44.9969 1067.85 47.9482 Q1065.44 50.8707 1065.44 56.3683 L1065.44 73.44 L1060.09 73.44 L1060.09 41.0328 L1065.44 41.0328 L1065.44 46.0675 Q1067.12 43.1161 1069.81 41.6983 Q1072.5 40.2515 1076.35 40.2515 Q1076.9 40.2515 1077.57 40.3383 Q1078.23 40.3962 1079.04 40.5409 L1079.07 46.0096 Z" fill="#000000" fill-rule="nonzero" fill-opacity="1" /><path clip-path="url(#clip150)" d="M1099.39 57.1496 Q1092.93 57.1496 1090.44 58.6253 Q1087.96 60.101 1087.96 63.66 Q1087.96 66.4956 1089.81 68.1738 Q1091.69 69.8231 1094.9 69.8231 Q1099.33 69.8231 1101.99 66.6981 Q1104.68 63.5442 1104.68 58.3359 L1104.68 57.1496 L1099.39 57.1496 M1110 54.9505 L1110 73.44 L1104.68 73.44 L1104.68 68.521 Q1102.86 71.4724 1100.14 72.8902 Q1097.42 74.2791 1093.48 74.2791 Q1088.51 74.2791 1085.55 71.5014 Q1082.63 68.6947 1082.63 64.0072 Q1082.63 58.5385 1086.28 55.7607 Q1089.95 52.9829 1097.21 52.9829 L1104.68 52.9829 L1104.68 52.4621 Q1104.68 48.7874 1102.25 46.7908 Q1099.85 44.7654 1095.48 44.7654 Q1092.7 44.7654 1090.07 45.4309 Q1087.43 46.0964 1085 47.4274 L1085 42.5085 Q1087.93 41.38 1090.68 40.8302 Q1093.42 40.2515 1096.03 40.2515 Q1103.06 40.2515 1106.53 43.8973 Q1110 47.5431 1110 54.9505 Z" fill="#000000" fill-rule="nonzero" fill-opacity="1" /><path clip-path="url(#clip150)" d="M1126.24 31.8314 L1126.24 41.0328 L1137.2 41.0328 L1137.2 45.1705 L1126.24 45.1705 L1126.24 62.763 Q1126.24 66.7271 1127.31 67.8555 Q1128.41 68.984 1131.73 68.984 L1137.2 68.984 L1137.2 73.44 L1131.73 73.44 Q1125.57 73.44 1123.23 71.1541 Q1120.88 68.8393 1120.88 62.763 L1120.88 45.1705 L1116.98 45.1705 L1116.98 41.0328 L1120.88 41.0328 L1120.88 31.8314 L1126.24 31.8314 Z" fill="#000000" fill-rule="nonzero" fill-opacity="1" /><path clip-path="url(#clip150)" d="M1144.21 41.0328 L1149.53 41.0328 L1149.53 73.44 L1144.21 73.44 L1144.21 41.0328 M1144.21 28.4171 L1149.53 28.4171 L1149.53 35.159 L1144.21 35.159 L1144.21 28.4171 Z" fill="#000000" fill-rule="nonzero" fill-opacity="1" /><path clip-path="url(#clip150)" d="M1173.23 44.7654 Q1168.94 44.7654 1166.46 48.1218 Q1163.97 51.4494 1163.97 57.2653 Q1163.97 63.0813 1166.43 66.4377 Q1168.92 69.7653 1173.23 69.7653 Q1177.48 69.7653 1179.97 66.4088 Q1182.46 63.0523 1182.46 57.2653 Q1182.46 51.5072 1179.97 48.1508 Q1177.48 44.7654 1173.23 44.7654 M1173.23 40.2515 Q1180.17 40.2515 1184.14 44.7654 Q1188.1 49.2792 1188.1 57.2653 Q1188.1 65.2225 1184.14 69.7653 Q1180.17 74.2791 1173.23 74.2791 Q1166.25 74.2791 1162.29 69.7653 Q1158.35 65.2225 1158.35 57.2653 Q1158.35 49.2792 1162.29 44.7654 Q1166.25 40.2515 1173.23 40.2515 Z" fill="#000000" fill-rule="nonzero" fill-opacity="1" /><path clip-path="url(#clip150)" d="M1198.28 66.0905 L1204.39 66.0905 L1204.39 71.0673 L1199.64 80.3265 L1195.91 80.3265 L1198.28 71.0673 L1198.28 66.0905 Z" fill="#000000" fill-rule="nonzero" fill-opacity="1" /><path clip-path="url(#clip150)" d="M1260.73 31.6578 L1260.73 37.358 Q1257.4 35.7666 1254.45 34.9853 Q1251.5 34.2041 1248.75 34.2041 Q1243.97 34.2041 1241.37 36.0559 Q1238.79 37.9078 1238.79 41.3221 Q1238.79 44.1867 1240.5 45.6624 Q1242.24 47.1091 1247.04 48.0061 L1250.57 48.7295 Q1257.11 49.9737 1260.21 53.1276 Q1263.33 56.2526 1263.33 61.5188 Q1263.33 67.7977 1259.11 71.0384 Q1254.91 74.2791 1246.78 74.2791 Q1243.71 74.2791 1240.24 73.5847 Q1236.8 72.8902 1233.09 71.5303 L1233.09 65.5118 Q1236.65 67.5083 1240.07 68.521 Q1243.48 69.5338 1246.78 69.5338 Q1251.79 69.5338 1254.51 67.5662 Q1257.23 65.5986 1257.23 61.9528 Q1257.23 58.7699 1255.26 56.976 Q1253.32 55.182 1248.86 54.285 L1245.3 53.5906 Q1238.77 52.2885 1235.84 49.5107 Q1232.92 46.733 1232.92 41.7851 Q1232.92 36.0559 1236.94 32.7573 Q1240.99 29.4588 1248.08 29.4588 Q1251.12 29.4588 1254.27 30.0085 Q1257.43 30.5583 1260.73 31.6578 Z" fill="#000000" fill-rule="nonzero" fill-opacity="1" /><path clip-path="url(#clip150)" d="M1285.7 76.4492 Q1283.44 82.2362 1281.3 84.0013 Q1279.16 85.7663 1275.57 85.7663 L1271.32 85.7663 L1271.32 81.3103 L1274.44 81.3103 Q1276.64 81.3103 1277.86 80.2687 Q1279.07 79.227 1280.55 75.3497 L1281.5 72.9192 L1268.39 41.0328 L1274.04 41.0328 L1284.16 66.3799 L1294.29 41.0328 L1299.93 41.0328 L1285.7 76.4492 Z" fill="#000000" fill-rule="nonzero" fill-opacity="1" /><path clip-path="url(#clip150)" d="M1332.51 47.2538 Q1334.51 43.6659 1337.29 41.9587 Q1340.07 40.2515 1343.83 40.2515 Q1348.89 40.2515 1351.64 43.8105 Q1354.39 47.3406 1354.39 53.8799 L1354.39 73.44 L1349.04 73.44 L1349.04 54.0535 Q1349.04 49.395 1347.39 47.1381 Q1345.74 44.8811 1342.35 44.8811 Q1338.21 44.8811 1335.81 47.63 Q1333.41 50.3788 1333.41 55.1241 L1333.41 73.44 L1328.06 73.44 L1328.06 54.0535 Q1328.06 49.3661 1326.41 47.1381 Q1324.76 44.8811 1321.32 44.8811 Q1317.24 44.8811 1314.84 47.6589 Q1312.43 50.4077 1312.43 55.1241 L1312.43 73.44 L1307.08 73.44 L1307.08 41.0328 L1312.43 41.0328 L1312.43 46.0675 Q1314.26 43.0872 1316.8 41.6693 Q1319.35 40.2515 1322.85 40.2515 Q1326.38 40.2515 1328.84 42.0455 Q1331.33 43.8395 1332.51 47.2538 Z" fill="#000000" fill-rule="nonzero" fill-opacity="1" /><path clip-path="url(#clip150)" d="M1388.27 57.2653 Q1388.27 51.3915 1385.84 48.064 Q1383.44 44.7075 1379.22 44.7075 Q1374.99 44.7075 1372.56 48.064 Q1370.16 51.3915 1370.16 57.2653 Q1370.16 63.1391 1372.56 66.4956 Q1374.99 69.8231 1379.22 69.8231 Q1383.44 69.8231 1385.84 66.4956 Q1388.27 63.1391 1388.27 57.2653 M1370.16 45.9517 Q1371.84 43.0582 1374.38 41.6693 Q1376.96 40.2515 1380.52 40.2515 Q1386.42 40.2515 1390.1 44.939 Q1393.8 49.6265 1393.8 57.2653 Q1393.8 64.9042 1390.1 69.5916 Q1386.42 74.2791 1380.52 74.2791 Q1376.96 74.2791 1374.38 72.8902 Q1371.84 71.4724 1370.16 68.5789 L1370.16 73.44 L1364.81 73.44 L1364.81 28.4171 L1370.16 28.4171 L1370.16 45.9517 Z" fill="#000000" fill-rule="nonzero" fill-opacity="1" /><path clip-path="url(#clip150)" d="M1415.18 44.7654 Q1410.9 44.7654 1408.41 48.1218 Q1405.92 51.4494 1405.92 57.2653 Q1405.92 63.0813 1408.38 66.4377 Q1410.87 69.7653 1415.18 69.7653 Q1419.44 69.7653 1421.92 66.4088 Q1424.41 63.0523 1424.41 57.2653 Q1424.41 51.5072 1421.92 48.1508 Q1419.44 44.7654 1415.18 44.7654 M1415.18 40.2515 Q1422.13 40.2515 1426.09 44.7654 Q1430.05 49.2792 1430.05 57.2653 Q1430.05 65.2225 1426.09 69.7653 Q1422.13 74.2791 1415.18 74.2791 Q1408.21 74.2791 1404.24 69.7653 Q1400.31 65.2225 1400.31 57.2653 Q1400.31 49.2792 1404.24 44.7654 Q1408.21 40.2515 1415.18 40.2515 Z" fill="#000000" fill-rule="nonzero" fill-opacity="1" /><path clip-path="url(#clip150)" d="M1438.88 28.4171 L1444.2 28.4171 L1444.2 73.44 L1438.88 73.44 L1438.88 28.4171 Z" fill="#000000" fill-rule="nonzero" fill-opacity="1" /><path clip-path="url(#clip150)" d="M1455.34 41.0328 L1460.67 41.0328 L1460.67 73.44 L1455.34 73.44 L1455.34 41.0328 M1455.34 28.4171 L1460.67 28.4171 L1460.67 35.159 L1455.34 35.159 L1455.34 28.4171 Z" fill="#000000" fill-rule="nonzero" fill-opacity="1" /><path clip-path="url(#clip150)" d="M1495.13 42.277 L1495.13 47.2538 Q1492.87 46.0096 1490.59 45.402 Q1488.33 44.7654 1486.01 44.7654 Q1480.84 44.7654 1477.97 48.064 Q1475.11 51.3336 1475.11 57.2653 Q1475.11 63.197 1477.97 66.4956 Q1480.84 69.7653 1486.01 69.7653 Q1488.33 69.7653 1490.59 69.1576 Q1492.87 68.521 1495.13 67.2768 L1495.13 72.1958 Q1492.9 73.2375 1490.5 73.7583 Q1488.13 74.2791 1485.44 74.2791 Q1478.12 74.2791 1473.8 69.6784 Q1469.49 65.0778 1469.49 57.2653 Q1469.49 49.3371 1473.83 44.7943 Q1478.2 40.2515 1485.78 40.2515 Q1488.24 40.2515 1490.59 40.7724 Q1492.93 41.2642 1495.13 42.277 Z" fill="#000000" fill-rule="nonzero" fill-opacity="1" /><path clip-path="url(#clip150)" d="M1525.05 41.9876 L1525.05 47.0223 Q1522.79 45.8649 1520.36 45.2862 Q1517.93 44.7075 1515.33 44.7075 Q1511.36 44.7075 1509.37 45.9228 Q1507.4 47.1381 1507.4 49.5686 Q1507.4 51.4204 1508.82 52.491 Q1510.23 53.5327 1514.52 54.4876 L1516.34 54.8926 Q1522.01 56.1079 1524.38 58.3359 Q1526.78 60.535 1526.78 64.4991 Q1526.78 69.0129 1523.2 71.646 Q1519.64 74.2791 1513.39 74.2791 Q1510.78 74.2791 1507.95 73.7583 Q1505.14 73.2664 1502.02 72.2537 L1502.02 66.756 Q1504.97 68.2896 1507.83 69.0708 Q1510.7 69.8231 1513.5 69.8231 Q1517.26 69.8231 1519.29 68.55 Q1521.32 67.2479 1521.32 64.9042 Q1521.32 62.734 1519.84 61.5766 Q1518.39 60.4192 1513.45 59.3486 L1511.59 58.9146 Q1506.65 57.873 1504.45 55.7318 Q1502.25 53.5616 1502.25 49.8001 Q1502.25 45.2283 1505.49 42.7399 Q1508.73 40.2515 1514.69 40.2515 Q1517.64 40.2515 1520.25 40.6855 Q1522.85 41.1196 1525.05 41.9876 Z" fill="#000000" fill-rule="nonzero" fill-opacity="1" /><path clip-path="url(#clip150)" d="M1544.72 30.24 L1549.64 30.24 L1534.6 78.9377 L1529.68 78.9377 L1544.72 30.24 Z" fill="#000000" fill-rule="nonzero" fill-opacity="1" /><path clip-path="url(#clip150)" d="M1555.46 30.24 L1580.29 30.24 L1580.29 35.159 L1561.3 35.159 L1561.3 47.8904 L1578.43 47.8904 L1578.43 52.8093 L1561.3 52.8093 L1561.3 73.44 L1555.46 73.44 L1555.46 30.24 Z" fill="#000000" fill-rule="nonzero" fill-opacity="1" /><path clip-path="url(#clip150)" d="M1614.4 31.6578 L1614.4 37.358 Q1611.07 35.7666 1608.12 34.9853 Q1605.17 34.2041 1602.42 34.2041 Q1597.65 34.2041 1595.04 36.0559 Q1592.47 37.9078 1592.47 41.3221 Q1592.47 44.1867 1594.17 45.6624 Q1595.91 47.1091 1600.71 48.0061 L1604.24 48.7295 Q1610.78 49.9737 1613.88 53.1276 Q1617 56.2526 1617 61.5188 Q1617 67.7977 1612.78 71.0384 Q1608.58 74.2791 1600.45 74.2791 Q1597.39 74.2791 1593.91 73.5847 Q1590.47 72.8902 1586.77 71.5303 L1586.77 65.5118 Q1590.33 67.5083 1593.74 68.521 Q1597.15 69.5338 1600.45 69.5338 Q1605.46 69.5338 1608.18 67.5662 Q1610.9 65.5986 1610.9 61.9528 Q1610.9 58.7699 1608.93 56.976 Q1606.99 55.182 1602.54 54.285 L1598.98 53.5906 Q1592.44 52.2885 1589.52 49.5107 Q1586.59 46.733 1586.59 41.7851 Q1586.59 36.0559 1590.62 32.7573 Q1594.67 29.4588 1601.75 29.4588 Q1604.79 29.4588 1607.95 30.0085 Q1611.1 30.5583 1614.4 31.6578 Z" fill="#000000" fill-rule="nonzero" fill-opacity="1" /><path clip-path="url(#clip150)" d="M1631.96 35.0432 L1631.96 68.6368 L1639.02 68.6368 Q1647.96 68.6368 1652.1 64.5859 Q1656.27 60.535 1656.27 51.7966 Q1656.27 43.1161 1652.1 39.0941 Q1647.96 35.0432 1639.02 35.0432 L1631.96 35.0432 M1626.12 30.24 L1638.13 30.24 Q1650.68 30.24 1656.56 35.4772 Q1662.43 40.6855 1662.43 51.7966 Q1662.43 62.9655 1656.53 68.2028 Q1650.63 73.44 1638.13 73.44 L1626.12 73.44 L1626.12 30.24 Z" fill="#000000" fill-rule="nonzero" fill-opacity="1" /><path clip-path="url(#clip150)" d="M1145.96 107.077 L1145.96 112.054 Q1143.7 110.81 1141.41 110.202 Q1139.16 109.565 1136.84 109.565 Q1131.66 109.565 1128.8 112.864 Q1125.93 116.134 1125.93 122.065 Q1125.93 127.997 1128.8 131.296 Q1131.66 134.565 1136.84 134.565 Q1139.16 134.565 1141.41 133.958 Q1143.7 133.321 1145.96 132.077 L1145.96 136.996 Q1143.73 138.037 1141.33 138.558 Q1138.95 139.079 1136.26 139.079 Q1128.94 139.079 1124.63 134.478 Q1120.32 129.878 1120.32 122.065 Q1120.32 114.137 1124.66 109.594 Q1129.03 105.052 1136.61 105.052 Q1139.07 105.052 1141.41 105.572 Q1143.76 106.064 1145.96 107.077 Z" fill="#000000" fill-rule="nonzero" fill-opacity="1" /><path clip-path="url(#clip150)" d="M1182.15 118.68 L1182.15 138.24 L1176.83 138.24 L1176.83 118.854 Q1176.83 114.253 1175.04 111.967 Q1173.24 109.681 1169.65 109.681 Q1165.34 109.681 1162.85 112.43 Q1160.37 115.179 1160.37 119.924 L1160.37 138.24 L1155.01 138.24 L1155.01 93.2171 L1160.37 93.2171 L1160.37 110.867 Q1162.28 107.945 1164.85 106.498 Q1167.45 105.052 1170.84 105.052 Q1176.42 105.052 1179.29 108.524 Q1182.15 111.967 1182.15 118.68 Z" fill="#000000" fill-rule="nonzero" fill-opacity="1" /><path clip-path="url(#clip150)" d="M1220.49 120.705 L1220.49 123.31 L1196.01 123.31 Q1196.36 128.807 1199.31 131.701 Q1202.29 134.565 1207.59 134.565 Q1210.65 134.565 1213.52 133.813 Q1216.41 133.061 1219.25 131.556 L1219.25 136.591 Q1216.38 137.806 1213.37 138.443 Q1210.37 139.079 1207.27 139.079 Q1199.51 139.079 1194.97 134.565 Q1190.46 130.051 1190.46 122.355 Q1190.46 114.398 1194.74 109.739 Q1199.05 105.052 1206.34 105.052 Q1212.88 105.052 1216.67 109.276 Q1220.49 113.472 1220.49 120.705 M1215.17 119.143 Q1215.11 114.774 1212.71 112.17 Q1210.34 109.565 1206.4 109.565 Q1201.95 109.565 1199.25 112.083 Q1196.59 114.6 1196.19 119.172 L1215.17 119.143 Z" fill="#000000" fill-rule="nonzero" fill-opacity="1" /><path clip-path="url(#clip150)" d="M1252.49 122.065 Q1252.49 116.192 1250.06 112.864 Q1247.66 109.508 1243.44 109.508 Q1239.21 109.508 1236.78 112.864 Q1234.38 116.192 1234.38 122.065 Q1234.38 127.939 1236.78 131.296 Q1239.21 134.623 1243.44 134.623 Q1247.66 134.623 1250.06 131.296 Q1252.49 127.939 1252.49 122.065 M1234.38 110.752 Q1236.06 107.858 1238.61 106.469 Q1241.18 105.052 1244.74 105.052 Q1250.64 105.052 1254.32 109.739 Q1258.02 114.426 1258.02 122.065 Q1258.02 129.704 1254.32 134.392 Q1250.64 139.079 1244.74 139.079 Q1241.18 139.079 1238.61 137.69 Q1236.06 136.272 1234.38 133.379 L1234.38 138.24 L1229.03 138.24 L1229.03 93.2171 L1234.38 93.2171 L1234.38 110.752 Z" fill="#000000" fill-rule="nonzero" fill-opacity="1" /><path clip-path="url(#clip150)" d="M1280.33 141.249 Q1278.07 147.036 1275.93 148.801 Q1273.79 150.566 1270.2 150.566 L1265.95 150.566 L1265.95 146.11 L1269.07 146.11 Q1271.27 146.11 1272.49 145.069 Q1273.7 144.027 1275.18 140.15 L1276.13 137.719 L1263.03 105.833 L1268.67 105.833 L1278.8 131.18 L1288.92 105.833 L1294.57 105.833 L1280.33 141.249 Z" fill="#000000" fill-rule="nonzero" fill-opacity="1" /><path clip-path="url(#clip150)" d="M1322.58 106.788 L1322.58 111.822 Q1320.32 110.665 1317.89 110.086 Q1315.46 109.508 1312.85 109.508 Q1308.89 109.508 1306.89 110.723 Q1304.92 111.938 1304.92 114.369 Q1304.92 116.22 1306.34 117.291 Q1307.76 118.333 1312.04 119.288 L1313.87 119.693 Q1319.54 120.908 1321.91 123.136 Q1324.31 125.335 1324.31 129.299 Q1324.31 133.813 1320.72 136.446 Q1317.16 139.079 1310.91 139.079 Q1308.31 139.079 1305.47 138.558 Q1302.67 138.066 1299.54 137.054 L1299.54 131.556 Q1302.49 133.09 1305.36 133.871 Q1308.22 134.623 1311.03 134.623 Q1314.79 134.623 1316.82 133.35 Q1318.84 132.048 1318.84 129.704 Q1318.84 127.534 1317.37 126.377 Q1315.92 125.219 1310.97 124.149 L1309.12 123.715 Q1304.17 122.673 1301.97 120.532 Q1299.77 118.362 1299.77 114.6 Q1299.77 110.028 1303.02 107.54 Q1306.26 105.052 1312.22 105.052 Q1315.17 105.052 1317.77 105.486 Q1320.38 105.92 1322.58 106.788 Z" fill="#000000" fill-rule="nonzero" fill-opacity="1" /><path clip-path="url(#clip150)" d="M1359.73 118.68 L1359.73 138.24 L1354.4 138.24 L1354.4 118.854 Q1354.4 114.253 1352.61 111.967 Q1350.82 109.681 1347.23 109.681 Q1342.92 109.681 1340.43 112.43 Q1337.94 115.179 1337.94 119.924 L1337.94 138.24 L1332.59 138.24 L1332.59 93.2171 L1337.94 93.2171 L1337.94 110.867 Q1339.85 107.945 1342.42 106.498 Q1345.03 105.052 1348.41 105.052 Q1354 105.052 1356.86 108.524 Q1359.73 111.967 1359.73 118.68 Z" fill="#000000" fill-rule="nonzero" fill-opacity="1" /><path clip-path="url(#clip150)" d="M1398.07 120.705 L1398.07 123.31 L1373.59 123.31 Q1373.94 128.807 1376.89 131.701 Q1379.87 134.565 1385.16 134.565 Q1388.23 134.565 1391.09 133.813 Q1393.99 133.061 1396.82 131.556 L1396.82 136.591 Q1393.96 137.806 1390.95 138.443 Q1387.94 139.079 1384.84 139.079 Q1377.09 139.079 1372.55 134.565 Q1368.03 130.051 1368.03 122.355 Q1368.03 114.398 1372.31 109.739 Q1376.63 105.052 1383.92 105.052 Q1390.46 105.052 1394.25 109.276 Q1398.07 113.472 1398.07 120.705 M1392.74 119.143 Q1392.68 114.774 1390.28 112.17 Q1387.91 109.565 1383.98 109.565 Q1379.52 109.565 1376.83 112.083 Q1374.17 114.6 1373.76 119.172 L1392.74 119.143 Z" fill="#000000" fill-rule="nonzero" fill-opacity="1" /><path clip-path="url(#clip150)" d="M1402.99 105.833 L1408.63 105.833 L1418.76 133.032 L1428.88 105.833 L1434.52 105.833 L1422.37 138.24 L1415.14 138.24 L1402.99 105.833 Z" fill="#000000" fill-rule="nonzero" fill-opacity="1" /><path clip-path="url(#clip150)" d="M813.738 159.84 L841.053 159.84 L841.053 164.759 L819.583 164.759 L819.583 177.548 L840.156 177.548 L840.156 182.467 L819.583 182.467 L819.583 198.121 L841.574 198.121 L841.574 203.04 L813.738 203.04 L813.738 159.84 Z" fill="#000000" fill-rule="nonzero" fill-opacity="1" /><path clip-path="url(#clip150)" d="M877.887 170.633 L866.169 186.402 L878.495 203.04 L872.216 203.04 L862.783 190.309 L853.35 203.04 L847.072 203.04 L859.658 186.084 L848.142 170.633 L854.421 170.633 L863.015 182.178 L871.608 170.633 L877.887 170.633 Z" fill="#000000" fill-rule="nonzero" fill-opacity="1" /><path clip-path="url(#clip150)" d="M911.915 185.505 L911.915 188.11 L887.436 188.11 Q887.783 193.607 890.735 196.501 Q893.715 199.365 899.01 199.365 Q902.077 199.365 904.942 198.613 Q907.835 197.861 910.671 196.356 L910.671 201.391 Q907.806 202.606 904.797 203.243 Q901.788 203.879 898.692 203.879 Q890.937 203.879 886.394 199.365 Q881.88 194.851 881.88 187.155 Q881.88 179.198 886.163 174.539 Q890.474 169.852 897.766 169.852 Q904.305 169.852 908.096 174.076 Q911.915 178.272 911.915 185.505 M906.591 183.943 Q906.533 179.574 904.131 176.97 Q901.759 174.365 897.824 174.365 Q893.368 174.365 890.677 176.883 Q888.015 179.4 887.61 183.972 L906.591 183.943 Z" fill="#000000" fill-rule="nonzero" fill-opacity="1" /><path clip-path="url(#clip150)" d="M962.754 186.865 Q962.754 180.992 960.323 177.664 Q957.922 174.308 953.697 174.308 Q949.473 174.308 947.042 177.664 Q944.64 180.992 944.64 186.865 Q944.64 192.739 947.042 196.096 Q949.473 199.423 953.697 199.423 Q957.922 199.423 960.323 196.096 Q962.754 192.739 962.754 186.865 M944.64 175.552 Q946.319 172.658 948.865 171.269 Q951.44 169.852 954.999 169.852 Q960.902 169.852 964.577 174.539 Q968.28 179.226 968.28 186.865 Q968.28 194.504 964.577 199.192 Q960.902 203.879 954.999 203.879 Q951.44 203.879 948.865 202.49 Q946.319 201.072 944.64 198.179 L944.64 203.04 L939.287 203.04 L939.287 158.017 L944.64 158.017 L944.64 175.552 Z" fill="#000000" fill-rule="nonzero" fill-opacity="1" /><path clip-path="url(#clip150)" d="M1004.83 185.505 L1004.83 188.11 L980.346 188.11 Q980.694 193.607 983.645 196.501 Q986.625 199.365 991.92 199.365 Q994.987 199.365 997.852 198.613 Q1000.75 197.861 1003.58 196.356 L1003.58 201.391 Q1000.72 202.606 997.707 203.243 Q994.698 203.879 991.602 203.879 Q983.847 203.879 979.305 199.365 Q974.791 194.851 974.791 187.155 Q974.791 179.198 979.073 174.539 Q983.384 169.852 990.676 169.852 Q997.215 169.852 1001.01 174.076 Q1004.83 178.272 1004.83 185.505 M999.501 183.943 Q999.443 179.574 997.042 176.97 Q994.669 174.365 990.734 174.365 Q986.278 174.365 983.587 176.883 Q980.925 179.4 980.52 183.972 L999.501 183.943 Z" fill="#000000" fill-rule="nonzero" fill-opacity="1" /><path clip-path="url(#clip150)" d="M1040.5 183.48 L1040.5 203.04 L1035.18 203.04 L1035.18 183.654 Q1035.18 179.053 1033.38 176.767 Q1031.59 174.481 1028 174.481 Q1023.69 174.481 1021.2 177.23 Q1018.71 179.979 1018.71 184.724 L1018.71 203.04 L1013.36 203.04 L1013.36 170.633 L1018.71 170.633 L1018.71 175.667 Q1020.62 172.745 1023.2 171.298 Q1025.8 169.852 1029.19 169.852 Q1034.77 169.852 1037.64 173.324 Q1040.5 176.767 1040.5 183.48 Z" fill="#000000" fill-rule="nonzero" fill-opacity="1" /><path clip-path="url(#clip150)" d="M1074.44 171.877 L1074.44 176.854 Q1072.19 175.61 1069.9 175.002 Q1067.64 174.365 1065.33 174.365 Q1060.15 174.365 1057.28 177.664 Q1054.42 180.934 1054.42 186.865 Q1054.42 192.797 1057.28 196.096 Q1060.15 199.365 1065.33 199.365 Q1067.64 199.365 1069.9 198.758 Q1072.19 198.121 1074.44 196.877 L1074.44 201.796 Q1072.22 202.837 1069.81 203.358 Q1067.44 203.879 1064.75 203.879 Q1057.43 203.879 1053.12 199.278 Q1048.81 194.678 1048.81 186.865 Q1048.81 178.937 1053.15 174.394 Q1057.52 169.852 1065.1 169.852 Q1067.56 169.852 1069.9 170.372 Q1072.24 170.864 1074.44 171.877 Z" fill="#000000" fill-rule="nonzero" fill-opacity="1" /><path clip-path="url(#clip150)" d="M1110.64 183.48 L1110.64 203.04 L1105.32 203.04 L1105.32 183.654 Q1105.32 179.053 1103.52 176.767 Q1101.73 174.481 1098.14 174.481 Q1093.83 174.481 1091.34 177.23 Q1088.85 179.979 1088.85 184.724 L1088.85 203.04 L1083.5 203.04 L1083.5 158.017 L1088.85 158.017 L1088.85 175.667 Q1090.76 172.745 1093.34 171.298 Q1095.94 169.852 1099.33 169.852 Q1104.91 169.852 1107.78 173.324 Q1110.64 176.767 1110.64 183.48 Z" fill="#000000" fill-rule="nonzero" fill-opacity="1" /><path clip-path="url(#clip150)" d="M1146.49 176.854 Q1148.49 173.266 1151.27 171.559 Q1154.04 169.852 1157.8 169.852 Q1162.87 169.852 1165.62 173.411 Q1168.37 176.941 1168.37 183.48 L1168.37 203.04 L1163.01 203.04 L1163.01 183.654 Q1163.01 178.995 1161.36 176.738 Q1159.71 174.481 1156.33 174.481 Q1152.19 174.481 1149.79 177.23 Q1147.39 179.979 1147.39 184.724 L1147.39 203.04 L1142.04 203.04 L1142.04 183.654 Q1142.04 178.966 1140.39 176.738 Q1138.74 174.481 1135.29 174.481 Q1131.21 174.481 1128.81 177.259 Q1126.41 180.008 1126.41 184.724 L1126.41 203.04 L1121.06 203.04 L1121.06 170.633 L1126.41 170.633 L1126.41 175.667 Q1128.23 172.687 1130.78 171.269 Q1133.33 169.852 1136.83 169.852 Q1140.36 169.852 1142.82 171.645 Q1145.3 173.439 1146.49 176.854 Z" fill="#000000" fill-rule="nonzero" fill-opacity="1" /><path clip-path="url(#clip150)" d="M1193.71 186.75 Q1187.26 186.75 1184.77 188.225 Q1182.28 189.701 1182.28 193.26 Q1182.28 196.096 1184.14 197.774 Q1186.02 199.423 1189.23 199.423 Q1193.66 199.423 1196.32 196.298 Q1199.01 193.144 1199.01 187.936 L1199.01 186.75 L1193.71 186.75 M1204.33 184.551 L1204.33 203.04 L1199.01 203.04 L1199.01 198.121 Q1197.19 201.072 1194.47 202.49 Q1191.75 203.879 1187.81 203.879 Q1182.83 203.879 1179.88 201.101 Q1176.96 198.295 1176.96 193.607 Q1176.96 188.138 1180.61 185.361 Q1184.28 182.583 1191.54 182.583 L1199.01 182.583 L1199.01 182.062 Q1199.01 178.387 1196.58 176.391 Q1194.18 174.365 1189.81 174.365 Q1187.03 174.365 1184.4 175.031 Q1181.76 175.696 1179.33 177.027 L1179.33 172.108 Q1182.25 170.98 1185 170.43 Q1187.75 169.852 1190.36 169.852 Q1197.39 169.852 1200.86 173.497 Q1204.33 177.143 1204.33 184.551 Z" fill="#000000" fill-rule="nonzero" fill-opacity="1" /><path clip-path="url(#clip150)" d="M1234.08 175.61 Q1233.18 175.089 1232.11 174.857 Q1231.07 174.597 1229.8 174.597 Q1225.28 174.597 1222.85 177.548 Q1220.45 180.471 1220.45 185.968 L1220.45 203.04 L1215.1 203.04 L1215.1 170.633 L1220.45 170.633 L1220.45 175.667 Q1222.13 172.716 1224.82 171.298 Q1227.51 169.852 1231.36 169.852 Q1231.91 169.852 1232.57 169.938 Q1233.24 169.996 1234.05 170.141 L1234.08 175.61 Z" fill="#000000" fill-rule="nonzero" fill-opacity="1" /><path clip-path="url(#clip150)" d="M1239.46 158.017 L1244.81 158.017 L1244.81 184.608 L1260.7 170.633 L1267.5 170.633 L1250.31 185.795 L1268.22 203.04 L1261.28 203.04 L1244.81 187.213 L1244.81 203.04 L1239.46 203.04 L1239.46 158.017 Z" fill="#000000" fill-rule="nonzero" fill-opacity="1" /><path clip-path="url(#clip150)" d="M1275.34 195.691 L1281.44 195.691 L1281.44 200.667 L1276.7 209.927 L1272.97 209.927 L1275.34 200.667 L1275.34 195.691 Z" fill="#000000" fill-rule="nonzero" fill-opacity="1" /><path clip-path="url(#clip150)" d="M1332.31 171.588 L1332.31 176.622 Q1330.06 175.465 1327.62 174.886 Q1325.19 174.308 1322.59 174.308 Q1318.63 174.308 1316.63 175.523 Q1314.66 176.738 1314.66 179.169 Q1314.66 181.02 1316.08 182.091 Q1317.5 183.133 1321.78 184.088 L1323.6 184.493 Q1329.27 185.708 1331.65 187.936 Q1334.05 190.135 1334.05 194.099 Q1334.05 198.613 1330.46 201.246 Q1326.9 203.879 1320.65 203.879 Q1318.05 203.879 1315.21 203.358 Q1312.4 202.866 1309.28 201.854 L1309.28 196.356 Q1312.23 197.89 1315.1 198.671 Q1317.96 199.423 1320.77 199.423 Q1324.53 199.423 1326.55 198.15 Q1328.58 196.848 1328.58 194.504 Q1328.58 192.334 1327.1 191.177 Q1325.66 190.019 1320.71 188.949 L1318.86 188.515 Q1313.91 187.473 1311.71 185.332 Q1309.51 183.162 1309.51 179.4 Q1309.51 174.828 1312.75 172.34 Q1315.99 169.852 1321.95 169.852 Q1324.9 169.852 1327.51 170.286 Q1330.11 170.72 1332.31 171.588 Z" fill="#000000" fill-rule="nonzero" fill-opacity="1" /><path clip-path="url(#clip150)" d="M1342.53 170.633 L1347.85 170.633 L1347.85 203.04 L1342.53 203.04 L1342.53 170.633 M1342.53 158.017 L1347.85 158.017 L1347.85 164.759 L1342.53 164.759 L1342.53 158.017 Z" fill="#000000" fill-rule="nonzero" fill-opacity="1" /><path clip-path="url(#clip150)" d="M1384.22 176.854 Q1386.22 173.266 1389 171.559 Q1391.77 169.852 1395.54 169.852 Q1400.6 169.852 1403.35 173.411 Q1406.1 176.941 1406.1 183.48 L1406.1 203.04 L1400.74 203.04 L1400.74 183.654 Q1400.74 178.995 1399.09 176.738 Q1397.44 174.481 1394.06 174.481 Q1389.92 174.481 1387.52 177.23 Q1385.12 179.979 1385.12 184.724 L1385.12 203.04 L1379.77 203.04 L1379.77 183.654 Q1379.77 178.966 1378.12 176.738 Q1376.47 174.481 1373.02 174.481 Q1368.94 174.481 1366.54 177.259 Q1364.14 180.008 1364.14 184.724 L1364.14 203.04 L1358.79 203.04 L1358.79 170.633 L1364.14 170.633 L1364.14 175.667 Q1365.96 172.687 1368.51 171.269 Q1371.06 169.852 1374.56 169.852 Q1378.09 169.852 1380.55 171.645 Q1383.04 173.439 1384.22 176.854 Z" fill="#000000" fill-rule="nonzero" fill-opacity="1" /><path clip-path="url(#clip150)" d="M1421.87 198.179 L1421.87 215.366 L1416.51 215.366 L1416.51 170.633 L1421.87 170.633 L1421.87 175.552 Q1423.54 172.658 1426.09 171.269 Q1428.67 169.852 1432.22 169.852 Q1438.13 169.852 1441.8 174.539 Q1445.51 179.226 1445.51 186.865 Q1445.51 194.504 1441.8 199.192 Q1438.13 203.879 1432.22 203.879 Q1428.67 203.879 1426.09 202.49 Q1423.54 201.072 1421.87 198.179 M1439.98 186.865 Q1439.98 180.992 1437.55 177.664 Q1435.15 174.308 1430.92 174.308 Q1426.7 174.308 1424.27 177.664 Q1421.87 180.992 1421.87 186.865 Q1421.87 192.739 1424.27 196.096 Q1426.7 199.423 1430.92 199.423 Q1435.15 199.423 1437.55 196.096 Q1439.98 192.739 1439.98 186.865 Z" fill="#000000" fill-rule="nonzero" fill-opacity="1" /><path clip-path="url(#clip150)" d="M1454.33 158.017 L1459.66 158.017 L1459.66 203.04 L1454.33 203.04 L1454.33 158.017 Z" fill="#000000" fill-rule="nonzero" fill-opacity="1" /><path clip-path="url(#clip150)" d="M1470.8 170.633 L1476.12 170.633 L1476.12 203.04 L1470.8 203.04 L1470.8 170.633 M1470.8 158.017 L1476.12 158.017 L1476.12 164.759 L1470.8 164.759 L1470.8 158.017 Z" fill="#000000" fill-rule="nonzero" fill-opacity="1" /><path clip-path="url(#clip150)" d="M1503.67 158.017 L1503.67 162.444 L1498.57 162.444 Q1495.71 162.444 1494.58 163.602 Q1493.48 164.759 1493.48 167.768 L1493.48 170.633 L1502.25 170.633 L1502.25 174.77 L1493.48 174.77 L1493.48 203.04 L1488.13 203.04 L1488.13 174.77 L1483.03 174.77 L1483.03 170.633 L1488.13 170.633 L1488.13 168.376 Q1488.13 162.965 1490.64 160.506 Q1493.16 158.017 1498.63 158.017 L1503.67 158.017 Z" fill="#000000" fill-rule="nonzero" fill-opacity="1" /><path clip-path="url(#clip150)" d="M1520.56 206.049 Q1518.31 211.836 1516.17 213.601 Q1514.02 215.366 1510.44 215.366 L1506.18 215.366 L1506.18 210.91 L1509.31 210.91 Q1511.51 210.91 1512.72 209.869 Q1513.94 208.827 1515.41 204.95 L1516.37 202.519 L1503.26 170.633 L1508.9 170.633 L1519.03 195.98 L1529.16 170.633 L1534.8 170.633 L1520.56 206.049 Z" fill="#000000" fill-rule="nonzero" fill-opacity="1" /><path clip-path="url(#clip150)" d="M1561.68 176.13 L1598.77 176.13 L1598.77 180.992 L1561.68 180.992 L1561.68 176.13 M1561.68 187.936 L1598.77 187.936 L1598.77 192.855 L1561.68 192.855 L1561.68 187.936 Z" fill="#000000" fill-rule="nonzero" fill-opacity="1" /><path clip-path="url(#clip150)" d="M1645.88 158.017 L1645.88 162.444 L1640.79 162.444 Q1637.92 162.444 1636.8 163.602 Q1635.7 164.759 1635.7 167.768 L1635.7 170.633 L1644.46 170.633 L1644.46 174.77 L1635.7 174.77 L1635.7 203.04 L1630.34 203.04 L1630.34 174.77 L1625.25 174.77 L1625.25 170.633 L1630.34 170.633 L1630.34 168.376 Q1630.34 162.965 1632.86 160.506 Q1635.38 158.017 1640.85 158.017 L1645.88 158.017 Z" fill="#000000" fill-rule="nonzero" fill-opacity="1" /><path clip-path="url(#clip150)" d="M1665.06 186.75 Q1658.61 186.75 1656.12 188.225 Q1653.64 189.701 1653.64 193.26 Q1653.64 196.096 1655.49 197.774 Q1657.37 199.423 1660.58 199.423 Q1665.01 199.423 1667.67 196.298 Q1670.36 193.144 1670.36 187.936 L1670.36 186.75 L1665.06 186.75 M1675.68 184.551 L1675.68 203.04 L1670.36 203.04 L1670.36 198.121 Q1668.54 201.072 1665.82 202.49 Q1663.1 203.879 1659.16 203.879 Q1654.19 203.879 1651.23 201.101 Q1648.31 198.295 1648.31 193.607 Q1648.31 188.138 1651.96 185.361 Q1655.63 182.583 1662.89 182.583 L1670.36 182.583 L1670.36 182.062 Q1670.36 178.387 1667.93 176.391 Q1665.53 174.365 1661.16 174.365 Q1658.38 174.365 1655.75 175.031 Q1653.11 175.696 1650.68 177.027 L1650.68 172.108 Q1653.61 170.98 1656.36 170.43 Q1659.1 169.852 1661.71 169.852 Q1668.74 169.852 1672.21 173.497 Q1675.68 177.143 1675.68 184.551 Z" fill="#000000" fill-rule="nonzero" fill-opacity="1" /><path clip-path="url(#clip150)" d="M1686.65 158.017 L1691.97 158.017 L1691.97 203.04 L1686.65 203.04 L1686.65 158.017 Z" fill="#000000" fill-rule="nonzero" fill-opacity="1" /><path clip-path="url(#clip150)" d="M1723.77 171.588 L1723.77 176.622 Q1721.52 175.465 1719.09 174.886 Q1716.66 174.308 1714.05 174.308 Q1710.09 174.308 1708.09 175.523 Q1706.12 176.738 1706.12 179.169 Q1706.12 181.02 1707.54 182.091 Q1708.96 183.133 1713.24 184.088 L1715.06 184.493 Q1720.74 185.708 1723.11 187.936 Q1725.51 190.135 1725.51 194.099 Q1725.51 198.613 1721.92 201.246 Q1718.36 203.879 1712.11 203.879 Q1709.51 203.879 1706.67 203.358 Q1703.87 202.866 1700.74 201.854 L1700.74 196.356 Q1703.69 197.89 1706.56 198.671 Q1709.42 199.423 1712.23 199.423 Q1715.99 199.423 1718.02 198.15 Q1720.04 196.848 1720.04 194.504 Q1720.04 192.334 1718.57 191.177 Q1717.12 190.019 1712.17 188.949 L1710.32 188.515 Q1705.37 187.473 1703.17 185.332 Q1700.97 183.162 1700.97 179.4 Q1700.97 174.828 1704.21 172.34 Q1707.45 169.852 1713.42 169.852 Q1716.37 169.852 1718.97 170.286 Q1721.57 170.72 1723.77 171.588 Z" fill="#000000" fill-rule="nonzero" fill-opacity="1" /><path clip-path="url(#clip150)" d="M1761.71 185.505 L1761.71 188.11 L1737.23 188.11 Q1737.58 193.607 1740.53 196.501 Q1743.51 199.365 1748.8 199.365 Q1751.87 199.365 1754.73 198.613 Q1757.63 197.861 1760.46 196.356 L1760.46 201.391 Q1757.6 202.606 1754.59 203.243 Q1751.58 203.879 1748.48 203.879 Q1740.73 203.879 1736.19 199.365 Q1731.67 194.851 1731.67 187.155 Q1731.67 179.198 1735.96 174.539 Q1740.27 169.852 1747.56 169.852 Q1754.1 169.852 1757.89 174.076 Q1761.71 178.272 1761.71 185.505 M1756.38 183.943 Q1756.33 179.574 1753.92 176.97 Q1751.55 174.365 1747.62 174.365 Q1743.16 174.365 1740.47 176.883 Q1737.81 179.4 1737.4 183.972 L1756.38 183.943 Z" fill="#000000" fill-rule="nonzero" fill-opacity="1" /><polyline clip-path="url(#clip152)" style="stroke:#009af9; stroke-linecap:round; stroke-linejoin:round; stroke-width:4; stroke-opacity:1; fill:none" points="282.975,1388.35 383.45,1359.49 483.925,1317.61 584.4,1263.57 684.874,1204.72 785.349,1150.25 885.824,1085.18 986.299,1017.4 1086.77,937.563 1187.25,877.531 1287.72,822.701 1388.2,747.92 1488.67,630.987 1589.15,568.268 1689.62,512.941 1790.1,451.606 1890.57,401.728 1991.05,339.244 2091.52,284.299 2192,227.42 "/>
<circle clip-path="url(#clip152)" cx="282.975" cy="1388.35" r="14.4" fill="#009af9" fill-rule="evenodd" fill-opacity="1" stroke="#000000" stroke-opacity="1" stroke-width="3.2"/>
<circle clip-path="url(#clip152)" cx="383.45" cy="1359.49" r="14.4" fill="#009af9" fill-rule="evenodd" fill-opacity="1" stroke="#000000" stroke-opacity="1" stroke-width="3.2"/>
<circle clip-path="url(#clip152)" cx="483.925" cy="1317.61" r="14.4" fill="#009af9" fill-rule="evenodd" fill-opacity="1" stroke="#000000" stroke-opacity="1" stroke-width="3.2"/>
<circle clip-path="url(#clip152)" cx="584.4" cy="1263.57" r="14.4" fill="#009af9" fill-rule="evenodd" fill-opacity="1" stroke="#000000" stroke-opacity="1" stroke-width="3.2"/>
<circle clip-path="url(#clip152)" cx="684.874" cy="1204.72" r="14.4" fill="#009af9" fill-rule="evenodd" fill-opacity="1" stroke="#000000" stroke-opacity="1" stroke-width="3.2"/>
<circle clip-path="url(#clip152)" cx="785.349" cy="1150.25" r="14.4" fill="#009af9" fill-rule="evenodd" fill-opacity="1" stroke="#000000" stroke-opacity="1" stroke-width="3.2"/>
<circle clip-path="url(#clip152)" cx="885.824" cy="1085.18" r="14.4" fill="#009af9" fill-rule="evenodd" fill-opacity="1" stroke="#000000" stroke-opacity="1" stroke-width="3.2"/>
<circle clip-path="url(#clip152)" cx="986.299" cy="1017.4" r="14.4" fill="#009af9" fill-rule="evenodd" fill-opacity="1" stroke="#000000" stroke-opacity="1" stroke-width="3.2"/>
<circle clip-path="url(#clip152)" cx="1086.77" cy="937.563" r="14.4" fill="#009af9" fill-rule="evenodd" fill-opacity="1" stroke="#000000" stroke-opacity="1" stroke-width="3.2"/>
<circle clip-path="url(#clip152)" cx="1187.25" cy="877.531" r="14.4" fill="#009af9" fill-rule="evenodd" fill-opacity="1" stroke="#000000" stroke-opacity="1" stroke-width="3.2"/>
<circle clip-path="url(#clip152)" cx="1287.72" cy="822.701" r="14.4" fill="#009af9" fill-rule="evenodd" fill-opacity="1" stroke="#000000" stroke-opacity="1" stroke-width="3.2"/>
<circle clip-path="url(#clip152)" cx="1388.2" cy="747.92" r="14.4" fill="#009af9" fill-rule="evenodd" fill-opacity="1" stroke="#000000" stroke-opacity="1" stroke-width="3.2"/>
<circle clip-path="url(#clip152)" cx="1488.67" cy="630.987" r="14.4" fill="#009af9" fill-rule="evenodd" fill-opacity="1" stroke="#000000" stroke-opacity="1" stroke-width="3.2"/>
<circle clip-path="url(#clip152)" cx="1589.15" cy="568.268" r="14.4" fill="#009af9" fill-rule="evenodd" fill-opacity="1" stroke="#000000" stroke-opacity="1" stroke-width="3.2"/>
<circle clip-path="url(#clip152)" cx="1689.62" cy="512.941" r="14.4" fill="#009af9" fill-rule="evenodd" fill-opacity="1" stroke="#000000" stroke-opacity="1" stroke-width="3.2"/>
<circle clip-path="url(#clip152)" cx="1790.1" cy="451.606" r="14.4" fill="#009af9" fill-rule="evenodd" fill-opacity="1" stroke="#000000" stroke-opacity="1" stroke-width="3.2"/>
<circle clip-path="url(#clip152)" cx="1890.57" cy="401.728" r="14.4" fill="#009af9" fill-rule="evenodd" fill-opacity="1" stroke="#000000" stroke-opacity="1" stroke-width="3.2"/>
<circle clip-path="url(#clip152)" cx="1991.05" cy="339.244" r="14.4" fill="#009af9" fill-rule="evenodd" fill-opacity="1" stroke="#000000" stroke-opacity="1" stroke-width="3.2"/>
<circle clip-path="url(#clip152)" cx="2091.52" cy="284.299" r="14.4" fill="#009af9" fill-rule="evenodd" fill-opacity="1" stroke="#000000" stroke-opacity="1" stroke-width="3.2"/>
<circle clip-path="url(#clip152)" cx="2192" cy="227.42" r="14.4" fill="#009af9" fill-rule="evenodd" fill-opacity="1" stroke="#000000" stroke-opacity="1" stroke-width="3.2"/>
</svg>
